<?xml version="1.0" encoding="utf-8"?>
<svg xmlns="http://www.w3.org/2000/svg" xmlns:xlink="http://www.w3.org/1999/xlink" width="600" height="400" viewBox="0 0 2400 1600">
<defs>
  <clipPath id="clip900">
    <rect x="0" y="0" width="2400" height="1600"/>
  </clipPath>
</defs>
<path clip-path="url(#clip900)" d="M0 1600 L2400 1600 L2400 0 L0 0  Z" fill="#ffffff" fill-rule="evenodd" fill-opacity="1"/>
<defs>
  <clipPath id="clip901">
    <rect x="480" y="0" width="1681" height="1600"/>
  </clipPath>
</defs>
<path clip-path="url(#clip900)" d="M175.445 1423.18 L2352.76 1423.18 L2352.76 47.2441 L175.445 47.2441  Z" fill="#ffffff" fill-rule="evenodd" fill-opacity="1"/>
<defs>
  <clipPath id="clip902">
    <rect x="175" y="47" width="2178" height="1377"/>
  </clipPath>
</defs>
<polyline clip-path="url(#clip902)" style="stroke:#000000; stroke-linecap:round; stroke-linejoin:round; stroke-width:2; stroke-opacity:0.1; fill:none" points="221.223,1423.18 221.223,47.2441 "/>
<polyline clip-path="url(#clip902)" style="stroke:#000000; stroke-linecap:round; stroke-linejoin:round; stroke-width:2; stroke-opacity:0.1; fill:none" points="650.781,1423.18 650.781,47.2441 "/>
<polyline clip-path="url(#clip902)" style="stroke:#000000; stroke-linecap:round; stroke-linejoin:round; stroke-width:2; stroke-opacity:0.1; fill:none" points="1080.34,1423.18 1080.34,47.2441 "/>
<polyline clip-path="url(#clip902)" style="stroke:#000000; stroke-linecap:round; stroke-linejoin:round; stroke-width:2; stroke-opacity:0.1; fill:none" points="1509.9,1423.18 1509.9,47.2441 "/>
<polyline clip-path="url(#clip902)" style="stroke:#000000; stroke-linecap:round; stroke-linejoin:round; stroke-width:2; stroke-opacity:0.1; fill:none" points="1939.45,1423.18 1939.45,47.2441 "/>
<polyline clip-path="url(#clip902)" style="stroke:#000000; stroke-linecap:round; stroke-linejoin:round; stroke-width:2; stroke-opacity:0.1; fill:none" points="175.445,1399.48 2352.76,1399.48 "/>
<polyline clip-path="url(#clip902)" style="stroke:#000000; stroke-linecap:round; stroke-linejoin:round; stroke-width:2; stroke-opacity:0.1; fill:none" points="175.445,1073.71 2352.76,1073.71 "/>
<polyline clip-path="url(#clip902)" style="stroke:#000000; stroke-linecap:round; stroke-linejoin:round; stroke-width:2; stroke-opacity:0.1; fill:none" points="175.445,747.94 2352.76,747.94 "/>
<polyline clip-path="url(#clip902)" style="stroke:#000000; stroke-linecap:round; stroke-linejoin:round; stroke-width:2; stroke-opacity:0.1; fill:none" points="175.445,422.17 2352.76,422.17 "/>
<polyline clip-path="url(#clip902)" style="stroke:#000000; stroke-linecap:round; stroke-linejoin:round; stroke-width:2; stroke-opacity:0.1; fill:none" points="175.445,96.399 2352.76,96.399 "/>
<polyline clip-path="url(#clip900)" style="stroke:#000000; stroke-linecap:round; stroke-linejoin:round; stroke-width:4; stroke-opacity:1; fill:none" points="175.445,1423.18 2352.76,1423.18 "/>
<polyline clip-path="url(#clip900)" style="stroke:#000000; stroke-linecap:round; stroke-linejoin:round; stroke-width:4; stroke-opacity:1; fill:none" points="221.223,1423.18 221.223,1404.28 "/>
<polyline clip-path="url(#clip900)" style="stroke:#000000; stroke-linecap:round; stroke-linejoin:round; stroke-width:4; stroke-opacity:1; fill:none" points="650.781,1423.18 650.781,1404.28 "/>
<polyline clip-path="url(#clip900)" style="stroke:#000000; stroke-linecap:round; stroke-linejoin:round; stroke-width:4; stroke-opacity:1; fill:none" points="1080.34,1423.18 1080.34,1404.28 "/>
<polyline clip-path="url(#clip900)" style="stroke:#000000; stroke-linecap:round; stroke-linejoin:round; stroke-width:4; stroke-opacity:1; fill:none" points="1509.9,1423.18 1509.9,1404.28 "/>
<polyline clip-path="url(#clip900)" style="stroke:#000000; stroke-linecap:round; stroke-linejoin:round; stroke-width:4; stroke-opacity:1; fill:none" points="1939.45,1423.18 1939.45,1404.28 "/>
<path clip-path="url(#clip900)" d="M211.605 1481.64 L219.243 1481.64 L219.243 1455.28 L210.933 1456.95 L210.933 1452.69 L219.197 1451.02 L223.873 1451.02 L223.873 1481.64 L231.512 1481.64 L231.512 1485.58 L211.605 1485.58 L211.605 1481.64 Z" fill="#000000" fill-rule="nonzero" fill-opacity="1" /><path clip-path="url(#clip900)" d="M645.433 1481.64 L661.753 1481.64 L661.753 1485.58 L639.808 1485.58 L639.808 1481.64 Q642.47 1478.89 647.054 1474.26 Q651.66 1469.61 652.841 1468.27 Q655.086 1465.74 655.966 1464.01 Q656.868 1462.25 656.868 1460.56 Q656.868 1457.8 654.924 1456.07 Q653.003 1454.33 649.901 1454.33 Q647.702 1454.33 645.248 1455.09 Q642.818 1455.86 640.04 1457.41 L640.04 1452.69 Q642.864 1451.55 645.318 1450.97 Q647.771 1450.39 649.808 1450.39 Q655.179 1450.39 658.373 1453.08 Q661.567 1455.77 661.567 1460.26 Q661.567 1462.39 660.757 1464.31 Q659.97 1466.2 657.864 1468.8 Q657.285 1469.47 654.183 1472.69 Q651.081 1475.88 645.433 1481.64 Z" fill="#000000" fill-rule="nonzero" fill-opacity="1" /><path clip-path="url(#clip900)" d="M1084.59 1466.95 Q1087.94 1467.66 1089.82 1469.93 Q1091.72 1472.2 1091.72 1475.53 Q1091.72 1480.65 1088.2 1483.45 Q1084.68 1486.25 1078.2 1486.25 Q1076.02 1486.25 1073.71 1485.81 Q1071.41 1485.39 1068.96 1484.54 L1068.96 1480.02 Q1070.91 1481.16 1073.22 1481.74 Q1075.54 1482.32 1078.06 1482.32 Q1082.46 1482.32 1084.75 1480.58 Q1087.06 1478.84 1087.06 1475.53 Q1087.06 1472.48 1084.91 1470.77 Q1082.78 1469.03 1078.96 1469.03 L1074.93 1469.03 L1074.93 1465.19 L1079.15 1465.19 Q1082.6 1465.19 1084.42 1463.82 Q1086.25 1462.43 1086.25 1459.84 Q1086.25 1457.18 1084.35 1455.77 Q1082.48 1454.33 1078.96 1454.33 Q1077.04 1454.33 1074.84 1454.75 Q1072.64 1455.16 1070 1456.04 L1070 1451.88 Q1072.66 1451.14 1074.98 1450.77 Q1077.32 1450.39 1079.38 1450.39 Q1084.7 1450.39 1087.8 1452.83 Q1090.91 1455.23 1090.91 1459.35 Q1090.91 1462.22 1089.26 1464.21 Q1087.62 1466.18 1084.59 1466.95 Z" fill="#000000" fill-rule="nonzero" fill-opacity="1" /><path clip-path="url(#clip900)" d="M1512.91 1455.09 L1501.1 1473.54 L1512.91 1473.54 L1512.91 1455.09 M1511.68 1451.02 L1517.56 1451.02 L1517.56 1473.54 L1522.49 1473.54 L1522.49 1477.43 L1517.56 1477.43 L1517.56 1485.58 L1512.91 1485.58 L1512.91 1477.43 L1497.3 1477.43 L1497.3 1472.92 L1511.68 1451.02 Z" fill="#000000" fill-rule="nonzero" fill-opacity="1" /><path clip-path="url(#clip900)" d="M1929.73 1451.02 L1948.09 1451.02 L1948.09 1454.96 L1934.01 1454.96 L1934.01 1463.43 Q1935.03 1463.08 1936.05 1462.92 Q1937.07 1462.73 1938.09 1462.73 Q1943.88 1462.73 1947.26 1465.9 Q1950.63 1469.08 1950.63 1474.49 Q1950.63 1480.07 1947.16 1483.17 Q1943.69 1486.25 1937.37 1486.25 Q1935.2 1486.25 1932.93 1485.88 Q1930.68 1485.51 1928.27 1484.77 L1928.27 1480.07 Q1930.36 1481.2 1932.58 1481.76 Q1934.8 1482.32 1937.28 1482.32 Q1941.28 1482.32 1943.62 1480.21 Q1945.96 1478.1 1945.96 1474.49 Q1945.96 1470.88 1943.62 1468.77 Q1941.28 1466.67 1937.28 1466.67 Q1935.4 1466.67 1933.53 1467.08 Q1931.68 1467.5 1929.73 1468.38 L1929.73 1451.02 Z" fill="#000000" fill-rule="nonzero" fill-opacity="1" /><path clip-path="url(#clip900)" d="M1245.93 1520.52 L1252.83 1520.52 L1264.64 1538.19 L1276.51 1520.52 L1283.42 1520.52 L1268.14 1543.34 L1284.44 1568.04 L1277.53 1568.04 L1264.16 1547.83 L1250.7 1568.04 L1243.76 1568.04 L1260.73 1542.68 L1245.93 1520.52 Z" fill="#000000" fill-rule="nonzero" fill-opacity="1" /><polyline clip-path="url(#clip900)" style="stroke:#000000; stroke-linecap:round; stroke-linejoin:round; stroke-width:4; stroke-opacity:1; fill:none" points="175.445,1423.18 175.445,47.2441 "/>
<polyline clip-path="url(#clip900)" style="stroke:#000000; stroke-linecap:round; stroke-linejoin:round; stroke-width:4; stroke-opacity:1; fill:none" points="175.445,1399.48 194.343,1399.48 "/>
<polyline clip-path="url(#clip900)" style="stroke:#000000; stroke-linecap:round; stroke-linejoin:round; stroke-width:4; stroke-opacity:1; fill:none" points="175.445,1073.71 194.343,1073.71 "/>
<polyline clip-path="url(#clip900)" style="stroke:#000000; stroke-linecap:round; stroke-linejoin:round; stroke-width:4; stroke-opacity:1; fill:none" points="175.445,747.94 194.343,747.94 "/>
<polyline clip-path="url(#clip900)" style="stroke:#000000; stroke-linecap:round; stroke-linejoin:round; stroke-width:4; stroke-opacity:1; fill:none" points="175.445,422.17 194.343,422.17 "/>
<polyline clip-path="url(#clip900)" style="stroke:#000000; stroke-linecap:round; stroke-linejoin:round; stroke-width:4; stroke-opacity:1; fill:none" points="175.445,96.399 194.343,96.399 "/>
<path clip-path="url(#clip900)" d="M127.501 1385.28 Q123.89 1385.28 122.061 1388.84 Q120.255 1392.39 120.255 1399.52 Q120.255 1406.62 122.061 1410.19 Q123.89 1413.73 127.501 1413.73 Q131.135 1413.73 132.941 1410.19 Q134.769 1406.62 134.769 1399.52 Q134.769 1392.39 132.941 1388.84 Q131.135 1385.28 127.501 1385.28 M127.501 1381.58 Q133.311 1381.58 136.367 1386.18 Q139.445 1390.77 139.445 1399.52 Q139.445 1408.24 136.367 1412.85 Q133.311 1417.43 127.501 1417.43 Q121.691 1417.43 118.612 1412.85 Q115.556 1408.24 115.556 1399.52 Q115.556 1390.77 118.612 1386.18 Q121.691 1381.58 127.501 1381.58 Z" fill="#000000" fill-rule="nonzero" fill-opacity="1" /><path clip-path="url(#clip900)" d="M123.126 1087.06 L139.445 1087.06 L139.445 1090.99 L117.501 1090.99 L117.501 1087.06 Q120.163 1084.3 124.746 1079.67 Q129.353 1075.02 130.533 1073.68 Q132.779 1071.15 133.658 1069.42 Q134.561 1067.66 134.561 1065.97 Q134.561 1063.21 132.617 1061.48 Q130.695 1059.74 127.593 1059.74 Q125.394 1059.74 122.941 1060.5 Q120.51 1061.27 117.732 1062.82 L117.732 1058.1 Q120.556 1056.96 123.01 1056.38 Q125.464 1055.81 127.501 1055.81 Q132.871 1055.81 136.066 1058.49 Q139.26 1061.18 139.26 1065.67 Q139.26 1067.8 138.45 1069.72 Q137.663 1071.62 135.556 1074.21 Q134.978 1074.88 131.876 1078.1 Q128.774 1081.29 123.126 1087.06 Z" fill="#000000" fill-rule="nonzero" fill-opacity="1" /><path clip-path="url(#clip900)" d="M129.862 734.734 L118.056 753.183 L129.862 753.183 L129.862 734.734 M128.635 730.66 L134.515 730.66 L134.515 753.183 L139.445 753.183 L139.445 757.072 L134.515 757.072 L134.515 765.22 L129.862 765.22 L129.862 757.072 L114.26 757.072 L114.26 752.558 L128.635 730.66 Z" fill="#000000" fill-rule="nonzero" fill-opacity="1" /><path clip-path="url(#clip900)" d="M127.917 420.306 Q124.769 420.306 122.918 422.459 Q121.089 424.612 121.089 428.362 Q121.089 432.088 122.918 434.264 Q124.769 436.417 127.917 436.417 Q131.066 436.417 132.894 434.264 Q134.746 432.088 134.746 428.362 Q134.746 424.612 132.894 422.459 Q131.066 420.306 127.917 420.306 M137.2 405.653 L137.2 409.913 Q135.441 409.079 133.635 408.64 Q131.853 408.2 130.093 408.2 Q125.464 408.2 123.01 411.325 Q120.58 414.45 120.232 420.769 Q121.598 418.755 123.658 417.69 Q125.718 416.602 128.195 416.602 Q133.404 416.602 136.413 419.774 Q139.445 422.922 139.445 428.362 Q139.445 433.686 136.297 436.903 Q133.149 440.121 127.917 440.121 Q121.922 440.121 118.751 435.538 Q115.58 430.931 115.58 422.204 Q115.58 414.01 119.468 409.149 Q123.357 404.265 129.908 404.265 Q131.667 404.265 133.45 404.612 Q135.255 404.959 137.2 405.653 Z" fill="#000000" fill-rule="nonzero" fill-opacity="1" /><path clip-path="url(#clip900)" d="M127.593 97.2671 Q124.26 97.2671 122.339 99.0495 Q120.441 100.832 120.441 103.957 Q120.441 107.082 122.339 108.864 Q124.26 110.647 127.593 110.647 Q130.927 110.647 132.848 108.864 Q134.769 107.059 134.769 103.957 Q134.769 100.832 132.848 99.0495 Q130.95 97.2671 127.593 97.2671 M122.918 95.2764 Q119.908 94.5356 118.218 92.4755 Q116.552 90.4153 116.552 87.4523 Q116.552 83.3088 119.492 80.9014 Q122.455 78.4941 127.593 78.4941 Q132.755 78.4941 135.695 80.9014 Q138.635 83.3088 138.635 87.4523 Q138.635 90.4153 136.945 92.4755 Q135.279 94.5356 132.292 95.2764 Q135.672 96.0634 137.547 98.3551 Q139.445 100.647 139.445 103.957 Q139.445 108.98 136.367 111.665 Q133.311 114.35 127.593 114.35 Q121.876 114.35 118.797 111.665 Q115.742 108.98 115.742 103.957 Q115.742 100.647 117.64 98.3551 Q119.538 96.0634 122.918 95.2764 M121.205 87.8921 Q121.205 90.5773 122.871 92.0819 Q124.561 93.5866 127.593 93.5866 Q130.603 93.5866 132.292 92.0819 Q134.005 90.5773 134.005 87.8921 Q134.005 85.207 132.292 83.7024 Q130.603 82.1977 127.593 82.1977 Q124.561 82.1977 122.871 83.7024 Q121.205 85.207 121.205 87.8921 Z" fill="#000000" fill-rule="nonzero" fill-opacity="1" /><path clip-path="url(#clip900)" d="M16.4842 755.248 L16.4842 748.341 L36.0269 735.164 L16.4842 722.083 L16.4842 715.176 L41.3741 731.981 L64.0042 731.981 L64.0042 738.443 L41.3741 738.443 L16.4842 755.248 Z" fill="#000000" fill-rule="nonzero" fill-opacity="1" /><circle clip-path="url(#clip902)" cx="461.031" cy="1256.79" r="14.4" fill="#009af9" fill-rule="evenodd" fill-opacity="1" stroke="#000000" stroke-opacity="1" stroke-width="3.2"/>
<circle clip-path="url(#clip902)" cx="382.984" cy="707.449" r="14.4" fill="#009af9" fill-rule="evenodd" fill-opacity="1" stroke="#000000" stroke-opacity="1" stroke-width="3.2"/>
<circle clip-path="url(#clip902)" cx="447.391" cy="1297.7" r="14.4" fill="#009af9" fill-rule="evenodd" fill-opacity="1" stroke="#000000" stroke-opacity="1" stroke-width="3.2"/>
<circle clip-path="url(#clip902)" cx="438.234" cy="1363.03" r="14.4" fill="#009af9" fill-rule="evenodd" fill-opacity="1" stroke="#000000" stroke-opacity="1" stroke-width="3.2"/>
<circle clip-path="url(#clip902)" cx="237.067" cy="666.519" r="14.4" fill="#009af9" fill-rule="evenodd" fill-opacity="1" stroke="#000000" stroke-opacity="1" stroke-width="3.2"/>
<circle clip-path="url(#clip902)" cx="2166.17" cy="300.337" r="14.4" fill="#009af9" fill-rule="evenodd" fill-opacity="1" stroke="#000000" stroke-opacity="1" stroke-width="3.2"/>
<circle clip-path="url(#clip902)" cx="2248.01" cy="662.77" r="14.4" fill="#009af9" fill-rule="evenodd" fill-opacity="1" stroke="#000000" stroke-opacity="1" stroke-width="3.2"/>
<circle clip-path="url(#clip902)" cx="1919.5" cy="1384.24" r="14.4" fill="#009af9" fill-rule="evenodd" fill-opacity="1" stroke="#000000" stroke-opacity="1" stroke-width="3.2"/>
<circle clip-path="url(#clip902)" cx="2291.13" cy="865.971" r="14.4" fill="#009af9" fill-rule="evenodd" fill-opacity="1" stroke="#000000" stroke-opacity="1" stroke-width="3.2"/>
<circle clip-path="url(#clip902)" cx="1792.36" cy="86.1857" r="14.4" fill="#009af9" fill-rule="evenodd" fill-opacity="1" stroke="#000000" stroke-opacity="1" stroke-width="3.2"/>
<circle clip-path="url(#clip902)" cx="454.211" cy="1277.25" r="14.4" fill="#e26f46" fill-rule="evenodd" fill-opacity="1" stroke="#000000" stroke-opacity="1" stroke-width="3.2"/>
<circle clip-path="url(#clip902)" cx="382.984" cy="707.449" r="14.4" fill="#e26f46" fill-rule="evenodd" fill-opacity="1" stroke="#000000" stroke-opacity="1" stroke-width="3.2"/>
<circle clip-path="url(#clip902)" cx="454.211" cy="1277.25" r="14.4" fill="#e26f46" fill-rule="evenodd" fill-opacity="1" stroke="#000000" stroke-opacity="1" stroke-width="3.2"/>
<circle clip-path="url(#clip902)" cx="438.234" cy="1363.03" r="14.4" fill="#e26f46" fill-rule="evenodd" fill-opacity="1" stroke="#000000" stroke-opacity="1" stroke-width="3.2"/>
<circle clip-path="url(#clip902)" cx="237.067" cy="666.519" r="14.4" fill="#e26f46" fill-rule="evenodd" fill-opacity="1" stroke="#000000" stroke-opacity="1" stroke-width="3.2"/>
<circle clip-path="url(#clip902)" cx="2166.17" cy="300.337" r="14.4" fill="#e26f46" fill-rule="evenodd" fill-opacity="1" stroke="#000000" stroke-opacity="1" stroke-width="3.2"/>
<circle clip-path="url(#clip902)" cx="2248.01" cy="662.77" r="14.4" fill="#e26f46" fill-rule="evenodd" fill-opacity="1" stroke="#000000" stroke-opacity="1" stroke-width="3.2"/>
<circle clip-path="url(#clip902)" cx="1919.5" cy="1384.24" r="14.4" fill="#e26f46" fill-rule="evenodd" fill-opacity="1" stroke="#000000" stroke-opacity="1" stroke-width="3.2"/>
<circle clip-path="url(#clip902)" cx="2291.13" cy="865.971" r="14.4" fill="#e26f46" fill-rule="evenodd" fill-opacity="1" stroke="#000000" stroke-opacity="1" stroke-width="3.2"/>
<circle clip-path="url(#clip902)" cx="1792.36" cy="86.1857" r="14.4" fill="#e26f46" fill-rule="evenodd" fill-opacity="1" stroke="#000000" stroke-opacity="1" stroke-width="3.2"/>
<path clip-path="url(#clip900)" d="M248.022 248.629 L946.816 248.629 L946.816 93.1086 L248.022 93.1086  Z" fill="#ffffff" fill-rule="evenodd" fill-opacity="1"/>
<polyline clip-path="url(#clip900)" style="stroke:#000000; stroke-linecap:round; stroke-linejoin:round; stroke-width:4; stroke-opacity:1; fill:none" points="248.022,248.629 946.816,248.629 946.816,93.1086 248.022,93.1086 248.022,248.629 "/>
<circle clip-path="url(#clip900)" cx="344.792" cy="144.949" r="20.48" fill="#009af9" fill-rule="evenodd" fill-opacity="1" stroke="#000000" stroke-opacity="1" stroke-width="4.55111"/>
<path clip-path="url(#clip900)" d="M457.579 130.84 Q452.487 130.84 449.478 134.636 Q446.491 138.432 446.491 144.983 Q446.491 151.511 449.478 155.307 Q452.487 159.104 457.579 159.104 Q462.672 159.104 465.635 155.307 Q468.621 151.511 468.621 144.983 Q468.621 138.432 465.635 134.636 Q462.672 130.84 457.579 130.84 M457.579 127.044 Q464.848 127.044 469.2 131.928 Q473.552 136.789 473.552 144.983 Q473.552 153.155 469.2 158.039 Q464.848 162.9 457.579 162.9 Q450.288 162.9 445.913 158.039 Q441.561 153.178 441.561 144.983 Q441.561 136.789 445.913 131.928 Q450.288 127.044 457.579 127.044 Z" fill="#000000" fill-rule="nonzero" fill-opacity="1" /><path clip-path="url(#clip900)" d="M495.704 140.284 Q494.987 139.868 494.13 139.682 Q493.297 139.474 492.278 139.474 Q488.667 139.474 486.723 141.835 Q484.801 144.173 484.801 148.571 L484.801 162.229 L480.519 162.229 L480.519 136.303 L484.801 136.303 L484.801 140.331 Q486.144 137.969 488.297 136.835 Q490.45 135.678 493.528 135.678 Q493.968 135.678 494.5 135.747 Q495.033 135.794 495.681 135.909 L495.704 140.284 Z" fill="#000000" fill-rule="nonzero" fill-opacity="1" /><path clip-path="url(#clip900)" d="M500.172 136.303 L504.431 136.303 L504.431 162.229 L500.172 162.229 L500.172 136.303 M500.172 126.21 L504.431 126.21 L504.431 131.604 L500.172 131.604 L500.172 126.21 Z" fill="#000000" fill-rule="nonzero" fill-opacity="1" /><path clip-path="url(#clip900)" d="M530.403 148.965 Q530.403 144.335 528.482 141.789 Q526.584 139.243 523.135 139.243 Q519.709 139.243 517.787 141.789 Q515.889 144.335 515.889 148.965 Q515.889 153.571 517.787 156.118 Q519.709 158.664 523.135 158.664 Q526.584 158.664 528.482 156.118 Q530.403 153.571 530.403 148.965 M534.662 159.011 Q534.662 165.631 531.723 168.849 Q528.783 172.09 522.718 172.09 Q520.473 172.09 518.482 171.742 Q516.491 171.418 514.616 170.724 L514.616 166.58 Q516.491 167.599 518.32 168.085 Q520.149 168.571 522.047 168.571 Q526.236 168.571 528.32 166.372 Q530.403 164.196 530.403 159.775 L530.403 157.668 Q529.084 159.96 527.023 161.094 Q524.963 162.229 522.093 162.229 Q517.324 162.229 514.408 158.594 Q511.491 154.96 511.491 148.965 Q511.491 142.946 514.408 139.312 Q517.324 135.678 522.093 135.678 Q524.963 135.678 527.023 136.812 Q529.084 137.946 530.403 140.238 L530.403 136.303 L534.662 136.303 L534.662 159.011 Z" fill="#000000" fill-rule="nonzero" fill-opacity="1" /><path clip-path="url(#clip900)" d="M543.435 136.303 L547.695 136.303 L547.695 162.229 L543.435 162.229 L543.435 136.303 M543.435 126.21 L547.695 126.21 L547.695 131.604 L543.435 131.604 L543.435 126.21 Z" fill="#000000" fill-rule="nonzero" fill-opacity="1" /><path clip-path="url(#clip900)" d="M578.157 146.581 L578.157 162.229 L573.898 162.229 L573.898 146.719 Q573.898 143.039 572.463 141.21 Q571.028 139.382 568.158 139.382 Q564.708 139.382 562.718 141.581 Q560.727 143.78 560.727 147.576 L560.727 162.229 L556.445 162.229 L556.445 136.303 L560.727 136.303 L560.727 140.331 Q562.255 137.993 564.315 136.835 Q566.398 135.678 569.107 135.678 Q573.574 135.678 575.866 138.456 Q578.157 141.21 578.157 146.581 Z" fill="#000000" fill-rule="nonzero" fill-opacity="1" /><path clip-path="url(#clip900)" d="M598.435 149.196 Q593.273 149.196 591.282 150.377 Q589.292 151.557 589.292 154.405 Q589.292 156.673 590.773 158.016 Q592.278 159.335 594.847 159.335 Q598.389 159.335 600.518 156.835 Q602.671 154.312 602.671 150.145 L602.671 149.196 L598.435 149.196 M606.93 147.437 L606.93 162.229 L602.671 162.229 L602.671 158.293 Q601.213 160.655 599.037 161.789 Q596.861 162.9 593.713 162.9 Q589.731 162.9 587.37 160.678 Q585.032 158.432 585.032 154.682 Q585.032 150.307 587.949 148.085 Q590.889 145.863 596.699 145.863 L602.671 145.863 L602.671 145.446 Q602.671 142.507 600.727 140.909 Q598.805 139.289 595.31 139.289 Q593.088 139.289 590.981 139.821 Q588.875 140.354 586.931 141.419 L586.931 137.483 Q589.269 136.581 591.468 136.141 Q593.667 135.678 595.75 135.678 Q601.375 135.678 604.153 138.594 Q606.93 141.511 606.93 147.437 Z" fill="#000000" fill-rule="nonzero" fill-opacity="1" /><path clip-path="url(#clip900)" d="M615.704 126.21 L619.963 126.21 L619.963 162.229 L615.704 162.229 L615.704 126.21 Z" fill="#000000" fill-rule="nonzero" fill-opacity="1" /><path clip-path="url(#clip900)" d="M661.004 140.238 L661.004 126.21 L665.263 126.21 L665.263 162.229 L661.004 162.229 L661.004 158.34 Q659.662 160.655 657.601 161.789 Q655.564 162.9 652.694 162.9 Q647.995 162.9 645.032 159.15 Q642.092 155.4 642.092 149.289 Q642.092 143.178 645.032 139.428 Q647.995 135.678 652.694 135.678 Q655.564 135.678 657.601 136.812 Q659.662 137.923 661.004 140.238 M646.49 149.289 Q646.49 153.988 648.412 156.673 Q650.356 159.335 653.736 159.335 Q657.115 159.335 659.06 156.673 Q661.004 153.988 661.004 149.289 Q661.004 144.59 659.06 141.928 Q657.115 139.243 653.736 139.243 Q650.356 139.243 648.412 141.928 Q646.49 144.59 646.49 149.289 Z" fill="#000000" fill-rule="nonzero" fill-opacity="1" /><path clip-path="url(#clip900)" d="M685.819 149.196 Q680.657 149.196 678.666 150.377 Q676.675 151.557 676.675 154.405 Q676.675 156.673 678.157 158.016 Q679.662 159.335 682.231 159.335 Q685.773 159.335 687.902 156.835 Q690.055 154.312 690.055 150.145 L690.055 149.196 L685.819 149.196 M694.314 147.437 L694.314 162.229 L690.055 162.229 L690.055 158.293 Q688.597 160.655 686.421 161.789 Q684.245 162.9 681.097 162.9 Q677.115 162.9 674.754 160.678 Q672.416 158.432 672.416 154.682 Q672.416 150.307 675.333 148.085 Q678.273 145.863 684.083 145.863 L690.055 145.863 L690.055 145.446 Q690.055 142.507 688.111 140.909 Q686.189 139.289 682.694 139.289 Q680.472 139.289 678.365 139.821 Q676.259 140.354 674.314 141.419 L674.314 137.483 Q676.652 136.581 678.851 136.141 Q681.05 135.678 683.134 135.678 Q688.759 135.678 691.536 138.594 Q694.314 141.511 694.314 147.437 Z" fill="#000000" fill-rule="nonzero" fill-opacity="1" /><path clip-path="url(#clip900)" d="M707.3 128.942 L707.3 136.303 L716.073 136.303 L716.073 139.613 L707.3 139.613 L707.3 153.687 Q707.3 156.858 708.157 157.761 Q709.036 158.664 711.698 158.664 L716.073 158.664 L716.073 162.229 L711.698 162.229 Q706.768 162.229 704.893 160.4 Q703.018 158.548 703.018 153.687 L703.018 139.613 L699.893 139.613 L699.893 136.303 L703.018 136.303 L703.018 128.942 L707.3 128.942 Z" fill="#000000" fill-rule="nonzero" fill-opacity="1" /><path clip-path="url(#clip900)" d="M733.458 149.196 Q728.296 149.196 726.305 150.377 Q724.314 151.557 724.314 154.405 Q724.314 156.673 725.796 158.016 Q727.3 159.335 729.87 159.335 Q733.411 159.335 735.541 156.835 Q737.694 154.312 737.694 150.145 L737.694 149.196 L733.458 149.196 M741.953 147.437 L741.953 162.229 L737.694 162.229 L737.694 158.293 Q736.235 160.655 734.059 161.789 Q731.883 162.9 728.735 162.9 Q724.754 162.9 722.393 160.678 Q720.055 158.432 720.055 154.682 Q720.055 150.307 722.971 148.085 Q725.911 145.863 731.721 145.863 L737.694 145.863 L737.694 145.446 Q737.694 142.507 735.749 140.909 Q733.828 139.289 730.333 139.289 Q728.11 139.289 726.004 139.821 Q723.897 140.354 721.953 141.419 L721.953 137.483 Q724.291 136.581 726.49 136.141 Q728.689 135.678 730.772 135.678 Q736.397 135.678 739.175 138.594 Q741.953 141.511 741.953 147.437 Z" fill="#000000" fill-rule="nonzero" fill-opacity="1" /><circle clip-path="url(#clip900)" cx="344.792" cy="196.789" r="20.48" fill="#e26f46" fill-rule="evenodd" fill-opacity="1" stroke="#000000" stroke-opacity="1" stroke-width="4.55111"/>
<path clip-path="url(#clip900)" d="M446.237 183.351 L446.237 210.226 L451.885 210.226 Q459.038 210.226 462.348 206.985 Q465.681 203.745 465.681 196.754 Q465.681 189.809 462.348 186.592 Q459.038 183.351 451.885 183.351 L446.237 183.351 M441.561 179.509 L451.167 179.509 Q461.214 179.509 465.913 183.698 Q470.612 187.865 470.612 196.754 Q470.612 205.689 465.89 209.879 Q461.167 214.069 451.167 214.069 L441.561 214.069 L441.561 179.509 Z" fill="#000000" fill-rule="nonzero" fill-opacity="1" /><path clip-path="url(#clip900)" d="M489.663 201.036 Q484.501 201.036 482.51 202.217 Q480.519 203.397 480.519 206.245 Q480.519 208.513 482.001 209.856 Q483.505 211.175 486.075 211.175 Q489.616 211.175 491.746 208.675 Q493.899 206.152 493.899 201.985 L493.899 201.036 L489.663 201.036 M498.158 199.277 L498.158 214.069 L493.899 214.069 L493.899 210.133 Q492.44 212.495 490.264 213.629 Q488.088 214.74 484.94 214.74 Q480.959 214.74 478.598 212.518 Q476.26 210.272 476.26 206.522 Q476.26 202.147 479.176 199.925 Q482.116 197.703 487.926 197.703 L493.899 197.703 L493.899 197.286 Q493.899 194.347 491.954 192.749 Q490.033 191.129 486.538 191.129 Q484.315 191.129 482.209 191.661 Q480.102 192.194 478.158 193.259 L478.158 189.323 Q480.496 188.421 482.695 187.981 Q484.894 187.518 486.977 187.518 Q492.602 187.518 495.38 190.434 Q498.158 193.351 498.158 199.277 Z" fill="#000000" fill-rule="nonzero" fill-opacity="1" /><path clip-path="url(#clip900)" d="M511.144 180.782 L511.144 188.143 L519.917 188.143 L519.917 191.453 L511.144 191.453 L511.144 205.527 Q511.144 208.698 512 209.601 Q512.88 210.504 515.542 210.504 L519.917 210.504 L519.917 214.069 L515.542 214.069 Q510.612 214.069 508.737 212.24 Q506.862 210.388 506.862 205.527 L506.862 191.453 L503.737 191.453 L503.737 188.143 L506.862 188.143 L506.862 180.782 L511.144 180.782 Z" fill="#000000" fill-rule="nonzero" fill-opacity="1" /><path clip-path="url(#clip900)" d="M537.301 201.036 Q532.139 201.036 530.148 202.217 Q528.158 203.397 528.158 206.245 Q528.158 208.513 529.639 209.856 Q531.144 211.175 533.713 211.175 Q537.255 211.175 539.385 208.675 Q541.537 206.152 541.537 201.985 L541.537 201.036 L537.301 201.036 M545.797 199.277 L545.797 214.069 L541.537 214.069 L541.537 210.133 Q540.079 212.495 537.903 213.629 Q535.727 214.74 532.579 214.74 Q528.598 214.74 526.236 212.518 Q523.898 210.272 523.898 206.522 Q523.898 202.147 526.815 199.925 Q529.755 197.703 535.565 197.703 L541.537 197.703 L541.537 197.286 Q541.537 194.347 539.593 192.749 Q537.672 191.129 534.176 191.129 Q531.954 191.129 529.848 191.661 Q527.741 192.194 525.797 193.259 L525.797 189.323 Q528.135 188.421 530.334 187.981 Q532.533 187.518 534.616 187.518 Q540.241 187.518 543.019 190.434 Q545.797 193.351 545.797 199.277 Z" fill="#000000" fill-rule="nonzero" fill-opacity="1" /><path clip-path="url(#clip900)" d="M581.421 201.036 Q576.259 201.036 574.269 202.217 Q572.278 203.397 572.278 206.245 Q572.278 208.513 573.759 209.856 Q575.264 211.175 577.833 211.175 Q581.375 211.175 583.505 208.675 Q585.657 206.152 585.657 201.985 L585.657 201.036 L581.421 201.036 M589.917 199.277 L589.917 214.069 L585.657 214.069 L585.657 210.133 Q584.199 212.495 582.023 213.629 Q579.847 214.74 576.699 214.74 Q572.718 214.74 570.357 212.518 Q568.019 210.272 568.019 206.522 Q568.019 202.147 570.935 199.925 Q573.875 197.703 579.685 197.703 L585.657 197.703 L585.657 197.286 Q585.657 194.347 583.713 192.749 Q581.792 191.129 578.296 191.129 Q576.074 191.129 573.968 191.661 Q571.861 192.194 569.917 193.259 L569.917 189.323 Q572.255 188.421 574.454 187.981 Q576.653 187.518 578.736 187.518 Q584.361 187.518 587.139 190.434 Q589.917 193.351 589.917 199.277 Z" fill="#000000" fill-rule="nonzero" fill-opacity="1" /><path clip-path="url(#clip900)" d="M611.815 178.05 L611.815 181.592 L607.741 181.592 Q605.449 181.592 604.546 182.518 Q603.667 183.444 603.667 185.851 L603.667 188.143 L610.68 188.143 L610.68 191.453 L603.667 191.453 L603.667 214.069 L599.384 214.069 L599.384 191.453 L595.31 191.453 L595.31 188.143 L599.384 188.143 L599.384 186.337 Q599.384 182.009 601.398 180.041 Q603.412 178.05 607.787 178.05 L611.815 178.05 Z" fill="#000000" fill-rule="nonzero" fill-opacity="1" /><path clip-path="url(#clip900)" d="M618.759 180.782 L618.759 188.143 L627.532 188.143 L627.532 191.453 L618.759 191.453 L618.759 205.527 Q618.759 208.698 619.616 209.601 Q620.495 210.504 623.157 210.504 L627.532 210.504 L627.532 214.069 L623.157 214.069 Q618.227 214.069 616.352 212.24 Q614.477 210.388 614.477 205.527 L614.477 191.453 L611.352 191.453 L611.352 188.143 L614.477 188.143 L614.477 180.782 L618.759 180.782 Z" fill="#000000" fill-rule="nonzero" fill-opacity="1" /><path clip-path="url(#clip900)" d="M655.31 200.041 L655.31 202.124 L635.727 202.124 Q636.004 206.522 638.365 208.837 Q640.75 211.129 644.986 211.129 Q647.439 211.129 649.731 210.527 Q652.046 209.925 654.314 208.721 L654.314 212.749 Q652.023 213.721 649.615 214.231 Q647.208 214.74 644.731 214.74 Q638.527 214.74 634.893 211.129 Q631.282 207.518 631.282 201.36 Q631.282 194.995 634.708 191.268 Q638.157 187.518 643.99 187.518 Q649.222 187.518 652.254 190.897 Q655.31 194.254 655.31 200.041 M651.051 198.791 Q651.004 195.296 649.083 193.212 Q647.185 191.129 644.037 191.129 Q640.472 191.129 638.319 193.143 Q636.19 195.157 635.865 198.814 L651.051 198.791 Z" fill="#000000" fill-rule="nonzero" fill-opacity="1" /><path clip-path="url(#clip900)" d="M677.324 192.124 Q676.606 191.708 675.75 191.522 Q674.916 191.314 673.898 191.314 Q670.287 191.314 668.342 193.675 Q666.421 196.013 666.421 200.411 L666.421 214.069 L662.138 214.069 L662.138 188.143 L666.421 188.143 L666.421 192.171 Q667.763 189.809 669.916 188.675 Q672.069 187.518 675.148 187.518 Q675.587 187.518 676.12 187.587 Q676.652 187.634 677.3 187.749 L677.324 192.124 Z" fill="#000000" fill-rule="nonzero" fill-opacity="1" /><path clip-path="url(#clip900)" d="M715.518 189.138 L715.518 193.12 Q713.712 192.124 711.884 191.638 Q710.078 191.129 708.226 191.129 Q704.083 191.129 701.791 193.768 Q699.499 196.384 699.499 201.129 Q699.499 205.874 701.791 208.513 Q704.083 211.129 708.226 211.129 Q710.078 211.129 711.884 210.643 Q713.712 210.133 715.518 209.138 L715.518 213.073 Q713.735 213.907 711.814 214.323 Q709.916 214.74 707.763 214.74 Q701.907 214.74 698.458 211.059 Q695.009 207.379 695.009 201.129 Q695.009 194.786 698.481 191.152 Q701.976 187.518 708.041 187.518 Q710.009 187.518 711.884 187.935 Q713.759 188.328 715.518 189.138 Z" fill="#000000" fill-rule="nonzero" fill-opacity="1" /><path clip-path="url(#clip900)" d="M722.925 178.05 L727.184 178.05 L727.184 214.069 L722.925 214.069 L722.925 178.05 Z" fill="#000000" fill-rule="nonzero" fill-opacity="1" /><path clip-path="url(#clip900)" d="M735.657 203.837 L735.657 188.143 L739.916 188.143 L739.916 203.675 Q739.916 207.356 741.351 209.208 Q742.786 211.036 745.657 211.036 Q749.106 211.036 751.096 208.837 Q753.11 206.638 753.11 202.842 L753.11 188.143 L757.369 188.143 L757.369 214.069 L753.11 214.069 L753.11 210.087 Q751.559 212.448 749.499 213.606 Q747.462 214.74 744.754 214.74 Q740.286 214.74 737.971 211.962 Q735.657 209.184 735.657 203.837 M746.374 187.518 L746.374 187.518 Z" fill="#000000" fill-rule="nonzero" fill-opacity="1" /><path clip-path="url(#clip900)" d="M782.67 188.907 L782.67 192.934 Q780.865 192.009 778.92 191.546 Q776.976 191.083 774.893 191.083 Q771.721 191.083 770.124 192.055 Q768.55 193.027 768.55 194.971 Q768.55 196.453 769.684 197.309 Q770.818 198.143 774.244 198.907 L775.703 199.231 Q780.24 200.203 782.138 201.985 Q784.059 203.745 784.059 206.916 Q784.059 210.527 781.189 212.633 Q778.342 214.74 773.342 214.74 Q771.258 214.74 768.99 214.323 Q766.744 213.93 764.244 213.12 L764.244 208.721 Q766.606 209.948 768.897 210.573 Q771.189 211.175 773.434 211.175 Q776.443 211.175 778.064 210.157 Q779.684 209.115 779.684 207.24 Q779.684 205.504 778.504 204.578 Q777.346 203.652 773.388 202.796 L771.906 202.448 Q767.948 201.615 766.189 199.902 Q764.43 198.166 764.43 195.157 Q764.43 191.499 767.022 189.509 Q769.615 187.518 774.383 187.518 Q776.744 187.518 778.828 187.865 Q780.911 188.212 782.67 188.907 Z" fill="#000000" fill-rule="nonzero" fill-opacity="1" /><path clip-path="url(#clip900)" d="M795.054 180.782 L795.054 188.143 L803.828 188.143 L803.828 191.453 L795.054 191.453 L795.054 205.527 Q795.054 208.698 795.911 209.601 Q796.791 210.504 799.453 210.504 L803.828 210.504 L803.828 214.069 L799.453 214.069 Q794.522 214.069 792.647 212.24 Q790.772 210.388 790.772 205.527 L790.772 191.453 L787.647 191.453 L787.647 188.143 L790.772 188.143 L790.772 180.782 L795.054 180.782 Z" fill="#000000" fill-rule="nonzero" fill-opacity="1" /><path clip-path="url(#clip900)" d="M831.605 200.041 L831.605 202.124 L812.022 202.124 Q812.3 206.522 814.661 208.837 Q817.045 211.129 821.281 211.129 Q823.735 211.129 826.026 210.527 Q828.341 209.925 830.61 208.721 L830.61 212.749 Q828.318 213.721 825.911 214.231 Q823.503 214.74 821.027 214.74 Q814.823 214.74 811.189 211.129 Q807.578 207.518 807.578 201.36 Q807.578 194.995 811.003 191.268 Q814.452 187.518 820.286 187.518 Q825.517 187.518 828.55 190.897 Q831.605 194.254 831.605 200.041 M827.346 198.791 Q827.3 195.296 825.378 193.212 Q823.48 191.129 820.332 191.129 Q816.767 191.129 814.615 193.143 Q812.485 195.157 812.161 198.814 L827.346 198.791 Z" fill="#000000" fill-rule="nonzero" fill-opacity="1" /><path clip-path="url(#clip900)" d="M853.619 192.124 Q852.901 191.708 852.045 191.522 Q851.212 191.314 850.193 191.314 Q846.582 191.314 844.638 193.675 Q842.716 196.013 842.716 200.411 L842.716 214.069 L838.434 214.069 L838.434 188.143 L842.716 188.143 L842.716 192.171 Q844.059 189.809 846.212 188.675 Q848.364 187.518 851.443 187.518 Q851.883 187.518 852.415 187.587 Q852.948 187.634 853.596 187.749 L853.619 192.124 Z" fill="#000000" fill-rule="nonzero" fill-opacity="1" /><path clip-path="url(#clip900)" d="M858.087 188.143 L862.346 188.143 L862.346 214.069 L858.087 214.069 L858.087 188.143 M858.087 178.05 L862.346 178.05 L862.346 183.444 L858.087 183.444 L858.087 178.05 Z" fill="#000000" fill-rule="nonzero" fill-opacity="1" /><path clip-path="url(#clip900)" d="M892.809 198.421 L892.809 214.069 L888.549 214.069 L888.549 198.559 Q888.549 194.879 887.114 193.05 Q885.679 191.222 882.809 191.222 Q879.36 191.222 877.369 193.421 Q875.378 195.62 875.378 199.416 L875.378 214.069 L871.096 214.069 L871.096 188.143 L875.378 188.143 L875.378 192.171 Q876.906 189.833 878.966 188.675 Q881.049 187.518 883.758 187.518 Q888.225 187.518 890.517 190.296 Q892.809 193.05 892.809 198.421 Z" fill="#000000" fill-rule="nonzero" fill-opacity="1" /><path clip-path="url(#clip900)" d="M918.364 200.805 Q918.364 196.175 916.443 193.629 Q914.545 191.083 911.095 191.083 Q907.67 191.083 905.748 193.629 Q903.85 196.175 903.85 200.805 Q903.85 205.411 905.748 207.958 Q907.67 210.504 911.095 210.504 Q914.545 210.504 916.443 207.958 Q918.364 205.411 918.364 200.805 M922.623 210.851 Q922.623 217.471 919.683 220.689 Q916.744 223.93 910.679 223.93 Q908.433 223.93 906.443 223.582 Q904.452 223.258 902.577 222.564 L902.577 218.42 Q904.452 219.439 906.281 219.925 Q908.109 220.411 910.008 220.411 Q914.197 220.411 916.281 218.212 Q918.364 216.036 918.364 211.615 L918.364 209.508 Q917.045 211.8 914.984 212.934 Q912.924 214.069 910.054 214.069 Q905.285 214.069 902.369 210.434 Q899.452 206.8 899.452 200.805 Q899.452 194.786 902.369 191.152 Q905.285 187.518 910.054 187.518 Q912.924 187.518 914.984 188.652 Q917.045 189.786 918.364 192.078 L918.364 188.143 L922.623 188.143 L922.623 210.851 Z" fill="#000000" fill-rule="nonzero" fill-opacity="1" /></svg>
