<?xml version="1.0" encoding="utf-8"?>
<svg xmlns="http://www.w3.org/2000/svg" xmlns:xlink="http://www.w3.org/1999/xlink" width="600" height="400" viewBox="0 0 2400 1600">
<defs>
  <clipPath id="clip000">
    <rect x="0" y="0" width="2400" height="1600"/>
  </clipPath>
</defs>
<path clip-path="url(#clip000)" d="M0 1600 L2400 1600 L2400 0 L0 0  Z" fill="#ffffff" fill-rule="evenodd" fill-opacity="1"/>
<defs>
  <clipPath id="clip001">
    <rect x="480" y="0" width="1681" height="1600"/>
  </clipPath>
</defs>
<path clip-path="url(#clip000)" d="M250.028 1423.18 L2352.76 1423.18 L2352.76 47.2441 L250.028 47.2441  Z" fill="#ffffff" fill-rule="evenodd" fill-opacity="1"/>
<defs>
  <clipPath id="clip002">
    <rect x="250" y="47" width="2104" height="1377"/>
  </clipPath>
</defs>
<polyline clip-path="url(#clip002)" style="stroke:#000000; stroke-linecap:round; stroke-linejoin:round; stroke-width:2; stroke-opacity:0.1; fill:none" points="302.223,1423.18 302.223,47.2441 "/>
<polyline clip-path="url(#clip002)" style="stroke:#000000; stroke-linecap:round; stroke-linejoin:round; stroke-width:2; stroke-opacity:0.1; fill:none" points="731.312,1423.18 731.312,47.2441 "/>
<polyline clip-path="url(#clip002)" style="stroke:#000000; stroke-linecap:round; stroke-linejoin:round; stroke-width:2; stroke-opacity:0.1; fill:none" points="1160.4,1423.18 1160.4,47.2441 "/>
<polyline clip-path="url(#clip002)" style="stroke:#000000; stroke-linecap:round; stroke-linejoin:round; stroke-width:2; stroke-opacity:0.1; fill:none" points="1589.49,1423.18 1589.49,47.2441 "/>
<polyline clip-path="url(#clip002)" style="stroke:#000000; stroke-linecap:round; stroke-linejoin:round; stroke-width:2; stroke-opacity:0.1; fill:none" points="2018.58,1423.18 2018.58,47.2441 "/>
<polyline clip-path="url(#clip002)" style="stroke:#000000; stroke-linecap:round; stroke-linejoin:round; stroke-width:2; stroke-opacity:0.1; fill:none" points="250.028,1298.09 2352.76,1298.09 "/>
<polyline clip-path="url(#clip002)" style="stroke:#000000; stroke-linecap:round; stroke-linejoin:round; stroke-width:2; stroke-opacity:0.1; fill:none" points="250.028,1047.92 2352.76,1047.92 "/>
<polyline clip-path="url(#clip002)" style="stroke:#000000; stroke-linecap:round; stroke-linejoin:round; stroke-width:2; stroke-opacity:0.1; fill:none" points="250.028,797.755 2352.76,797.755 "/>
<polyline clip-path="url(#clip002)" style="stroke:#000000; stroke-linecap:round; stroke-linejoin:round; stroke-width:2; stroke-opacity:0.1; fill:none" points="250.028,547.584 2352.76,547.584 "/>
<polyline clip-path="url(#clip002)" style="stroke:#000000; stroke-linecap:round; stroke-linejoin:round; stroke-width:2; stroke-opacity:0.1; fill:none" points="250.028,297.414 2352.76,297.414 "/>
<polyline clip-path="url(#clip000)" style="stroke:#000000; stroke-linecap:round; stroke-linejoin:round; stroke-width:4; stroke-opacity:1; fill:none" points="250.028,1423.18 2352.76,1423.18 "/>
<polyline clip-path="url(#clip000)" style="stroke:#000000; stroke-linecap:round; stroke-linejoin:round; stroke-width:4; stroke-opacity:1; fill:none" points="302.223,1423.18 302.223,1404.28 "/>
<polyline clip-path="url(#clip000)" style="stroke:#000000; stroke-linecap:round; stroke-linejoin:round; stroke-width:4; stroke-opacity:1; fill:none" points="731.312,1423.18 731.312,1404.28 "/>
<polyline clip-path="url(#clip000)" style="stroke:#000000; stroke-linecap:round; stroke-linejoin:round; stroke-width:4; stroke-opacity:1; fill:none" points="1160.4,1423.18 1160.4,1404.28 "/>
<polyline clip-path="url(#clip000)" style="stroke:#000000; stroke-linecap:round; stroke-linejoin:round; stroke-width:4; stroke-opacity:1; fill:none" points="1589.49,1423.18 1589.49,1404.28 "/>
<polyline clip-path="url(#clip000)" style="stroke:#000000; stroke-linecap:round; stroke-linejoin:round; stroke-width:4; stroke-opacity:1; fill:none" points="2018.58,1423.18 2018.58,1404.28 "/>
<path clip-path="url(#clip000)" d="M292.605 1481.64 L300.244 1481.64 L300.244 1455.28 L291.934 1456.95 L291.934 1452.69 L300.198 1451.02 L304.873 1451.02 L304.873 1481.64 L312.512 1481.64 L312.512 1485.58 L292.605 1485.58 L292.605 1481.64 Z" fill="#000000" fill-rule="nonzero" fill-opacity="1" /><path clip-path="url(#clip000)" d="M725.965 1481.64 L742.285 1481.64 L742.285 1485.58 L720.34 1485.58 L720.34 1481.64 Q723.002 1478.89 727.586 1474.26 Q732.192 1469.61 733.373 1468.27 Q735.618 1465.74 736.498 1464.01 Q737.4 1462.25 737.4 1460.56 Q737.4 1457.8 735.456 1456.07 Q733.535 1454.33 730.433 1454.33 Q728.234 1454.33 725.78 1455.09 Q723.35 1455.86 720.572 1457.41 L720.572 1452.69 Q723.396 1451.55 725.849 1450.97 Q728.303 1450.39 730.34 1450.39 Q735.711 1450.39 738.905 1453.08 Q742.099 1455.77 742.099 1460.26 Q742.099 1462.39 741.289 1464.31 Q740.502 1466.2 738.396 1468.8 Q737.817 1469.47 734.715 1472.69 Q731.613 1475.88 725.965 1481.64 Z" fill="#000000" fill-rule="nonzero" fill-opacity="1" /><path clip-path="url(#clip000)" d="M1164.65 1466.95 Q1168.01 1467.66 1169.88 1469.93 Q1171.78 1472.2 1171.78 1475.53 Q1171.78 1480.65 1168.26 1483.45 Q1164.74 1486.25 1158.26 1486.25 Q1156.08 1486.25 1153.77 1485.81 Q1151.48 1485.39 1149.02 1484.54 L1149.02 1480.02 Q1150.97 1481.16 1153.28 1481.74 Q1155.6 1482.32 1158.12 1482.32 Q1162.52 1482.32 1164.81 1480.58 Q1167.13 1478.84 1167.13 1475.53 Q1167.13 1472.48 1164.97 1470.77 Q1162.84 1469.03 1159.02 1469.03 L1155 1469.03 L1155 1465.19 L1159.21 1465.19 Q1162.66 1465.19 1164.49 1463.82 Q1166.32 1462.43 1166.32 1459.84 Q1166.32 1457.18 1164.42 1455.77 Q1162.54 1454.33 1159.02 1454.33 Q1157.1 1454.33 1154.9 1454.75 Q1152.71 1455.16 1150.07 1456.04 L1150.07 1451.88 Q1152.73 1451.14 1155.04 1450.77 Q1157.38 1450.39 1159.44 1450.39 Q1164.77 1450.39 1167.87 1452.83 Q1170.97 1455.23 1170.97 1459.35 Q1170.97 1462.22 1169.33 1464.21 Q1167.68 1466.18 1164.65 1466.95 Z" fill="#000000" fill-rule="nonzero" fill-opacity="1" /><path clip-path="url(#clip000)" d="M1592.5 1455.09 L1580.7 1473.54 L1592.5 1473.54 L1592.5 1455.09 M1591.27 1451.02 L1597.15 1451.02 L1597.15 1473.54 L1602.08 1473.54 L1602.08 1477.43 L1597.15 1477.43 L1597.15 1485.58 L1592.5 1485.58 L1592.5 1477.43 L1576.9 1477.43 L1576.9 1472.92 L1591.27 1451.02 Z" fill="#000000" fill-rule="nonzero" fill-opacity="1" /><path clip-path="url(#clip000)" d="M2008.86 1451.02 L2027.21 1451.02 L2027.21 1454.96 L2013.14 1454.96 L2013.14 1463.43 Q2014.16 1463.08 2015.18 1462.92 Q2016.2 1462.73 2017.22 1462.73 Q2023 1462.73 2026.38 1465.9 Q2029.76 1469.08 2029.76 1474.49 Q2029.76 1480.07 2026.29 1483.17 Q2022.82 1486.25 2016.5 1486.25 Q2014.32 1486.25 2012.05 1485.88 Q2009.81 1485.51 2007.4 1484.77 L2007.4 1480.07 Q2009.48 1481.2 2011.71 1481.76 Q2013.93 1482.32 2016.4 1482.32 Q2020.41 1482.32 2022.75 1480.21 Q2025.09 1478.1 2025.09 1474.49 Q2025.09 1470.88 2022.75 1468.77 Q2020.41 1466.67 2016.4 1466.67 Q2014.53 1466.67 2012.65 1467.08 Q2010.8 1467.5 2008.86 1468.38 L2008.86 1451.02 Z" fill="#000000" fill-rule="nonzero" fill-opacity="1" /><path clip-path="url(#clip000)" d="M1283.22 1520.52 L1290.12 1520.52 L1301.93 1538.19 L1313.81 1520.52 L1320.71 1520.52 L1305.43 1543.34 L1321.73 1568.04 L1314.82 1568.04 L1301.46 1547.83 L1287.99 1568.04 L1281.05 1568.04 L1298.02 1542.68 L1283.22 1520.52 Z" fill="#000000" fill-rule="nonzero" fill-opacity="1" /><polyline clip-path="url(#clip000)" style="stroke:#000000; stroke-linecap:round; stroke-linejoin:round; stroke-width:4; stroke-opacity:1; fill:none" points="250.028,1423.18 250.028,47.2441 "/>
<polyline clip-path="url(#clip000)" style="stroke:#000000; stroke-linecap:round; stroke-linejoin:round; stroke-width:4; stroke-opacity:1; fill:none" points="250.028,1298.09 268.926,1298.09 "/>
<polyline clip-path="url(#clip000)" style="stroke:#000000; stroke-linecap:round; stroke-linejoin:round; stroke-width:4; stroke-opacity:1; fill:none" points="250.028,1047.92 268.926,1047.92 "/>
<polyline clip-path="url(#clip000)" style="stroke:#000000; stroke-linecap:round; stroke-linejoin:round; stroke-width:4; stroke-opacity:1; fill:none" points="250.028,797.755 268.926,797.755 "/>
<polyline clip-path="url(#clip000)" style="stroke:#000000; stroke-linecap:round; stroke-linejoin:round; stroke-width:4; stroke-opacity:1; fill:none" points="250.028,547.584 268.926,547.584 "/>
<polyline clip-path="url(#clip000)" style="stroke:#000000; stroke-linecap:round; stroke-linejoin:round; stroke-width:4; stroke-opacity:1; fill:none" points="250.028,297.414 268.926,297.414 "/>
<path clip-path="url(#clip000)" d="M126.691 1283.89 Q123.08 1283.89 121.251 1287.46 Q119.445 1291 119.445 1298.13 Q119.445 1305.24 121.251 1308.8 Q123.08 1312.34 126.691 1312.34 Q130.325 1312.34 132.13 1308.8 Q133.959 1305.24 133.959 1298.13 Q133.959 1291 132.13 1287.46 Q130.325 1283.89 126.691 1283.89 M126.691 1280.19 Q132.501 1280.19 135.556 1284.8 Q138.635 1289.38 138.635 1298.13 Q138.635 1306.86 135.556 1311.46 Q132.501 1316.05 126.691 1316.05 Q120.88 1316.05 117.802 1311.46 Q114.746 1306.86 114.746 1298.13 Q114.746 1289.38 117.802 1284.8 Q120.88 1280.19 126.691 1280.19 Z" fill="#000000" fill-rule="nonzero" fill-opacity="1" /><path clip-path="url(#clip000)" d="M146.853 1309.5 L151.737 1309.5 L151.737 1315.37 L146.853 1315.37 L146.853 1309.5 Z" fill="#000000" fill-rule="nonzero" fill-opacity="1" /><path clip-path="url(#clip000)" d="M171.922 1283.89 Q168.311 1283.89 166.482 1287.46 Q164.677 1291 164.677 1298.13 Q164.677 1305.24 166.482 1308.8 Q168.311 1312.34 171.922 1312.34 Q175.556 1312.34 177.362 1308.8 Q179.19 1305.24 179.19 1298.13 Q179.19 1291 177.362 1287.46 Q175.556 1283.89 171.922 1283.89 M171.922 1280.19 Q177.732 1280.19 180.788 1284.8 Q183.866 1289.38 183.866 1298.13 Q183.866 1306.86 180.788 1311.46 Q177.732 1316.05 171.922 1316.05 Q166.112 1316.05 163.033 1311.46 Q159.978 1306.86 159.978 1298.13 Q159.978 1289.38 163.033 1284.8 Q166.112 1280.19 171.922 1280.19 Z" fill="#000000" fill-rule="nonzero" fill-opacity="1" /><path clip-path="url(#clip000)" d="M202.084 1283.89 Q198.473 1283.89 196.644 1287.46 Q194.838 1291 194.838 1298.13 Q194.838 1305.24 196.644 1308.8 Q198.473 1312.34 202.084 1312.34 Q205.718 1312.34 207.524 1308.8 Q209.352 1305.24 209.352 1298.13 Q209.352 1291 207.524 1287.46 Q205.718 1283.89 202.084 1283.89 M202.084 1280.19 Q207.894 1280.19 210.949 1284.8 Q214.028 1289.38 214.028 1298.13 Q214.028 1306.86 210.949 1311.46 Q207.894 1316.05 202.084 1316.05 Q196.274 1316.05 193.195 1311.46 Q190.139 1306.86 190.139 1298.13 Q190.139 1289.38 193.195 1284.8 Q196.274 1280.19 202.084 1280.19 Z" fill="#000000" fill-rule="nonzero" fill-opacity="1" /><path clip-path="url(#clip000)" d="M128.288 1033.72 Q124.677 1033.72 122.848 1037.29 Q121.043 1040.83 121.043 1047.96 Q121.043 1055.07 122.848 1058.63 Q124.677 1062.17 128.288 1062.17 Q131.922 1062.17 133.728 1058.63 Q135.556 1055.07 135.556 1047.96 Q135.556 1040.83 133.728 1037.29 Q131.922 1033.72 128.288 1033.72 M128.288 1030.02 Q134.098 1030.02 137.154 1034.63 Q140.232 1039.21 140.232 1047.96 Q140.232 1056.69 137.154 1061.29 Q134.098 1065.88 128.288 1065.88 Q122.478 1065.88 119.399 1061.29 Q116.343 1056.69 116.343 1047.96 Q116.343 1039.21 119.399 1034.63 Q122.478 1030.02 128.288 1030.02 Z" fill="#000000" fill-rule="nonzero" fill-opacity="1" /><path clip-path="url(#clip000)" d="M148.45 1059.33 L153.334 1059.33 L153.334 1065.2 L148.45 1065.2 L148.45 1059.33 Z" fill="#000000" fill-rule="nonzero" fill-opacity="1" /><path clip-path="url(#clip000)" d="M173.519 1033.72 Q169.908 1033.72 168.079 1037.29 Q166.274 1040.83 166.274 1047.96 Q166.274 1055.07 168.079 1058.63 Q169.908 1062.17 173.519 1062.17 Q177.153 1062.17 178.959 1058.63 Q180.788 1055.07 180.788 1047.96 Q180.788 1040.83 178.959 1037.29 Q177.153 1033.72 173.519 1033.72 M173.519 1030.02 Q179.329 1030.02 182.385 1034.63 Q185.463 1039.21 185.463 1047.96 Q185.463 1056.69 182.385 1061.29 Q179.329 1065.88 173.519 1065.88 Q167.709 1065.88 164.63 1061.29 Q161.575 1056.69 161.575 1047.96 Q161.575 1039.21 164.63 1034.63 Q167.709 1030.02 173.519 1030.02 Z" fill="#000000" fill-rule="nonzero" fill-opacity="1" /><path clip-path="url(#clip000)" d="M197.709 1061.27 L214.028 1061.27 L214.028 1065.2 L192.084 1065.2 L192.084 1061.27 Q194.746 1058.51 199.329 1053.89 Q203.936 1049.23 205.116 1047.89 Q207.362 1045.37 208.241 1043.63 Q209.144 1041.87 209.144 1040.18 Q209.144 1037.43 207.199 1035.69 Q205.278 1033.95 202.176 1033.95 Q199.977 1033.95 197.524 1034.72 Q195.093 1035.48 192.315 1037.03 L192.315 1032.31 Q195.139 1031.18 197.593 1030.6 Q200.047 1030.02 202.084 1030.02 Q207.454 1030.02 210.649 1032.7 Q213.843 1035.39 213.843 1039.88 Q213.843 1042.01 213.033 1043.93 Q212.246 1045.83 210.139 1048.42 Q209.561 1049.09 206.459 1052.31 Q203.357 1055.51 197.709 1061.27 Z" fill="#000000" fill-rule="nonzero" fill-opacity="1" /><path clip-path="url(#clip000)" d="M126.205 783.553 Q122.593 783.553 120.765 787.118 Q118.959 790.66 118.959 797.789 Q118.959 804.896 120.765 808.46 Q122.593 812.002 126.205 812.002 Q129.839 812.002 131.644 808.46 Q133.473 804.896 133.473 797.789 Q133.473 790.66 131.644 787.118 Q129.839 783.553 126.205 783.553 M126.205 779.85 Q132.015 779.85 135.07 784.456 Q138.149 789.039 138.149 797.789 Q138.149 806.516 135.07 811.122 Q132.015 815.706 126.205 815.706 Q120.394 815.706 117.316 811.122 Q114.26 806.516 114.26 797.789 Q114.26 789.039 117.316 784.456 Q120.394 779.85 126.205 779.85 Z" fill="#000000" fill-rule="nonzero" fill-opacity="1" /><path clip-path="url(#clip000)" d="M146.366 809.155 L151.251 809.155 L151.251 815.035 L146.366 815.035 L146.366 809.155 Z" fill="#000000" fill-rule="nonzero" fill-opacity="1" /><path clip-path="url(#clip000)" d="M171.436 783.553 Q167.825 783.553 165.996 787.118 Q164.19 790.66 164.19 797.789 Q164.19 804.896 165.996 808.46 Q167.825 812.002 171.436 812.002 Q175.07 812.002 176.876 808.46 Q178.704 804.896 178.704 797.789 Q178.704 790.66 176.876 787.118 Q175.07 783.553 171.436 783.553 M171.436 779.85 Q177.246 779.85 180.301 784.456 Q183.38 789.039 183.38 797.789 Q183.38 806.516 180.301 811.122 Q177.246 815.706 171.436 815.706 Q165.626 815.706 162.547 811.122 Q159.491 806.516 159.491 797.789 Q159.491 789.039 162.547 784.456 Q165.626 779.85 171.436 779.85 Z" fill="#000000" fill-rule="nonzero" fill-opacity="1" /><path clip-path="url(#clip000)" d="M204.445 784.549 L192.639 802.998 L204.445 802.998 L204.445 784.549 M203.218 780.475 L209.098 780.475 L209.098 802.998 L214.028 802.998 L214.028 806.886 L209.098 806.886 L209.098 815.035 L204.445 815.035 L204.445 806.886 L188.843 806.886 L188.843 802.373 L203.218 780.475 Z" fill="#000000" fill-rule="nonzero" fill-opacity="1" /><path clip-path="url(#clip000)" d="M126.529 533.383 Q122.918 533.383 121.089 536.948 Q119.283 540.489 119.283 547.619 Q119.283 554.726 121.089 558.29 Q122.918 561.832 126.529 561.832 Q130.163 561.832 131.968 558.29 Q133.797 554.726 133.797 547.619 Q133.797 540.489 131.968 536.948 Q130.163 533.383 126.529 533.383 M126.529 529.679 Q132.339 529.679 135.394 534.286 Q138.473 538.869 138.473 547.619 Q138.473 556.346 135.394 560.952 Q132.339 565.536 126.529 565.536 Q120.718 565.536 117.64 560.952 Q114.584 556.346 114.584 547.619 Q114.584 538.869 117.64 534.286 Q120.718 529.679 126.529 529.679 Z" fill="#000000" fill-rule="nonzero" fill-opacity="1" /><path clip-path="url(#clip000)" d="M146.691 558.985 L151.575 558.985 L151.575 564.864 L146.691 564.864 L146.691 558.985 Z" fill="#000000" fill-rule="nonzero" fill-opacity="1" /><path clip-path="url(#clip000)" d="M171.76 533.383 Q168.149 533.383 166.32 536.948 Q164.515 540.489 164.515 547.619 Q164.515 554.726 166.32 558.29 Q168.149 561.832 171.76 561.832 Q175.394 561.832 177.2 558.29 Q179.028 554.726 179.028 547.619 Q179.028 540.489 177.2 536.948 Q175.394 533.383 171.76 533.383 M171.76 529.679 Q177.57 529.679 180.626 534.286 Q183.704 538.869 183.704 547.619 Q183.704 556.346 180.626 560.952 Q177.57 565.536 171.76 565.536 Q165.95 565.536 162.871 560.952 Q159.815 556.346 159.815 547.619 Q159.815 538.869 162.871 534.286 Q165.95 529.679 171.76 529.679 Z" fill="#000000" fill-rule="nonzero" fill-opacity="1" /><path clip-path="url(#clip000)" d="M202.5 545.721 Q199.352 545.721 197.5 547.874 Q195.672 550.026 195.672 553.776 Q195.672 557.503 197.5 559.679 Q199.352 561.832 202.5 561.832 Q205.649 561.832 207.477 559.679 Q209.329 557.503 209.329 553.776 Q209.329 550.026 207.477 547.874 Q205.649 545.721 202.5 545.721 M211.783 531.068 L211.783 535.327 Q210.024 534.494 208.218 534.054 Q206.436 533.615 204.676 533.615 Q200.047 533.615 197.593 536.74 Q195.163 539.865 194.815 546.184 Q196.181 544.17 198.241 543.105 Q200.301 542.017 202.778 542.017 Q207.987 542.017 210.996 545.189 Q214.028 548.337 214.028 553.776 Q214.028 559.101 210.88 562.318 Q207.732 565.536 202.5 565.536 Q196.505 565.536 193.334 560.952 Q190.163 556.346 190.163 547.619 Q190.163 539.425 194.051 534.564 Q197.94 529.679 204.491 529.679 Q206.25 529.679 208.033 530.027 Q209.838 530.374 211.783 531.068 Z" fill="#000000" fill-rule="nonzero" fill-opacity="1" /><path clip-path="url(#clip000)" d="M126.783 283.213 Q123.172 283.213 121.343 286.778 Q119.538 290.319 119.538 297.449 Q119.538 304.555 121.343 308.12 Q123.172 311.662 126.783 311.662 Q130.417 311.662 132.223 308.12 Q134.052 304.555 134.052 297.449 Q134.052 290.319 132.223 286.778 Q130.417 283.213 126.783 283.213 M126.783 279.509 Q132.593 279.509 135.649 284.116 Q138.728 288.699 138.728 297.449 Q138.728 306.176 135.649 310.782 Q132.593 315.366 126.783 315.366 Q120.973 315.366 117.894 310.782 Q114.839 306.176 114.839 297.449 Q114.839 288.699 117.894 284.116 Q120.973 279.509 126.783 279.509 Z" fill="#000000" fill-rule="nonzero" fill-opacity="1" /><path clip-path="url(#clip000)" d="M146.945 308.815 L151.829 308.815 L151.829 314.694 L146.945 314.694 L146.945 308.815 Z" fill="#000000" fill-rule="nonzero" fill-opacity="1" /><path clip-path="url(#clip000)" d="M172.014 283.213 Q168.403 283.213 166.575 286.778 Q164.769 290.319 164.769 297.449 Q164.769 304.555 166.575 308.12 Q168.403 311.662 172.014 311.662 Q175.649 311.662 177.454 308.12 Q179.283 304.555 179.283 297.449 Q179.283 290.319 177.454 286.778 Q175.649 283.213 172.014 283.213 M172.014 279.509 Q177.825 279.509 180.88 284.116 Q183.959 288.699 183.959 297.449 Q183.959 306.176 180.88 310.782 Q177.825 315.366 172.014 315.366 Q166.204 315.366 163.126 310.782 Q160.07 306.176 160.07 297.449 Q160.07 288.699 163.126 284.116 Q166.204 279.509 172.014 279.509 Z" fill="#000000" fill-rule="nonzero" fill-opacity="1" /><path clip-path="url(#clip000)" d="M202.176 298.282 Q198.843 298.282 196.922 300.065 Q195.024 301.847 195.024 304.972 Q195.024 308.097 196.922 309.879 Q198.843 311.662 202.176 311.662 Q205.51 311.662 207.431 309.879 Q209.352 308.074 209.352 304.972 Q209.352 301.847 207.431 300.065 Q205.533 298.282 202.176 298.282 M197.5 296.292 Q194.491 295.551 192.801 293.491 Q191.135 291.43 191.135 288.468 Q191.135 284.324 194.075 281.917 Q197.037 279.509 202.176 279.509 Q207.338 279.509 210.278 281.917 Q213.218 284.324 213.218 288.468 Q213.218 291.43 211.528 293.491 Q209.861 295.551 206.875 296.292 Q210.255 297.079 212.13 299.37 Q214.028 301.662 214.028 304.972 Q214.028 309.995 210.949 312.68 Q207.894 315.366 202.176 315.366 Q196.459 315.366 193.38 312.68 Q190.325 309.995 190.325 304.972 Q190.325 301.662 192.223 299.37 Q194.121 297.079 197.5 296.292 M195.787 288.907 Q195.787 291.593 197.454 293.097 Q199.144 294.602 202.176 294.602 Q205.186 294.602 206.875 293.097 Q208.588 291.593 208.588 288.907 Q208.588 286.222 206.875 284.718 Q205.186 283.213 202.176 283.213 Q199.144 283.213 197.454 284.718 Q195.787 286.222 195.787 288.907 Z" fill="#000000" fill-rule="nonzero" fill-opacity="1" /><path clip-path="url(#clip000)" d="M16.4842 755.248 L16.4842 748.341 L36.0269 735.164 L16.4842 722.083 L16.4842 715.176 L41.3741 731.981 L64.0042 731.981 L64.0042 738.443 L41.3741 738.443 L16.4842 755.248 Z" fill="#000000" fill-rule="nonzero" fill-opacity="1" /><circle clip-path="url(#clip002)" cx="309.539" cy="1298.09" r="14.4" fill="#009af9" fill-rule="evenodd" fill-opacity="1" stroke="#000000" stroke-opacity="1" stroke-width="3.2"/>
<circle clip-path="url(#clip002)" cx="504.79" cy="1298.09" r="14.4" fill="#009af9" fill-rule="evenodd" fill-opacity="1" stroke="#000000" stroke-opacity="1" stroke-width="3.2"/>
<circle clip-path="url(#clip002)" cx="560.368" cy="1298.09" r="14.4" fill="#009af9" fill-rule="evenodd" fill-opacity="1" stroke="#000000" stroke-opacity="1" stroke-width="3.2"/>
<circle clip-path="url(#clip002)" cx="683.783" cy="1298.09" r="14.4" fill="#009af9" fill-rule="evenodd" fill-opacity="1" stroke="#000000" stroke-opacity="1" stroke-width="3.2"/>
<circle clip-path="url(#clip002)" cx="619.97" cy="1298.09" r="14.4" fill="#009af9" fill-rule="evenodd" fill-opacity="1" stroke="#000000" stroke-opacity="1" stroke-width="3.2"/>
<circle clip-path="url(#clip002)" cx="1636.95" cy="1298.09" r="14.4" fill="#009af9" fill-rule="evenodd" fill-opacity="1" stroke="#000000" stroke-opacity="1" stroke-width="3.2"/>
<circle clip-path="url(#clip002)" cx="2233.1" cy="1298.09" r="14.4" fill="#009af9" fill-rule="evenodd" fill-opacity="1" stroke="#000000" stroke-opacity="1" stroke-width="3.2"/>
<circle clip-path="url(#clip002)" cx="1760.52" cy="1298.09" r="14.4" fill="#009af9" fill-rule="evenodd" fill-opacity="1" stroke="#000000" stroke-opacity="1" stroke-width="3.2"/>
<circle clip-path="url(#clip002)" cx="1780.13" cy="1298.09" r="14.4" fill="#009af9" fill-rule="evenodd" fill-opacity="1" stroke="#000000" stroke-opacity="1" stroke-width="3.2"/>
<circle clip-path="url(#clip002)" cx="2293.24" cy="1298.09" r="14.4" fill="#009af9" fill-rule="evenodd" fill-opacity="1" stroke="#000000" stroke-opacity="1" stroke-width="3.2"/>
<circle clip-path="url(#clip002)" cx="309.539" cy="1173.01" r="14.4" fill="#e26f46" fill-rule="evenodd" fill-opacity="1" stroke="#000000" stroke-opacity="1" stroke-width="3.2"/>
<circle clip-path="url(#clip002)" cx="504.79" cy="1173.01" r="14.4" fill="#e26f46" fill-rule="evenodd" fill-opacity="1" stroke="#000000" stroke-opacity="1" stroke-width="3.2"/>
<circle clip-path="url(#clip002)" cx="560.368" cy="1173.01" r="14.4" fill="#e26f46" fill-rule="evenodd" fill-opacity="1" stroke="#000000" stroke-opacity="1" stroke-width="3.2"/>
<circle clip-path="url(#clip002)" cx="683.783" cy="1173.01" r="14.4" fill="#e26f46" fill-rule="evenodd" fill-opacity="1" stroke="#000000" stroke-opacity="1" stroke-width="3.2"/>
<circle clip-path="url(#clip002)" cx="619.97" cy="1173.01" r="14.4" fill="#e26f46" fill-rule="evenodd" fill-opacity="1" stroke="#000000" stroke-opacity="1" stroke-width="3.2"/>
<circle clip-path="url(#clip002)" cx="1636.95" cy="1173.01" r="14.4" fill="#e26f46" fill-rule="evenodd" fill-opacity="1" stroke="#000000" stroke-opacity="1" stroke-width="3.2"/>
<circle clip-path="url(#clip002)" cx="2233.1" cy="1173.01" r="14.4" fill="#e26f46" fill-rule="evenodd" fill-opacity="1" stroke="#000000" stroke-opacity="1" stroke-width="3.2"/>
<circle clip-path="url(#clip002)" cx="1770.33" cy="1173.01" r="14.4" fill="#e26f46" fill-rule="evenodd" fill-opacity="1" stroke="#000000" stroke-opacity="1" stroke-width="3.2"/>
<circle clip-path="url(#clip002)" cx="1770.33" cy="1173.01" r="14.4" fill="#e26f46" fill-rule="evenodd" fill-opacity="1" stroke="#000000" stroke-opacity="1" stroke-width="3.2"/>
<circle clip-path="url(#clip002)" cx="2293.24" cy="1173.01" r="14.4" fill="#e26f46" fill-rule="evenodd" fill-opacity="1" stroke="#000000" stroke-opacity="1" stroke-width="3.2"/>
<path clip-path="url(#clip000)" d="M1591.33 248.629 L2282.66 248.629 L2282.66 93.1086 L1591.33 93.1086  Z" fill="#ffffff" fill-rule="evenodd" fill-opacity="1"/>
<polyline clip-path="url(#clip000)" style="stroke:#000000; stroke-linecap:round; stroke-linejoin:round; stroke-width:4; stroke-opacity:1; fill:none" points="1591.33,248.629 2282.66,248.629 2282.66,93.1086 1591.33,93.1086 1591.33,248.629 "/>
<circle clip-path="url(#clip000)" cx="1684.78" cy="144.949" r="20.48" fill="#009af9" fill-rule="evenodd" fill-opacity="1" stroke="#000000" stroke-opacity="1" stroke-width="4.55111"/>
<path clip-path="url(#clip000)" d="M1794.26 130.84 Q1789.16 130.84 1786.16 134.636 Q1783.17 138.432 1783.17 144.983 Q1783.17 151.511 1786.16 155.307 Q1789.16 159.104 1794.26 159.104 Q1799.35 159.104 1802.31 155.307 Q1805.3 151.511 1805.3 144.983 Q1805.3 138.432 1802.31 134.636 Q1799.35 130.84 1794.26 130.84 M1794.26 127.044 Q1801.53 127.044 1805.88 131.928 Q1810.23 136.789 1810.23 144.983 Q1810.23 153.155 1805.88 158.039 Q1801.53 162.9 1794.26 162.9 Q1786.97 162.9 1782.59 158.039 Q1778.24 153.178 1778.24 144.983 Q1778.24 136.789 1782.59 131.928 Q1786.97 127.044 1794.26 127.044 Z" fill="#000000" fill-rule="nonzero" fill-opacity="1" /><path clip-path="url(#clip000)" d="M1832.38 140.284 Q1831.66 139.868 1830.81 139.682 Q1829.97 139.474 1828.96 139.474 Q1825.35 139.474 1823.4 141.835 Q1821.48 144.173 1821.48 148.571 L1821.48 162.229 L1817.2 162.229 L1817.2 136.303 L1821.48 136.303 L1821.48 140.331 Q1822.82 137.969 1824.97 136.835 Q1827.13 135.678 1830.21 135.678 Q1830.65 135.678 1831.18 135.747 Q1831.71 135.794 1832.36 135.909 L1832.38 140.284 Z" fill="#000000" fill-rule="nonzero" fill-opacity="1" /><path clip-path="url(#clip000)" d="M1836.85 136.303 L1841.11 136.303 L1841.11 162.229 L1836.85 162.229 L1836.85 136.303 M1836.85 126.21 L1841.11 126.21 L1841.11 131.604 L1836.85 131.604 L1836.85 126.21 Z" fill="#000000" fill-rule="nonzero" fill-opacity="1" /><path clip-path="url(#clip000)" d="M1867.08 148.965 Q1867.08 144.335 1865.16 141.789 Q1863.26 139.243 1859.81 139.243 Q1856.39 139.243 1854.47 141.789 Q1852.57 144.335 1852.57 148.965 Q1852.57 153.571 1854.47 156.118 Q1856.39 158.664 1859.81 158.664 Q1863.26 158.664 1865.16 156.118 Q1867.08 153.571 1867.08 148.965 M1871.34 159.011 Q1871.34 165.631 1868.4 168.849 Q1865.46 172.09 1859.4 172.09 Q1857.15 172.09 1855.16 171.742 Q1853.17 171.418 1851.29 170.724 L1851.29 166.58 Q1853.17 167.599 1855 168.085 Q1856.83 168.571 1858.72 168.571 Q1862.91 168.571 1865 166.372 Q1867.08 164.196 1867.08 159.775 L1867.08 157.668 Q1865.76 159.96 1863.7 161.094 Q1861.64 162.229 1858.77 162.229 Q1854 162.229 1851.09 158.594 Q1848.17 154.96 1848.17 148.965 Q1848.17 142.946 1851.09 139.312 Q1854 135.678 1858.77 135.678 Q1861.64 135.678 1863.7 136.812 Q1865.76 137.946 1867.08 140.238 L1867.08 136.303 L1871.34 136.303 L1871.34 159.011 Z" fill="#000000" fill-rule="nonzero" fill-opacity="1" /><path clip-path="url(#clip000)" d="M1880.11 136.303 L1884.37 136.303 L1884.37 162.229 L1880.11 162.229 L1880.11 136.303 M1880.11 126.21 L1884.37 126.21 L1884.37 131.604 L1880.11 131.604 L1880.11 126.21 Z" fill="#000000" fill-rule="nonzero" fill-opacity="1" /><path clip-path="url(#clip000)" d="M1914.84 146.581 L1914.84 162.229 L1910.58 162.229 L1910.58 146.719 Q1910.58 143.039 1909.14 141.21 Q1907.71 139.382 1904.84 139.382 Q1901.39 139.382 1899.4 141.581 Q1897.41 143.78 1897.41 147.576 L1897.41 162.229 L1893.12 162.229 L1893.12 136.303 L1897.41 136.303 L1897.41 140.331 Q1898.93 137.993 1900.99 136.835 Q1903.08 135.678 1905.78 135.678 Q1910.25 135.678 1912.54 138.456 Q1914.84 141.21 1914.84 146.581 Z" fill="#000000" fill-rule="nonzero" fill-opacity="1" /><path clip-path="url(#clip000)" d="M1935.11 149.196 Q1929.95 149.196 1927.96 150.377 Q1925.97 151.557 1925.97 154.405 Q1925.97 156.673 1927.45 158.016 Q1928.96 159.335 1931.53 159.335 Q1935.07 159.335 1937.2 156.835 Q1939.35 154.312 1939.35 150.145 L1939.35 149.196 L1935.11 149.196 M1943.61 147.437 L1943.61 162.229 L1939.35 162.229 L1939.35 158.293 Q1937.89 160.655 1935.72 161.789 Q1933.54 162.9 1930.39 162.9 Q1926.41 162.9 1924.05 160.678 Q1921.71 158.432 1921.71 154.682 Q1921.71 150.307 1924.63 148.085 Q1927.57 145.863 1933.38 145.863 L1939.35 145.863 L1939.35 145.446 Q1939.35 142.507 1937.4 140.909 Q1935.48 139.289 1931.99 139.289 Q1929.77 139.289 1927.66 139.821 Q1925.55 140.354 1923.61 141.419 L1923.61 137.483 Q1925.95 136.581 1928.15 136.141 Q1930.34 135.678 1932.43 135.678 Q1938.05 135.678 1940.83 138.594 Q1943.61 141.511 1943.61 147.437 Z" fill="#000000" fill-rule="nonzero" fill-opacity="1" /><path clip-path="url(#clip000)" d="M1952.38 126.21 L1956.64 126.21 L1956.64 162.229 L1952.38 162.229 L1952.38 126.21 Z" fill="#000000" fill-rule="nonzero" fill-opacity="1" /><path clip-path="url(#clip000)" d="M1997.68 140.238 L1997.68 126.21 L2001.94 126.21 L2001.94 162.229 L1997.68 162.229 L1997.68 158.34 Q1996.34 160.655 1994.28 161.789 Q1992.24 162.9 1989.37 162.9 Q1984.67 162.9 1981.71 159.15 Q1978.77 155.4 1978.77 149.289 Q1978.77 143.178 1981.71 139.428 Q1984.67 135.678 1989.37 135.678 Q1992.24 135.678 1994.28 136.812 Q1996.34 137.923 1997.68 140.238 M1983.17 149.289 Q1983.17 153.988 1985.09 156.673 Q1987.03 159.335 1990.41 159.335 Q1993.79 159.335 1995.74 156.673 Q1997.68 153.988 1997.68 149.289 Q1997.68 144.59 1995.74 141.928 Q1993.79 139.243 1990.41 139.243 Q1987.03 139.243 1985.09 141.928 Q1983.17 144.59 1983.17 149.289 Z" fill="#000000" fill-rule="nonzero" fill-opacity="1" /><path clip-path="url(#clip000)" d="M2022.5 149.196 Q2017.34 149.196 2015.34 150.377 Q2013.35 151.557 2013.35 154.405 Q2013.35 156.673 2014.84 158.016 Q2016.34 159.335 2018.91 159.335 Q2022.45 159.335 2024.58 156.835 Q2026.73 154.312 2026.73 150.145 L2026.73 149.196 L2022.5 149.196 M2030.99 147.437 L2030.99 162.229 L2026.73 162.229 L2026.73 158.293 Q2025.27 160.655 2023.1 161.789 Q2020.92 162.9 2017.77 162.9 Q2013.79 162.9 2011.43 160.678 Q2009.09 158.432 2009.09 154.682 Q2009.09 150.307 2012.01 148.085 Q2014.95 145.863 2020.76 145.863 L2026.73 145.863 L2026.73 145.446 Q2026.73 142.507 2024.79 140.909 Q2022.87 139.289 2019.37 139.289 Q2017.15 139.289 2015.04 139.821 Q2012.94 140.354 2010.99 141.419 L2010.99 137.483 Q2013.33 136.581 2015.53 136.141 Q2017.73 135.678 2019.81 135.678 Q2025.44 135.678 2028.21 138.594 Q2030.99 141.511 2030.99 147.437 Z" fill="#000000" fill-rule="nonzero" fill-opacity="1" /><path clip-path="url(#clip000)" d="M2043.98 128.942 L2043.98 136.303 L2052.75 136.303 L2052.75 139.613 L2043.98 139.613 L2043.98 153.687 Q2043.98 156.858 2044.83 157.761 Q2045.71 158.664 2048.38 158.664 L2052.75 158.664 L2052.75 162.229 L2048.38 162.229 Q2043.45 162.229 2041.57 160.4 Q2039.7 158.548 2039.7 153.687 L2039.7 139.613 L2036.57 139.613 L2036.57 136.303 L2039.7 136.303 L2039.7 128.942 L2043.98 128.942 Z" fill="#000000" fill-rule="nonzero" fill-opacity="1" /><path clip-path="url(#clip000)" d="M2070.14 149.196 Q2064.97 149.196 2062.98 150.377 Q2060.99 151.557 2060.99 154.405 Q2060.99 156.673 2062.47 158.016 Q2063.98 159.335 2066.55 159.335 Q2070.09 159.335 2072.22 156.835 Q2074.37 154.312 2074.37 150.145 L2074.37 149.196 L2070.14 149.196 M2078.63 147.437 L2078.63 162.229 L2074.37 162.229 L2074.37 158.293 Q2072.91 160.655 2070.74 161.789 Q2068.56 162.9 2065.41 162.9 Q2061.43 162.9 2059.07 160.678 Q2056.73 158.432 2056.73 154.682 Q2056.73 150.307 2059.65 148.085 Q2062.59 145.863 2068.4 145.863 L2074.37 145.863 L2074.37 145.446 Q2074.37 142.507 2072.43 140.909 Q2070.51 139.289 2067.01 139.289 Q2064.79 139.289 2062.68 139.821 Q2060.58 140.354 2058.63 141.419 L2058.63 137.483 Q2060.97 136.581 2063.17 136.141 Q2065.37 135.678 2067.45 135.678 Q2073.08 135.678 2075.85 138.594 Q2078.63 141.511 2078.63 147.437 Z" fill="#000000" fill-rule="nonzero" fill-opacity="1" /><circle clip-path="url(#clip000)" cx="1684.78" cy="196.789" r="20.48" fill="#e26f46" fill-rule="evenodd" fill-opacity="1" stroke="#000000" stroke-opacity="1" stroke-width="4.55111"/>
<path clip-path="url(#clip000)" d="M1782.92 183.351 L1782.92 210.226 L1788.56 210.226 Q1795.72 210.226 1799.03 206.985 Q1802.36 203.745 1802.36 196.754 Q1802.36 189.809 1799.03 186.592 Q1795.72 183.351 1788.56 183.351 L1782.92 183.351 M1778.24 179.509 L1787.85 179.509 Q1797.89 179.509 1802.59 183.698 Q1807.29 187.865 1807.29 196.754 Q1807.29 205.689 1802.57 209.879 Q1797.85 214.069 1787.85 214.069 L1778.24 214.069 L1778.24 179.509 Z" fill="#000000" fill-rule="nonzero" fill-opacity="1" /><path clip-path="url(#clip000)" d="M1826.34 201.036 Q1821.18 201.036 1819.19 202.217 Q1817.2 203.397 1817.2 206.245 Q1817.2 208.513 1818.68 209.856 Q1820.18 211.175 1822.75 211.175 Q1826.29 211.175 1828.42 208.675 Q1830.58 206.152 1830.58 201.985 L1830.58 201.036 L1826.34 201.036 M1834.84 199.277 L1834.84 214.069 L1830.58 214.069 L1830.58 210.133 Q1829.12 212.495 1826.94 213.629 Q1824.77 214.74 1821.62 214.74 Q1817.64 214.74 1815.28 212.518 Q1812.94 210.272 1812.94 206.522 Q1812.94 202.147 1815.85 199.925 Q1818.79 197.703 1824.6 197.703 L1830.58 197.703 L1830.58 197.286 Q1830.58 194.347 1828.63 192.749 Q1826.71 191.129 1823.22 191.129 Q1820.99 191.129 1818.89 191.661 Q1816.78 192.194 1814.84 193.259 L1814.84 189.323 Q1817.17 188.421 1819.37 187.981 Q1821.57 187.518 1823.66 187.518 Q1829.28 187.518 1832.06 190.434 Q1834.84 193.351 1834.84 199.277 Z" fill="#000000" fill-rule="nonzero" fill-opacity="1" /><path clip-path="url(#clip000)" d="M1847.82 180.782 L1847.82 188.143 L1856.6 188.143 L1856.6 191.453 L1847.82 191.453 L1847.82 205.527 Q1847.82 208.698 1848.68 209.601 Q1849.56 210.504 1852.22 210.504 L1856.6 210.504 L1856.6 214.069 L1852.22 214.069 Q1847.29 214.069 1845.41 212.24 Q1843.54 210.388 1843.54 205.527 L1843.54 191.453 L1840.41 191.453 L1840.41 188.143 L1843.54 188.143 L1843.54 180.782 L1847.82 180.782 Z" fill="#000000" fill-rule="nonzero" fill-opacity="1" /><path clip-path="url(#clip000)" d="M1873.98 201.036 Q1868.82 201.036 1866.83 202.217 Q1864.84 203.397 1864.84 206.245 Q1864.84 208.513 1866.32 209.856 Q1867.82 211.175 1870.39 211.175 Q1873.93 211.175 1876.06 208.675 Q1878.22 206.152 1878.22 201.985 L1878.22 201.036 L1873.98 201.036 M1882.47 199.277 L1882.47 214.069 L1878.22 214.069 L1878.22 210.133 Q1876.76 212.495 1874.58 213.629 Q1872.41 214.74 1869.26 214.74 Q1865.28 214.74 1862.91 212.518 Q1860.58 210.272 1860.58 206.522 Q1860.58 202.147 1863.49 199.925 Q1866.43 197.703 1872.24 197.703 L1878.22 197.703 L1878.22 197.286 Q1878.22 194.347 1876.27 192.749 Q1874.35 191.129 1870.85 191.129 Q1868.63 191.129 1866.53 191.661 Q1864.42 192.194 1862.47 193.259 L1862.47 189.323 Q1864.81 188.421 1867.01 187.981 Q1869.21 187.518 1871.29 187.518 Q1876.92 187.518 1879.7 190.434 Q1882.47 193.351 1882.47 199.277 Z" fill="#000000" fill-rule="nonzero" fill-opacity="1" /><path clip-path="url(#clip000)" d="M1918.1 201.036 Q1912.94 201.036 1910.95 202.217 Q1908.96 203.397 1908.96 206.245 Q1908.96 208.513 1910.44 209.856 Q1911.94 211.175 1914.51 211.175 Q1918.05 211.175 1920.18 208.675 Q1922.34 206.152 1922.34 201.985 L1922.34 201.036 L1918.1 201.036 M1926.59 199.277 L1926.59 214.069 L1922.34 214.069 L1922.34 210.133 Q1920.88 212.495 1918.7 213.629 Q1916.53 214.74 1913.38 214.74 Q1909.4 214.74 1907.03 212.518 Q1904.7 210.272 1904.7 206.522 Q1904.7 202.147 1907.61 199.925 Q1910.55 197.703 1916.36 197.703 L1922.34 197.703 L1922.34 197.286 Q1922.34 194.347 1920.39 192.749 Q1918.47 191.129 1914.97 191.129 Q1912.75 191.129 1910.65 191.661 Q1908.54 192.194 1906.59 193.259 L1906.59 189.323 Q1908.93 188.421 1911.13 187.981 Q1913.33 187.518 1915.41 187.518 Q1921.04 187.518 1923.82 190.434 Q1926.59 193.351 1926.59 199.277 Z" fill="#000000" fill-rule="nonzero" fill-opacity="1" /><path clip-path="url(#clip000)" d="M1948.49 178.05 L1948.49 181.592 L1944.42 181.592 Q1942.13 181.592 1941.22 182.518 Q1940.34 183.444 1940.34 185.851 L1940.34 188.143 L1947.36 188.143 L1947.36 191.453 L1940.34 191.453 L1940.34 214.069 L1936.06 214.069 L1936.06 191.453 L1931.99 191.453 L1931.99 188.143 L1936.06 188.143 L1936.06 186.337 Q1936.06 182.009 1938.08 180.041 Q1940.09 178.05 1944.47 178.05 L1948.49 178.05 Z" fill="#000000" fill-rule="nonzero" fill-opacity="1" /><path clip-path="url(#clip000)" d="M1955.44 180.782 L1955.44 188.143 L1964.21 188.143 L1964.21 191.453 L1955.44 191.453 L1955.44 205.527 Q1955.44 208.698 1956.29 209.601 Q1957.17 210.504 1959.84 210.504 L1964.21 210.504 L1964.21 214.069 L1959.84 214.069 Q1954.9 214.069 1953.03 212.24 Q1951.15 210.388 1951.15 205.527 L1951.15 191.453 L1948.03 191.453 L1948.03 188.143 L1951.15 188.143 L1951.15 180.782 L1955.44 180.782 Z" fill="#000000" fill-rule="nonzero" fill-opacity="1" /><path clip-path="url(#clip000)" d="M1991.99 200.041 L1991.99 202.124 L1972.4 202.124 Q1972.68 206.522 1975.04 208.837 Q1977.43 211.129 1981.66 211.129 Q1984.12 211.129 1986.41 210.527 Q1988.72 209.925 1990.99 208.721 L1990.99 212.749 Q1988.7 213.721 1986.29 214.231 Q1983.89 214.74 1981.41 214.74 Q1975.21 214.74 1971.57 211.129 Q1967.96 207.518 1967.96 201.36 Q1967.96 194.995 1971.39 191.268 Q1974.84 187.518 1980.67 187.518 Q1985.9 187.518 1988.93 190.897 Q1991.99 194.254 1991.99 200.041 M1987.73 198.791 Q1987.68 195.296 1985.76 193.212 Q1983.86 191.129 1980.71 191.129 Q1977.15 191.129 1975 193.143 Q1972.87 195.157 1972.54 198.814 L1987.73 198.791 Z" fill="#000000" fill-rule="nonzero" fill-opacity="1" /><path clip-path="url(#clip000)" d="M2014 192.124 Q2013.28 191.708 2012.43 191.522 Q2011.59 191.314 2010.58 191.314 Q2006.96 191.314 2005.02 193.675 Q2003.1 196.013 2003.1 200.411 L2003.1 214.069 L1998.82 214.069 L1998.82 188.143 L2003.1 188.143 L2003.1 192.171 Q2004.44 189.809 2006.59 188.675 Q2008.75 187.518 2011.83 187.518 Q2012.27 187.518 2012.8 187.587 Q2013.33 187.634 2013.98 187.749 L2014 192.124 Z" fill="#000000" fill-rule="nonzero" fill-opacity="1" /><path clip-path="url(#clip000)" d="M2052.2 189.138 L2052.2 193.12 Q2050.39 192.124 2048.56 191.638 Q2046.76 191.129 2044.9 191.129 Q2040.76 191.129 2038.47 193.768 Q2036.18 196.384 2036.18 201.129 Q2036.18 205.874 2038.47 208.513 Q2040.76 211.129 2044.9 211.129 Q2046.76 211.129 2048.56 210.643 Q2050.39 210.133 2052.2 209.138 L2052.2 213.073 Q2050.41 213.907 2048.49 214.323 Q2046.59 214.74 2044.44 214.74 Q2038.58 214.74 2035.14 211.059 Q2031.69 207.379 2031.69 201.129 Q2031.69 194.786 2035.16 191.152 Q2038.65 187.518 2044.72 187.518 Q2046.69 187.518 2048.56 187.935 Q2050.44 188.328 2052.2 189.138 Z" fill="#000000" fill-rule="nonzero" fill-opacity="1" /><path clip-path="url(#clip000)" d="M2059.6 178.05 L2063.86 178.05 L2063.86 214.069 L2059.6 214.069 L2059.6 178.05 Z" fill="#000000" fill-rule="nonzero" fill-opacity="1" /><path clip-path="url(#clip000)" d="M2072.33 203.837 L2072.33 188.143 L2076.59 188.143 L2076.59 203.675 Q2076.59 207.356 2078.03 209.208 Q2079.46 211.036 2082.33 211.036 Q2085.78 211.036 2087.77 208.837 Q2089.79 206.638 2089.79 202.842 L2089.79 188.143 L2094.05 188.143 L2094.05 214.069 L2089.79 214.069 L2089.79 210.087 Q2088.24 212.448 2086.18 213.606 Q2084.14 214.74 2081.43 214.74 Q2076.96 214.74 2074.65 211.962 Q2072.33 209.184 2072.33 203.837 M2083.05 187.518 L2083.05 187.518 Z" fill="#000000" fill-rule="nonzero" fill-opacity="1" /><path clip-path="url(#clip000)" d="M2119.35 188.907 L2119.35 192.934 Q2117.54 192.009 2115.6 191.546 Q2113.65 191.083 2111.57 191.083 Q2108.4 191.083 2106.8 192.055 Q2105.23 193.027 2105.23 194.971 Q2105.23 196.453 2106.36 197.309 Q2107.5 198.143 2110.92 198.907 L2112.38 199.231 Q2116.92 200.203 2118.82 201.985 Q2120.74 203.745 2120.74 206.916 Q2120.74 210.527 2117.87 212.633 Q2115.02 214.74 2110.02 214.74 Q2107.94 214.74 2105.67 214.323 Q2103.42 213.93 2100.92 213.12 L2100.92 208.721 Q2103.28 209.948 2105.58 210.573 Q2107.87 211.175 2110.11 211.175 Q2113.12 211.175 2114.74 210.157 Q2116.36 209.115 2116.36 207.24 Q2116.36 205.504 2115.18 204.578 Q2114.02 203.652 2110.07 202.796 L2108.58 202.448 Q2104.63 201.615 2102.87 199.902 Q2101.11 198.166 2101.11 195.157 Q2101.11 191.499 2103.7 189.509 Q2106.29 187.518 2111.06 187.518 Q2113.42 187.518 2115.51 187.865 Q2117.59 188.212 2119.35 188.907 Z" fill="#000000" fill-rule="nonzero" fill-opacity="1" /><path clip-path="url(#clip000)" d="M2131.73 180.782 L2131.73 188.143 L2140.51 188.143 L2140.51 191.453 L2131.73 191.453 L2131.73 205.527 Q2131.73 208.698 2132.59 209.601 Q2133.47 210.504 2136.13 210.504 L2140.51 210.504 L2140.51 214.069 L2136.13 214.069 Q2131.2 214.069 2129.33 212.24 Q2127.45 210.388 2127.45 205.527 L2127.45 191.453 L2124.33 191.453 L2124.33 188.143 L2127.45 188.143 L2127.45 180.782 L2131.73 180.782 Z" fill="#000000" fill-rule="nonzero" fill-opacity="1" /><path clip-path="url(#clip000)" d="M2168.28 200.041 L2168.28 202.124 L2148.7 202.124 Q2148.98 206.522 2151.34 208.837 Q2153.72 211.129 2157.96 211.129 Q2160.41 211.129 2162.7 210.527 Q2165.02 209.925 2167.29 208.721 L2167.29 212.749 Q2165 213.721 2162.59 214.231 Q2160.18 214.74 2157.7 214.74 Q2151.5 214.74 2147.87 211.129 Q2144.26 207.518 2144.26 201.36 Q2144.26 194.995 2147.68 191.268 Q2151.13 187.518 2156.96 187.518 Q2162.2 187.518 2165.23 190.897 Q2168.28 194.254 2168.28 200.041 M2164.02 198.791 Q2163.98 195.296 2162.06 193.212 Q2160.16 191.129 2157.01 191.129 Q2153.45 191.129 2151.29 193.143 Q2149.16 195.157 2148.84 198.814 L2164.02 198.791 Z" fill="#000000" fill-rule="nonzero" fill-opacity="1" /><path clip-path="url(#clip000)" d="M2190.3 192.124 Q2189.58 191.708 2188.72 191.522 Q2187.89 191.314 2186.87 191.314 Q2183.26 191.314 2181.32 193.675 Q2179.39 196.013 2179.39 200.411 L2179.39 214.069 L2175.11 214.069 L2175.11 188.143 L2179.39 188.143 L2179.39 192.171 Q2180.74 189.809 2182.89 188.675 Q2185.04 187.518 2188.12 187.518 Q2188.56 187.518 2189.09 187.587 Q2189.63 187.634 2190.27 187.749 L2190.3 192.124 Z" fill="#000000" fill-rule="nonzero" fill-opacity="1" /><path clip-path="url(#clip000)" d="M2194.76 188.143 L2199.02 188.143 L2199.02 214.069 L2194.76 214.069 L2194.76 188.143 M2194.76 178.05 L2199.02 178.05 L2199.02 183.444 L2194.76 183.444 L2194.76 178.05 Z" fill="#000000" fill-rule="nonzero" fill-opacity="1" /><path clip-path="url(#clip000)" d="M2229.49 198.421 L2229.49 214.069 L2225.23 214.069 L2225.23 198.559 Q2225.23 194.879 2223.79 193.05 Q2222.36 191.222 2219.49 191.222 Q2216.04 191.222 2214.05 193.421 Q2212.06 195.62 2212.06 199.416 L2212.06 214.069 L2207.77 214.069 L2207.77 188.143 L2212.06 188.143 L2212.06 192.171 Q2213.58 189.833 2215.64 188.675 Q2217.73 187.518 2220.44 187.518 Q2224.9 187.518 2227.2 190.296 Q2229.49 193.05 2229.49 198.421 Z" fill="#000000" fill-rule="nonzero" fill-opacity="1" /><path clip-path="url(#clip000)" d="M2255.04 200.805 Q2255.04 196.175 2253.12 193.629 Q2251.22 191.083 2247.77 191.083 Q2244.35 191.083 2242.43 193.629 Q2240.53 196.175 2240.53 200.805 Q2240.53 205.411 2242.43 207.958 Q2244.35 210.504 2247.77 210.504 Q2251.22 210.504 2253.12 207.958 Q2255.04 205.411 2255.04 200.805 M2259.3 210.851 Q2259.3 217.471 2256.36 220.689 Q2253.42 223.93 2247.36 223.93 Q2245.11 223.93 2243.12 223.582 Q2241.13 223.258 2239.26 222.564 L2239.26 218.42 Q2241.13 219.439 2242.96 219.925 Q2244.79 220.411 2246.69 220.411 Q2250.88 220.411 2252.96 218.212 Q2255.04 216.036 2255.04 211.615 L2255.04 209.508 Q2253.72 211.8 2251.66 212.934 Q2249.6 214.069 2246.73 214.069 Q2241.96 214.069 2239.05 210.434 Q2236.13 206.8 2236.13 200.805 Q2236.13 194.786 2239.05 191.152 Q2241.96 187.518 2246.73 187.518 Q2249.6 187.518 2251.66 188.652 Q2253.72 189.786 2255.04 192.078 L2255.04 188.143 L2259.3 188.143 L2259.3 210.851 Z" fill="#000000" fill-rule="nonzero" fill-opacity="1" /></svg>
