<?xml version="1.0" encoding="utf-8"?>
<svg xmlns="http://www.w3.org/2000/svg" xmlns:xlink="http://www.w3.org/1999/xlink" width="600" height="400" viewBox="0 0 2400 1600">
<defs>
  <clipPath id="clip270">
    <rect x="0" y="0" width="2400" height="1600"/>
  </clipPath>
</defs>
<path clip-path="url(#clip270)" d="M0 1600 L2400 1600 L2400 0 L0 0  Z" fill="#ffffff" fill-rule="evenodd" fill-opacity="1"/>
<defs>
  <clipPath id="clip271">
    <rect x="480" y="0" width="1681" height="1600"/>
  </clipPath>
</defs>
<path clip-path="url(#clip270)" d="M112.177 1486.45 L2352.76 1486.45 L2352.76 47.2441 L112.177 47.2441  Z" fill="#ffffff" fill-rule="evenodd" fill-opacity="1"/>
<defs>
  <clipPath id="clip272">
    <rect x="112" y="47" width="2242" height="1440"/>
  </clipPath>
</defs>
<polyline clip-path="url(#clip272)" style="stroke:#000000; stroke-linecap:round; stroke-linejoin:round; stroke-width:2; stroke-opacity:0.1; fill:none" points="112.177,1486.45 2352.76,1486.45 "/>
<polyline clip-path="url(#clip272)" style="stroke:#000000; stroke-linecap:round; stroke-linejoin:round; stroke-width:2; stroke-opacity:0.1; fill:none" points="112.177,1134.89 2352.76,1134.89 "/>
<polyline clip-path="url(#clip272)" style="stroke:#000000; stroke-linecap:round; stroke-linejoin:round; stroke-width:2; stroke-opacity:0.1; fill:none" points="112.177,783.329 2352.76,783.329 "/>
<polyline clip-path="url(#clip272)" style="stroke:#000000; stroke-linecap:round; stroke-linejoin:round; stroke-width:2; stroke-opacity:0.1; fill:none" points="112.177,431.769 2352.76,431.769 "/>
<polyline clip-path="url(#clip272)" style="stroke:#000000; stroke-linecap:round; stroke-linejoin:round; stroke-width:2; stroke-opacity:0.1; fill:none" points="112.177,80.2098 2352.76,80.2098 "/>
<polyline clip-path="url(#clip270)" style="stroke:#000000; stroke-linecap:round; stroke-linejoin:round; stroke-width:4; stroke-opacity:1; fill:none" points="112.177,1486.45 2352.76,1486.45 "/>
<polyline clip-path="url(#clip270)" style="stroke:#ffffff; stroke-linecap:round; stroke-linejoin:round; stroke-width:4; stroke-opacity:1; fill:none" points="224.206,1486.45 224.206,1467.55 "/>
<polyline clip-path="url(#clip270)" style="stroke:#ffffff; stroke-linecap:round; stroke-linejoin:round; stroke-width:4; stroke-opacity:1; fill:none" points="448.264,1486.45 448.264,1467.55 "/>
<polyline clip-path="url(#clip270)" style="stroke:#ffffff; stroke-linecap:round; stroke-linejoin:round; stroke-width:4; stroke-opacity:1; fill:none" points="672.322,1486.45 672.322,1467.55 "/>
<polyline clip-path="url(#clip270)" style="stroke:#ffffff; stroke-linecap:round; stroke-linejoin:round; stroke-width:4; stroke-opacity:1; fill:none" points="896.38,1486.45 896.38,1467.55 "/>
<polyline clip-path="url(#clip270)" style="stroke:#ffffff; stroke-linecap:round; stroke-linejoin:round; stroke-width:4; stroke-opacity:1; fill:none" points="1120.44,1486.45 1120.44,1467.55 "/>
<polyline clip-path="url(#clip270)" style="stroke:#ffffff; stroke-linecap:round; stroke-linejoin:round; stroke-width:4; stroke-opacity:1; fill:none" points="1344.5,1486.45 1344.5,1467.55 "/>
<polyline clip-path="url(#clip270)" style="stroke:#ffffff; stroke-linecap:round; stroke-linejoin:round; stroke-width:4; stroke-opacity:1; fill:none" points="1568.55,1486.45 1568.55,1467.55 "/>
<polyline clip-path="url(#clip270)" style="stroke:#ffffff; stroke-linecap:round; stroke-linejoin:round; stroke-width:4; stroke-opacity:1; fill:none" points="1792.61,1486.45 1792.61,1467.55 "/>
<polyline clip-path="url(#clip270)" style="stroke:#ffffff; stroke-linecap:round; stroke-linejoin:round; stroke-width:4; stroke-opacity:1; fill:none" points="2016.67,1486.45 2016.67,1467.55 "/>
<polyline clip-path="url(#clip270)" style="stroke:#ffffff; stroke-linecap:round; stroke-linejoin:round; stroke-width:4; stroke-opacity:1; fill:none" points="2240.73,1486.45 2240.73,1467.55 "/>
<path clip-path="url(#clip270)" d="M224.206 1532.44 Q220.873 1532.44 218.952 1534.22 Q217.053 1536 217.053 1539.13 Q217.053 1542.25 218.952 1544.03 Q220.873 1545.82 224.206 1545.82 Q227.539 1545.82 229.461 1544.03 Q231.382 1542.23 231.382 1539.13 Q231.382 1536 229.461 1534.22 Q227.563 1532.44 224.206 1532.44 M219.53 1530.45 Q216.521 1529.7 214.831 1527.64 Q213.165 1525.58 213.165 1522.62 Q213.165 1518.48 216.104 1516.07 Q219.067 1513.66 224.206 1513.66 Q229.368 1513.66 232.308 1516.07 Q235.248 1518.48 235.248 1522.62 Q235.248 1525.58 233.558 1527.64 Q231.891 1529.7 228.905 1530.45 Q232.285 1531.23 234.16 1533.52 Q236.058 1535.82 236.058 1539.13 Q236.058 1544.15 232.979 1546.83 Q229.924 1549.52 224.206 1549.52 Q218.489 1549.52 215.41 1546.83 Q212.354 1544.15 212.354 1539.13 Q212.354 1535.82 214.252 1533.52 Q216.151 1531.23 219.53 1530.45 M217.817 1523.06 Q217.817 1525.75 219.484 1527.25 Q221.174 1528.76 224.206 1528.76 Q227.215 1528.76 228.905 1527.25 Q230.618 1525.75 230.618 1523.06 Q230.618 1520.38 228.905 1518.87 Q227.215 1517.37 224.206 1517.37 Q221.174 1517.37 219.484 1518.87 Q217.817 1520.38 217.817 1523.06 Z" fill="#000000" fill-rule="nonzero" fill-opacity="1" /><path clip-path="url(#clip270)" d="M437.153 1514.29 L459.375 1514.29 L459.375 1516.28 L446.829 1548.85 L441.945 1548.85 L453.75 1518.22 L437.153 1518.22 L437.153 1514.29 Z" fill="#000000" fill-rule="nonzero" fill-opacity="1" /><path clip-path="url(#clip270)" d="M647.009 1544.91 L654.648 1544.91 L654.648 1518.55 L646.338 1520.21 L646.338 1515.95 L654.602 1514.29 L659.278 1514.29 L659.278 1544.91 L666.917 1544.91 L666.917 1548.85 L647.009 1548.85 L647.009 1544.91 Z" fill="#000000" fill-rule="nonzero" fill-opacity="1" /><path clip-path="url(#clip270)" d="M686.361 1517.37 Q682.75 1517.37 680.921 1520.93 Q679.116 1524.47 679.116 1531.6 Q679.116 1538.71 680.921 1542.27 Q682.75 1545.82 686.361 1545.82 Q689.995 1545.82 691.801 1542.27 Q693.63 1538.71 693.63 1531.6 Q693.63 1524.47 691.801 1520.93 Q689.995 1517.37 686.361 1517.37 M686.361 1513.66 Q692.171 1513.66 695.227 1518.27 Q698.306 1522.85 698.306 1531.6 Q698.306 1540.33 695.227 1544.94 Q692.171 1549.52 686.361 1549.52 Q680.551 1549.52 677.472 1544.94 Q674.417 1540.33 674.417 1531.6 Q674.417 1522.85 677.472 1518.27 Q680.551 1513.66 686.361 1513.66 Z" fill="#000000" fill-rule="nonzero" fill-opacity="1" /><path clip-path="url(#clip270)" d="M896.785 1529.7 Q893.637 1529.7 891.785 1531.86 Q889.956 1534.01 889.956 1537.76 Q889.956 1541.49 891.785 1543.66 Q893.637 1545.82 896.785 1545.82 Q899.933 1545.82 901.762 1543.66 Q903.613 1541.49 903.613 1537.76 Q903.613 1534.01 901.762 1531.86 Q899.933 1529.7 896.785 1529.7 M906.067 1515.05 L906.067 1519.31 Q904.308 1518.48 902.502 1518.04 Q900.72 1517.6 898.961 1517.6 Q894.331 1517.6 891.877 1520.72 Q889.447 1523.85 889.1 1530.17 Q890.465 1528.15 892.526 1527.09 Q894.586 1526 897.063 1526 Q902.271 1526 905.28 1529.17 Q908.313 1532.32 908.313 1537.76 Q908.313 1543.08 905.164 1546.3 Q902.016 1549.52 896.785 1549.52 Q890.789 1549.52 887.618 1544.94 Q884.447 1540.33 884.447 1531.6 Q884.447 1523.41 888.336 1518.55 Q892.225 1513.66 898.776 1513.66 Q900.535 1513.66 902.317 1514.01 Q904.123 1514.36 906.067 1515.05 Z" fill="#000000" fill-rule="nonzero" fill-opacity="1" /><path clip-path="url(#clip270)" d="M1110.74 1548.13 L1110.74 1543.87 Q1112.5 1544.7 1114.3 1545.14 Q1116.11 1545.58 1117.85 1545.58 Q1122.47 1545.58 1124.91 1542.48 Q1127.36 1539.36 1127.71 1533.01 Q1126.36 1535.01 1124.3 1536.07 Q1122.24 1537.13 1119.74 1537.13 Q1114.56 1537.13 1111.53 1534.01 Q1108.52 1530.86 1108.52 1525.42 Q1108.52 1520.1 1111.66 1516.88 Q1114.81 1513.66 1120.04 1513.66 Q1126.04 1513.66 1129.19 1518.27 Q1132.36 1522.85 1132.36 1531.6 Q1132.36 1539.77 1128.47 1544.66 Q1124.6 1549.52 1118.05 1549.52 Q1116.29 1549.52 1114.49 1549.17 Q1112.68 1548.82 1110.74 1548.13 M1120.04 1533.48 Q1123.19 1533.48 1125.02 1531.32 Q1126.87 1529.17 1126.87 1525.42 Q1126.87 1521.7 1125.02 1519.54 Q1123.19 1517.37 1120.04 1517.37 Q1116.9 1517.37 1115.04 1519.54 Q1113.22 1521.7 1113.22 1525.42 Q1113.22 1529.17 1115.04 1531.32 Q1116.9 1533.48 1120.04 1533.48 Z" fill="#000000" fill-rule="nonzero" fill-opacity="1" /><path clip-path="url(#clip270)" d="M1339.15 1544.91 L1355.47 1544.91 L1355.47 1548.85 L1333.52 1548.85 L1333.52 1544.91 Q1336.19 1542.16 1340.77 1537.53 Q1345.38 1532.88 1346.56 1531.53 Q1348.8 1529.01 1349.68 1527.27 Q1350.58 1525.51 1350.58 1523.82 Q1350.58 1521.07 1348.64 1519.33 Q1346.72 1517.6 1343.62 1517.6 Q1341.42 1517.6 1338.96 1518.36 Q1336.53 1519.13 1333.75 1520.68 L1333.75 1515.95 Q1336.58 1514.82 1339.03 1514.24 Q1341.49 1513.66 1343.52 1513.66 Q1348.89 1513.66 1352.09 1516.35 Q1355.28 1519.03 1355.28 1523.52 Q1355.28 1525.65 1354.47 1527.57 Q1353.69 1529.47 1351.58 1532.07 Q1351 1532.74 1347.9 1535.95 Q1344.8 1539.15 1339.15 1544.91 Z" fill="#000000" fill-rule="nonzero" fill-opacity="1" /><path clip-path="url(#clip270)" d="M1572.8 1530.21 Q1576.16 1530.93 1578.03 1533.2 Q1579.93 1535.47 1579.93 1538.8 Q1579.93 1543.92 1576.41 1546.72 Q1572.89 1549.52 1566.41 1549.52 Q1564.24 1549.52 1561.92 1549.08 Q1559.63 1548.66 1557.18 1547.81 L1557.18 1543.29 Q1559.12 1544.43 1561.44 1545.01 Q1563.75 1545.58 1566.27 1545.58 Q1570.67 1545.58 1572.96 1543.85 Q1575.28 1542.11 1575.28 1538.8 Q1575.28 1535.75 1573.13 1534.03 Q1571 1532.3 1567.18 1532.3 L1563.15 1532.3 L1563.15 1528.45 L1567.36 1528.45 Q1570.81 1528.45 1572.64 1527.09 Q1574.47 1525.7 1574.47 1523.11 Q1574.47 1520.45 1572.57 1519.03 Q1570.69 1517.6 1567.18 1517.6 Q1565.25 1517.6 1563.06 1518.01 Q1560.86 1518.43 1558.22 1519.31 L1558.22 1515.14 Q1560.88 1514.4 1563.19 1514.03 Q1565.53 1513.66 1567.59 1513.66 Q1572.92 1513.66 1576.02 1516.09 Q1579.12 1518.5 1579.12 1522.62 Q1579.12 1525.49 1577.48 1527.48 Q1575.83 1529.45 1572.8 1530.21 Z" fill="#000000" fill-rule="nonzero" fill-opacity="1" /><path clip-path="url(#clip270)" d="M1782.89 1514.29 L1801.25 1514.29 L1801.25 1518.22 L1787.17 1518.22 L1787.17 1526.7 Q1788.19 1526.35 1789.21 1526.19 Q1790.23 1526 1791.25 1526 Q1797.03 1526 1800.41 1529.17 Q1803.79 1532.34 1803.79 1537.76 Q1803.79 1543.34 1800.32 1546.44 Q1796.85 1549.52 1790.53 1549.52 Q1788.35 1549.52 1786.08 1549.15 Q1783.84 1548.78 1781.43 1548.04 L1781.43 1543.34 Q1783.51 1544.47 1785.74 1545.03 Q1787.96 1545.58 1790.44 1545.58 Q1794.44 1545.58 1796.78 1543.48 Q1799.12 1541.37 1799.12 1537.76 Q1799.12 1534.15 1796.78 1532.04 Q1794.44 1529.94 1790.44 1529.94 Q1788.56 1529.94 1786.69 1530.35 Q1784.83 1530.77 1782.89 1531.65 L1782.89 1514.29 Z" fill="#000000" fill-rule="nonzero" fill-opacity="1" /><path clip-path="url(#clip270)" d="M2007.05 1544.91 L2014.69 1544.91 L2014.69 1518.55 L2006.38 1520.21 L2006.38 1515.95 L2014.64 1514.29 L2019.32 1514.29 L2019.32 1544.91 L2026.96 1544.91 L2026.96 1548.85 L2007.05 1548.85 L2007.05 1544.91 Z" fill="#000000" fill-rule="nonzero" fill-opacity="1" /><path clip-path="url(#clip270)" d="M2243.74 1518.36 L2231.93 1536.81 L2243.74 1536.81 L2243.74 1518.36 M2242.51 1514.29 L2248.39 1514.29 L2248.39 1536.81 L2253.32 1536.81 L2253.32 1540.7 L2248.39 1540.7 L2248.39 1548.85 L2243.74 1548.85 L2243.74 1540.7 L2228.13 1540.7 L2228.13 1536.19 L2242.51 1514.29 Z" fill="#000000" fill-rule="nonzero" fill-opacity="1" /><polyline clip-path="url(#clip270)" style="stroke:#000000; stroke-linecap:round; stroke-linejoin:round; stroke-width:4; stroke-opacity:1; fill:none" points="112.177,1486.45 112.177,47.2441 "/>
<polyline clip-path="url(#clip270)" style="stroke:#000000; stroke-linecap:round; stroke-linejoin:round; stroke-width:4; stroke-opacity:1; fill:none" points="112.177,1486.45 131.075,1486.45 "/>
<polyline clip-path="url(#clip270)" style="stroke:#000000; stroke-linecap:round; stroke-linejoin:round; stroke-width:4; stroke-opacity:1; fill:none" points="112.177,1134.89 131.075,1134.89 "/>
<polyline clip-path="url(#clip270)" style="stroke:#000000; stroke-linecap:round; stroke-linejoin:round; stroke-width:4; stroke-opacity:1; fill:none" points="112.177,783.329 131.075,783.329 "/>
<polyline clip-path="url(#clip270)" style="stroke:#000000; stroke-linecap:round; stroke-linejoin:round; stroke-width:4; stroke-opacity:1; fill:none" points="112.177,431.769 131.075,431.769 "/>
<polyline clip-path="url(#clip270)" style="stroke:#000000; stroke-linecap:round; stroke-linejoin:round; stroke-width:4; stroke-opacity:1; fill:none" points="112.177,80.2098 131.075,80.2098 "/>
<path clip-path="url(#clip270)" d="M64.2328 1472.25 Q60.6217 1472.25 58.793 1475.81 Q56.9875 1479.35 56.9875 1486.48 Q56.9875 1493.59 58.793 1497.15 Q60.6217 1500.7 64.2328 1500.7 Q67.867 1500.7 69.6726 1497.15 Q71.5013 1493.59 71.5013 1486.48 Q71.5013 1479.35 69.6726 1475.81 Q67.867 1472.25 64.2328 1472.25 M64.2328 1468.54 Q70.0429 1468.54 73.0985 1473.15 Q76.1772 1477.73 76.1772 1486.48 Q76.1772 1495.21 73.0985 1499.82 Q70.0429 1504.4 64.2328 1504.4 Q58.4226 1504.4 55.344 1499.82 Q52.2884 1495.21 52.2884 1486.48 Q52.2884 1477.73 55.344 1473.15 Q58.4226 1468.54 64.2328 1468.54 Z" fill="#000000" fill-rule="nonzero" fill-opacity="1" /><path clip-path="url(#clip270)" d="M56.2699 1148.23 L63.9087 1148.23 L63.9087 1121.87 L55.5986 1123.53 L55.5986 1119.28 L63.8624 1117.61 L68.5383 1117.61 L68.5383 1148.23 L76.1772 1148.23 L76.1772 1152.17 L56.2699 1152.17 L56.2699 1148.23 Z" fill="#000000" fill-rule="nonzero" fill-opacity="1" /><path clip-path="url(#clip270)" d="M59.8578 796.674 L76.1772 796.674 L76.1772 800.609 L54.2328 800.609 L54.2328 796.674 Q56.8949 793.919 61.4782 789.289 Q66.0846 784.637 67.2652 783.294 Q69.5105 780.771 70.3902 779.035 Q71.2929 777.276 71.2929 775.586 Q71.2929 772.831 69.3485 771.095 Q67.4272 769.359 64.3254 769.359 Q62.1263 769.359 59.6726 770.123 Q57.2421 770.887 54.4643 772.438 L54.4643 767.716 Q57.2884 766.581 59.7421 766.003 Q62.1958 765.424 64.2328 765.424 Q69.6031 765.424 72.7976 768.109 Q75.992 770.794 75.992 775.285 Q75.992 777.415 75.1818 779.336 Q74.3948 781.234 72.2883 783.827 Q71.7096 784.498 68.6078 787.715 Q65.5059 790.91 59.8578 796.674 Z" fill="#000000" fill-rule="nonzero" fill-opacity="1" /><path clip-path="url(#clip270)" d="M69.0476 430.415 Q72.404 431.133 74.279 433.401 Q76.1772 435.67 76.1772 439.003 Q76.1772 444.119 72.6587 446.92 Q69.1402 449.721 62.6587 449.721 Q60.4828 449.721 58.168 449.281 Q55.8764 448.864 53.4227 448.008 L53.4227 443.494 Q55.3671 444.628 57.6819 445.207 Q59.9967 445.785 62.5198 445.785 Q66.918 445.785 69.2096 444.049 Q71.5244 442.313 71.5244 439.003 Q71.5244 435.948 69.3717 434.235 Q67.242 432.499 63.4226 432.499 L59.3949 432.499 L59.3949 428.656 L63.6078 428.656 Q67.0569 428.656 68.8855 427.29 Q70.7142 425.901 70.7142 423.309 Q70.7142 420.647 68.8161 419.235 Q66.9411 417.8 63.4226 417.8 Q61.5013 417.8 59.3023 418.216 Q57.1032 418.633 54.4643 419.512 L54.4643 415.346 Q57.1264 414.605 59.4412 414.235 Q61.7791 413.864 63.8393 413.864 Q69.1633 413.864 72.2652 416.295 Q75.367 418.702 75.367 422.823 Q75.367 425.693 73.7235 427.684 Q72.08 429.651 69.0476 430.415 Z" fill="#000000" fill-rule="nonzero" fill-opacity="1" /><path clip-path="url(#clip270)" d="M66.5939 67.0039 L54.7884 85.4529 L66.5939 85.4529 L66.5939 67.0039 M65.367 62.9298 L71.2466 62.9298 L71.2466 85.4529 L76.1772 85.4529 L76.1772 89.3417 L71.2466 89.3417 L71.2466 97.4898 L66.5939 97.4898 L66.5939 89.3417 L50.9921 89.3417 L50.9921 84.8279 L65.367 62.9298 Z" fill="#000000" fill-rule="nonzero" fill-opacity="1" /><polyline clip-path="url(#clip272)" style="stroke:#000000; stroke-linecap:round; stroke-linejoin:round; stroke-width:4; stroke-opacity:1; fill:none" points="1344.5,1486.45 1344.5,1416.48 1568.55,1416.48 1568.55,1486.45 "/>
<polyline clip-path="url(#clip272)" style="stroke:#000000; stroke-linecap:round; stroke-linejoin:round; stroke-width:4; stroke-opacity:1; fill:none" points="448.264,1486.45 448.264,1283.09 672.322,1283.09 672.322,1486.45 "/>
<polyline clip-path="url(#clip272)" style="stroke:#000000; stroke-linecap:round; stroke-linejoin:round; stroke-width:4; stroke-opacity:1; fill:none" points="896.38,1486.45 896.38,1273.78 1120.44,1273.78 1120.44,1486.45 "/>
<polyline clip-path="url(#clip272)" style="stroke:#000000; stroke-linecap:round; stroke-linejoin:round; stroke-width:4; stroke-opacity:1; fill:none" points="2016.67,1486.45 2016.67,1179.72 2240.73,1179.72 2240.73,1486.45 "/>
<polyline clip-path="url(#clip272)" style="stroke:#000000; stroke-linecap:round; stroke-linejoin:round; stroke-width:4; stroke-opacity:1; fill:none" points="1792.61,1486.45 1792.61,932.686 2128.7,932.686 2128.7,1179.72 "/>
<polyline clip-path="url(#clip272)" style="stroke:#000000; stroke-linecap:round; stroke-linejoin:round; stroke-width:4; stroke-opacity:1; fill:none" points="560.293,1283.09 560.293,878.686 1008.41,878.686 1008.41,1273.78 "/>
<polyline clip-path="url(#clip272)" style="stroke:#000000; stroke-linecap:round; stroke-linejoin:round; stroke-width:4; stroke-opacity:1; fill:none" points="224.206,1486.45 224.206,469.883 784.351,469.883 784.351,878.686 "/>
<polyline clip-path="url(#clip272)" style="stroke:#000000; stroke-linecap:round; stroke-linejoin:round; stroke-width:4; stroke-opacity:1; fill:none" points="1456.52,1416.48 1456.52,459.939 1960.65,459.939 1960.65,932.686 "/>
<polyline clip-path="url(#clip272)" style="stroke:#000000; stroke-linecap:round; stroke-linejoin:round; stroke-width:4; stroke-opacity:1; fill:none" points="504.278,469.883 504.278,47.2441 1708.59,47.2441 1708.59,459.939 "/>
</svg>
