<?xml version="1.0" encoding="utf-8"?>
<svg xmlns="http://www.w3.org/2000/svg" xmlns:xlink="http://www.w3.org/1999/xlink" width="600" height="400" viewBox="0 0 2400 1600">
<defs>
  <clipPath id="clip480">
    <rect x="0" y="0" width="2400" height="1600"/>
  </clipPath>
</defs>
<path clip-path="url(#clip480)" d="M0 1600 L2400 1600 L2400 0 L0 0  Z" fill="#ffffff" fill-rule="evenodd" fill-opacity="1"/>
<defs>
  <clipPath id="clip481">
    <rect x="480" y="0" width="1681" height="1600"/>
  </clipPath>
</defs>
<path clip-path="url(#clip480)" d="M202.227 1423.18 L2352.76 1423.18 L2352.76 47.2441 L202.227 47.2441  Z" fill="#ffffff" fill-rule="evenodd" fill-opacity="1"/>
<defs>
  <clipPath id="clip482">
    <rect x="202" y="47" width="2152" height="1377"/>
  </clipPath>
</defs>
<polyline clip-path="url(#clip482)" style="stroke:#000000; stroke-linecap:round; stroke-linejoin:round; stroke-width:2; stroke-opacity:0.1; fill:none" points="630.574,1423.18 630.574,47.2441 "/>
<polyline clip-path="url(#clip482)" style="stroke:#000000; stroke-linecap:round; stroke-linejoin:round; stroke-width:2; stroke-opacity:0.1; fill:none" points="1085.73,1423.18 1085.73,47.2441 "/>
<polyline clip-path="url(#clip482)" style="stroke:#000000; stroke-linecap:round; stroke-linejoin:round; stroke-width:2; stroke-opacity:0.1; fill:none" points="1540.89,1423.18 1540.89,47.2441 "/>
<polyline clip-path="url(#clip482)" style="stroke:#000000; stroke-linecap:round; stroke-linejoin:round; stroke-width:2; stroke-opacity:0.1; fill:none" points="1996.06,1423.18 1996.06,47.2441 "/>
<polyline clip-path="url(#clip482)" style="stroke:#000000; stroke-linecap:round; stroke-linejoin:round; stroke-width:2; stroke-opacity:0.1; fill:none" points="202.227,1234.14 2352.76,1234.14 "/>
<polyline clip-path="url(#clip482)" style="stroke:#000000; stroke-linecap:round; stroke-linejoin:round; stroke-width:2; stroke-opacity:0.1; fill:none" points="202.227,945.238 2352.76,945.238 "/>
<polyline clip-path="url(#clip482)" style="stroke:#000000; stroke-linecap:round; stroke-linejoin:round; stroke-width:2; stroke-opacity:0.1; fill:none" points="202.227,656.334 2352.76,656.334 "/>
<polyline clip-path="url(#clip482)" style="stroke:#000000; stroke-linecap:round; stroke-linejoin:round; stroke-width:2; stroke-opacity:0.1; fill:none" points="202.227,367.43 2352.76,367.43 "/>
<polyline clip-path="url(#clip482)" style="stroke:#000000; stroke-linecap:round; stroke-linejoin:round; stroke-width:2; stroke-opacity:0.1; fill:none" points="202.227,78.5254 2352.76,78.5254 "/>
<polyline clip-path="url(#clip480)" style="stroke:#000000; stroke-linecap:round; stroke-linejoin:round; stroke-width:4; stroke-opacity:1; fill:none" points="202.227,1423.18 2352.76,1423.18 "/>
<polyline clip-path="url(#clip480)" style="stroke:#000000; stroke-linecap:round; stroke-linejoin:round; stroke-width:4; stroke-opacity:1; fill:none" points="630.574,1423.18 630.574,1404.28 "/>
<polyline clip-path="url(#clip480)" style="stroke:#000000; stroke-linecap:round; stroke-linejoin:round; stroke-width:4; stroke-opacity:1; fill:none" points="1085.73,1423.18 1085.73,1404.28 "/>
<polyline clip-path="url(#clip480)" style="stroke:#000000; stroke-linecap:round; stroke-linejoin:round; stroke-width:4; stroke-opacity:1; fill:none" points="1540.89,1423.18 1540.89,1404.28 "/>
<polyline clip-path="url(#clip480)" style="stroke:#000000; stroke-linecap:round; stroke-linejoin:round; stroke-width:4; stroke-opacity:1; fill:none" points="1996.06,1423.18 1996.06,1404.28 "/>
<path clip-path="url(#clip480)" d="M625.226 1481.64 L641.546 1481.64 L641.546 1485.58 L619.601 1485.58 L619.601 1481.64 Q622.263 1478.89 626.847 1474.26 Q631.453 1469.61 632.634 1468.27 Q634.879 1465.74 635.759 1464.01 Q636.661 1462.25 636.661 1460.56 Q636.661 1457.8 634.717 1456.07 Q632.796 1454.33 629.694 1454.33 Q627.495 1454.33 625.041 1455.09 Q622.611 1455.86 619.833 1457.41 L619.833 1452.69 Q622.657 1451.55 625.111 1450.97 Q627.564 1450.39 629.601 1450.39 Q634.972 1450.39 638.166 1453.08 Q641.361 1455.77 641.361 1460.26 Q641.361 1462.39 640.55 1464.31 Q639.763 1466.2 637.657 1468.8 Q637.078 1469.47 633.976 1472.69 Q630.874 1475.88 625.226 1481.64 Z" fill="#000000" fill-rule="nonzero" fill-opacity="1" /><path clip-path="url(#clip480)" d="M1089.98 1466.95 Q1093.34 1467.66 1095.21 1469.93 Q1097.11 1472.2 1097.11 1475.53 Q1097.11 1480.65 1093.59 1483.45 Q1090.07 1486.25 1083.59 1486.25 Q1081.42 1486.25 1079.1 1485.81 Q1076.81 1485.39 1074.36 1484.54 L1074.36 1480.02 Q1076.3 1481.16 1078.62 1481.74 Q1080.93 1482.32 1083.45 1482.32 Q1087.85 1482.32 1090.14 1480.58 Q1092.46 1478.84 1092.46 1475.53 Q1092.46 1472.48 1090.31 1470.77 Q1088.18 1469.03 1084.36 1469.03 L1080.33 1469.03 L1080.33 1465.19 L1084.54 1465.19 Q1087.99 1465.19 1089.82 1463.82 Q1091.65 1462.43 1091.65 1459.84 Q1091.65 1457.18 1089.75 1455.77 Q1087.88 1454.33 1084.36 1454.33 Q1082.44 1454.33 1080.24 1454.75 Q1078.04 1455.16 1075.4 1456.04 L1075.4 1451.88 Q1078.06 1451.14 1080.38 1450.77 Q1082.71 1450.39 1084.77 1450.39 Q1090.1 1450.39 1093.2 1452.83 Q1096.3 1455.23 1096.3 1459.35 Q1096.3 1462.22 1094.66 1464.21 Q1093.01 1466.18 1089.98 1466.95 Z" fill="#000000" fill-rule="nonzero" fill-opacity="1" /><path clip-path="url(#clip480)" d="M1543.9 1455.09 L1532.1 1473.54 L1543.9 1473.54 L1543.9 1455.09 M1542.68 1451.02 L1548.56 1451.02 L1548.56 1473.54 L1553.49 1473.54 L1553.49 1477.43 L1548.56 1477.43 L1548.56 1485.58 L1543.9 1485.58 L1543.9 1477.43 L1528.3 1477.43 L1528.3 1472.92 L1542.68 1451.02 Z" fill="#000000" fill-rule="nonzero" fill-opacity="1" /><path clip-path="url(#clip480)" d="M1986.33 1451.02 L2004.69 1451.02 L2004.69 1454.96 L1990.62 1454.96 L1990.62 1463.43 Q1991.63 1463.08 1992.65 1462.92 Q1993.67 1462.73 1994.69 1462.73 Q2000.48 1462.73 2003.86 1465.9 Q2007.24 1469.08 2007.24 1474.49 Q2007.24 1480.07 2003.76 1483.17 Q2000.29 1486.25 1993.97 1486.25 Q1991.8 1486.25 1989.53 1485.88 Q1987.28 1485.51 1984.87 1484.77 L1984.87 1480.07 Q1986.96 1481.2 1989.18 1481.76 Q1991.4 1482.32 1993.88 1482.32 Q1997.88 1482.32 2000.22 1480.21 Q2002.56 1478.1 2002.56 1474.49 Q2002.56 1470.88 2000.22 1468.77 Q1997.88 1466.67 1993.88 1466.67 Q1992 1466.67 1990.13 1467.08 Q1988.28 1467.5 1986.33 1468.38 L1986.33 1451.02 Z" fill="#000000" fill-rule="nonzero" fill-opacity="1" /><path clip-path="url(#clip480)" d="M1259.32 1520.52 L1266.22 1520.52 L1278.03 1538.19 L1289.9 1520.52 L1296.81 1520.52 L1281.53 1543.34 L1297.83 1568.04 L1290.92 1568.04 L1277.56 1547.83 L1264.09 1568.04 L1257.15 1568.04 L1274.12 1542.68 L1259.32 1520.52 Z" fill="#000000" fill-rule="nonzero" fill-opacity="1" /><polyline clip-path="url(#clip480)" style="stroke:#000000; stroke-linecap:round; stroke-linejoin:round; stroke-width:4; stroke-opacity:1; fill:none" points="202.227,1423.18 202.227,47.2441 "/>
<polyline clip-path="url(#clip480)" style="stroke:#000000; stroke-linecap:round; stroke-linejoin:round; stroke-width:4; stroke-opacity:1; fill:none" points="202.227,1234.14 221.125,1234.14 "/>
<polyline clip-path="url(#clip480)" style="stroke:#000000; stroke-linecap:round; stroke-linejoin:round; stroke-width:4; stroke-opacity:1; fill:none" points="202.227,945.238 221.125,945.238 "/>
<polyline clip-path="url(#clip480)" style="stroke:#000000; stroke-linecap:round; stroke-linejoin:round; stroke-width:4; stroke-opacity:1; fill:none" points="202.227,656.334 221.125,656.334 "/>
<polyline clip-path="url(#clip480)" style="stroke:#000000; stroke-linecap:round; stroke-linejoin:round; stroke-width:4; stroke-opacity:1; fill:none" points="202.227,367.43 221.125,367.43 "/>
<polyline clip-path="url(#clip480)" style="stroke:#000000; stroke-linecap:round; stroke-linejoin:round; stroke-width:4; stroke-opacity:1; fill:none" points="202.227,78.5254 221.125,78.5254 "/>
<path clip-path="url(#clip480)" d="M149.908 1247.49 L166.227 1247.49 L166.227 1251.42 L144.283 1251.42 L144.283 1247.49 Q146.945 1244.73 151.528 1240.1 Q156.135 1235.45 157.315 1234.11 Q159.561 1231.58 160.44 1229.85 Q161.343 1228.09 161.343 1226.4 Q161.343 1223.64 159.399 1221.91 Q157.478 1220.17 154.376 1220.17 Q152.177 1220.17 149.723 1220.94 Q147.292 1221.7 144.515 1223.25 L144.515 1218.53 Q147.339 1217.39 149.792 1216.82 Q152.246 1216.24 154.283 1216.24 Q159.653 1216.24 162.848 1218.92 Q166.042 1221.61 166.042 1226.1 Q166.042 1228.23 165.232 1230.15 Q164.445 1232.05 162.339 1234.64 Q161.76 1235.31 158.658 1238.53 Q155.556 1241.72 149.908 1247.49 Z" fill="#000000" fill-rule="nonzero" fill-opacity="1" /><path clip-path="url(#clip480)" d="M156.644 932.032 L144.839 950.481 L156.644 950.481 L156.644 932.032 M155.417 927.958 L161.297 927.958 L161.297 950.481 L166.227 950.481 L166.227 954.37 L161.297 954.37 L161.297 962.518 L156.644 962.518 L156.644 954.37 L141.042 954.37 L141.042 949.856 L155.417 927.958 Z" fill="#000000" fill-rule="nonzero" fill-opacity="1" /><path clip-path="url(#clip480)" d="M154.7 654.47 Q151.552 654.47 149.7 656.623 Q147.871 658.776 147.871 662.526 Q147.871 666.253 149.7 668.429 Q151.552 670.581 154.7 670.581 Q157.848 670.581 159.677 668.429 Q161.528 666.253 161.528 662.526 Q161.528 658.776 159.677 656.623 Q157.848 654.47 154.7 654.47 M163.982 639.818 L163.982 644.077 Q162.223 643.244 160.417 642.804 Q158.635 642.364 156.876 642.364 Q152.246 642.364 149.792 645.489 Q147.362 648.614 147.015 654.933 Q148.38 652.919 150.441 651.855 Q152.501 650.767 154.978 650.767 Q160.186 650.767 163.195 653.938 Q166.227 657.086 166.227 662.526 Q166.227 667.85 163.079 671.067 Q159.931 674.285 154.7 674.285 Q148.704 674.285 145.533 669.702 Q142.362 665.095 142.362 656.368 Q142.362 648.174 146.251 643.313 Q150.14 638.429 156.69 638.429 Q158.45 638.429 160.232 638.776 Q162.038 639.123 163.982 639.818 Z" fill="#000000" fill-rule="nonzero" fill-opacity="1" /><path clip-path="url(#clip480)" d="M154.376 368.298 Q151.042 368.298 149.121 370.08 Q147.223 371.862 147.223 374.987 Q147.223 378.112 149.121 379.895 Q151.042 381.677 154.376 381.677 Q157.709 381.677 159.63 379.895 Q161.552 378.089 161.552 374.987 Q161.552 371.862 159.63 370.08 Q157.732 368.298 154.376 368.298 M149.7 366.307 Q146.691 365.566 145.001 363.506 Q143.334 361.446 143.334 358.483 Q143.334 354.339 146.274 351.932 Q149.237 349.525 154.376 349.525 Q159.538 349.525 162.477 351.932 Q165.417 354.339 165.417 358.483 Q165.417 361.446 163.727 363.506 Q162.061 365.566 159.075 366.307 Q162.454 367.094 164.329 369.386 Q166.227 371.677 166.227 374.987 Q166.227 380.011 163.149 382.696 Q160.093 385.381 154.376 385.381 Q148.658 385.381 145.579 382.696 Q142.524 380.011 142.524 374.987 Q142.524 371.677 144.422 369.386 Q146.32 367.094 149.7 366.307 M147.987 358.923 Q147.987 361.608 149.653 363.112 Q151.343 364.617 154.376 364.617 Q157.385 364.617 159.075 363.112 Q160.788 361.608 160.788 358.923 Q160.788 356.237 159.075 354.733 Q157.385 353.228 154.376 353.228 Q151.343 353.228 149.653 354.733 Q147.987 356.237 147.987 358.923 Z" fill="#000000" fill-rule="nonzero" fill-opacity="1" /><path clip-path="url(#clip480)" d="M114.931 91.8702 L122.57 91.8702 L122.57 65.5046 L114.26 67.1713 L114.26 62.912 L122.524 61.2454 L127.2 61.2454 L127.2 91.8702 L134.839 91.8702 L134.839 95.8054 L114.931 95.8054 L114.931 91.8702 Z" fill="#000000" fill-rule="nonzero" fill-opacity="1" /><path clip-path="url(#clip480)" d="M154.283 64.3241 Q150.672 64.3241 148.843 67.8888 Q147.038 71.4305 147.038 78.5601 Q147.038 85.6665 148.843 89.2313 Q150.672 92.773 154.283 92.773 Q157.917 92.773 159.723 89.2313 Q161.552 85.6665 161.552 78.5601 Q161.552 71.4305 159.723 67.8888 Q157.917 64.3241 154.283 64.3241 M154.283 60.6204 Q160.093 60.6204 163.149 65.2268 Q166.227 69.8101 166.227 78.5601 Q166.227 87.2869 163.149 91.8934 Q160.093 96.4767 154.283 96.4767 Q148.473 96.4767 145.394 91.8934 Q142.339 87.2869 142.339 78.5601 Q142.339 69.8101 145.394 65.2268 Q148.473 60.6204 154.283 60.6204 Z" fill="#000000" fill-rule="nonzero" fill-opacity="1" /><path clip-path="url(#clip480)" d="M16.4842 755.248 L16.4842 748.341 L36.0269 735.164 L16.4842 722.083 L16.4842 715.176 L41.3741 731.981 L64.0042 731.981 L64.0042 738.443 L41.3741 738.443 L16.4842 755.248 Z" fill="#000000" fill-rule="nonzero" fill-opacity="1" /><circle clip-path="url(#clip482)" cx="586.122" cy="980.471" r="14.4" fill="#009af9" fill-rule="evenodd" fill-opacity="1" stroke="#000000" stroke-opacity="1" stroke-width="3.2"/>
<circle clip-path="url(#clip482)" cx="263.091" cy="950.051" r="14.4" fill="#009af9" fill-rule="evenodd" fill-opacity="1" stroke="#000000" stroke-opacity="1" stroke-width="3.2"/>
<circle clip-path="url(#clip482)" cx="436.11" cy="1169.01" r="14.4" fill="#009af9" fill-rule="evenodd" fill-opacity="1" stroke="#000000" stroke-opacity="1" stroke-width="3.2"/>
<circle clip-path="url(#clip482)" cx="392.805" cy="1237.71" r="14.4" fill="#009af9" fill-rule="evenodd" fill-opacity="1" stroke="#000000" stroke-opacity="1" stroke-width="3.2"/>
<circle clip-path="url(#clip482)" cx="557.485" cy="812.777" r="14.4" fill="#009af9" fill-rule="evenodd" fill-opacity="1" stroke="#000000" stroke-opacity="1" stroke-width="3.2"/>
<circle clip-path="url(#clip482)" cx="2028.98" cy="208.916" r="14.4" fill="#009af9" fill-rule="evenodd" fill-opacity="1" stroke="#000000" stroke-opacity="1" stroke-width="3.2"/>
<circle clip-path="url(#clip482)" cx="1976.05" cy="518.918" r="14.4" fill="#009af9" fill-rule="evenodd" fill-opacity="1" stroke="#000000" stroke-opacity="1" stroke-width="3.2"/>
<circle clip-path="url(#clip482)" cx="2054.48" cy="86.1857" r="14.4" fill="#009af9" fill-rule="evenodd" fill-opacity="1" stroke="#000000" stroke-opacity="1" stroke-width="3.2"/>
<circle clip-path="url(#clip482)" cx="2291.89" cy="615.391" r="14.4" fill="#009af9" fill-rule="evenodd" fill-opacity="1" stroke="#000000" stroke-opacity="1" stroke-width="3.2"/>
<circle clip-path="url(#clip482)" cx="1599.7" cy="1384.24" r="14.4" fill="#009af9" fill-rule="evenodd" fill-opacity="1" stroke="#000000" stroke-opacity="1" stroke-width="3.2"/>
<circle clip-path="url(#clip482)" cx="586.122" cy="980.471" r="14.4" fill="#e26f46" fill-rule="evenodd" fill-opacity="1" stroke="#000000" stroke-opacity="1" stroke-width="3.2"/>
<circle clip-path="url(#clip482)" cx="263.091" cy="950.051" r="14.4" fill="#e26f46" fill-rule="evenodd" fill-opacity="1" stroke="#000000" stroke-opacity="1" stroke-width="3.2"/>
<circle clip-path="url(#clip482)" cx="414.457" cy="1203.36" r="14.4" fill="#e26f46" fill-rule="evenodd" fill-opacity="1" stroke="#000000" stroke-opacity="1" stroke-width="3.2"/>
<circle clip-path="url(#clip482)" cx="414.457" cy="1203.36" r="14.4" fill="#e26f46" fill-rule="evenodd" fill-opacity="1" stroke="#000000" stroke-opacity="1" stroke-width="3.2"/>
<circle clip-path="url(#clip482)" cx="557.485" cy="812.777" r="14.4" fill="#e26f46" fill-rule="evenodd" fill-opacity="1" stroke="#000000" stroke-opacity="1" stroke-width="3.2"/>
<circle clip-path="url(#clip482)" cx="2028.98" cy="208.916" r="14.4" fill="#e26f46" fill-rule="evenodd" fill-opacity="1" stroke="#000000" stroke-opacity="1" stroke-width="3.2"/>
<circle clip-path="url(#clip482)" cx="1976.05" cy="518.918" r="14.4" fill="#e26f46" fill-rule="evenodd" fill-opacity="1" stroke="#000000" stroke-opacity="1" stroke-width="3.2"/>
<circle clip-path="url(#clip482)" cx="2054.48" cy="86.1857" r="14.4" fill="#e26f46" fill-rule="evenodd" fill-opacity="1" stroke="#000000" stroke-opacity="1" stroke-width="3.2"/>
<circle clip-path="url(#clip482)" cx="2291.89" cy="615.391" r="14.4" fill="#e26f46" fill-rule="evenodd" fill-opacity="1" stroke="#000000" stroke-opacity="1" stroke-width="3.2"/>
<circle clip-path="url(#clip482)" cx="1599.7" cy="1384.24" r="14.4" fill="#e26f46" fill-rule="evenodd" fill-opacity="1" stroke="#000000" stroke-opacity="1" stroke-width="3.2"/>
<path clip-path="url(#clip480)" d="M273.912 248.629 L970.027 248.629 L970.027 93.1086 L273.912 93.1086  Z" fill="#ffffff" fill-rule="evenodd" fill-opacity="1"/>
<polyline clip-path="url(#clip480)" style="stroke:#000000; stroke-linecap:round; stroke-linejoin:round; stroke-width:4; stroke-opacity:1; fill:none" points="273.912,248.629 970.027,248.629 970.027,93.1086 273.912,93.1086 273.912,248.629 "/>
<circle clip-path="url(#clip480)" cx="369.491" cy="144.949" r="20.48" fill="#009af9" fill-rule="evenodd" fill-opacity="1" stroke="#000000" stroke-opacity="1" stroke-width="4.55111"/>
<path clip-path="url(#clip480)" d="M481.088 130.84 Q475.996 130.84 472.986 134.636 Q470 138.432 470 144.983 Q470 151.511 472.986 155.307 Q475.996 159.104 481.088 159.104 Q486.181 159.104 489.144 155.307 Q492.13 151.511 492.13 144.983 Q492.13 138.432 489.144 134.636 Q486.181 130.84 481.088 130.84 M481.088 127.044 Q488.357 127.044 492.709 131.928 Q497.06 136.789 497.06 144.983 Q497.06 153.155 492.709 158.039 Q488.357 162.9 481.088 162.9 Q473.797 162.9 469.422 158.039 Q465.07 153.178 465.07 144.983 Q465.07 136.789 469.422 131.928 Q473.797 127.044 481.088 127.044 Z" fill="#000000" fill-rule="nonzero" fill-opacity="1" /><path clip-path="url(#clip480)" d="M519.213 140.284 Q518.495 139.868 517.639 139.682 Q516.806 139.474 515.787 139.474 Q512.176 139.474 510.232 141.835 Q508.31 144.173 508.31 148.571 L508.31 162.229 L504.028 162.229 L504.028 136.303 L508.31 136.303 L508.31 140.331 Q509.653 137.969 511.806 136.835 Q513.958 135.678 517.037 135.678 Q517.477 135.678 518.009 135.747 Q518.542 135.794 519.19 135.909 L519.213 140.284 Z" fill="#000000" fill-rule="nonzero" fill-opacity="1" /><path clip-path="url(#clip480)" d="M523.681 136.303 L527.94 136.303 L527.94 162.229 L523.681 162.229 L523.681 136.303 M523.681 126.21 L527.94 126.21 L527.94 131.604 L523.681 131.604 L523.681 126.21 Z" fill="#000000" fill-rule="nonzero" fill-opacity="1" /><path clip-path="url(#clip480)" d="M553.912 148.965 Q553.912 144.335 551.991 141.789 Q550.093 139.243 546.643 139.243 Q543.218 139.243 541.296 141.789 Q539.398 144.335 539.398 148.965 Q539.398 153.571 541.296 156.118 Q543.218 158.664 546.643 158.664 Q550.093 158.664 551.991 156.118 Q553.912 153.571 553.912 148.965 M558.171 159.011 Q558.171 165.631 555.231 168.849 Q552.292 172.09 546.227 172.09 Q543.981 172.09 541.991 171.742 Q540 171.418 538.125 170.724 L538.125 166.58 Q540 167.599 541.829 168.085 Q543.657 168.571 545.556 168.571 Q549.745 168.571 551.829 166.372 Q553.912 164.196 553.912 159.775 L553.912 157.668 Q552.593 159.96 550.532 161.094 Q548.472 162.229 545.602 162.229 Q540.833 162.229 537.917 158.594 Q535 154.96 535 148.965 Q535 142.946 537.917 139.312 Q540.833 135.678 545.602 135.678 Q548.472 135.678 550.532 136.812 Q552.593 137.946 553.912 140.238 L553.912 136.303 L558.171 136.303 L558.171 159.011 Z" fill="#000000" fill-rule="nonzero" fill-opacity="1" /><path clip-path="url(#clip480)" d="M566.944 136.303 L571.204 136.303 L571.204 162.229 L566.944 162.229 L566.944 136.303 M566.944 126.21 L571.204 126.21 L571.204 131.604 L566.944 131.604 L566.944 126.21 Z" fill="#000000" fill-rule="nonzero" fill-opacity="1" /><path clip-path="url(#clip480)" d="M601.666 146.581 L601.666 162.229 L597.407 162.229 L597.407 146.719 Q597.407 143.039 595.972 141.21 Q594.537 139.382 591.666 139.382 Q588.217 139.382 586.227 141.581 Q584.236 143.78 584.236 147.576 L584.236 162.229 L579.953 162.229 L579.953 136.303 L584.236 136.303 L584.236 140.331 Q585.764 137.993 587.824 136.835 Q589.907 135.678 592.615 135.678 Q597.083 135.678 599.375 138.456 Q601.666 141.21 601.666 146.581 Z" fill="#000000" fill-rule="nonzero" fill-opacity="1" /><path clip-path="url(#clip480)" d="M621.944 149.196 Q616.782 149.196 614.791 150.377 Q612.801 151.557 612.801 154.405 Q612.801 156.673 614.282 158.016 Q615.787 159.335 618.356 159.335 Q621.898 159.335 624.027 156.835 Q626.18 154.312 626.18 150.145 L626.18 149.196 L621.944 149.196 M630.439 147.437 L630.439 162.229 L626.18 162.229 L626.18 158.293 Q624.722 160.655 622.546 161.789 Q620.37 162.9 617.222 162.9 Q613.24 162.9 610.879 160.678 Q608.541 158.432 608.541 154.682 Q608.541 150.307 611.458 148.085 Q614.398 145.863 620.208 145.863 L626.18 145.863 L626.18 145.446 Q626.18 142.507 624.236 140.909 Q622.314 139.289 618.819 139.289 Q616.597 139.289 614.49 139.821 Q612.384 140.354 610.439 141.419 L610.439 137.483 Q612.777 136.581 614.976 136.141 Q617.176 135.678 619.259 135.678 Q624.884 135.678 627.662 138.594 Q630.439 141.511 630.439 147.437 Z" fill="#000000" fill-rule="nonzero" fill-opacity="1" /><path clip-path="url(#clip480)" d="M639.212 126.21 L643.472 126.21 L643.472 162.229 L639.212 162.229 L639.212 126.21 Z" fill="#000000" fill-rule="nonzero" fill-opacity="1" /><path clip-path="url(#clip480)" d="M684.513 140.238 L684.513 126.21 L688.772 126.21 L688.772 162.229 L684.513 162.229 L684.513 158.34 Q683.171 160.655 681.11 161.789 Q679.073 162.9 676.203 162.9 Q671.504 162.9 668.541 159.15 Q665.601 155.4 665.601 149.289 Q665.601 143.178 668.541 139.428 Q671.504 135.678 676.203 135.678 Q679.073 135.678 681.11 136.812 Q683.171 137.923 684.513 140.238 M669.999 149.289 Q669.999 153.988 671.921 156.673 Q673.865 159.335 677.245 159.335 Q680.624 159.335 682.569 156.673 Q684.513 153.988 684.513 149.289 Q684.513 144.59 682.569 141.928 Q680.624 139.243 677.245 139.243 Q673.865 139.243 671.921 141.928 Q669.999 144.59 669.999 149.289 Z" fill="#000000" fill-rule="nonzero" fill-opacity="1" /><path clip-path="url(#clip480)" d="M709.328 149.196 Q704.166 149.196 702.175 150.377 Q700.184 151.557 700.184 154.405 Q700.184 156.673 701.666 158.016 Q703.17 159.335 705.74 159.335 Q709.281 159.335 711.411 156.835 Q713.564 154.312 713.564 150.145 L713.564 149.196 L709.328 149.196 M717.823 147.437 L717.823 162.229 L713.564 162.229 L713.564 158.293 Q712.106 160.655 709.93 161.789 Q707.754 162.9 704.606 162.9 Q700.624 162.9 698.263 160.678 Q695.925 158.432 695.925 154.682 Q695.925 150.307 698.842 148.085 Q701.782 145.863 707.592 145.863 L713.564 145.863 L713.564 145.446 Q713.564 142.507 711.619 140.909 Q709.698 139.289 706.203 139.289 Q703.981 139.289 701.874 139.821 Q699.768 140.354 697.823 141.419 L697.823 137.483 Q700.161 136.581 702.36 136.141 Q704.559 135.678 706.643 135.678 Q712.268 135.678 715.045 138.594 Q717.823 141.511 717.823 147.437 Z" fill="#000000" fill-rule="nonzero" fill-opacity="1" /><path clip-path="url(#clip480)" d="M730.809 128.942 L730.809 136.303 L739.582 136.303 L739.582 139.613 L730.809 139.613 L730.809 153.687 Q730.809 156.858 731.666 157.761 Q732.545 158.664 735.207 158.664 L739.582 158.664 L739.582 162.229 L735.207 162.229 Q730.277 162.229 728.402 160.4 Q726.527 158.548 726.527 153.687 L726.527 139.613 L723.402 139.613 L723.402 136.303 L726.527 136.303 L726.527 128.942 L730.809 128.942 Z" fill="#000000" fill-rule="nonzero" fill-opacity="1" /><path clip-path="url(#clip480)" d="M756.966 149.196 Q751.804 149.196 749.814 150.377 Q747.823 151.557 747.823 154.405 Q747.823 156.673 749.304 158.016 Q750.809 159.335 753.378 159.335 Q756.92 159.335 759.05 156.835 Q761.203 154.312 761.203 150.145 L761.203 149.196 L756.966 149.196 M765.462 147.437 L765.462 162.229 L761.203 162.229 L761.203 158.293 Q759.744 160.655 757.568 161.789 Q755.392 162.9 752.244 162.9 Q748.263 162.9 745.902 160.678 Q743.564 158.432 743.564 154.682 Q743.564 150.307 746.48 148.085 Q749.42 145.863 755.23 145.863 L761.203 145.863 L761.203 145.446 Q761.203 142.507 759.258 140.909 Q757.337 139.289 753.841 139.289 Q751.619 139.289 749.513 139.821 Q747.406 140.354 745.462 141.419 L745.462 137.483 Q747.8 136.581 749.999 136.141 Q752.198 135.678 754.281 135.678 Q759.906 135.678 762.684 138.594 Q765.462 141.511 765.462 147.437 Z" fill="#000000" fill-rule="nonzero" fill-opacity="1" /><circle clip-path="url(#clip480)" cx="369.491" cy="196.789" r="20.48" fill="#e26f46" fill-rule="evenodd" fill-opacity="1" stroke="#000000" stroke-opacity="1" stroke-width="4.55111"/>
<path clip-path="url(#clip480)" d="M469.746 183.351 L469.746 210.226 L475.394 210.226 Q482.547 210.226 485.857 206.985 Q489.19 203.745 489.19 196.754 Q489.19 189.809 485.857 186.592 Q482.547 183.351 475.394 183.351 L469.746 183.351 M465.07 179.509 L474.676 179.509 Q484.723 179.509 489.422 183.698 Q494.121 187.865 494.121 196.754 Q494.121 205.689 489.398 209.879 Q484.676 214.069 474.676 214.069 L465.07 214.069 L465.07 179.509 Z" fill="#000000" fill-rule="nonzero" fill-opacity="1" /><path clip-path="url(#clip480)" d="M513.171 201.036 Q508.009 201.036 506.019 202.217 Q504.028 203.397 504.028 206.245 Q504.028 208.513 505.509 209.856 Q507.014 211.175 509.583 211.175 Q513.125 211.175 515.255 208.675 Q517.408 206.152 517.408 201.985 L517.408 201.036 L513.171 201.036 M521.667 199.277 L521.667 214.069 L517.408 214.069 L517.408 210.133 Q515.949 212.495 513.773 213.629 Q511.597 214.74 508.449 214.74 Q504.468 214.74 502.107 212.518 Q499.769 210.272 499.769 206.522 Q499.769 202.147 502.685 199.925 Q505.625 197.703 511.435 197.703 L517.408 197.703 L517.408 197.286 Q517.408 194.347 515.463 192.749 Q513.542 191.129 510.046 191.129 Q507.824 191.129 505.718 191.661 Q503.611 192.194 501.667 193.259 L501.667 189.323 Q504.005 188.421 506.204 187.981 Q508.403 187.518 510.486 187.518 Q516.111 187.518 518.889 190.434 Q521.667 193.351 521.667 199.277 Z" fill="#000000" fill-rule="nonzero" fill-opacity="1" /><path clip-path="url(#clip480)" d="M534.653 180.782 L534.653 188.143 L543.426 188.143 L543.426 191.453 L534.653 191.453 L534.653 205.527 Q534.653 208.698 535.509 209.601 Q536.389 210.504 539.051 210.504 L543.426 210.504 L543.426 214.069 L539.051 214.069 Q534.12 214.069 532.245 212.24 Q530.37 210.388 530.37 205.527 L530.37 191.453 L527.245 191.453 L527.245 188.143 L530.37 188.143 L530.37 180.782 L534.653 180.782 Z" fill="#000000" fill-rule="nonzero" fill-opacity="1" /><path clip-path="url(#clip480)" d="M560.81 201.036 Q555.648 201.036 553.657 202.217 Q551.667 203.397 551.667 206.245 Q551.667 208.513 553.148 209.856 Q554.653 211.175 557.222 211.175 Q560.764 211.175 562.893 208.675 Q565.046 206.152 565.046 201.985 L565.046 201.036 L560.81 201.036 M569.305 199.277 L569.305 214.069 L565.046 214.069 L565.046 210.133 Q563.588 212.495 561.412 213.629 Q559.236 214.74 556.088 214.74 Q552.106 214.74 549.745 212.518 Q547.407 210.272 547.407 206.522 Q547.407 202.147 550.324 199.925 Q553.264 197.703 559.074 197.703 L565.046 197.703 L565.046 197.286 Q565.046 194.347 563.102 192.749 Q561.18 191.129 557.685 191.129 Q555.463 191.129 553.356 191.661 Q551.25 192.194 549.305 193.259 L549.305 189.323 Q551.643 188.421 553.843 187.981 Q556.042 187.518 558.125 187.518 Q563.75 187.518 566.528 190.434 Q569.305 193.351 569.305 199.277 Z" fill="#000000" fill-rule="nonzero" fill-opacity="1" /><path clip-path="url(#clip480)" d="M604.93 201.036 Q599.768 201.036 597.777 202.217 Q595.787 203.397 595.787 206.245 Q595.787 208.513 597.268 209.856 Q598.773 211.175 601.342 211.175 Q604.884 211.175 607.014 208.675 Q609.166 206.152 609.166 201.985 L609.166 201.036 L604.93 201.036 M613.426 199.277 L613.426 214.069 L609.166 214.069 L609.166 210.133 Q607.708 212.495 605.532 213.629 Q603.356 214.74 600.208 214.74 Q596.227 214.74 593.865 212.518 Q591.527 210.272 591.527 206.522 Q591.527 202.147 594.444 199.925 Q597.384 197.703 603.194 197.703 L609.166 197.703 L609.166 197.286 Q609.166 194.347 607.222 192.749 Q605.301 191.129 601.805 191.129 Q599.583 191.129 597.477 191.661 Q595.37 192.194 593.426 193.259 L593.426 189.323 Q595.764 188.421 597.963 187.981 Q600.162 187.518 602.245 187.518 Q607.87 187.518 610.648 190.434 Q613.426 193.351 613.426 199.277 Z" fill="#000000" fill-rule="nonzero" fill-opacity="1" /><path clip-path="url(#clip480)" d="M635.324 178.05 L635.324 181.592 L631.25 181.592 Q628.958 181.592 628.055 182.518 Q627.175 183.444 627.175 185.851 L627.175 188.143 L634.189 188.143 L634.189 191.453 L627.175 191.453 L627.175 214.069 L622.893 214.069 L622.893 191.453 L618.819 191.453 L618.819 188.143 L622.893 188.143 L622.893 186.337 Q622.893 182.009 624.907 180.041 Q626.921 178.05 631.296 178.05 L635.324 178.05 Z" fill="#000000" fill-rule="nonzero" fill-opacity="1" /><path clip-path="url(#clip480)" d="M642.268 180.782 L642.268 188.143 L651.041 188.143 L651.041 191.453 L642.268 191.453 L642.268 205.527 Q642.268 208.698 643.124 209.601 Q644.004 210.504 646.666 210.504 L651.041 210.504 L651.041 214.069 L646.666 214.069 Q641.736 214.069 639.861 212.24 Q637.986 210.388 637.986 205.527 L637.986 191.453 L634.861 191.453 L634.861 188.143 L637.986 188.143 L637.986 180.782 L642.268 180.782 Z" fill="#000000" fill-rule="nonzero" fill-opacity="1" /><path clip-path="url(#clip480)" d="M678.819 200.041 L678.819 202.124 L659.235 202.124 Q659.513 206.522 661.874 208.837 Q664.259 211.129 668.495 211.129 Q670.948 211.129 673.24 210.527 Q675.555 209.925 677.823 208.721 L677.823 212.749 Q675.532 213.721 673.124 214.231 Q670.717 214.74 668.24 214.74 Q662.036 214.74 658.402 211.129 Q654.791 207.518 654.791 201.36 Q654.791 194.995 658.217 191.268 Q661.666 187.518 667.499 187.518 Q672.731 187.518 675.763 190.897 Q678.819 194.254 678.819 200.041 M674.559 198.791 Q674.513 195.296 672.592 193.212 Q670.694 191.129 667.546 191.129 Q663.981 191.129 661.828 193.143 Q659.698 195.157 659.374 198.814 L674.559 198.791 Z" fill="#000000" fill-rule="nonzero" fill-opacity="1" /><path clip-path="url(#clip480)" d="M700.832 192.124 Q700.115 191.708 699.258 191.522 Q698.425 191.314 697.407 191.314 Q693.795 191.314 691.851 193.675 Q689.93 196.013 689.93 200.411 L689.93 214.069 L685.647 214.069 L685.647 188.143 L689.93 188.143 L689.93 192.171 Q691.272 189.809 693.425 188.675 Q695.578 187.518 698.657 187.518 Q699.096 187.518 699.629 187.587 Q700.161 187.634 700.809 187.749 L700.832 192.124 Z" fill="#000000" fill-rule="nonzero" fill-opacity="1" /><path clip-path="url(#clip480)" d="M739.027 189.138 L739.027 193.12 Q737.221 192.124 735.392 191.638 Q733.587 191.129 731.735 191.129 Q727.592 191.129 725.3 193.768 Q723.008 196.384 723.008 201.129 Q723.008 205.874 725.3 208.513 Q727.592 211.129 731.735 211.129 Q733.587 211.129 735.392 210.643 Q737.221 210.133 739.027 209.138 L739.027 213.073 Q737.244 213.907 735.323 214.323 Q733.425 214.74 731.272 214.74 Q725.416 214.74 721.967 211.059 Q718.518 207.379 718.518 201.129 Q718.518 194.786 721.99 191.152 Q725.485 187.518 731.55 187.518 Q733.517 187.518 735.392 187.935 Q737.267 188.328 739.027 189.138 Z" fill="#000000" fill-rule="nonzero" fill-opacity="1" /><path clip-path="url(#clip480)" d="M746.434 178.05 L750.693 178.05 L750.693 214.069 L746.434 214.069 L746.434 178.05 Z" fill="#000000" fill-rule="nonzero" fill-opacity="1" /><path clip-path="url(#clip480)" d="M759.165 203.837 L759.165 188.143 L763.425 188.143 L763.425 203.675 Q763.425 207.356 764.86 209.208 Q766.295 211.036 769.165 211.036 Q772.614 211.036 774.605 208.837 Q776.619 206.638 776.619 202.842 L776.619 188.143 L780.878 188.143 L780.878 214.069 L776.619 214.069 L776.619 210.087 Q775.068 212.448 773.008 213.606 Q770.971 214.74 768.263 214.74 Q763.795 214.74 761.48 211.962 Q759.165 209.184 759.165 203.837 M769.883 187.518 L769.883 187.518 Z" fill="#000000" fill-rule="nonzero" fill-opacity="1" /><path clip-path="url(#clip480)" d="M806.179 188.907 L806.179 192.934 Q804.374 192.009 802.429 191.546 Q800.485 191.083 798.401 191.083 Q795.23 191.083 793.633 192.055 Q792.059 193.027 792.059 194.971 Q792.059 196.453 793.193 197.309 Q794.327 198.143 797.753 198.907 L799.212 199.231 Q803.749 200.203 805.647 201.985 Q807.568 203.745 807.568 206.916 Q807.568 210.527 804.698 212.633 Q801.85 214.74 796.85 214.74 Q794.767 214.74 792.499 214.323 Q790.253 213.93 787.753 213.12 L787.753 208.721 Q790.114 209.948 792.406 210.573 Q794.698 211.175 796.943 211.175 Q799.952 211.175 801.573 210.157 Q803.193 209.115 803.193 207.24 Q803.193 205.504 802.012 204.578 Q800.855 203.652 796.897 202.796 L795.415 202.448 Q791.457 201.615 789.698 199.902 Q787.938 198.166 787.938 195.157 Q787.938 191.499 790.531 189.509 Q793.124 187.518 797.892 187.518 Q800.253 187.518 802.337 187.865 Q804.42 188.212 806.179 188.907 Z" fill="#000000" fill-rule="nonzero" fill-opacity="1" /><path clip-path="url(#clip480)" d="M818.563 180.782 L818.563 188.143 L827.336 188.143 L827.336 191.453 L818.563 191.453 L818.563 205.527 Q818.563 208.698 819.42 209.601 Q820.299 210.504 822.961 210.504 L827.336 210.504 L827.336 214.069 L822.961 214.069 Q818.031 214.069 816.156 212.24 Q814.281 210.388 814.281 205.527 L814.281 191.453 L811.156 191.453 L811.156 188.143 L814.281 188.143 L814.281 180.782 L818.563 180.782 Z" fill="#000000" fill-rule="nonzero" fill-opacity="1" /><path clip-path="url(#clip480)" d="M855.114 200.041 L855.114 202.124 L835.531 202.124 Q835.809 206.522 838.17 208.837 Q840.554 211.129 844.79 211.129 Q847.244 211.129 849.535 210.527 Q851.85 209.925 854.119 208.721 L854.119 212.749 Q851.827 213.721 849.42 214.231 Q847.012 214.74 844.535 214.74 Q838.332 214.74 834.697 211.129 Q831.086 207.518 831.086 201.36 Q831.086 194.995 834.512 191.268 Q837.961 187.518 843.795 187.518 Q849.026 187.518 852.059 190.897 Q855.114 194.254 855.114 200.041 M850.855 198.791 Q850.809 195.296 848.887 193.212 Q846.989 191.129 843.841 191.129 Q840.276 191.129 838.123 193.143 Q835.994 195.157 835.67 198.814 L850.855 198.791 Z" fill="#000000" fill-rule="nonzero" fill-opacity="1" /><path clip-path="url(#clip480)" d="M877.128 192.124 Q876.41 191.708 875.554 191.522 Q874.72 191.314 873.702 191.314 Q870.091 191.314 868.146 193.675 Q866.225 196.013 866.225 200.411 L866.225 214.069 L861.943 214.069 L861.943 188.143 L866.225 188.143 L866.225 192.171 Q867.568 189.809 869.72 188.675 Q871.873 187.518 874.952 187.518 Q875.392 187.518 875.924 187.587 Q876.457 187.634 877.105 187.749 L877.128 192.124 Z" fill="#000000" fill-rule="nonzero" fill-opacity="1" /><path clip-path="url(#clip480)" d="M881.595 188.143 L885.855 188.143 L885.855 214.069 L881.595 214.069 L881.595 188.143 M881.595 178.05 L885.855 178.05 L885.855 183.444 L881.595 183.444 L881.595 178.05 Z" fill="#000000" fill-rule="nonzero" fill-opacity="1" /><path clip-path="url(#clip480)" d="M916.317 198.421 L916.317 214.069 L912.058 214.069 L912.058 198.559 Q912.058 194.879 910.623 193.05 Q909.188 191.222 906.317 191.222 Q902.868 191.222 900.878 193.421 Q898.887 195.62 898.887 199.416 L898.887 214.069 L894.605 214.069 L894.605 188.143 L898.887 188.143 L898.887 192.171 Q900.415 189.833 902.475 188.675 Q904.558 187.518 907.267 187.518 Q911.734 187.518 914.026 190.296 Q916.317 193.05 916.317 198.421 Z" fill="#000000" fill-rule="nonzero" fill-opacity="1" /><path clip-path="url(#clip480)" d="M941.873 200.805 Q941.873 196.175 939.952 193.629 Q938.053 191.083 934.604 191.083 Q931.178 191.083 929.257 193.629 Q927.359 196.175 927.359 200.805 Q927.359 205.411 929.257 207.958 Q931.178 210.504 934.604 210.504 Q938.053 210.504 939.952 207.958 Q941.873 205.411 941.873 200.805 M946.132 210.851 Q946.132 217.471 943.192 220.689 Q940.252 223.93 934.188 223.93 Q931.942 223.93 929.952 223.582 Q927.961 223.258 926.086 222.564 L926.086 218.42 Q927.961 219.439 929.79 219.925 Q931.618 220.411 933.516 220.411 Q937.706 220.411 939.79 218.212 Q941.873 216.036 941.873 211.615 L941.873 209.508 Q940.553 211.8 938.493 212.934 Q936.433 214.069 933.563 214.069 Q928.794 214.069 925.878 210.434 Q922.961 206.8 922.961 200.805 Q922.961 194.786 925.878 191.152 Q928.794 187.518 933.563 187.518 Q936.433 187.518 938.493 188.652 Q940.553 189.786 941.873 192.078 L941.873 188.143 L946.132 188.143 L946.132 210.851 Z" fill="#000000" fill-rule="nonzero" fill-opacity="1" /></svg>
