<?xml version="1.0" encoding="utf-8"?>
<svg xmlns="http://www.w3.org/2000/svg" xmlns:xlink="http://www.w3.org/1999/xlink" width="600" height="400" viewBox="0 0 2400 1600">
<defs>
  <clipPath id="clip320">
    <rect x="0" y="0" width="2400" height="1600"/>
  </clipPath>
</defs>
<path clip-path="url(#clip320)" d="M0 1600 L2400 1600 L2400 0 L0 0  Z" fill="#ffffff" fill-rule="evenodd" fill-opacity="1"/>
<defs>
  <clipPath id="clip321">
    <rect x="480" y="0" width="1681" height="1600"/>
  </clipPath>
</defs>
<path clip-path="url(#clip320)" d="M247.459 1423.18 L2352.76 1423.18 L2352.76 47.2441 L247.459 47.2441  Z" fill="#ffffff" fill-rule="evenodd" fill-opacity="1"/>
<defs>
  <clipPath id="clip322">
    <rect x="247" y="47" width="2106" height="1377"/>
  </clipPath>
</defs>
<polyline clip-path="url(#clip322)" style="stroke:#000000; stroke-linecap:round; stroke-linejoin:round; stroke-width:2; stroke-opacity:0.1; fill:none" points="650.822,1423.18 650.822,47.2441 "/>
<polyline clip-path="url(#clip322)" style="stroke:#000000; stroke-linecap:round; stroke-linejoin:round; stroke-width:2; stroke-opacity:0.1; fill:none" points="1079.22,1423.18 1079.22,47.2441 "/>
<polyline clip-path="url(#clip322)" style="stroke:#000000; stroke-linecap:round; stroke-linejoin:round; stroke-width:2; stroke-opacity:0.1; fill:none" points="1507.62,1423.18 1507.62,47.2441 "/>
<polyline clip-path="url(#clip322)" style="stroke:#000000; stroke-linecap:round; stroke-linejoin:round; stroke-width:2; stroke-opacity:0.1; fill:none" points="1936.01,1423.18 1936.01,47.2441 "/>
<polyline clip-path="url(#clip322)" style="stroke:#000000; stroke-linecap:round; stroke-linejoin:round; stroke-width:2; stroke-opacity:0.1; fill:none" points="247.459,1410.81 2352.76,1410.81 "/>
<polyline clip-path="url(#clip322)" style="stroke:#000000; stroke-linecap:round; stroke-linejoin:round; stroke-width:2; stroke-opacity:0.1; fill:none" points="247.459,1077.86 2352.76,1077.86 "/>
<polyline clip-path="url(#clip322)" style="stroke:#000000; stroke-linecap:round; stroke-linejoin:round; stroke-width:2; stroke-opacity:0.1; fill:none" points="247.459,744.916 2352.76,744.916 "/>
<polyline clip-path="url(#clip322)" style="stroke:#000000; stroke-linecap:round; stroke-linejoin:round; stroke-width:2; stroke-opacity:0.1; fill:none" points="247.459,411.97 2352.76,411.97 "/>
<polyline clip-path="url(#clip322)" style="stroke:#000000; stroke-linecap:round; stroke-linejoin:round; stroke-width:2; stroke-opacity:0.1; fill:none" points="247.459,79.024 2352.76,79.024 "/>
<polyline clip-path="url(#clip320)" style="stroke:#000000; stroke-linecap:round; stroke-linejoin:round; stroke-width:4; stroke-opacity:1; fill:none" points="247.459,1423.18 2352.76,1423.18 "/>
<polyline clip-path="url(#clip320)" style="stroke:#000000; stroke-linecap:round; stroke-linejoin:round; stroke-width:4; stroke-opacity:1; fill:none" points="650.822,1423.18 650.822,1404.28 "/>
<polyline clip-path="url(#clip320)" style="stroke:#000000; stroke-linecap:round; stroke-linejoin:round; stroke-width:4; stroke-opacity:1; fill:none" points="1079.22,1423.18 1079.22,1404.28 "/>
<polyline clip-path="url(#clip320)" style="stroke:#000000; stroke-linecap:round; stroke-linejoin:round; stroke-width:4; stroke-opacity:1; fill:none" points="1507.62,1423.18 1507.62,1404.28 "/>
<polyline clip-path="url(#clip320)" style="stroke:#000000; stroke-linecap:round; stroke-linejoin:round; stroke-width:4; stroke-opacity:1; fill:none" points="1936.01,1423.18 1936.01,1404.28 "/>
<path clip-path="url(#clip320)" d="M645.475 1481.64 L661.794 1481.64 L661.794 1485.58 L639.85 1485.58 L639.85 1481.64 Q642.512 1478.89 647.095 1474.26 Q651.701 1469.61 652.882 1468.27 Q655.127 1465.74 656.007 1464.01 Q656.91 1462.25 656.91 1460.56 Q656.91 1457.8 654.965 1456.07 Q653.044 1454.33 649.942 1454.33 Q647.743 1454.33 645.289 1455.09 Q642.859 1455.86 640.081 1457.41 L640.081 1452.69 Q642.905 1451.55 645.359 1450.97 Q647.812 1450.39 649.849 1450.39 Q655.22 1450.39 658.414 1453.08 Q661.609 1455.77 661.609 1460.26 Q661.609 1462.39 660.798 1464.31 Q660.011 1466.2 657.905 1468.8 Q657.326 1469.47 654.224 1472.69 Q651.123 1475.88 645.475 1481.64 Z" fill="#000000" fill-rule="nonzero" fill-opacity="1" /><path clip-path="url(#clip320)" d="M1083.47 1466.95 Q1086.82 1467.66 1088.7 1469.93 Q1090.6 1472.2 1090.6 1475.53 Q1090.6 1480.65 1087.08 1483.45 Q1083.56 1486.25 1077.08 1486.25 Q1074.9 1486.25 1072.59 1485.81 Q1070.3 1485.39 1067.84 1484.54 L1067.84 1480.02 Q1069.79 1481.16 1072.1 1481.74 Q1074.42 1482.32 1076.94 1482.32 Q1081.34 1482.32 1083.63 1480.58 Q1085.94 1478.84 1085.94 1475.53 Q1085.94 1472.48 1083.79 1470.77 Q1081.66 1469.03 1077.84 1469.03 L1073.81 1469.03 L1073.81 1465.19 L1078.03 1465.19 Q1081.48 1465.19 1083.3 1463.82 Q1085.13 1462.43 1085.13 1459.84 Q1085.13 1457.18 1083.24 1455.77 Q1081.36 1454.33 1077.84 1454.33 Q1075.92 1454.33 1073.72 1454.75 Q1071.52 1455.16 1068.88 1456.04 L1068.88 1451.88 Q1071.55 1451.14 1073.86 1450.77 Q1076.2 1450.39 1078.26 1450.39 Q1083.58 1450.39 1086.68 1452.83 Q1089.79 1455.23 1089.79 1459.35 Q1089.79 1462.22 1088.14 1464.21 Q1086.5 1466.18 1083.47 1466.95 Z" fill="#000000" fill-rule="nonzero" fill-opacity="1" /><path clip-path="url(#clip320)" d="M1510.63 1455.09 L1498.82 1473.54 L1510.63 1473.54 L1510.63 1455.09 M1509.4 1451.02 L1515.28 1451.02 L1515.28 1473.54 L1520.21 1473.54 L1520.21 1477.43 L1515.28 1477.43 L1515.28 1485.58 L1510.63 1485.58 L1510.63 1477.43 L1495.02 1477.43 L1495.02 1472.92 L1509.4 1451.02 Z" fill="#000000" fill-rule="nonzero" fill-opacity="1" /><path clip-path="url(#clip320)" d="M1926.29 1451.02 L1944.65 1451.02 L1944.65 1454.96 L1930.57 1454.96 L1930.57 1463.43 Q1931.59 1463.08 1932.61 1462.92 Q1933.63 1462.73 1934.65 1462.73 Q1940.44 1462.73 1943.82 1465.9 Q1947.2 1469.08 1947.2 1474.49 Q1947.2 1480.07 1943.72 1483.17 Q1940.25 1486.25 1933.93 1486.25 Q1931.76 1486.25 1929.49 1485.88 Q1927.24 1485.51 1924.83 1484.77 L1924.83 1480.07 Q1926.92 1481.2 1929.14 1481.76 Q1931.36 1482.32 1933.84 1482.32 Q1937.84 1482.32 1940.18 1480.21 Q1942.52 1478.1 1942.52 1474.49 Q1942.52 1470.88 1940.18 1468.77 Q1937.84 1466.67 1933.84 1466.67 Q1931.96 1466.67 1930.09 1467.08 Q1928.24 1467.5 1926.29 1468.38 L1926.29 1451.02 Z" fill="#000000" fill-rule="nonzero" fill-opacity="1" /><path clip-path="url(#clip320)" d="M1281.93 1520.52 L1288.84 1520.52 L1300.65 1538.19 L1312.52 1520.52 L1319.43 1520.52 L1304.15 1543.34 L1320.45 1568.04 L1313.54 1568.04 L1300.17 1547.83 L1286.71 1568.04 L1279.77 1568.04 L1296.73 1542.68 L1281.93 1520.52 Z" fill="#000000" fill-rule="nonzero" fill-opacity="1" /><polyline clip-path="url(#clip320)" style="stroke:#000000; stroke-linecap:round; stroke-linejoin:round; stroke-width:4; stroke-opacity:1; fill:none" points="247.459,1423.18 247.459,47.2441 "/>
<polyline clip-path="url(#clip320)" style="stroke:#000000; stroke-linecap:round; stroke-linejoin:round; stroke-width:4; stroke-opacity:1; fill:none" points="247.459,1410.81 266.356,1410.81 "/>
<polyline clip-path="url(#clip320)" style="stroke:#000000; stroke-linecap:round; stroke-linejoin:round; stroke-width:4; stroke-opacity:1; fill:none" points="247.459,1077.86 266.356,1077.86 "/>
<polyline clip-path="url(#clip320)" style="stroke:#000000; stroke-linecap:round; stroke-linejoin:round; stroke-width:4; stroke-opacity:1; fill:none" points="247.459,744.916 266.356,744.916 "/>
<polyline clip-path="url(#clip320)" style="stroke:#000000; stroke-linecap:round; stroke-linejoin:round; stroke-width:4; stroke-opacity:1; fill:none" points="247.459,411.97 266.356,411.97 "/>
<polyline clip-path="url(#clip320)" style="stroke:#000000; stroke-linecap:round; stroke-linejoin:round; stroke-width:4; stroke-opacity:1; fill:none" points="247.459,79.024 266.356,79.024 "/>
<path clip-path="url(#clip320)" d="M154.283 1396.61 Q150.672 1396.61 148.843 1400.17 Q147.038 1403.71 147.038 1410.84 Q147.038 1417.95 148.843 1421.51 Q150.672 1425.05 154.283 1425.05 Q157.917 1425.05 159.723 1421.51 Q161.552 1417.95 161.552 1410.84 Q161.552 1403.71 159.723 1400.17 Q157.917 1396.61 154.283 1396.61 M154.283 1392.9 Q160.093 1392.9 163.149 1397.51 Q166.227 1402.09 166.227 1410.84 Q166.227 1419.57 163.149 1424.18 Q160.093 1428.76 154.283 1428.76 Q148.473 1428.76 145.394 1424.18 Q142.339 1419.57 142.339 1410.84 Q142.339 1402.09 145.394 1397.51 Q148.473 1392.9 154.283 1392.9 Z" fill="#000000" fill-rule="nonzero" fill-opacity="1" /><path clip-path="url(#clip320)" d="M174.445 1422.21 L179.329 1422.21 L179.329 1428.09 L174.445 1428.09 L174.445 1422.21 Z" fill="#000000" fill-rule="nonzero" fill-opacity="1" /><path clip-path="url(#clip320)" d="M199.514 1396.61 Q195.903 1396.61 194.075 1400.17 Q192.269 1403.71 192.269 1410.84 Q192.269 1417.95 194.075 1421.51 Q195.903 1425.05 199.514 1425.05 Q203.149 1425.05 204.954 1421.51 Q206.783 1417.95 206.783 1410.84 Q206.783 1403.71 204.954 1400.17 Q203.149 1396.61 199.514 1396.61 M199.514 1392.9 Q205.324 1392.9 208.38 1397.51 Q211.459 1402.09 211.459 1410.84 Q211.459 1419.57 208.38 1424.18 Q205.324 1428.76 199.514 1428.76 Q193.704 1428.76 190.625 1424.18 Q187.57 1419.57 187.57 1410.84 Q187.57 1402.09 190.625 1397.51 Q193.704 1392.9 199.514 1392.9 Z" fill="#000000" fill-rule="nonzero" fill-opacity="1" /><path clip-path="url(#clip320)" d="M149.306 1091.21 L165.626 1091.21 L165.626 1095.14 L143.681 1095.14 L143.681 1091.21 Q146.343 1088.45 150.927 1083.82 Q155.533 1079.17 156.714 1077.83 Q158.959 1075.3 159.839 1073.57 Q160.741 1071.81 160.741 1070.12 Q160.741 1067.36 158.797 1065.63 Q156.876 1063.89 153.774 1063.89 Q151.575 1063.89 149.121 1064.66 Q146.691 1065.42 143.913 1066.97 L143.913 1062.25 Q146.737 1061.11 149.191 1060.54 Q151.644 1059.96 153.681 1059.96 Q159.052 1059.96 162.246 1062.64 Q165.44 1065.33 165.44 1069.82 Q165.44 1071.95 164.63 1073.87 Q163.843 1075.77 161.737 1078.36 Q161.158 1079.03 158.056 1082.25 Q154.954 1085.44 149.306 1091.21 Z" fill="#000000" fill-rule="nonzero" fill-opacity="1" /><path clip-path="url(#clip320)" d="M175.44 1089.26 L180.325 1089.26 L180.325 1095.14 L175.44 1095.14 L175.44 1089.26 Z" fill="#000000" fill-rule="nonzero" fill-opacity="1" /><path clip-path="url(#clip320)" d="M190.556 1060.58 L208.912 1060.58 L208.912 1064.52 L194.838 1064.52 L194.838 1072.99 Q195.857 1072.64 196.875 1072.48 Q197.894 1072.29 198.912 1072.29 Q204.699 1072.29 208.079 1075.47 Q211.459 1078.64 211.459 1084.05 Q211.459 1089.63 207.987 1092.73 Q204.514 1095.81 198.195 1095.81 Q196.019 1095.81 193.75 1095.44 Q191.505 1095.07 189.098 1094.33 L189.098 1089.63 Q191.181 1090.77 193.403 1091.32 Q195.625 1091.88 198.102 1091.88 Q202.107 1091.88 204.445 1089.77 Q206.783 1087.66 206.783 1084.05 Q206.783 1080.44 204.445 1078.34 Q202.107 1076.23 198.102 1076.23 Q196.227 1076.23 194.352 1076.65 Q192.5 1077.06 190.556 1077.94 L190.556 1060.58 Z" fill="#000000" fill-rule="nonzero" fill-opacity="1" /><path clip-path="url(#clip320)" d="M144.329 727.636 L162.686 727.636 L162.686 731.571 L148.612 731.571 L148.612 740.043 Q149.63 739.696 150.649 739.534 Q151.667 739.349 152.686 739.349 Q158.473 739.349 161.852 742.52 Q165.232 745.691 165.232 751.108 Q165.232 756.686 161.76 759.788 Q158.288 762.867 151.968 762.867 Q149.792 762.867 147.524 762.497 Q145.279 762.126 142.871 761.385 L142.871 756.686 Q144.954 757.821 147.177 758.376 Q149.399 758.932 151.876 758.932 Q155.88 758.932 158.218 756.825 Q160.556 754.719 160.556 751.108 Q160.556 747.497 158.218 745.39 Q155.88 743.284 151.876 743.284 Q150.001 743.284 148.126 743.7 Q146.274 744.117 144.329 744.997 L144.329 727.636 Z" fill="#000000" fill-rule="nonzero" fill-opacity="1" /><path clip-path="url(#clip320)" d="M174.445 756.316 L179.329 756.316 L179.329 762.196 L174.445 762.196 L174.445 756.316 Z" fill="#000000" fill-rule="nonzero" fill-opacity="1" /><path clip-path="url(#clip320)" d="M199.514 730.714 Q195.903 730.714 194.075 734.279 Q192.269 737.821 192.269 744.95 Q192.269 752.057 194.075 755.622 Q195.903 759.163 199.514 759.163 Q203.149 759.163 204.954 755.622 Q206.783 752.057 206.783 744.95 Q206.783 737.821 204.954 734.279 Q203.149 730.714 199.514 730.714 M199.514 727.011 Q205.324 727.011 208.38 731.617 Q211.459 736.2 211.459 744.95 Q211.459 753.677 208.38 758.284 Q205.324 762.867 199.514 762.867 Q193.704 762.867 190.625 758.284 Q187.57 753.677 187.57 744.95 Q187.57 736.2 190.625 731.617 Q193.704 727.011 199.514 727.011 Z" fill="#000000" fill-rule="nonzero" fill-opacity="1" /><path clip-path="url(#clip320)" d="M144.098 394.69 L166.32 394.69 L166.32 396.681 L153.774 429.25 L148.89 429.25 L160.695 398.625 L144.098 398.625 L144.098 394.69 Z" fill="#000000" fill-rule="nonzero" fill-opacity="1" /><path clip-path="url(#clip320)" d="M175.44 423.37 L180.325 423.37 L180.325 429.25 L175.44 429.25 L175.44 423.37 Z" fill="#000000" fill-rule="nonzero" fill-opacity="1" /><path clip-path="url(#clip320)" d="M190.556 394.69 L208.912 394.69 L208.912 398.625 L194.838 398.625 L194.838 407.097 Q195.857 406.75 196.875 406.588 Q197.894 406.403 198.912 406.403 Q204.699 406.403 208.079 409.574 Q211.459 412.745 211.459 418.162 Q211.459 423.741 207.987 426.842 Q204.514 429.921 198.195 429.921 Q196.019 429.921 193.75 429.551 Q191.505 429.18 189.098 428.44 L189.098 423.741 Q191.181 424.875 193.403 425.43 Q195.625 425.986 198.102 425.986 Q202.107 425.986 204.445 423.88 Q206.783 421.773 206.783 418.162 Q206.783 414.551 204.445 412.444 Q202.107 410.338 198.102 410.338 Q196.227 410.338 194.352 410.755 Q192.5 411.171 190.556 412.051 L190.556 394.69 Z" fill="#000000" fill-rule="nonzero" fill-opacity="1" /><path clip-path="url(#clip320)" d="M114.931 92.3689 L122.57 92.3689 L122.57 66.0033 L114.26 67.6699 L114.26 63.4107 L122.524 61.744 L127.2 61.744 L127.2 92.3689 L134.839 92.3689 L134.839 96.304 L114.931 96.304 L114.931 92.3689 Z" fill="#000000" fill-rule="nonzero" fill-opacity="1" /><path clip-path="url(#clip320)" d="M154.283 64.8227 Q150.672 64.8227 148.843 68.3875 Q147.038 71.9291 147.038 79.0587 Q147.038 86.1652 148.843 89.73 Q150.672 93.2716 154.283 93.2716 Q157.917 93.2716 159.723 89.73 Q161.552 86.1652 161.552 79.0587 Q161.552 71.9291 159.723 68.3875 Q157.917 64.8227 154.283 64.8227 M154.283 61.119 Q160.093 61.119 163.149 65.7255 Q166.227 70.3088 166.227 79.0587 Q166.227 87.7855 163.149 92.392 Q160.093 96.9753 154.283 96.9753 Q148.473 96.9753 145.394 92.392 Q142.339 87.7855 142.339 79.0587 Q142.339 70.3088 145.394 65.7255 Q148.473 61.119 154.283 61.119 Z" fill="#000000" fill-rule="nonzero" fill-opacity="1" /><path clip-path="url(#clip320)" d="M174.445 90.4244 L179.329 90.4244 L179.329 96.304 L174.445 96.304 L174.445 90.4244 Z" fill="#000000" fill-rule="nonzero" fill-opacity="1" /><path clip-path="url(#clip320)" d="M199.514 64.8227 Q195.903 64.8227 194.075 68.3875 Q192.269 71.9291 192.269 79.0587 Q192.269 86.1652 194.075 89.73 Q195.903 93.2716 199.514 93.2716 Q203.149 93.2716 204.954 89.73 Q206.783 86.1652 206.783 79.0587 Q206.783 71.9291 204.954 68.3875 Q203.149 64.8227 199.514 64.8227 M199.514 61.119 Q205.324 61.119 208.38 65.7255 Q211.459 70.3088 211.459 79.0587 Q211.459 87.7855 208.38 92.392 Q205.324 96.9753 199.514 96.9753 Q193.704 96.9753 190.625 92.392 Q187.57 87.7855 187.57 79.0587 Q187.57 70.3088 190.625 65.7255 Q193.704 61.119 199.514 61.119 Z" fill="#000000" fill-rule="nonzero" fill-opacity="1" /><path clip-path="url(#clip320)" d="M16.4842 755.248 L16.4842 748.341 L36.0269 735.164 L16.4842 722.083 L16.4842 715.176 L41.3741 731.981 L64.0042 731.981 L64.0042 738.443 L41.3741 738.443 L16.4842 755.248 Z" fill="#000000" fill-rule="nonzero" fill-opacity="1" /><circle clip-path="url(#clip322)" cx="591.983" cy="1251.98" r="14.4" fill="#009af9" fill-rule="evenodd" fill-opacity="1" stroke="#000000" stroke-opacity="1" stroke-width="3.2"/>
<circle clip-path="url(#clip322)" cx="549.184" cy="843.838" r="14.4" fill="#009af9" fill-rule="evenodd" fill-opacity="1" stroke="#000000" stroke-opacity="1" stroke-width="3.2"/>
<circle clip-path="url(#clip322)" cx="307.043" cy="934.481" r="14.4" fill="#009af9" fill-rule="evenodd" fill-opacity="1" stroke="#000000" stroke-opacity="1" stroke-width="3.2"/>
<circle clip-path="url(#clip322)" cx="438.867" cy="1167.27" r="14.4" fill="#009af9" fill-rule="evenodd" fill-opacity="1" stroke="#000000" stroke-opacity="1" stroke-width="3.2"/>
<circle clip-path="url(#clip322)" cx="374.512" cy="1384.24" r="14.4" fill="#009af9" fill-rule="evenodd" fill-opacity="1" stroke="#000000" stroke-opacity="1" stroke-width="3.2"/>
<circle clip-path="url(#clip322)" cx="1785.32" cy="705.577" r="14.4" fill="#e26f46" fill-rule="evenodd" fill-opacity="1" stroke="#000000" stroke-opacity="1" stroke-width="3.2"/>
<circle clip-path="url(#clip322)" cx="2262.79" cy="582.148" r="14.4" fill="#e26f46" fill-rule="evenodd" fill-opacity="1" stroke="#000000" stroke-opacity="1" stroke-width="3.2"/>
<circle clip-path="url(#clip322)" cx="1997.46" cy="1046.99" r="14.4" fill="#e26f46" fill-rule="evenodd" fill-opacity="1" stroke="#000000" stroke-opacity="1" stroke-width="3.2"/>
<circle clip-path="url(#clip322)" cx="2029.4" cy="86.1857" r="14.4" fill="#e26f46" fill-rule="evenodd" fill-opacity="1" stroke="#000000" stroke-opacity="1" stroke-width="3.2"/>
<circle clip-path="url(#clip322)" cx="2293.17" cy="139.493" r="14.4" fill="#e26f46" fill-rule="evenodd" fill-opacity="1" stroke="#000000" stroke-opacity="1" stroke-width="3.2"/>
<path clip-path="url(#clip320)" d="M317.635 248.629 L734.622 248.629 L734.622 93.1086 L317.635 93.1086  Z" fill="#ffffff" fill-rule="evenodd" fill-opacity="1"/>
<polyline clip-path="url(#clip320)" style="stroke:#000000; stroke-linecap:round; stroke-linejoin:round; stroke-width:4; stroke-opacity:1; fill:none" points="317.635,248.629 734.622,248.629 734.622,93.1086 317.635,93.1086 317.635,248.629 "/>
<circle clip-path="url(#clip320)" cx="411.204" cy="144.949" r="20.48" fill="#009af9" fill-rule="evenodd" fill-opacity="1" stroke="#000000" stroke-opacity="1" stroke-width="4.55111"/>
<path clip-path="url(#clip320)" d="M532.643 130.331 L532.643 135.261 Q530.282 133.062 527.597 131.974 Q524.935 130.886 521.925 130.886 Q516 130.886 512.851 134.52 Q509.703 138.132 509.703 144.983 Q509.703 151.812 512.851 155.446 Q516 159.057 521.925 159.057 Q524.935 159.057 527.597 157.969 Q530.282 156.881 532.643 154.682 L532.643 159.567 Q530.189 161.233 527.435 162.067 Q524.703 162.9 521.648 162.9 Q513.801 162.9 509.287 158.108 Q504.773 153.293 504.773 144.983 Q504.773 136.65 509.287 131.858 Q513.801 127.044 521.648 127.044 Q524.75 127.044 527.481 127.877 Q530.236 128.687 532.643 130.331 Z" fill="#000000" fill-rule="nonzero" fill-opacity="1" /><path clip-path="url(#clip320)" d="M539.68 126.21 L543.939 126.21 L543.939 162.229 L539.68 162.229 L539.68 126.21 Z" fill="#000000" fill-rule="nonzero" fill-opacity="1" /><path clip-path="url(#clip320)" d="M552.411 151.997 L552.411 136.303 L556.671 136.303 L556.671 151.835 Q556.671 155.516 558.106 157.368 Q559.541 159.196 562.411 159.196 Q565.86 159.196 567.851 156.997 Q569.865 154.798 569.865 151.002 L569.865 136.303 L574.124 136.303 L574.124 162.229 L569.865 162.229 L569.865 158.247 Q568.314 160.608 566.254 161.766 Q564.217 162.9 561.509 162.9 Q557.041 162.9 554.726 160.122 Q552.411 157.344 552.411 151.997 M563.129 135.678 L563.129 135.678 Z" fill="#000000" fill-rule="nonzero" fill-opacity="1" /><path clip-path="url(#clip320)" d="M599.425 137.067 L599.425 141.094 Q597.62 140.169 595.675 139.706 Q593.731 139.243 591.647 139.243 Q588.476 139.243 586.879 140.215 Q585.305 141.187 585.305 143.131 Q585.305 144.613 586.439 145.469 Q587.573 146.303 590.999 147.067 L592.458 147.391 Q596.995 148.363 598.893 150.145 Q600.814 151.905 600.814 155.076 Q600.814 158.687 597.944 160.793 Q595.096 162.9 590.096 162.9 Q588.013 162.9 585.745 162.483 Q583.499 162.09 580.999 161.28 L580.999 156.881 Q583.36 158.108 585.652 158.733 Q587.944 159.335 590.189 159.335 Q593.198 159.335 594.819 158.317 Q596.439 157.275 596.439 155.4 Q596.439 153.664 595.258 152.738 Q594.101 151.812 590.143 150.956 L588.661 150.608 Q584.703 149.775 582.944 148.062 Q581.184 146.326 581.184 143.317 Q581.184 139.659 583.777 137.669 Q586.37 135.678 591.138 135.678 Q593.499 135.678 595.583 136.025 Q597.666 136.372 599.425 137.067 Z" fill="#000000" fill-rule="nonzero" fill-opacity="1" /><path clip-path="url(#clip320)" d="M611.809 128.942 L611.809 136.303 L620.582 136.303 L620.582 139.613 L611.809 139.613 L611.809 153.687 Q611.809 156.858 612.666 157.761 Q613.545 158.664 616.207 158.664 L620.582 158.664 L620.582 162.229 L616.207 162.229 Q611.277 162.229 609.402 160.4 Q607.527 158.548 607.527 153.687 L607.527 139.613 L604.402 139.613 L604.402 136.303 L607.527 136.303 L607.527 128.942 L611.809 128.942 Z" fill="#000000" fill-rule="nonzero" fill-opacity="1" /><path clip-path="url(#clip320)" d="M648.36 148.201 L648.36 150.284 L628.777 150.284 Q629.055 154.682 631.416 156.997 Q633.8 159.289 638.036 159.289 Q640.49 159.289 642.781 158.687 Q645.096 158.085 647.365 156.881 L647.365 160.909 Q645.073 161.881 642.666 162.391 Q640.258 162.9 637.781 162.9 Q631.578 162.9 627.943 159.289 Q624.332 155.678 624.332 149.52 Q624.332 143.155 627.758 139.428 Q631.207 135.678 637.041 135.678 Q642.272 135.678 645.304 139.057 Q648.36 142.414 648.36 148.201 M644.101 146.951 Q644.054 143.456 642.133 141.372 Q640.235 139.289 637.087 139.289 Q633.522 139.289 631.369 141.303 Q629.24 143.317 628.916 146.974 L644.101 146.951 Z" fill="#000000" fill-rule="nonzero" fill-opacity="1" /><path clip-path="url(#clip320)" d="M670.374 140.284 Q669.656 139.868 668.8 139.682 Q667.966 139.474 666.948 139.474 Q663.337 139.474 661.392 141.835 Q659.471 144.173 659.471 148.571 L659.471 162.229 L655.189 162.229 L655.189 136.303 L659.471 136.303 L659.471 140.331 Q660.814 137.969 662.966 136.835 Q665.119 135.678 668.198 135.678 Q668.638 135.678 669.17 135.747 Q669.702 135.794 670.351 135.909 L670.374 140.284 Z" fill="#000000" fill-rule="nonzero" fill-opacity="1" /><path clip-path="url(#clip320)" d="M691.323 158.293 L698.962 158.293 L698.962 131.928 L690.651 133.595 L690.651 129.335 L698.915 127.669 L703.591 127.669 L703.591 158.293 L711.23 158.293 L711.23 162.229 L691.323 162.229 L691.323 158.293 Z" fill="#000000" fill-rule="nonzero" fill-opacity="1" /><circle clip-path="url(#clip320)" cx="411.204" cy="196.789" r="20.48" fill="#e26f46" fill-rule="evenodd" fill-opacity="1" stroke="#000000" stroke-opacity="1" stroke-width="4.55111"/>
<path clip-path="url(#clip320)" d="M532.643 182.171 L532.643 187.101 Q530.282 184.902 527.597 183.814 Q524.935 182.726 521.925 182.726 Q516 182.726 512.851 186.36 Q509.703 189.972 509.703 196.823 Q509.703 203.652 512.851 207.286 Q516 210.897 521.925 210.897 Q524.935 210.897 527.597 209.809 Q530.282 208.721 532.643 206.522 L532.643 211.407 Q530.189 213.073 527.435 213.907 Q524.703 214.74 521.648 214.74 Q513.801 214.74 509.287 209.948 Q504.773 205.133 504.773 196.823 Q504.773 188.49 509.287 183.698 Q513.801 178.884 521.648 178.884 Q524.75 178.884 527.481 179.717 Q530.236 180.527 532.643 182.171 Z" fill="#000000" fill-rule="nonzero" fill-opacity="1" /><path clip-path="url(#clip320)" d="M539.68 178.05 L543.939 178.05 L543.939 214.069 L539.68 214.069 L539.68 178.05 Z" fill="#000000" fill-rule="nonzero" fill-opacity="1" /><path clip-path="url(#clip320)" d="M552.411 203.837 L552.411 188.143 L556.671 188.143 L556.671 203.675 Q556.671 207.356 558.106 209.208 Q559.541 211.036 562.411 211.036 Q565.86 211.036 567.851 208.837 Q569.865 206.638 569.865 202.842 L569.865 188.143 L574.124 188.143 L574.124 214.069 L569.865 214.069 L569.865 210.087 Q568.314 212.448 566.254 213.606 Q564.217 214.74 561.509 214.74 Q557.041 214.74 554.726 211.962 Q552.411 209.184 552.411 203.837 M563.129 187.518 L563.129 187.518 Z" fill="#000000" fill-rule="nonzero" fill-opacity="1" /><path clip-path="url(#clip320)" d="M599.425 188.907 L599.425 192.934 Q597.62 192.009 595.675 191.546 Q593.731 191.083 591.647 191.083 Q588.476 191.083 586.879 192.055 Q585.305 193.027 585.305 194.971 Q585.305 196.453 586.439 197.309 Q587.573 198.143 590.999 198.907 L592.458 199.231 Q596.995 200.203 598.893 201.985 Q600.814 203.745 600.814 206.916 Q600.814 210.527 597.944 212.633 Q595.096 214.74 590.096 214.74 Q588.013 214.74 585.745 214.323 Q583.499 213.93 580.999 213.12 L580.999 208.721 Q583.36 209.948 585.652 210.573 Q587.944 211.175 590.189 211.175 Q593.198 211.175 594.819 210.157 Q596.439 209.115 596.439 207.24 Q596.439 205.504 595.258 204.578 Q594.101 203.652 590.143 202.796 L588.661 202.448 Q584.703 201.615 582.944 199.902 Q581.184 198.166 581.184 195.157 Q581.184 191.499 583.777 189.509 Q586.37 187.518 591.138 187.518 Q593.499 187.518 595.583 187.865 Q597.666 188.212 599.425 188.907 Z" fill="#000000" fill-rule="nonzero" fill-opacity="1" /><path clip-path="url(#clip320)" d="M611.809 180.782 L611.809 188.143 L620.582 188.143 L620.582 191.453 L611.809 191.453 L611.809 205.527 Q611.809 208.698 612.666 209.601 Q613.545 210.504 616.207 210.504 L620.582 210.504 L620.582 214.069 L616.207 214.069 Q611.277 214.069 609.402 212.24 Q607.527 210.388 607.527 205.527 L607.527 191.453 L604.402 191.453 L604.402 188.143 L607.527 188.143 L607.527 180.782 L611.809 180.782 Z" fill="#000000" fill-rule="nonzero" fill-opacity="1" /><path clip-path="url(#clip320)" d="M648.36 200.041 L648.36 202.124 L628.777 202.124 Q629.055 206.522 631.416 208.837 Q633.8 211.129 638.036 211.129 Q640.49 211.129 642.781 210.527 Q645.096 209.925 647.365 208.721 L647.365 212.749 Q645.073 213.721 642.666 214.231 Q640.258 214.74 637.781 214.74 Q631.578 214.74 627.943 211.129 Q624.332 207.518 624.332 201.36 Q624.332 194.995 627.758 191.268 Q631.207 187.518 637.041 187.518 Q642.272 187.518 645.304 190.897 Q648.36 194.254 648.36 200.041 M644.101 198.791 Q644.054 195.296 642.133 193.212 Q640.235 191.129 637.087 191.129 Q633.522 191.129 631.369 193.143 Q629.24 195.157 628.916 198.814 L644.101 198.791 Z" fill="#000000" fill-rule="nonzero" fill-opacity="1" /><path clip-path="url(#clip320)" d="M670.374 192.124 Q669.656 191.708 668.8 191.522 Q667.966 191.314 666.948 191.314 Q663.337 191.314 661.392 193.675 Q659.471 196.013 659.471 200.411 L659.471 214.069 L655.189 214.069 L655.189 188.143 L659.471 188.143 L659.471 192.171 Q660.814 189.809 662.966 188.675 Q665.119 187.518 668.198 187.518 Q668.638 187.518 669.17 187.587 Q669.702 187.634 670.351 187.749 L670.374 192.124 Z" fill="#000000" fill-rule="nonzero" fill-opacity="1" /><path clip-path="url(#clip320)" d="M694.54 210.133 L710.86 210.133 L710.86 214.069 L688.915 214.069 L688.915 210.133 Q691.577 207.379 696.161 202.749 Q700.767 198.096 701.948 196.754 Q704.193 194.231 705.073 192.495 Q705.975 190.735 705.975 189.046 Q705.975 186.291 704.031 184.555 Q702.11 182.819 699.008 182.819 Q696.809 182.819 694.355 183.583 Q691.925 184.347 689.147 185.897 L689.147 181.175 Q691.971 180.041 694.425 179.462 Q696.878 178.884 698.915 178.884 Q704.286 178.884 707.48 181.569 Q710.674 184.254 710.674 188.745 Q710.674 190.874 709.864 192.796 Q709.077 194.694 706.971 197.286 Q706.392 197.958 703.29 201.175 Q700.188 204.37 694.54 210.133 Z" fill="#000000" fill-rule="nonzero" fill-opacity="1" /></svg>
