<?xml version="1.0" encoding="utf-8"?>
<svg xmlns="http://www.w3.org/2000/svg" xmlns:xlink="http://www.w3.org/1999/xlink" width="600" height="400" viewBox="0 0 2400 1600">
<defs>
  <clipPath id="clip120">
    <rect x="0" y="0" width="2400" height="1600"/>
  </clipPath>
</defs>
<path clip-path="url(#clip120)" d="M0 1600 L2400 1600 L2400 0 L0 0  Z" fill="#ffffff" fill-rule="evenodd" fill-opacity="1"/>
<defs>
  <clipPath id="clip121">
    <rect x="480" y="0" width="1681" height="1600"/>
  </clipPath>
</defs>
<path clip-path="url(#clip120)" d="M202.227 1423.18 L2352.76 1423.18 L2352.76 47.2441 L202.227 47.2441  Z" fill="#ffffff" fill-rule="evenodd" fill-opacity="1"/>
<defs>
  <clipPath id="clip122">
    <rect x="202" y="47" width="2152" height="1377"/>
  </clipPath>
</defs>
<polyline clip-path="url(#clip122)" style="stroke:#000000; stroke-linecap:round; stroke-linejoin:round; stroke-width:2; stroke-opacity:0.1; fill:none" points="630.574,1423.18 630.574,47.2441 "/>
<polyline clip-path="url(#clip122)" style="stroke:#000000; stroke-linecap:round; stroke-linejoin:round; stroke-width:2; stroke-opacity:0.1; fill:none" points="1085.73,1423.18 1085.73,47.2441 "/>
<polyline clip-path="url(#clip122)" style="stroke:#000000; stroke-linecap:round; stroke-linejoin:round; stroke-width:2; stroke-opacity:0.1; fill:none" points="1540.89,1423.18 1540.89,47.2441 "/>
<polyline clip-path="url(#clip122)" style="stroke:#000000; stroke-linecap:round; stroke-linejoin:round; stroke-width:2; stroke-opacity:0.1; fill:none" points="1996.06,1423.18 1996.06,47.2441 "/>
<polyline clip-path="url(#clip122)" style="stroke:#000000; stroke-linecap:round; stroke-linejoin:round; stroke-width:2; stroke-opacity:0.1; fill:none" points="202.227,1234.14 2352.76,1234.14 "/>
<polyline clip-path="url(#clip122)" style="stroke:#000000; stroke-linecap:round; stroke-linejoin:round; stroke-width:2; stroke-opacity:0.1; fill:none" points="202.227,945.238 2352.76,945.238 "/>
<polyline clip-path="url(#clip122)" style="stroke:#000000; stroke-linecap:round; stroke-linejoin:round; stroke-width:2; stroke-opacity:0.1; fill:none" points="202.227,656.334 2352.76,656.334 "/>
<polyline clip-path="url(#clip122)" style="stroke:#000000; stroke-linecap:round; stroke-linejoin:round; stroke-width:2; stroke-opacity:0.1; fill:none" points="202.227,367.43 2352.76,367.43 "/>
<polyline clip-path="url(#clip122)" style="stroke:#000000; stroke-linecap:round; stroke-linejoin:round; stroke-width:2; stroke-opacity:0.1; fill:none" points="202.227,78.5254 2352.76,78.5254 "/>
<polyline clip-path="url(#clip120)" style="stroke:#000000; stroke-linecap:round; stroke-linejoin:round; stroke-width:4; stroke-opacity:1; fill:none" points="202.227,1423.18 2352.76,1423.18 "/>
<polyline clip-path="url(#clip120)" style="stroke:#000000; stroke-linecap:round; stroke-linejoin:round; stroke-width:4; stroke-opacity:1; fill:none" points="630.574,1423.18 630.574,1404.28 "/>
<polyline clip-path="url(#clip120)" style="stroke:#000000; stroke-linecap:round; stroke-linejoin:round; stroke-width:4; stroke-opacity:1; fill:none" points="1085.73,1423.18 1085.73,1404.28 "/>
<polyline clip-path="url(#clip120)" style="stroke:#000000; stroke-linecap:round; stroke-linejoin:round; stroke-width:4; stroke-opacity:1; fill:none" points="1540.89,1423.18 1540.89,1404.28 "/>
<polyline clip-path="url(#clip120)" style="stroke:#000000; stroke-linecap:round; stroke-linejoin:round; stroke-width:4; stroke-opacity:1; fill:none" points="1996.06,1423.18 1996.06,1404.28 "/>
<path clip-path="url(#clip120)" d="M625.226 1481.64 L641.546 1481.64 L641.546 1485.58 L619.601 1485.58 L619.601 1481.64 Q622.263 1478.89 626.847 1474.26 Q631.453 1469.61 632.634 1468.27 Q634.879 1465.74 635.759 1464.01 Q636.661 1462.25 636.661 1460.56 Q636.661 1457.8 634.717 1456.07 Q632.796 1454.33 629.694 1454.33 Q627.495 1454.33 625.041 1455.09 Q622.611 1455.86 619.833 1457.41 L619.833 1452.69 Q622.657 1451.55 625.111 1450.97 Q627.564 1450.39 629.601 1450.39 Q634.972 1450.39 638.166 1453.08 Q641.361 1455.77 641.361 1460.26 Q641.361 1462.39 640.55 1464.31 Q639.763 1466.2 637.657 1468.8 Q637.078 1469.47 633.976 1472.69 Q630.874 1475.88 625.226 1481.64 Z" fill="#000000" fill-rule="nonzero" fill-opacity="1" /><path clip-path="url(#clip120)" d="M1089.98 1466.95 Q1093.34 1467.66 1095.21 1469.93 Q1097.11 1472.2 1097.11 1475.53 Q1097.11 1480.65 1093.59 1483.45 Q1090.07 1486.25 1083.59 1486.25 Q1081.42 1486.25 1079.1 1485.81 Q1076.81 1485.39 1074.36 1484.54 L1074.36 1480.02 Q1076.3 1481.16 1078.62 1481.74 Q1080.93 1482.32 1083.45 1482.32 Q1087.85 1482.32 1090.14 1480.58 Q1092.46 1478.84 1092.46 1475.53 Q1092.46 1472.48 1090.31 1470.77 Q1088.18 1469.03 1084.36 1469.03 L1080.33 1469.03 L1080.33 1465.19 L1084.54 1465.19 Q1087.99 1465.19 1089.82 1463.82 Q1091.65 1462.43 1091.65 1459.84 Q1091.65 1457.18 1089.75 1455.77 Q1087.88 1454.33 1084.36 1454.33 Q1082.44 1454.33 1080.24 1454.75 Q1078.04 1455.16 1075.4 1456.04 L1075.4 1451.88 Q1078.06 1451.14 1080.38 1450.77 Q1082.71 1450.39 1084.77 1450.39 Q1090.1 1450.39 1093.2 1452.83 Q1096.3 1455.23 1096.3 1459.35 Q1096.3 1462.22 1094.66 1464.21 Q1093.01 1466.18 1089.98 1466.95 Z" fill="#000000" fill-rule="nonzero" fill-opacity="1" /><path clip-path="url(#clip120)" d="M1543.9 1455.09 L1532.1 1473.54 L1543.9 1473.54 L1543.9 1455.09 M1542.68 1451.02 L1548.56 1451.02 L1548.56 1473.54 L1553.49 1473.54 L1553.49 1477.43 L1548.56 1477.43 L1548.56 1485.58 L1543.9 1485.58 L1543.9 1477.43 L1528.3 1477.43 L1528.3 1472.92 L1542.68 1451.02 Z" fill="#000000" fill-rule="nonzero" fill-opacity="1" /><path clip-path="url(#clip120)" d="M1986.33 1451.02 L2004.69 1451.02 L2004.69 1454.96 L1990.62 1454.96 L1990.62 1463.43 Q1991.63 1463.08 1992.65 1462.92 Q1993.67 1462.73 1994.69 1462.73 Q2000.48 1462.73 2003.86 1465.9 Q2007.24 1469.08 2007.24 1474.49 Q2007.24 1480.07 2003.76 1483.17 Q2000.29 1486.25 1993.97 1486.25 Q1991.8 1486.25 1989.53 1485.88 Q1987.28 1485.51 1984.87 1484.77 L1984.87 1480.07 Q1986.96 1481.2 1989.18 1481.76 Q1991.4 1482.32 1993.88 1482.32 Q1997.88 1482.32 2000.22 1480.21 Q2002.56 1478.1 2002.56 1474.49 Q2002.56 1470.88 2000.22 1468.77 Q1997.88 1466.67 1993.88 1466.67 Q1992 1466.67 1990.13 1467.08 Q1988.28 1467.5 1986.33 1468.38 L1986.33 1451.02 Z" fill="#000000" fill-rule="nonzero" fill-opacity="1" /><path clip-path="url(#clip120)" d="M1259.32 1520.52 L1266.22 1520.52 L1278.03 1538.19 L1289.9 1520.52 L1296.81 1520.52 L1281.53 1543.34 L1297.83 1568.04 L1290.92 1568.04 L1277.56 1547.83 L1264.09 1568.04 L1257.15 1568.04 L1274.12 1542.68 L1259.32 1520.52 Z" fill="#000000" fill-rule="nonzero" fill-opacity="1" /><polyline clip-path="url(#clip120)" style="stroke:#000000; stroke-linecap:round; stroke-linejoin:round; stroke-width:4; stroke-opacity:1; fill:none" points="202.227,1423.18 202.227,47.2441 "/>
<polyline clip-path="url(#clip120)" style="stroke:#000000; stroke-linecap:round; stroke-linejoin:round; stroke-width:4; stroke-opacity:1; fill:none" points="202.227,1234.14 221.125,1234.14 "/>
<polyline clip-path="url(#clip120)" style="stroke:#000000; stroke-linecap:round; stroke-linejoin:round; stroke-width:4; stroke-opacity:1; fill:none" points="202.227,945.238 221.125,945.238 "/>
<polyline clip-path="url(#clip120)" style="stroke:#000000; stroke-linecap:round; stroke-linejoin:round; stroke-width:4; stroke-opacity:1; fill:none" points="202.227,656.334 221.125,656.334 "/>
<polyline clip-path="url(#clip120)" style="stroke:#000000; stroke-linecap:round; stroke-linejoin:round; stroke-width:4; stroke-opacity:1; fill:none" points="202.227,367.43 221.125,367.43 "/>
<polyline clip-path="url(#clip120)" style="stroke:#000000; stroke-linecap:round; stroke-linejoin:round; stroke-width:4; stroke-opacity:1; fill:none" points="202.227,78.5254 221.125,78.5254 "/>
<path clip-path="url(#clip120)" d="M149.908 1247.49 L166.227 1247.49 L166.227 1251.42 L144.283 1251.42 L144.283 1247.49 Q146.945 1244.73 151.528 1240.1 Q156.135 1235.45 157.315 1234.11 Q159.561 1231.58 160.44 1229.85 Q161.343 1228.09 161.343 1226.4 Q161.343 1223.64 159.399 1221.91 Q157.478 1220.17 154.376 1220.17 Q152.177 1220.17 149.723 1220.94 Q147.292 1221.7 144.515 1223.25 L144.515 1218.53 Q147.339 1217.39 149.792 1216.82 Q152.246 1216.24 154.283 1216.24 Q159.653 1216.24 162.848 1218.92 Q166.042 1221.61 166.042 1226.1 Q166.042 1228.23 165.232 1230.15 Q164.445 1232.05 162.339 1234.64 Q161.76 1235.31 158.658 1238.53 Q155.556 1241.72 149.908 1247.49 Z" fill="#000000" fill-rule="nonzero" fill-opacity="1" /><path clip-path="url(#clip120)" d="M156.644 932.032 L144.839 950.481 L156.644 950.481 L156.644 932.032 M155.417 927.958 L161.297 927.958 L161.297 950.481 L166.227 950.481 L166.227 954.37 L161.297 954.37 L161.297 962.518 L156.644 962.518 L156.644 954.37 L141.042 954.37 L141.042 949.856 L155.417 927.958 Z" fill="#000000" fill-rule="nonzero" fill-opacity="1" /><path clip-path="url(#clip120)" d="M154.7 654.47 Q151.552 654.47 149.7 656.623 Q147.871 658.776 147.871 662.526 Q147.871 666.253 149.7 668.429 Q151.552 670.581 154.7 670.581 Q157.848 670.581 159.677 668.429 Q161.528 666.253 161.528 662.526 Q161.528 658.776 159.677 656.623 Q157.848 654.47 154.7 654.47 M163.982 639.818 L163.982 644.077 Q162.223 643.244 160.417 642.804 Q158.635 642.364 156.876 642.364 Q152.246 642.364 149.792 645.489 Q147.362 648.614 147.015 654.933 Q148.38 652.919 150.441 651.855 Q152.501 650.767 154.978 650.767 Q160.186 650.767 163.195 653.938 Q166.227 657.086 166.227 662.526 Q166.227 667.85 163.079 671.067 Q159.931 674.285 154.7 674.285 Q148.704 674.285 145.533 669.702 Q142.362 665.095 142.362 656.368 Q142.362 648.174 146.251 643.313 Q150.14 638.429 156.69 638.429 Q158.45 638.429 160.232 638.776 Q162.038 639.123 163.982 639.818 Z" fill="#000000" fill-rule="nonzero" fill-opacity="1" /><path clip-path="url(#clip120)" d="M154.376 368.298 Q151.042 368.298 149.121 370.08 Q147.223 371.862 147.223 374.987 Q147.223 378.112 149.121 379.895 Q151.042 381.677 154.376 381.677 Q157.709 381.677 159.63 379.895 Q161.552 378.089 161.552 374.987 Q161.552 371.862 159.63 370.08 Q157.732 368.298 154.376 368.298 M149.7 366.307 Q146.691 365.566 145.001 363.506 Q143.334 361.446 143.334 358.483 Q143.334 354.339 146.274 351.932 Q149.237 349.525 154.376 349.525 Q159.538 349.525 162.477 351.932 Q165.417 354.339 165.417 358.483 Q165.417 361.446 163.727 363.506 Q162.061 365.566 159.075 366.307 Q162.454 367.094 164.329 369.386 Q166.227 371.677 166.227 374.987 Q166.227 380.011 163.149 382.696 Q160.093 385.381 154.376 385.381 Q148.658 385.381 145.579 382.696 Q142.524 380.011 142.524 374.987 Q142.524 371.677 144.422 369.386 Q146.32 367.094 149.7 366.307 M147.987 358.923 Q147.987 361.608 149.653 363.112 Q151.343 364.617 154.376 364.617 Q157.385 364.617 159.075 363.112 Q160.788 361.608 160.788 358.923 Q160.788 356.237 159.075 354.733 Q157.385 353.228 154.376 353.228 Q151.343 353.228 149.653 354.733 Q147.987 356.237 147.987 358.923 Z" fill="#000000" fill-rule="nonzero" fill-opacity="1" /><path clip-path="url(#clip120)" d="M114.931 91.8702 L122.57 91.8702 L122.57 65.5046 L114.26 67.1713 L114.26 62.912 L122.524 61.2454 L127.2 61.2454 L127.2 91.8702 L134.839 91.8702 L134.839 95.8054 L114.931 95.8054 L114.931 91.8702 Z" fill="#000000" fill-rule="nonzero" fill-opacity="1" /><path clip-path="url(#clip120)" d="M154.283 64.3241 Q150.672 64.3241 148.843 67.8888 Q147.038 71.4305 147.038 78.5601 Q147.038 85.6665 148.843 89.2313 Q150.672 92.773 154.283 92.773 Q157.917 92.773 159.723 89.2313 Q161.552 85.6665 161.552 78.5601 Q161.552 71.4305 159.723 67.8888 Q157.917 64.3241 154.283 64.3241 M154.283 60.6204 Q160.093 60.6204 163.149 65.2268 Q166.227 69.8101 166.227 78.5601 Q166.227 87.2869 163.149 91.8934 Q160.093 96.4767 154.283 96.4767 Q148.473 96.4767 145.394 91.8934 Q142.339 87.2869 142.339 78.5601 Q142.339 69.8101 145.394 65.2268 Q148.473 60.6204 154.283 60.6204 Z" fill="#000000" fill-rule="nonzero" fill-opacity="1" /><path clip-path="url(#clip120)" d="M16.4842 755.248 L16.4842 748.341 L36.0269 735.164 L16.4842 722.083 L16.4842 715.176 L41.3741 731.981 L64.0042 731.981 L64.0042 738.443 L41.3741 738.443 L16.4842 755.248 Z" fill="#000000" fill-rule="nonzero" fill-opacity="1" /><circle clip-path="url(#clip122)" cx="586.122" cy="980.471" r="14.4" fill="#009af9" fill-rule="evenodd" fill-opacity="1" stroke="#000000" stroke-opacity="1" stroke-width="3.2"/>
<circle clip-path="url(#clip122)" cx="263.091" cy="950.051" r="14.4" fill="#009af9" fill-rule="evenodd" fill-opacity="1" stroke="#000000" stroke-opacity="1" stroke-width="3.2"/>
<circle clip-path="url(#clip122)" cx="436.11" cy="1169.01" r="14.4" fill="#009af9" fill-rule="evenodd" fill-opacity="1" stroke="#000000" stroke-opacity="1" stroke-width="3.2"/>
<circle clip-path="url(#clip122)" cx="392.805" cy="1237.71" r="14.4" fill="#009af9" fill-rule="evenodd" fill-opacity="1" stroke="#000000" stroke-opacity="1" stroke-width="3.2"/>
<circle clip-path="url(#clip122)" cx="557.485" cy="812.777" r="14.4" fill="#009af9" fill-rule="evenodd" fill-opacity="1" stroke="#000000" stroke-opacity="1" stroke-width="3.2"/>
<circle clip-path="url(#clip122)" cx="2028.98" cy="208.916" r="14.4" fill="#e26f46" fill-rule="evenodd" fill-opacity="1" stroke="#000000" stroke-opacity="1" stroke-width="3.2"/>
<circle clip-path="url(#clip122)" cx="1976.05" cy="518.918" r="14.4" fill="#e26f46" fill-rule="evenodd" fill-opacity="1" stroke="#000000" stroke-opacity="1" stroke-width="3.2"/>
<circle clip-path="url(#clip122)" cx="2054.48" cy="86.1857" r="14.4" fill="#e26f46" fill-rule="evenodd" fill-opacity="1" stroke="#000000" stroke-opacity="1" stroke-width="3.2"/>
<circle clip-path="url(#clip122)" cx="2291.89" cy="615.391" r="14.4" fill="#e26f46" fill-rule="evenodd" fill-opacity="1" stroke="#000000" stroke-opacity="1" stroke-width="3.2"/>
<circle clip-path="url(#clip122)" cx="1599.7" cy="1384.24" r="14.4" fill="#e26f46" fill-rule="evenodd" fill-opacity="1" stroke="#000000" stroke-opacity="1" stroke-width="3.2"/>
<path clip-path="url(#clip120)" d="M273.912 248.629 L695.422 248.629 L695.422 93.1086 L273.912 93.1086  Z" fill="#ffffff" fill-rule="evenodd" fill-opacity="1"/>
<polyline clip-path="url(#clip120)" style="stroke:#000000; stroke-linecap:round; stroke-linejoin:round; stroke-width:4; stroke-opacity:1; fill:none" points="273.912,248.629 695.422,248.629 695.422,93.1086 273.912,93.1086 273.912,248.629 "/>
<circle clip-path="url(#clip120)" cx="369.491" cy="144.949" r="20.48" fill="#009af9" fill-rule="evenodd" fill-opacity="1" stroke="#000000" stroke-opacity="1" stroke-width="4.55111"/>
<path clip-path="url(#clip120)" d="M492.94 130.331 L492.94 135.261 Q490.579 133.062 487.894 131.974 Q485.232 130.886 482.223 130.886 Q476.297 130.886 473.148 134.52 Q470 138.132 470 144.983 Q470 151.812 473.148 155.446 Q476.297 159.057 482.223 159.057 Q485.232 159.057 487.894 157.969 Q490.579 156.881 492.94 154.682 L492.94 159.567 Q490.486 161.233 487.732 162.067 Q485 162.9 481.945 162.9 Q474.098 162.9 469.584 158.108 Q465.07 153.293 465.07 144.983 Q465.07 136.65 469.584 131.858 Q474.098 127.044 481.945 127.044 Q485.047 127.044 487.778 127.877 Q490.533 128.687 492.94 130.331 Z" fill="#000000" fill-rule="nonzero" fill-opacity="1" /><path clip-path="url(#clip120)" d="M499.977 126.21 L504.236 126.21 L504.236 162.229 L499.977 162.229 L499.977 126.21 Z" fill="#000000" fill-rule="nonzero" fill-opacity="1" /><path clip-path="url(#clip120)" d="M512.708 151.997 L512.708 136.303 L516.968 136.303 L516.968 151.835 Q516.968 155.516 518.403 157.368 Q519.838 159.196 522.708 159.196 Q526.157 159.196 528.148 156.997 Q530.162 154.798 530.162 151.002 L530.162 136.303 L534.421 136.303 L534.421 162.229 L530.162 162.229 L530.162 158.247 Q528.611 160.608 526.551 161.766 Q524.514 162.9 521.806 162.9 Q517.338 162.9 515.023 160.122 Q512.708 157.344 512.708 151.997 M523.426 135.678 L523.426 135.678 Z" fill="#000000" fill-rule="nonzero" fill-opacity="1" /><path clip-path="url(#clip120)" d="M559.722 137.067 L559.722 141.094 Q557.917 140.169 555.972 139.706 Q554.028 139.243 551.944 139.243 Q548.773 139.243 547.176 140.215 Q545.602 141.187 545.602 143.131 Q545.602 144.613 546.736 145.469 Q547.87 146.303 551.296 147.067 L552.755 147.391 Q557.292 148.363 559.19 150.145 Q561.111 151.905 561.111 155.076 Q561.111 158.687 558.241 160.793 Q555.393 162.9 550.393 162.9 Q548.31 162.9 546.042 162.483 Q543.796 162.09 541.296 161.28 L541.296 156.881 Q543.657 158.108 545.949 158.733 Q548.241 159.335 550.486 159.335 Q553.495 159.335 555.116 158.317 Q556.736 157.275 556.736 155.4 Q556.736 153.664 555.555 152.738 Q554.398 151.812 550.44 150.956 L548.958 150.608 Q545 149.775 543.241 148.062 Q541.481 146.326 541.481 143.317 Q541.481 139.659 544.074 137.669 Q546.667 135.678 551.435 135.678 Q553.796 135.678 555.88 136.025 Q557.963 136.372 559.722 137.067 Z" fill="#000000" fill-rule="nonzero" fill-opacity="1" /><path clip-path="url(#clip120)" d="M572.106 128.942 L572.106 136.303 L580.879 136.303 L580.879 139.613 L572.106 139.613 L572.106 153.687 Q572.106 156.858 572.963 157.761 Q573.842 158.664 576.504 158.664 L580.879 158.664 L580.879 162.229 L576.504 162.229 Q571.574 162.229 569.699 160.4 Q567.824 158.548 567.824 153.687 L567.824 139.613 L564.699 139.613 L564.699 136.303 L567.824 136.303 L567.824 128.942 L572.106 128.942 Z" fill="#000000" fill-rule="nonzero" fill-opacity="1" /><path clip-path="url(#clip120)" d="M608.657 148.201 L608.657 150.284 L589.074 150.284 Q589.352 154.682 591.713 156.997 Q594.097 159.289 598.333 159.289 Q600.787 159.289 603.078 158.687 Q605.393 158.085 607.662 156.881 L607.662 160.909 Q605.37 161.881 602.963 162.391 Q600.555 162.9 598.078 162.9 Q591.875 162.9 588.24 159.289 Q584.629 155.678 584.629 149.52 Q584.629 143.155 588.055 139.428 Q591.504 135.678 597.338 135.678 Q602.569 135.678 605.601 139.057 Q608.657 142.414 608.657 148.201 M604.398 146.951 Q604.351 143.456 602.43 141.372 Q600.532 139.289 597.384 139.289 Q593.819 139.289 591.666 141.303 Q589.537 143.317 589.213 146.974 L604.398 146.951 Z" fill="#000000" fill-rule="nonzero" fill-opacity="1" /><path clip-path="url(#clip120)" d="M630.671 140.284 Q629.953 139.868 629.097 139.682 Q628.263 139.474 627.245 139.474 Q623.634 139.474 621.689 141.835 Q619.768 144.173 619.768 148.571 L619.768 162.229 L615.486 162.229 L615.486 136.303 L619.768 136.303 L619.768 140.331 Q621.111 137.969 623.263 136.835 Q625.416 135.678 628.495 135.678 Q628.935 135.678 629.467 135.747 Q630 135.794 630.648 135.909 L630.671 140.284 Z" fill="#000000" fill-rule="nonzero" fill-opacity="1" /><path clip-path="url(#clip120)" d="M651.62 158.293 L659.259 158.293 L659.259 131.928 L650.948 133.595 L650.948 129.335 L659.212 127.669 L663.888 127.669 L663.888 158.293 L671.527 158.293 L671.527 162.229 L651.62 162.229 L651.62 158.293 Z" fill="#000000" fill-rule="nonzero" fill-opacity="1" /><circle clip-path="url(#clip120)" cx="369.491" cy="196.789" r="20.48" fill="#e26f46" fill-rule="evenodd" fill-opacity="1" stroke="#000000" stroke-opacity="1" stroke-width="4.55111"/>
<path clip-path="url(#clip120)" d="M492.94 182.171 L492.94 187.101 Q490.579 184.902 487.894 183.814 Q485.232 182.726 482.223 182.726 Q476.297 182.726 473.148 186.36 Q470 189.972 470 196.823 Q470 203.652 473.148 207.286 Q476.297 210.897 482.223 210.897 Q485.232 210.897 487.894 209.809 Q490.579 208.721 492.94 206.522 L492.94 211.407 Q490.486 213.073 487.732 213.907 Q485 214.74 481.945 214.74 Q474.098 214.74 469.584 209.948 Q465.07 205.133 465.07 196.823 Q465.07 188.49 469.584 183.698 Q474.098 178.884 481.945 178.884 Q485.047 178.884 487.778 179.717 Q490.533 180.527 492.94 182.171 Z" fill="#000000" fill-rule="nonzero" fill-opacity="1" /><path clip-path="url(#clip120)" d="M499.977 178.05 L504.236 178.05 L504.236 214.069 L499.977 214.069 L499.977 178.05 Z" fill="#000000" fill-rule="nonzero" fill-opacity="1" /><path clip-path="url(#clip120)" d="M512.708 203.837 L512.708 188.143 L516.968 188.143 L516.968 203.675 Q516.968 207.356 518.403 209.208 Q519.838 211.036 522.708 211.036 Q526.157 211.036 528.148 208.837 Q530.162 206.638 530.162 202.842 L530.162 188.143 L534.421 188.143 L534.421 214.069 L530.162 214.069 L530.162 210.087 Q528.611 212.448 526.551 213.606 Q524.514 214.74 521.806 214.74 Q517.338 214.74 515.023 211.962 Q512.708 209.184 512.708 203.837 M523.426 187.518 L523.426 187.518 Z" fill="#000000" fill-rule="nonzero" fill-opacity="1" /><path clip-path="url(#clip120)" d="M559.722 188.907 L559.722 192.934 Q557.917 192.009 555.972 191.546 Q554.028 191.083 551.944 191.083 Q548.773 191.083 547.176 192.055 Q545.602 193.027 545.602 194.971 Q545.602 196.453 546.736 197.309 Q547.87 198.143 551.296 198.907 L552.755 199.231 Q557.292 200.203 559.19 201.985 Q561.111 203.745 561.111 206.916 Q561.111 210.527 558.241 212.633 Q555.393 214.74 550.393 214.74 Q548.31 214.74 546.042 214.323 Q543.796 213.93 541.296 213.12 L541.296 208.721 Q543.657 209.948 545.949 210.573 Q548.241 211.175 550.486 211.175 Q553.495 211.175 555.116 210.157 Q556.736 209.115 556.736 207.24 Q556.736 205.504 555.555 204.578 Q554.398 203.652 550.44 202.796 L548.958 202.448 Q545 201.615 543.241 199.902 Q541.481 198.166 541.481 195.157 Q541.481 191.499 544.074 189.509 Q546.667 187.518 551.435 187.518 Q553.796 187.518 555.88 187.865 Q557.963 188.212 559.722 188.907 Z" fill="#000000" fill-rule="nonzero" fill-opacity="1" /><path clip-path="url(#clip120)" d="M572.106 180.782 L572.106 188.143 L580.879 188.143 L580.879 191.453 L572.106 191.453 L572.106 205.527 Q572.106 208.698 572.963 209.601 Q573.842 210.504 576.504 210.504 L580.879 210.504 L580.879 214.069 L576.504 214.069 Q571.574 214.069 569.699 212.24 Q567.824 210.388 567.824 205.527 L567.824 191.453 L564.699 191.453 L564.699 188.143 L567.824 188.143 L567.824 180.782 L572.106 180.782 Z" fill="#000000" fill-rule="nonzero" fill-opacity="1" /><path clip-path="url(#clip120)" d="M608.657 200.041 L608.657 202.124 L589.074 202.124 Q589.352 206.522 591.713 208.837 Q594.097 211.129 598.333 211.129 Q600.787 211.129 603.078 210.527 Q605.393 209.925 607.662 208.721 L607.662 212.749 Q605.37 213.721 602.963 214.231 Q600.555 214.74 598.078 214.74 Q591.875 214.74 588.24 211.129 Q584.629 207.518 584.629 201.36 Q584.629 194.995 588.055 191.268 Q591.504 187.518 597.338 187.518 Q602.569 187.518 605.601 190.897 Q608.657 194.254 608.657 200.041 M604.398 198.791 Q604.351 195.296 602.43 193.212 Q600.532 191.129 597.384 191.129 Q593.819 191.129 591.666 193.143 Q589.537 195.157 589.213 198.814 L604.398 198.791 Z" fill="#000000" fill-rule="nonzero" fill-opacity="1" /><path clip-path="url(#clip120)" d="M630.671 192.124 Q629.953 191.708 629.097 191.522 Q628.263 191.314 627.245 191.314 Q623.634 191.314 621.689 193.675 Q619.768 196.013 619.768 200.411 L619.768 214.069 L615.486 214.069 L615.486 188.143 L619.768 188.143 L619.768 192.171 Q621.111 189.809 623.263 188.675 Q625.416 187.518 628.495 187.518 Q628.935 187.518 629.467 187.587 Q630 187.634 630.648 187.749 L630.671 192.124 Z" fill="#000000" fill-rule="nonzero" fill-opacity="1" /><path clip-path="url(#clip120)" d="M654.837 210.133 L671.157 210.133 L671.157 214.069 L649.212 214.069 L649.212 210.133 Q651.874 207.379 656.458 202.749 Q661.064 198.096 662.245 196.754 Q664.49 194.231 665.37 192.495 Q666.272 190.735 666.272 189.046 Q666.272 186.291 664.328 184.555 Q662.407 182.819 659.305 182.819 Q657.106 182.819 654.652 183.583 Q652.222 184.347 649.444 185.897 L649.444 181.175 Q652.268 180.041 654.722 179.462 Q657.175 178.884 659.212 178.884 Q664.583 178.884 667.777 181.569 Q670.972 184.254 670.972 188.745 Q670.972 190.874 670.161 192.796 Q669.374 194.694 667.268 197.286 Q666.689 197.958 663.587 201.175 Q660.485 204.37 654.837 210.133 Z" fill="#000000" fill-rule="nonzero" fill-opacity="1" /></svg>
