<?xml version="1.0" encoding="utf-8"?>
<svg xmlns="http://www.w3.org/2000/svg" xmlns:xlink="http://www.w3.org/1999/xlink" width="600" height="400" viewBox="0 0 2400 1600">
<defs>
  <clipPath id="clip860">
    <rect x="0" y="0" width="2400" height="1600"/>
  </clipPath>
</defs>
<path clip-path="url(#clip860)" d="M0 1600 L2400 1600 L2400 0 L0 0  Z" fill="#ffffff" fill-rule="evenodd" fill-opacity="1"/>
<defs>
  <clipPath id="clip861">
    <rect x="480" y="0" width="1681" height="1600"/>
  </clipPath>
</defs>
<path clip-path="url(#clip860)" d="M112.177 1486.45 L2352.76 1486.45 L2352.76 47.2441 L112.177 47.2441  Z" fill="#ffffff" fill-rule="evenodd" fill-opacity="1"/>
<defs>
  <clipPath id="clip862">
    <rect x="112" y="47" width="2242" height="1440"/>
  </clipPath>
</defs>
<polyline clip-path="url(#clip862)" style="stroke:#000000; stroke-linecap:round; stroke-linejoin:round; stroke-width:2; stroke-opacity:0.1; fill:none" points="112.177,1486.45 2352.76,1486.45 "/>
<polyline clip-path="url(#clip862)" style="stroke:#000000; stroke-linecap:round; stroke-linejoin:round; stroke-width:2; stroke-opacity:0.1; fill:none" points="112.177,1089.15 2352.76,1089.15 "/>
<polyline clip-path="url(#clip862)" style="stroke:#000000; stroke-linecap:round; stroke-linejoin:round; stroke-width:2; stroke-opacity:0.1; fill:none" points="112.177,691.843 2352.76,691.843 "/>
<polyline clip-path="url(#clip862)" style="stroke:#000000; stroke-linecap:round; stroke-linejoin:round; stroke-width:2; stroke-opacity:0.1; fill:none" points="112.177,294.541 2352.76,294.541 "/>
<polyline clip-path="url(#clip860)" style="stroke:#000000; stroke-linecap:round; stroke-linejoin:round; stroke-width:4; stroke-opacity:1; fill:none" points="112.177,1486.45 2352.76,1486.45 "/>
<polyline clip-path="url(#clip860)" style="stroke:#ffffff; stroke-linecap:round; stroke-linejoin:round; stroke-width:4; stroke-opacity:1; fill:none" points="224.206,1486.45 224.206,1467.55 "/>
<polyline clip-path="url(#clip860)" style="stroke:#ffffff; stroke-linecap:round; stroke-linejoin:round; stroke-width:4; stroke-opacity:1; fill:none" points="448.264,1486.45 448.264,1467.55 "/>
<polyline clip-path="url(#clip860)" style="stroke:#ffffff; stroke-linecap:round; stroke-linejoin:round; stroke-width:4; stroke-opacity:1; fill:none" points="672.322,1486.45 672.322,1467.55 "/>
<polyline clip-path="url(#clip860)" style="stroke:#ffffff; stroke-linecap:round; stroke-linejoin:round; stroke-width:4; stroke-opacity:1; fill:none" points="896.38,1486.45 896.38,1467.55 "/>
<polyline clip-path="url(#clip860)" style="stroke:#ffffff; stroke-linecap:round; stroke-linejoin:round; stroke-width:4; stroke-opacity:1; fill:none" points="1120.44,1486.45 1120.44,1467.55 "/>
<polyline clip-path="url(#clip860)" style="stroke:#ffffff; stroke-linecap:round; stroke-linejoin:round; stroke-width:4; stroke-opacity:1; fill:none" points="1344.5,1486.45 1344.5,1467.55 "/>
<polyline clip-path="url(#clip860)" style="stroke:#ffffff; stroke-linecap:round; stroke-linejoin:round; stroke-width:4; stroke-opacity:1; fill:none" points="1568.55,1486.45 1568.55,1467.55 "/>
<polyline clip-path="url(#clip860)" style="stroke:#ffffff; stroke-linecap:round; stroke-linejoin:round; stroke-width:4; stroke-opacity:1; fill:none" points="1792.61,1486.45 1792.61,1467.55 "/>
<polyline clip-path="url(#clip860)" style="stroke:#ffffff; stroke-linecap:round; stroke-linejoin:round; stroke-width:4; stroke-opacity:1; fill:none" points="2016.67,1486.45 2016.67,1467.55 "/>
<polyline clip-path="url(#clip860)" style="stroke:#ffffff; stroke-linecap:round; stroke-linejoin:round; stroke-width:4; stroke-opacity:1; fill:none" points="2240.73,1486.45 2240.73,1467.55 "/>
<path clip-path="url(#clip860)" d="M214.507 1548.13 L214.507 1543.87 Q216.266 1544.7 218.072 1545.14 Q219.877 1545.58 221.614 1545.58 Q226.243 1545.58 228.674 1542.48 Q231.127 1539.36 231.475 1533.01 Q230.132 1535.01 228.072 1536.07 Q226.012 1537.13 223.512 1537.13 Q218.327 1537.13 215.294 1534.01 Q212.285 1530.86 212.285 1525.42 Q212.285 1520.1 215.433 1516.88 Q218.581 1513.66 223.813 1513.66 Q229.808 1513.66 232.956 1518.27 Q236.127 1522.85 236.127 1531.6 Q236.127 1539.77 232.238 1544.66 Q228.373 1549.52 221.822 1549.52 Q220.063 1549.52 218.257 1549.17 Q216.452 1548.82 214.507 1548.13 M223.813 1533.48 Q226.961 1533.48 228.789 1531.32 Q230.641 1529.17 230.641 1525.42 Q230.641 1521.7 228.789 1519.54 Q226.961 1517.37 223.813 1517.37 Q220.664 1517.37 218.813 1519.54 Q216.984 1521.7 216.984 1525.42 Q216.984 1529.17 218.813 1531.32 Q220.664 1533.48 223.813 1533.48 Z" fill="#000000" fill-rule="nonzero" fill-opacity="1" /><path clip-path="url(#clip860)" d="M422.952 1544.91 L430.59 1544.91 L430.59 1518.55 L422.28 1520.21 L422.28 1515.95 L430.544 1514.29 L435.22 1514.29 L435.22 1544.91 L442.859 1544.91 L442.859 1548.85 L422.952 1548.85 L422.952 1544.91 Z" fill="#000000" fill-rule="nonzero" fill-opacity="1" /><path clip-path="url(#clip860)" d="M462.303 1517.37 Q458.692 1517.37 456.863 1520.93 Q455.058 1524.47 455.058 1531.6 Q455.058 1538.71 456.863 1542.27 Q458.692 1545.82 462.303 1545.82 Q465.938 1545.82 467.743 1542.27 Q469.572 1538.71 469.572 1531.6 Q469.572 1524.47 467.743 1520.93 Q465.938 1517.37 462.303 1517.37 M462.303 1513.66 Q468.113 1513.66 471.169 1518.27 Q474.248 1522.85 474.248 1531.6 Q474.248 1540.33 471.169 1544.94 Q468.113 1549.52 462.303 1549.52 Q456.493 1549.52 453.414 1544.94 Q450.359 1540.33 450.359 1531.6 Q450.359 1522.85 453.414 1518.27 Q456.493 1513.66 462.303 1513.66 Z" fill="#000000" fill-rule="nonzero" fill-opacity="1" /><path clip-path="url(#clip860)" d="M666.975 1544.91 L683.294 1544.91 L683.294 1548.85 L661.35 1548.85 L661.35 1544.91 Q664.012 1542.16 668.595 1537.53 Q673.201 1532.88 674.382 1531.53 Q676.627 1529.01 677.507 1527.27 Q678.41 1525.51 678.41 1523.82 Q678.41 1521.07 676.465 1519.33 Q674.544 1517.6 671.442 1517.6 Q669.243 1517.6 666.789 1518.36 Q664.359 1519.13 661.581 1520.68 L661.581 1515.95 Q664.405 1514.82 666.859 1514.24 Q669.313 1513.66 671.35 1513.66 Q676.72 1513.66 679.914 1516.35 Q683.109 1519.03 683.109 1523.52 Q683.109 1525.65 682.299 1527.57 Q681.512 1529.47 679.405 1532.07 Q678.826 1532.74 675.725 1535.95 Q672.623 1539.15 666.975 1544.91 Z" fill="#000000" fill-rule="nonzero" fill-opacity="1" /><path clip-path="url(#clip860)" d="M900.627 1530.21 Q903.984 1530.93 905.859 1533.2 Q907.757 1535.47 907.757 1538.8 Q907.757 1543.92 904.238 1546.72 Q900.72 1549.52 894.239 1549.52 Q892.063 1549.52 889.748 1549.08 Q887.456 1548.66 885.002 1547.81 L885.002 1543.29 Q886.947 1544.43 889.262 1545.01 Q891.577 1545.58 894.1 1545.58 Q898.498 1545.58 900.789 1543.85 Q903.104 1542.11 903.104 1538.8 Q903.104 1535.75 900.951 1534.03 Q898.822 1532.3 895.002 1532.3 L890.975 1532.3 L890.975 1528.45 L895.188 1528.45 Q898.637 1528.45 900.465 1527.09 Q902.294 1525.7 902.294 1523.11 Q902.294 1520.45 900.396 1519.03 Q898.521 1517.6 895.002 1517.6 Q893.081 1517.6 890.882 1518.01 Q888.683 1518.43 886.044 1519.31 L886.044 1515.14 Q888.706 1514.4 891.021 1514.03 Q893.359 1513.66 895.419 1513.66 Q900.743 1513.66 903.845 1516.09 Q906.947 1518.5 906.947 1522.62 Q906.947 1525.49 905.303 1527.48 Q903.66 1529.45 900.627 1530.21 Z" fill="#000000" fill-rule="nonzero" fill-opacity="1" /><path clip-path="url(#clip860)" d="M1110.72 1514.29 L1129.07 1514.29 L1129.07 1518.22 L1115 1518.22 L1115 1526.7 Q1116.02 1526.35 1117.03 1526.19 Q1118.05 1526 1119.07 1526 Q1124.86 1526 1128.24 1529.17 Q1131.62 1532.34 1131.62 1537.76 Q1131.62 1543.34 1128.15 1546.44 Q1124.67 1549.52 1118.35 1549.52 Q1116.18 1549.52 1113.91 1549.15 Q1111.66 1548.78 1109.26 1548.04 L1109.26 1543.34 Q1111.34 1544.47 1113.56 1545.03 Q1115.78 1545.58 1118.26 1545.58 Q1122.27 1545.58 1124.6 1543.48 Q1126.94 1541.37 1126.94 1537.76 Q1126.94 1534.15 1124.6 1532.04 Q1122.27 1529.94 1118.26 1529.94 Q1116.39 1529.94 1114.51 1530.35 Q1112.66 1530.77 1110.72 1531.65 L1110.72 1514.29 Z" fill="#000000" fill-rule="nonzero" fill-opacity="1" /><path clip-path="url(#clip860)" d="M1334.88 1544.91 L1342.52 1544.91 L1342.52 1518.55 L1334.21 1520.21 L1334.21 1515.95 L1342.47 1514.29 L1347.15 1514.29 L1347.15 1544.91 L1354.78 1544.91 L1354.78 1548.85 L1334.88 1548.85 L1334.88 1544.91 Z" fill="#000000" fill-rule="nonzero" fill-opacity="1" /><path clip-path="url(#clip860)" d="M1571.56 1518.36 L1559.76 1536.81 L1571.56 1536.81 L1571.56 1518.36 M1570.34 1514.29 L1576.22 1514.29 L1576.22 1536.81 L1581.15 1536.81 L1581.15 1540.7 L1576.22 1540.7 L1576.22 1548.85 L1571.56 1548.85 L1571.56 1540.7 L1555.96 1540.7 L1555.96 1536.19 L1570.34 1514.29 Z" fill="#000000" fill-rule="nonzero" fill-opacity="1" /><path clip-path="url(#clip860)" d="M1792.61 1532.44 Q1789.28 1532.44 1787.36 1534.22 Q1785.46 1536 1785.46 1539.13 Q1785.46 1542.25 1787.36 1544.03 Q1789.28 1545.82 1792.61 1545.82 Q1795.94 1545.82 1797.87 1544.03 Q1799.79 1542.23 1799.79 1539.13 Q1799.79 1536 1797.87 1534.22 Q1795.97 1532.44 1792.61 1532.44 M1787.94 1530.45 Q1784.93 1529.7 1783.24 1527.64 Q1781.57 1525.58 1781.57 1522.62 Q1781.57 1518.48 1784.51 1516.07 Q1787.47 1513.66 1792.61 1513.66 Q1797.77 1513.66 1800.71 1516.07 Q1803.65 1518.48 1803.65 1522.62 Q1803.65 1525.58 1801.96 1527.64 Q1800.3 1529.7 1797.31 1530.45 Q1800.69 1531.23 1802.56 1533.52 Q1804.46 1535.82 1804.46 1539.13 Q1804.46 1544.15 1801.38 1546.83 Q1798.33 1549.52 1792.61 1549.52 Q1786.89 1549.52 1783.81 1546.83 Q1780.76 1544.15 1780.76 1539.13 Q1780.76 1535.82 1782.66 1533.52 Q1784.56 1531.23 1787.94 1530.45 M1786.22 1523.06 Q1786.22 1525.75 1787.89 1527.25 Q1789.58 1528.76 1792.61 1528.76 Q1795.62 1528.76 1797.31 1527.25 Q1799.02 1525.75 1799.02 1523.06 Q1799.02 1520.38 1797.31 1518.87 Q1795.62 1517.37 1792.61 1517.37 Q1789.58 1517.37 1787.89 1518.87 Q1786.22 1520.38 1786.22 1523.06 Z" fill="#000000" fill-rule="nonzero" fill-opacity="1" /><path clip-path="url(#clip860)" d="M2017.07 1529.7 Q2013.93 1529.7 2012.07 1531.86 Q2010.25 1534.01 2010.25 1537.76 Q2010.25 1541.49 2012.07 1543.66 Q2013.93 1545.82 2017.07 1545.82 Q2020.22 1545.82 2022.05 1543.66 Q2023.9 1541.49 2023.9 1537.76 Q2023.9 1534.01 2022.05 1531.86 Q2020.22 1529.7 2017.07 1529.7 M2026.36 1515.05 L2026.36 1519.31 Q2024.6 1518.48 2022.79 1518.04 Q2021.01 1517.6 2019.25 1517.6 Q2014.62 1517.6 2012.17 1520.72 Q2009.74 1523.85 2009.39 1530.17 Q2010.75 1528.15 2012.81 1527.09 Q2014.88 1526 2017.35 1526 Q2022.56 1526 2025.57 1529.17 Q2028.6 1532.32 2028.6 1537.76 Q2028.6 1543.08 2025.45 1546.3 Q2022.31 1549.52 2017.07 1549.52 Q2011.08 1549.52 2007.91 1544.94 Q2004.74 1540.33 2004.74 1531.6 Q2004.74 1523.41 2008.63 1518.55 Q2012.51 1513.66 2019.06 1513.66 Q2020.82 1513.66 2022.61 1514.01 Q2024.41 1514.36 2026.36 1515.05 Z" fill="#000000" fill-rule="nonzero" fill-opacity="1" /><path clip-path="url(#clip860)" d="M2229.62 1514.29 L2251.84 1514.29 L2251.84 1516.28 L2239.29 1548.85 L2234.41 1548.85 L2246.21 1518.22 L2229.62 1518.22 L2229.62 1514.29 Z" fill="#000000" fill-rule="nonzero" fill-opacity="1" /><polyline clip-path="url(#clip860)" style="stroke:#000000; stroke-linecap:round; stroke-linejoin:round; stroke-width:4; stroke-opacity:1; fill:none" points="112.177,1486.45 112.177,47.2441 "/>
<polyline clip-path="url(#clip860)" style="stroke:#000000; stroke-linecap:round; stroke-linejoin:round; stroke-width:4; stroke-opacity:1; fill:none" points="112.177,1486.45 131.075,1486.45 "/>
<polyline clip-path="url(#clip860)" style="stroke:#000000; stroke-linecap:round; stroke-linejoin:round; stroke-width:4; stroke-opacity:1; fill:none" points="112.177,1089.15 131.075,1089.15 "/>
<polyline clip-path="url(#clip860)" style="stroke:#000000; stroke-linecap:round; stroke-linejoin:round; stroke-width:4; stroke-opacity:1; fill:none" points="112.177,691.843 131.075,691.843 "/>
<polyline clip-path="url(#clip860)" style="stroke:#000000; stroke-linecap:round; stroke-linejoin:round; stroke-width:4; stroke-opacity:1; fill:none" points="112.177,294.541 131.075,294.541 "/>
<path clip-path="url(#clip860)" d="M64.2328 1472.25 Q60.6217 1472.25 58.793 1475.81 Q56.9875 1479.35 56.9875 1486.48 Q56.9875 1493.59 58.793 1497.15 Q60.6217 1500.7 64.2328 1500.7 Q67.867 1500.7 69.6726 1497.15 Q71.5013 1493.59 71.5013 1486.48 Q71.5013 1479.35 69.6726 1475.81 Q67.867 1472.25 64.2328 1472.25 M64.2328 1468.54 Q70.0429 1468.54 73.0985 1473.15 Q76.1772 1477.73 76.1772 1486.48 Q76.1772 1495.21 73.0985 1499.82 Q70.0429 1504.4 64.2328 1504.4 Q58.4226 1504.4 55.344 1499.82 Q52.2884 1495.21 52.2884 1486.48 Q52.2884 1477.73 55.344 1473.15 Q58.4226 1468.54 64.2328 1468.54 Z" fill="#000000" fill-rule="nonzero" fill-opacity="1" /><path clip-path="url(#clip860)" d="M59.8578 1102.49 L76.1772 1102.49 L76.1772 1106.43 L54.2328 1106.43 L54.2328 1102.49 Q56.8949 1099.74 61.4782 1095.11 Q66.0846 1090.45 67.2652 1089.11 Q69.5105 1086.59 70.3902 1084.85 Q71.2929 1083.09 71.2929 1081.4 Q71.2929 1078.65 69.3485 1076.91 Q67.4272 1075.18 64.3254 1075.18 Q62.1263 1075.18 59.6726 1075.94 Q57.2421 1076.7 54.4643 1078.25 L54.4643 1073.53 Q57.2884 1072.4 59.7421 1071.82 Q62.1958 1071.24 64.2328 1071.24 Q69.6031 1071.24 72.7976 1073.93 Q75.992 1076.61 75.992 1081.1 Q75.992 1083.23 75.1818 1085.15 Q74.3948 1087.05 72.2883 1089.64 Q71.7096 1090.31 68.6078 1093.53 Q65.5059 1096.73 59.8578 1102.49 Z" fill="#000000" fill-rule="nonzero" fill-opacity="1" /><path clip-path="url(#clip860)" d="M66.5939 678.637 L54.7884 697.086 L66.5939 697.086 L66.5939 678.637 M65.367 674.563 L71.2466 674.563 L71.2466 697.086 L76.1772 697.086 L76.1772 700.975 L71.2466 700.975 L71.2466 709.123 L66.5939 709.123 L66.5939 700.975 L50.9921 700.975 L50.9921 696.461 L65.367 674.563 Z" fill="#000000" fill-rule="nonzero" fill-opacity="1" /><path clip-path="url(#clip860)" d="M64.6495 292.678 Q61.5013 292.678 59.6495 294.831 Q57.8208 296.983 57.8208 300.733 Q57.8208 304.46 59.6495 306.636 Q61.5013 308.789 64.6495 308.789 Q67.7976 308.789 69.6263 306.636 Q71.4781 304.46 71.4781 300.733 Q71.4781 296.983 69.6263 294.831 Q67.7976 292.678 64.6495 292.678 M73.9318 278.025 L73.9318 282.284 Q72.1726 281.451 70.367 281.011 Q68.5846 280.571 66.8254 280.571 Q62.1958 280.571 59.7421 283.696 Q57.3115 286.821 56.9643 293.141 Q58.33 291.127 60.3902 290.062 Q62.4504 288.974 64.9272 288.974 Q70.1355 288.974 73.1448 292.145 Q76.1772 295.294 76.1772 300.733 Q76.1772 306.057 73.029 309.275 Q69.8809 312.492 64.6495 312.492 Q58.6541 312.492 55.4828 307.909 Q52.3116 303.303 52.3116 294.576 Q52.3116 286.382 56.2004 281.52 Q60.0893 276.636 66.6402 276.636 Q68.3994 276.636 70.1818 276.983 Q71.9874 277.331 73.9318 278.025 Z" fill="#000000" fill-rule="nonzero" fill-opacity="1" /><polyline clip-path="url(#clip862)" style="stroke:#000000; stroke-linecap:round; stroke-linejoin:round; stroke-width:4; stroke-opacity:1; fill:none" points="1344.5,1486.45 1344.5,1341.52 1568.55,1341.52 1568.55,1486.45 "/>
<polyline clip-path="url(#clip862)" style="stroke:#000000; stroke-linecap:round; stroke-linejoin:round; stroke-width:4; stroke-opacity:1; fill:none" points="224.206,1486.45 224.206,1340.56 448.264,1340.56 448.264,1486.45 "/>
<polyline clip-path="url(#clip862)" style="stroke:#000000; stroke-linecap:round; stroke-linejoin:round; stroke-width:4; stroke-opacity:1; fill:none" points="672.322,1486.45 672.322,1310.7 896.38,1310.7 896.38,1486.45 "/>
<polyline clip-path="url(#clip862)" style="stroke:#000000; stroke-linecap:round; stroke-linejoin:round; stroke-width:4; stroke-opacity:1; fill:none" points="1120.44,1486.45 1120.44,1213.16 1456.52,1213.16 1456.52,1341.52 "/>
<polyline clip-path="url(#clip862)" style="stroke:#000000; stroke-linecap:round; stroke-linejoin:round; stroke-width:4; stroke-opacity:1; fill:none" points="2016.67,1486.45 2016.67,1198.49 2240.73,1198.49 2240.73,1486.45 "/>
<polyline clip-path="url(#clip862)" style="stroke:#000000; stroke-linecap:round; stroke-linejoin:round; stroke-width:4; stroke-opacity:1; fill:none" points="784.351,1310.7 784.351,916.411 1288.48,916.411 1288.48,1213.16 "/>
<polyline clip-path="url(#clip862)" style="stroke:#000000; stroke-linecap:round; stroke-linejoin:round; stroke-width:4; stroke-opacity:1; fill:none" points="1792.61,1486.45 1792.61,875.014 2128.7,875.014 2128.7,1198.49 "/>
<polyline clip-path="url(#clip862)" style="stroke:#000000; stroke-linecap:round; stroke-linejoin:round; stroke-width:4; stroke-opacity:1; fill:none" points="1036.42,916.411 1036.42,533.188 1960.65,533.188 1960.65,875.014 "/>
<polyline clip-path="url(#clip862)" style="stroke:#000000; stroke-linecap:round; stroke-linejoin:round; stroke-width:4; stroke-opacity:1; fill:none" points="336.235,1340.56 336.235,47.2441 1498.54,47.2441 1498.54,533.188 "/>
</svg>
