<?xml version="1.0" encoding="utf-8"?>
<svg xmlns="http://www.w3.org/2000/svg" xmlns:xlink="http://www.w3.org/1999/xlink" width="600" height="400" viewBox="0 0 2400 1600">
<defs>
  <clipPath id="clip110">
    <rect x="0" y="0" width="2400" height="1600"/>
  </clipPath>
</defs>
<path clip-path="url(#clip110)" d="M0 1600 L2400 1600 L2400 0 L0 0  Z" fill="#ffffff" fill-rule="evenodd" fill-opacity="1"/>
<defs>
  <clipPath id="clip111">
    <rect x="480" y="0" width="1681" height="1600"/>
  </clipPath>
</defs>
<path clip-path="url(#clip110)" d="M247.459 1423.18 L2352.76 1423.18 L2352.76 47.2441 L247.459 47.2441  Z" fill="#ffffff" fill-rule="evenodd" fill-opacity="1"/>
<defs>
  <clipPath id="clip112">
    <rect x="247" y="47" width="2106" height="1377"/>
  </clipPath>
</defs>
<polyline clip-path="url(#clip112)" style="stroke:#000000; stroke-linecap:round; stroke-linejoin:round; stroke-width:2; stroke-opacity:0.1; fill:none" points="534.657,1423.18 534.657,47.2441 "/>
<polyline clip-path="url(#clip112)" style="stroke:#000000; stroke-linecap:round; stroke-linejoin:round; stroke-width:2; stroke-opacity:0.1; fill:none" points="996.668,1423.18 996.668,47.2441 "/>
<polyline clip-path="url(#clip112)" style="stroke:#000000; stroke-linecap:round; stroke-linejoin:round; stroke-width:2; stroke-opacity:0.1; fill:none" points="1458.68,1423.18 1458.68,47.2441 "/>
<polyline clip-path="url(#clip112)" style="stroke:#000000; stroke-linecap:round; stroke-linejoin:round; stroke-width:2; stroke-opacity:0.1; fill:none" points="1920.69,1423.18 1920.69,47.2441 "/>
<polyline clip-path="url(#clip112)" style="stroke:#000000; stroke-linecap:round; stroke-linejoin:round; stroke-width:2; stroke-opacity:0.1; fill:none" points="247.459,1272.69 2352.76,1272.69 "/>
<polyline clip-path="url(#clip112)" style="stroke:#000000; stroke-linecap:round; stroke-linejoin:round; stroke-width:2; stroke-opacity:0.1; fill:none" points="247.459,1093.53 2352.76,1093.53 "/>
<polyline clip-path="url(#clip112)" style="stroke:#000000; stroke-linecap:round; stroke-linejoin:round; stroke-width:2; stroke-opacity:0.1; fill:none" points="247.459,914.375 2352.76,914.375 "/>
<polyline clip-path="url(#clip112)" style="stroke:#000000; stroke-linecap:round; stroke-linejoin:round; stroke-width:2; stroke-opacity:0.1; fill:none" points="247.459,735.219 2352.76,735.219 "/>
<polyline clip-path="url(#clip112)" style="stroke:#000000; stroke-linecap:round; stroke-linejoin:round; stroke-width:2; stroke-opacity:0.1; fill:none" points="247.459,556.062 2352.76,556.062 "/>
<polyline clip-path="url(#clip112)" style="stroke:#000000; stroke-linecap:round; stroke-linejoin:round; stroke-width:2; stroke-opacity:0.1; fill:none" points="247.459,376.905 2352.76,376.905 "/>
<polyline clip-path="url(#clip112)" style="stroke:#000000; stroke-linecap:round; stroke-linejoin:round; stroke-width:2; stroke-opacity:0.1; fill:none" points="247.459,197.749 2352.76,197.749 "/>
<polyline clip-path="url(#clip110)" style="stroke:#000000; stroke-linecap:round; stroke-linejoin:round; stroke-width:4; stroke-opacity:1; fill:none" points="247.459,1423.18 2352.76,1423.18 "/>
<polyline clip-path="url(#clip110)" style="stroke:#000000; stroke-linecap:round; stroke-linejoin:round; stroke-width:4; stroke-opacity:1; fill:none" points="534.657,1423.18 534.657,1404.28 "/>
<polyline clip-path="url(#clip110)" style="stroke:#000000; stroke-linecap:round; stroke-linejoin:round; stroke-width:4; stroke-opacity:1; fill:none" points="996.668,1423.18 996.668,1404.28 "/>
<polyline clip-path="url(#clip110)" style="stroke:#000000; stroke-linecap:round; stroke-linejoin:round; stroke-width:4; stroke-opacity:1; fill:none" points="1458.68,1423.18 1458.68,1404.28 "/>
<polyline clip-path="url(#clip110)" style="stroke:#000000; stroke-linecap:round; stroke-linejoin:round; stroke-width:4; stroke-opacity:1; fill:none" points="1920.69,1423.18 1920.69,1404.28 "/>
<path clip-path="url(#clip110)" d="M529.309 1481.64 L545.629 1481.64 L545.629 1485.58 L523.684 1485.58 L523.684 1481.64 Q526.347 1478.89 530.93 1474.26 Q535.536 1469.61 536.717 1468.27 Q538.962 1465.74 539.842 1464.01 Q540.745 1462.25 540.745 1460.56 Q540.745 1457.8 538.8 1456.07 Q536.879 1454.33 533.777 1454.33 Q531.578 1454.33 529.124 1455.09 Q526.694 1455.86 523.916 1457.41 L523.916 1452.69 Q526.74 1451.55 529.194 1450.97 Q531.647 1450.39 533.684 1450.39 Q539.055 1450.39 542.249 1453.08 Q545.444 1455.77 545.444 1460.26 Q545.444 1462.39 544.633 1464.31 Q543.846 1466.2 541.74 1468.8 Q541.161 1469.47 538.059 1472.69 Q534.958 1475.88 529.309 1481.64 Z" fill="#000000" fill-rule="nonzero" fill-opacity="1" /><path clip-path="url(#clip110)" d="M999.677 1455.09 L987.872 1473.54 L999.677 1473.54 L999.677 1455.09 M998.45 1451.02 L1004.33 1451.02 L1004.33 1473.54 L1009.26 1473.54 L1009.26 1477.43 L1004.33 1477.43 L1004.33 1485.58 L999.677 1485.58 L999.677 1477.43 L984.075 1477.43 L984.075 1472.92 L998.45 1451.02 Z" fill="#000000" fill-rule="nonzero" fill-opacity="1" /><path clip-path="url(#clip110)" d="M1459.08 1466.44 Q1455.94 1466.44 1454.08 1468.59 Q1452.26 1470.74 1452.26 1474.49 Q1452.26 1478.22 1454.08 1480.39 Q1455.94 1482.55 1459.08 1482.55 Q1462.23 1482.55 1464.06 1480.39 Q1465.91 1478.22 1465.91 1474.49 Q1465.91 1470.74 1464.06 1468.59 Q1462.23 1466.44 1459.08 1466.44 M1468.37 1451.78 L1468.37 1456.04 Q1466.61 1455.21 1464.8 1454.77 Q1463.02 1454.33 1461.26 1454.33 Q1456.63 1454.33 1454.18 1457.45 Q1451.75 1460.58 1451.4 1466.9 Q1452.77 1464.89 1454.83 1463.82 Q1456.89 1462.73 1459.36 1462.73 Q1464.57 1462.73 1467.58 1465.9 Q1470.61 1469.05 1470.61 1474.49 Q1470.61 1479.82 1467.46 1483.03 Q1464.32 1486.25 1459.08 1486.25 Q1453.09 1486.25 1449.92 1481.67 Q1446.75 1477.06 1446.75 1468.33 Q1446.75 1460.14 1450.64 1455.28 Q1454.52 1450.39 1461.08 1450.39 Q1462.83 1450.39 1464.62 1450.74 Q1466.42 1451.09 1468.37 1451.78 Z" fill="#000000" fill-rule="nonzero" fill-opacity="1" /><path clip-path="url(#clip110)" d="M1920.69 1469.17 Q1917.36 1469.17 1915.44 1470.95 Q1913.54 1472.73 1913.54 1475.86 Q1913.54 1478.98 1915.44 1480.77 Q1917.36 1482.55 1920.69 1482.55 Q1924.02 1482.55 1925.95 1480.77 Q1927.87 1478.96 1927.87 1475.86 Q1927.87 1472.73 1925.95 1470.95 Q1924.05 1469.17 1920.69 1469.17 M1916.01 1467.18 Q1913.01 1466.44 1911.32 1464.38 Q1909.65 1462.32 1909.65 1459.35 Q1909.65 1455.21 1912.59 1452.8 Q1915.55 1450.39 1920.69 1450.39 Q1925.85 1450.39 1928.79 1452.8 Q1931.73 1455.21 1931.73 1459.35 Q1931.73 1462.32 1930.04 1464.38 Q1928.38 1466.44 1925.39 1467.18 Q1928.77 1467.96 1930.64 1470.26 Q1932.54 1472.55 1932.54 1475.86 Q1932.54 1480.88 1929.46 1483.57 Q1926.41 1486.25 1920.69 1486.25 Q1914.97 1486.25 1911.89 1483.57 Q1908.84 1480.88 1908.84 1475.86 Q1908.84 1472.55 1910.74 1470.26 Q1912.64 1467.96 1916.01 1467.18 M1914.3 1459.79 Q1914.3 1462.48 1915.97 1463.98 Q1917.66 1465.49 1920.69 1465.49 Q1923.7 1465.49 1925.39 1463.98 Q1927.1 1462.48 1927.1 1459.79 Q1927.1 1457.11 1925.39 1455.6 Q1923.7 1454.1 1920.69 1454.1 Q1917.66 1454.1 1915.97 1455.6 Q1914.3 1457.11 1914.3 1459.79 Z" fill="#000000" fill-rule="nonzero" fill-opacity="1" /><path clip-path="url(#clip110)" d="M1281.93 1520.52 L1288.84 1520.52 L1300.65 1538.19 L1312.52 1520.52 L1319.43 1520.52 L1304.15 1543.34 L1320.45 1568.04 L1313.54 1568.04 L1300.17 1547.83 L1286.71 1568.04 L1279.77 1568.04 L1296.73 1542.68 L1281.93 1520.52 Z" fill="#000000" fill-rule="nonzero" fill-opacity="1" /><polyline clip-path="url(#clip110)" style="stroke:#000000; stroke-linecap:round; stroke-linejoin:round; stroke-width:4; stroke-opacity:1; fill:none" points="247.459,1423.18 247.459,47.2441 "/>
<polyline clip-path="url(#clip110)" style="stroke:#000000; stroke-linecap:round; stroke-linejoin:round; stroke-width:4; stroke-opacity:1; fill:none" points="247.459,1272.69 266.356,1272.69 "/>
<polyline clip-path="url(#clip110)" style="stroke:#000000; stroke-linecap:round; stroke-linejoin:round; stroke-width:4; stroke-opacity:1; fill:none" points="247.459,1093.53 266.356,1093.53 "/>
<polyline clip-path="url(#clip110)" style="stroke:#000000; stroke-linecap:round; stroke-linejoin:round; stroke-width:4; stroke-opacity:1; fill:none" points="247.459,914.375 266.356,914.375 "/>
<polyline clip-path="url(#clip110)" style="stroke:#000000; stroke-linecap:round; stroke-linejoin:round; stroke-width:4; stroke-opacity:1; fill:none" points="247.459,735.219 266.356,735.219 "/>
<polyline clip-path="url(#clip110)" style="stroke:#000000; stroke-linecap:round; stroke-linejoin:round; stroke-width:4; stroke-opacity:1; fill:none" points="247.459,556.062 266.356,556.062 "/>
<polyline clip-path="url(#clip110)" style="stroke:#000000; stroke-linecap:round; stroke-linejoin:round; stroke-width:4; stroke-opacity:1; fill:none" points="247.459,376.905 266.356,376.905 "/>
<polyline clip-path="url(#clip110)" style="stroke:#000000; stroke-linecap:round; stroke-linejoin:round; stroke-width:4; stroke-opacity:1; fill:none" points="247.459,197.749 266.356,197.749 "/>
<path clip-path="url(#clip110)" d="M149.306 1286.03 L165.626 1286.03 L165.626 1289.97 L143.681 1289.97 L143.681 1286.03 Q146.343 1283.28 150.927 1278.65 Q155.533 1274 156.714 1272.65 Q158.959 1270.13 159.839 1268.39 Q160.741 1266.64 160.741 1264.95 Q160.741 1262.19 158.797 1260.46 Q156.876 1258.72 153.774 1258.72 Q151.575 1258.72 149.121 1259.48 Q146.691 1260.25 143.913 1261.8 L143.913 1257.08 Q146.737 1255.94 149.191 1255.36 Q151.644 1254.78 153.681 1254.78 Q159.052 1254.78 162.246 1257.47 Q165.44 1260.15 165.44 1264.64 Q165.44 1266.77 164.63 1268.7 Q163.843 1270.59 161.737 1273.19 Q161.158 1273.86 158.056 1277.08 Q154.954 1280.27 149.306 1286.03 Z" fill="#000000" fill-rule="nonzero" fill-opacity="1" /><path clip-path="url(#clip110)" d="M175.44 1284.09 L180.325 1284.09 L180.325 1289.97 L175.44 1289.97 L175.44 1284.09 Z" fill="#000000" fill-rule="nonzero" fill-opacity="1" /><path clip-path="url(#clip110)" d="M190.556 1255.41 L208.912 1255.41 L208.912 1259.34 L194.838 1259.34 L194.838 1267.82 Q195.857 1267.47 196.875 1267.31 Q197.894 1267.12 198.912 1267.12 Q204.699 1267.12 208.079 1270.29 Q211.459 1273.46 211.459 1278.88 Q211.459 1284.46 207.987 1287.56 Q204.514 1290.64 198.195 1290.64 Q196.019 1290.64 193.75 1290.27 Q191.505 1289.9 189.098 1289.16 L189.098 1284.46 Q191.181 1285.59 193.403 1286.15 Q195.625 1286.7 198.102 1286.7 Q202.107 1286.7 204.445 1284.6 Q206.783 1282.49 206.783 1278.88 Q206.783 1275.27 204.445 1273.16 Q202.107 1271.06 198.102 1271.06 Q196.227 1271.06 194.352 1271.47 Q192.5 1271.89 190.556 1272.77 L190.556 1255.41 Z" fill="#000000" fill-rule="nonzero" fill-opacity="1" /><path clip-path="url(#clip110)" d="M144.329 1076.25 L162.686 1076.25 L162.686 1080.19 L148.612 1080.19 L148.612 1088.66 Q149.63 1088.31 150.649 1088.15 Q151.667 1087.97 152.686 1087.97 Q158.473 1087.97 161.852 1091.14 Q165.232 1094.31 165.232 1099.72 Q165.232 1105.3 161.76 1108.4 Q158.288 1111.48 151.968 1111.48 Q149.792 1111.48 147.524 1111.11 Q145.279 1110.74 142.871 1110 L142.871 1105.3 Q144.954 1106.44 147.177 1106.99 Q149.399 1107.55 151.876 1107.55 Q155.88 1107.55 158.218 1105.44 Q160.556 1103.34 160.556 1099.72 Q160.556 1096.11 158.218 1094.01 Q155.88 1091.9 151.876 1091.9 Q150.001 1091.9 148.126 1092.32 Q146.274 1092.73 144.329 1093.61 L144.329 1076.25 Z" fill="#000000" fill-rule="nonzero" fill-opacity="1" /><path clip-path="url(#clip110)" d="M174.445 1104.93 L179.329 1104.93 L179.329 1110.81 L174.445 1110.81 L174.445 1104.93 Z" fill="#000000" fill-rule="nonzero" fill-opacity="1" /><path clip-path="url(#clip110)" d="M199.514 1079.33 Q195.903 1079.33 194.075 1082.9 Q192.269 1086.44 192.269 1093.57 Q192.269 1100.67 194.075 1104.24 Q195.903 1107.78 199.514 1107.78 Q203.149 1107.78 204.954 1104.24 Q206.783 1100.67 206.783 1093.57 Q206.783 1086.44 204.954 1082.9 Q203.149 1079.33 199.514 1079.33 M199.514 1075.63 Q205.324 1075.63 208.38 1080.23 Q211.459 1084.82 211.459 1093.57 Q211.459 1102.29 208.38 1106.9 Q205.324 1111.48 199.514 1111.48 Q193.704 1111.48 190.625 1106.9 Q187.57 1102.29 187.57 1093.57 Q187.57 1084.82 190.625 1080.23 Q193.704 1075.63 199.514 1075.63 Z" fill="#000000" fill-rule="nonzero" fill-opacity="1" /><path clip-path="url(#clip110)" d="M144.098 897.095 L166.32 897.095 L166.32 899.086 L153.774 931.655 L148.89 931.655 L160.695 901.031 L144.098 901.031 L144.098 897.095 Z" fill="#000000" fill-rule="nonzero" fill-opacity="1" /><path clip-path="url(#clip110)" d="M175.44 925.776 L180.325 925.776 L180.325 931.655 L175.44 931.655 L175.44 925.776 Z" fill="#000000" fill-rule="nonzero" fill-opacity="1" /><path clip-path="url(#clip110)" d="M190.556 897.095 L208.912 897.095 L208.912 901.031 L194.838 901.031 L194.838 909.503 Q195.857 909.156 196.875 908.993 Q197.894 908.808 198.912 908.808 Q204.699 908.808 208.079 911.98 Q211.459 915.151 211.459 920.568 Q211.459 926.146 207.987 929.248 Q204.514 932.327 198.195 932.327 Q196.019 932.327 193.75 931.956 Q191.505 931.586 189.098 930.845 L189.098 926.146 Q191.181 927.28 193.403 927.836 Q195.625 928.392 198.102 928.392 Q202.107 928.392 204.445 926.285 Q206.783 924.179 206.783 920.568 Q206.783 916.956 204.445 914.85 Q202.107 912.743 198.102 912.743 Q196.227 912.743 194.352 913.16 Q192.5 913.577 190.556 914.456 L190.556 897.095 Z" fill="#000000" fill-rule="nonzero" fill-opacity="1" /><path clip-path="url(#clip110)" d="M114.931 748.564 L122.57 748.564 L122.57 722.198 L114.26 723.865 L114.26 719.605 L122.524 717.939 L127.2 717.939 L127.2 748.564 L134.839 748.564 L134.839 752.499 L114.931 752.499 L114.931 748.564 Z" fill="#000000" fill-rule="nonzero" fill-opacity="1" /><path clip-path="url(#clip110)" d="M154.283 721.017 Q150.672 721.017 148.843 724.582 Q147.038 728.124 147.038 735.253 Q147.038 742.36 148.843 745.925 Q150.672 749.466 154.283 749.466 Q157.917 749.466 159.723 745.925 Q161.552 742.36 161.552 735.253 Q161.552 728.124 159.723 724.582 Q157.917 721.017 154.283 721.017 M154.283 717.314 Q160.093 717.314 163.149 721.92 Q166.227 726.503 166.227 735.253 Q166.227 743.98 163.149 748.587 Q160.093 753.17 154.283 753.17 Q148.473 753.17 145.394 748.587 Q142.339 743.98 142.339 735.253 Q142.339 726.503 145.394 721.92 Q148.473 717.314 154.283 717.314 Z" fill="#000000" fill-rule="nonzero" fill-opacity="1" /><path clip-path="url(#clip110)" d="M174.445 746.619 L179.329 746.619 L179.329 752.499 L174.445 752.499 L174.445 746.619 Z" fill="#000000" fill-rule="nonzero" fill-opacity="1" /><path clip-path="url(#clip110)" d="M199.514 721.017 Q195.903 721.017 194.075 724.582 Q192.269 728.124 192.269 735.253 Q192.269 742.36 194.075 745.925 Q195.903 749.466 199.514 749.466 Q203.149 749.466 204.954 745.925 Q206.783 742.36 206.783 735.253 Q206.783 728.124 204.954 724.582 Q203.149 721.017 199.514 721.017 M199.514 717.314 Q205.324 717.314 208.38 721.92 Q211.459 726.503 211.459 735.253 Q211.459 743.98 208.38 748.587 Q205.324 753.17 199.514 753.17 Q193.704 753.17 190.625 748.587 Q187.57 743.98 187.57 735.253 Q187.57 726.503 190.625 721.92 Q193.704 717.314 199.514 717.314 Z" fill="#000000" fill-rule="nonzero" fill-opacity="1" /><path clip-path="url(#clip110)" d="M115.927 569.407 L123.566 569.407 L123.566 543.041 L115.256 544.708 L115.256 540.449 L123.519 538.782 L128.195 538.782 L128.195 569.407 L135.834 569.407 L135.834 573.342 L115.927 573.342 L115.927 569.407 Z" fill="#000000" fill-rule="nonzero" fill-opacity="1" /><path clip-path="url(#clip110)" d="M149.306 569.407 L165.626 569.407 L165.626 573.342 L143.681 573.342 L143.681 569.407 Q146.343 566.652 150.927 562.023 Q155.533 557.37 156.714 556.027 Q158.959 553.504 159.839 551.768 Q160.741 550.009 160.741 548.319 Q160.741 545.564 158.797 543.828 Q156.876 542.092 153.774 542.092 Q151.575 542.092 149.121 542.856 Q146.691 543.62 143.913 545.171 L143.913 540.449 Q146.737 539.314 149.191 538.736 Q151.644 538.157 153.681 538.157 Q159.052 538.157 162.246 540.842 Q165.44 543.527 165.44 548.018 Q165.44 550.148 164.63 552.069 Q163.843 553.967 161.737 556.56 Q161.158 557.231 158.056 560.449 Q154.954 563.643 149.306 569.407 Z" fill="#000000" fill-rule="nonzero" fill-opacity="1" /><path clip-path="url(#clip110)" d="M175.44 567.462 L180.325 567.462 L180.325 573.342 L175.44 573.342 L175.44 567.462 Z" fill="#000000" fill-rule="nonzero" fill-opacity="1" /><path clip-path="url(#clip110)" d="M190.556 538.782 L208.912 538.782 L208.912 542.717 L194.838 542.717 L194.838 551.189 Q195.857 550.842 196.875 550.68 Q197.894 550.495 198.912 550.495 Q204.699 550.495 208.079 553.666 Q211.459 556.837 211.459 562.254 Q211.459 567.833 207.987 570.935 Q204.514 574.013 198.195 574.013 Q196.019 574.013 193.75 573.643 Q191.505 573.273 189.098 572.532 L189.098 567.833 Q191.181 568.967 193.403 569.523 Q195.625 570.078 198.102 570.078 Q202.107 570.078 204.445 567.972 Q206.783 565.865 206.783 562.254 Q206.783 558.643 204.445 556.537 Q202.107 554.43 198.102 554.43 Q196.227 554.43 194.352 554.847 Q192.5 555.263 190.556 556.143 L190.556 538.782 Z" fill="#000000" fill-rule="nonzero" fill-opacity="1" /><path clip-path="url(#clip110)" d="M114.931 390.25 L122.57 390.25 L122.57 363.885 L114.26 365.551 L114.26 361.292 L122.524 359.625 L127.2 359.625 L127.2 390.25 L134.839 390.25 L134.839 394.185 L114.931 394.185 L114.931 390.25 Z" fill="#000000" fill-rule="nonzero" fill-opacity="1" /><path clip-path="url(#clip110)" d="M144.329 359.625 L162.686 359.625 L162.686 363.56 L148.612 363.56 L148.612 372.033 Q149.63 371.685 150.649 371.523 Q151.667 371.338 152.686 371.338 Q158.473 371.338 161.852 374.51 Q165.232 377.681 165.232 383.097 Q165.232 388.676 161.76 391.778 Q158.288 394.857 151.968 394.857 Q149.792 394.857 147.524 394.486 Q145.279 394.116 142.871 393.375 L142.871 388.676 Q144.954 389.81 147.177 390.366 Q149.399 390.921 151.876 390.921 Q155.88 390.921 158.218 388.815 Q160.556 386.709 160.556 383.097 Q160.556 379.486 158.218 377.38 Q155.88 375.273 151.876 375.273 Q150.001 375.273 148.126 375.69 Q146.274 376.107 144.329 376.986 L144.329 359.625 Z" fill="#000000" fill-rule="nonzero" fill-opacity="1" /><path clip-path="url(#clip110)" d="M174.445 388.306 L179.329 388.306 L179.329 394.185 L174.445 394.185 L174.445 388.306 Z" fill="#000000" fill-rule="nonzero" fill-opacity="1" /><path clip-path="url(#clip110)" d="M199.514 362.704 Q195.903 362.704 194.075 366.269 Q192.269 369.81 192.269 376.94 Q192.269 384.046 194.075 387.611 Q195.903 391.153 199.514 391.153 Q203.149 391.153 204.954 387.611 Q206.783 384.046 206.783 376.94 Q206.783 369.81 204.954 366.269 Q203.149 362.704 199.514 362.704 M199.514 359 Q205.324 359 208.38 363.607 Q211.459 368.19 211.459 376.94 Q211.459 385.667 208.38 390.273 Q205.324 394.857 199.514 394.857 Q193.704 394.857 190.625 390.273 Q187.57 385.667 187.57 376.94 Q187.57 368.19 190.625 363.607 Q193.704 359 199.514 359 Z" fill="#000000" fill-rule="nonzero" fill-opacity="1" /><path clip-path="url(#clip110)" d="M115.927 211.093 L123.566 211.093 L123.566 184.728 L115.256 186.395 L115.256 182.135 L123.519 180.469 L128.195 180.469 L128.195 211.093 L135.834 211.093 L135.834 215.029 L115.927 215.029 L115.927 211.093 Z" fill="#000000" fill-rule="nonzero" fill-opacity="1" /><path clip-path="url(#clip110)" d="M144.098 180.469 L166.32 180.469 L166.32 182.459 L153.774 215.029 L148.89 215.029 L160.695 184.404 L144.098 184.404 L144.098 180.469 Z" fill="#000000" fill-rule="nonzero" fill-opacity="1" /><path clip-path="url(#clip110)" d="M175.44 209.149 L180.325 209.149 L180.325 215.029 L175.44 215.029 L175.44 209.149 Z" fill="#000000" fill-rule="nonzero" fill-opacity="1" /><path clip-path="url(#clip110)" d="M190.556 180.469 L208.912 180.469 L208.912 184.404 L194.838 184.404 L194.838 192.876 Q195.857 192.529 196.875 192.367 Q197.894 192.182 198.912 192.182 Q204.699 192.182 208.079 195.353 Q211.459 198.524 211.459 203.941 Q211.459 209.519 207.987 212.621 Q204.514 215.7 198.195 215.7 Q196.019 215.7 193.75 215.33 Q191.505 214.959 189.098 214.218 L189.098 209.519 Q191.181 210.654 193.403 211.209 Q195.625 211.765 198.102 211.765 Q202.107 211.765 204.445 209.658 Q206.783 207.552 206.783 203.941 Q206.783 200.33 204.445 198.223 Q202.107 196.117 198.102 196.117 Q196.227 196.117 194.352 196.533 Q192.5 196.95 190.556 197.83 L190.556 180.469 Z" fill="#000000" fill-rule="nonzero" fill-opacity="1" /><path clip-path="url(#clip110)" d="M16.4842 755.248 L16.4842 748.341 L36.0269 735.164 L16.4842 722.083 L16.4842 715.176 L41.3741 731.981 L64.0042 731.981 L64.0042 738.443 L41.3741 738.443 L16.4842 755.248 Z" fill="#000000" fill-rule="nonzero" fill-opacity="1" /><circle clip-path="url(#clip112)" cx="1839.44" cy="693.975" r="14.4" fill="#009af9" fill-rule="evenodd" fill-opacity="1" stroke="#000000" stroke-opacity="1" stroke-width="3.2"/>
<circle clip-path="url(#clip112)" cx="1780.57" cy="356.741" r="14.4" fill="#009af9" fill-rule="evenodd" fill-opacity="1" stroke="#000000" stroke-opacity="1" stroke-width="3.2"/>
<circle clip-path="url(#clip112)" cx="2293.17" cy="86.1857" r="14.4" fill="#009af9" fill-rule="evenodd" fill-opacity="1" stroke="#000000" stroke-opacity="1" stroke-width="3.2"/>
<circle clip-path="url(#clip112)" cx="1468.85" cy="212.384" r="14.4" fill="#009af9" fill-rule="evenodd" fill-opacity="1" stroke="#000000" stroke-opacity="1" stroke-width="3.2"/>
<circle clip-path="url(#clip112)" cx="530.526" cy="1140.46" r="14.4" fill="#e26f46" fill-rule="evenodd" fill-opacity="1" stroke="#000000" stroke-opacity="1" stroke-width="3.2"/>
<circle clip-path="url(#clip112)" cx="501.883" cy="1261.74" r="14.4" fill="#e26f46" fill-rule="evenodd" fill-opacity="1" stroke="#000000" stroke-opacity="1" stroke-width="3.2"/>
<circle clip-path="url(#clip112)" cx="307.043" cy="1358.91" r="14.4" fill="#e26f46" fill-rule="evenodd" fill-opacity="1" stroke="#000000" stroke-opacity="1" stroke-width="3.2"/>
<circle clip-path="url(#clip112)" cx="328.455" cy="1384.24" r="14.4" fill="#e26f46" fill-rule="evenodd" fill-opacity="1" stroke="#000000" stroke-opacity="1" stroke-width="3.2"/>
<circle clip-path="url(#clip112)" cx="495.054" cy="1135.37" r="14.4" fill="#e26f46" fill-rule="evenodd" fill-opacity="1" stroke="#000000" stroke-opacity="1" stroke-width="3.2"/>
<circle clip-path="url(#clip112)" cx="1716.82" cy="975.671" r="14.4" fill="#e26f46" fill-rule="evenodd" fill-opacity="1" stroke="#000000" stroke-opacity="1" stroke-width="3.2"/>
<circle clip-path="url(#clip112)" cx="1845.51" cy="337.321" r="14.4" fill="#3da44d" fill-rule="evenodd" fill-opacity="1" stroke="#000000" stroke-opacity="1" stroke-width="3.2"/>
<circle clip-path="url(#clip112)" cx="646.631" cy="1209.4" r="14.4" fill="#3da44d" fill-rule="evenodd" fill-opacity="1" stroke="#000000" stroke-opacity="1" stroke-width="3.2"/>
<path clip-path="url(#clip110)" d="M317.635 300.469 L749.506 300.469 L749.506 93.1086 L317.635 93.1086  Z" fill="#ffffff" fill-rule="evenodd" fill-opacity="1"/>
<polyline clip-path="url(#clip110)" style="stroke:#000000; stroke-linecap:round; stroke-linejoin:round; stroke-width:4; stroke-opacity:1; fill:none" points="317.635,300.469 749.506,300.469 749.506,93.1086 317.635,93.1086 317.635,300.469 "/>
<circle clip-path="url(#clip110)" cx="411.204" cy="144.949" r="20.48" fill="#009af9" fill-rule="evenodd" fill-opacity="1" stroke="#000000" stroke-opacity="1" stroke-width="4.55111"/>
<path clip-path="url(#clip110)" d="M505.444 158.293 L513.083 158.293 L513.083 131.928 L504.773 133.595 L504.773 129.335 L513.037 127.669 L517.713 127.669 L517.713 158.293 L525.351 158.293 L525.351 162.229 L505.444 162.229 L505.444 158.293 Z" fill="#000000" fill-rule="nonzero" fill-opacity="1" /><circle clip-path="url(#clip110)" cx="411.204" cy="196.789" r="20.48" fill="#e26f46" fill-rule="evenodd" fill-opacity="1" stroke="#000000" stroke-opacity="1" stroke-width="4.55111"/>
<path clip-path="url(#clip110)" d="M510.398 210.133 L526.717 210.133 L526.717 214.069 L504.773 214.069 L504.773 210.133 Q507.435 207.379 512.018 202.749 Q516.625 198.096 517.805 196.754 Q520.051 194.231 520.93 192.495 Q521.833 190.735 521.833 189.046 Q521.833 186.291 519.888 184.555 Q517.967 182.819 514.865 182.819 Q512.666 182.819 510.213 183.583 Q507.782 184.347 505.004 185.897 L505.004 181.175 Q507.828 180.041 510.282 179.462 Q512.736 178.884 514.773 178.884 Q520.143 178.884 523.338 181.569 Q526.532 184.254 526.532 188.745 Q526.532 190.874 525.722 192.796 Q524.935 194.694 522.828 197.286 Q522.25 197.958 519.148 201.175 Q516.046 204.37 510.398 210.133 Z" fill="#000000" fill-rule="nonzero" fill-opacity="1" /><circle clip-path="url(#clip110)" cx="411.204" cy="248.629" r="20.48" fill="#3da44d" fill-rule="evenodd" fill-opacity="1" stroke="#000000" stroke-opacity="1" stroke-width="4.55111"/>
<path clip-path="url(#clip110)" d="M532.643 234.011 L532.643 238.941 Q530.282 236.742 527.597 235.654 Q524.935 234.566 521.925 234.566 Q516 234.566 512.851 238.2 Q509.703 241.812 509.703 248.663 Q509.703 255.492 512.851 259.126 Q516 262.737 521.925 262.737 Q524.935 262.737 527.597 261.649 Q530.282 260.561 532.643 258.362 L532.643 263.247 Q530.189 264.913 527.435 265.747 Q524.703 266.58 521.648 266.58 Q513.801 266.58 509.287 261.788 Q504.773 256.973 504.773 248.663 Q504.773 240.33 509.287 235.538 Q513.801 230.724 521.648 230.724 Q524.75 230.724 527.481 231.557 Q530.236 232.367 532.643 234.011 Z" fill="#000000" fill-rule="nonzero" fill-opacity="1" /><path clip-path="url(#clip110)" d="M561.856 251.881 L561.856 253.964 L542.273 253.964 Q542.55 258.362 544.911 260.677 Q547.296 262.969 551.532 262.969 Q553.986 262.969 556.277 262.367 Q558.592 261.765 560.86 260.561 L560.86 264.589 Q558.569 265.561 556.161 266.071 Q553.754 266.58 551.277 266.58 Q545.074 266.58 541.439 262.969 Q537.828 259.358 537.828 253.2 Q537.828 246.835 541.254 243.108 Q544.703 239.358 550.536 239.358 Q555.768 239.358 558.8 242.737 Q561.856 246.094 561.856 251.881 M557.597 250.631 Q557.55 247.136 555.629 245.052 Q553.731 242.969 550.583 242.969 Q547.018 242.969 544.865 244.983 Q542.736 246.997 542.411 250.654 L557.597 250.631 Z" fill="#000000" fill-rule="nonzero" fill-opacity="1" /><path clip-path="url(#clip110)" d="M590.397 250.261 L590.397 265.909 L586.138 265.909 L586.138 250.399 Q586.138 246.719 584.703 244.89 Q583.268 243.062 580.397 243.062 Q576.948 243.062 574.958 245.261 Q572.967 247.46 572.967 251.256 L572.967 265.909 L568.685 265.909 L568.685 239.983 L572.967 239.983 L572.967 244.011 Q574.495 241.673 576.555 240.515 Q578.638 239.358 581.346 239.358 Q585.814 239.358 588.106 242.136 Q590.397 244.89 590.397 250.261 Z" fill="#000000" fill-rule="nonzero" fill-opacity="1" /><path clip-path="url(#clip110)" d="M603.106 232.622 L603.106 239.983 L611.879 239.983 L611.879 243.293 L603.106 243.293 L603.106 257.367 Q603.106 260.538 603.962 261.441 Q604.842 262.344 607.504 262.344 L611.879 262.344 L611.879 265.909 L607.504 265.909 Q602.573 265.909 600.698 264.08 Q598.823 262.228 598.823 257.367 L598.823 243.293 L595.698 243.293 L595.698 239.983 L598.823 239.983 L598.823 232.622 L603.106 232.622 Z" fill="#000000" fill-rule="nonzero" fill-opacity="1" /><path clip-path="url(#clip110)" d="M632.504 243.964 Q631.786 243.548 630.93 243.362 Q630.096 243.154 629.078 243.154 Q625.467 243.154 623.522 245.515 Q621.601 247.853 621.601 252.251 L621.601 265.909 L617.319 265.909 L617.319 239.983 L621.601 239.983 L621.601 244.011 Q622.943 241.649 625.096 240.515 Q627.249 239.358 630.328 239.358 Q630.768 239.358 631.3 239.427 Q631.832 239.474 632.48 239.589 L632.504 243.964 Z" fill="#000000" fill-rule="nonzero" fill-opacity="1" /><path clip-path="url(#clip110)" d="M645.976 242.969 Q642.55 242.969 640.559 245.654 Q638.568 248.316 638.568 252.969 Q638.568 257.622 640.536 260.307 Q642.527 262.969 645.976 262.969 Q649.379 262.969 651.369 260.284 Q653.36 257.598 653.36 252.969 Q653.36 248.362 651.369 245.677 Q649.379 242.969 645.976 242.969 M645.976 239.358 Q651.531 239.358 654.703 242.969 Q657.874 246.58 657.874 252.969 Q657.874 259.335 654.703 262.969 Q651.531 266.58 645.976 266.58 Q640.397 266.58 637.226 262.969 Q634.078 259.335 634.078 252.969 Q634.078 246.58 637.226 242.969 Q640.397 239.358 645.976 239.358 Z" fill="#000000" fill-rule="nonzero" fill-opacity="1" /><path clip-path="url(#clip110)" d="M664.934 239.983 L669.193 239.983 L669.193 265.909 L664.934 265.909 L664.934 239.983 M664.934 229.89 L669.193 229.89 L669.193 235.284 L664.934 235.284 L664.934 229.89 Z" fill="#000000" fill-rule="nonzero" fill-opacity="1" /><path clip-path="url(#clip110)" d="M695.165 243.918 L695.165 229.89 L699.425 229.89 L699.425 265.909 L695.165 265.909 L695.165 262.02 Q693.823 264.335 691.763 265.469 Q689.726 266.58 686.855 266.58 Q682.156 266.58 679.193 262.83 Q676.253 259.08 676.253 252.969 Q676.253 246.858 679.193 243.108 Q682.156 239.358 686.855 239.358 Q689.726 239.358 691.763 240.492 Q693.823 241.603 695.165 243.918 M680.651 252.969 Q680.651 257.668 682.573 260.353 Q684.517 263.015 687.897 263.015 Q691.276 263.015 693.221 260.353 Q695.165 257.668 695.165 252.969 Q695.165 248.27 693.221 245.608 Q691.276 242.923 687.897 242.923 Q684.517 242.923 682.573 245.608 Q680.651 248.27 680.651 252.969 Z" fill="#000000" fill-rule="nonzero" fill-opacity="1" /><path clip-path="url(#clip110)" d="M724.725 240.747 L724.725 244.774 Q722.92 243.849 720.975 243.386 Q719.031 242.923 716.948 242.923 Q713.776 242.923 712.179 243.895 Q710.605 244.867 710.605 246.811 Q710.605 248.293 711.739 249.149 Q712.874 249.983 716.299 250.747 L717.758 251.071 Q722.295 252.043 724.193 253.825 Q726.114 255.585 726.114 258.756 Q726.114 262.367 723.244 264.473 Q720.397 266.58 715.397 266.58 Q713.313 266.58 711.045 266.163 Q708.799 265.77 706.3 264.96 L706.3 260.561 Q708.661 261.788 710.952 262.413 Q713.244 263.015 715.489 263.015 Q718.499 263.015 720.119 261.997 Q721.739 260.955 721.739 259.08 Q721.739 257.344 720.559 256.418 Q719.401 255.492 715.443 254.636 L713.962 254.288 Q710.003 253.455 708.244 251.742 Q706.485 250.006 706.485 246.997 Q706.485 243.339 709.077 241.349 Q711.67 239.358 716.438 239.358 Q718.799 239.358 720.883 239.705 Q722.966 240.052 724.725 240.747 Z" fill="#000000" fill-rule="nonzero" fill-opacity="1" /></svg>
