<?xml version="1.0" encoding="utf-8"?>
<svg xmlns="http://www.w3.org/2000/svg" xmlns:xlink="http://www.w3.org/1999/xlink" width="600" height="400" viewBox="0 0 2400 1600">
<defs>
  <clipPath id="clip150">
    <rect x="0" y="0" width="2400" height="1600"/>
  </clipPath>
</defs>
<path clip-path="url(#clip150)" d="M0 1600 L2400 1600 L2400 0 L0 0  Z" fill="#ffffff" fill-rule="evenodd" fill-opacity="1"/>
<defs>
  <clipPath id="clip151">
    <rect x="480" y="0" width="1681" height="1600"/>
  </clipPath>
</defs>
<path clip-path="url(#clip150)" d="M247.459 1423.18 L2352.76 1423.18 L2352.76 47.2441 L247.459 47.2441  Z" fill="#ffffff" fill-rule="evenodd" fill-opacity="1"/>
<defs>
  <clipPath id="clip152">
    <rect x="247" y="47" width="2106" height="1377"/>
  </clipPath>
</defs>
<polyline clip-path="url(#clip152)" style="stroke:#000000; stroke-linecap:round; stroke-linejoin:round; stroke-width:2; stroke-opacity:0.1; fill:none" points="471.78,1423.18 471.78,47.2441 "/>
<polyline clip-path="url(#clip152)" style="stroke:#000000; stroke-linecap:round; stroke-linejoin:round; stroke-width:2; stroke-opacity:0.1; fill:none" points="960.272,1423.18 960.272,47.2441 "/>
<polyline clip-path="url(#clip152)" style="stroke:#000000; stroke-linecap:round; stroke-linejoin:round; stroke-width:2; stroke-opacity:0.1; fill:none" points="1448.76,1423.18 1448.76,47.2441 "/>
<polyline clip-path="url(#clip152)" style="stroke:#000000; stroke-linecap:round; stroke-linejoin:round; stroke-width:2; stroke-opacity:0.1; fill:none" points="1937.26,1423.18 1937.26,47.2441 "/>
<polyline clip-path="url(#clip152)" style="stroke:#000000; stroke-linecap:round; stroke-linejoin:round; stroke-width:2; stroke-opacity:0.1; fill:none" points="247.459,1176.06 2352.76,1176.06 "/>
<polyline clip-path="url(#clip152)" style="stroke:#000000; stroke-linecap:round; stroke-linejoin:round; stroke-width:2; stroke-opacity:0.1; fill:none" points="247.459,919.111 2352.76,919.111 "/>
<polyline clip-path="url(#clip152)" style="stroke:#000000; stroke-linecap:round; stroke-linejoin:round; stroke-width:2; stroke-opacity:0.1; fill:none" points="247.459,662.165 2352.76,662.165 "/>
<polyline clip-path="url(#clip152)" style="stroke:#000000; stroke-linecap:round; stroke-linejoin:round; stroke-width:2; stroke-opacity:0.1; fill:none" points="247.459,405.218 2352.76,405.218 "/>
<polyline clip-path="url(#clip152)" style="stroke:#000000; stroke-linecap:round; stroke-linejoin:round; stroke-width:2; stroke-opacity:0.1; fill:none" points="247.459,148.271 2352.76,148.271 "/>
<polyline clip-path="url(#clip150)" style="stroke:#000000; stroke-linecap:round; stroke-linejoin:round; stroke-width:4; stroke-opacity:1; fill:none" points="247.459,1423.18 2352.76,1423.18 "/>
<polyline clip-path="url(#clip150)" style="stroke:#000000; stroke-linecap:round; stroke-linejoin:round; stroke-width:4; stroke-opacity:1; fill:none" points="471.78,1423.18 471.78,1404.28 "/>
<polyline clip-path="url(#clip150)" style="stroke:#000000; stroke-linecap:round; stroke-linejoin:round; stroke-width:4; stroke-opacity:1; fill:none" points="960.272,1423.18 960.272,1404.28 "/>
<polyline clip-path="url(#clip150)" style="stroke:#000000; stroke-linecap:round; stroke-linejoin:round; stroke-width:4; stroke-opacity:1; fill:none" points="1448.76,1423.18 1448.76,1404.28 "/>
<polyline clip-path="url(#clip150)" style="stroke:#000000; stroke-linecap:round; stroke-linejoin:round; stroke-width:4; stroke-opacity:1; fill:none" points="1937.26,1423.18 1937.26,1404.28 "/>
<path clip-path="url(#clip150)" d="M466.433 1481.64 L482.752 1481.64 L482.752 1485.58 L460.808 1485.58 L460.808 1481.64 Q463.47 1478.89 468.053 1474.26 Q472.659 1469.61 473.84 1468.27 Q476.085 1465.74 476.965 1464.01 Q477.868 1462.25 477.868 1460.56 Q477.868 1457.8 475.923 1456.07 Q474.002 1454.33 470.9 1454.33 Q468.701 1454.33 466.247 1455.09 Q463.817 1455.86 461.039 1457.41 L461.039 1452.69 Q463.863 1451.55 466.317 1450.97 Q468.771 1450.39 470.808 1450.39 Q476.178 1450.39 479.372 1453.08 Q482.567 1455.77 482.567 1460.26 Q482.567 1462.39 481.757 1464.31 Q480.97 1466.2 478.863 1468.8 Q478.284 1469.47 475.183 1472.69 Q472.081 1475.88 466.433 1481.64 Z" fill="#000000" fill-rule="nonzero" fill-opacity="1" /><path clip-path="url(#clip150)" d="M963.281 1455.09 L951.476 1473.54 L963.281 1473.54 L963.281 1455.09 M962.054 1451.02 L967.934 1451.02 L967.934 1473.54 L972.865 1473.54 L972.865 1477.43 L967.934 1477.43 L967.934 1485.58 L963.281 1485.58 L963.281 1477.43 L947.679 1477.43 L947.679 1472.92 L962.054 1451.02 Z" fill="#000000" fill-rule="nonzero" fill-opacity="1" /><path clip-path="url(#clip150)" d="M1449.17 1466.44 Q1446.02 1466.44 1444.17 1468.59 Q1442.34 1470.74 1442.34 1474.49 Q1442.34 1478.22 1444.17 1480.39 Q1446.02 1482.55 1449.17 1482.55 Q1452.32 1482.55 1454.15 1480.39 Q1456 1478.22 1456 1474.49 Q1456 1470.74 1454.15 1468.59 Q1452.32 1466.44 1449.17 1466.44 M1458.45 1451.78 L1458.45 1456.04 Q1456.69 1455.21 1454.89 1454.77 Q1453.1 1454.33 1451.35 1454.33 Q1446.72 1454.33 1444.26 1457.45 Q1441.83 1460.58 1441.48 1466.9 Q1442.85 1464.89 1444.91 1463.82 Q1446.97 1462.73 1449.45 1462.73 Q1454.66 1462.73 1457.66 1465.9 Q1460.7 1469.05 1460.7 1474.49 Q1460.7 1479.82 1457.55 1483.03 Q1454.4 1486.25 1449.17 1486.25 Q1443.17 1486.25 1440 1481.67 Q1436.83 1477.06 1436.83 1468.33 Q1436.83 1460.14 1440.72 1455.28 Q1444.61 1450.39 1451.16 1450.39 Q1452.92 1450.39 1454.7 1450.74 Q1456.51 1451.09 1458.45 1451.78 Z" fill="#000000" fill-rule="nonzero" fill-opacity="1" /><path clip-path="url(#clip150)" d="M1937.26 1469.17 Q1933.92 1469.17 1932 1470.95 Q1930.1 1472.73 1930.1 1475.86 Q1930.1 1478.98 1932 1480.77 Q1933.92 1482.55 1937.26 1482.55 Q1940.59 1482.55 1942.51 1480.77 Q1944.43 1478.96 1944.43 1475.86 Q1944.43 1472.73 1942.51 1470.95 Q1940.61 1469.17 1937.26 1469.17 M1932.58 1467.18 Q1929.57 1466.44 1927.88 1464.38 Q1926.21 1462.32 1926.21 1459.35 Q1926.21 1455.21 1929.15 1452.8 Q1932.12 1450.39 1937.26 1450.39 Q1942.42 1450.39 1945.36 1452.8 Q1948.3 1455.21 1948.3 1459.35 Q1948.3 1462.32 1946.61 1464.38 Q1944.94 1466.44 1941.96 1467.18 Q1945.34 1467.96 1947.21 1470.26 Q1949.11 1472.55 1949.11 1475.86 Q1949.11 1480.88 1946.03 1483.57 Q1942.97 1486.25 1937.26 1486.25 Q1931.54 1486.25 1928.46 1483.57 Q1925.4 1480.88 1925.4 1475.86 Q1925.4 1472.55 1927.3 1470.26 Q1929.2 1467.96 1932.58 1467.18 M1930.87 1459.79 Q1930.87 1462.48 1932.53 1463.98 Q1934.22 1465.49 1937.26 1465.49 Q1940.27 1465.49 1941.96 1463.98 Q1943.67 1462.48 1943.67 1459.79 Q1943.67 1457.11 1941.96 1455.6 Q1940.27 1454.1 1937.26 1454.1 Q1934.22 1454.1 1932.53 1455.6 Q1930.87 1457.11 1930.87 1459.79 Z" fill="#000000" fill-rule="nonzero" fill-opacity="1" /><path clip-path="url(#clip150)" d="M1281.93 1520.52 L1288.84 1520.52 L1300.65 1538.19 L1312.52 1520.52 L1319.43 1520.52 L1304.15 1543.34 L1320.45 1568.04 L1313.54 1568.04 L1300.17 1547.83 L1286.71 1568.04 L1279.77 1568.04 L1296.73 1542.68 L1281.93 1520.52 Z" fill="#000000" fill-rule="nonzero" fill-opacity="1" /><polyline clip-path="url(#clip150)" style="stroke:#000000; stroke-linecap:round; stroke-linejoin:round; stroke-width:4; stroke-opacity:1; fill:none" points="247.459,1423.18 247.459,47.2441 "/>
<polyline clip-path="url(#clip150)" style="stroke:#000000; stroke-linecap:round; stroke-linejoin:round; stroke-width:4; stroke-opacity:1; fill:none" points="247.459,1176.06 266.356,1176.06 "/>
<polyline clip-path="url(#clip150)" style="stroke:#000000; stroke-linecap:round; stroke-linejoin:round; stroke-width:4; stroke-opacity:1; fill:none" points="247.459,919.111 266.356,919.111 "/>
<polyline clip-path="url(#clip150)" style="stroke:#000000; stroke-linecap:round; stroke-linejoin:round; stroke-width:4; stroke-opacity:1; fill:none" points="247.459,662.165 266.356,662.165 "/>
<polyline clip-path="url(#clip150)" style="stroke:#000000; stroke-linecap:round; stroke-linejoin:round; stroke-width:4; stroke-opacity:1; fill:none" points="247.459,405.218 266.356,405.218 "/>
<polyline clip-path="url(#clip150)" style="stroke:#000000; stroke-linecap:round; stroke-linejoin:round; stroke-width:4; stroke-opacity:1; fill:none" points="247.459,148.271 266.356,148.271 "/>
<path clip-path="url(#clip150)" d="M149.306 1189.4 L165.626 1189.4 L165.626 1193.34 L143.681 1193.34 L143.681 1189.4 Q146.343 1186.65 150.927 1182.02 Q155.533 1177.37 156.714 1176.02 Q158.959 1173.5 159.839 1171.76 Q160.741 1170 160.741 1168.32 Q160.741 1165.56 158.797 1163.82 Q156.876 1162.09 153.774 1162.09 Q151.575 1162.09 149.121 1162.85 Q146.691 1163.62 143.913 1165.17 L143.913 1160.44 Q146.737 1159.31 149.191 1158.73 Q151.644 1158.15 153.681 1158.15 Q159.052 1158.15 162.246 1160.84 Q165.44 1163.52 165.44 1168.01 Q165.44 1170.14 164.63 1172.07 Q163.843 1173.96 161.737 1176.56 Q161.158 1177.23 158.056 1180.44 Q154.954 1183.64 149.306 1189.4 Z" fill="#000000" fill-rule="nonzero" fill-opacity="1" /><path clip-path="url(#clip150)" d="M175.44 1187.46 L180.325 1187.46 L180.325 1193.34 L175.44 1193.34 L175.44 1187.46 Z" fill="#000000" fill-rule="nonzero" fill-opacity="1" /><path clip-path="url(#clip150)" d="M190.556 1158.78 L208.912 1158.78 L208.912 1162.71 L194.838 1162.71 L194.838 1171.19 Q195.857 1170.84 196.875 1170.68 Q197.894 1170.49 198.912 1170.49 Q204.699 1170.49 208.079 1173.66 Q211.459 1176.83 211.459 1182.25 Q211.459 1187.83 207.987 1190.93 Q204.514 1194.01 198.195 1194.01 Q196.019 1194.01 193.75 1193.64 Q191.505 1193.27 189.098 1192.53 L189.098 1187.83 Q191.181 1188.96 193.403 1189.52 Q195.625 1190.07 198.102 1190.07 Q202.107 1190.07 204.445 1187.97 Q206.783 1185.86 206.783 1182.25 Q206.783 1178.64 204.445 1176.53 Q202.107 1174.43 198.102 1174.43 Q196.227 1174.43 194.352 1174.84 Q192.5 1175.26 190.556 1176.14 L190.556 1158.78 Z" fill="#000000" fill-rule="nonzero" fill-opacity="1" /><path clip-path="url(#clip150)" d="M144.329 901.831 L162.686 901.831 L162.686 905.767 L148.612 905.767 L148.612 914.239 Q149.63 913.892 150.649 913.73 Q151.667 913.544 152.686 913.544 Q158.473 913.544 161.852 916.716 Q165.232 919.887 165.232 925.304 Q165.232 930.882 161.76 933.984 Q158.288 937.063 151.968 937.063 Q149.792 937.063 147.524 936.692 Q145.279 936.322 142.871 935.581 L142.871 930.882 Q144.954 932.017 147.177 932.572 Q149.399 933.128 151.876 933.128 Q155.88 933.128 158.218 931.021 Q160.556 928.915 160.556 925.304 Q160.556 921.692 158.218 919.586 Q155.88 917.48 151.876 917.48 Q150.001 917.48 148.126 917.896 Q146.274 918.313 144.329 919.193 L144.329 901.831 Z" fill="#000000" fill-rule="nonzero" fill-opacity="1" /><path clip-path="url(#clip150)" d="M174.445 930.512 L179.329 930.512 L179.329 936.391 L174.445 936.391 L174.445 930.512 Z" fill="#000000" fill-rule="nonzero" fill-opacity="1" /><path clip-path="url(#clip150)" d="M199.514 904.91 Q195.903 904.91 194.075 908.475 Q192.269 912.017 192.269 919.146 Q192.269 926.253 194.075 929.817 Q195.903 933.359 199.514 933.359 Q203.149 933.359 204.954 929.817 Q206.783 926.253 206.783 919.146 Q206.783 912.017 204.954 908.475 Q203.149 904.91 199.514 904.91 M199.514 901.206 Q205.324 901.206 208.38 905.813 Q211.459 910.396 211.459 919.146 Q211.459 927.873 208.38 932.479 Q205.324 937.063 199.514 937.063 Q193.704 937.063 190.625 932.479 Q187.57 927.873 187.57 919.146 Q187.57 910.396 190.625 905.813 Q193.704 901.206 199.514 901.206 Z" fill="#000000" fill-rule="nonzero" fill-opacity="1" /><path clip-path="url(#clip150)" d="M144.098 644.885 L166.32 644.885 L166.32 646.876 L153.774 679.445 L148.89 679.445 L160.695 648.82 L144.098 648.82 L144.098 644.885 Z" fill="#000000" fill-rule="nonzero" fill-opacity="1" /><path clip-path="url(#clip150)" d="M175.44 673.565 L180.325 673.565 L180.325 679.445 L175.44 679.445 L175.44 673.565 Z" fill="#000000" fill-rule="nonzero" fill-opacity="1" /><path clip-path="url(#clip150)" d="M190.556 644.885 L208.912 644.885 L208.912 648.82 L194.838 648.82 L194.838 657.292 Q195.857 656.945 196.875 656.783 Q197.894 656.598 198.912 656.598 Q204.699 656.598 208.079 659.769 Q211.459 662.94 211.459 668.357 Q211.459 673.936 207.987 677.037 Q204.514 680.116 198.195 680.116 Q196.019 680.116 193.75 679.746 Q191.505 679.375 189.098 678.635 L189.098 673.936 Q191.181 675.07 193.403 675.625 Q195.625 676.181 198.102 676.181 Q202.107 676.181 204.445 674.074 Q206.783 671.968 206.783 668.357 Q206.783 664.746 204.445 662.639 Q202.107 660.533 198.102 660.533 Q196.227 660.533 194.352 660.95 Q192.5 661.366 190.556 662.246 L190.556 644.885 Z" fill="#000000" fill-rule="nonzero" fill-opacity="1" /><path clip-path="url(#clip150)" d="M114.931 418.563 L122.57 418.563 L122.57 392.197 L114.26 393.864 L114.26 389.605 L122.524 387.938 L127.2 387.938 L127.2 418.563 L134.839 418.563 L134.839 422.498 L114.931 422.498 L114.931 418.563 Z" fill="#000000" fill-rule="nonzero" fill-opacity="1" /><path clip-path="url(#clip150)" d="M154.283 391.017 Q150.672 391.017 148.843 394.582 Q147.038 398.123 147.038 405.253 Q147.038 412.359 148.843 415.924 Q150.672 419.466 154.283 419.466 Q157.917 419.466 159.723 415.924 Q161.552 412.359 161.552 405.253 Q161.552 398.123 159.723 394.582 Q157.917 391.017 154.283 391.017 M154.283 387.313 Q160.093 387.313 163.149 391.92 Q166.227 396.503 166.227 405.253 Q166.227 413.98 163.149 418.586 Q160.093 423.169 154.283 423.169 Q148.473 423.169 145.394 418.586 Q142.339 413.98 142.339 405.253 Q142.339 396.503 145.394 391.92 Q148.473 387.313 154.283 387.313 Z" fill="#000000" fill-rule="nonzero" fill-opacity="1" /><path clip-path="url(#clip150)" d="M174.445 416.619 L179.329 416.619 L179.329 422.498 L174.445 422.498 L174.445 416.619 Z" fill="#000000" fill-rule="nonzero" fill-opacity="1" /><path clip-path="url(#clip150)" d="M199.514 391.017 Q195.903 391.017 194.075 394.582 Q192.269 398.123 192.269 405.253 Q192.269 412.359 194.075 415.924 Q195.903 419.466 199.514 419.466 Q203.149 419.466 204.954 415.924 Q206.783 412.359 206.783 405.253 Q206.783 398.123 204.954 394.582 Q203.149 391.017 199.514 391.017 M199.514 387.313 Q205.324 387.313 208.38 391.92 Q211.459 396.503 211.459 405.253 Q211.459 413.98 208.38 418.586 Q205.324 423.169 199.514 423.169 Q193.704 423.169 190.625 418.586 Q187.57 413.98 187.57 405.253 Q187.57 396.503 190.625 391.92 Q193.704 387.313 199.514 387.313 Z" fill="#000000" fill-rule="nonzero" fill-opacity="1" /><path clip-path="url(#clip150)" d="M115.927 161.616 L123.566 161.616 L123.566 135.251 L115.256 136.917 L115.256 132.658 L123.519 130.991 L128.195 130.991 L128.195 161.616 L135.834 161.616 L135.834 165.551 L115.927 165.551 L115.927 161.616 Z" fill="#000000" fill-rule="nonzero" fill-opacity="1" /><path clip-path="url(#clip150)" d="M149.306 161.616 L165.626 161.616 L165.626 165.551 L143.681 165.551 L143.681 161.616 Q146.343 158.862 150.927 154.232 Q155.533 149.579 156.714 148.237 Q158.959 145.714 159.839 143.977 Q160.741 142.218 160.741 140.528 Q160.741 137.774 158.797 136.038 Q156.876 134.302 153.774 134.302 Q151.575 134.302 149.121 135.066 Q146.691 135.829 143.913 137.38 L143.913 132.658 Q146.737 131.524 149.191 130.945 Q151.644 130.366 153.681 130.366 Q159.052 130.366 162.246 133.052 Q165.44 135.737 165.44 140.228 Q165.44 142.357 164.63 144.278 Q163.843 146.177 161.737 148.769 Q161.158 149.44 158.056 152.658 Q154.954 155.852 149.306 161.616 Z" fill="#000000" fill-rule="nonzero" fill-opacity="1" /><path clip-path="url(#clip150)" d="M175.44 159.672 L180.325 159.672 L180.325 165.551 L175.44 165.551 L175.44 159.672 Z" fill="#000000" fill-rule="nonzero" fill-opacity="1" /><path clip-path="url(#clip150)" d="M190.556 130.991 L208.912 130.991 L208.912 134.927 L194.838 134.927 L194.838 143.399 Q195.857 143.052 196.875 142.89 Q197.894 142.704 198.912 142.704 Q204.699 142.704 208.079 145.876 Q211.459 149.047 211.459 154.464 Q211.459 160.042 207.987 163.144 Q204.514 166.223 198.195 166.223 Q196.019 166.223 193.75 165.852 Q191.505 165.482 189.098 164.741 L189.098 160.042 Q191.181 161.176 193.403 161.732 Q195.625 162.288 198.102 162.288 Q202.107 162.288 204.445 160.181 Q206.783 158.075 206.783 154.464 Q206.783 150.852 204.445 148.746 Q202.107 146.64 198.102 146.64 Q196.227 146.64 194.352 147.056 Q192.5 147.473 190.556 148.352 L190.556 130.991 Z" fill="#000000" fill-rule="nonzero" fill-opacity="1" /><path clip-path="url(#clip150)" d="M16.4842 755.248 L16.4842 748.341 L36.0269 735.164 L16.4842 722.083 L16.4842 715.176 L41.3741 731.981 L64.0042 731.981 L64.0042 738.443 L41.3741 738.443 L16.4842 755.248 Z" fill="#000000" fill-rule="nonzero" fill-opacity="1" /><circle clip-path="url(#clip152)" cx="307.043" cy="1384.24" r="14.4" fill="#009af9" fill-rule="evenodd" fill-opacity="1" stroke="#000000" stroke-opacity="1" stroke-width="3.2"/>
<circle clip-path="url(#clip152)" cx="369.379" cy="1294.65" r="14.4" fill="#009af9" fill-rule="evenodd" fill-opacity="1" stroke="#000000" stroke-opacity="1" stroke-width="3.2"/>
<circle clip-path="url(#clip152)" cx="365.757" cy="973.203" r="14.4" fill="#009af9" fill-rule="evenodd" fill-opacity="1" stroke="#000000" stroke-opacity="1" stroke-width="3.2"/>
<circle clip-path="url(#clip152)" cx="326.911" cy="1232.29" r="14.4" fill="#009af9" fill-rule="evenodd" fill-opacity="1" stroke="#000000" stroke-opacity="1" stroke-width="3.2"/>
<circle clip-path="url(#clip152)" cx="420.441" cy="949.72" r="14.4" fill="#009af9" fill-rule="evenodd" fill-opacity="1" stroke="#000000" stroke-opacity="1" stroke-width="3.2"/>
<circle clip-path="url(#clip152)" cx="2293.17" cy="1169.83" r="14.4" fill="#009af9" fill-rule="evenodd" fill-opacity="1" stroke="#000000" stroke-opacity="1" stroke-width="3.2"/>
<circle clip-path="url(#clip152)" cx="1976.95" cy="994.776" r="14.4" fill="#009af9" fill-rule="evenodd" fill-opacity="1" stroke="#000000" stroke-opacity="1" stroke-width="3.2"/>
<circle clip-path="url(#clip152)" cx="2215.19" cy="1196.95" r="14.4" fill="#009af9" fill-rule="evenodd" fill-opacity="1" stroke="#000000" stroke-opacity="1" stroke-width="3.2"/>
<circle clip-path="url(#clip152)" cx="1946.49" cy="979.399" r="14.4" fill="#009af9" fill-rule="evenodd" fill-opacity="1" stroke="#000000" stroke-opacity="1" stroke-width="3.2"/>
<circle clip-path="url(#clip152)" cx="2007.83" cy="86.1857" r="14.4" fill="#e26f46" fill-rule="evenodd" fill-opacity="1" stroke="#000000" stroke-opacity="1" stroke-width="3.2"/>
<circle clip-path="url(#clip152)" cx="326.911" cy="1232.29" r="14.4" fill="#3da44d" fill-rule="evenodd" fill-opacity="1" stroke="#000000" stroke-opacity="1" stroke-width="3.2"/>
<circle clip-path="url(#clip152)" cx="2007.83" cy="86.1857" r="14.4" fill="#3da44d" fill-rule="evenodd" fill-opacity="1" stroke="#000000" stroke-opacity="1" stroke-width="3.2"/>
<path clip-path="url(#clip150)" d="M317.635 300.469 L749.506 300.469 L749.506 93.1086 L317.635 93.1086  Z" fill="#ffffff" fill-rule="evenodd" fill-opacity="1"/>
<polyline clip-path="url(#clip150)" style="stroke:#000000; stroke-linecap:round; stroke-linejoin:round; stroke-width:4; stroke-opacity:1; fill:none" points="317.635,300.469 749.506,300.469 749.506,93.1086 317.635,93.1086 317.635,300.469 "/>
<circle clip-path="url(#clip150)" cx="411.204" cy="144.949" r="20.48" fill="#009af9" fill-rule="evenodd" fill-opacity="1" stroke="#000000" stroke-opacity="1" stroke-width="4.55111"/>
<path clip-path="url(#clip150)" d="M532.643 130.331 L532.643 135.261 Q530.282 133.062 527.597 131.974 Q524.935 130.886 521.925 130.886 Q516 130.886 512.851 134.52 Q509.703 138.132 509.703 144.983 Q509.703 151.812 512.851 155.446 Q516 159.057 521.925 159.057 Q524.935 159.057 527.597 157.969 Q530.282 156.881 532.643 154.682 L532.643 159.567 Q530.189 161.233 527.435 162.067 Q524.703 162.9 521.648 162.9 Q513.801 162.9 509.287 158.108 Q504.773 153.293 504.773 144.983 Q504.773 136.65 509.287 131.858 Q513.801 127.044 521.648 127.044 Q524.75 127.044 527.481 127.877 Q530.236 128.687 532.643 130.331 Z" fill="#000000" fill-rule="nonzero" fill-opacity="1" /><path clip-path="url(#clip150)" d="M539.68 126.21 L543.939 126.21 L543.939 162.229 L539.68 162.229 L539.68 126.21 Z" fill="#000000" fill-rule="nonzero" fill-opacity="1" /><path clip-path="url(#clip150)" d="M552.411 151.997 L552.411 136.303 L556.671 136.303 L556.671 151.835 Q556.671 155.516 558.106 157.368 Q559.541 159.196 562.411 159.196 Q565.86 159.196 567.851 156.997 Q569.865 154.798 569.865 151.002 L569.865 136.303 L574.124 136.303 L574.124 162.229 L569.865 162.229 L569.865 158.247 Q568.314 160.608 566.254 161.766 Q564.217 162.9 561.509 162.9 Q557.041 162.9 554.726 160.122 Q552.411 157.344 552.411 151.997 M563.129 135.678 L563.129 135.678 Z" fill="#000000" fill-rule="nonzero" fill-opacity="1" /><path clip-path="url(#clip150)" d="M599.425 137.067 L599.425 141.094 Q597.62 140.169 595.675 139.706 Q593.731 139.243 591.647 139.243 Q588.476 139.243 586.879 140.215 Q585.305 141.187 585.305 143.131 Q585.305 144.613 586.439 145.469 Q587.573 146.303 590.999 147.067 L592.458 147.391 Q596.995 148.363 598.893 150.145 Q600.814 151.905 600.814 155.076 Q600.814 158.687 597.944 160.793 Q595.096 162.9 590.096 162.9 Q588.013 162.9 585.745 162.483 Q583.499 162.09 580.999 161.28 L580.999 156.881 Q583.36 158.108 585.652 158.733 Q587.944 159.335 590.189 159.335 Q593.198 159.335 594.819 158.317 Q596.439 157.275 596.439 155.4 Q596.439 153.664 595.258 152.738 Q594.101 151.812 590.143 150.956 L588.661 150.608 Q584.703 149.775 582.944 148.062 Q581.184 146.326 581.184 143.317 Q581.184 139.659 583.777 137.669 Q586.37 135.678 591.138 135.678 Q593.499 135.678 595.583 136.025 Q597.666 136.372 599.425 137.067 Z" fill="#000000" fill-rule="nonzero" fill-opacity="1" /><path clip-path="url(#clip150)" d="M611.809 128.942 L611.809 136.303 L620.582 136.303 L620.582 139.613 L611.809 139.613 L611.809 153.687 Q611.809 156.858 612.666 157.761 Q613.545 158.664 616.207 158.664 L620.582 158.664 L620.582 162.229 L616.207 162.229 Q611.277 162.229 609.402 160.4 Q607.527 158.548 607.527 153.687 L607.527 139.613 L604.402 139.613 L604.402 136.303 L607.527 136.303 L607.527 128.942 L611.809 128.942 Z" fill="#000000" fill-rule="nonzero" fill-opacity="1" /><path clip-path="url(#clip150)" d="M648.36 148.201 L648.36 150.284 L628.777 150.284 Q629.055 154.682 631.416 156.997 Q633.8 159.289 638.036 159.289 Q640.49 159.289 642.781 158.687 Q645.096 158.085 647.365 156.881 L647.365 160.909 Q645.073 161.881 642.666 162.391 Q640.258 162.9 637.781 162.9 Q631.578 162.9 627.943 159.289 Q624.332 155.678 624.332 149.52 Q624.332 143.155 627.758 139.428 Q631.207 135.678 637.041 135.678 Q642.272 135.678 645.304 139.057 Q648.36 142.414 648.36 148.201 M644.101 146.951 Q644.054 143.456 642.133 141.372 Q640.235 139.289 637.087 139.289 Q633.522 139.289 631.369 141.303 Q629.24 143.317 628.916 146.974 L644.101 146.951 Z" fill="#000000" fill-rule="nonzero" fill-opacity="1" /><path clip-path="url(#clip150)" d="M670.374 140.284 Q669.656 139.868 668.8 139.682 Q667.966 139.474 666.948 139.474 Q663.337 139.474 661.392 141.835 Q659.471 144.173 659.471 148.571 L659.471 162.229 L655.189 162.229 L655.189 136.303 L659.471 136.303 L659.471 140.331 Q660.814 137.969 662.966 136.835 Q665.119 135.678 668.198 135.678 Q668.638 135.678 669.17 135.747 Q669.702 135.794 670.351 135.909 L670.374 140.284 Z" fill="#000000" fill-rule="nonzero" fill-opacity="1" /><path clip-path="url(#clip150)" d="M691.323 158.293 L698.962 158.293 L698.962 131.928 L690.651 133.595 L690.651 129.335 L698.915 127.669 L703.591 127.669 L703.591 158.293 L711.23 158.293 L711.23 162.229 L691.323 162.229 L691.323 158.293 Z" fill="#000000" fill-rule="nonzero" fill-opacity="1" /><circle clip-path="url(#clip150)" cx="411.204" cy="196.789" r="20.48" fill="#e26f46" fill-rule="evenodd" fill-opacity="1" stroke="#000000" stroke-opacity="1" stroke-width="4.55111"/>
<path clip-path="url(#clip150)" d="M532.643 182.171 L532.643 187.101 Q530.282 184.902 527.597 183.814 Q524.935 182.726 521.925 182.726 Q516 182.726 512.851 186.36 Q509.703 189.972 509.703 196.823 Q509.703 203.652 512.851 207.286 Q516 210.897 521.925 210.897 Q524.935 210.897 527.597 209.809 Q530.282 208.721 532.643 206.522 L532.643 211.407 Q530.189 213.073 527.435 213.907 Q524.703 214.74 521.648 214.74 Q513.801 214.74 509.287 209.948 Q504.773 205.133 504.773 196.823 Q504.773 188.49 509.287 183.698 Q513.801 178.884 521.648 178.884 Q524.75 178.884 527.481 179.717 Q530.236 180.527 532.643 182.171 Z" fill="#000000" fill-rule="nonzero" fill-opacity="1" /><path clip-path="url(#clip150)" d="M539.68 178.05 L543.939 178.05 L543.939 214.069 L539.68 214.069 L539.68 178.05 Z" fill="#000000" fill-rule="nonzero" fill-opacity="1" /><path clip-path="url(#clip150)" d="M552.411 203.837 L552.411 188.143 L556.671 188.143 L556.671 203.675 Q556.671 207.356 558.106 209.208 Q559.541 211.036 562.411 211.036 Q565.86 211.036 567.851 208.837 Q569.865 206.638 569.865 202.842 L569.865 188.143 L574.124 188.143 L574.124 214.069 L569.865 214.069 L569.865 210.087 Q568.314 212.448 566.254 213.606 Q564.217 214.74 561.509 214.74 Q557.041 214.74 554.726 211.962 Q552.411 209.184 552.411 203.837 M563.129 187.518 L563.129 187.518 Z" fill="#000000" fill-rule="nonzero" fill-opacity="1" /><path clip-path="url(#clip150)" d="M599.425 188.907 L599.425 192.934 Q597.62 192.009 595.675 191.546 Q593.731 191.083 591.647 191.083 Q588.476 191.083 586.879 192.055 Q585.305 193.027 585.305 194.971 Q585.305 196.453 586.439 197.309 Q587.573 198.143 590.999 198.907 L592.458 199.231 Q596.995 200.203 598.893 201.985 Q600.814 203.745 600.814 206.916 Q600.814 210.527 597.944 212.633 Q595.096 214.74 590.096 214.74 Q588.013 214.74 585.745 214.323 Q583.499 213.93 580.999 213.12 L580.999 208.721 Q583.36 209.948 585.652 210.573 Q587.944 211.175 590.189 211.175 Q593.198 211.175 594.819 210.157 Q596.439 209.115 596.439 207.24 Q596.439 205.504 595.258 204.578 Q594.101 203.652 590.143 202.796 L588.661 202.448 Q584.703 201.615 582.944 199.902 Q581.184 198.166 581.184 195.157 Q581.184 191.499 583.777 189.509 Q586.37 187.518 591.138 187.518 Q593.499 187.518 595.583 187.865 Q597.666 188.212 599.425 188.907 Z" fill="#000000" fill-rule="nonzero" fill-opacity="1" /><path clip-path="url(#clip150)" d="M611.809 180.782 L611.809 188.143 L620.582 188.143 L620.582 191.453 L611.809 191.453 L611.809 205.527 Q611.809 208.698 612.666 209.601 Q613.545 210.504 616.207 210.504 L620.582 210.504 L620.582 214.069 L616.207 214.069 Q611.277 214.069 609.402 212.24 Q607.527 210.388 607.527 205.527 L607.527 191.453 L604.402 191.453 L604.402 188.143 L607.527 188.143 L607.527 180.782 L611.809 180.782 Z" fill="#000000" fill-rule="nonzero" fill-opacity="1" /><path clip-path="url(#clip150)" d="M648.36 200.041 L648.36 202.124 L628.777 202.124 Q629.055 206.522 631.416 208.837 Q633.8 211.129 638.036 211.129 Q640.49 211.129 642.781 210.527 Q645.096 209.925 647.365 208.721 L647.365 212.749 Q645.073 213.721 642.666 214.231 Q640.258 214.74 637.781 214.74 Q631.578 214.74 627.943 211.129 Q624.332 207.518 624.332 201.36 Q624.332 194.995 627.758 191.268 Q631.207 187.518 637.041 187.518 Q642.272 187.518 645.304 190.897 Q648.36 194.254 648.36 200.041 M644.101 198.791 Q644.054 195.296 642.133 193.212 Q640.235 191.129 637.087 191.129 Q633.522 191.129 631.369 193.143 Q629.24 195.157 628.916 198.814 L644.101 198.791 Z" fill="#000000" fill-rule="nonzero" fill-opacity="1" /><path clip-path="url(#clip150)" d="M670.374 192.124 Q669.656 191.708 668.8 191.522 Q667.966 191.314 666.948 191.314 Q663.337 191.314 661.392 193.675 Q659.471 196.013 659.471 200.411 L659.471 214.069 L655.189 214.069 L655.189 188.143 L659.471 188.143 L659.471 192.171 Q660.814 189.809 662.966 188.675 Q665.119 187.518 668.198 187.518 Q668.638 187.518 669.17 187.587 Q669.702 187.634 670.351 187.749 L670.374 192.124 Z" fill="#000000" fill-rule="nonzero" fill-opacity="1" /><path clip-path="url(#clip150)" d="M694.54 210.133 L710.86 210.133 L710.86 214.069 L688.915 214.069 L688.915 210.133 Q691.577 207.379 696.161 202.749 Q700.767 198.096 701.948 196.754 Q704.193 194.231 705.073 192.495 Q705.975 190.735 705.975 189.046 Q705.975 186.291 704.031 184.555 Q702.11 182.819 699.008 182.819 Q696.809 182.819 694.355 183.583 Q691.925 184.347 689.147 185.897 L689.147 181.175 Q691.971 180.041 694.425 179.462 Q696.878 178.884 698.915 178.884 Q704.286 178.884 707.48 181.569 Q710.674 184.254 710.674 188.745 Q710.674 190.874 709.864 192.796 Q709.077 194.694 706.971 197.286 Q706.392 197.958 703.29 201.175 Q700.188 204.37 694.54 210.133 Z" fill="#000000" fill-rule="nonzero" fill-opacity="1" /><circle clip-path="url(#clip150)" cx="411.204" cy="248.629" r="20.48" fill="#3da44d" fill-rule="evenodd" fill-opacity="1" stroke="#000000" stroke-opacity="1" stroke-width="4.55111"/>
<path clip-path="url(#clip150)" d="M532.643 234.011 L532.643 238.941 Q530.282 236.742 527.597 235.654 Q524.935 234.566 521.925 234.566 Q516 234.566 512.851 238.2 Q509.703 241.812 509.703 248.663 Q509.703 255.492 512.851 259.126 Q516 262.737 521.925 262.737 Q524.935 262.737 527.597 261.649 Q530.282 260.561 532.643 258.362 L532.643 263.247 Q530.189 264.913 527.435 265.747 Q524.703 266.58 521.648 266.58 Q513.801 266.58 509.287 261.788 Q504.773 256.973 504.773 248.663 Q504.773 240.33 509.287 235.538 Q513.801 230.724 521.648 230.724 Q524.75 230.724 527.481 231.557 Q530.236 232.367 532.643 234.011 Z" fill="#000000" fill-rule="nonzero" fill-opacity="1" /><path clip-path="url(#clip150)" d="M561.856 251.881 L561.856 253.964 L542.273 253.964 Q542.55 258.362 544.911 260.677 Q547.296 262.969 551.532 262.969 Q553.986 262.969 556.277 262.367 Q558.592 261.765 560.86 260.561 L560.86 264.589 Q558.569 265.561 556.161 266.071 Q553.754 266.58 551.277 266.58 Q545.074 266.58 541.439 262.969 Q537.828 259.358 537.828 253.2 Q537.828 246.835 541.254 243.108 Q544.703 239.358 550.536 239.358 Q555.768 239.358 558.8 242.737 Q561.856 246.094 561.856 251.881 M557.597 250.631 Q557.55 247.136 555.629 245.052 Q553.731 242.969 550.583 242.969 Q547.018 242.969 544.865 244.983 Q542.736 246.997 542.411 250.654 L557.597 250.631 Z" fill="#000000" fill-rule="nonzero" fill-opacity="1" /><path clip-path="url(#clip150)" d="M590.397 250.261 L590.397 265.909 L586.138 265.909 L586.138 250.399 Q586.138 246.719 584.703 244.89 Q583.268 243.062 580.397 243.062 Q576.948 243.062 574.958 245.261 Q572.967 247.46 572.967 251.256 L572.967 265.909 L568.685 265.909 L568.685 239.983 L572.967 239.983 L572.967 244.011 Q574.495 241.673 576.555 240.515 Q578.638 239.358 581.346 239.358 Q585.814 239.358 588.106 242.136 Q590.397 244.89 590.397 250.261 Z" fill="#000000" fill-rule="nonzero" fill-opacity="1" /><path clip-path="url(#clip150)" d="M603.106 232.622 L603.106 239.983 L611.879 239.983 L611.879 243.293 L603.106 243.293 L603.106 257.367 Q603.106 260.538 603.962 261.441 Q604.842 262.344 607.504 262.344 L611.879 262.344 L611.879 265.909 L607.504 265.909 Q602.573 265.909 600.698 264.08 Q598.823 262.228 598.823 257.367 L598.823 243.293 L595.698 243.293 L595.698 239.983 L598.823 239.983 L598.823 232.622 L603.106 232.622 Z" fill="#000000" fill-rule="nonzero" fill-opacity="1" /><path clip-path="url(#clip150)" d="M632.504 243.964 Q631.786 243.548 630.93 243.362 Q630.096 243.154 629.078 243.154 Q625.467 243.154 623.522 245.515 Q621.601 247.853 621.601 252.251 L621.601 265.909 L617.319 265.909 L617.319 239.983 L621.601 239.983 L621.601 244.011 Q622.943 241.649 625.096 240.515 Q627.249 239.358 630.328 239.358 Q630.768 239.358 631.3 239.427 Q631.832 239.474 632.48 239.589 L632.504 243.964 Z" fill="#000000" fill-rule="nonzero" fill-opacity="1" /><path clip-path="url(#clip150)" d="M645.976 242.969 Q642.55 242.969 640.559 245.654 Q638.568 248.316 638.568 252.969 Q638.568 257.622 640.536 260.307 Q642.527 262.969 645.976 262.969 Q649.379 262.969 651.369 260.284 Q653.36 257.598 653.36 252.969 Q653.36 248.362 651.369 245.677 Q649.379 242.969 645.976 242.969 M645.976 239.358 Q651.531 239.358 654.703 242.969 Q657.874 246.58 657.874 252.969 Q657.874 259.335 654.703 262.969 Q651.531 266.58 645.976 266.58 Q640.397 266.58 637.226 262.969 Q634.078 259.335 634.078 252.969 Q634.078 246.58 637.226 242.969 Q640.397 239.358 645.976 239.358 Z" fill="#000000" fill-rule="nonzero" fill-opacity="1" /><path clip-path="url(#clip150)" d="M664.934 239.983 L669.193 239.983 L669.193 265.909 L664.934 265.909 L664.934 239.983 M664.934 229.89 L669.193 229.89 L669.193 235.284 L664.934 235.284 L664.934 229.89 Z" fill="#000000" fill-rule="nonzero" fill-opacity="1" /><path clip-path="url(#clip150)" d="M695.165 243.918 L695.165 229.89 L699.425 229.89 L699.425 265.909 L695.165 265.909 L695.165 262.02 Q693.823 264.335 691.763 265.469 Q689.726 266.58 686.855 266.58 Q682.156 266.58 679.193 262.83 Q676.253 259.08 676.253 252.969 Q676.253 246.858 679.193 243.108 Q682.156 239.358 686.855 239.358 Q689.726 239.358 691.763 240.492 Q693.823 241.603 695.165 243.918 M680.651 252.969 Q680.651 257.668 682.573 260.353 Q684.517 263.015 687.897 263.015 Q691.276 263.015 693.221 260.353 Q695.165 257.668 695.165 252.969 Q695.165 248.27 693.221 245.608 Q691.276 242.923 687.897 242.923 Q684.517 242.923 682.573 245.608 Q680.651 248.27 680.651 252.969 Z" fill="#000000" fill-rule="nonzero" fill-opacity="1" /><path clip-path="url(#clip150)" d="M724.725 240.747 L724.725 244.774 Q722.92 243.849 720.975 243.386 Q719.031 242.923 716.948 242.923 Q713.776 242.923 712.179 243.895 Q710.605 244.867 710.605 246.811 Q710.605 248.293 711.739 249.149 Q712.874 249.983 716.299 250.747 L717.758 251.071 Q722.295 252.043 724.193 253.825 Q726.114 255.585 726.114 258.756 Q726.114 262.367 723.244 264.473 Q720.397 266.58 715.397 266.58 Q713.313 266.58 711.045 266.163 Q708.799 265.77 706.3 264.96 L706.3 260.561 Q708.661 261.788 710.952 262.413 Q713.244 263.015 715.489 263.015 Q718.499 263.015 720.119 261.997 Q721.739 260.955 721.739 259.08 Q721.739 257.344 720.559 256.418 Q719.401 255.492 715.443 254.636 L713.962 254.288 Q710.003 253.455 708.244 251.742 Q706.485 250.006 706.485 246.997 Q706.485 243.339 709.077 241.349 Q711.67 239.358 716.438 239.358 Q718.799 239.358 720.883 239.705 Q722.966 240.052 724.725 240.747 Z" fill="#000000" fill-rule="nonzero" fill-opacity="1" /></svg>
