<?xml version="1.0" encoding="utf-8"?>
<svg xmlns="http://www.w3.org/2000/svg" xmlns:xlink="http://www.w3.org/1999/xlink" width="600" height="400" viewBox="0 0 2400 1600">
<defs>
  <clipPath id="clip540">
    <rect x="0" y="0" width="2400" height="1600"/>
  </clipPath>
</defs>
<path clip-path="url(#clip540)" d="M0 1600 L2400 1600 L2400 0 L0 0  Z" fill="#ffffff" fill-rule="evenodd" fill-opacity="1"/>
<defs>
  <clipPath id="clip541">
    <rect x="480" y="0" width="1681" height="1600"/>
  </clipPath>
</defs>
<path clip-path="url(#clip540)" d="M201.232 1423.18 L2352.76 1423.18 L2352.76 47.2441 L201.232 47.2441  Z" fill="#ffffff" fill-rule="evenodd" fill-opacity="1"/>
<defs>
  <clipPath id="clip542">
    <rect x="201" y="47" width="2153" height="1377"/>
  </clipPath>
</defs>
<polyline clip-path="url(#clip542)" style="stroke:#000000; stroke-linecap:round; stroke-linejoin:round; stroke-width:2; stroke-opacity:0.1; fill:none" points="441.837,1423.18 441.837,47.2441 "/>
<polyline clip-path="url(#clip542)" style="stroke:#000000; stroke-linecap:round; stroke-linejoin:round; stroke-width:2; stroke-opacity:0.1; fill:none" points="935.393,1423.18 935.393,47.2441 "/>
<polyline clip-path="url(#clip542)" style="stroke:#000000; stroke-linecap:round; stroke-linejoin:round; stroke-width:2; stroke-opacity:0.1; fill:none" points="1428.95,1423.18 1428.95,47.2441 "/>
<polyline clip-path="url(#clip542)" style="stroke:#000000; stroke-linecap:round; stroke-linejoin:round; stroke-width:2; stroke-opacity:0.1; fill:none" points="1922.5,1423.18 1922.5,47.2441 "/>
<polyline clip-path="url(#clip542)" style="stroke:#000000; stroke-linecap:round; stroke-linejoin:round; stroke-width:2; stroke-opacity:0.1; fill:none" points="201.232,1215.4 2352.76,1215.4 "/>
<polyline clip-path="url(#clip542)" style="stroke:#000000; stroke-linecap:round; stroke-linejoin:round; stroke-width:2; stroke-opacity:0.1; fill:none" points="201.232,965.618 2352.76,965.618 "/>
<polyline clip-path="url(#clip542)" style="stroke:#000000; stroke-linecap:round; stroke-linejoin:round; stroke-width:2; stroke-opacity:0.1; fill:none" points="201.232,715.84 2352.76,715.84 "/>
<polyline clip-path="url(#clip542)" style="stroke:#000000; stroke-linecap:round; stroke-linejoin:round; stroke-width:2; stroke-opacity:0.1; fill:none" points="201.232,466.062 2352.76,466.062 "/>
<polyline clip-path="url(#clip542)" style="stroke:#000000; stroke-linecap:round; stroke-linejoin:round; stroke-width:2; stroke-opacity:0.1; fill:none" points="201.232,216.284 2352.76,216.284 "/>
<polyline clip-path="url(#clip540)" style="stroke:#000000; stroke-linecap:round; stroke-linejoin:round; stroke-width:4; stroke-opacity:1; fill:none" points="201.232,1423.18 2352.76,1423.18 "/>
<polyline clip-path="url(#clip540)" style="stroke:#000000; stroke-linecap:round; stroke-linejoin:round; stroke-width:4; stroke-opacity:1; fill:none" points="441.837,1423.18 441.837,1404.28 "/>
<polyline clip-path="url(#clip540)" style="stroke:#000000; stroke-linecap:round; stroke-linejoin:round; stroke-width:4; stroke-opacity:1; fill:none" points="935.393,1423.18 935.393,1404.28 "/>
<polyline clip-path="url(#clip540)" style="stroke:#000000; stroke-linecap:round; stroke-linejoin:round; stroke-width:4; stroke-opacity:1; fill:none" points="1428.95,1423.18 1428.95,1404.28 "/>
<polyline clip-path="url(#clip540)" style="stroke:#000000; stroke-linecap:round; stroke-linejoin:round; stroke-width:4; stroke-opacity:1; fill:none" points="1922.5,1423.18 1922.5,1404.28 "/>
<path clip-path="url(#clip540)" d="M436.49 1481.64 L452.809 1481.64 L452.809 1485.58 L430.865 1485.58 L430.865 1481.64 Q433.527 1478.89 438.11 1474.26 Q442.717 1469.61 443.897 1468.27 Q446.143 1465.74 447.022 1464.01 Q447.925 1462.25 447.925 1460.56 Q447.925 1457.8 445.981 1456.07 Q444.059 1454.33 440.958 1454.33 Q438.759 1454.33 436.305 1455.09 Q433.874 1455.86 431.097 1457.41 L431.097 1452.69 Q433.921 1451.55 436.374 1450.97 Q438.828 1450.39 440.865 1450.39 Q446.235 1450.39 449.43 1453.08 Q452.624 1455.77 452.624 1460.26 Q452.624 1462.39 451.814 1464.31 Q451.027 1466.2 448.921 1468.8 Q448.342 1469.47 445.24 1472.69 Q442.138 1475.88 436.49 1481.64 Z" fill="#000000" fill-rule="nonzero" fill-opacity="1" /><path clip-path="url(#clip540)" d="M938.402 1455.09 L926.596 1473.54 L938.402 1473.54 L938.402 1455.09 M937.175 1451.02 L943.055 1451.02 L943.055 1473.54 L947.985 1473.54 L947.985 1477.43 L943.055 1477.43 L943.055 1485.58 L938.402 1485.58 L938.402 1477.43 L922.8 1477.43 L922.8 1472.92 L937.175 1451.02 Z" fill="#000000" fill-rule="nonzero" fill-opacity="1" /><path clip-path="url(#clip540)" d="M1429.35 1466.44 Q1426.2 1466.44 1424.35 1468.59 Q1422.52 1470.74 1422.52 1474.49 Q1422.52 1478.22 1424.35 1480.39 Q1426.2 1482.55 1429.35 1482.55 Q1432.5 1482.55 1434.33 1480.39 Q1436.18 1478.22 1436.18 1474.49 Q1436.18 1470.74 1434.33 1468.59 Q1432.5 1466.44 1429.35 1466.44 M1438.64 1451.78 L1438.64 1456.04 Q1436.88 1455.21 1435.07 1454.77 Q1433.29 1454.33 1431.53 1454.33 Q1426.9 1454.33 1424.45 1457.45 Q1422.02 1460.58 1421.67 1466.9 Q1423.03 1464.89 1425.09 1463.82 Q1427.15 1462.73 1429.63 1462.73 Q1434.84 1462.73 1437.85 1465.9 Q1440.88 1469.05 1440.88 1474.49 Q1440.88 1479.82 1437.73 1483.03 Q1434.58 1486.25 1429.35 1486.25 Q1423.36 1486.25 1420.19 1481.67 Q1417.02 1477.06 1417.02 1468.33 Q1417.02 1460.14 1420.9 1455.28 Q1424.79 1450.39 1431.34 1450.39 Q1433.1 1450.39 1434.89 1450.74 Q1436.69 1451.09 1438.64 1451.78 Z" fill="#000000" fill-rule="nonzero" fill-opacity="1" /><path clip-path="url(#clip540)" d="M1922.5 1469.17 Q1919.17 1469.17 1917.25 1470.95 Q1915.35 1472.73 1915.35 1475.86 Q1915.35 1478.98 1917.25 1480.77 Q1919.17 1482.55 1922.5 1482.55 Q1925.84 1482.55 1927.76 1480.77 Q1929.68 1478.96 1929.68 1475.86 Q1929.68 1472.73 1927.76 1470.95 Q1925.86 1469.17 1922.5 1469.17 M1917.83 1467.18 Q1914.82 1466.44 1913.13 1464.38 Q1911.46 1462.32 1911.46 1459.35 Q1911.46 1455.21 1914.4 1452.8 Q1917.36 1450.39 1922.5 1450.39 Q1927.67 1450.39 1930.61 1452.8 Q1933.54 1455.21 1933.54 1459.35 Q1933.54 1462.32 1931.86 1464.38 Q1930.19 1466.44 1927.2 1467.18 Q1930.58 1467.96 1932.46 1470.26 Q1934.36 1472.55 1934.36 1475.86 Q1934.36 1480.88 1931.28 1483.57 Q1928.22 1486.25 1922.5 1486.25 Q1916.79 1486.25 1913.71 1483.57 Q1910.65 1480.88 1910.65 1475.86 Q1910.65 1472.55 1912.55 1470.26 Q1914.45 1467.96 1917.83 1467.18 M1916.11 1459.79 Q1916.11 1462.48 1917.78 1463.98 Q1919.47 1465.49 1922.5 1465.49 Q1925.51 1465.49 1927.2 1463.98 Q1928.92 1462.48 1928.92 1459.79 Q1928.92 1457.11 1927.2 1455.6 Q1925.51 1454.1 1922.5 1454.1 Q1919.47 1454.1 1917.78 1455.6 Q1916.11 1457.11 1916.11 1459.79 Z" fill="#000000" fill-rule="nonzero" fill-opacity="1" /><path clip-path="url(#clip540)" d="M1258.82 1520.52 L1265.73 1520.52 L1277.54 1538.19 L1289.41 1520.52 L1296.31 1520.52 L1281.04 1543.34 L1297.33 1568.04 L1290.43 1568.04 L1277.06 1547.83 L1263.59 1568.04 L1256.66 1568.04 L1273.62 1542.68 L1258.82 1520.52 Z" fill="#000000" fill-rule="nonzero" fill-opacity="1" /><polyline clip-path="url(#clip540)" style="stroke:#000000; stroke-linecap:round; stroke-linejoin:round; stroke-width:4; stroke-opacity:1; fill:none" points="201.232,1423.18 201.232,47.2441 "/>
<polyline clip-path="url(#clip540)" style="stroke:#000000; stroke-linecap:round; stroke-linejoin:round; stroke-width:4; stroke-opacity:1; fill:none" points="201.232,1215.4 220.13,1215.4 "/>
<polyline clip-path="url(#clip540)" style="stroke:#000000; stroke-linecap:round; stroke-linejoin:round; stroke-width:4; stroke-opacity:1; fill:none" points="201.232,965.618 220.13,965.618 "/>
<polyline clip-path="url(#clip540)" style="stroke:#000000; stroke-linecap:round; stroke-linejoin:round; stroke-width:4; stroke-opacity:1; fill:none" points="201.232,715.84 220.13,715.84 "/>
<polyline clip-path="url(#clip540)" style="stroke:#000000; stroke-linecap:round; stroke-linejoin:round; stroke-width:4; stroke-opacity:1; fill:none" points="201.232,466.062 220.13,466.062 "/>
<polyline clip-path="url(#clip540)" style="stroke:#000000; stroke-linecap:round; stroke-linejoin:round; stroke-width:4; stroke-opacity:1; fill:none" points="201.232,216.284 220.13,216.284 "/>
<path clip-path="url(#clip540)" d="M158.103 1214.04 Q161.459 1214.76 163.334 1217.03 Q165.232 1219.3 165.232 1222.63 Q165.232 1227.74 161.714 1230.55 Q158.195 1233.35 151.714 1233.35 Q149.538 1233.35 147.223 1232.91 Q144.931 1232.49 142.478 1231.63 L142.478 1227.12 Q144.422 1228.25 146.737 1228.83 Q149.052 1229.41 151.575 1229.41 Q155.973 1229.41 158.265 1227.68 Q160.579 1225.94 160.579 1222.63 Q160.579 1219.57 158.427 1217.86 Q156.297 1216.12 152.478 1216.12 L148.45 1216.12 L148.45 1212.28 L152.663 1212.28 Q156.112 1212.28 157.94 1210.92 Q159.769 1209.53 159.769 1206.93 Q159.769 1204.27 157.871 1202.86 Q155.996 1201.43 152.478 1201.43 Q150.556 1201.43 148.357 1201.84 Q146.158 1202.26 143.519 1203.14 L143.519 1198.97 Q146.181 1198.23 148.496 1197.86 Q150.834 1197.49 152.894 1197.49 Q158.218 1197.49 161.32 1199.92 Q164.422 1202.33 164.422 1206.45 Q164.422 1209.32 162.778 1211.31 Q161.135 1213.28 158.103 1214.04 Z" fill="#000000" fill-rule="nonzero" fill-opacity="1" /><path clip-path="url(#clip540)" d="M153.704 963.754 Q150.556 963.754 148.704 965.907 Q146.876 968.06 146.876 971.81 Q146.876 975.536 148.704 977.712 Q150.556 979.865 153.704 979.865 Q156.853 979.865 158.681 977.712 Q160.533 975.536 160.533 971.81 Q160.533 968.06 158.681 965.907 Q156.853 963.754 153.704 963.754 M162.987 949.101 L162.987 953.361 Q161.227 952.527 159.422 952.088 Q157.64 951.648 155.88 951.648 Q151.251 951.648 148.797 954.773 Q146.366 957.898 146.019 964.217 Q147.385 962.203 149.445 961.138 Q151.505 960.05 153.982 960.05 Q159.19 960.05 162.2 963.222 Q165.232 966.37 165.232 971.81 Q165.232 977.134 162.084 980.351 Q158.936 983.569 153.704 983.569 Q147.709 983.569 144.538 978.986 Q141.366 974.379 141.366 965.652 Q141.366 957.458 145.255 952.597 Q149.144 947.713 155.695 947.713 Q157.454 947.713 159.237 948.06 Q161.042 948.407 162.987 949.101 Z" fill="#000000" fill-rule="nonzero" fill-opacity="1" /><path clip-path="url(#clip540)" d="M143.612 732.402 L143.612 728.143 Q145.371 728.976 147.177 729.416 Q148.982 729.856 150.718 729.856 Q155.348 729.856 157.778 726.754 Q160.232 723.629 160.579 717.287 Q159.237 719.277 157.177 720.342 Q155.116 721.407 152.616 721.407 Q147.431 721.407 144.399 718.282 Q141.39 715.134 141.39 709.694 Q141.39 704.37 144.538 701.152 Q147.686 697.935 152.917 697.935 Q158.913 697.935 162.061 702.541 Q165.232 707.125 165.232 715.875 Q165.232 724.046 161.343 728.93 Q157.478 733.791 150.927 733.791 Q149.167 733.791 147.362 733.444 Q145.556 733.097 143.612 732.402 M152.917 717.749 Q156.065 717.749 157.894 715.597 Q159.746 713.444 159.746 709.694 Q159.746 705.967 157.894 703.814 Q156.065 701.638 152.917 701.638 Q149.769 701.638 147.917 703.814 Q146.089 705.967 146.089 709.694 Q146.089 713.444 147.917 715.597 Q149.769 717.749 152.917 717.749 Z" fill="#000000" fill-rule="nonzero" fill-opacity="1" /><path clip-path="url(#clip540)" d="M115.533 479.407 L123.172 479.407 L123.172 453.041 L114.862 454.708 L114.862 450.449 L123.126 448.782 L127.802 448.782 L127.802 479.407 L135.441 479.407 L135.441 483.342 L115.533 483.342 L115.533 479.407 Z" fill="#000000" fill-rule="nonzero" fill-opacity="1" /><path clip-path="url(#clip540)" d="M148.913 479.407 L165.232 479.407 L165.232 483.342 L143.288 483.342 L143.288 479.407 Q145.95 476.652 150.533 472.023 Q155.14 467.37 156.32 466.027 Q158.565 463.504 159.445 461.768 Q160.348 460.009 160.348 458.319 Q160.348 455.564 158.403 453.828 Q156.482 452.092 153.38 452.092 Q151.181 452.092 148.728 452.856 Q146.297 453.62 143.519 455.171 L143.519 450.449 Q146.343 449.314 148.797 448.736 Q151.251 448.157 153.288 448.157 Q158.658 448.157 161.852 450.842 Q165.047 453.527 165.047 458.018 Q165.047 460.148 164.237 462.069 Q163.45 463.967 161.343 466.56 Q160.765 467.231 157.663 470.449 Q154.561 473.643 148.913 479.407 Z" fill="#000000" fill-rule="nonzero" fill-opacity="1" /><path clip-path="url(#clip540)" d="M114.931 229.629 L122.57 229.629 L122.57 203.264 L114.26 204.93 L114.26 200.671 L122.524 199.004 L127.2 199.004 L127.2 229.629 L134.839 229.629 L134.839 233.564 L114.931 233.564 L114.931 229.629 Z" fill="#000000" fill-rule="nonzero" fill-opacity="1" /><path clip-path="url(#clip540)" d="M144.329 199.004 L162.686 199.004 L162.686 202.939 L148.612 202.939 L148.612 211.412 Q149.63 211.064 150.649 210.902 Q151.667 210.717 152.686 210.717 Q158.473 210.717 161.852 213.888 Q165.232 217.06 165.232 222.476 Q165.232 228.055 161.76 231.157 Q158.288 234.236 151.968 234.236 Q149.792 234.236 147.524 233.865 Q145.279 233.495 142.871 232.754 L142.871 228.055 Q144.954 229.189 147.177 229.745 Q149.399 230.3 151.876 230.3 Q155.88 230.3 158.218 228.194 Q160.556 226.087 160.556 222.476 Q160.556 218.865 158.218 216.759 Q155.88 214.652 151.876 214.652 Q150.001 214.652 148.126 215.069 Q146.274 215.486 144.329 216.365 L144.329 199.004 Z" fill="#000000" fill-rule="nonzero" fill-opacity="1" /><path clip-path="url(#clip540)" d="M16.4842 755.248 L16.4842 748.341 L36.0269 735.164 L16.4842 722.083 L16.4842 715.176 L41.3741 731.981 L64.0042 731.981 L64.0042 738.443 L41.3741 738.443 L16.4842 755.248 Z" fill="#000000" fill-rule="nonzero" fill-opacity="1" /><circle clip-path="url(#clip542)" cx="412.479" cy="1287.85" r="14.4" fill="#009af9" fill-rule="evenodd" fill-opacity="1" stroke="#000000" stroke-opacity="1" stroke-width="3.2"/>
<circle clip-path="url(#clip542)" cx="415.605" cy="1221.26" r="14.4" fill="#009af9" fill-rule="evenodd" fill-opacity="1" stroke="#000000" stroke-opacity="1" stroke-width="3.2"/>
<circle clip-path="url(#clip542)" cx="382.878" cy="1384.24" r="14.4" fill="#009af9" fill-rule="evenodd" fill-opacity="1" stroke="#000000" stroke-opacity="1" stroke-width="3.2"/>
<circle clip-path="url(#clip542)" cx="262.124" cy="1129.45" r="14.4" fill="#009af9" fill-rule="evenodd" fill-opacity="1" stroke="#000000" stroke-opacity="1" stroke-width="3.2"/>
<circle clip-path="url(#clip542)" cx="440.423" cy="1140.66" r="14.4" fill="#009af9" fill-rule="evenodd" fill-opacity="1" stroke="#000000" stroke-opacity="1" stroke-width="3.2"/>
<circle clip-path="url(#clip542)" cx="1809.73" cy="770.528" r="14.4" fill="#009af9" fill-rule="evenodd" fill-opacity="1" stroke="#000000" stroke-opacity="1" stroke-width="3.2"/>
<circle clip-path="url(#clip542)" cx="1901.41" cy="184.589" r="14.4" fill="#009af9" fill-rule="evenodd" fill-opacity="1" stroke="#000000" stroke-opacity="1" stroke-width="3.2"/>
<circle clip-path="url(#clip542)" cx="2291.86" cy="86.1857" r="14.4" fill="#009af9" fill-rule="evenodd" fill-opacity="1" stroke="#000000" stroke-opacity="1" stroke-width="3.2"/>
<circle clip-path="url(#clip542)" cx="1932.96" cy="967.241" r="14.4" fill="#009af9" fill-rule="evenodd" fill-opacity="1" stroke="#000000" stroke-opacity="1" stroke-width="3.2"/>
<circle clip-path="url(#clip542)" cx="1954.67" cy="1266.95" r="14.4" fill="#009af9" fill-rule="evenodd" fill-opacity="1" stroke="#000000" stroke-opacity="1" stroke-width="3.2"/>
<circle clip-path="url(#clip542)" cx="1954.67" cy="1266.95" r="14.4" fill="#e26f46" fill-rule="evenodd" fill-opacity="1" stroke="#000000" stroke-opacity="1" stroke-width="3.2"/>
<circle clip-path="url(#clip542)" cx="1901.41" cy="184.589" r="14.4" fill="#e26f46" fill-rule="evenodd" fill-opacity="1" stroke="#000000" stroke-opacity="1" stroke-width="3.2"/>
<path clip-path="url(#clip540)" d="M272.95 248.629 L709.443 248.629 L709.443 93.1086 L272.95 93.1086  Z" fill="#ffffff" fill-rule="evenodd" fill-opacity="1"/>
<polyline clip-path="url(#clip540)" style="stroke:#000000; stroke-linecap:round; stroke-linejoin:round; stroke-width:4; stroke-opacity:1; fill:none" points="272.95,248.629 709.443,248.629 709.443,93.1086 272.95,93.1086 272.95,248.629 "/>
<circle clip-path="url(#clip540)" cx="368.573" cy="144.949" r="20.48" fill="#009af9" fill-rule="evenodd" fill-opacity="1" stroke="#000000" stroke-opacity="1" stroke-width="4.55111"/>
<path clip-path="url(#clip540)" d="M483.108 140.238 L483.108 126.21 L487.367 126.21 L487.367 162.229 L483.108 162.229 L483.108 158.34 Q481.765 160.655 479.705 161.789 Q477.668 162.9 474.798 162.9 Q470.099 162.9 467.136 159.15 Q464.196 155.4 464.196 149.289 Q464.196 143.178 467.136 139.428 Q470.099 135.678 474.798 135.678 Q477.668 135.678 479.705 136.812 Q481.765 137.923 483.108 140.238 M468.594 149.289 Q468.594 153.988 470.516 156.673 Q472.46 159.335 475.84 159.335 Q479.219 159.335 481.164 156.673 Q483.108 153.988 483.108 149.289 Q483.108 144.59 481.164 141.928 Q479.219 139.243 475.84 139.243 Q472.46 139.243 470.516 141.928 Q468.594 144.59 468.594 149.289 Z" fill="#000000" fill-rule="nonzero" fill-opacity="1" /><path clip-path="url(#clip540)" d="M507.923 149.196 Q502.761 149.196 500.77 150.377 Q498.779 151.557 498.779 154.405 Q498.779 156.673 500.261 158.016 Q501.765 159.335 504.335 159.335 Q507.876 159.335 510.006 156.835 Q512.159 154.312 512.159 150.145 L512.159 149.196 L507.923 149.196 M516.418 147.437 L516.418 162.229 L512.159 162.229 L512.159 158.293 Q510.701 160.655 508.525 161.789 Q506.349 162.9 503.201 162.9 Q499.219 162.9 496.858 160.678 Q494.52 158.432 494.52 154.682 Q494.52 150.307 497.437 148.085 Q500.376 145.863 506.187 145.863 L512.159 145.863 L512.159 145.446 Q512.159 142.507 510.214 140.909 Q508.293 139.289 504.798 139.289 Q502.576 139.289 500.469 139.821 Q498.363 140.354 496.418 141.419 L496.418 137.483 Q498.756 136.581 500.955 136.141 Q503.154 135.678 505.238 135.678 Q510.863 135.678 513.64 138.594 Q516.418 141.511 516.418 147.437 Z" fill="#000000" fill-rule="nonzero" fill-opacity="1" /><path clip-path="url(#clip540)" d="M529.404 128.942 L529.404 136.303 L538.177 136.303 L538.177 139.613 L529.404 139.613 L529.404 153.687 Q529.404 156.858 530.261 157.761 Q531.14 158.664 533.802 158.664 L538.177 158.664 L538.177 162.229 L533.802 162.229 Q528.872 162.229 526.997 160.4 Q525.122 158.548 525.122 153.687 L525.122 139.613 L521.997 139.613 L521.997 136.303 L525.122 136.303 L525.122 128.942 L529.404 128.942 Z" fill="#000000" fill-rule="nonzero" fill-opacity="1" /><path clip-path="url(#clip540)" d="M555.561 149.196 Q550.399 149.196 548.409 150.377 Q546.418 151.557 546.418 154.405 Q546.418 156.673 547.899 158.016 Q549.404 159.335 551.973 159.335 Q555.515 159.335 557.645 156.835 Q559.797 154.312 559.797 150.145 L559.797 149.196 L555.561 149.196 M564.057 147.437 L564.057 162.229 L559.797 162.229 L559.797 158.293 Q558.339 160.655 556.163 161.789 Q553.987 162.9 550.839 162.9 Q546.858 162.9 544.497 160.678 Q542.159 158.432 542.159 154.682 Q542.159 150.307 545.075 148.085 Q548.015 145.863 553.825 145.863 L559.797 145.863 L559.797 145.446 Q559.797 142.507 557.853 140.909 Q555.932 139.289 552.436 139.289 Q550.214 139.289 548.108 139.821 Q546.001 140.354 544.057 141.419 L544.057 137.483 Q546.395 136.581 548.594 136.141 Q550.793 135.678 552.876 135.678 Q558.501 135.678 561.279 138.594 Q564.057 141.511 564.057 147.437 Z" fill="#000000" fill-rule="nonzero" fill-opacity="1" /><path clip-path="url(#clip540)" d="M592.529 170.099 L592.529 173.409 L567.899 173.409 L567.899 170.099 L592.529 170.099 Z" fill="#000000" fill-rule="nonzero" fill-opacity="1" /><path clip-path="url(#clip540)" d="M613.061 137.067 L613.061 141.094 Q611.256 140.169 609.311 139.706 Q607.367 139.243 605.283 139.243 Q602.112 139.243 600.515 140.215 Q598.941 141.187 598.941 143.131 Q598.941 144.613 600.075 145.469 Q601.209 146.303 604.635 147.067 L606.094 147.391 Q610.631 148.363 612.529 150.145 Q614.45 151.905 614.45 155.076 Q614.45 158.687 611.58 160.793 Q608.732 162.9 603.732 162.9 Q601.649 162.9 599.381 162.483 Q597.135 162.09 594.635 161.28 L594.635 156.881 Q596.996 158.108 599.288 158.733 Q601.58 159.335 603.825 159.335 Q606.834 159.335 608.455 158.317 Q610.075 157.275 610.075 155.4 Q610.075 153.664 608.894 152.738 Q607.737 151.812 603.779 150.956 L602.297 150.608 Q598.339 149.775 596.58 148.062 Q594.82 146.326 594.82 143.317 Q594.82 139.659 597.413 137.669 Q600.006 135.678 604.774 135.678 Q607.135 135.678 609.218 136.025 Q611.302 136.372 613.061 137.067 Z" fill="#000000" fill-rule="nonzero" fill-opacity="1" /><circle clip-path="url(#clip540)" cx="368.573" cy="196.789" r="20.48" fill="#e26f46" fill-rule="evenodd" fill-opacity="1" stroke="#000000" stroke-opacity="1" stroke-width="4.55111"/>
<path clip-path="url(#clip540)" d="M492.066 182.171 L492.066 187.101 Q489.705 184.902 487.02 183.814 Q484.358 182.726 481.349 182.726 Q475.423 182.726 472.275 186.36 Q469.127 189.972 469.127 196.823 Q469.127 203.652 472.275 207.286 Q475.423 210.897 481.349 210.897 Q484.358 210.897 487.02 209.809 Q489.705 208.721 492.066 206.522 L492.066 211.407 Q489.613 213.073 486.858 213.907 Q484.127 214.74 481.071 214.74 Q473.224 214.74 468.71 209.948 Q464.196 205.133 464.196 196.823 Q464.196 188.49 468.71 183.698 Q473.224 178.884 481.071 178.884 Q484.173 178.884 486.904 179.717 Q489.659 180.527 492.066 182.171 Z" fill="#000000" fill-rule="nonzero" fill-opacity="1" /><path clip-path="url(#clip540)" d="M521.279 200.041 L521.279 202.124 L501.696 202.124 Q501.974 206.522 504.335 208.837 Q506.719 211.129 510.955 211.129 Q513.409 211.129 515.7 210.527 Q518.015 209.925 520.284 208.721 L520.284 212.749 Q517.992 213.721 515.585 214.231 Q513.177 214.74 510.701 214.74 Q504.497 214.74 500.863 211.129 Q497.252 207.518 497.252 201.36 Q497.252 194.995 500.677 191.268 Q504.126 187.518 509.96 187.518 Q515.191 187.518 518.224 190.897 Q521.279 194.254 521.279 200.041 M517.02 198.791 Q516.974 195.296 515.052 193.212 Q513.154 191.129 510.006 191.129 Q506.441 191.129 504.289 193.143 Q502.159 195.157 501.835 198.814 L517.02 198.791 Z" fill="#000000" fill-rule="nonzero" fill-opacity="1" /><path clip-path="url(#clip540)" d="M549.821 198.421 L549.821 214.069 L545.561 214.069 L545.561 198.559 Q545.561 194.879 544.126 193.05 Q542.691 191.222 539.821 191.222 Q536.372 191.222 534.381 193.421 Q532.39 195.62 532.39 199.416 L532.39 214.069 L528.108 214.069 L528.108 188.143 L532.39 188.143 L532.39 192.171 Q533.918 189.833 535.978 188.675 Q538.061 187.518 540.77 187.518 Q545.237 187.518 547.529 190.296 Q549.821 193.05 549.821 198.421 Z" fill="#000000" fill-rule="nonzero" fill-opacity="1" /><path clip-path="url(#clip540)" d="M562.529 180.782 L562.529 188.143 L571.302 188.143 L571.302 191.453 L562.529 191.453 L562.529 205.527 Q562.529 208.698 563.385 209.601 Q564.265 210.504 566.927 210.504 L571.302 210.504 L571.302 214.069 L566.927 214.069 Q561.997 214.069 560.122 212.24 Q558.247 210.388 558.247 205.527 L558.247 191.453 L555.122 191.453 L555.122 188.143 L558.247 188.143 L558.247 180.782 L562.529 180.782 Z" fill="#000000" fill-rule="nonzero" fill-opacity="1" /><path clip-path="url(#clip540)" d="M591.927 192.124 Q591.209 191.708 590.353 191.522 Q589.52 191.314 588.501 191.314 Q584.89 191.314 582.945 193.675 Q581.024 196.013 581.024 200.411 L581.024 214.069 L576.742 214.069 L576.742 188.143 L581.024 188.143 L581.024 192.171 Q582.367 189.809 584.52 188.675 Q586.672 187.518 589.751 187.518 Q590.191 187.518 590.723 187.587 Q591.256 187.634 591.904 187.749 L591.927 192.124 Z" fill="#000000" fill-rule="nonzero" fill-opacity="1" /><path clip-path="url(#clip540)" d="M605.399 191.129 Q601.973 191.129 599.982 193.814 Q597.992 196.476 597.992 201.129 Q597.992 205.782 599.959 208.467 Q601.95 211.129 605.399 211.129 Q608.802 211.129 610.793 208.444 Q612.783 205.758 612.783 201.129 Q612.783 196.522 610.793 193.837 Q608.802 191.129 605.399 191.129 M605.399 187.518 Q610.955 187.518 614.126 191.129 Q617.297 194.74 617.297 201.129 Q617.297 207.495 614.126 211.129 Q610.955 214.74 605.399 214.74 Q599.82 214.74 596.649 211.129 Q593.501 207.495 593.501 201.129 Q593.501 194.74 596.649 191.129 Q599.82 187.518 605.399 187.518 Z" fill="#000000" fill-rule="nonzero" fill-opacity="1" /><path clip-path="url(#clip540)" d="M624.357 188.143 L628.617 188.143 L628.617 214.069 L624.357 214.069 L624.357 188.143 M624.357 178.05 L628.617 178.05 L628.617 183.444 L624.357 183.444 L624.357 178.05 Z" fill="#000000" fill-rule="nonzero" fill-opacity="1" /><path clip-path="url(#clip540)" d="M654.589 192.078 L654.589 178.05 L658.848 178.05 L658.848 214.069 L654.589 214.069 L654.589 210.18 Q653.246 212.495 651.186 213.629 Q649.149 214.74 646.278 214.74 Q641.579 214.74 638.616 210.99 Q635.677 207.24 635.677 201.129 Q635.677 195.018 638.616 191.268 Q641.579 187.518 646.278 187.518 Q649.149 187.518 651.186 188.652 Q653.246 189.763 654.589 192.078 M640.075 201.129 Q640.075 205.828 641.996 208.513 Q643.941 211.175 647.32 211.175 Q650.7 211.175 652.644 208.513 Q654.589 205.828 654.589 201.129 Q654.589 196.43 652.644 193.768 Q650.7 191.083 647.32 191.083 Q643.941 191.083 641.996 193.768 Q640.075 196.43 640.075 201.129 Z" fill="#000000" fill-rule="nonzero" fill-opacity="1" /><path clip-path="url(#clip540)" d="M684.149 188.907 L684.149 192.934 Q682.343 192.009 680.399 191.546 Q678.454 191.083 676.371 191.083 Q673.2 191.083 671.602 192.055 Q670.028 193.027 670.028 194.971 Q670.028 196.453 671.163 197.309 Q672.297 198.143 675.723 198.907 L677.181 199.231 Q681.718 200.203 683.616 201.985 Q685.538 203.745 685.538 206.916 Q685.538 210.527 682.667 212.633 Q679.82 214.74 674.82 214.74 Q672.737 214.74 670.468 214.323 Q668.223 213.93 665.723 213.12 L665.723 208.721 Q668.084 209.948 670.376 210.573 Q672.667 211.175 674.913 211.175 Q677.922 211.175 679.542 210.157 Q681.163 209.115 681.163 207.24 Q681.163 205.504 679.982 204.578 Q678.825 203.652 674.866 202.796 L673.385 202.448 Q669.427 201.615 667.667 199.902 Q665.908 198.166 665.908 195.157 Q665.908 191.499 668.501 189.509 Q671.093 187.518 675.862 187.518 Q678.223 187.518 680.306 187.865 Q682.389 188.212 684.149 188.907 Z" fill="#000000" fill-rule="nonzero" fill-opacity="1" /></svg>
