<?xml version="1.0" encoding="utf-8"?>
<svg xmlns="http://www.w3.org/2000/svg" xmlns:xlink="http://www.w3.org/1999/xlink" width="600" height="400" viewBox="0 0 2400 1600">
<defs>
  <clipPath id="clip310">
    <rect x="0" y="0" width="2400" height="1600"/>
  </clipPath>
</defs>
<path clip-path="url(#clip310)" d="M0 1600 L2400 1600 L2400 0 L0 0  Z" fill="#ffffff" fill-rule="evenodd" fill-opacity="1"/>
<defs>
  <clipPath id="clip311">
    <rect x="480" y="0" width="1681" height="1600"/>
  </clipPath>
</defs>
<path clip-path="url(#clip310)" d="M202.227 1423.18 L2352.76 1423.18 L2352.76 47.2441 L202.227 47.2441  Z" fill="#ffffff" fill-rule="evenodd" fill-opacity="1"/>
<defs>
  <clipPath id="clip312">
    <rect x="202" y="47" width="2152" height="1377"/>
  </clipPath>
</defs>
<polyline clip-path="url(#clip312)" style="stroke:#000000; stroke-linecap:round; stroke-linejoin:round; stroke-width:2; stroke-opacity:0.1; fill:none" points="430.671,1423.18 430.671,47.2441 "/>
<polyline clip-path="url(#clip312)" style="stroke:#000000; stroke-linecap:round; stroke-linejoin:round; stroke-width:2; stroke-opacity:0.1; fill:none" points="902.113,1423.18 902.113,47.2441 "/>
<polyline clip-path="url(#clip312)" style="stroke:#000000; stroke-linecap:round; stroke-linejoin:round; stroke-width:2; stroke-opacity:0.1; fill:none" points="1373.56,1423.18 1373.56,47.2441 "/>
<polyline clip-path="url(#clip312)" style="stroke:#000000; stroke-linecap:round; stroke-linejoin:round; stroke-width:2; stroke-opacity:0.1; fill:none" points="1845,1423.18 1845,47.2441 "/>
<polyline clip-path="url(#clip312)" style="stroke:#000000; stroke-linecap:round; stroke-linejoin:round; stroke-width:2; stroke-opacity:0.1; fill:none" points="2316.44,1423.18 2316.44,47.2441 "/>
<polyline clip-path="url(#clip312)" style="stroke:#000000; stroke-linecap:round; stroke-linejoin:round; stroke-width:2; stroke-opacity:0.1; fill:none" points="202.227,1417.98 2352.76,1417.98 "/>
<polyline clip-path="url(#clip312)" style="stroke:#000000; stroke-linecap:round; stroke-linejoin:round; stroke-width:2; stroke-opacity:0.1; fill:none" points="202.227,1052.02 2352.76,1052.02 "/>
<polyline clip-path="url(#clip312)" style="stroke:#000000; stroke-linecap:round; stroke-linejoin:round; stroke-width:2; stroke-opacity:0.1; fill:none" points="202.227,686.061 2352.76,686.061 "/>
<polyline clip-path="url(#clip312)" style="stroke:#000000; stroke-linecap:round; stroke-linejoin:round; stroke-width:2; stroke-opacity:0.1; fill:none" points="202.227,320.1 2352.76,320.1 "/>
<polyline clip-path="url(#clip310)" style="stroke:#000000; stroke-linecap:round; stroke-linejoin:round; stroke-width:4; stroke-opacity:1; fill:none" points="202.227,1423.18 2352.76,1423.18 "/>
<polyline clip-path="url(#clip310)" style="stroke:#000000; stroke-linecap:round; stroke-linejoin:round; stroke-width:4; stroke-opacity:1; fill:none" points="430.671,1423.18 430.671,1404.28 "/>
<polyline clip-path="url(#clip310)" style="stroke:#000000; stroke-linecap:round; stroke-linejoin:round; stroke-width:4; stroke-opacity:1; fill:none" points="902.113,1423.18 902.113,1404.28 "/>
<polyline clip-path="url(#clip310)" style="stroke:#000000; stroke-linecap:round; stroke-linejoin:round; stroke-width:4; stroke-opacity:1; fill:none" points="1373.56,1423.18 1373.56,1404.28 "/>
<polyline clip-path="url(#clip310)" style="stroke:#000000; stroke-linecap:round; stroke-linejoin:round; stroke-width:4; stroke-opacity:1; fill:none" points="1845,1423.18 1845,1404.28 "/>
<polyline clip-path="url(#clip310)" style="stroke:#000000; stroke-linecap:round; stroke-linejoin:round; stroke-width:4; stroke-opacity:1; fill:none" points="2316.44,1423.18 2316.44,1404.28 "/>
<path clip-path="url(#clip310)" d="M425.324 1481.64 L441.644 1481.64 L441.644 1485.58 L419.699 1485.58 L419.699 1481.64 Q422.361 1478.89 426.945 1474.26 Q431.551 1469.61 432.732 1468.27 Q434.977 1465.74 435.857 1464.01 Q436.759 1462.25 436.759 1460.56 Q436.759 1457.8 434.815 1456.07 Q432.894 1454.33 429.792 1454.33 Q427.593 1454.33 425.139 1455.09 Q422.709 1455.86 419.931 1457.41 L419.931 1452.69 Q422.755 1451.55 425.209 1450.97 Q427.662 1450.39 429.699 1450.39 Q435.07 1450.39 438.264 1453.08 Q441.458 1455.77 441.458 1460.26 Q441.458 1462.39 440.648 1464.31 Q439.861 1466.2 437.755 1468.8 Q437.176 1469.47 434.074 1472.69 Q430.972 1475.88 425.324 1481.64 Z" fill="#000000" fill-rule="nonzero" fill-opacity="1" /><path clip-path="url(#clip310)" d="M905.123 1455.09 L893.317 1473.54 L905.123 1473.54 L905.123 1455.09 M903.896 1451.02 L909.775 1451.02 L909.775 1473.54 L914.706 1473.54 L914.706 1477.43 L909.775 1477.43 L909.775 1485.58 L905.123 1485.58 L905.123 1477.43 L889.521 1477.43 L889.521 1472.92 L903.896 1451.02 Z" fill="#000000" fill-rule="nonzero" fill-opacity="1" /><path clip-path="url(#clip310)" d="M1373.96 1466.44 Q1370.81 1466.44 1368.96 1468.59 Q1367.13 1470.74 1367.13 1474.49 Q1367.13 1478.22 1368.96 1480.39 Q1370.81 1482.55 1373.96 1482.55 Q1377.11 1482.55 1378.94 1480.39 Q1380.79 1478.22 1380.79 1474.49 Q1380.79 1470.74 1378.94 1468.59 Q1377.11 1466.44 1373.96 1466.44 M1383.24 1451.78 L1383.24 1456.04 Q1381.48 1455.21 1379.68 1454.77 Q1377.9 1454.33 1376.14 1454.33 Q1371.51 1454.33 1369.05 1457.45 Q1366.62 1460.58 1366.28 1466.9 Q1367.64 1464.89 1369.7 1463.82 Q1371.76 1462.73 1374.24 1462.73 Q1379.45 1462.73 1382.46 1465.9 Q1385.49 1469.05 1385.49 1474.49 Q1385.49 1479.82 1382.34 1483.03 Q1379.19 1486.25 1373.96 1486.25 Q1367.97 1486.25 1364.79 1481.67 Q1361.62 1477.06 1361.62 1468.33 Q1361.62 1460.14 1365.51 1455.28 Q1369.4 1450.39 1375.95 1450.39 Q1377.71 1450.39 1379.49 1450.74 Q1381.3 1451.09 1383.24 1451.78 Z" fill="#000000" fill-rule="nonzero" fill-opacity="1" /><path clip-path="url(#clip310)" d="M1845 1469.17 Q1841.66 1469.17 1839.74 1470.95 Q1837.84 1472.73 1837.84 1475.86 Q1837.84 1478.98 1839.74 1480.77 Q1841.66 1482.55 1845 1482.55 Q1848.33 1482.55 1850.25 1480.77 Q1852.17 1478.96 1852.17 1475.86 Q1852.17 1472.73 1850.25 1470.95 Q1848.35 1469.17 1845 1469.17 M1840.32 1467.18 Q1837.31 1466.44 1835.62 1464.38 Q1833.96 1462.32 1833.96 1459.35 Q1833.96 1455.21 1836.9 1452.8 Q1839.86 1450.39 1845 1450.39 Q1850.16 1450.39 1853.1 1452.8 Q1856.04 1455.21 1856.04 1459.35 Q1856.04 1462.32 1854.35 1464.38 Q1852.68 1466.44 1849.7 1467.18 Q1853.08 1467.96 1854.95 1470.26 Q1856.85 1472.55 1856.85 1475.86 Q1856.85 1480.88 1853.77 1483.57 Q1850.71 1486.25 1845 1486.25 Q1839.28 1486.25 1836.2 1483.57 Q1833.15 1480.88 1833.15 1475.86 Q1833.15 1472.55 1835.04 1470.26 Q1836.94 1467.96 1840.32 1467.18 M1838.61 1459.79 Q1838.61 1462.48 1840.28 1463.98 Q1841.96 1465.49 1845 1465.49 Q1848.01 1465.49 1849.7 1463.98 Q1851.41 1462.48 1851.41 1459.79 Q1851.41 1457.11 1849.7 1455.6 Q1848.01 1454.1 1845 1454.1 Q1841.96 1454.1 1840.28 1455.6 Q1838.61 1457.11 1838.61 1459.79 Z" fill="#000000" fill-rule="nonzero" fill-opacity="1" /><path clip-path="url(#clip310)" d="M2291.13 1481.64 L2298.77 1481.64 L2298.77 1455.28 L2290.46 1456.95 L2290.46 1452.69 L2298.72 1451.02 L2303.4 1451.02 L2303.4 1481.64 L2311.03 1481.64 L2311.03 1485.58 L2291.13 1485.58 L2291.13 1481.64 Z" fill="#000000" fill-rule="nonzero" fill-opacity="1" /><path clip-path="url(#clip310)" d="M2330.48 1454.1 Q2326.87 1454.1 2325.04 1457.66 Q2323.23 1461.2 2323.23 1468.33 Q2323.23 1475.44 2325.04 1479.01 Q2326.87 1482.55 2330.48 1482.55 Q2334.11 1482.55 2335.92 1479.01 Q2337.75 1475.44 2337.75 1468.33 Q2337.75 1461.2 2335.92 1457.66 Q2334.11 1454.1 2330.48 1454.1 M2330.48 1450.39 Q2336.29 1450.39 2339.34 1455 Q2342.42 1459.58 2342.42 1468.33 Q2342.42 1477.06 2339.34 1481.67 Q2336.29 1486.25 2330.48 1486.25 Q2324.67 1486.25 2321.59 1481.67 Q2318.53 1477.06 2318.53 1468.33 Q2318.53 1459.58 2321.59 1455 Q2324.67 1450.39 2330.48 1450.39 Z" fill="#000000" fill-rule="nonzero" fill-opacity="1" /><path clip-path="url(#clip310)" d="M1259.32 1520.52 L1266.22 1520.52 L1278.03 1538.19 L1289.9 1520.52 L1296.81 1520.52 L1281.53 1543.34 L1297.83 1568.04 L1290.92 1568.04 L1277.56 1547.83 L1264.09 1568.04 L1257.15 1568.04 L1274.12 1542.68 L1259.32 1520.52 Z" fill="#000000" fill-rule="nonzero" fill-opacity="1" /><polyline clip-path="url(#clip310)" style="stroke:#000000; stroke-linecap:round; stroke-linejoin:round; stroke-width:4; stroke-opacity:1; fill:none" points="202.227,1423.18 202.227,47.2441 "/>
<polyline clip-path="url(#clip310)" style="stroke:#000000; stroke-linecap:round; stroke-linejoin:round; stroke-width:4; stroke-opacity:1; fill:none" points="202.227,1417.98 221.125,1417.98 "/>
<polyline clip-path="url(#clip310)" style="stroke:#000000; stroke-linecap:round; stroke-linejoin:round; stroke-width:4; stroke-opacity:1; fill:none" points="202.227,1052.02 221.125,1052.02 "/>
<polyline clip-path="url(#clip310)" style="stroke:#000000; stroke-linecap:round; stroke-linejoin:round; stroke-width:4; stroke-opacity:1; fill:none" points="202.227,686.061 221.125,686.061 "/>
<polyline clip-path="url(#clip310)" style="stroke:#000000; stroke-linecap:round; stroke-linejoin:round; stroke-width:4; stroke-opacity:1; fill:none" points="202.227,320.1 221.125,320.1 "/>
<path clip-path="url(#clip310)" d="M154.283 1403.78 Q150.672 1403.78 148.843 1407.35 Q147.038 1410.89 147.038 1418.02 Q147.038 1425.12 148.843 1428.69 Q150.672 1432.23 154.283 1432.23 Q157.917 1432.23 159.723 1428.69 Q161.552 1425.12 161.552 1418.02 Q161.552 1410.89 159.723 1407.35 Q157.917 1403.78 154.283 1403.78 M154.283 1400.08 Q160.093 1400.08 163.149 1404.68 Q166.227 1409.27 166.227 1418.02 Q166.227 1426.74 163.149 1431.35 Q160.093 1435.93 154.283 1435.93 Q148.473 1435.93 145.394 1431.35 Q142.339 1426.74 142.339 1418.02 Q142.339 1409.27 145.394 1404.68 Q148.473 1400.08 154.283 1400.08 Z" fill="#000000" fill-rule="nonzero" fill-opacity="1" /><path clip-path="url(#clip310)" d="M145.325 1034.74 L163.681 1034.74 L163.681 1038.68 L149.607 1038.68 L149.607 1047.15 Q150.626 1046.8 151.644 1046.64 Q152.663 1046.46 153.681 1046.46 Q159.468 1046.46 162.848 1049.63 Q166.227 1052.8 166.227 1058.21 Q166.227 1063.79 162.755 1066.89 Q159.283 1069.97 152.964 1069.97 Q150.788 1069.97 148.519 1069.6 Q146.274 1069.23 143.866 1068.49 L143.866 1063.79 Q145.95 1064.93 148.172 1065.48 Q150.394 1066.04 152.871 1066.04 Q156.876 1066.04 159.214 1063.93 Q161.552 1061.83 161.552 1058.21 Q161.552 1054.6 159.214 1052.5 Q156.876 1050.39 152.871 1050.39 Q150.996 1050.39 149.121 1050.81 Q147.269 1051.22 145.325 1052.1 L145.325 1034.74 Z" fill="#000000" fill-rule="nonzero" fill-opacity="1" /><path clip-path="url(#clip310)" d="M114.931 699.406 L122.57 699.406 L122.57 673.04 L114.26 674.707 L114.26 670.448 L122.524 668.781 L127.2 668.781 L127.2 699.406 L134.839 699.406 L134.839 703.341 L114.931 703.341 L114.931 699.406 Z" fill="#000000" fill-rule="nonzero" fill-opacity="1" /><path clip-path="url(#clip310)" d="M154.283 671.86 Q150.672 671.86 148.843 675.425 Q147.038 678.966 147.038 686.096 Q147.038 693.202 148.843 696.767 Q150.672 700.309 154.283 700.309 Q157.917 700.309 159.723 696.767 Q161.552 693.202 161.552 686.096 Q161.552 678.966 159.723 675.425 Q157.917 671.86 154.283 671.86 M154.283 668.156 Q160.093 668.156 163.149 672.763 Q166.227 677.346 166.227 686.096 Q166.227 694.823 163.149 699.429 Q160.093 704.012 154.283 704.012 Q148.473 704.012 145.394 699.429 Q142.339 694.823 142.339 686.096 Q142.339 677.346 145.394 672.763 Q148.473 668.156 154.283 668.156 Z" fill="#000000" fill-rule="nonzero" fill-opacity="1" /><path clip-path="url(#clip310)" d="M115.927 333.445 L123.566 333.445 L123.566 307.079 L115.256 308.746 L115.256 304.487 L123.519 302.82 L128.195 302.82 L128.195 333.445 L135.834 333.445 L135.834 337.38 L115.927 337.38 L115.927 333.445 Z" fill="#000000" fill-rule="nonzero" fill-opacity="1" /><path clip-path="url(#clip310)" d="M145.325 302.82 L163.681 302.82 L163.681 306.755 L149.607 306.755 L149.607 315.227 Q150.626 314.88 151.644 314.718 Q152.663 314.533 153.681 314.533 Q159.468 314.533 162.848 317.704 Q166.227 320.875 166.227 326.292 Q166.227 331.871 162.755 334.972 Q159.283 338.051 152.964 338.051 Q150.788 338.051 148.519 337.681 Q146.274 337.31 143.866 336.57 L143.866 331.871 Q145.95 333.005 148.172 333.56 Q150.394 334.116 152.871 334.116 Q156.876 334.116 159.214 332.01 Q161.552 329.903 161.552 326.292 Q161.552 322.681 159.214 320.574 Q156.876 318.468 152.871 318.468 Q150.996 318.468 149.121 318.885 Q147.269 319.301 145.325 320.181 L145.325 302.82 Z" fill="#000000" fill-rule="nonzero" fill-opacity="1" /><path clip-path="url(#clip310)" d="M16.4842 755.248 L16.4842 748.341 L36.0269 735.164 L16.4842 722.083 L16.4842 715.176 L41.3741 731.981 L64.0042 731.981 L64.0042 738.443 L41.3741 738.443 L16.4842 755.248 Z" fill="#000000" fill-rule="nonzero" fill-opacity="1" /><circle clip-path="url(#clip312)" cx="263.091" cy="1288.35" r="14.4" fill="#009af9" fill-rule="evenodd" fill-opacity="1" stroke="#000000" stroke-opacity="1" stroke-width="3.2"/>
<circle clip-path="url(#clip312)" cx="361.017" cy="1262.57" r="14.4" fill="#009af9" fill-rule="evenodd" fill-opacity="1" stroke="#000000" stroke-opacity="1" stroke-width="3.2"/>
<circle clip-path="url(#clip312)" cx="330.623" cy="1384.24" r="14.4" fill="#009af9" fill-rule="evenodd" fill-opacity="1" stroke="#000000" stroke-opacity="1" stroke-width="3.2"/>
<circle clip-path="url(#clip312)" cx="374.189" cy="1380.47" r="14.4" fill="#009af9" fill-rule="evenodd" fill-opacity="1" stroke="#000000" stroke-opacity="1" stroke-width="3.2"/>
<circle clip-path="url(#clip312)" cx="323.797" cy="1113.86" r="14.4" fill="#009af9" fill-rule="evenodd" fill-opacity="1" stroke="#000000" stroke-opacity="1" stroke-width="3.2"/>
<circle clip-path="url(#clip312)" cx="1693.12" cy="1361.65" r="14.4" fill="#009af9" fill-rule="evenodd" fill-opacity="1" stroke="#000000" stroke-opacity="1" stroke-width="3.2"/>
<circle clip-path="url(#clip312)" cx="2291.89" cy="86.1857" r="14.4" fill="#e26f46" fill-rule="evenodd" fill-opacity="1" stroke="#000000" stroke-opacity="1" stroke-width="3.2"/>
<circle clip-path="url(#clip312)" cx="1537.04" cy="708.197" r="14.4" fill="#e26f46" fill-rule="evenodd" fill-opacity="1" stroke="#000000" stroke-opacity="1" stroke-width="3.2"/>
<circle clip-path="url(#clip312)" cx="1974.79" cy="530.104" r="14.4" fill="#e26f46" fill-rule="evenodd" fill-opacity="1" stroke="#000000" stroke-opacity="1" stroke-width="3.2"/>
<circle clip-path="url(#clip312)" cx="1706.77" cy="831.148" r="14.4" fill="#e26f46" fill-rule="evenodd" fill-opacity="1" stroke="#000000" stroke-opacity="1" stroke-width="3.2"/>
<circle clip-path="url(#clip312)" cx="557.64" cy="1298.52" r="14.4" fill="#3da44d" fill-rule="evenodd" fill-opacity="1" stroke="#000000" stroke-opacity="1" stroke-width="3.2"/>
<circle clip-path="url(#clip312)" cx="1877.62" cy="538.909" r="14.4" fill="#3da44d" fill-rule="evenodd" fill-opacity="1" stroke="#000000" stroke-opacity="1" stroke-width="3.2"/>
<path clip-path="url(#clip310)" d="M273.912 300.469 L710.306 300.469 L710.306 93.1086 L273.912 93.1086  Z" fill="#ffffff" fill-rule="evenodd" fill-opacity="1"/>
<polyline clip-path="url(#clip310)" style="stroke:#000000; stroke-linecap:round; stroke-linejoin:round; stroke-width:4; stroke-opacity:1; fill:none" points="273.912,300.469 710.306,300.469 710.306,93.1086 273.912,93.1086 273.912,300.469 "/>
<circle clip-path="url(#clip310)" cx="369.491" cy="144.949" r="20.48" fill="#009af9" fill-rule="evenodd" fill-opacity="1" stroke="#000000" stroke-opacity="1" stroke-width="4.55111"/>
<path clip-path="url(#clip310)" d="M465.741 158.293 L473.38 158.293 L473.38 131.928 L465.07 133.595 L465.07 129.335 L473.334 127.669 L478.01 127.669 L478.01 158.293 L485.648 158.293 L485.648 162.229 L465.741 162.229 L465.741 158.293 Z" fill="#000000" fill-rule="nonzero" fill-opacity="1" /><circle clip-path="url(#clip310)" cx="369.491" cy="196.789" r="20.48" fill="#e26f46" fill-rule="evenodd" fill-opacity="1" stroke="#000000" stroke-opacity="1" stroke-width="4.55111"/>
<path clip-path="url(#clip310)" d="M470.695 210.133 L487.014 210.133 L487.014 214.069 L465.07 214.069 L465.07 210.133 Q467.732 207.379 472.315 202.749 Q476.922 198.096 478.102 196.754 Q480.348 194.231 481.227 192.495 Q482.13 190.735 482.13 189.046 Q482.13 186.291 480.185 184.555 Q478.264 182.819 475.162 182.819 Q472.963 182.819 470.51 183.583 Q468.079 184.347 465.301 185.897 L465.301 181.175 Q468.125 180.041 470.579 179.462 Q473.033 178.884 475.07 178.884 Q480.44 178.884 483.635 181.569 Q486.829 184.254 486.829 188.745 Q486.829 190.874 486.019 192.796 Q485.232 194.694 483.125 197.286 Q482.547 197.958 479.445 201.175 Q476.343 204.37 470.695 210.133 Z" fill="#000000" fill-rule="nonzero" fill-opacity="1" /><circle clip-path="url(#clip310)" cx="369.491" cy="248.629" r="20.48" fill="#3da44d" fill-rule="evenodd" fill-opacity="1" stroke="#000000" stroke-opacity="1" stroke-width="4.55111"/>
<path clip-path="url(#clip310)" d="M492.94 234.011 L492.94 238.941 Q490.579 236.742 487.894 235.654 Q485.232 234.566 482.223 234.566 Q476.297 234.566 473.148 238.2 Q470 241.812 470 248.663 Q470 255.492 473.148 259.126 Q476.297 262.737 482.223 262.737 Q485.232 262.737 487.894 261.649 Q490.579 260.561 492.94 258.362 L492.94 263.247 Q490.486 264.913 487.732 265.747 Q485 266.58 481.945 266.58 Q474.098 266.58 469.584 261.788 Q465.07 256.973 465.07 248.663 Q465.07 240.33 469.584 235.538 Q474.098 230.724 481.945 230.724 Q485.047 230.724 487.778 231.557 Q490.533 232.367 492.94 234.011 Z" fill="#000000" fill-rule="nonzero" fill-opacity="1" /><path clip-path="url(#clip310)" d="M522.153 251.881 L522.153 253.964 L502.57 253.964 Q502.847 258.362 505.209 260.677 Q507.593 262.969 511.829 262.969 Q514.283 262.969 516.574 262.367 Q518.889 261.765 521.157 260.561 L521.157 264.589 Q518.866 265.561 516.458 266.071 Q514.051 266.58 511.574 266.58 Q505.371 266.58 501.736 262.969 Q498.125 259.358 498.125 253.2 Q498.125 246.835 501.551 243.108 Q505 239.358 510.833 239.358 Q516.065 239.358 519.097 242.737 Q522.153 246.094 522.153 251.881 M517.894 250.631 Q517.847 247.136 515.926 245.052 Q514.028 242.969 510.88 242.969 Q507.315 242.969 505.162 244.983 Q503.033 246.997 502.709 250.654 L517.894 250.631 Z" fill="#000000" fill-rule="nonzero" fill-opacity="1" /><path clip-path="url(#clip310)" d="M550.694 250.261 L550.694 265.909 L546.435 265.909 L546.435 250.399 Q546.435 246.719 545 244.89 Q543.565 243.062 540.694 243.062 Q537.245 243.062 535.255 245.261 Q533.264 247.46 533.264 251.256 L533.264 265.909 L528.982 265.909 L528.982 239.983 L533.264 239.983 L533.264 244.011 Q534.792 241.673 536.852 240.515 Q538.935 239.358 541.643 239.358 Q546.111 239.358 548.403 242.136 Q550.694 244.89 550.694 250.261 Z" fill="#000000" fill-rule="nonzero" fill-opacity="1" /><path clip-path="url(#clip310)" d="M563.403 232.622 L563.403 239.983 L572.176 239.983 L572.176 243.293 L563.403 243.293 L563.403 257.367 Q563.403 260.538 564.259 261.441 Q565.139 262.344 567.801 262.344 L572.176 262.344 L572.176 265.909 L567.801 265.909 Q562.87 265.909 560.995 264.08 Q559.12 262.228 559.12 257.367 L559.12 243.293 L555.995 243.293 L555.995 239.983 L559.12 239.983 L559.12 232.622 L563.403 232.622 Z" fill="#000000" fill-rule="nonzero" fill-opacity="1" /><path clip-path="url(#clip310)" d="M592.801 243.964 Q592.083 243.548 591.227 243.362 Q590.393 243.154 589.375 243.154 Q585.764 243.154 583.819 245.515 Q581.898 247.853 581.898 252.251 L581.898 265.909 L577.616 265.909 L577.616 239.983 L581.898 239.983 L581.898 244.011 Q583.24 241.649 585.393 240.515 Q587.546 239.358 590.625 239.358 Q591.065 239.358 591.597 239.427 Q592.129 239.474 592.777 239.589 L592.801 243.964 Z" fill="#000000" fill-rule="nonzero" fill-opacity="1" /><path clip-path="url(#clip310)" d="M606.273 242.969 Q602.847 242.969 600.856 245.654 Q598.865 248.316 598.865 252.969 Q598.865 257.622 600.833 260.307 Q602.824 262.969 606.273 262.969 Q609.676 262.969 611.666 260.284 Q613.657 257.598 613.657 252.969 Q613.657 248.362 611.666 245.677 Q609.676 242.969 606.273 242.969 M606.273 239.358 Q611.828 239.358 615 242.969 Q618.171 246.58 618.171 252.969 Q618.171 259.335 615 262.969 Q611.828 266.58 606.273 266.58 Q600.694 266.58 597.523 262.969 Q594.375 259.335 594.375 252.969 Q594.375 246.58 597.523 242.969 Q600.694 239.358 606.273 239.358 Z" fill="#000000" fill-rule="nonzero" fill-opacity="1" /><path clip-path="url(#clip310)" d="M625.231 239.983 L629.49 239.983 L629.49 265.909 L625.231 265.909 L625.231 239.983 M625.231 229.89 L629.49 229.89 L629.49 235.284 L625.231 235.284 L625.231 229.89 Z" fill="#000000" fill-rule="nonzero" fill-opacity="1" /><path clip-path="url(#clip310)" d="M655.462 243.918 L655.462 229.89 L659.722 229.89 L659.722 265.909 L655.462 265.909 L655.462 262.02 Q654.12 264.335 652.06 265.469 Q650.023 266.58 647.152 266.58 Q642.453 266.58 639.49 262.83 Q636.55 259.08 636.55 252.969 Q636.55 246.858 639.49 243.108 Q642.453 239.358 647.152 239.358 Q650.023 239.358 652.06 240.492 Q654.12 241.603 655.462 243.918 M640.949 252.969 Q640.949 257.668 642.87 260.353 Q644.814 263.015 648.194 263.015 Q651.573 263.015 653.518 260.353 Q655.462 257.668 655.462 252.969 Q655.462 248.27 653.518 245.608 Q651.573 242.923 648.194 242.923 Q644.814 242.923 642.87 245.608 Q640.949 248.27 640.949 252.969 Z" fill="#000000" fill-rule="nonzero" fill-opacity="1" /><path clip-path="url(#clip310)" d="M685.022 240.747 L685.022 244.774 Q683.217 243.849 681.272 243.386 Q679.328 242.923 677.245 242.923 Q674.073 242.923 672.476 243.895 Q670.902 244.867 670.902 246.811 Q670.902 248.293 672.036 249.149 Q673.171 249.983 676.596 250.747 L678.055 251.071 Q682.592 252.043 684.49 253.825 Q686.411 255.585 686.411 258.756 Q686.411 262.367 683.541 264.473 Q680.694 266.58 675.694 266.58 Q673.61 266.58 671.342 266.163 Q669.097 265.77 666.597 264.96 L666.597 260.561 Q668.958 261.788 671.249 262.413 Q673.541 263.015 675.786 263.015 Q678.796 263.015 680.416 261.997 Q682.036 260.955 682.036 259.08 Q682.036 257.344 680.856 256.418 Q679.698 255.492 675.74 254.636 L674.259 254.288 Q670.3 253.455 668.541 251.742 Q666.782 250.006 666.782 246.997 Q666.782 243.339 669.374 241.349 Q671.967 239.358 676.735 239.358 Q679.096 239.358 681.18 239.705 Q683.263 240.052 685.022 240.747 Z" fill="#000000" fill-rule="nonzero" fill-opacity="1" /></svg>
