<?xml version="1.0" encoding="utf-8"?>
<svg xmlns="http://www.w3.org/2000/svg" xmlns:xlink="http://www.w3.org/1999/xlink" width="600" height="400" viewBox="0 0 2400 1600">
<defs>
  <clipPath id="clip230">
    <rect x="0" y="0" width="2400" height="1600"/>
  </clipPath>
</defs>
<path clip-path="url(#clip230)" d="M0 1600 L2400 1600 L2400 0 L0 0  Z" fill="#ffffff" fill-rule="evenodd" fill-opacity="1"/>
<defs>
  <clipPath id="clip231">
    <rect x="480" y="0" width="1681" height="1600"/>
  </clipPath>
</defs>
<path clip-path="url(#clip230)" d="M232.389 1423.18 L2352.76 1423.18 L2352.76 47.2441 L232.389 47.2441  Z" fill="#ffffff" fill-rule="evenodd" fill-opacity="1"/>
<defs>
  <clipPath id="clip232">
    <rect x="232" y="47" width="2121" height="1377"/>
  </clipPath>
</defs>
<polyline clip-path="url(#clip232)" style="stroke:#000000; stroke-linecap:round; stroke-linejoin:round; stroke-width:2; stroke-opacity:0.1; fill:none" points="244.199,1423.18 244.199,47.2441 "/>
<polyline clip-path="url(#clip232)" style="stroke:#000000; stroke-linecap:round; stroke-linejoin:round; stroke-width:2; stroke-opacity:0.1; fill:none" points="726.21,1423.18 726.21,47.2441 "/>
<polyline clip-path="url(#clip232)" style="stroke:#000000; stroke-linecap:round; stroke-linejoin:round; stroke-width:2; stroke-opacity:0.1; fill:none" points="1208.22,1423.18 1208.22,47.2441 "/>
<polyline clip-path="url(#clip232)" style="stroke:#000000; stroke-linecap:round; stroke-linejoin:round; stroke-width:2; stroke-opacity:0.1; fill:none" points="1690.23,1423.18 1690.23,47.2441 "/>
<polyline clip-path="url(#clip232)" style="stroke:#000000; stroke-linecap:round; stroke-linejoin:round; stroke-width:2; stroke-opacity:0.1; fill:none" points="2172.24,1423.18 2172.24,47.2441 "/>
<polyline clip-path="url(#clip232)" style="stroke:#000000; stroke-linecap:round; stroke-linejoin:round; stroke-width:2; stroke-opacity:0.1; fill:none" points="232.389,1410.73 2352.76,1410.73 "/>
<polyline clip-path="url(#clip232)" style="stroke:#000000; stroke-linecap:round; stroke-linejoin:round; stroke-width:2; stroke-opacity:0.1; fill:none" points="232.389,1079.59 2352.76,1079.59 "/>
<polyline clip-path="url(#clip232)" style="stroke:#000000; stroke-linecap:round; stroke-linejoin:round; stroke-width:2; stroke-opacity:0.1; fill:none" points="232.389,748.457 2352.76,748.457 "/>
<polyline clip-path="url(#clip232)" style="stroke:#000000; stroke-linecap:round; stroke-linejoin:round; stroke-width:2; stroke-opacity:0.1; fill:none" points="232.389,417.322 2352.76,417.322 "/>
<polyline clip-path="url(#clip232)" style="stroke:#000000; stroke-linecap:round; stroke-linejoin:round; stroke-width:2; stroke-opacity:0.1; fill:none" points="232.389,86.1857 2352.76,86.1857 "/>
<polyline clip-path="url(#clip230)" style="stroke:#000000; stroke-linecap:round; stroke-linejoin:round; stroke-width:4; stroke-opacity:1; fill:none" points="232.389,1423.18 2352.76,1423.18 "/>
<polyline clip-path="url(#clip230)" style="stroke:#000000; stroke-linecap:round; stroke-linejoin:round; stroke-width:4; stroke-opacity:1; fill:none" points="244.199,1423.18 244.199,1404.28 "/>
<polyline clip-path="url(#clip230)" style="stroke:#000000; stroke-linecap:round; stroke-linejoin:round; stroke-width:4; stroke-opacity:1; fill:none" points="726.21,1423.18 726.21,1404.28 "/>
<polyline clip-path="url(#clip230)" style="stroke:#000000; stroke-linecap:round; stroke-linejoin:round; stroke-width:4; stroke-opacity:1; fill:none" points="1208.22,1423.18 1208.22,1404.28 "/>
<polyline clip-path="url(#clip230)" style="stroke:#000000; stroke-linecap:round; stroke-linejoin:round; stroke-width:4; stroke-opacity:1; fill:none" points="1690.23,1423.18 1690.23,1404.28 "/>
<polyline clip-path="url(#clip230)" style="stroke:#000000; stroke-linecap:round; stroke-linejoin:round; stroke-width:4; stroke-opacity:1; fill:none" points="2172.24,1423.18 2172.24,1404.28 "/>
<path clip-path="url(#clip230)" d="M244.199 1454.1 Q240.588 1454.1 238.759 1457.66 Q236.953 1461.2 236.953 1468.33 Q236.953 1475.44 238.759 1479.01 Q240.588 1482.55 244.199 1482.55 Q247.833 1482.55 249.638 1479.01 Q251.467 1475.44 251.467 1468.33 Q251.467 1461.2 249.638 1457.66 Q247.833 1454.1 244.199 1454.1 M244.199 1450.39 Q250.009 1450.39 253.064 1455 Q256.143 1459.58 256.143 1468.33 Q256.143 1477.06 253.064 1481.67 Q250.009 1486.25 244.199 1486.25 Q238.388 1486.25 235.31 1481.67 Q232.254 1477.06 232.254 1468.33 Q232.254 1459.58 235.31 1455 Q238.388 1450.39 244.199 1450.39 Z" fill="#000000" fill-rule="nonzero" fill-opacity="1" /><path clip-path="url(#clip230)" d="M704.983 1481.64 L721.302 1481.64 L721.302 1485.58 L699.358 1485.58 L699.358 1481.64 Q702.02 1478.89 706.603 1474.26 Q711.21 1469.61 712.39 1468.27 Q714.636 1465.74 715.515 1464.01 Q716.418 1462.25 716.418 1460.56 Q716.418 1457.8 714.474 1456.07 Q712.552 1454.33 709.45 1454.33 Q707.251 1454.33 704.798 1455.09 Q702.367 1455.86 699.589 1457.41 L699.589 1452.69 Q702.413 1451.55 704.867 1450.97 Q707.321 1450.39 709.358 1450.39 Q714.728 1450.39 717.923 1453.08 Q721.117 1455.77 721.117 1460.26 Q721.117 1462.39 720.307 1464.31 Q719.52 1466.2 717.413 1468.8 Q716.835 1469.47 713.733 1472.69 Q710.631 1475.88 704.983 1481.64 Z" fill="#000000" fill-rule="nonzero" fill-opacity="1" /><path clip-path="url(#clip230)" d="M741.117 1454.1 Q737.506 1454.1 735.677 1457.66 Q733.872 1461.2 733.872 1468.33 Q733.872 1475.44 735.677 1479.01 Q737.506 1482.55 741.117 1482.55 Q744.751 1482.55 746.557 1479.01 Q748.385 1475.44 748.385 1468.33 Q748.385 1461.2 746.557 1457.66 Q744.751 1454.1 741.117 1454.1 M741.117 1450.39 Q746.927 1450.39 749.983 1455 Q753.061 1459.58 753.061 1468.33 Q753.061 1477.06 749.983 1481.67 Q746.927 1486.25 741.117 1486.25 Q735.307 1486.25 732.228 1481.67 Q729.173 1477.06 729.173 1468.33 Q729.173 1459.58 732.228 1455 Q735.307 1450.39 741.117 1450.39 Z" fill="#000000" fill-rule="nonzero" fill-opacity="1" /><path clip-path="url(#clip230)" d="M1196.39 1455.09 L1184.59 1473.54 L1196.39 1473.54 L1196.39 1455.09 M1195.17 1451.02 L1201.04 1451.02 L1201.04 1473.54 L1205.98 1473.54 L1205.98 1477.43 L1201.04 1477.43 L1201.04 1485.58 L1196.39 1485.58 L1196.39 1477.43 L1180.79 1477.43 L1180.79 1472.92 L1195.17 1451.02 Z" fill="#000000" fill-rule="nonzero" fill-opacity="1" /><path clip-path="url(#clip230)" d="M1223.71 1454.1 Q1220.1 1454.1 1218.27 1457.66 Q1216.46 1461.2 1216.46 1468.33 Q1216.46 1475.44 1218.27 1479.01 Q1220.1 1482.55 1223.71 1482.55 Q1227.34 1482.55 1229.15 1479.01 Q1230.98 1475.44 1230.98 1468.33 Q1230.98 1461.2 1229.15 1457.66 Q1227.34 1454.1 1223.71 1454.1 M1223.71 1450.39 Q1229.52 1450.39 1232.57 1455 Q1235.65 1459.58 1235.65 1468.33 Q1235.65 1477.06 1232.57 1481.67 Q1229.52 1486.25 1223.71 1486.25 Q1217.9 1486.25 1214.82 1481.67 Q1211.76 1477.06 1211.76 1468.33 Q1211.76 1459.58 1214.82 1455 Q1217.9 1450.39 1223.71 1450.39 Z" fill="#000000" fill-rule="nonzero" fill-opacity="1" /><path clip-path="url(#clip230)" d="M1675.64 1466.44 Q1672.49 1466.44 1670.64 1468.59 Q1668.81 1470.74 1668.81 1474.49 Q1668.81 1478.22 1670.64 1480.39 Q1672.49 1482.55 1675.64 1482.55 Q1678.79 1482.55 1680.61 1480.39 Q1682.47 1478.22 1682.47 1474.49 Q1682.47 1470.74 1680.61 1468.59 Q1678.79 1466.44 1675.64 1466.44 M1684.92 1451.78 L1684.92 1456.04 Q1683.16 1455.21 1681.35 1454.77 Q1679.57 1454.33 1677.81 1454.33 Q1673.18 1454.33 1670.73 1457.45 Q1668.3 1460.58 1667.95 1466.9 Q1669.32 1464.89 1671.38 1463.82 Q1673.44 1462.73 1675.91 1462.73 Q1681.12 1462.73 1684.13 1465.9 Q1687.16 1469.05 1687.16 1474.49 Q1687.16 1479.82 1684.02 1483.03 Q1680.87 1486.25 1675.64 1486.25 Q1669.64 1486.25 1666.47 1481.67 Q1663.3 1477.06 1663.3 1468.33 Q1663.3 1460.14 1667.19 1455.28 Q1671.08 1450.39 1677.63 1450.39 Q1679.39 1450.39 1681.17 1450.74 Q1682.97 1451.09 1684.92 1451.78 Z" fill="#000000" fill-rule="nonzero" fill-opacity="1" /><path clip-path="url(#clip230)" d="M1705.22 1454.1 Q1701.61 1454.1 1699.78 1457.66 Q1697.97 1461.2 1697.97 1468.33 Q1697.97 1475.44 1699.78 1479.01 Q1701.61 1482.55 1705.22 1482.55 Q1708.85 1482.55 1710.66 1479.01 Q1712.49 1475.44 1712.49 1468.33 Q1712.49 1461.2 1710.66 1457.66 Q1708.85 1454.1 1705.22 1454.1 M1705.22 1450.39 Q1711.03 1450.39 1714.09 1455 Q1717.16 1459.58 1717.16 1468.33 Q1717.16 1477.06 1714.09 1481.67 Q1711.03 1486.25 1705.22 1486.25 Q1699.41 1486.25 1696.33 1481.67 Q1693.28 1477.06 1693.28 1468.33 Q1693.28 1459.58 1696.33 1455 Q1699.41 1450.39 1705.22 1450.39 Z" fill="#000000" fill-rule="nonzero" fill-opacity="1" /><path clip-path="url(#clip230)" d="M2157.12 1469.17 Q2153.78 1469.17 2151.86 1470.95 Q2149.96 1472.73 2149.96 1475.86 Q2149.96 1478.98 2151.86 1480.77 Q2153.78 1482.55 2157.12 1482.55 Q2160.45 1482.55 2162.37 1480.77 Q2164.29 1478.96 2164.29 1475.86 Q2164.29 1472.73 2162.37 1470.95 Q2160.47 1469.17 2157.12 1469.17 M2152.44 1467.18 Q2149.43 1466.44 2147.74 1464.38 Q2146.07 1462.32 2146.07 1459.35 Q2146.07 1455.21 2149.01 1452.8 Q2151.98 1450.39 2157.12 1450.39 Q2162.28 1450.39 2165.22 1452.8 Q2168.16 1455.21 2168.16 1459.35 Q2168.16 1462.32 2166.47 1464.38 Q2164.8 1466.44 2161.81 1467.18 Q2165.19 1467.96 2167.07 1470.26 Q2168.97 1472.55 2168.97 1475.86 Q2168.97 1480.88 2165.89 1483.57 Q2162.83 1486.25 2157.12 1486.25 Q2151.4 1486.25 2148.32 1483.57 Q2145.26 1480.88 2145.26 1475.86 Q2145.26 1472.55 2147.16 1470.26 Q2149.06 1467.96 2152.44 1467.18 M2150.73 1459.79 Q2150.73 1462.48 2152.39 1463.98 Q2154.08 1465.49 2157.12 1465.49 Q2160.12 1465.49 2161.81 1463.98 Q2163.53 1462.48 2163.53 1459.79 Q2163.53 1457.11 2161.81 1455.6 Q2160.12 1454.1 2157.12 1454.1 Q2154.08 1454.1 2152.39 1455.6 Q2150.73 1457.11 2150.73 1459.79 Z" fill="#000000" fill-rule="nonzero" fill-opacity="1" /><path clip-path="url(#clip230)" d="M2187.28 1454.1 Q2183.67 1454.1 2181.84 1457.66 Q2180.03 1461.2 2180.03 1468.33 Q2180.03 1475.44 2181.84 1479.01 Q2183.67 1482.55 2187.28 1482.55 Q2190.91 1482.55 2192.72 1479.01 Q2194.55 1475.44 2194.55 1468.33 Q2194.55 1461.2 2192.72 1457.66 Q2190.91 1454.1 2187.28 1454.1 M2187.28 1450.39 Q2193.09 1450.39 2196.14 1455 Q2199.22 1459.58 2199.22 1468.33 Q2199.22 1477.06 2196.14 1481.67 Q2193.09 1486.25 2187.28 1486.25 Q2181.47 1486.25 2178.39 1481.67 Q2175.33 1477.06 2175.33 1468.33 Q2175.33 1459.58 2178.39 1455 Q2181.47 1450.39 2187.28 1450.39 Z" fill="#000000" fill-rule="nonzero" fill-opacity="1" /><path clip-path="url(#clip230)" d="M987.432 1520.52 L997.013 1520.52 L1009.14 1552.86 L1021.33 1520.52 L1030.91 1520.52 L1030.91 1568.04 L1024.64 1568.04 L1024.64 1526.32 L1012.39 1558.91 L1005.92 1558.91 L993.671 1526.32 L993.671 1568.04 L987.432 1568.04 L987.432 1520.52 Z" fill="#000000" fill-rule="nonzero" fill-opacity="1" /><path clip-path="url(#clip230)" d="M1059.62 1550.12 Q1052.52 1550.12 1049.78 1551.75 Q1047.05 1553.37 1047.05 1557.29 Q1047.05 1560.4 1049.08 1562.25 Q1051.15 1564.07 1054.69 1564.07 Q1059.56 1564.07 1062.48 1560.63 Q1065.44 1557.16 1065.44 1551.43 L1065.44 1550.12 L1059.62 1550.12 M1071.3 1547.71 L1071.3 1568.04 L1065.44 1568.04 L1065.44 1562.63 Q1063.44 1565.88 1060.45 1567.44 Q1057.46 1568.97 1053.13 1568.97 Q1047.65 1568.97 1044.41 1565.91 Q1041.19 1562.82 1041.19 1557.67 Q1041.19 1551.65 1045.2 1548.6 Q1049.24 1545.54 1057.23 1545.54 L1065.44 1545.54 L1065.44 1544.97 Q1065.44 1540.93 1062.77 1538.73 Q1060.13 1536.5 1055.32 1536.5 Q1052.27 1536.5 1049.37 1537.23 Q1046.47 1537.97 1043.8 1539.43 L1043.8 1534.02 Q1047.02 1532.78 1050.04 1532.17 Q1053.06 1531.54 1055.93 1531.54 Q1063.66 1531.54 1067.48 1535.55 Q1071.3 1539.56 1071.3 1547.71 Z" fill="#000000" fill-rule="nonzero" fill-opacity="1" /><path clip-path="url(#clip230)" d="M1106.09 1533.45 L1106.09 1538.98 Q1103.61 1537.71 1100.93 1537.07 Q1098.26 1536.44 1095.39 1536.44 Q1091.03 1536.44 1088.84 1537.77 Q1086.67 1539.11 1086.67 1541.79 Q1086.67 1543.82 1088.23 1545 Q1089.79 1546.15 1094.5 1547.2 L1096.51 1547.64 Q1102.75 1548.98 1105.36 1551.43 Q1108 1553.85 1108 1558.21 Q1108 1563.17 1104.05 1566.07 Q1100.14 1568.97 1093.26 1568.97 Q1090.4 1568.97 1087.28 1568.39 Q1084.19 1567.85 1080.75 1566.74 L1080.75 1560.69 Q1084 1562.38 1087.15 1563.24 Q1090.3 1564.07 1093.39 1564.07 Q1097.53 1564.07 1099.76 1562.66 Q1101.98 1561.23 1101.98 1558.65 Q1101.98 1556.27 1100.36 1554.99 Q1098.77 1553.72 1093.33 1552.54 L1091.29 1552.07 Q1085.85 1550.92 1083.43 1548.56 Q1081.01 1546.18 1081.01 1542.04 Q1081.01 1537.01 1084.57 1534.27 Q1088.14 1531.54 1094.69 1531.54 Q1097.94 1531.54 1100.81 1532.01 Q1103.67 1532.49 1106.09 1533.45 Z" fill="#000000" fill-rule="nonzero" fill-opacity="1" /><path clip-path="url(#clip230)" d="M1140.05 1533.45 L1140.05 1538.98 Q1137.57 1537.71 1134.89 1537.07 Q1132.22 1536.44 1129.36 1536.44 Q1125 1536.44 1122.8 1537.77 Q1120.63 1539.11 1120.63 1541.79 Q1120.63 1543.82 1122.19 1545 Q1123.75 1546.15 1128.46 1547.2 L1130.47 1547.64 Q1136.71 1548.98 1139.32 1551.43 Q1141.96 1553.85 1141.96 1558.21 Q1141.96 1563.17 1138.01 1566.07 Q1134.1 1568.97 1127.22 1568.97 Q1124.36 1568.97 1121.24 1568.39 Q1118.15 1567.85 1114.71 1566.74 L1114.71 1560.69 Q1117.96 1562.38 1121.11 1563.24 Q1124.26 1564.07 1127.35 1564.07 Q1131.49 1564.07 1133.72 1562.66 Q1135.94 1561.23 1135.94 1558.65 Q1135.94 1556.27 1134.32 1554.99 Q1132.73 1553.72 1127.29 1552.54 L1125.25 1552.07 Q1119.81 1550.92 1117.39 1548.56 Q1114.97 1546.18 1114.97 1542.04 Q1114.97 1537.01 1118.53 1534.27 Q1122.1 1531.54 1128.66 1531.54 Q1131.9 1531.54 1134.77 1532.01 Q1137.63 1532.49 1140.05 1533.45 Z" fill="#000000" fill-rule="nonzero" fill-opacity="1" /><path clip-path="url(#clip230)" d="M1197.66 1533.76 L1197.66 1539.24 Q1195.18 1537.87 1192.66 1537.2 Q1190.18 1536.5 1187.63 1536.5 Q1181.94 1536.5 1178.79 1540.13 Q1175.63 1543.73 1175.63 1550.25 Q1175.63 1556.78 1178.79 1560.4 Q1181.94 1564 1187.63 1564 Q1190.18 1564 1192.66 1563.33 Q1195.18 1562.63 1197.66 1561.26 L1197.66 1566.68 Q1195.21 1567.82 1192.57 1568.39 Q1189.96 1568.97 1187 1568.97 Q1178.94 1568.97 1174.2 1563.91 Q1169.46 1558.85 1169.46 1550.25 Q1169.46 1541.53 1174.23 1536.53 Q1179.04 1531.54 1187.38 1531.54 Q1190.08 1531.54 1192.66 1532.11 Q1195.24 1532.65 1197.66 1533.76 Z" fill="#000000" fill-rule="nonzero" fill-opacity="1" /><path clip-path="url(#clip230)" d="M1224.05 1550.12 Q1216.95 1550.12 1214.21 1551.75 Q1211.47 1553.37 1211.47 1557.29 Q1211.47 1560.4 1213.51 1562.25 Q1215.58 1564.07 1219.11 1564.07 Q1223.98 1564.07 1226.91 1560.63 Q1229.87 1557.16 1229.87 1551.43 L1229.87 1550.12 L1224.05 1550.12 M1235.73 1547.71 L1235.73 1568.04 L1229.87 1568.04 L1229.87 1562.63 Q1227.87 1565.88 1224.87 1567.44 Q1221.88 1568.97 1217.55 1568.97 Q1212.08 1568.97 1208.83 1565.91 Q1205.62 1562.82 1205.62 1557.67 Q1205.62 1551.65 1209.63 1548.6 Q1213.67 1545.54 1221.66 1545.54 L1229.87 1545.54 L1229.87 1544.97 Q1229.87 1540.93 1227.2 1538.73 Q1224.56 1536.5 1219.75 1536.5 Q1216.69 1536.5 1213.8 1537.23 Q1210.9 1537.97 1208.23 1539.43 L1208.23 1534.02 Q1211.44 1532.78 1214.47 1532.17 Q1217.49 1531.54 1220.35 1531.54 Q1228.09 1531.54 1231.91 1535.55 Q1235.73 1539.56 1235.73 1547.71 Z" fill="#000000" fill-rule="nonzero" fill-opacity="1" /><path clip-path="url(#clip230)" d="M1247.79 1518.52 L1253.65 1518.52 L1253.65 1568.04 L1247.79 1568.04 L1247.79 1518.52 Z" fill="#000000" fill-rule="nonzero" fill-opacity="1" /><path clip-path="url(#clip230)" d="M1265.9 1532.4 L1271.76 1532.4 L1271.76 1568.04 L1265.9 1568.04 L1265.9 1532.4 M1265.9 1518.52 L1271.76 1518.52 L1271.76 1525.93 L1265.9 1525.93 L1265.9 1518.52 Z" fill="#000000" fill-rule="nonzero" fill-opacity="1" /><path clip-path="url(#clip230)" d="M1309.6 1550.25 Q1309.6 1543.79 1306.93 1540.13 Q1304.29 1536.44 1299.64 1536.44 Q1294.99 1536.44 1292.32 1540.13 Q1289.68 1543.79 1289.68 1550.25 Q1289.68 1556.71 1292.32 1560.4 Q1294.99 1564.07 1299.64 1564.07 Q1304.29 1564.07 1306.93 1560.4 Q1309.6 1556.71 1309.6 1550.25 M1289.68 1537.81 Q1291.52 1534.62 1294.32 1533.1 Q1297.16 1531.54 1301.07 1531.54 Q1307.56 1531.54 1311.61 1536.69 Q1315.68 1541.85 1315.68 1550.25 Q1315.68 1558.65 1311.61 1563.81 Q1307.56 1568.97 1301.07 1568.97 Q1297.16 1568.97 1294.32 1567.44 Q1291.52 1565.88 1289.68 1562.7 L1289.68 1568.04 L1283.79 1568.04 L1283.79 1518.52 L1289.68 1518.52 L1289.68 1537.81 Z" fill="#000000" fill-rule="nonzero" fill-opacity="1" /><path clip-path="url(#clip230)" d="M1346.04 1537.87 Q1345.06 1537.3 1343.88 1537.04 Q1342.73 1536.76 1341.33 1536.76 Q1336.37 1536.76 1333.7 1540 Q1331.05 1543.22 1331.05 1549.27 L1331.05 1568.04 L1325.17 1568.04 L1325.17 1532.4 L1331.05 1532.4 L1331.05 1537.93 Q1332.9 1534.69 1335.86 1533.13 Q1338.82 1531.54 1343.05 1531.54 Q1343.66 1531.54 1344.39 1531.63 Q1345.12 1531.7 1346.01 1531.85 L1346.04 1537.87 Z" fill="#000000" fill-rule="nonzero" fill-opacity="1" /><path clip-path="url(#clip230)" d="M1368.39 1550.12 Q1361.29 1550.12 1358.55 1551.75 Q1355.82 1553.37 1355.82 1557.29 Q1355.82 1560.4 1357.85 1562.25 Q1359.92 1564.07 1363.45 1564.07 Q1368.32 1564.07 1371.25 1560.63 Q1374.21 1557.16 1374.21 1551.43 L1374.21 1550.12 L1368.39 1550.12 M1380.07 1547.71 L1380.07 1568.04 L1374.21 1568.04 L1374.21 1562.63 Q1372.21 1565.88 1369.22 1567.44 Q1366.22 1568.97 1361.9 1568.97 Q1356.42 1568.97 1353.17 1565.91 Q1349.96 1562.82 1349.96 1557.67 Q1349.96 1551.65 1353.97 1548.6 Q1358.01 1545.54 1366 1545.54 L1374.21 1545.54 L1374.21 1544.97 Q1374.21 1540.93 1371.54 1538.73 Q1368.9 1536.5 1364.09 1536.5 Q1361.04 1536.5 1358.14 1537.23 Q1355.24 1537.97 1352.57 1539.43 L1352.57 1534.02 Q1355.78 1532.78 1358.81 1532.17 Q1361.83 1531.54 1364.7 1531.54 Q1372.43 1531.54 1376.25 1535.55 Q1380.07 1539.56 1380.07 1547.71 Z" fill="#000000" fill-rule="nonzero" fill-opacity="1" /><path clip-path="url(#clip230)" d="M1421.76 1546.53 L1421.76 1568.04 L1415.91 1568.04 L1415.91 1546.72 Q1415.91 1541.66 1413.93 1539.14 Q1411.96 1536.63 1408.01 1536.63 Q1403.27 1536.63 1400.54 1539.65 Q1397.8 1542.68 1397.8 1547.9 L1397.8 1568.04 L1391.91 1568.04 L1391.91 1532.4 L1397.8 1532.4 L1397.8 1537.93 Q1399.9 1534.72 1402.73 1533.13 Q1405.6 1531.54 1409.32 1531.54 Q1415.46 1531.54 1418.61 1535.36 Q1421.76 1539.14 1421.76 1546.53 Z" fill="#000000" fill-rule="nonzero" fill-opacity="1" /><path clip-path="url(#clip230)" d="M1439.24 1522.27 L1439.24 1532.4 L1451.3 1532.4 L1451.3 1536.95 L1439.24 1536.95 L1439.24 1556.3 Q1439.24 1560.66 1440.42 1561.9 Q1441.63 1563.14 1445.29 1563.14 L1451.3 1563.14 L1451.3 1568.04 L1445.29 1568.04 Q1438.51 1568.04 1435.93 1565.53 Q1433.35 1562.98 1433.35 1556.3 L1433.35 1536.95 L1429.05 1536.95 L1429.05 1532.4 L1433.35 1532.4 L1433.35 1522.27 L1439.24 1522.27 Z" fill="#000000" fill-rule="nonzero" fill-opacity="1" /><path clip-path="url(#clip230)" d="M1493.79 1518.58 Q1489.53 1525.9 1487.46 1533.06 Q1485.39 1540.23 1485.39 1547.58 Q1485.39 1554.93 1487.46 1562.16 Q1489.56 1569.35 1493.79 1576.64 L1488.7 1576.64 Q1483.93 1569.16 1481.54 1561.93 Q1479.18 1554.71 1479.18 1547.58 Q1479.18 1540.48 1481.54 1533.29 Q1483.89 1526.09 1488.7 1518.58 L1493.79 1518.58 Z" fill="#000000" fill-rule="nonzero" fill-opacity="1" /><path clip-path="url(#clip230)" d="M1505.41 1520.52 L1532.72 1520.52 L1532.72 1525.93 L1511.84 1525.93 L1511.84 1539.94 L1530.68 1539.94 L1530.68 1545.35 L1511.84 1545.35 L1511.84 1568.04 L1505.41 1568.04 L1505.41 1520.52 Z" fill="#000000" fill-rule="nonzero" fill-opacity="1" /><path clip-path="url(#clip230)" d="M1566.11 1549.81 Q1566.11 1543.44 1563.47 1539.94 Q1560.86 1536.44 1556.11 1536.44 Q1551.4 1536.44 1548.76 1539.94 Q1546.15 1543.44 1546.15 1549.81 Q1546.15 1556.14 1548.76 1559.64 Q1551.4 1563.14 1556.11 1563.14 Q1560.86 1563.14 1563.47 1559.64 Q1566.11 1556.14 1566.11 1549.81 M1571.96 1563.62 Q1571.96 1572.72 1567.92 1577.15 Q1563.88 1581.6 1555.54 1581.6 Q1552.45 1581.6 1549.72 1581.13 Q1546.98 1580.68 1544.4 1579.72 L1544.4 1574.03 Q1546.98 1575.43 1549.49 1576.1 Q1552.01 1576.76 1554.62 1576.76 Q1560.38 1576.76 1563.24 1573.74 Q1566.11 1570.75 1566.11 1564.67 L1566.11 1561.77 Q1564.29 1564.92 1561.46 1566.48 Q1558.63 1568.04 1554.68 1568.04 Q1548.12 1568.04 1544.11 1563.05 Q1540.1 1558.05 1540.1 1549.81 Q1540.1 1541.53 1544.11 1536.53 Q1548.12 1531.54 1554.68 1531.54 Q1558.63 1531.54 1561.46 1533.1 Q1564.29 1534.66 1566.11 1537.81 L1566.11 1532.4 L1571.96 1532.4 L1571.96 1563.62 Z" fill="#000000" fill-rule="nonzero" fill-opacity="1" /><path clip-path="url(#clip230)" d="M1583.1 1518.58 L1588.2 1518.58 Q1592.97 1526.09 1595.33 1533.29 Q1597.71 1540.48 1597.71 1547.58 Q1597.71 1554.71 1595.33 1561.93 Q1592.97 1569.16 1588.2 1576.64 L1583.1 1576.64 Q1587.34 1569.35 1589.41 1562.16 Q1591.51 1554.93 1591.51 1547.58 Q1591.51 1540.23 1589.41 1533.06 Q1587.34 1525.9 1583.1 1518.58 Z" fill="#000000" fill-rule="nonzero" fill-opacity="1" /><polyline clip-path="url(#clip230)" style="stroke:#000000; stroke-linecap:round; stroke-linejoin:round; stroke-width:4; stroke-opacity:1; fill:none" points="232.389,1423.18 232.389,47.2441 "/>
<polyline clip-path="url(#clip230)" style="stroke:#000000; stroke-linecap:round; stroke-linejoin:round; stroke-width:4; stroke-opacity:1; fill:none" points="232.389,1410.73 251.287,1410.73 "/>
<polyline clip-path="url(#clip230)" style="stroke:#000000; stroke-linecap:round; stroke-linejoin:round; stroke-width:4; stroke-opacity:1; fill:none" points="232.389,1079.59 251.287,1079.59 "/>
<polyline clip-path="url(#clip230)" style="stroke:#000000; stroke-linecap:round; stroke-linejoin:round; stroke-width:4; stroke-opacity:1; fill:none" points="232.389,748.457 251.287,748.457 "/>
<polyline clip-path="url(#clip230)" style="stroke:#000000; stroke-linecap:round; stroke-linejoin:round; stroke-width:4; stroke-opacity:1; fill:none" points="232.389,417.322 251.287,417.322 "/>
<polyline clip-path="url(#clip230)" style="stroke:#000000; stroke-linecap:round; stroke-linejoin:round; stroke-width:4; stroke-opacity:1; fill:none" points="232.389,86.1857 251.287,86.1857 "/>
<path clip-path="url(#clip230)" d="M184.445 1396.53 Q180.834 1396.53 179.005 1400.09 Q177.2 1403.63 177.2 1410.76 Q177.2 1417.87 179.005 1421.44 Q180.834 1424.98 184.445 1424.98 Q188.079 1424.98 189.885 1421.44 Q191.713 1417.87 191.713 1410.76 Q191.713 1403.63 189.885 1400.09 Q188.079 1396.53 184.445 1396.53 M184.445 1392.82 Q190.255 1392.82 193.311 1397.43 Q196.389 1402.01 196.389 1410.76 Q196.389 1419.49 193.311 1424.1 Q190.255 1428.68 184.445 1428.68 Q178.635 1428.68 175.556 1424.1 Q172.501 1419.49 172.501 1410.76 Q172.501 1402.01 175.556 1397.43 Q178.635 1392.82 184.445 1392.82 Z" fill="#000000" fill-rule="nonzero" fill-opacity="1" /><path clip-path="url(#clip230)" d="M149.306 1092.94 L165.626 1092.94 L165.626 1096.87 L143.681 1096.87 L143.681 1092.94 Q146.343 1090.18 150.927 1085.55 Q155.533 1080.9 156.714 1079.56 Q158.959 1077.04 159.839 1075.3 Q160.741 1073.54 160.741 1071.85 Q160.741 1069.1 158.797 1067.36 Q156.876 1065.62 153.774 1065.62 Q151.575 1065.62 149.121 1066.39 Q146.691 1067.15 143.913 1068.7 L143.913 1063.98 Q146.737 1062.85 149.191 1062.27 Q151.644 1061.69 153.681 1061.69 Q159.052 1061.69 162.246 1064.37 Q165.44 1067.06 165.44 1071.55 Q165.44 1073.68 164.63 1075.6 Q163.843 1077.5 161.737 1080.09 Q161.158 1080.76 158.056 1083.98 Q154.954 1087.17 149.306 1092.94 Z" fill="#000000" fill-rule="nonzero" fill-opacity="1" /><path clip-path="url(#clip230)" d="M175.487 1062.31 L193.843 1062.31 L193.843 1066.25 L179.769 1066.25 L179.769 1074.72 Q180.788 1074.37 181.806 1074.21 Q182.825 1074.03 183.843 1074.03 Q189.63 1074.03 193.01 1077.2 Q196.389 1080.37 196.389 1085.79 Q196.389 1091.36 192.917 1094.47 Q189.445 1097.54 183.126 1097.54 Q180.95 1097.54 178.681 1097.17 Q176.436 1096.8 174.028 1096.06 L174.028 1091.36 Q176.112 1092.5 178.334 1093.05 Q180.556 1093.61 183.033 1093.61 Q187.038 1093.61 189.375 1091.5 Q191.713 1089.4 191.713 1085.79 Q191.713 1082.17 189.375 1080.07 Q187.038 1077.96 183.033 1077.96 Q181.158 1077.96 179.283 1078.38 Q177.431 1078.79 175.487 1079.67 L175.487 1062.31 Z" fill="#000000" fill-rule="nonzero" fill-opacity="1" /><path clip-path="url(#clip230)" d="M144.329 731.177 L162.686 731.177 L162.686 735.113 L148.612 735.113 L148.612 743.585 Q149.63 743.238 150.649 743.075 Q151.667 742.89 152.686 742.89 Q158.473 742.89 161.852 746.062 Q165.232 749.233 165.232 754.649 Q165.232 760.228 161.76 763.33 Q158.288 766.409 151.968 766.409 Q149.792 766.409 147.524 766.038 Q145.279 765.668 142.871 764.927 L142.871 760.228 Q144.954 761.362 147.177 761.918 Q149.399 762.474 151.876 762.474 Q155.88 762.474 158.218 760.367 Q160.556 758.261 160.556 754.649 Q160.556 751.038 158.218 748.932 Q155.88 746.825 151.876 746.825 Q150.001 746.825 148.126 747.242 Q146.274 747.659 144.329 748.538 L144.329 731.177 Z" fill="#000000" fill-rule="nonzero" fill-opacity="1" /><path clip-path="url(#clip230)" d="M184.445 734.256 Q180.834 734.256 179.005 737.821 Q177.2 741.363 177.2 748.492 Q177.2 755.599 179.005 759.163 Q180.834 762.705 184.445 762.705 Q188.079 762.705 189.885 759.163 Q191.713 755.599 191.713 748.492 Q191.713 741.363 189.885 737.821 Q188.079 734.256 184.445 734.256 M184.445 730.552 Q190.255 730.552 193.311 735.159 Q196.389 739.742 196.389 748.492 Q196.389 757.219 193.311 761.825 Q190.255 766.409 184.445 766.409 Q178.635 766.409 175.556 761.825 Q172.501 757.219 172.501 748.492 Q172.501 739.742 175.556 735.159 Q178.635 730.552 184.445 730.552 Z" fill="#000000" fill-rule="nonzero" fill-opacity="1" /><path clip-path="url(#clip230)" d="M144.098 400.042 L166.32 400.042 L166.32 402.032 L153.774 434.602 L148.89 434.602 L160.695 403.977 L144.098 403.977 L144.098 400.042 Z" fill="#000000" fill-rule="nonzero" fill-opacity="1" /><path clip-path="url(#clip230)" d="M175.487 400.042 L193.843 400.042 L193.843 403.977 L179.769 403.977 L179.769 412.449 Q180.788 412.102 181.806 411.94 Q182.825 411.754 183.843 411.754 Q189.63 411.754 193.01 414.926 Q196.389 418.097 196.389 423.514 Q196.389 429.092 192.917 432.194 Q189.445 435.273 183.126 435.273 Q180.95 435.273 178.681 434.902 Q176.436 434.532 174.028 433.791 L174.028 429.092 Q176.112 430.227 178.334 430.782 Q180.556 431.338 183.033 431.338 Q187.038 431.338 189.375 429.231 Q191.713 427.125 191.713 423.514 Q191.713 419.903 189.375 417.796 Q187.038 415.69 183.033 415.69 Q181.158 415.69 179.283 416.106 Q177.431 416.523 175.487 417.403 L175.487 400.042 Z" fill="#000000" fill-rule="nonzero" fill-opacity="1" /><path clip-path="url(#clip230)" d="M114.931 99.5305 L122.57 99.5305 L122.57 73.1649 L114.26 74.8316 L114.26 70.5723 L122.524 68.9057 L127.2 68.9057 L127.2 99.5305 L134.839 99.5305 L134.839 103.466 L114.931 103.466 L114.931 99.5305 Z" fill="#000000" fill-rule="nonzero" fill-opacity="1" /><path clip-path="url(#clip230)" d="M154.283 71.9844 Q150.672 71.9844 148.843 75.5492 Q147.038 79.0908 147.038 86.2204 Q147.038 93.3268 148.843 96.8916 Q150.672 100.433 154.283 100.433 Q157.917 100.433 159.723 96.8916 Q161.552 93.3268 161.552 86.2204 Q161.552 79.0908 159.723 75.5492 Q157.917 71.9844 154.283 71.9844 M154.283 68.2807 Q160.093 68.2807 163.149 72.8871 Q166.227 77.4704 166.227 86.2204 Q166.227 94.9472 163.149 99.5537 Q160.093 104.137 154.283 104.137 Q148.473 104.137 145.394 99.5537 Q142.339 94.9472 142.339 86.2204 Q142.339 77.4704 145.394 72.8871 Q148.473 68.2807 154.283 68.2807 Z" fill="#000000" fill-rule="nonzero" fill-opacity="1" /><path clip-path="url(#clip230)" d="M184.445 71.9844 Q180.834 71.9844 179.005 75.5492 Q177.2 79.0908 177.2 86.2204 Q177.2 93.3268 179.005 96.8916 Q180.834 100.433 184.445 100.433 Q188.079 100.433 189.885 96.8916 Q191.713 93.3268 191.713 86.2204 Q191.713 79.0908 189.885 75.5492 Q188.079 71.9844 184.445 71.9844 M184.445 68.2807 Q190.255 68.2807 193.311 72.8871 Q196.389 77.4704 196.389 86.2204 Q196.389 94.9472 193.311 99.5537 Q190.255 104.137 184.445 104.137 Q178.635 104.137 175.556 99.5537 Q172.501 94.9472 172.501 86.2204 Q172.501 77.4704 175.556 72.8871 Q178.635 68.2807 184.445 68.2807 Z" fill="#000000" fill-rule="nonzero" fill-opacity="1" /><path clip-path="url(#clip230)" d="M41.7242 1056.54 Q42.4244 1054.47 44.7161 1052.53 Q47.0077 1050.55 51.0181 1048.58 L64.0042 1042.05 L64.0042 1048.96 L51.8138 1055.04 Q47.0395 1057.4 45.48 1059.62 Q43.9204 1061.82 43.9204 1065.64 L43.9204 1072.64 L64.0042 1072.64 L64.0042 1079.07 L16.4842 1079.07 L16.4842 1064.56 Q16.4842 1056.41 19.8898 1052.4 Q23.2955 1048.39 30.1704 1048.39 Q34.6582 1048.39 37.6183 1050.49 Q40.5784 1052.56 41.7242 1056.54 M21.7677 1072.64 L38.6368 1072.64 L38.6368 1064.56 Q38.6368 1059.91 36.5043 1057.56 Q34.34 1055.17 30.1704 1055.17 Q26.0009 1055.17 23.9002 1057.56 Q21.7677 1059.91 21.7677 1064.56 L21.7677 1072.64 Z" fill="#000000" fill-rule="nonzero" fill-opacity="1" /><path clip-path="url(#clip230)" d="M44.7161 1006.47 L47.5806 1006.47 L47.5806 1033.4 Q53.6281 1033.02 56.8109 1029.77 Q59.9619 1026.49 59.9619 1020.67 Q59.9619 1017.29 59.1344 1014.14 Q58.3069 1010.96 56.6518 1007.84 L62.1899 1007.84 Q63.5267 1010.99 64.227 1014.3 Q64.9272 1017.61 64.9272 1021.02 Q64.9272 1029.55 59.9619 1034.54 Q54.9967 1039.51 46.5303 1039.51 Q37.7774 1039.51 32.6531 1034.8 Q27.4968 1030.06 27.4968 1022.03 Q27.4968 1014.84 32.1438 1010.67 Q36.7589 1006.47 44.7161 1006.47 M42.9973 1012.33 Q38.1912 1012.39 35.3266 1015.03 Q32.4621 1017.64 32.4621 1021.97 Q32.4621 1026.87 35.2312 1029.83 Q38.0002 1032.76 43.0292 1033.21 L42.9973 1012.33 Z" fill="#000000" fill-rule="nonzero" fill-opacity="1" /><path clip-path="url(#clip230)" d="M14.479 996.858 L14.479 991.002 L64.0042 991.002 L64.0042 996.858 L14.479 996.858 Z" fill="#000000" fill-rule="nonzero" fill-opacity="1" /><path clip-path="url(#clip230)" d="M46.0847 962.547 Q46.0847 969.645 47.7079 972.382 Q49.3312 975.12 53.2461 975.12 Q56.3653 975.12 58.2114 973.083 Q60.0256 971.014 60.0256 967.481 Q60.0256 962.611 56.5881 959.683 Q53.1188 956.723 47.3897 956.723 L46.0847 956.723 L46.0847 962.547 M43.6657 950.866 L64.0042 950.866 L64.0042 956.723 L58.5933 956.723 Q61.8398 958.728 63.3994 961.72 Q64.9272 964.712 64.9272 969.04 Q64.9272 974.515 61.8716 977.761 Q58.7843 980.976 53.6281 980.976 Q47.6125 980.976 44.5569 976.966 Q41.5014 972.923 41.5014 964.934 L41.5014 956.723 L40.9285 956.723 Q36.8862 956.723 34.6901 959.396 Q32.4621 962.038 32.4621 966.844 Q32.4621 969.9 33.1941 972.796 Q33.9262 975.692 35.3903 978.366 L29.9795 978.366 Q28.7381 975.151 28.1334 972.128 Q27.4968 969.104 27.4968 966.239 Q27.4968 958.505 31.5072 954.686 Q35.5176 950.866 43.6657 950.866 Z" fill="#000000" fill-rule="nonzero" fill-opacity="1" /><path clip-path="url(#clip230)" d="M18.2347 933.01 L28.3562 933.01 L28.3562 920.947 L32.9077 920.947 L32.9077 933.01 L52.2594 933.01 Q56.6199 933.01 57.8613 931.833 Q59.1026 930.623 59.1026 926.963 L59.1026 920.947 L64.0042 920.947 L64.0042 926.963 Q64.0042 933.742 61.4897 936.321 Q58.9434 938.899 52.2594 938.899 L32.9077 938.899 L32.9077 943.196 L28.3562 943.196 L28.3562 938.899 L18.2347 938.899 L18.2347 933.01 Z" fill="#000000" fill-rule="nonzero" fill-opacity="1" /><path clip-path="url(#clip230)" d="M28.3562 913.245 L28.3562 907.388 L64.0042 907.388 L64.0042 913.245 L28.3562 913.245 M14.479 913.245 L14.479 907.388 L21.895 907.388 L21.895 913.245 L14.479 913.245 Z" fill="#000000" fill-rule="nonzero" fill-opacity="1" /><path clip-path="url(#clip230)" d="M28.3562 899.336 L28.3562 893.129 L58.275 881.989 L28.3562 870.849 L28.3562 864.643 L64.0042 878.011 L64.0042 885.968 L28.3562 899.336 Z" fill="#000000" fill-rule="nonzero" fill-opacity="1" /><path clip-path="url(#clip230)" d="M44.7161 826.067 L47.5806 826.067 L47.5806 852.993 Q53.6281 852.612 56.8109 849.365 Q59.9619 846.087 59.9619 840.262 Q59.9619 836.888 59.1344 833.737 Q58.3069 830.554 56.6518 827.435 L62.1899 827.435 Q63.5267 830.586 64.227 833.896 Q64.9272 837.207 64.9272 840.612 Q64.9272 849.142 59.9619 854.139 Q54.9967 859.105 46.5303 859.105 Q37.7774 859.105 32.6531 854.394 Q27.4968 849.651 27.4968 841.631 Q27.4968 834.437 32.1438 830.268 Q36.7589 826.067 44.7161 826.067 M42.9973 831.923 Q38.1912 831.987 35.3266 834.628 Q32.4621 837.238 32.4621 841.567 Q32.4621 846.469 35.2312 849.429 Q38.0002 852.357 43.0292 852.802 L42.9973 831.923 Z" fill="#000000" fill-rule="nonzero" fill-opacity="1" /><path clip-path="url(#clip230)" d="M28.3562 795.734 L28.3562 789.877 L64.0042 789.877 L64.0042 795.734 L28.3562 795.734 M14.479 795.734 L14.479 789.877 L21.895 789.877 L21.895 795.734 L14.479 795.734 Z" fill="#000000" fill-rule="nonzero" fill-opacity="1" /><path clip-path="url(#clip230)" d="M42.4881 747.991 L64.0042 747.991 L64.0042 753.848 L42.679 753.848 Q37.6183 753.848 35.1038 755.821 Q32.5894 757.794 32.5894 761.741 Q32.5894 766.484 35.6131 769.221 Q38.6368 771.958 43.8567 771.958 L64.0042 771.958 L64.0042 777.846 L28.3562 777.846 L28.3562 771.958 L33.8944 771.958 Q30.6797 769.857 29.0883 767.025 Q27.4968 764.16 27.4968 760.436 Q27.4968 754.293 31.3163 751.142 Q35.1038 747.991 42.4881 747.991 Z" fill="#000000" fill-rule="nonzero" fill-opacity="1" /><path clip-path="url(#clip230)" d="M18.2347 730.517 L28.3562 730.517 L28.3562 718.454 L32.9077 718.454 L32.9077 730.517 L52.2594 730.517 Q56.6199 730.517 57.8613 729.34 Q59.1026 728.13 59.1026 724.47 L59.1026 718.454 L64.0042 718.454 L64.0042 724.47 Q64.0042 731.249 61.4897 733.827 Q58.9434 736.406 52.2594 736.406 L32.9077 736.406 L32.9077 740.702 L28.3562 740.702 L28.3562 736.406 L18.2347 736.406 L18.2347 730.517 Z" fill="#000000" fill-rule="nonzero" fill-opacity="1" /><path clip-path="url(#clip230)" d="M44.7161 680.26 L47.5806 680.26 L47.5806 707.187 Q53.6281 706.805 56.8109 703.558 Q59.9619 700.28 59.9619 694.456 Q59.9619 691.082 59.1344 687.931 Q58.3069 684.748 56.6518 681.629 L62.1899 681.629 Q63.5267 684.78 64.227 688.09 Q64.9272 691.4 64.9272 694.806 Q64.9272 703.336 59.9619 708.333 Q54.9967 713.298 46.5303 713.298 Q37.7774 713.298 32.6531 708.587 Q27.4968 703.845 27.4968 695.824 Q27.4968 688.631 32.1438 684.461 Q36.7589 680.26 44.7161 680.26 M42.9973 686.116 Q38.1912 686.18 35.3266 688.822 Q32.4621 691.432 32.4621 695.761 Q32.4621 700.662 35.2312 703.622 Q38.0002 706.55 43.0292 706.996 L42.9973 686.116 Z" fill="#000000" fill-rule="nonzero" fill-opacity="1" /><path clip-path="url(#clip230)" d="M42.4881 641.015 L64.0042 641.015 L64.0042 646.872 L42.679 646.872 Q37.6183 646.872 35.1038 648.845 Q32.5894 650.819 32.5894 654.765 Q32.5894 659.508 35.6131 662.245 Q38.6368 664.982 43.8567 664.982 L64.0042 664.982 L64.0042 670.871 L28.3562 670.871 L28.3562 664.982 L33.8944 664.982 Q30.6797 662.882 29.0883 660.049 Q27.4968 657.184 27.4968 653.46 Q27.4968 647.317 31.3163 644.166 Q35.1038 641.015 42.4881 641.015 Z" fill="#000000" fill-rule="nonzero" fill-opacity="1" /><path clip-path="url(#clip230)" d="M29.4065 606.609 L34.9447 606.609 Q33.6716 609.091 33.035 611.765 Q32.3984 614.439 32.3984 617.303 Q32.3984 621.664 33.7352 623.86 Q35.072 626.024 37.7456 626.024 Q39.7826 626.024 40.9603 624.465 Q42.1061 622.905 43.1565 618.194 L43.6021 616.189 Q44.9389 609.951 47.3897 607.341 Q49.8086 604.699 54.1691 604.699 Q59.1344 604.699 62.0308 608.646 Q64.9272 612.561 64.9272 619.436 Q64.9272 622.3 64.3543 625.419 Q63.8132 628.507 62.6992 631.944 L56.6518 631.944 Q58.3387 628.698 59.198 625.547 Q60.0256 622.396 60.0256 619.308 Q60.0256 615.171 58.6251 612.943 Q57.1929 610.715 54.6147 610.715 Q52.2276 610.715 50.9545 612.338 Q49.6813 613.929 48.5037 619.372 L48.0262 621.409 Q46.8804 626.852 44.5251 629.271 Q42.138 631.69 38.0002 631.69 Q32.9713 631.69 30.2341 628.125 Q27.4968 624.56 27.4968 618.003 Q27.4968 614.757 27.9743 611.892 Q28.4517 609.028 29.4065 606.609 Z" fill="#000000" fill-rule="nonzero" fill-opacity="1" /><path clip-path="url(#clip230)" d="M28.3562 595.373 L28.3562 589.517 L64.0042 589.517 L64.0042 595.373 L28.3562 595.373 M14.479 595.373 L14.479 589.517 L21.895 589.517 L21.895 595.373 L14.479 595.373 Z" fill="#000000" fill-rule="nonzero" fill-opacity="1" /><path clip-path="url(#clip230)" d="M18.2347 571.47 L28.3562 571.47 L28.3562 559.407 L32.9077 559.407 L32.9077 571.47 L52.2594 571.47 Q56.6199 571.47 57.8613 570.292 Q59.1026 569.083 59.1026 565.423 L59.1026 559.407 L64.0042 559.407 L64.0042 565.423 Q64.0042 572.202 61.4897 574.78 Q58.9434 577.358 52.2594 577.358 L32.9077 577.358 L32.9077 581.655 L28.3562 581.655 L28.3562 577.358 L18.2347 577.358 L18.2347 571.47 Z" fill="#000000" fill-rule="nonzero" fill-opacity="1" /><path clip-path="url(#clip230)" d="M67.3143 536.872 Q73.68 539.355 75.6216 541.71 Q77.5631 544.066 77.5631 548.012 L77.5631 552.691 L72.6615 552.691 L72.6615 549.254 Q72.6615 546.835 71.5157 545.498 Q70.3699 544.161 66.1048 542.538 L63.4312 541.488 L28.3562 555.906 L28.3562 549.699 L56.238 538.559 L28.3562 527.419 L28.3562 521.213 L67.3143 536.872 Z" fill="#000000" fill-rule="nonzero" fill-opacity="1" /><path clip-path="url(#clip230)" d="M14.5426 478.34 Q21.8632 482.605 29.0246 484.674 Q36.186 486.743 43.5384 486.743 Q50.8908 486.743 58.1159 484.674 Q65.3091 482.573 72.5979 478.34 L72.5979 483.432 Q65.1182 488.207 57.8931 490.594 Q50.668 492.949 43.5384 492.949 Q36.4406 492.949 29.2474 490.594 Q22.0542 488.238 14.5426 483.432 L14.5426 478.34 Z" fill="#000000" fill-rule="nonzero" fill-opacity="1" /><path clip-path="url(#clip230)" d="M43.0928 425.727 Q43.0928 428.496 45.4481 430.088 Q47.8034 431.647 52.0048 431.647 Q56.1425 431.647 58.5296 430.088 Q60.885 428.496 60.885 425.727 Q60.885 423.022 58.5296 421.462 Q56.1425 419.871 52.0048 419.871 Q47.8353 419.871 45.48 421.462 Q43.0928 423.022 43.0928 425.727 M39.0506 425.727 Q39.0506 420.698 42.5517 417.738 Q46.0529 414.778 52.0048 414.778 Q57.9567 414.778 61.4579 417.77 Q64.9272 420.73 64.9272 425.727 Q64.9272 430.82 61.4579 433.78 Q57.9567 436.74 52.0048 436.74 Q46.021 436.74 42.5517 433.78 Q39.0506 430.788 39.0506 425.727 M19.667 458.574 Q19.667 461.312 22.0542 462.903 Q24.4095 464.463 28.5472 464.463 Q32.7485 464.463 35.1038 462.903 Q37.4592 461.343 37.4592 458.574 Q37.4592 455.805 35.1038 454.246 Q32.7485 452.654 28.5472 452.654 Q24.4413 452.654 22.0542 454.246 Q19.667 455.837 19.667 458.574 M15.6248 429.833 L15.6248 424.741 L64.9272 454.468 L64.9272 459.561 L15.6248 429.833 M15.6248 458.574 Q15.6248 453.545 19.1259 450.553 Q22.5952 447.562 28.5472 447.562 Q34.5628 447.562 38.0321 450.553 Q41.5014 453.514 41.5014 458.574 Q41.5014 463.635 38.0321 466.595 Q34.5309 469.523 28.5472 469.523 Q22.6271 469.523 19.1259 466.563 Q15.6248 463.603 15.6248 458.574 Z" fill="#000000" fill-rule="nonzero" fill-opacity="1" /><path clip-path="url(#clip230)" d="M14.5426 405.962 L14.5426 400.869 Q22.0542 396.095 29.2474 393.74 Q36.4406 391.352 43.5384 391.352 Q50.668 391.352 57.8931 393.74 Q65.1182 396.095 72.5979 400.869 L72.5979 405.962 Q65.3091 401.729 58.1159 399.66 Q50.8908 397.559 43.5384 397.559 Q36.186 397.559 29.0246 399.66 Q21.8632 401.729 14.5426 405.962 Z" fill="#000000" fill-rule="nonzero" fill-opacity="1" /><circle clip-path="url(#clip232)" cx="700.634" cy="735.212" r="14.4" fill="#009af9" fill-rule="evenodd" fill-opacity="1" stroke="#000000" stroke-opacity="1" stroke-width="3.2"/>
<circle clip-path="url(#clip232)" cx="741.458" cy="616.003" r="14.4" fill="#009af9" fill-rule="evenodd" fill-opacity="1" stroke="#000000" stroke-opacity="1" stroke-width="3.2"/>
<circle clip-path="url(#clip232)" cx="782.28" cy="616.003" r="14.4" fill="#009af9" fill-rule="evenodd" fill-opacity="1" stroke="#000000" stroke-opacity="1" stroke-width="3.2"/>
<circle clip-path="url(#clip232)" cx="823.104" cy="682.23" r="14.4" fill="#009af9" fill-rule="evenodd" fill-opacity="1" stroke="#000000" stroke-opacity="1" stroke-width="3.2"/>
<circle clip-path="url(#clip232)" cx="863.927" cy="642.494" r="14.4" fill="#009af9" fill-rule="evenodd" fill-opacity="1" stroke="#000000" stroke-opacity="1" stroke-width="3.2"/>
<circle clip-path="url(#clip232)" cx="904.751" cy="735.212" r="14.4" fill="#009af9" fill-rule="evenodd" fill-opacity="1" stroke="#000000" stroke-opacity="1" stroke-width="3.2"/>
<circle clip-path="url(#clip232)" cx="945.573" cy="695.476" r="14.4" fill="#009af9" fill-rule="evenodd" fill-opacity="1" stroke="#000000" stroke-opacity="1" stroke-width="3.2"/>
<circle clip-path="url(#clip232)" cx="986.397" cy="616.003" r="14.4" fill="#009af9" fill-rule="evenodd" fill-opacity="1" stroke="#000000" stroke-opacity="1" stroke-width="3.2"/>
<circle clip-path="url(#clip232)" cx="1027.22" cy="642.494" r="14.4" fill="#009af9" fill-rule="evenodd" fill-opacity="1" stroke="#000000" stroke-opacity="1" stroke-width="3.2"/>
<circle clip-path="url(#clip232)" cx="1068.04" cy="616.003" r="14.4" fill="#009af9" fill-rule="evenodd" fill-opacity="1" stroke="#000000" stroke-opacity="1" stroke-width="3.2"/>
<circle clip-path="url(#clip232)" cx="1108.87" cy="125.922" r="14.4" fill="#009af9" fill-rule="evenodd" fill-opacity="1" stroke="#000000" stroke-opacity="1" stroke-width="3.2"/>
<circle clip-path="url(#clip232)" cx="1149.69" cy="218.64" r="14.4" fill="#009af9" fill-rule="evenodd" fill-opacity="1" stroke="#000000" stroke-opacity="1" stroke-width="3.2"/>
<circle clip-path="url(#clip232)" cx="1190.51" cy="99.4311" r="14.4" fill="#009af9" fill-rule="evenodd" fill-opacity="1" stroke="#000000" stroke-opacity="1" stroke-width="3.2"/>
<circle clip-path="url(#clip232)" cx="1231.34" cy="86.1857" r="14.4" fill="#009af9" fill-rule="evenodd" fill-opacity="1" stroke="#000000" stroke-opacity="1" stroke-width="3.2"/>
<circle clip-path="url(#clip232)" cx="1272.16" cy="125.922" r="14.4" fill="#009af9" fill-rule="evenodd" fill-opacity="1" stroke="#000000" stroke-opacity="1" stroke-width="3.2"/>
<circle clip-path="url(#clip232)" cx="1312.98" cy="112.677" r="14.4" fill="#009af9" fill-rule="evenodd" fill-opacity="1" stroke="#000000" stroke-opacity="1" stroke-width="3.2"/>
<circle clip-path="url(#clip232)" cx="1353.81" cy="112.677" r="14.4" fill="#009af9" fill-rule="evenodd" fill-opacity="1" stroke="#000000" stroke-opacity="1" stroke-width="3.2"/>
<circle clip-path="url(#clip232)" cx="1394.63" cy="165.658" r="14.4" fill="#009af9" fill-rule="evenodd" fill-opacity="1" stroke="#000000" stroke-opacity="1" stroke-width="3.2"/>
<circle clip-path="url(#clip232)" cx="1435.46" cy="125.922" r="14.4" fill="#009af9" fill-rule="evenodd" fill-opacity="1" stroke="#000000" stroke-opacity="1" stroke-width="3.2"/>
<circle clip-path="url(#clip232)" cx="1476.28" cy="205.395" r="14.4" fill="#009af9" fill-rule="evenodd" fill-opacity="1" stroke="#000000" stroke-opacity="1" stroke-width="3.2"/>
<circle clip-path="url(#clip232)" cx="1925.34" cy="721.967" r="14.4" fill="#009af9" fill-rule="evenodd" fill-opacity="1" stroke="#000000" stroke-opacity="1" stroke-width="3.2"/>
<circle clip-path="url(#clip232)" cx="1966.16" cy="721.967" r="14.4" fill="#009af9" fill-rule="evenodd" fill-opacity="1" stroke="#000000" stroke-opacity="1" stroke-width="3.2"/>
<circle clip-path="url(#clip232)" cx="2006.98" cy="695.476" r="14.4" fill="#009af9" fill-rule="evenodd" fill-opacity="1" stroke="#000000" stroke-opacity="1" stroke-width="3.2"/>
<circle clip-path="url(#clip232)" cx="2047.8" cy="695.476" r="14.4" fill="#009af9" fill-rule="evenodd" fill-opacity="1" stroke="#000000" stroke-opacity="1" stroke-width="3.2"/>
<circle clip-path="url(#clip232)" cx="2088.63" cy="735.212" r="14.4" fill="#009af9" fill-rule="evenodd" fill-opacity="1" stroke="#000000" stroke-opacity="1" stroke-width="3.2"/>
<circle clip-path="url(#clip232)" cx="2129.45" cy="721.967" r="14.4" fill="#009af9" fill-rule="evenodd" fill-opacity="1" stroke="#000000" stroke-opacity="1" stroke-width="3.2"/>
<circle clip-path="url(#clip232)" cx="2170.28" cy="721.967" r="14.4" fill="#009af9" fill-rule="evenodd" fill-opacity="1" stroke="#000000" stroke-opacity="1" stroke-width="3.2"/>
<circle clip-path="url(#clip232)" cx="2211.1" cy="708.721" r="14.4" fill="#009af9" fill-rule="evenodd" fill-opacity="1" stroke="#000000" stroke-opacity="1" stroke-width="3.2"/>
<circle clip-path="url(#clip232)" cx="2251.92" cy="695.476" r="14.4" fill="#009af9" fill-rule="evenodd" fill-opacity="1" stroke="#000000" stroke-opacity="1" stroke-width="3.2"/>
<circle clip-path="url(#clip232)" cx="2292.75" cy="695.476" r="14.4" fill="#009af9" fill-rule="evenodd" fill-opacity="1" stroke="#000000" stroke-opacity="1" stroke-width="3.2"/>
<circle clip-path="url(#clip232)" cx="292.4" cy="1331.26" r="14.4" fill="#e26f46" fill-rule="evenodd" fill-opacity="1" stroke="#000000" stroke-opacity="1" stroke-width="3.2"/>
<circle clip-path="url(#clip232)" cx="333.224" cy="1331.26" r="14.4" fill="#e26f46" fill-rule="evenodd" fill-opacity="1" stroke="#000000" stroke-opacity="1" stroke-width="3.2"/>
<circle clip-path="url(#clip232)" cx="374.048" cy="1384.24" r="14.4" fill="#e26f46" fill-rule="evenodd" fill-opacity="1" stroke="#000000" stroke-opacity="1" stroke-width="3.2"/>
<circle clip-path="url(#clip232)" cx="414.869" cy="1331.26" r="14.4" fill="#e26f46" fill-rule="evenodd" fill-opacity="1" stroke="#000000" stroke-opacity="1" stroke-width="3.2"/>
<circle clip-path="url(#clip232)" cx="455.693" cy="1344.5" r="14.4" fill="#e26f46" fill-rule="evenodd" fill-opacity="1" stroke="#000000" stroke-opacity="1" stroke-width="3.2"/>
<circle clip-path="url(#clip232)" cx="496.517" cy="1384.24" r="14.4" fill="#e26f46" fill-rule="evenodd" fill-opacity="1" stroke="#000000" stroke-opacity="1" stroke-width="3.2"/>
<circle clip-path="url(#clip232)" cx="537.341" cy="1370.99" r="14.4" fill="#e26f46" fill-rule="evenodd" fill-opacity="1" stroke="#000000" stroke-opacity="1" stroke-width="3.2"/>
<circle clip-path="url(#clip232)" cx="578.162" cy="1357.75" r="14.4" fill="#e26f46" fill-rule="evenodd" fill-opacity="1" stroke="#000000" stroke-opacity="1" stroke-width="3.2"/>
<circle clip-path="url(#clip232)" cx="618.986" cy="1331.26" r="14.4" fill="#e26f46" fill-rule="evenodd" fill-opacity="1" stroke="#000000" stroke-opacity="1" stroke-width="3.2"/>
<circle clip-path="url(#clip232)" cx="659.81" cy="1331.26" r="14.4" fill="#e26f46" fill-rule="evenodd" fill-opacity="1" stroke="#000000" stroke-opacity="1" stroke-width="3.2"/>
<circle clip-path="url(#clip232)" cx="1517.1" cy="457.058" r="14.4" fill="#e26f46" fill-rule="evenodd" fill-opacity="1" stroke="#000000" stroke-opacity="1" stroke-width="3.2"/>
<circle clip-path="url(#clip232)" cx="1557.92" cy="549.776" r="14.4" fill="#e26f46" fill-rule="evenodd" fill-opacity="1" stroke="#000000" stroke-opacity="1" stroke-width="3.2"/>
<circle clip-path="url(#clip232)" cx="1598.75" cy="510.04" r="14.4" fill="#e26f46" fill-rule="evenodd" fill-opacity="1" stroke="#000000" stroke-opacity="1" stroke-width="3.2"/>
<circle clip-path="url(#clip232)" cx="1639.57" cy="549.776" r="14.4" fill="#e26f46" fill-rule="evenodd" fill-opacity="1" stroke="#000000" stroke-opacity="1" stroke-width="3.2"/>
<circle clip-path="url(#clip232)" cx="1680.39" cy="536.53" r="14.4" fill="#e26f46" fill-rule="evenodd" fill-opacity="1" stroke="#000000" stroke-opacity="1" stroke-width="3.2"/>
<circle clip-path="url(#clip232)" cx="1721.22" cy="430.567" r="14.4" fill="#e26f46" fill-rule="evenodd" fill-opacity="1" stroke="#000000" stroke-opacity="1" stroke-width="3.2"/>
<circle clip-path="url(#clip232)" cx="1762.04" cy="457.058" r="14.4" fill="#e26f46" fill-rule="evenodd" fill-opacity="1" stroke="#000000" stroke-opacity="1" stroke-width="3.2"/>
<circle clip-path="url(#clip232)" cx="1802.87" cy="510.04" r="14.4" fill="#e26f46" fill-rule="evenodd" fill-opacity="1" stroke="#000000" stroke-opacity="1" stroke-width="3.2"/>
<circle clip-path="url(#clip232)" cx="1843.69" cy="417.322" r="14.4" fill="#e26f46" fill-rule="evenodd" fill-opacity="1" stroke="#000000" stroke-opacity="1" stroke-width="3.2"/>
<circle clip-path="url(#clip232)" cx="1884.51" cy="549.776" r="14.4" fill="#e26f46" fill-rule="evenodd" fill-opacity="1" stroke="#000000" stroke-opacity="1" stroke-width="3.2"/>
<path clip-path="url(#clip230)" d="M1714.95 248.629 L2282.08 248.629 L2282.08 93.1086 L1714.95 93.1086  Z" fill="#ffffff" fill-rule="evenodd" fill-opacity="1"/>
<polyline clip-path="url(#clip230)" style="stroke:#000000; stroke-linecap:round; stroke-linejoin:round; stroke-width:4; stroke-opacity:1; fill:none" points="1714.95,248.629 2282.08,248.629 2282.08,93.1086 1714.95,93.1086 1714.95,248.629 "/>
<circle clip-path="url(#clip230)" cx="1809.19" cy="144.949" r="20.48" fill="#009af9" fill-rule="evenodd" fill-opacity="1" stroke="#000000" stroke-opacity="1" stroke-width="4.55111"/>
<path clip-path="url(#clip230)" d="M1908.1 131.511 L1908.1 144.497 L1913.98 144.497 Q1917.25 144.497 1919.03 142.807 Q1920.81 141.118 1920.81 137.993 Q1920.81 134.891 1919.03 133.201 Q1917.25 131.511 1913.98 131.511 L1908.1 131.511 M1903.43 127.669 L1913.98 127.669 Q1919.79 127.669 1922.76 130.307 Q1925.74 132.923 1925.74 137.993 Q1925.74 143.108 1922.76 145.724 Q1919.79 148.34 1913.98 148.34 L1908.1 148.34 L1908.1 162.229 L1903.43 162.229 L1903.43 127.669 Z" fill="#000000" fill-rule="nonzero" fill-opacity="1" /><path clip-path="url(#clip230)" d="M1940.19 139.289 Q1936.76 139.289 1934.77 141.974 Q1932.78 144.636 1932.78 149.289 Q1932.78 153.942 1934.75 156.627 Q1936.74 159.289 1940.19 159.289 Q1943.59 159.289 1945.58 156.604 Q1947.57 153.918 1947.57 149.289 Q1947.57 144.682 1945.58 141.997 Q1943.59 139.289 1940.19 139.289 M1940.19 135.678 Q1945.74 135.678 1948.91 139.289 Q1952.08 142.9 1952.08 149.289 Q1952.08 155.655 1948.91 159.289 Q1945.74 162.9 1940.19 162.9 Q1934.61 162.9 1931.44 159.289 Q1928.29 155.655 1928.29 149.289 Q1928.29 142.9 1931.44 139.289 Q1934.61 135.678 1940.19 135.678 Z" fill="#000000" fill-rule="nonzero" fill-opacity="1" /><path clip-path="url(#clip230)" d="M1975.67 137.067 L1975.67 141.094 Q1973.87 140.169 1971.92 139.706 Q1969.98 139.243 1967.89 139.243 Q1964.72 139.243 1963.13 140.215 Q1961.55 141.187 1961.55 143.131 Q1961.55 144.613 1962.69 145.469 Q1963.82 146.303 1967.25 147.067 L1968.7 147.391 Q1973.24 148.363 1975.14 150.145 Q1977.06 151.905 1977.06 155.076 Q1977.06 158.687 1974.19 160.793 Q1971.34 162.9 1966.34 162.9 Q1964.26 162.9 1961.99 162.483 Q1959.75 162.09 1957.25 161.28 L1957.25 156.881 Q1959.61 158.108 1961.9 158.733 Q1964.19 159.335 1966.44 159.335 Q1969.44 159.335 1971.07 158.317 Q1972.69 157.275 1972.69 155.4 Q1972.69 153.664 1971.51 152.738 Q1970.35 151.812 1966.39 150.956 L1964.91 150.608 Q1960.95 149.775 1959.19 148.062 Q1957.43 146.326 1957.43 143.317 Q1957.43 139.659 1960.02 137.669 Q1962.62 135.678 1967.38 135.678 Q1969.75 135.678 1971.83 136.025 Q1973.91 136.372 1975.67 137.067 Z" fill="#000000" fill-rule="nonzero" fill-opacity="1" /><path clip-path="url(#clip230)" d="M1983.84 136.303 L1988.1 136.303 L1988.1 162.229 L1983.84 162.229 L1983.84 136.303 M1983.84 126.21 L1988.1 126.21 L1988.1 131.604 L1983.84 131.604 L1983.84 126.21 Z" fill="#000000" fill-rule="nonzero" fill-opacity="1" /><path clip-path="url(#clip230)" d="M2001.23 128.942 L2001.23 136.303 L2010 136.303 L2010 139.613 L2001.23 139.613 L2001.23 153.687 Q2001.23 156.858 2002.08 157.761 Q2002.96 158.664 2005.63 158.664 L2010 158.664 L2010 162.229 L2005.63 162.229 Q2000.69 162.229 1998.82 160.4 Q1996.94 158.548 1996.94 153.687 L1996.94 139.613 L1993.82 139.613 L1993.82 136.303 L1996.94 136.303 L1996.94 128.942 L2001.23 128.942 Z" fill="#000000" fill-rule="nonzero" fill-opacity="1" /><path clip-path="url(#clip230)" d="M2015.6 136.303 L2019.86 136.303 L2019.86 162.229 L2015.6 162.229 L2015.6 136.303 M2015.6 126.21 L2019.86 126.21 L2019.86 131.604 L2015.6 131.604 L2015.6 126.21 Z" fill="#000000" fill-rule="nonzero" fill-opacity="1" /><path clip-path="url(#clip230)" d="M2025.72 136.303 L2030.23 136.303 L2038.33 158.062 L2046.44 136.303 L2050.95 136.303 L2041.23 162.229 L2035.44 162.229 L2025.72 136.303 Z" fill="#000000" fill-rule="nonzero" fill-opacity="1" /><path clip-path="url(#clip230)" d="M2079 148.201 L2079 150.284 L2059.42 150.284 Q2059.7 154.682 2062.06 156.997 Q2064.44 159.289 2068.68 159.289 Q2071.13 159.289 2073.43 158.687 Q2075.74 158.085 2078.01 156.881 L2078.01 160.909 Q2075.72 161.881 2073.31 162.391 Q2070.9 162.9 2068.43 162.9 Q2062.22 162.9 2058.59 159.289 Q2054.98 155.678 2054.98 149.52 Q2054.98 143.155 2058.4 139.428 Q2061.85 135.678 2067.69 135.678 Q2072.92 135.678 2075.95 139.057 Q2079 142.414 2079 148.201 M2074.75 146.951 Q2074.7 143.456 2072.78 141.372 Q2070.88 139.289 2067.73 139.289 Q2064.17 139.289 2062.01 141.303 Q2059.88 143.317 2059.56 146.974 L2074.75 146.951 Z" fill="#000000" fill-rule="nonzero" fill-opacity="1" /><path clip-path="url(#clip230)" d="M2121.25 141.28 Q2122.85 138.409 2125.07 137.044 Q2127.29 135.678 2130.3 135.678 Q2134.35 135.678 2136.55 138.525 Q2138.75 141.349 2138.75 146.581 L2138.75 162.229 L2134.47 162.229 L2134.47 146.719 Q2134.47 142.993 2133.15 141.187 Q2131.83 139.382 2129.12 139.382 Q2125.81 139.382 2123.89 141.581 Q2121.97 143.78 2121.97 147.576 L2121.97 162.229 L2117.68 162.229 L2117.68 146.719 Q2117.68 142.969 2116.37 141.187 Q2115.05 139.382 2112.29 139.382 Q2109.03 139.382 2107.11 141.604 Q2105.18 143.803 2105.18 147.576 L2105.18 162.229 L2100.9 162.229 L2100.9 136.303 L2105.18 136.303 L2105.18 140.331 Q2106.64 137.946 2108.68 136.812 Q2110.72 135.678 2113.52 135.678 Q2116.34 135.678 2118.31 137.113 Q2120.3 138.548 2121.25 141.28 Z" fill="#000000" fill-rule="nonzero" fill-opacity="1" /><path clip-path="url(#clip230)" d="M2157.29 139.289 Q2153.87 139.289 2151.87 141.974 Q2149.88 144.636 2149.88 149.289 Q2149.88 153.942 2151.85 156.627 Q2153.84 159.289 2157.29 159.289 Q2160.69 159.289 2162.68 156.604 Q2164.68 153.918 2164.68 149.289 Q2164.68 144.682 2162.68 141.997 Q2160.69 139.289 2157.29 139.289 M2157.29 135.678 Q2162.85 135.678 2166.02 139.289 Q2169.19 142.9 2169.19 149.289 Q2169.19 155.655 2166.02 159.289 Q2162.85 162.9 2157.29 162.9 Q2151.71 162.9 2148.54 159.289 Q2145.39 155.655 2145.39 149.289 Q2145.39 142.9 2148.54 139.289 Q2151.71 135.678 2157.29 135.678 Z" fill="#000000" fill-rule="nonzero" fill-opacity="1" /><path clip-path="url(#clip230)" d="M2193.31 140.238 L2193.31 126.21 L2197.57 126.21 L2197.57 162.229 L2193.31 162.229 L2193.31 158.34 Q2191.97 160.655 2189.91 161.789 Q2187.87 162.9 2185 162.9 Q2180.3 162.9 2177.34 159.15 Q2174.4 155.4 2174.4 149.289 Q2174.4 143.178 2177.34 139.428 Q2180.3 135.678 2185 135.678 Q2187.87 135.678 2189.91 136.812 Q2191.97 137.923 2193.31 140.238 M2178.8 149.289 Q2178.8 153.988 2180.72 156.673 Q2182.66 159.335 2186.04 159.335 Q2189.42 159.335 2191.36 156.673 Q2193.31 153.988 2193.31 149.289 Q2193.31 144.59 2191.36 141.928 Q2189.42 139.243 2186.04 139.243 Q2182.66 139.243 2180.72 141.928 Q2178.8 144.59 2178.8 149.289 Z" fill="#000000" fill-rule="nonzero" fill-opacity="1" /><path clip-path="url(#clip230)" d="M2228.52 148.201 L2228.52 150.284 L2208.93 150.284 Q2209.21 154.682 2211.57 156.997 Q2213.96 159.289 2218.19 159.289 Q2220.65 159.289 2222.94 158.687 Q2225.25 158.085 2227.52 156.881 L2227.52 160.909 Q2225.23 161.881 2222.82 162.391 Q2220.42 162.9 2217.94 162.9 Q2211.74 162.9 2208.1 159.289 Q2204.49 155.678 2204.49 149.52 Q2204.49 143.155 2207.92 139.428 Q2211.36 135.678 2217.2 135.678 Q2222.43 135.678 2225.46 139.057 Q2228.52 142.414 2228.52 148.201 M2224.26 146.951 Q2224.21 143.456 2222.29 141.372 Q2220.39 139.289 2217.24 139.289 Q2213.68 139.289 2211.53 141.303 Q2209.4 143.317 2209.07 146.974 L2224.26 146.951 Z" fill="#000000" fill-rule="nonzero" fill-opacity="1" /><circle clip-path="url(#clip230)" cx="1809.19" cy="196.789" r="20.48" fill="#e26f46" fill-rule="evenodd" fill-opacity="1" stroke="#000000" stroke-opacity="1" stroke-width="4.55111"/>
<path clip-path="url(#clip230)" d="M1903.43 179.509 L1909.72 179.509 L1925.05 208.421 L1925.05 179.509 L1929.58 179.509 L1929.58 214.069 L1923.29 214.069 L1907.96 185.157 L1907.96 214.069 L1903.43 214.069 L1903.43 179.509 Z" fill="#000000" fill-rule="nonzero" fill-opacity="1" /><path clip-path="url(#clip230)" d="M1960.88 200.041 L1960.88 202.124 L1941.3 202.124 Q1941.57 206.522 1943.94 208.837 Q1946.32 211.129 1950.56 211.129 Q1953.01 211.129 1955.3 210.527 Q1957.62 209.925 1959.88 208.721 L1959.88 212.749 Q1957.59 213.721 1955.19 214.231 Q1952.78 214.74 1950.3 214.74 Q1944.1 214.74 1940.46 211.129 Q1936.85 207.518 1936.85 201.36 Q1936.85 194.995 1940.28 191.268 Q1943.73 187.518 1949.56 187.518 Q1954.79 187.518 1957.82 190.897 Q1960.88 194.254 1960.88 200.041 M1956.62 198.791 Q1956.57 195.296 1954.65 193.212 Q1952.76 191.129 1949.61 191.129 Q1946.04 191.129 1943.89 193.143 Q1941.76 195.157 1941.44 198.814 L1956.62 198.791 Z" fill="#000000" fill-rule="nonzero" fill-opacity="1" /><path clip-path="url(#clip230)" d="M1984.93 200.805 Q1984.93 196.175 1983.01 193.629 Q1981.11 191.083 1977.66 191.083 Q1974.24 191.083 1972.32 193.629 Q1970.42 196.175 1970.42 200.805 Q1970.42 205.411 1972.32 207.958 Q1974.24 210.504 1977.66 210.504 Q1981.11 210.504 1983.01 207.958 Q1984.93 205.411 1984.93 200.805 M1989.19 210.851 Q1989.19 217.471 1986.25 220.689 Q1983.31 223.93 1977.25 223.93 Q1975 223.93 1973.01 223.582 Q1971.02 223.258 1969.14 222.564 L1969.14 218.42 Q1971.02 219.439 1972.85 219.925 Q1974.68 220.411 1976.57 220.411 Q1980.76 220.411 1982.85 218.212 Q1984.93 216.036 1984.93 211.615 L1984.93 209.508 Q1983.61 211.8 1981.55 212.934 Q1979.49 214.069 1976.62 214.069 Q1971.85 214.069 1968.94 210.434 Q1966.02 206.8 1966.02 200.805 Q1966.02 194.786 1968.94 191.152 Q1971.85 187.518 1976.62 187.518 Q1979.49 187.518 1981.55 188.652 Q1983.61 189.786 1984.93 192.078 L1984.93 188.143 L1989.19 188.143 L1989.19 210.851 Z" fill="#000000" fill-rule="nonzero" fill-opacity="1" /><path clip-path="url(#clip230)" d="M2009.75 201.036 Q2004.58 201.036 2002.59 202.217 Q2000.6 203.397 2000.6 206.245 Q2000.6 208.513 2002.08 209.856 Q2003.59 211.175 2006.16 211.175 Q2009.7 211.175 2011.83 208.675 Q2013.98 206.152 2013.98 201.985 L2013.98 201.036 L2009.75 201.036 M2018.24 199.277 L2018.24 214.069 L2013.98 214.069 L2013.98 210.133 Q2012.52 212.495 2010.35 213.629 Q2008.17 214.74 2005.02 214.74 Q2001.04 214.74 1998.68 212.518 Q1996.34 210.272 1996.34 206.522 Q1996.34 202.147 1999.26 199.925 Q2002.2 197.703 2008.01 197.703 L2013.98 197.703 L2013.98 197.286 Q2013.98 194.347 2012.04 192.749 Q2010.12 191.129 2006.62 191.129 Q2004.4 191.129 2002.29 191.661 Q2000.19 192.194 1998.24 193.259 L1998.24 189.323 Q2000.58 188.421 2002.78 187.981 Q2004.98 187.518 2007.06 187.518 Q2012.69 187.518 2015.46 190.434 Q2018.24 193.351 2018.24 199.277 Z" fill="#000000" fill-rule="nonzero" fill-opacity="1" /><path clip-path="url(#clip230)" d="M2031.23 180.782 L2031.23 188.143 L2040 188.143 L2040 191.453 L2031.23 191.453 L2031.23 205.527 Q2031.23 208.698 2032.08 209.601 Q2032.96 210.504 2035.63 210.504 L2040 210.504 L2040 214.069 L2035.63 214.069 Q2030.69 214.069 2028.82 212.24 Q2026.94 210.388 2026.94 205.527 L2026.94 191.453 L2023.82 191.453 L2023.82 188.143 L2026.94 188.143 L2026.94 180.782 L2031.23 180.782 Z" fill="#000000" fill-rule="nonzero" fill-opacity="1" /><path clip-path="url(#clip230)" d="M2045.6 188.143 L2049.86 188.143 L2049.86 214.069 L2045.6 214.069 L2045.6 188.143 M2045.6 178.05 L2049.86 178.05 L2049.86 183.444 L2045.6 183.444 L2045.6 178.05 Z" fill="#000000" fill-rule="nonzero" fill-opacity="1" /><path clip-path="url(#clip230)" d="M2055.72 188.143 L2060.23 188.143 L2068.33 209.902 L2076.44 188.143 L2080.95 188.143 L2071.23 214.069 L2065.44 214.069 L2055.72 188.143 Z" fill="#000000" fill-rule="nonzero" fill-opacity="1" /><path clip-path="url(#clip230)" d="M2109 200.041 L2109 202.124 L2089.42 202.124 Q2089.7 206.522 2092.06 208.837 Q2094.44 211.129 2098.68 211.129 Q2101.13 211.129 2103.43 210.527 Q2105.74 209.925 2108.01 208.721 L2108.01 212.749 Q2105.72 213.721 2103.31 214.231 Q2100.9 214.74 2098.43 214.74 Q2092.22 214.74 2088.59 211.129 Q2084.98 207.518 2084.98 201.36 Q2084.98 194.995 2088.4 191.268 Q2091.85 187.518 2097.68 187.518 Q2102.92 187.518 2105.95 190.897 Q2109 194.254 2109 200.041 M2104.75 198.791 Q2104.7 195.296 2102.78 193.212 Q2100.88 191.129 2097.73 191.129 Q2094.17 191.129 2092.01 193.143 Q2089.88 195.157 2089.56 198.814 L2104.75 198.791 Z" fill="#000000" fill-rule="nonzero" fill-opacity="1" /><path clip-path="url(#clip230)" d="M2151.25 193.12 Q2152.85 190.249 2155.07 188.884 Q2157.29 187.518 2160.3 187.518 Q2164.35 187.518 2166.55 190.365 Q2168.75 193.189 2168.75 198.421 L2168.75 214.069 L2164.47 214.069 L2164.47 198.559 Q2164.47 194.833 2163.15 193.027 Q2161.83 191.222 2159.12 191.222 Q2155.81 191.222 2153.89 193.421 Q2151.97 195.62 2151.97 199.416 L2151.97 214.069 L2147.68 214.069 L2147.68 198.559 Q2147.68 194.809 2146.37 193.027 Q2145.05 191.222 2142.29 191.222 Q2139.03 191.222 2137.11 193.444 Q2135.18 195.643 2135.18 199.416 L2135.18 214.069 L2130.9 214.069 L2130.9 188.143 L2135.18 188.143 L2135.18 192.171 Q2136.64 189.786 2138.68 188.652 Q2140.72 187.518 2143.52 187.518 Q2146.34 187.518 2148.31 188.953 Q2150.3 190.388 2151.25 193.12 Z" fill="#000000" fill-rule="nonzero" fill-opacity="1" /><path clip-path="url(#clip230)" d="M2187.29 191.129 Q2183.87 191.129 2181.87 193.814 Q2179.88 196.476 2179.88 201.129 Q2179.88 205.782 2181.85 208.467 Q2183.84 211.129 2187.29 211.129 Q2190.69 211.129 2192.68 208.444 Q2194.68 205.758 2194.68 201.129 Q2194.68 196.522 2192.68 193.837 Q2190.69 191.129 2187.29 191.129 M2187.29 187.518 Q2192.85 187.518 2196.02 191.129 Q2199.19 194.74 2199.19 201.129 Q2199.19 207.495 2196.02 211.129 Q2192.85 214.74 2187.29 214.74 Q2181.71 214.74 2178.54 211.129 Q2175.39 207.495 2175.39 201.129 Q2175.39 194.74 2178.54 191.129 Q2181.71 187.518 2187.29 187.518 Z" fill="#000000" fill-rule="nonzero" fill-opacity="1" /><path clip-path="url(#clip230)" d="M2223.31 192.078 L2223.31 178.05 L2227.57 178.05 L2227.57 214.069 L2223.31 214.069 L2223.31 210.18 Q2221.97 212.495 2219.91 213.629 Q2217.87 214.74 2215 214.74 Q2210.3 214.74 2207.34 210.99 Q2204.4 207.24 2204.4 201.129 Q2204.4 195.018 2207.34 191.268 Q2210.3 187.518 2215 187.518 Q2217.87 187.518 2219.91 188.652 Q2221.97 189.763 2223.31 192.078 M2208.8 201.129 Q2208.8 205.828 2210.72 208.513 Q2212.66 211.175 2216.04 211.175 Q2219.42 211.175 2221.36 208.513 Q2223.31 205.828 2223.31 201.129 Q2223.31 196.43 2221.36 193.768 Q2219.42 191.083 2216.04 191.083 Q2212.66 191.083 2210.72 193.768 Q2208.8 196.43 2208.8 201.129 Z" fill="#000000" fill-rule="nonzero" fill-opacity="1" /><path clip-path="url(#clip230)" d="M2258.52 200.041 L2258.52 202.124 L2238.93 202.124 Q2239.21 206.522 2241.57 208.837 Q2243.96 211.129 2248.19 211.129 Q2250.65 211.129 2252.94 210.527 Q2255.25 209.925 2257.52 208.721 L2257.52 212.749 Q2255.23 213.721 2252.82 214.231 Q2250.42 214.74 2247.94 214.74 Q2241.74 214.74 2238.1 211.129 Q2234.49 207.518 2234.49 201.36 Q2234.49 194.995 2237.92 191.268 Q2241.36 187.518 2247.2 187.518 Q2252.43 187.518 2255.46 190.897 Q2258.52 194.254 2258.52 200.041 M2254.26 198.791 Q2254.21 195.296 2252.29 193.212 Q2250.39 191.129 2247.24 191.129 Q2243.68 191.129 2241.53 193.143 Q2239.4 195.157 2239.07 198.814 L2254.26 198.791 Z" fill="#000000" fill-rule="nonzero" fill-opacity="1" /></svg>
