<?xml version="1.0" encoding="utf-8"?>
<svg xmlns="http://www.w3.org/2000/svg" xmlns:xlink="http://www.w3.org/1999/xlink" width="600" height="400" viewBox="0 0 2400 1600">
<defs>
  <clipPath id="clip070">
    <rect x="0" y="0" width="2400" height="1600"/>
  </clipPath>
</defs>
<path clip-path="url(#clip070)" d="M0 1600 L2400 1600 L2400 0 L0 0  Z" fill="#ffffff" fill-rule="evenodd" fill-opacity="1"/>
<defs>
  <clipPath id="clip071">
    <rect x="480" y="0" width="1681" height="1600"/>
  </clipPath>
</defs>
<path clip-path="url(#clip070)" d="M368.886 1423.18 L2352.76 1423.18 L2352.76 47.2441 L368.886 47.2441  Z" fill="#ffffff" fill-rule="evenodd" fill-opacity="1"/>
<defs>
  <clipPath id="clip072">
    <rect x="368" y="47" width="1985" height="1377"/>
  </clipPath>
</defs>
<polyline clip-path="url(#clip072)" style="stroke:#000000; stroke-linecap:round; stroke-linejoin:round; stroke-width:2; stroke-opacity:0.1; fill:none" points="455.098,1423.18 455.098,47.2441 "/>
<polyline clip-path="url(#clip072)" style="stroke:#000000; stroke-linecap:round; stroke-linejoin:round; stroke-width:2; stroke-opacity:0.1; fill:none" points="738.407,1423.18 738.407,47.2441 "/>
<polyline clip-path="url(#clip072)" style="stroke:#000000; stroke-linecap:round; stroke-linejoin:round; stroke-width:2; stroke-opacity:0.1; fill:none" points="1021.72,1423.18 1021.72,47.2441 "/>
<polyline clip-path="url(#clip072)" style="stroke:#000000; stroke-linecap:round; stroke-linejoin:round; stroke-width:2; stroke-opacity:0.1; fill:none" points="1305.03,1423.18 1305.03,47.2441 "/>
<polyline clip-path="url(#clip072)" style="stroke:#000000; stroke-linecap:round; stroke-linejoin:round; stroke-width:2; stroke-opacity:0.1; fill:none" points="1588.34,1423.18 1588.34,47.2441 "/>
<polyline clip-path="url(#clip072)" style="stroke:#000000; stroke-linecap:round; stroke-linejoin:round; stroke-width:2; stroke-opacity:0.1; fill:none" points="1871.64,1423.18 1871.64,47.2441 "/>
<polyline clip-path="url(#clip072)" style="stroke:#000000; stroke-linecap:round; stroke-linejoin:round; stroke-width:2; stroke-opacity:0.1; fill:none" points="2154.95,1423.18 2154.95,47.2441 "/>
<polyline clip-path="url(#clip072)" style="stroke:#000000; stroke-linecap:round; stroke-linejoin:round; stroke-width:2; stroke-opacity:0.1; fill:none" points="368.886,1384.24 2352.76,1384.24 "/>
<polyline clip-path="url(#clip072)" style="stroke:#000000; stroke-linecap:round; stroke-linejoin:round; stroke-width:2; stroke-opacity:0.1; fill:none" points="368.886,1180.93 2352.76,1180.93 "/>
<polyline clip-path="url(#clip072)" style="stroke:#000000; stroke-linecap:round; stroke-linejoin:round; stroke-width:2; stroke-opacity:0.1; fill:none" points="368.886,977.631 2352.76,977.631 "/>
<polyline clip-path="url(#clip072)" style="stroke:#000000; stroke-linecap:round; stroke-linejoin:round; stroke-width:2; stroke-opacity:0.1; fill:none" points="368.886,774.327 2352.76,774.327 "/>
<polyline clip-path="url(#clip072)" style="stroke:#000000; stroke-linecap:round; stroke-linejoin:round; stroke-width:2; stroke-opacity:0.1; fill:none" points="368.886,571.024 2352.76,571.024 "/>
<polyline clip-path="url(#clip072)" style="stroke:#000000; stroke-linecap:round; stroke-linejoin:round; stroke-width:2; stroke-opacity:0.1; fill:none" points="368.886,367.72 2352.76,367.72 "/>
<polyline clip-path="url(#clip072)" style="stroke:#000000; stroke-linecap:round; stroke-linejoin:round; stroke-width:2; stroke-opacity:0.1; fill:none" points="368.886,164.416 2352.76,164.416 "/>
<polyline clip-path="url(#clip070)" style="stroke:#000000; stroke-linecap:round; stroke-linejoin:round; stroke-width:4; stroke-opacity:1; fill:none" points="368.886,1423.18 2352.76,1423.18 "/>
<polyline clip-path="url(#clip070)" style="stroke:#000000; stroke-linecap:round; stroke-linejoin:round; stroke-width:4; stroke-opacity:1; fill:none" points="455.098,1423.18 455.098,1404.28 "/>
<polyline clip-path="url(#clip070)" style="stroke:#000000; stroke-linecap:round; stroke-linejoin:round; stroke-width:4; stroke-opacity:1; fill:none" points="738.407,1423.18 738.407,1404.28 "/>
<polyline clip-path="url(#clip070)" style="stroke:#000000; stroke-linecap:round; stroke-linejoin:round; stroke-width:4; stroke-opacity:1; fill:none" points="1021.72,1423.18 1021.72,1404.28 "/>
<polyline clip-path="url(#clip070)" style="stroke:#000000; stroke-linecap:round; stroke-linejoin:round; stroke-width:4; stroke-opacity:1; fill:none" points="1305.03,1423.18 1305.03,1404.28 "/>
<polyline clip-path="url(#clip070)" style="stroke:#000000; stroke-linecap:round; stroke-linejoin:round; stroke-width:4; stroke-opacity:1; fill:none" points="1588.34,1423.18 1588.34,1404.28 "/>
<polyline clip-path="url(#clip070)" style="stroke:#000000; stroke-linecap:round; stroke-linejoin:round; stroke-width:4; stroke-opacity:1; fill:none" points="1871.64,1423.18 1871.64,1404.28 "/>
<polyline clip-path="url(#clip070)" style="stroke:#000000; stroke-linecap:round; stroke-linejoin:round; stroke-width:4; stroke-opacity:1; fill:none" points="2154.95,1423.18 2154.95,1404.28 "/>
<path clip-path="url(#clip070)" d="M433.871 1481.64 L450.191 1481.64 L450.191 1485.58 L428.246 1485.58 L428.246 1481.64 Q430.908 1478.89 435.492 1474.26 Q440.098 1469.61 441.279 1468.27 Q443.524 1465.74 444.404 1464.01 Q445.306 1462.25 445.306 1460.56 Q445.306 1457.8 443.362 1456.07 Q441.441 1454.33 438.339 1454.33 Q436.14 1454.33 433.686 1455.09 Q431.256 1455.86 428.478 1457.41 L428.478 1452.69 Q431.302 1451.55 433.756 1450.97 Q436.209 1450.39 438.246 1450.39 Q443.617 1450.39 446.811 1453.08 Q450.005 1455.77 450.005 1460.26 Q450.005 1462.39 449.195 1464.31 Q448.408 1466.2 446.302 1468.8 Q445.723 1469.47 442.621 1472.69 Q439.519 1475.88 433.871 1481.64 Z" fill="#000000" fill-rule="nonzero" fill-opacity="1" /><path clip-path="url(#clip070)" d="M470.005 1454.1 Q466.394 1454.1 464.566 1457.66 Q462.76 1461.2 462.76 1468.33 Q462.76 1475.44 464.566 1479.01 Q466.394 1482.55 470.005 1482.55 Q473.64 1482.55 475.445 1479.01 Q477.274 1475.44 477.274 1468.33 Q477.274 1461.2 475.445 1457.66 Q473.64 1454.1 470.005 1454.1 M470.005 1450.39 Q475.816 1450.39 478.871 1455 Q481.95 1459.58 481.95 1468.33 Q481.95 1477.06 478.871 1481.67 Q475.816 1486.25 470.005 1486.25 Q464.195 1486.25 461.117 1481.67 Q458.061 1477.06 458.061 1468.33 Q458.061 1459.58 461.117 1455 Q464.195 1450.39 470.005 1450.39 Z" fill="#000000" fill-rule="nonzero" fill-opacity="1" /><path clip-path="url(#clip070)" d="M727.25 1466.95 Q730.606 1467.66 732.481 1469.93 Q734.38 1472.2 734.38 1475.53 Q734.38 1480.65 730.861 1483.45 Q727.343 1486.25 720.861 1486.25 Q718.685 1486.25 716.37 1485.81 Q714.079 1485.39 711.625 1484.54 L711.625 1480.02 Q713.57 1481.16 715.884 1481.74 Q718.199 1482.32 720.722 1482.32 Q725.12 1482.32 727.412 1480.58 Q729.727 1478.84 729.727 1475.53 Q729.727 1472.48 727.574 1470.77 Q725.444 1469.03 721.625 1469.03 L717.597 1469.03 L717.597 1465.19 L721.81 1465.19 Q725.259 1465.19 727.088 1463.82 Q728.917 1462.43 728.917 1459.84 Q728.917 1457.18 727.019 1455.77 Q725.144 1454.33 721.625 1454.33 Q719.704 1454.33 717.505 1454.75 Q715.306 1455.16 712.667 1456.04 L712.667 1451.88 Q715.329 1451.14 717.644 1450.77 Q719.982 1450.39 722.042 1450.39 Q727.366 1450.39 730.468 1452.83 Q733.569 1455.23 733.569 1459.35 Q733.569 1462.22 731.926 1464.21 Q730.282 1466.18 727.25 1466.95 Z" fill="#000000" fill-rule="nonzero" fill-opacity="1" /><path clip-path="url(#clip070)" d="M753.245 1454.1 Q749.634 1454.1 747.805 1457.66 Q746 1461.2 746 1468.33 Q746 1475.44 747.805 1479.01 Q749.634 1482.55 753.245 1482.55 Q756.88 1482.55 758.685 1479.01 Q760.514 1475.44 760.514 1468.33 Q760.514 1461.2 758.685 1457.66 Q756.88 1454.1 753.245 1454.1 M753.245 1450.39 Q759.055 1450.39 762.111 1455 Q765.19 1459.58 765.19 1468.33 Q765.19 1477.06 762.111 1481.67 Q759.055 1486.25 753.245 1486.25 Q747.435 1486.25 744.356 1481.67 Q741.301 1477.06 741.301 1468.33 Q741.301 1459.58 744.356 1455 Q747.435 1450.39 753.245 1450.39 Z" fill="#000000" fill-rule="nonzero" fill-opacity="1" /><path clip-path="url(#clip070)" d="M1009.89 1455.09 L998.083 1473.54 L1009.89 1473.54 L1009.89 1455.09 M1008.66 1451.02 L1014.54 1451.02 L1014.54 1473.54 L1019.47 1473.54 L1019.47 1477.43 L1014.54 1477.43 L1014.54 1485.58 L1009.89 1485.58 L1009.89 1477.43 L994.286 1477.43 L994.286 1472.92 L1008.66 1451.02 Z" fill="#000000" fill-rule="nonzero" fill-opacity="1" /><path clip-path="url(#clip070)" d="M1037.2 1454.1 Q1033.59 1454.1 1031.76 1457.66 Q1029.96 1461.2 1029.96 1468.33 Q1029.96 1475.44 1031.76 1479.01 Q1033.59 1482.55 1037.2 1482.55 Q1040.84 1482.55 1042.64 1479.01 Q1044.47 1475.44 1044.47 1468.33 Q1044.47 1461.2 1042.64 1457.66 Q1040.84 1454.1 1037.2 1454.1 M1037.2 1450.39 Q1043.01 1450.39 1046.07 1455 Q1049.15 1459.58 1049.15 1468.33 Q1049.15 1477.06 1046.07 1481.67 Q1043.01 1486.25 1037.2 1486.25 Q1031.39 1486.25 1028.31 1481.67 Q1025.26 1477.06 1025.26 1468.33 Q1025.26 1459.58 1028.31 1455 Q1031.39 1450.39 1037.2 1450.39 Z" fill="#000000" fill-rule="nonzero" fill-opacity="1" /><path clip-path="url(#clip070)" d="M1279.73 1451.02 L1298.08 1451.02 L1298.08 1454.96 L1284.01 1454.96 L1284.01 1463.43 Q1285.03 1463.08 1286.04 1462.92 Q1287.06 1462.73 1288.08 1462.73 Q1293.87 1462.73 1297.25 1465.9 Q1300.63 1469.08 1300.63 1474.49 Q1300.63 1480.07 1297.16 1483.17 Q1293.68 1486.25 1287.36 1486.25 Q1285.19 1486.25 1282.92 1485.88 Q1280.67 1485.51 1278.27 1484.77 L1278.27 1480.07 Q1280.35 1481.2 1282.57 1481.76 Q1284.79 1482.32 1287.27 1482.32 Q1291.28 1482.32 1293.61 1480.21 Q1295.95 1478.1 1295.95 1474.49 Q1295.95 1470.88 1293.61 1468.77 Q1291.28 1466.67 1287.27 1466.67 Q1285.4 1466.67 1283.52 1467.08 Q1281.67 1467.5 1279.73 1468.38 L1279.73 1451.02 Z" fill="#000000" fill-rule="nonzero" fill-opacity="1" /><path clip-path="url(#clip070)" d="M1319.84 1454.1 Q1316.23 1454.1 1314.4 1457.66 Q1312.6 1461.2 1312.6 1468.33 Q1312.6 1475.44 1314.4 1479.01 Q1316.23 1482.55 1319.84 1482.55 Q1323.47 1482.55 1325.28 1479.01 Q1327.11 1475.44 1327.11 1468.33 Q1327.11 1461.2 1325.28 1457.66 Q1323.47 1454.1 1319.84 1454.1 M1319.84 1450.39 Q1325.65 1450.39 1328.71 1455 Q1331.79 1459.58 1331.79 1468.33 Q1331.79 1477.06 1328.71 1481.67 Q1325.65 1486.25 1319.84 1486.25 Q1314.03 1486.25 1310.95 1481.67 Q1307.9 1477.06 1307.9 1468.33 Q1307.9 1459.58 1310.95 1455 Q1314.03 1450.39 1319.84 1450.39 Z" fill="#000000" fill-rule="nonzero" fill-opacity="1" /><path clip-path="url(#clip070)" d="M1573.74 1466.44 Q1570.59 1466.44 1568.74 1468.59 Q1566.91 1470.74 1566.91 1474.49 Q1566.91 1478.22 1568.74 1480.39 Q1570.59 1482.55 1573.74 1482.55 Q1576.89 1482.55 1578.72 1480.39 Q1580.57 1478.22 1580.57 1474.49 Q1580.57 1470.74 1578.72 1468.59 Q1576.89 1466.44 1573.74 1466.44 M1583.02 1451.78 L1583.02 1456.04 Q1581.26 1455.21 1579.46 1454.77 Q1577.68 1454.33 1575.92 1454.33 Q1571.29 1454.33 1568.83 1457.45 Q1566.4 1460.58 1566.06 1466.9 Q1567.42 1464.89 1569.48 1463.82 Q1571.54 1462.73 1574.02 1462.73 Q1579.23 1462.73 1582.24 1465.9 Q1585.27 1469.05 1585.27 1474.49 Q1585.27 1479.82 1582.12 1483.03 Q1578.97 1486.25 1573.74 1486.25 Q1567.75 1486.25 1564.57 1481.67 Q1561.4 1477.06 1561.4 1468.33 Q1561.4 1460.14 1565.29 1455.28 Q1569.18 1450.39 1575.73 1450.39 Q1577.49 1450.39 1579.27 1450.74 Q1581.08 1451.09 1583.02 1451.78 Z" fill="#000000" fill-rule="nonzero" fill-opacity="1" /><path clip-path="url(#clip070)" d="M1603.32 1454.1 Q1599.71 1454.1 1597.88 1457.66 Q1596.08 1461.2 1596.08 1468.33 Q1596.08 1475.44 1597.88 1479.01 Q1599.71 1482.55 1603.32 1482.55 Q1606.96 1482.55 1608.76 1479.01 Q1610.59 1475.44 1610.59 1468.33 Q1610.59 1461.2 1608.76 1457.66 Q1606.96 1454.1 1603.32 1454.1 M1603.32 1450.39 Q1609.13 1450.39 1612.19 1455 Q1615.27 1459.58 1615.27 1468.33 Q1615.27 1477.06 1612.19 1481.67 Q1609.13 1486.25 1603.32 1486.25 Q1597.51 1486.25 1594.43 1481.67 Q1591.38 1477.06 1591.38 1468.33 Q1591.38 1459.58 1594.43 1455 Q1597.51 1450.39 1603.32 1450.39 Z" fill="#000000" fill-rule="nonzero" fill-opacity="1" /><path clip-path="url(#clip070)" d="M1845 1451.02 L1867.22 1451.02 L1867.22 1453.01 L1854.68 1485.58 L1849.79 1485.58 L1861.6 1454.96 L1845 1454.96 L1845 1451.02 Z" fill="#000000" fill-rule="nonzero" fill-opacity="1" /><path clip-path="url(#clip070)" d="M1886.34 1454.1 Q1882.73 1454.1 1880.9 1457.66 Q1879.1 1461.2 1879.1 1468.33 Q1879.1 1475.44 1880.9 1479.01 Q1882.73 1482.55 1886.34 1482.55 Q1889.98 1482.55 1891.78 1479.01 Q1893.61 1475.44 1893.61 1468.33 Q1893.61 1461.2 1891.78 1457.66 Q1889.98 1454.1 1886.34 1454.1 M1886.34 1450.39 Q1892.15 1450.39 1895.21 1455 Q1898.29 1459.58 1898.29 1468.33 Q1898.29 1477.06 1895.21 1481.67 Q1892.15 1486.25 1886.34 1486.25 Q1880.53 1486.25 1877.45 1481.67 Q1874.4 1477.06 1874.4 1468.33 Q1874.4 1459.58 1877.45 1455 Q1880.53 1450.39 1886.34 1450.39 Z" fill="#000000" fill-rule="nonzero" fill-opacity="1" /><path clip-path="url(#clip070)" d="M2139.83 1469.17 Q2136.49 1469.17 2134.57 1470.95 Q2132.67 1472.73 2132.67 1475.86 Q2132.67 1478.98 2134.57 1480.77 Q2136.49 1482.55 2139.83 1482.55 Q2143.16 1482.55 2145.08 1480.77 Q2147 1478.96 2147 1475.86 Q2147 1472.73 2145.08 1470.95 Q2143.18 1469.17 2139.83 1469.17 M2135.15 1467.18 Q2132.14 1466.44 2130.45 1464.38 Q2128.79 1462.32 2128.79 1459.35 Q2128.79 1455.21 2131.72 1452.8 Q2134.69 1450.39 2139.83 1450.39 Q2144.99 1450.39 2147.93 1452.8 Q2150.87 1455.21 2150.87 1459.35 Q2150.87 1462.32 2149.18 1464.38 Q2147.51 1466.44 2144.53 1467.18 Q2147.91 1467.96 2149.78 1470.26 Q2151.68 1472.55 2151.68 1475.86 Q2151.68 1480.88 2148.6 1483.57 Q2145.54 1486.25 2139.83 1486.25 Q2134.11 1486.25 2131.03 1483.57 Q2127.97 1480.88 2127.97 1475.86 Q2127.97 1472.55 2129.87 1470.26 Q2131.77 1467.96 2135.15 1467.18 M2133.44 1459.79 Q2133.44 1462.48 2135.1 1463.98 Q2136.79 1465.49 2139.83 1465.49 Q2142.84 1465.49 2144.53 1463.98 Q2146.24 1462.48 2146.24 1459.79 Q2146.24 1457.11 2144.53 1455.6 Q2142.84 1454.1 2139.83 1454.1 Q2136.79 1454.1 2135.1 1455.6 Q2133.44 1457.11 2133.44 1459.79 Z" fill="#000000" fill-rule="nonzero" fill-opacity="1" /><path clip-path="url(#clip070)" d="M2169.99 1454.1 Q2166.38 1454.1 2164.55 1457.66 Q2162.74 1461.2 2162.74 1468.33 Q2162.74 1475.44 2164.55 1479.01 Q2166.38 1482.55 2169.99 1482.55 Q2173.62 1482.55 2175.43 1479.01 Q2177.26 1475.44 2177.26 1468.33 Q2177.26 1461.2 2175.43 1457.66 Q2173.62 1454.1 2169.99 1454.1 M2169.99 1450.39 Q2175.8 1450.39 2178.85 1455 Q2181.93 1459.58 2181.93 1468.33 Q2181.93 1477.06 2178.85 1481.67 Q2175.8 1486.25 2169.99 1486.25 Q2164.18 1486.25 2161.1 1481.67 Q2158.04 1477.06 2158.04 1468.33 Q2158.04 1459.58 2161.1 1455 Q2164.18 1450.39 2169.99 1450.39 Z" fill="#000000" fill-rule="nonzero" fill-opacity="1" /><path clip-path="url(#clip070)" d="M1039.5 1520.52 L1049.08 1520.52 L1061.2 1552.86 L1073.39 1520.52 L1082.97 1520.52 L1082.97 1568.04 L1076.7 1568.04 L1076.7 1526.32 L1064.45 1558.91 L1057.99 1558.91 L1045.73 1526.32 L1045.73 1568.04 L1039.5 1568.04 L1039.5 1520.52 Z" fill="#000000" fill-rule="nonzero" fill-opacity="1" /><path clip-path="url(#clip070)" d="M1111.68 1550.12 Q1104.59 1550.12 1101.85 1551.75 Q1099.11 1553.37 1099.11 1557.29 Q1099.11 1560.4 1101.15 1562.25 Q1103.22 1564.07 1106.75 1564.07 Q1111.62 1564.07 1114.55 1560.63 Q1117.51 1557.16 1117.51 1551.43 L1117.51 1550.12 L1111.68 1550.12 M1123.36 1547.71 L1123.36 1568.04 L1117.51 1568.04 L1117.51 1562.63 Q1115.5 1565.88 1112.51 1567.44 Q1109.52 1568.97 1105.19 1568.97 Q1099.72 1568.97 1096.47 1565.91 Q1093.25 1562.82 1093.25 1557.67 Q1093.25 1551.65 1097.26 1548.6 Q1101.31 1545.54 1109.3 1545.54 L1117.51 1545.54 L1117.51 1544.97 Q1117.51 1540.93 1114.83 1538.73 Q1112.19 1536.5 1107.39 1536.5 Q1104.33 1536.5 1101.43 1537.23 Q1098.54 1537.97 1095.86 1539.43 L1095.86 1534.02 Q1099.08 1532.78 1102.1 1532.17 Q1105.13 1531.54 1107.99 1531.54 Q1115.73 1531.54 1119.54 1535.55 Q1123.36 1539.56 1123.36 1547.71 Z" fill="#000000" fill-rule="nonzero" fill-opacity="1" /><path clip-path="url(#clip070)" d="M1158.15 1533.45 L1158.15 1538.98 Q1155.67 1537.71 1153 1537.07 Q1150.32 1536.44 1147.46 1536.44 Q1143.1 1536.44 1140.9 1537.77 Q1138.74 1539.11 1138.74 1541.79 Q1138.74 1543.82 1140.3 1545 Q1141.86 1546.15 1146.57 1547.2 L1148.57 1547.64 Q1154.81 1548.98 1157.42 1551.43 Q1160.06 1553.85 1160.06 1558.21 Q1160.06 1563.17 1156.12 1566.07 Q1152.2 1568.97 1145.33 1568.97 Q1142.46 1568.97 1139.34 1568.39 Q1136.25 1567.85 1132.82 1566.74 L1132.82 1560.69 Q1136.06 1562.38 1139.21 1563.24 Q1142.37 1564.07 1145.45 1564.07 Q1149.59 1564.07 1151.82 1562.66 Q1154.05 1561.23 1154.05 1558.65 Q1154.05 1556.27 1152.42 1554.99 Q1150.83 1553.72 1145.39 1552.54 L1143.35 1552.07 Q1137.91 1550.92 1135.49 1548.56 Q1133.07 1546.18 1133.07 1542.04 Q1133.07 1537.01 1136.64 1534.27 Q1140.2 1531.54 1146.76 1531.54 Q1150 1531.54 1152.87 1532.01 Q1155.73 1532.49 1158.15 1533.45 Z" fill="#000000" fill-rule="nonzero" fill-opacity="1" /><path clip-path="url(#clip070)" d="M1192.11 1533.45 L1192.11 1538.98 Q1189.63 1537.71 1186.96 1537.07 Q1184.28 1536.44 1181.42 1536.44 Q1177.06 1536.44 1174.86 1537.77 Q1172.7 1539.11 1172.7 1541.79 Q1172.7 1543.82 1174.26 1545 Q1175.82 1546.15 1180.53 1547.2 L1182.53 1547.64 Q1188.77 1548.98 1191.38 1551.43 Q1194.02 1553.85 1194.02 1558.21 Q1194.02 1563.17 1190.08 1566.07 Q1186.16 1568.97 1179.29 1568.97 Q1176.42 1568.97 1173.3 1568.39 Q1170.22 1567.85 1166.78 1566.74 L1166.78 1560.69 Q1170.02 1562.38 1173.18 1563.24 Q1176.33 1564.07 1179.41 1564.07 Q1183.55 1564.07 1185.78 1562.66 Q1188.01 1561.23 1188.01 1558.65 Q1188.01 1556.27 1186.38 1554.99 Q1184.79 1553.72 1179.35 1552.54 L1177.31 1552.07 Q1171.87 1550.92 1169.45 1548.56 Q1167.03 1546.18 1167.03 1542.04 Q1167.03 1537.01 1170.6 1534.27 Q1174.16 1531.54 1180.72 1531.54 Q1183.97 1531.54 1186.83 1532.01 Q1189.69 1532.49 1192.11 1533.45 Z" fill="#000000" fill-rule="nonzero" fill-opacity="1" /><path clip-path="url(#clip070)" d="M1237.88 1536.5 Q1233.17 1536.5 1230.44 1540.19 Q1227.7 1543.85 1227.7 1550.25 Q1227.7 1556.65 1230.4 1560.34 Q1233.14 1564 1237.88 1564 Q1242.56 1564 1245.3 1560.31 Q1248.04 1556.62 1248.04 1550.25 Q1248.04 1543.92 1245.3 1540.23 Q1242.56 1536.5 1237.88 1536.5 M1237.88 1531.54 Q1245.52 1531.54 1249.88 1536.5 Q1254.24 1541.47 1254.24 1550.25 Q1254.24 1559 1249.88 1564 Q1245.52 1568.97 1237.88 1568.97 Q1230.21 1568.97 1225.85 1564 Q1221.52 1559 1221.52 1550.25 Q1221.52 1541.47 1225.85 1536.5 Q1230.21 1531.54 1237.88 1531.54 Z" fill="#000000" fill-rule="nonzero" fill-opacity="1" /><path clip-path="url(#clip070)" d="M1282 1518.52 L1282 1523.39 L1276.4 1523.39 Q1273.24 1523.39 1272 1524.66 Q1270.79 1525.93 1270.79 1529.24 L1270.79 1532.4 L1280.44 1532.4 L1280.44 1536.95 L1270.79 1536.95 L1270.79 1568.04 L1264.91 1568.04 L1264.91 1536.95 L1259.3 1536.95 L1259.3 1532.4 L1264.91 1532.4 L1264.91 1529.91 Q1264.91 1523.96 1267.67 1521.26 Q1270.44 1518.52 1276.46 1518.52 L1282 1518.52 Z" fill="#000000" fill-rule="nonzero" fill-opacity="1" /><path clip-path="url(#clip070)" d="M1333.27 1533.76 L1333.27 1539.24 Q1330.79 1537.87 1328.28 1537.2 Q1325.79 1536.5 1323.25 1536.5 Q1317.55 1536.5 1314.4 1540.13 Q1311.25 1543.73 1311.25 1550.25 Q1311.25 1556.78 1314.4 1560.4 Q1317.55 1564 1323.25 1564 Q1325.79 1564 1328.28 1563.33 Q1330.79 1562.63 1333.27 1561.26 L1333.27 1566.68 Q1330.82 1567.82 1328.18 1568.39 Q1325.57 1568.97 1322.61 1568.97 Q1314.56 1568.97 1309.82 1563.91 Q1305.07 1558.85 1305.07 1550.25 Q1305.07 1541.53 1309.85 1536.53 Q1314.65 1531.54 1322.99 1531.54 Q1325.7 1531.54 1328.28 1532.11 Q1330.85 1532.65 1333.27 1533.76 Z" fill="#000000" fill-rule="nonzero" fill-opacity="1" /><path clip-path="url(#clip070)" d="M1359.66 1550.12 Q1352.56 1550.12 1349.82 1551.75 Q1347.09 1553.37 1347.09 1557.29 Q1347.09 1560.4 1349.12 1562.25 Q1351.19 1564.07 1354.73 1564.07 Q1359.6 1564.07 1362.52 1560.63 Q1365.48 1557.16 1365.48 1551.43 L1365.48 1550.12 L1359.66 1550.12 M1371.34 1547.71 L1371.34 1568.04 L1365.48 1568.04 L1365.48 1562.63 Q1363.48 1565.88 1360.49 1567.44 Q1357.49 1568.97 1353.17 1568.97 Q1347.69 1568.97 1344.45 1565.91 Q1341.23 1562.82 1341.23 1557.67 Q1341.23 1551.65 1345.24 1548.6 Q1349.28 1545.54 1357.27 1545.54 L1365.48 1545.54 L1365.48 1544.97 Q1365.48 1540.93 1362.81 1538.73 Q1360.17 1536.5 1355.36 1536.5 Q1352.31 1536.5 1349.41 1537.23 Q1346.51 1537.97 1343.84 1539.43 L1343.84 1534.02 Q1347.06 1532.78 1350.08 1532.17 Q1353.1 1531.54 1355.97 1531.54 Q1363.7 1531.54 1367.52 1535.55 Q1371.34 1539.56 1371.34 1547.71 Z" fill="#000000" fill-rule="nonzero" fill-opacity="1" /><path clip-path="url(#clip070)" d="M1383.4 1518.52 L1389.26 1518.52 L1389.26 1568.04 L1383.4 1568.04 L1383.4 1518.52 Z" fill="#000000" fill-rule="nonzero" fill-opacity="1" /><path clip-path="url(#clip070)" d="M1401.51 1532.4 L1407.37 1532.4 L1407.37 1568.04 L1401.51 1568.04 L1401.51 1532.4 M1401.51 1518.52 L1407.37 1518.52 L1407.37 1525.93 L1401.51 1525.93 L1401.51 1518.52 Z" fill="#000000" fill-rule="nonzero" fill-opacity="1" /><path clip-path="url(#clip070)" d="M1445.21 1550.25 Q1445.21 1543.79 1442.54 1540.13 Q1439.9 1536.44 1435.25 1536.44 Q1430.61 1536.44 1427.93 1540.13 Q1425.29 1543.79 1425.29 1550.25 Q1425.29 1556.71 1427.93 1560.4 Q1430.61 1564.07 1435.25 1564.07 Q1439.9 1564.07 1442.54 1560.4 Q1445.21 1556.71 1445.21 1550.25 M1425.29 1537.81 Q1427.14 1534.62 1429.94 1533.1 Q1432.77 1531.54 1436.68 1531.54 Q1443.18 1531.54 1447.22 1536.69 Q1451.29 1541.85 1451.29 1550.25 Q1451.29 1558.65 1447.22 1563.81 Q1443.18 1568.97 1436.68 1568.97 Q1432.77 1568.97 1429.94 1567.44 Q1427.14 1565.88 1425.29 1562.7 L1425.29 1568.04 L1419.4 1568.04 L1419.4 1518.52 L1425.29 1518.52 L1425.29 1537.81 Z" fill="#000000" fill-rule="nonzero" fill-opacity="1" /><path clip-path="url(#clip070)" d="M1481.66 1537.87 Q1480.67 1537.3 1479.49 1537.04 Q1478.35 1536.76 1476.95 1536.76 Q1471.98 1536.76 1469.31 1540 Q1466.67 1543.22 1466.67 1549.27 L1466.67 1568.04 L1460.78 1568.04 L1460.78 1532.4 L1466.67 1532.4 L1466.67 1537.93 Q1468.51 1534.69 1471.47 1533.13 Q1474.43 1531.54 1478.67 1531.54 Q1479.27 1531.54 1480 1531.63 Q1480.73 1531.7 1481.63 1531.85 L1481.66 1537.87 Z" fill="#000000" fill-rule="nonzero" fill-opacity="1" /><path clip-path="url(#clip070)" d="M1504 1550.12 Q1496.9 1550.12 1494.17 1551.75 Q1491.43 1553.37 1491.43 1557.29 Q1491.43 1560.4 1493.47 1562.25 Q1495.54 1564.07 1499.07 1564.07 Q1503.94 1564.07 1506.87 1560.63 Q1509.83 1557.16 1509.83 1551.43 L1509.83 1550.12 L1504 1550.12 M1515.68 1547.71 L1515.68 1568.04 L1509.83 1568.04 L1509.83 1562.63 Q1507.82 1565.88 1504.83 1567.44 Q1501.84 1568.97 1497.51 1568.97 Q1492.03 1568.97 1488.79 1565.91 Q1485.57 1562.82 1485.57 1557.67 Q1485.57 1551.65 1489.58 1548.6 Q1493.63 1545.54 1501.61 1545.54 L1509.83 1545.54 L1509.83 1544.97 Q1509.83 1540.93 1507.15 1538.73 Q1504.51 1536.5 1499.7 1536.5 Q1496.65 1536.5 1493.75 1537.23 Q1490.86 1537.97 1488.18 1539.43 L1488.18 1534.02 Q1491.4 1532.78 1494.42 1532.17 Q1497.44 1531.54 1500.31 1531.54 Q1508.04 1531.54 1511.86 1535.55 Q1515.68 1539.56 1515.68 1547.71 Z" fill="#000000" fill-rule="nonzero" fill-opacity="1" /><path clip-path="url(#clip070)" d="M1557.38 1546.53 L1557.38 1568.04 L1551.52 1568.04 L1551.52 1546.72 Q1551.52 1541.66 1549.55 1539.14 Q1547.57 1536.63 1543.63 1536.63 Q1538.89 1536.63 1536.15 1539.65 Q1533.41 1542.68 1533.41 1547.9 L1533.41 1568.04 L1527.52 1568.04 L1527.52 1532.4 L1533.41 1532.4 L1533.41 1537.93 Q1535.51 1534.72 1538.34 1533.13 Q1541.21 1531.54 1544.93 1531.54 Q1551.08 1531.54 1554.23 1535.36 Q1557.38 1539.14 1557.38 1546.53 Z" fill="#000000" fill-rule="nonzero" fill-opacity="1" /><path clip-path="url(#clip070)" d="M1574.85 1522.27 L1574.85 1532.4 L1586.91 1532.4 L1586.91 1536.95 L1574.85 1536.95 L1574.85 1556.3 Q1574.85 1560.66 1576.03 1561.9 Q1577.24 1563.14 1580.9 1563.14 L1586.91 1563.14 L1586.91 1568.04 L1580.9 1568.04 Q1574.12 1568.04 1571.54 1565.53 Q1568.96 1562.98 1568.96 1556.3 L1568.96 1536.95 L1564.67 1536.95 L1564.67 1532.4 L1568.96 1532.4 L1568.96 1522.27 L1574.85 1522.27 Z" fill="#000000" fill-rule="nonzero" fill-opacity="1" /><path clip-path="url(#clip070)" d="M1615.59 1520.52 L1642.9 1520.52 L1642.9 1525.93 L1622.02 1525.93 L1622.02 1539.94 L1640.86 1539.94 L1640.86 1545.35 L1622.02 1545.35 L1622.02 1568.04 L1615.59 1568.04 L1615.59 1520.52 Z" fill="#000000" fill-rule="nonzero" fill-opacity="1" /><path clip-path="url(#clip070)" d="M1676.29 1549.81 Q1676.29 1543.44 1673.65 1539.94 Q1671.04 1536.44 1666.3 1536.44 Q1661.58 1536.44 1658.94 1539.94 Q1656.33 1543.44 1656.33 1549.81 Q1656.33 1556.14 1658.94 1559.64 Q1661.58 1563.14 1666.3 1563.14 Q1671.04 1563.14 1673.65 1559.64 Q1676.29 1556.14 1676.29 1549.81 M1682.15 1563.62 Q1682.15 1572.72 1678.1 1577.15 Q1674.06 1581.6 1665.72 1581.6 Q1662.64 1581.6 1659.9 1581.13 Q1657.16 1580.68 1654.58 1579.72 L1654.58 1574.03 Q1657.16 1575.43 1659.67 1576.1 Q1662.19 1576.76 1664.8 1576.76 Q1670.56 1576.76 1673.42 1573.74 Q1676.29 1570.75 1676.29 1564.67 L1676.29 1561.77 Q1674.48 1564.92 1671.64 1566.48 Q1668.81 1568.04 1664.86 1568.04 Q1658.31 1568.04 1654.3 1563.05 Q1650.29 1558.05 1650.29 1549.81 Q1650.29 1541.53 1654.3 1536.53 Q1658.31 1531.54 1664.86 1531.54 Q1668.81 1531.54 1671.64 1533.1 Q1674.48 1534.66 1676.29 1537.81 L1676.29 1532.4 L1682.15 1532.4 L1682.15 1563.62 Z" fill="#000000" fill-rule="nonzero" fill-opacity="1" /><polyline clip-path="url(#clip070)" style="stroke:#000000; stroke-linecap:round; stroke-linejoin:round; stroke-width:4; stroke-opacity:1; fill:none" points="368.886,1423.18 368.886,47.2441 "/>
<polyline clip-path="url(#clip070)" style="stroke:#000000; stroke-linecap:round; stroke-linejoin:round; stroke-width:4; stroke-opacity:1; fill:none" points="368.886,1384.24 387.784,1384.24 "/>
<polyline clip-path="url(#clip070)" style="stroke:#000000; stroke-linecap:round; stroke-linejoin:round; stroke-width:4; stroke-opacity:1; fill:none" points="368.886,1180.93 387.784,1180.93 "/>
<polyline clip-path="url(#clip070)" style="stroke:#000000; stroke-linecap:round; stroke-linejoin:round; stroke-width:4; stroke-opacity:1; fill:none" points="368.886,977.631 387.784,977.631 "/>
<polyline clip-path="url(#clip070)" style="stroke:#000000; stroke-linecap:round; stroke-linejoin:round; stroke-width:4; stroke-opacity:1; fill:none" points="368.886,774.327 387.784,774.327 "/>
<polyline clip-path="url(#clip070)" style="stroke:#000000; stroke-linecap:round; stroke-linejoin:round; stroke-width:4; stroke-opacity:1; fill:none" points="368.886,571.024 387.784,571.024 "/>
<polyline clip-path="url(#clip070)" style="stroke:#000000; stroke-linecap:round; stroke-linejoin:round; stroke-width:4; stroke-opacity:1; fill:none" points="368.886,367.72 387.784,367.72 "/>
<polyline clip-path="url(#clip070)" style="stroke:#000000; stroke-linecap:round; stroke-linejoin:round; stroke-width:4; stroke-opacity:1; fill:none" points="368.886,164.416 387.784,164.416 "/>
<path clip-path="url(#clip070)" d="M320.942 1370.04 Q317.331 1370.04 315.502 1373.6 Q313.696 1377.14 313.696 1384.27 Q313.696 1391.38 315.502 1394.94 Q317.331 1398.49 320.942 1398.49 Q324.576 1398.49 326.381 1394.94 Q328.21 1391.38 328.21 1384.27 Q328.21 1377.14 326.381 1373.6 Q324.576 1370.04 320.942 1370.04 M320.942 1366.33 Q326.752 1366.33 329.807 1370.94 Q332.886 1375.52 332.886 1384.27 Q332.886 1393 329.807 1397.61 Q326.752 1402.19 320.942 1402.19 Q315.131 1402.19 312.053 1397.61 Q308.997 1393 308.997 1384.27 Q308.997 1375.52 312.053 1370.94 Q315.131 1366.33 320.942 1366.33 Z" fill="#000000" fill-rule="nonzero" fill-opacity="1" /><path clip-path="url(#clip070)" d="M121.043 1200.73 L137.362 1200.73 L137.362 1204.66 L115.418 1204.66 L115.418 1200.73 Q118.08 1197.97 122.663 1193.34 Q127.269 1188.69 128.45 1187.35 Q130.695 1184.82 131.575 1183.09 Q132.478 1181.33 132.478 1179.64 Q132.478 1176.88 130.533 1175.15 Q128.612 1173.41 125.51 1173.41 Q123.311 1173.41 120.857 1174.18 Q118.427 1174.94 115.649 1176.49 L115.649 1171.77 Q118.473 1170.63 120.927 1170.06 Q123.38 1169.48 125.418 1169.48 Q130.788 1169.48 133.982 1172.16 Q137.177 1174.85 137.177 1179.34 Q137.177 1181.47 136.367 1183.39 Q135.579 1185.29 133.473 1187.88 Q132.894 1188.55 129.792 1191.77 Q126.691 1194.96 121.043 1200.73 Z" fill="#000000" fill-rule="nonzero" fill-opacity="1" /><path clip-path="url(#clip070)" d="M147.177 1198.78 L152.061 1198.78 L152.061 1204.66 L147.177 1204.66 L147.177 1198.78 Z" fill="#000000" fill-rule="nonzero" fill-opacity="1" /><path clip-path="url(#clip070)" d="M172.246 1173.18 Q168.635 1173.18 166.806 1176.75 Q165.001 1180.29 165.001 1187.42 Q165.001 1194.52 166.806 1198.09 Q168.635 1201.63 172.246 1201.63 Q175.88 1201.63 177.686 1198.09 Q179.514 1194.52 179.514 1187.42 Q179.514 1180.29 177.686 1176.75 Q175.88 1173.18 172.246 1173.18 M172.246 1169.48 Q178.056 1169.48 181.112 1174.08 Q184.19 1178.67 184.19 1187.42 Q184.19 1196.14 181.112 1200.75 Q178.056 1205.33 172.246 1205.33 Q166.436 1205.33 163.357 1200.75 Q160.302 1196.14 160.302 1187.42 Q160.302 1178.67 163.357 1174.08 Q166.436 1169.48 172.246 1169.48 Z" fill="#000000" fill-rule="nonzero" fill-opacity="1" /><path clip-path="url(#clip070)" d="M202.408 1173.18 Q198.797 1173.18 196.968 1176.75 Q195.163 1180.29 195.163 1187.42 Q195.163 1194.52 196.968 1198.09 Q198.797 1201.63 202.408 1201.63 Q206.042 1201.63 207.848 1198.09 Q209.676 1194.52 209.676 1187.42 Q209.676 1180.29 207.848 1176.75 Q206.042 1173.18 202.408 1173.18 M202.408 1169.48 Q208.218 1169.48 211.274 1174.08 Q214.352 1178.67 214.352 1187.42 Q214.352 1196.14 211.274 1200.75 Q208.218 1205.33 202.408 1205.33 Q196.598 1205.33 193.519 1200.75 Q190.463 1196.14 190.463 1187.42 Q190.463 1178.67 193.519 1174.08 Q196.598 1169.48 202.408 1169.48 Z" fill="#000000" fill-rule="nonzero" fill-opacity="1" /><path clip-path="url(#clip070)" d="M250.741 1179.2 L240.162 1189.82 L250.741 1200.4 L247.986 1203.2 L237.361 1192.58 L226.736 1203.2 L224.005 1200.4 L234.56 1189.82 L224.005 1179.2 L226.736 1176.4 L237.361 1187.02 L247.986 1176.4 L250.741 1179.2 Z" fill="#000000" fill-rule="nonzero" fill-opacity="1" /><path clip-path="url(#clip070)" d="M263.102 1200.73 L270.741 1200.73 L270.741 1174.36 L262.431 1176.03 L262.431 1171.77 L270.695 1170.1 L275.37 1170.1 L275.37 1200.73 L283.009 1200.73 L283.009 1204.66 L263.102 1204.66 L263.102 1200.73 Z" fill="#000000" fill-rule="nonzero" fill-opacity="1" /><path clip-path="url(#clip070)" d="M302.454 1173.18 Q298.843 1173.18 297.014 1176.75 Q295.208 1180.29 295.208 1187.42 Q295.208 1194.52 297.014 1198.09 Q298.843 1201.63 302.454 1201.63 Q306.088 1201.63 307.893 1198.09 Q309.722 1194.52 309.722 1187.42 Q309.722 1180.29 307.893 1176.75 Q306.088 1173.18 302.454 1173.18 M302.454 1169.48 Q308.264 1169.48 311.319 1174.08 Q314.398 1178.67 314.398 1187.42 Q314.398 1196.14 311.319 1200.75 Q308.264 1205.33 302.454 1205.33 Q296.643 1205.33 293.565 1200.75 Q290.509 1196.14 290.509 1187.42 Q290.509 1178.67 293.565 1174.08 Q296.643 1169.48 302.454 1169.48 Z" fill="#000000" fill-rule="nonzero" fill-opacity="1" /><path clip-path="url(#clip070)" d="M327.093 1162.11 Q329.82 1162.69 331.344 1164.54 Q332.886 1166.38 332.886 1169.09 Q332.886 1173.25 330.027 1175.52 Q327.168 1177.8 321.902 1177.8 Q320.134 1177.8 318.254 1177.44 Q316.392 1177.1 314.398 1176.41 L314.398 1172.74 Q315.978 1173.66 317.859 1174.13 Q319.739 1174.6 321.789 1174.6 Q325.363 1174.6 327.225 1173.19 Q329.106 1171.78 329.106 1169.09 Q329.106 1166.61 327.357 1165.21 Q325.626 1163.8 322.523 1163.8 L319.25 1163.8 L319.25 1160.68 L322.673 1160.68 Q325.476 1160.68 326.962 1159.57 Q328.447 1158.44 328.447 1156.34 Q328.447 1154.17 326.905 1153.03 Q325.382 1151.86 322.523 1151.86 Q320.962 1151.86 319.175 1152.2 Q317.388 1152.54 315.244 1153.25 L315.244 1149.87 Q317.407 1149.27 319.288 1148.96 Q321.188 1148.66 322.861 1148.66 Q327.187 1148.66 329.707 1150.64 Q332.228 1152.59 332.228 1155.94 Q332.228 1158.27 330.892 1159.89 Q329.557 1161.49 327.093 1162.11 Z" fill="#000000" fill-rule="nonzero" fill-opacity="1" /><path clip-path="url(#clip070)" d="M129.862 970.873 L118.056 989.322 L129.862 989.322 L129.862 970.873 M128.635 966.799 L134.515 966.799 L134.515 989.322 L139.445 989.322 L139.445 993.21 L134.515 993.21 L134.515 1001.36 L129.862 1001.36 L129.862 993.21 L114.26 993.21 L114.26 988.697 L128.635 966.799 Z" fill="#000000" fill-rule="nonzero" fill-opacity="1" /><path clip-path="url(#clip070)" d="M147.177 995.479 L152.061 995.479 L152.061 1001.36 L147.177 1001.36 L147.177 995.479 Z" fill="#000000" fill-rule="nonzero" fill-opacity="1" /><path clip-path="url(#clip070)" d="M172.246 969.877 Q168.635 969.877 166.806 973.442 Q165.001 976.984 165.001 984.113 Q165.001 991.22 166.806 994.785 Q168.635 998.326 172.246 998.326 Q175.88 998.326 177.686 994.785 Q179.514 991.22 179.514 984.113 Q179.514 976.984 177.686 973.442 Q175.88 969.877 172.246 969.877 M172.246 966.174 Q178.056 966.174 181.112 970.78 Q184.19 975.363 184.19 984.113 Q184.19 992.84 181.112 997.447 Q178.056 1002.03 172.246 1002.03 Q166.436 1002.03 163.357 997.447 Q160.302 992.84 160.302 984.113 Q160.302 975.363 163.357 970.78 Q166.436 966.174 172.246 966.174 Z" fill="#000000" fill-rule="nonzero" fill-opacity="1" /><path clip-path="url(#clip070)" d="M202.408 969.877 Q198.797 969.877 196.968 973.442 Q195.163 976.984 195.163 984.113 Q195.163 991.22 196.968 994.785 Q198.797 998.326 202.408 998.326 Q206.042 998.326 207.848 994.785 Q209.676 991.22 209.676 984.113 Q209.676 976.984 207.848 973.442 Q206.042 969.877 202.408 969.877 M202.408 966.174 Q208.218 966.174 211.274 970.78 Q214.352 975.363 214.352 984.113 Q214.352 992.84 211.274 997.447 Q208.218 1002.03 202.408 1002.03 Q196.598 1002.03 193.519 997.447 Q190.463 992.84 190.463 984.113 Q190.463 975.363 193.519 970.78 Q196.598 966.174 202.408 966.174 Z" fill="#000000" fill-rule="nonzero" fill-opacity="1" /><path clip-path="url(#clip070)" d="M250.741 975.896 L240.162 986.521 L250.741 997.099 L247.986 999.9 L237.361 989.275 L226.736 999.9 L224.005 997.099 L234.56 986.521 L224.005 975.896 L226.736 973.095 L237.361 983.72 L247.986 973.095 L250.741 975.896 Z" fill="#000000" fill-rule="nonzero" fill-opacity="1" /><path clip-path="url(#clip070)" d="M263.102 997.423 L270.741 997.423 L270.741 971.058 L262.431 972.724 L262.431 968.465 L270.695 966.799 L275.37 966.799 L275.37 997.423 L283.009 997.423 L283.009 1001.36 L263.102 1001.36 L263.102 997.423 Z" fill="#000000" fill-rule="nonzero" fill-opacity="1" /><path clip-path="url(#clip070)" d="M302.454 969.877 Q298.843 969.877 297.014 973.442 Q295.208 976.984 295.208 984.113 Q295.208 991.22 297.014 994.785 Q298.843 998.326 302.454 998.326 Q306.088 998.326 307.893 994.785 Q309.722 991.22 309.722 984.113 Q309.722 976.984 307.893 973.442 Q306.088 969.877 302.454 969.877 M302.454 966.174 Q308.264 966.174 311.319 970.78 Q314.398 975.363 314.398 984.113 Q314.398 992.84 311.319 997.447 Q308.264 1002.03 302.454 1002.03 Q296.643 1002.03 293.565 997.447 Q290.509 992.84 290.509 984.113 Q290.509 975.363 293.565 970.78 Q296.643 966.174 302.454 966.174 Z" fill="#000000" fill-rule="nonzero" fill-opacity="1" /><path clip-path="url(#clip070)" d="M327.093 958.808 Q329.82 959.391 331.344 961.234 Q332.886 963.077 332.886 965.786 Q332.886 969.942 330.027 972.218 Q327.168 974.494 321.902 974.494 Q320.134 974.494 318.254 974.136 Q316.392 973.798 314.398 973.102 L314.398 969.434 Q315.978 970.356 317.859 970.826 Q319.739 971.296 321.789 971.296 Q325.363 971.296 327.225 969.886 Q329.106 968.475 329.106 965.786 Q329.106 963.303 327.357 961.911 Q325.626 960.501 322.523 960.501 L319.25 960.501 L319.25 957.379 L322.673 957.379 Q325.476 957.379 326.962 956.269 Q328.447 955.14 328.447 953.034 Q328.447 950.871 326.905 949.724 Q325.382 948.558 322.523 948.558 Q320.962 948.558 319.175 948.896 Q317.388 949.235 315.244 949.949 L315.244 946.564 Q317.407 945.962 319.288 945.661 Q321.188 945.36 322.861 945.36 Q327.187 945.36 329.707 947.335 Q332.228 949.291 332.228 952.639 Q332.228 954.971 330.892 956.589 Q329.557 958.187 327.093 958.808 Z" fill="#000000" fill-rule="nonzero" fill-opacity="1" /><path clip-path="url(#clip070)" d="M127.593 778.912 Q124.445 778.912 122.593 781.064 Q120.765 783.217 120.765 786.967 Q120.765 790.694 122.593 792.87 Q124.445 795.023 127.593 795.023 Q130.742 795.023 132.57 792.87 Q134.422 790.694 134.422 786.967 Q134.422 783.217 132.57 781.064 Q130.742 778.912 127.593 778.912 M136.876 764.259 L136.876 768.518 Q135.117 767.685 133.311 767.245 Q131.529 766.805 129.769 766.805 Q125.14 766.805 122.686 769.93 Q120.255 773.055 119.908 779.374 Q121.274 777.361 123.334 776.296 Q125.394 775.208 127.871 775.208 Q133.08 775.208 136.089 778.379 Q139.121 781.527 139.121 786.967 Q139.121 792.291 135.973 795.509 Q132.825 798.726 127.593 798.726 Q121.598 798.726 118.427 794.143 Q115.256 789.536 115.256 780.81 Q115.256 772.615 119.144 767.754 Q123.033 762.87 129.584 762.87 Q131.343 762.87 133.126 763.217 Q134.931 763.564 136.876 764.259 Z" fill="#000000" fill-rule="nonzero" fill-opacity="1" /><path clip-path="url(#clip070)" d="M147.177 792.175 L152.061 792.175 L152.061 798.055 L147.177 798.055 L147.177 792.175 Z" fill="#000000" fill-rule="nonzero" fill-opacity="1" /><path clip-path="url(#clip070)" d="M172.246 766.574 Q168.635 766.574 166.806 770.138 Q165.001 773.68 165.001 780.81 Q165.001 787.916 166.806 791.481 Q168.635 795.023 172.246 795.023 Q175.88 795.023 177.686 791.481 Q179.514 787.916 179.514 780.81 Q179.514 773.68 177.686 770.138 Q175.88 766.574 172.246 766.574 M172.246 762.87 Q178.056 762.87 181.112 767.476 Q184.19 772.06 184.19 780.81 Q184.19 789.536 181.112 794.143 Q178.056 798.726 172.246 798.726 Q166.436 798.726 163.357 794.143 Q160.302 789.536 160.302 780.81 Q160.302 772.06 163.357 767.476 Q166.436 762.87 172.246 762.87 Z" fill="#000000" fill-rule="nonzero" fill-opacity="1" /><path clip-path="url(#clip070)" d="M202.408 766.574 Q198.797 766.574 196.968 770.138 Q195.163 773.68 195.163 780.81 Q195.163 787.916 196.968 791.481 Q198.797 795.023 202.408 795.023 Q206.042 795.023 207.848 791.481 Q209.676 787.916 209.676 780.81 Q209.676 773.68 207.848 770.138 Q206.042 766.574 202.408 766.574 M202.408 762.87 Q208.218 762.87 211.274 767.476 Q214.352 772.06 214.352 780.81 Q214.352 789.536 211.274 794.143 Q208.218 798.726 202.408 798.726 Q196.598 798.726 193.519 794.143 Q190.463 789.536 190.463 780.81 Q190.463 772.06 193.519 767.476 Q196.598 762.87 202.408 762.87 Z" fill="#000000" fill-rule="nonzero" fill-opacity="1" /><path clip-path="url(#clip070)" d="M250.741 772.592 L240.162 783.217 L250.741 793.796 L247.986 796.597 L237.361 785.972 L226.736 796.597 L224.005 793.796 L234.56 783.217 L224.005 772.592 L226.736 769.791 L237.361 780.416 L247.986 769.791 L250.741 772.592 Z" fill="#000000" fill-rule="nonzero" fill-opacity="1" /><path clip-path="url(#clip070)" d="M263.102 794.12 L270.741 794.12 L270.741 767.754 L262.431 769.421 L262.431 765.162 L270.695 763.495 L275.37 763.495 L275.37 794.12 L283.009 794.12 L283.009 798.055 L263.102 798.055 L263.102 794.12 Z" fill="#000000" fill-rule="nonzero" fill-opacity="1" /><path clip-path="url(#clip070)" d="M302.454 766.574 Q298.843 766.574 297.014 770.138 Q295.208 773.68 295.208 780.81 Q295.208 787.916 297.014 791.481 Q298.843 795.023 302.454 795.023 Q306.088 795.023 307.893 791.481 Q309.722 787.916 309.722 780.81 Q309.722 773.68 307.893 770.138 Q306.088 766.574 302.454 766.574 M302.454 762.87 Q308.264 762.87 311.319 767.476 Q314.398 772.06 314.398 780.81 Q314.398 789.536 311.319 794.143 Q308.264 798.726 302.454 798.726 Q296.643 798.726 293.565 794.143 Q290.509 789.536 290.509 780.81 Q290.509 772.06 293.565 767.476 Q296.643 762.87 302.454 762.87 Z" fill="#000000" fill-rule="nonzero" fill-opacity="1" /><path clip-path="url(#clip070)" d="M327.093 755.504 Q329.82 756.087 331.344 757.93 Q332.886 759.774 332.886 762.482 Q332.886 766.638 330.027 768.914 Q327.168 771.19 321.902 771.19 Q320.134 771.19 318.254 770.833 Q316.392 770.494 314.398 769.798 L314.398 766.131 Q315.978 767.052 317.859 767.522 Q319.739 767.993 321.789 767.993 Q325.363 767.993 327.225 766.582 Q329.106 765.171 329.106 762.482 Q329.106 759.999 327.357 758.608 Q325.626 757.197 322.523 757.197 L319.25 757.197 L319.25 754.075 L322.673 754.075 Q325.476 754.075 326.962 752.965 Q328.447 751.837 328.447 749.73 Q328.447 747.567 326.905 746.42 Q325.382 745.254 322.523 745.254 Q320.962 745.254 319.175 745.593 Q317.388 745.931 315.244 746.646 L315.244 743.26 Q317.407 742.659 319.288 742.358 Q321.188 742.057 322.861 742.057 Q327.187 742.057 329.707 744.032 Q332.228 745.988 332.228 749.335 Q332.228 751.668 330.892 753.285 Q329.557 754.884 327.093 755.504 Z" fill="#000000" fill-rule="nonzero" fill-opacity="1" /><path clip-path="url(#clip070)" d="M127.015 578.339 Q123.681 578.339 121.76 580.122 Q119.862 581.904 119.862 585.029 Q119.862 588.154 121.76 589.937 Q123.681 591.719 127.015 591.719 Q130.348 591.719 132.269 589.937 Q134.191 588.131 134.191 585.029 Q134.191 581.904 132.269 580.122 Q130.371 578.339 127.015 578.339 M122.339 576.349 Q119.33 575.608 117.64 573.548 Q115.973 571.488 115.973 568.525 Q115.973 564.381 118.913 561.974 Q121.876 559.566 127.015 559.566 Q132.177 559.566 135.117 561.974 Q138.056 564.381 138.056 568.525 Q138.056 571.488 136.367 573.548 Q134.7 575.608 131.714 576.349 Q135.093 577.136 136.968 579.427 Q138.867 581.719 138.867 585.029 Q138.867 590.052 135.788 592.737 Q132.732 595.423 127.015 595.423 Q121.297 595.423 118.218 592.737 Q115.163 590.052 115.163 585.029 Q115.163 581.719 117.061 579.427 Q118.959 577.136 122.339 576.349 M120.626 568.964 Q120.626 571.65 122.293 573.154 Q123.982 574.659 127.015 574.659 Q130.024 574.659 131.714 573.154 Q133.427 571.65 133.427 568.964 Q133.427 566.279 131.714 564.775 Q130.024 563.27 127.015 563.27 Q123.982 563.27 122.293 564.775 Q120.626 566.279 120.626 568.964 Z" fill="#000000" fill-rule="nonzero" fill-opacity="1" /><path clip-path="url(#clip070)" d="M147.177 588.872 L152.061 588.872 L152.061 594.751 L147.177 594.751 L147.177 588.872 Z" fill="#000000" fill-rule="nonzero" fill-opacity="1" /><path clip-path="url(#clip070)" d="M172.246 563.27 Q168.635 563.27 166.806 566.835 Q165.001 570.376 165.001 577.506 Q165.001 584.612 166.806 588.177 Q168.635 591.719 172.246 591.719 Q175.88 591.719 177.686 588.177 Q179.514 584.612 179.514 577.506 Q179.514 570.376 177.686 566.835 Q175.88 563.27 172.246 563.27 M172.246 559.566 Q178.056 559.566 181.112 564.173 Q184.19 568.756 184.19 577.506 Q184.19 586.233 181.112 590.839 Q178.056 595.423 172.246 595.423 Q166.436 595.423 163.357 590.839 Q160.302 586.233 160.302 577.506 Q160.302 568.756 163.357 564.173 Q166.436 559.566 172.246 559.566 Z" fill="#000000" fill-rule="nonzero" fill-opacity="1" /><path clip-path="url(#clip070)" d="M202.408 563.27 Q198.797 563.27 196.968 566.835 Q195.163 570.376 195.163 577.506 Q195.163 584.612 196.968 588.177 Q198.797 591.719 202.408 591.719 Q206.042 591.719 207.848 588.177 Q209.676 584.612 209.676 577.506 Q209.676 570.376 207.848 566.835 Q206.042 563.27 202.408 563.27 M202.408 559.566 Q208.218 559.566 211.274 564.173 Q214.352 568.756 214.352 577.506 Q214.352 586.233 211.274 590.839 Q208.218 595.423 202.408 595.423 Q196.598 595.423 193.519 590.839 Q190.463 586.233 190.463 577.506 Q190.463 568.756 193.519 564.173 Q196.598 559.566 202.408 559.566 Z" fill="#000000" fill-rule="nonzero" fill-opacity="1" /><path clip-path="url(#clip070)" d="M250.741 569.288 L240.162 579.913 L250.741 590.492 L247.986 593.293 L237.361 582.668 L226.736 593.293 L224.005 590.492 L234.56 579.913 L224.005 569.288 L226.736 566.488 L237.361 577.113 L247.986 566.488 L250.741 569.288 Z" fill="#000000" fill-rule="nonzero" fill-opacity="1" /><path clip-path="url(#clip070)" d="M263.102 590.816 L270.741 590.816 L270.741 564.451 L262.431 566.117 L262.431 561.858 L270.695 560.191 L275.37 560.191 L275.37 590.816 L283.009 590.816 L283.009 594.751 L263.102 594.751 L263.102 590.816 Z" fill="#000000" fill-rule="nonzero" fill-opacity="1" /><path clip-path="url(#clip070)" d="M302.454 563.27 Q298.843 563.27 297.014 566.835 Q295.208 570.376 295.208 577.506 Q295.208 584.612 297.014 588.177 Q298.843 591.719 302.454 591.719 Q306.088 591.719 307.893 588.177 Q309.722 584.612 309.722 577.506 Q309.722 570.376 307.893 566.835 Q306.088 563.27 302.454 563.27 M302.454 559.566 Q308.264 559.566 311.319 564.173 Q314.398 568.756 314.398 577.506 Q314.398 586.233 311.319 590.839 Q308.264 595.423 302.454 595.423 Q296.643 595.423 293.565 590.839 Q290.509 586.233 290.509 577.506 Q290.509 568.756 293.565 564.173 Q296.643 559.566 302.454 559.566 Z" fill="#000000" fill-rule="nonzero" fill-opacity="1" /><path clip-path="url(#clip070)" d="M327.093 552.201 Q329.82 552.784 331.344 554.627 Q332.886 556.47 332.886 559.178 Q332.886 563.335 330.027 565.611 Q327.168 567.886 321.902 567.886 Q320.134 567.886 318.254 567.529 Q316.392 567.19 314.398 566.495 L314.398 562.827 Q315.978 563.749 317.859 564.219 Q319.739 564.689 321.789 564.689 Q325.363 564.689 327.225 563.278 Q329.106 561.868 329.106 559.178 Q329.106 556.696 327.357 555.304 Q325.626 553.893 322.523 553.893 L319.25 553.893 L319.25 550.771 L322.673 550.771 Q325.476 550.771 326.962 549.662 Q328.447 548.533 328.447 546.427 Q328.447 544.264 326.905 543.117 Q325.382 541.95 322.523 541.95 Q320.962 541.95 319.175 542.289 Q317.388 542.627 315.244 543.342 L315.244 539.957 Q317.407 539.355 319.288 539.054 Q321.188 538.753 322.861 538.753 Q327.187 538.753 329.707 540.728 Q332.228 542.684 332.228 546.032 Q332.228 548.364 330.892 549.981 Q329.557 551.58 327.093 552.201 Z" fill="#000000" fill-rule="nonzero" fill-opacity="1" /><path clip-path="url(#clip070)" d="M115.85 387.513 L123.489 387.513 L123.489 361.147 L115.179 362.814 L115.179 358.554 L123.443 356.888 L128.119 356.888 L128.119 387.513 L135.757 387.513 L135.757 391.448 L115.85 391.448 L115.85 387.513 Z" fill="#000000" fill-rule="nonzero" fill-opacity="1" /><path clip-path="url(#clip070)" d="M145.202 385.568 L150.086 385.568 L150.086 391.448 L145.202 391.448 L145.202 385.568 Z" fill="#000000" fill-rule="nonzero" fill-opacity="1" /><path clip-path="url(#clip070)" d="M170.271 359.966 Q166.66 359.966 164.831 363.531 Q163.026 367.073 163.026 374.202 Q163.026 381.309 164.831 384.874 Q166.66 388.415 170.271 388.415 Q173.905 388.415 175.711 384.874 Q177.54 381.309 177.54 374.202 Q177.54 367.073 175.711 363.531 Q173.905 359.966 170.271 359.966 M170.271 356.263 Q176.081 356.263 179.137 360.869 Q182.216 365.452 182.216 374.202 Q182.216 382.929 179.137 387.536 Q176.081 392.119 170.271 392.119 Q164.461 392.119 161.382 387.536 Q158.327 382.929 158.327 374.202 Q158.327 365.452 161.382 360.869 Q164.461 356.263 170.271 356.263 Z" fill="#000000" fill-rule="nonzero" fill-opacity="1" /><path clip-path="url(#clip070)" d="M200.433 359.966 Q196.822 359.966 194.993 363.531 Q193.188 367.073 193.188 374.202 Q193.188 381.309 194.993 384.874 Q196.822 388.415 200.433 388.415 Q204.067 388.415 205.873 384.874 Q207.701 381.309 207.701 374.202 Q207.701 367.073 205.873 363.531 Q204.067 359.966 200.433 359.966 M200.433 356.263 Q206.243 356.263 209.299 360.869 Q212.377 365.452 212.377 374.202 Q212.377 382.929 209.299 387.536 Q206.243 392.119 200.433 392.119 Q194.623 392.119 191.544 387.536 Q188.489 382.929 188.489 374.202 Q188.489 365.452 191.544 360.869 Q194.623 356.263 200.433 356.263 Z" fill="#000000" fill-rule="nonzero" fill-opacity="1" /><path clip-path="url(#clip070)" d="M248.766 365.985 L238.187 376.61 L248.766 387.188 L246.011 389.989 L235.387 379.364 L224.762 389.989 L222.03 387.188 L232.586 376.61 L222.03 365.985 L224.762 363.184 L235.387 373.809 L246.011 363.184 L248.766 365.985 Z" fill="#000000" fill-rule="nonzero" fill-opacity="1" /><path clip-path="url(#clip070)" d="M261.127 387.513 L268.766 387.513 L268.766 361.147 L260.456 362.814 L260.456 358.554 L268.72 356.888 L273.396 356.888 L273.396 387.513 L281.034 387.513 L281.034 391.448 L261.127 391.448 L261.127 387.513 Z" fill="#000000" fill-rule="nonzero" fill-opacity="1" /><path clip-path="url(#clip070)" d="M300.479 359.966 Q296.868 359.966 295.039 363.531 Q293.233 367.073 293.233 374.202 Q293.233 381.309 295.039 384.874 Q296.868 388.415 300.479 388.415 Q304.113 388.415 305.919 384.874 Q307.747 381.309 307.747 374.202 Q307.747 367.073 305.919 363.531 Q304.113 359.966 300.479 359.966 M300.479 356.263 Q306.289 356.263 309.344 360.869 Q312.423 365.452 312.423 374.202 Q312.423 382.929 309.344 387.536 Q306.289 392.119 300.479 392.119 Q294.669 392.119 291.59 387.536 Q288.534 382.929 288.534 374.202 Q288.534 365.452 291.59 360.869 Q294.669 356.263 300.479 356.263 Z" fill="#000000" fill-rule="nonzero" fill-opacity="1" /><path clip-path="url(#clip070)" d="M325.1 339.267 L315.508 354.257 L325.1 354.257 L325.1 339.267 M324.103 335.957 L328.88 335.957 L328.88 354.257 L332.886 354.257 L332.886 357.417 L328.88 357.417 L328.88 364.037 L325.1 364.037 L325.1 357.417 L312.423 357.417 L312.423 353.749 L324.103 335.957 Z" fill="#000000" fill-rule="nonzero" fill-opacity="1" /><path clip-path="url(#clip070)" d="M115.85 184.209 L123.489 184.209 L123.489 157.843 L115.179 159.51 L115.179 155.251 L123.443 153.584 L128.119 153.584 L128.119 184.209 L135.757 184.209 L135.757 188.144 L115.85 188.144 L115.85 184.209 Z" fill="#000000" fill-rule="nonzero" fill-opacity="1" /><path clip-path="url(#clip070)" d="M145.202 182.264 L150.086 182.264 L150.086 188.144 L145.202 188.144 L145.202 182.264 Z" fill="#000000" fill-rule="nonzero" fill-opacity="1" /><path clip-path="url(#clip070)" d="M164.299 184.209 L180.618 184.209 L180.618 188.144 L158.674 188.144 L158.674 184.209 Q161.336 181.454 165.919 176.825 Q170.526 172.172 171.706 170.829 Q173.952 168.306 174.831 166.57 Q175.734 164.811 175.734 163.121 Q175.734 160.366 173.79 158.63 Q171.868 156.894 168.767 156.894 Q166.567 156.894 164.114 157.658 Q161.683 158.422 158.905 159.973 L158.905 155.251 Q161.73 154.116 164.183 153.538 Q166.637 152.959 168.674 152.959 Q174.044 152.959 177.239 155.644 Q180.433 158.329 180.433 162.82 Q180.433 164.95 179.623 166.871 Q178.836 168.769 176.729 171.362 Q176.151 172.033 173.049 175.251 Q169.947 178.445 164.299 184.209 Z" fill="#000000" fill-rule="nonzero" fill-opacity="1" /><path clip-path="url(#clip070)" d="M200.433 156.663 Q196.822 156.663 194.993 160.228 Q193.188 163.769 193.188 170.899 Q193.188 178.005 194.993 181.57 Q196.822 185.112 200.433 185.112 Q204.067 185.112 205.873 181.57 Q207.701 178.005 207.701 170.899 Q207.701 163.769 205.873 160.228 Q204.067 156.663 200.433 156.663 M200.433 152.959 Q206.243 152.959 209.299 157.565 Q212.377 162.149 212.377 170.899 Q212.377 179.626 209.299 184.232 Q206.243 188.815 200.433 188.815 Q194.623 188.815 191.544 184.232 Q188.489 179.626 188.489 170.899 Q188.489 162.149 191.544 157.565 Q194.623 152.959 200.433 152.959 Z" fill="#000000" fill-rule="nonzero" fill-opacity="1" /><path clip-path="url(#clip070)" d="M248.766 162.681 L238.187 173.306 L248.766 183.885 L246.011 186.686 L235.387 176.061 L224.762 186.686 L222.03 183.885 L232.586 173.306 L222.03 162.681 L224.762 159.88 L235.387 170.505 L246.011 159.88 L248.766 162.681 Z" fill="#000000" fill-rule="nonzero" fill-opacity="1" /><path clip-path="url(#clip070)" d="M261.127 184.209 L268.766 184.209 L268.766 157.843 L260.456 159.51 L260.456 155.251 L268.72 153.584 L273.396 153.584 L273.396 184.209 L281.034 184.209 L281.034 188.144 L261.127 188.144 L261.127 184.209 Z" fill="#000000" fill-rule="nonzero" fill-opacity="1" /><path clip-path="url(#clip070)" d="M300.479 156.663 Q296.868 156.663 295.039 160.228 Q293.233 163.769 293.233 170.899 Q293.233 178.005 295.039 181.57 Q296.868 185.112 300.479 185.112 Q304.113 185.112 305.919 181.57 Q307.747 178.005 307.747 170.899 Q307.747 163.769 305.919 160.228 Q304.113 156.663 300.479 156.663 M300.479 152.959 Q306.289 152.959 309.344 157.565 Q312.423 162.149 312.423 170.899 Q312.423 179.626 309.344 184.232 Q306.289 188.815 300.479 188.815 Q294.669 188.815 291.59 184.232 Q288.534 179.626 288.534 170.899 Q288.534 162.149 291.59 157.565 Q294.669 152.959 300.479 152.959 Z" fill="#000000" fill-rule="nonzero" fill-opacity="1" /><path clip-path="url(#clip070)" d="M325.1 135.964 L315.508 150.954 L325.1 150.954 L325.1 135.964 M324.103 132.654 L328.88 132.654 L328.88 150.954 L332.886 150.954 L332.886 154.113 L328.88 154.113 L328.88 160.734 L325.1 160.734 L325.1 154.113 L312.423 154.113 L312.423 150.446 L324.103 132.654 Z" fill="#000000" fill-rule="nonzero" fill-opacity="1" /><path clip-path="url(#clip070)" d="M41.7242 771.687 Q42.4244 769.619 44.7161 767.677 Q47.0077 765.704 51.0181 763.73 L64.0042 757.205 L64.0042 764.112 L51.8138 770.192 Q47.0395 772.547 45.48 774.775 Q43.9204 776.971 43.9204 780.79 L43.9204 787.793 L64.0042 787.793 L64.0042 794.222 L16.4842 794.222 L16.4842 779.708 Q16.4842 771.56 19.8898 767.55 Q23.2955 763.539 30.1704 763.539 Q34.6582 763.539 37.6183 765.64 Q40.5784 767.709 41.7242 771.687 M21.7677 787.793 L38.6368 787.793 L38.6368 779.708 Q38.6368 775.061 36.5043 772.706 Q34.34 770.319 30.1704 770.319 Q26.0009 770.319 23.9002 772.706 Q21.7677 775.061 21.7677 779.708 L21.7677 787.793 Z" fill="#000000" fill-rule="nonzero" fill-opacity="1" /><path clip-path="url(#clip070)" d="M18.0438 720.444 L24.314 720.444 Q22.5634 724.104 21.704 727.35 Q20.8447 730.597 20.8447 733.621 Q20.8447 738.872 22.8817 741.737 Q24.9187 744.57 28.6745 744.57 Q31.8255 744.57 33.4488 742.692 Q35.0402 740.782 36.0269 735.498 L36.8226 731.615 Q38.1912 724.422 41.6605 721.016 Q45.098 717.579 50.8908 717.579 Q57.7976 717.579 61.3624 722.226 Q64.9272 726.841 64.9272 735.785 Q64.9272 739.159 64.1633 742.978 Q63.3994 746.766 61.9035 750.84 L55.2831 750.84 Q57.4793 746.925 58.5933 743.169 Q59.7073 739.413 59.7073 735.785 Q59.7073 730.279 57.543 727.287 Q55.3786 724.295 51.3682 724.295 Q47.8671 724.295 45.8937 726.459 Q43.9204 728.592 42.9337 733.493 L42.1698 737.408 Q40.7375 744.601 37.682 747.816 Q34.6264 751.031 29.1837 751.031 Q22.8817 751.031 19.2532 746.607 Q15.6248 742.151 15.6248 734.353 Q15.6248 731.011 16.2295 727.541 Q16.8343 724.072 18.0438 720.444 Z" fill="#000000" fill-rule="nonzero" fill-opacity="1" /><path clip-path="url(#clip070)" d="M18.0438 679.066 L24.314 679.066 Q22.5634 682.727 21.704 685.973 Q20.8447 689.22 20.8447 692.243 Q20.8447 697.495 22.8817 700.36 Q24.9187 703.192 28.6745 703.192 Q31.8255 703.192 33.4488 701.315 Q35.0402 699.405 36.0269 694.121 L36.8226 690.238 Q38.1912 683.045 41.6605 679.639 Q45.098 676.202 50.8908 676.202 Q57.7976 676.202 61.3624 680.849 Q64.9272 685.464 64.9272 694.408 Q64.9272 697.782 64.1633 701.601 Q63.3994 705.389 61.9035 709.463 L55.2831 709.463 Q57.4793 705.548 58.5933 701.792 Q59.7073 698.036 59.7073 694.408 Q59.7073 688.901 57.543 685.91 Q55.3786 682.918 51.3682 682.918 Q47.8671 682.918 45.8937 685.082 Q43.9204 687.215 42.9337 692.116 L42.1698 696.031 Q40.7375 703.224 37.682 706.439 Q34.6264 709.654 29.1837 709.654 Q22.8817 709.654 19.2532 705.229 Q15.6248 700.773 15.6248 692.976 Q15.6248 689.634 16.2295 686.164 Q16.8343 682.695 18.0438 679.066 Z" fill="#000000" fill-rule="nonzero" fill-opacity="1" /><circle clip-path="url(#clip072)" cx="425.033" cy="179.756" r="18" fill="#009af9" fill-rule="evenodd" fill-opacity="1" stroke="#000000" stroke-opacity="1" stroke-width="3.2"/>
<circle clip-path="url(#clip072)" cx="473.023" cy="208.118" r="18" fill="#009af9" fill-rule="evenodd" fill-opacity="1" stroke="#000000" stroke-opacity="1" stroke-width="3.2"/>
<circle clip-path="url(#clip072)" cx="521.01" cy="215.389" r="18" fill="#009af9" fill-rule="evenodd" fill-opacity="1" stroke="#000000" stroke-opacity="1" stroke-width="3.2"/>
<circle clip-path="url(#clip072)" cx="569" cy="224.196" r="18" fill="#009af9" fill-rule="evenodd" fill-opacity="1" stroke="#000000" stroke-opacity="1" stroke-width="3.2"/>
<circle clip-path="url(#clip072)" cx="616.99" cy="246.266" r="18" fill="#009af9" fill-rule="evenodd" fill-opacity="1" stroke="#000000" stroke-opacity="1" stroke-width="3.2"/>
<circle clip-path="url(#clip072)" cx="664.979" cy="258.473" r="18" fill="#009af9" fill-rule="evenodd" fill-opacity="1" stroke="#000000" stroke-opacity="1" stroke-width="3.2"/>
<circle clip-path="url(#clip072)" cx="712.966" cy="297.331" r="18" fill="#009af9" fill-rule="evenodd" fill-opacity="1" stroke="#000000" stroke-opacity="1" stroke-width="3.2"/>
<circle clip-path="url(#clip072)" cx="760.956" cy="325.541" r="18" fill="#009af9" fill-rule="evenodd" fill-opacity="1" stroke="#000000" stroke-opacity="1" stroke-width="3.2"/>
<circle clip-path="url(#clip072)" cx="808.946" cy="338.905" r="18" fill="#009af9" fill-rule="evenodd" fill-opacity="1" stroke="#000000" stroke-opacity="1" stroke-width="3.2"/>
<circle clip-path="url(#clip072)" cx="856.935" cy="357.604" r="18" fill="#009af9" fill-rule="evenodd" fill-opacity="1" stroke="#000000" stroke-opacity="1" stroke-width="3.2"/>
<circle clip-path="url(#clip072)" cx="904.925" cy="223.221" r="18" fill="#009af9" fill-rule="evenodd" fill-opacity="1" stroke="#000000" stroke-opacity="1" stroke-width="3.2"/>
<circle clip-path="url(#clip072)" cx="952.912" cy="203.814" r="18" fill="#009af9" fill-rule="evenodd" fill-opacity="1" stroke="#000000" stroke-opacity="1" stroke-width="3.2"/>
<circle clip-path="url(#clip072)" cx="1000.9" cy="115.979" r="18" fill="#009af9" fill-rule="evenodd" fill-opacity="1" stroke="#000000" stroke-opacity="1" stroke-width="3.2"/>
<circle clip-path="url(#clip072)" cx="1048.89" cy="86.1857" r="18" fill="#009af9" fill-rule="evenodd" fill-opacity="1" stroke="#000000" stroke-opacity="1" stroke-width="3.2"/>
<circle clip-path="url(#clip072)" cx="1096.88" cy="101.091" r="18" fill="#009af9" fill-rule="evenodd" fill-opacity="1" stroke="#000000" stroke-opacity="1" stroke-width="3.2"/>
<circle clip-path="url(#clip072)" cx="1144.87" cy="109.488" r="18" fill="#009af9" fill-rule="evenodd" fill-opacity="1" stroke="#000000" stroke-opacity="1" stroke-width="3.2"/>
<circle clip-path="url(#clip072)" cx="1192.86" cy="139.881" r="18" fill="#009af9" fill-rule="evenodd" fill-opacity="1" stroke="#000000" stroke-opacity="1" stroke-width="3.2"/>
<circle clip-path="url(#clip072)" cx="1240.85" cy="203.414" r="18" fill="#009af9" fill-rule="evenodd" fill-opacity="1" stroke="#000000" stroke-opacity="1" stroke-width="3.2"/>
<circle clip-path="url(#clip072)" cx="1288.84" cy="242.461" r="18" fill="#009af9" fill-rule="evenodd" fill-opacity="1" stroke="#000000" stroke-opacity="1" stroke-width="3.2"/>
<circle clip-path="url(#clip072)" cx="1336.82" cy="336.262" r="18" fill="#009af9" fill-rule="evenodd" fill-opacity="1" stroke="#000000" stroke-opacity="1" stroke-width="3.2"/>
<circle clip-path="url(#clip072)" cx="1384.81" cy="422.1" r="18" fill="#009af9" fill-rule="evenodd" fill-opacity="1" stroke="#000000" stroke-opacity="1" stroke-width="3.2"/>
<circle clip-path="url(#clip072)" cx="1432.8" cy="423.133" r="18" fill="#009af9" fill-rule="evenodd" fill-opacity="1" stroke="#000000" stroke-opacity="1" stroke-width="3.2"/>
<circle clip-path="url(#clip072)" cx="1480.79" cy="419.749" r="18" fill="#009af9" fill-rule="evenodd" fill-opacity="1" stroke="#000000" stroke-opacity="1" stroke-width="3.2"/>
<circle clip-path="url(#clip072)" cx="1528.78" cy="416.111" r="18" fill="#009af9" fill-rule="evenodd" fill-opacity="1" stroke="#000000" stroke-opacity="1" stroke-width="3.2"/>
<circle clip-path="url(#clip072)" cx="1576.77" cy="411.516" r="18" fill="#009af9" fill-rule="evenodd" fill-opacity="1" stroke="#000000" stroke-opacity="1" stroke-width="3.2"/>
<circle clip-path="url(#clip072)" cx="1624.76" cy="416.425" r="18" fill="#009af9" fill-rule="evenodd" fill-opacity="1" stroke="#000000" stroke-opacity="1" stroke-width="3.2"/>
<circle clip-path="url(#clip072)" cx="1672.75" cy="440.958" r="18" fill="#009af9" fill-rule="evenodd" fill-opacity="1" stroke="#000000" stroke-opacity="1" stroke-width="3.2"/>
<circle clip-path="url(#clip072)" cx="1720.74" cy="459.228" r="18" fill="#009af9" fill-rule="evenodd" fill-opacity="1" stroke="#000000" stroke-opacity="1" stroke-width="3.2"/>
<circle clip-path="url(#clip072)" cx="1768.73" cy="473.44" r="18" fill="#009af9" fill-rule="evenodd" fill-opacity="1" stroke="#000000" stroke-opacity="1" stroke-width="3.2"/>
<circle clip-path="url(#clip072)" cx="1816.72" cy="506.498" r="18" fill="#009af9" fill-rule="evenodd" fill-opacity="1" stroke="#000000" stroke-opacity="1" stroke-width="3.2"/>
<circle clip-path="url(#clip072)" cx="1864.71" cy="472.928" r="18" fill="#009af9" fill-rule="evenodd" fill-opacity="1" stroke="#000000" stroke-opacity="1" stroke-width="3.2"/>
<circle clip-path="url(#clip072)" cx="1912.7" cy="428.634" r="18" fill="#009af9" fill-rule="evenodd" fill-opacity="1" stroke="#000000" stroke-opacity="1" stroke-width="3.2"/>
<circle clip-path="url(#clip072)" cx="1960.69" cy="394.759" r="18" fill="#009af9" fill-rule="evenodd" fill-opacity="1" stroke="#000000" stroke-opacity="1" stroke-width="3.2"/>
<circle clip-path="url(#clip072)" cx="2008.67" cy="362.909" r="18" fill="#009af9" fill-rule="evenodd" fill-opacity="1" stroke="#000000" stroke-opacity="1" stroke-width="3.2"/>
<circle clip-path="url(#clip072)" cx="2056.66" cy="321.684" r="18" fill="#009af9" fill-rule="evenodd" fill-opacity="1" stroke="#000000" stroke-opacity="1" stroke-width="3.2"/>
<circle clip-path="url(#clip072)" cx="2104.65" cy="286.774" r="18" fill="#009af9" fill-rule="evenodd" fill-opacity="1" stroke="#000000" stroke-opacity="1" stroke-width="3.2"/>
<circle clip-path="url(#clip072)" cx="2152.64" cy="253.558" r="18" fill="#009af9" fill-rule="evenodd" fill-opacity="1" stroke="#000000" stroke-opacity="1" stroke-width="3.2"/>
<circle clip-path="url(#clip072)" cx="2200.63" cy="225.618" r="18" fill="#009af9" fill-rule="evenodd" fill-opacity="1" stroke="#000000" stroke-opacity="1" stroke-width="3.2"/>
<circle clip-path="url(#clip072)" cx="2248.62" cy="202.132" r="18" fill="#009af9" fill-rule="evenodd" fill-opacity="1" stroke="#000000" stroke-opacity="1" stroke-width="3.2"/>
<circle clip-path="url(#clip072)" cx="2296.61" cy="179.756" r="18" fill="#009af9" fill-rule="evenodd" fill-opacity="1" stroke="#000000" stroke-opacity="1" stroke-width="3.2"/>
<circle clip-path="url(#clip072)" cx="425.033" cy="1384.24" r="7.2" fill="#e26f46" fill-rule="evenodd" fill-opacity="1" stroke="#000000" stroke-opacity="1" stroke-width="3.2"/>
<circle clip-path="url(#clip072)" cx="473.023" cy="1380.12" r="7.2" fill="#e26f46" fill-rule="evenodd" fill-opacity="1" stroke="#000000" stroke-opacity="1" stroke-width="3.2"/>
<circle clip-path="url(#clip072)" cx="521.01" cy="1378.75" r="7.2" fill="#e26f46" fill-rule="evenodd" fill-opacity="1" stroke="#000000" stroke-opacity="1" stroke-width="3.2"/>
<circle clip-path="url(#clip072)" cx="569" cy="1378.44" r="7.2" fill="#e26f46" fill-rule="evenodd" fill-opacity="1" stroke="#000000" stroke-opacity="1" stroke-width="3.2"/>
<circle clip-path="url(#clip072)" cx="616.99" cy="1378.26" r="7.2" fill="#e26f46" fill-rule="evenodd" fill-opacity="1" stroke="#000000" stroke-opacity="1" stroke-width="3.2"/>
<circle clip-path="url(#clip072)" cx="664.979" cy="1375.41" r="7.2" fill="#e26f46" fill-rule="evenodd" fill-opacity="1" stroke="#000000" stroke-opacity="1" stroke-width="3.2"/>
<circle clip-path="url(#clip072)" cx="712.966" cy="1375.12" r="7.2" fill="#e26f46" fill-rule="evenodd" fill-opacity="1" stroke="#000000" stroke-opacity="1" stroke-width="3.2"/>
<circle clip-path="url(#clip072)" cx="760.956" cy="1373.37" r="7.2" fill="#e26f46" fill-rule="evenodd" fill-opacity="1" stroke="#000000" stroke-opacity="1" stroke-width="3.2"/>
<circle clip-path="url(#clip072)" cx="808.946" cy="1373.06" r="7.2" fill="#e26f46" fill-rule="evenodd" fill-opacity="1" stroke="#000000" stroke-opacity="1" stroke-width="3.2"/>
<circle clip-path="url(#clip072)" cx="856.935" cy="1371.83" r="7.2" fill="#e26f46" fill-rule="evenodd" fill-opacity="1" stroke="#000000" stroke-opacity="1" stroke-width="3.2"/>
<circle clip-path="url(#clip072)" cx="904.925" cy="1221.74" r="7.2" fill="#e26f46" fill-rule="evenodd" fill-opacity="1" stroke="#000000" stroke-opacity="1" stroke-width="3.2"/>
<circle clip-path="url(#clip072)" cx="952.912" cy="1139.9" r="7.2" fill="#e26f46" fill-rule="evenodd" fill-opacity="1" stroke="#000000" stroke-opacity="1" stroke-width="3.2"/>
<circle clip-path="url(#clip072)" cx="1000.9" cy="1017.17" r="7.2" fill="#e26f46" fill-rule="evenodd" fill-opacity="1" stroke="#000000" stroke-opacity="1" stroke-width="3.2"/>
<circle clip-path="url(#clip072)" cx="1048.89" cy="905.567" r="7.2" fill="#e26f46" fill-rule="evenodd" fill-opacity="1" stroke="#000000" stroke-opacity="1" stroke-width="3.2"/>
<circle clip-path="url(#clip072)" cx="1096.88" cy="826.17" r="7.2" fill="#e26f46" fill-rule="evenodd" fill-opacity="1" stroke="#000000" stroke-opacity="1" stroke-width="3.2"/>
<circle clip-path="url(#clip072)" cx="1144.87" cy="751.456" r="7.2" fill="#e26f46" fill-rule="evenodd" fill-opacity="1" stroke="#000000" stroke-opacity="1" stroke-width="3.2"/>
<circle clip-path="url(#clip072)" cx="1192.86" cy="685.531" r="7.2" fill="#e26f46" fill-rule="evenodd" fill-opacity="1" stroke="#000000" stroke-opacity="1" stroke-width="3.2"/>
<circle clip-path="url(#clip072)" cx="1240.85" cy="644.371" r="7.2" fill="#e26f46" fill-rule="evenodd" fill-opacity="1" stroke="#000000" stroke-opacity="1" stroke-width="3.2"/>
<circle clip-path="url(#clip072)" cx="1288.84" cy="595.377" r="7.2" fill="#e26f46" fill-rule="evenodd" fill-opacity="1" stroke="#000000" stroke-opacity="1" stroke-width="3.2"/>
<circle clip-path="url(#clip072)" cx="1336.82" cy="572.569" r="7.2" fill="#e26f46" fill-rule="evenodd" fill-opacity="1" stroke="#000000" stroke-opacity="1" stroke-width="3.2"/>
<circle clip-path="url(#clip072)" cx="1384.81" cy="570.695" r="7.2" fill="#e26f46" fill-rule="evenodd" fill-opacity="1" stroke="#000000" stroke-opacity="1" stroke-width="3.2"/>
<circle clip-path="url(#clip072)" cx="1432.8" cy="558.544" r="7.2" fill="#e26f46" fill-rule="evenodd" fill-opacity="1" stroke="#000000" stroke-opacity="1" stroke-width="3.2"/>
<circle clip-path="url(#clip072)" cx="1480.79" cy="552.806" r="7.2" fill="#e26f46" fill-rule="evenodd" fill-opacity="1" stroke="#000000" stroke-opacity="1" stroke-width="3.2"/>
<circle clip-path="url(#clip072)" cx="1528.78" cy="542.375" r="7.2" fill="#e26f46" fill-rule="evenodd" fill-opacity="1" stroke="#000000" stroke-opacity="1" stroke-width="3.2"/>
<circle clip-path="url(#clip072)" cx="1576.77" cy="534.616" r="7.2" fill="#e26f46" fill-rule="evenodd" fill-opacity="1" stroke="#000000" stroke-opacity="1" stroke-width="3.2"/>
<circle clip-path="url(#clip072)" cx="1624.76" cy="534.585" r="7.2" fill="#e26f46" fill-rule="evenodd" fill-opacity="1" stroke="#000000" stroke-opacity="1" stroke-width="3.2"/>
<circle clip-path="url(#clip072)" cx="1672.75" cy="533.955" r="7.2" fill="#e26f46" fill-rule="evenodd" fill-opacity="1" stroke="#000000" stroke-opacity="1" stroke-width="3.2"/>
<circle clip-path="url(#clip072)" cx="1720.74" cy="529.884" r="7.2" fill="#e26f46" fill-rule="evenodd" fill-opacity="1" stroke="#000000" stroke-opacity="1" stroke-width="3.2"/>
<circle clip-path="url(#clip072)" cx="1768.73" cy="529.823" r="7.2" fill="#e26f46" fill-rule="evenodd" fill-opacity="1" stroke="#000000" stroke-opacity="1" stroke-width="3.2"/>
<circle clip-path="url(#clip072)" cx="1816.72" cy="521.431" r="7.2" fill="#e26f46" fill-rule="evenodd" fill-opacity="1" stroke="#000000" stroke-opacity="1" stroke-width="3.2"/>
<circle clip-path="url(#clip072)" cx="1864.71" cy="474.107" r="7.2" fill="#e26f46" fill-rule="evenodd" fill-opacity="1" stroke="#000000" stroke-opacity="1" stroke-width="3.2"/>
<circle clip-path="url(#clip072)" cx="1912.7" cy="429.74" r="7.2" fill="#e26f46" fill-rule="evenodd" fill-opacity="1" stroke="#000000" stroke-opacity="1" stroke-width="3.2"/>
<circle clip-path="url(#clip072)" cx="1960.69" cy="395.776" r="7.2" fill="#e26f46" fill-rule="evenodd" fill-opacity="1" stroke="#000000" stroke-opacity="1" stroke-width="3.2"/>
<circle clip-path="url(#clip072)" cx="2008.67" cy="363.809" r="7.2" fill="#e26f46" fill-rule="evenodd" fill-opacity="1" stroke="#000000" stroke-opacity="1" stroke-width="3.2"/>
<circle clip-path="url(#clip072)" cx="2056.66" cy="322.43" r="7.2" fill="#e26f46" fill-rule="evenodd" fill-opacity="1" stroke="#000000" stroke-opacity="1" stroke-width="3.2"/>
<circle clip-path="url(#clip072)" cx="2104.65" cy="287.181" r="7.2" fill="#e26f46" fill-rule="evenodd" fill-opacity="1" stroke="#000000" stroke-opacity="1" stroke-width="3.2"/>
<circle clip-path="url(#clip072)" cx="2152.64" cy="253.837" r="7.2" fill="#e26f46" fill-rule="evenodd" fill-opacity="1" stroke="#000000" stroke-opacity="1" stroke-width="3.2"/>
<circle clip-path="url(#clip072)" cx="2200.63" cy="225.686" r="7.2" fill="#e26f46" fill-rule="evenodd" fill-opacity="1" stroke="#000000" stroke-opacity="1" stroke-width="3.2"/>
<circle clip-path="url(#clip072)" cx="2248.62" cy="202.132" r="7.2" fill="#e26f46" fill-rule="evenodd" fill-opacity="1" stroke="#000000" stroke-opacity="1" stroke-width="3.2"/>
<circle clip-path="url(#clip072)" cx="2296.61" cy="179.756" r="7.2" fill="#e26f46" fill-rule="evenodd" fill-opacity="1" stroke="#000000" stroke-opacity="1" stroke-width="3.2"/>
<circle clip-path="url(#clip072)" cx="425.033" cy="179.756" r="7.2" fill="#3da44d" fill-rule="evenodd" fill-opacity="1" stroke="#000000" stroke-opacity="1" stroke-width="3.2"/>
<circle clip-path="url(#clip072)" cx="473.023" cy="212.234" r="7.2" fill="#3da44d" fill-rule="evenodd" fill-opacity="1" stroke="#000000" stroke-opacity="1" stroke-width="3.2"/>
<circle clip-path="url(#clip072)" cx="521.01" cy="220.879" r="7.2" fill="#3da44d" fill-rule="evenodd" fill-opacity="1" stroke="#000000" stroke-opacity="1" stroke-width="3.2"/>
<circle clip-path="url(#clip072)" cx="569" cy="229.99" r="7.2" fill="#3da44d" fill-rule="evenodd" fill-opacity="1" stroke="#000000" stroke-opacity="1" stroke-width="3.2"/>
<circle clip-path="url(#clip072)" cx="616.99" cy="252.244" r="7.2" fill="#3da44d" fill-rule="evenodd" fill-opacity="1" stroke="#000000" stroke-opacity="1" stroke-width="3.2"/>
<circle clip-path="url(#clip072)" cx="664.979" cy="267.3" r="7.2" fill="#3da44d" fill-rule="evenodd" fill-opacity="1" stroke="#000000" stroke-opacity="1" stroke-width="3.2"/>
<circle clip-path="url(#clip072)" cx="712.966" cy="306.451" r="7.2" fill="#3da44d" fill-rule="evenodd" fill-opacity="1" stroke="#000000" stroke-opacity="1" stroke-width="3.2"/>
<circle clip-path="url(#clip072)" cx="760.956" cy="336.405" r="7.2" fill="#3da44d" fill-rule="evenodd" fill-opacity="1" stroke="#000000" stroke-opacity="1" stroke-width="3.2"/>
<circle clip-path="url(#clip072)" cx="808.946" cy="350.087" r="7.2" fill="#3da44d" fill-rule="evenodd" fill-opacity="1" stroke="#000000" stroke-opacity="1" stroke-width="3.2"/>
<circle clip-path="url(#clip072)" cx="856.935" cy="370.015" r="7.2" fill="#3da44d" fill-rule="evenodd" fill-opacity="1" stroke="#000000" stroke-opacity="1" stroke-width="3.2"/>
<circle clip-path="url(#clip072)" cx="904.925" cy="385.716" r="7.2" fill="#3da44d" fill-rule="evenodd" fill-opacity="1" stroke="#000000" stroke-opacity="1" stroke-width="3.2"/>
<circle clip-path="url(#clip072)" cx="952.912" cy="448.151" r="7.2" fill="#3da44d" fill-rule="evenodd" fill-opacity="1" stroke="#000000" stroke-opacity="1" stroke-width="3.2"/>
<circle clip-path="url(#clip072)" cx="1000.9" cy="483.051" r="7.2" fill="#3da44d" fill-rule="evenodd" fill-opacity="1" stroke="#000000" stroke-opacity="1" stroke-width="3.2"/>
<circle clip-path="url(#clip072)" cx="1048.89" cy="564.857" r="7.2" fill="#3da44d" fill-rule="evenodd" fill-opacity="1" stroke="#000000" stroke-opacity="1" stroke-width="3.2"/>
<circle clip-path="url(#clip072)" cx="1096.88" cy="659.16" r="7.2" fill="#3da44d" fill-rule="evenodd" fill-opacity="1" stroke="#000000" stroke-opacity="1" stroke-width="3.2"/>
<circle clip-path="url(#clip072)" cx="1144.87" cy="742.27" r="7.2" fill="#3da44d" fill-rule="evenodd" fill-opacity="1" stroke="#000000" stroke-opacity="1" stroke-width="3.2"/>
<circle clip-path="url(#clip072)" cx="1192.86" cy="838.588" r="7.2" fill="#3da44d" fill-rule="evenodd" fill-opacity="1" stroke="#000000" stroke-opacity="1" stroke-width="3.2"/>
<circle clip-path="url(#clip072)" cx="1240.85" cy="943.282" r="7.2" fill="#3da44d" fill-rule="evenodd" fill-opacity="1" stroke="#000000" stroke-opacity="1" stroke-width="3.2"/>
<circle clip-path="url(#clip072)" cx="1288.84" cy="1031.32" r="7.2" fill="#3da44d" fill-rule="evenodd" fill-opacity="1" stroke="#000000" stroke-opacity="1" stroke-width="3.2"/>
<circle clip-path="url(#clip072)" cx="1336.82" cy="1147.93" r="7.2" fill="#3da44d" fill-rule="evenodd" fill-opacity="1" stroke="#000000" stroke-opacity="1" stroke-width="3.2"/>
<circle clip-path="url(#clip072)" cx="1384.81" cy="1235.64" r="7.2" fill="#3da44d" fill-rule="evenodd" fill-opacity="1" stroke="#000000" stroke-opacity="1" stroke-width="3.2"/>
<circle clip-path="url(#clip072)" cx="1432.8" cy="1248.83" r="7.2" fill="#3da44d" fill-rule="evenodd" fill-opacity="1" stroke="#000000" stroke-opacity="1" stroke-width="3.2"/>
<circle clip-path="url(#clip072)" cx="1480.79" cy="1251.18" r="7.2" fill="#3da44d" fill-rule="evenodd" fill-opacity="1" stroke="#000000" stroke-opacity="1" stroke-width="3.2"/>
<circle clip-path="url(#clip072)" cx="1528.78" cy="1257.97" r="7.2" fill="#3da44d" fill-rule="evenodd" fill-opacity="1" stroke="#000000" stroke-opacity="1" stroke-width="3.2"/>
<circle clip-path="url(#clip072)" cx="1576.77" cy="1261.14" r="7.2" fill="#3da44d" fill-rule="evenodd" fill-opacity="1" stroke="#000000" stroke-opacity="1" stroke-width="3.2"/>
<circle clip-path="url(#clip072)" cx="1624.76" cy="1266.08" r="7.2" fill="#3da44d" fill-rule="evenodd" fill-opacity="1" stroke="#000000" stroke-opacity="1" stroke-width="3.2"/>
<circle clip-path="url(#clip072)" cx="1672.75" cy="1291.24" r="7.2" fill="#3da44d" fill-rule="evenodd" fill-opacity="1" stroke="#000000" stroke-opacity="1" stroke-width="3.2"/>
<circle clip-path="url(#clip072)" cx="1720.74" cy="1313.58" r="7.2" fill="#3da44d" fill-rule="evenodd" fill-opacity="1" stroke="#000000" stroke-opacity="1" stroke-width="3.2"/>
<circle clip-path="url(#clip072)" cx="1768.73" cy="1327.86" r="7.2" fill="#3da44d" fill-rule="evenodd" fill-opacity="1" stroke="#000000" stroke-opacity="1" stroke-width="3.2"/>
<circle clip-path="url(#clip072)" cx="1816.72" cy="1369.3" r="7.2" fill="#3da44d" fill-rule="evenodd" fill-opacity="1" stroke="#000000" stroke-opacity="1" stroke-width="3.2"/>
<circle clip-path="url(#clip072)" cx="1864.71" cy="1383.06" r="7.2" fill="#3da44d" fill-rule="evenodd" fill-opacity="1" stroke="#000000" stroke-opacity="1" stroke-width="3.2"/>
<circle clip-path="url(#clip072)" cx="1912.7" cy="1383.13" r="7.2" fill="#3da44d" fill-rule="evenodd" fill-opacity="1" stroke="#000000" stroke-opacity="1" stroke-width="3.2"/>
<circle clip-path="url(#clip072)" cx="1960.69" cy="1383.22" r="7.2" fill="#3da44d" fill-rule="evenodd" fill-opacity="1" stroke="#000000" stroke-opacity="1" stroke-width="3.2"/>
<circle clip-path="url(#clip072)" cx="2008.67" cy="1383.34" r="7.2" fill="#3da44d" fill-rule="evenodd" fill-opacity="1" stroke="#000000" stroke-opacity="1" stroke-width="3.2"/>
<circle clip-path="url(#clip072)" cx="2056.66" cy="1383.49" r="7.2" fill="#3da44d" fill-rule="evenodd" fill-opacity="1" stroke="#000000" stroke-opacity="1" stroke-width="3.2"/>
<circle clip-path="url(#clip072)" cx="2104.65" cy="1383.83" r="7.2" fill="#3da44d" fill-rule="evenodd" fill-opacity="1" stroke="#000000" stroke-opacity="1" stroke-width="3.2"/>
<circle clip-path="url(#clip072)" cx="2152.64" cy="1383.96" r="7.2" fill="#3da44d" fill-rule="evenodd" fill-opacity="1" stroke="#000000" stroke-opacity="1" stroke-width="3.2"/>
<circle clip-path="url(#clip072)" cx="2200.63" cy="1384.17" r="7.2" fill="#3da44d" fill-rule="evenodd" fill-opacity="1" stroke="#000000" stroke-opacity="1" stroke-width="3.2"/>
<circle clip-path="url(#clip072)" cx="2248.62" cy="1384.24" r="7.2" fill="#3da44d" fill-rule="evenodd" fill-opacity="1" stroke="#000000" stroke-opacity="1" stroke-width="3.2"/>
<circle clip-path="url(#clip072)" cx="2296.61" cy="1384.24" r="7.2" fill="#3da44d" fill-rule="evenodd" fill-opacity="1" stroke="#000000" stroke-opacity="1" stroke-width="3.2"/>
<path clip-path="url(#clip070)" d="M1874.44 300.469 L2286.63 300.469 L2286.63 93.1086 L1874.44 93.1086  Z" fill="#ffffff" fill-rule="evenodd" fill-opacity="1"/>
<polyline clip-path="url(#clip070)" style="stroke:#000000; stroke-linecap:round; stroke-linejoin:round; stroke-width:4; stroke-opacity:1; fill:none" points="1874.44,300.469 2286.63,300.469 2286.63,93.1086 1874.44,93.1086 1874.44,300.469 "/>
<circle clip-path="url(#clip070)" cx="1962.62" cy="144.949" r="20.9455" fill="#009af9" fill-rule="evenodd" fill-opacity="1" stroke="#000000" stroke-opacity="1" stroke-width="3.72364"/>
<path clip-path="url(#clip070)" d="M2067.18 146.025 Q2068.68 146.534 2070.09 148.201 Q2071.53 149.868 2072.96 152.784 L2077.71 162.229 L2072.69 162.229 L2068.27 153.363 Q2066.55 149.891 2064.93 148.756 Q2063.33 147.622 2060.56 147.622 L2055.46 147.622 L2055.46 162.229 L2050.79 162.229 L2050.79 127.669 L2061.34 127.669 Q2067.27 127.669 2070.19 130.145 Q2073.1 132.622 2073.1 137.622 Q2073.1 140.886 2071.58 143.039 Q2070.07 145.192 2067.18 146.025 M2055.46 131.511 L2055.46 143.78 L2061.34 143.78 Q2064.72 143.78 2066.44 142.229 Q2068.17 140.655 2068.17 137.622 Q2068.17 134.59 2066.44 133.062 Q2064.72 131.511 2061.34 131.511 L2055.46 131.511 Z" fill="#000000" fill-rule="nonzero" fill-opacity="1" /><path clip-path="url(#clip070)" d="M2104.45 128.803 L2104.45 133.363 Q2101.78 132.09 2099.42 131.465 Q2097.06 130.84 2094.86 130.84 Q2091.04 130.84 2088.96 132.321 Q2086.9 133.803 2086.9 136.534 Q2086.9 138.826 2088.27 140.007 Q2089.65 141.164 2093.5 141.882 L2096.32 142.46 Q2101.55 143.456 2104.03 145.979 Q2106.53 148.479 2106.53 152.692 Q2106.53 157.715 2103.15 160.307 Q2099.79 162.9 2093.29 162.9 Q2090.83 162.9 2088.06 162.344 Q2085.3 161.789 2082.34 160.701 L2082.34 155.886 Q2085.19 157.483 2087.92 158.293 Q2090.65 159.104 2093.29 159.104 Q2097.29 159.104 2099.47 157.53 Q2101.64 155.956 2101.64 153.039 Q2101.64 150.493 2100.07 149.057 Q2098.52 147.622 2094.96 146.905 L2092.11 146.349 Q2086.88 145.307 2084.54 143.085 Q2082.2 140.863 2082.2 136.905 Q2082.2 132.321 2085.42 129.682 Q2088.66 127.044 2094.33 127.044 Q2096.76 127.044 2099.28 127.483 Q2101.81 127.923 2104.45 128.803 Z" fill="#000000" fill-rule="nonzero" fill-opacity="1" /><path clip-path="url(#clip070)" d="M2134.54 128.803 L2134.54 133.363 Q2131.88 132.09 2129.52 131.465 Q2127.15 130.84 2124.96 130.84 Q2121.14 130.84 2119.05 132.321 Q2116.99 133.803 2116.99 136.534 Q2116.99 138.826 2118.36 140.007 Q2119.75 141.164 2123.59 141.882 L2126.41 142.46 Q2131.64 143.456 2134.12 145.979 Q2136.62 148.479 2136.62 152.692 Q2136.62 157.715 2133.24 160.307 Q2129.89 162.9 2123.38 162.9 Q2120.93 162.9 2118.15 162.344 Q2115.39 161.789 2112.43 160.701 L2112.43 155.886 Q2115.28 157.483 2118.01 158.293 Q2120.74 159.104 2123.38 159.104 Q2127.39 159.104 2129.56 157.53 Q2131.74 155.956 2131.74 153.039 Q2131.74 150.493 2130.16 149.057 Q2128.61 147.622 2125.05 146.905 L2122.2 146.349 Q2116.97 145.307 2114.63 143.085 Q2112.29 140.863 2112.29 136.905 Q2112.29 132.321 2115.51 129.682 Q2118.75 127.044 2124.42 127.044 Q2126.85 127.044 2129.38 127.483 Q2131.9 127.923 2134.54 128.803 Z" fill="#000000" fill-rule="nonzero" fill-opacity="1" /><circle clip-path="url(#clip070)" cx="1962.62" cy="196.789" r="18.432" fill="#e26f46" fill-rule="evenodd" fill-opacity="1" stroke="#000000" stroke-opacity="1" stroke-width="8.192"/>
<path clip-path="url(#clip070)" d="M2067.18 197.865 Q2068.68 198.374 2070.09 200.041 Q2071.53 201.708 2072.96 204.624 L2077.71 214.069 L2072.69 214.069 L2068.27 205.203 Q2066.55 201.731 2064.93 200.596 Q2063.33 199.462 2060.56 199.462 L2055.46 199.462 L2055.46 214.069 L2050.79 214.069 L2050.79 179.509 L2061.34 179.509 Q2067.27 179.509 2070.19 181.985 Q2073.1 184.462 2073.1 189.462 Q2073.1 192.726 2071.58 194.879 Q2070.07 197.032 2067.18 197.865 M2055.46 183.351 L2055.46 195.62 L2061.34 195.62 Q2064.72 195.62 2066.44 194.069 Q2068.17 192.495 2068.17 189.462 Q2068.17 186.43 2066.44 184.902 Q2064.72 183.351 2061.34 183.351 L2055.46 183.351 Z" fill="#000000" fill-rule="nonzero" fill-opacity="1" /><path clip-path="url(#clip070)" d="M2104.45 180.643 L2104.45 185.203 Q2101.78 183.93 2099.42 183.305 Q2097.06 182.68 2094.86 182.68 Q2091.04 182.68 2088.96 184.161 Q2086.9 185.643 2086.9 188.374 Q2086.9 190.666 2088.27 191.847 Q2089.65 193.004 2093.5 193.722 L2096.32 194.3 Q2101.55 195.296 2104.03 197.819 Q2106.53 200.319 2106.53 204.532 Q2106.53 209.555 2103.15 212.147 Q2099.79 214.74 2093.29 214.74 Q2090.83 214.74 2088.06 214.184 Q2085.3 213.629 2082.34 212.541 L2082.34 207.726 Q2085.19 209.323 2087.92 210.133 Q2090.65 210.944 2093.29 210.944 Q2097.29 210.944 2099.47 209.37 Q2101.64 207.796 2101.64 204.879 Q2101.64 202.333 2100.07 200.897 Q2098.52 199.462 2094.96 198.745 L2092.11 198.189 Q2086.88 197.147 2084.54 194.925 Q2082.2 192.703 2082.2 188.745 Q2082.2 184.161 2085.42 181.522 Q2088.66 178.884 2094.33 178.884 Q2096.76 178.884 2099.28 179.323 Q2101.81 179.763 2104.45 180.643 Z" fill="#000000" fill-rule="nonzero" fill-opacity="1" /><path clip-path="url(#clip070)" d="M2134.54 180.643 L2134.54 185.203 Q2131.88 183.93 2129.52 183.305 Q2127.15 182.68 2124.96 182.68 Q2121.14 182.68 2119.05 184.161 Q2116.99 185.643 2116.99 188.374 Q2116.99 190.666 2118.36 191.847 Q2119.75 193.004 2123.59 193.722 L2126.41 194.3 Q2131.64 195.296 2134.12 197.819 Q2136.62 200.319 2136.62 204.532 Q2136.62 209.555 2133.24 212.147 Q2129.89 214.74 2123.38 214.74 Q2120.93 214.74 2118.15 214.184 Q2115.39 213.629 2112.43 212.541 L2112.43 207.726 Q2115.28 209.323 2118.01 210.133 Q2120.74 210.944 2123.38 210.944 Q2127.39 210.944 2129.56 209.37 Q2131.74 207.796 2131.74 204.879 Q2131.74 202.333 2130.16 200.897 Q2128.61 199.462 2125.05 198.745 L2122.2 198.189 Q2116.97 197.147 2114.63 194.925 Q2112.29 192.703 2112.29 188.745 Q2112.29 184.161 2115.51 181.522 Q2118.75 178.884 2124.42 178.884 Q2126.85 178.884 2129.38 179.323 Q2131.9 179.763 2134.54 180.643 Z" fill="#000000" fill-rule="nonzero" fill-opacity="1" /><path clip-path="url(#clip070)" d="M2158.8 178.05 L2163.06 178.05 L2163.06 214.069 L2158.8 214.069 L2158.8 178.05 Z" fill="#000000" fill-rule="nonzero" fill-opacity="1" /><path clip-path="url(#clip070)" d="M2194.14 200.041 L2194.14 202.124 L2174.56 202.124 Q2174.84 206.522 2177.2 208.837 Q2179.58 211.129 2183.82 211.129 Q2186.27 211.129 2188.57 210.527 Q2190.88 209.925 2193.15 208.721 L2193.15 212.749 Q2190.86 213.721 2188.45 214.231 Q2186.04 214.74 2183.57 214.74 Q2177.36 214.74 2173.73 211.129 Q2170.12 207.518 2170.12 201.36 Q2170.12 194.995 2173.54 191.268 Q2176.99 187.518 2182.83 187.518 Q2188.06 187.518 2191.09 190.897 Q2194.14 194.254 2194.14 200.041 M2189.89 198.791 Q2189.84 195.296 2187.92 193.212 Q2186.02 191.129 2182.87 191.129 Q2179.31 191.129 2177.15 193.143 Q2175.02 195.157 2174.7 198.814 L2189.89 198.791 Z" fill="#000000" fill-rule="nonzero" fill-opacity="1" /><path clip-path="url(#clip070)" d="M2214.26 178.05 L2214.26 181.592 L2210.19 181.592 Q2207.89 181.592 2206.99 182.518 Q2206.11 183.444 2206.11 185.851 L2206.11 188.143 L2213.13 188.143 L2213.13 191.453 L2206.11 191.453 L2206.11 214.069 L2201.83 214.069 L2201.83 191.453 L2197.76 191.453 L2197.76 188.143 L2201.83 188.143 L2201.83 186.337 Q2201.83 182.009 2203.84 180.041 Q2205.86 178.05 2210.23 178.05 L2214.26 178.05 Z" fill="#000000" fill-rule="nonzero" fill-opacity="1" /><path clip-path="url(#clip070)" d="M2221.2 180.782 L2221.2 188.143 L2229.98 188.143 L2229.98 191.453 L2221.2 191.453 L2221.2 205.527 Q2221.2 208.698 2222.06 209.601 Q2222.94 210.504 2225.6 210.504 L2229.98 210.504 L2229.98 214.069 L2225.6 214.069 Q2220.67 214.069 2218.8 212.24 Q2216.92 210.388 2216.92 205.527 L2216.92 191.453 L2213.8 191.453 L2213.8 188.143 L2216.92 188.143 L2216.92 180.782 L2221.2 180.782 Z" fill="#000000" fill-rule="nonzero" fill-opacity="1" /><circle clip-path="url(#clip070)" cx="1962.62" cy="248.629" r="18.432" fill="#3da44d" fill-rule="evenodd" fill-opacity="1" stroke="#000000" stroke-opacity="1" stroke-width="8.192"/>
<path clip-path="url(#clip070)" d="M2067.18 249.705 Q2068.68 250.214 2070.09 251.881 Q2071.53 253.548 2072.96 256.464 L2077.71 265.909 L2072.69 265.909 L2068.27 257.043 Q2066.55 253.571 2064.93 252.436 Q2063.33 251.302 2060.56 251.302 L2055.46 251.302 L2055.46 265.909 L2050.79 265.909 L2050.79 231.349 L2061.34 231.349 Q2067.27 231.349 2070.19 233.825 Q2073.1 236.302 2073.1 241.302 Q2073.1 244.566 2071.58 246.719 Q2070.07 248.872 2067.18 249.705 M2055.46 235.191 L2055.46 247.46 L2061.34 247.46 Q2064.72 247.46 2066.44 245.909 Q2068.17 244.335 2068.17 241.302 Q2068.17 238.27 2066.44 236.742 Q2064.72 235.191 2061.34 235.191 L2055.46 235.191 Z" fill="#000000" fill-rule="nonzero" fill-opacity="1" /><path clip-path="url(#clip070)" d="M2104.45 232.483 L2104.45 237.043 Q2101.78 235.77 2099.42 235.145 Q2097.06 234.52 2094.86 234.52 Q2091.04 234.52 2088.96 236.001 Q2086.9 237.483 2086.9 240.214 Q2086.9 242.506 2088.27 243.687 Q2089.65 244.844 2093.5 245.562 L2096.32 246.14 Q2101.55 247.136 2104.03 249.659 Q2106.53 252.159 2106.53 256.372 Q2106.53 261.395 2103.15 263.987 Q2099.79 266.58 2093.29 266.58 Q2090.83 266.58 2088.06 266.024 Q2085.3 265.469 2082.34 264.381 L2082.34 259.566 Q2085.19 261.163 2087.92 261.973 Q2090.65 262.784 2093.29 262.784 Q2097.29 262.784 2099.47 261.21 Q2101.64 259.636 2101.64 256.719 Q2101.64 254.173 2100.07 252.737 Q2098.52 251.302 2094.96 250.585 L2092.11 250.029 Q2086.88 248.987 2084.54 246.765 Q2082.2 244.543 2082.2 240.585 Q2082.2 236.001 2085.42 233.362 Q2088.66 230.724 2094.33 230.724 Q2096.76 230.724 2099.28 231.163 Q2101.81 231.603 2104.45 232.483 Z" fill="#000000" fill-rule="nonzero" fill-opacity="1" /><path clip-path="url(#clip070)" d="M2134.54 232.483 L2134.54 237.043 Q2131.88 235.77 2129.52 235.145 Q2127.15 234.52 2124.96 234.52 Q2121.14 234.52 2119.05 236.001 Q2116.99 237.483 2116.99 240.214 Q2116.99 242.506 2118.36 243.687 Q2119.75 244.844 2123.59 245.562 L2126.41 246.14 Q2131.64 247.136 2134.12 249.659 Q2136.62 252.159 2136.62 256.372 Q2136.62 261.395 2133.24 263.987 Q2129.89 266.58 2123.38 266.58 Q2120.93 266.58 2118.15 266.024 Q2115.39 265.469 2112.43 264.381 L2112.43 259.566 Q2115.28 261.163 2118.01 261.973 Q2120.74 262.784 2123.38 262.784 Q2127.39 262.784 2129.56 261.21 Q2131.74 259.636 2131.74 256.719 Q2131.74 254.173 2130.16 252.737 Q2128.61 251.302 2125.05 250.585 L2122.2 250.029 Q2116.97 248.987 2114.63 246.765 Q2112.29 244.543 2112.29 240.585 Q2112.29 236.001 2115.51 233.362 Q2118.75 230.724 2124.42 230.724 Q2126.85 230.724 2129.38 231.163 Q2131.9 231.603 2134.54 232.483 Z" fill="#000000" fill-rule="nonzero" fill-opacity="1" /><path clip-path="url(#clip070)" d="M2173.82 243.964 Q2173.1 243.548 2172.25 243.362 Q2171.41 243.154 2170.39 243.154 Q2166.78 243.154 2164.84 245.515 Q2162.92 247.853 2162.92 252.251 L2162.92 265.909 L2158.64 265.909 L2158.64 239.983 L2162.92 239.983 L2162.92 244.011 Q2164.26 241.649 2166.41 240.515 Q2168.57 239.358 2171.64 239.358 Q2172.08 239.358 2172.62 239.427 Q2173.15 239.474 2173.8 239.589 L2173.82 243.964 Z" fill="#000000" fill-rule="nonzero" fill-opacity="1" /><path clip-path="url(#clip070)" d="M2178.29 239.983 L2182.55 239.983 L2182.55 265.909 L2178.29 265.909 L2178.29 239.983 M2178.29 229.89 L2182.55 229.89 L2182.55 235.284 L2178.29 235.284 L2178.29 229.89 Z" fill="#000000" fill-rule="nonzero" fill-opacity="1" /><path clip-path="url(#clip070)" d="M2208.52 252.645 Q2208.52 248.015 2206.6 245.469 Q2204.7 242.923 2201.25 242.923 Q2197.83 242.923 2195.9 245.469 Q2194.01 248.015 2194.01 252.645 Q2194.01 257.251 2195.9 259.798 Q2197.83 262.344 2201.25 262.344 Q2204.7 262.344 2206.6 259.798 Q2208.52 257.251 2208.52 252.645 M2212.78 262.691 Q2212.78 269.311 2209.84 272.529 Q2206.9 275.77 2200.83 275.77 Q2198.59 275.77 2196.6 275.422 Q2194.61 275.098 2192.73 274.404 L2192.73 270.26 Q2194.61 271.279 2196.44 271.765 Q2198.26 272.251 2200.16 272.251 Q2204.35 272.251 2206.44 270.052 Q2208.52 267.876 2208.52 263.455 L2208.52 261.348 Q2207.2 263.64 2205.14 264.774 Q2203.08 265.909 2200.21 265.909 Q2195.44 265.909 2192.52 262.274 Q2189.61 258.64 2189.61 252.645 Q2189.61 246.626 2192.52 242.992 Q2195.44 239.358 2200.21 239.358 Q2203.08 239.358 2205.14 240.492 Q2207.2 241.626 2208.52 243.918 L2208.52 239.983 L2212.78 239.983 L2212.78 262.691 Z" fill="#000000" fill-rule="nonzero" fill-opacity="1" /><path clip-path="url(#clip070)" d="M2243.1 250.261 L2243.1 265.909 L2238.84 265.909 L2238.84 250.399 Q2238.84 246.719 2237.41 244.89 Q2235.97 243.062 2233.1 243.062 Q2229.65 243.062 2227.66 245.261 Q2225.67 247.46 2225.67 251.256 L2225.67 265.909 L2221.39 265.909 L2221.39 229.89 L2225.67 229.89 L2225.67 244.011 Q2227.2 241.673 2229.26 240.515 Q2231.34 239.358 2234.05 239.358 Q2238.52 239.358 2240.81 242.136 Q2243.1 244.89 2243.1 250.261 Z" fill="#000000" fill-rule="nonzero" fill-opacity="1" /><path clip-path="url(#clip070)" d="M2255.81 232.622 L2255.81 239.983 L2264.58 239.983 L2264.58 243.293 L2255.81 243.293 L2255.81 257.367 Q2255.81 260.538 2256.67 261.441 Q2257.55 262.344 2260.21 262.344 L2264.58 262.344 L2264.58 265.909 L2260.21 265.909 Q2255.28 265.909 2253.4 264.08 Q2251.53 262.228 2251.53 257.367 L2251.53 243.293 L2248.4 243.293 L2248.4 239.983 L2251.53 239.983 L2251.53 232.622 L2255.81 232.622 Z" fill="#000000" fill-rule="nonzero" fill-opacity="1" /></svg>
