<?xml version="1.0" encoding="utf-8"?>
<svg xmlns="http://www.w3.org/2000/svg" xmlns:xlink="http://www.w3.org/1999/xlink" width="600" height="400" viewBox="0 0 2400 1600">
<defs>
  <clipPath id="clip620">
    <rect x="0" y="0" width="2400" height="1600"/>
  </clipPath>
</defs>
<path clip-path="url(#clip620)" d="M0 1600 L2400 1600 L2400 0 L0 0  Z" fill="#ffffff" fill-rule="evenodd" fill-opacity="1"/>
<defs>
  <clipPath id="clip621">
    <rect x="480" y="0" width="1681" height="1600"/>
  </clipPath>
</defs>
<path clip-path="url(#clip620)" d="M232.389 1423.18 L2352.76 1423.18 L2352.76 47.2441 L232.389 47.2441  Z" fill="#ffffff" fill-rule="evenodd" fill-opacity="1"/>
<defs>
  <clipPath id="clip622">
    <rect x="232" y="47" width="2121" height="1377"/>
  </clipPath>
</defs>
<polyline clip-path="url(#clip622)" style="stroke:#000000; stroke-linecap:round; stroke-linejoin:round; stroke-width:2; stroke-opacity:0.1; fill:none" points="292.4,1423.18 292.4,47.2441 "/>
<polyline clip-path="url(#clip622)" style="stroke:#000000; stroke-linecap:round; stroke-linejoin:round; stroke-width:2; stroke-opacity:0.1; fill:none" points="736.921,1423.18 736.921,47.2441 "/>
<polyline clip-path="url(#clip622)" style="stroke:#000000; stroke-linecap:round; stroke-linejoin:round; stroke-width:2; stroke-opacity:0.1; fill:none" points="1181.44,1423.18 1181.44,47.2441 "/>
<polyline clip-path="url(#clip622)" style="stroke:#000000; stroke-linecap:round; stroke-linejoin:round; stroke-width:2; stroke-opacity:0.1; fill:none" points="1625.96,1423.18 1625.96,47.2441 "/>
<polyline clip-path="url(#clip622)" style="stroke:#000000; stroke-linecap:round; stroke-linejoin:round; stroke-width:2; stroke-opacity:0.1; fill:none" points="2070.48,1423.18 2070.48,47.2441 "/>
<polyline clip-path="url(#clip622)" style="stroke:#000000; stroke-linecap:round; stroke-linejoin:round; stroke-width:2; stroke-opacity:0.1; fill:none" points="232.389,1384.24 2352.76,1384.24 "/>
<polyline clip-path="url(#clip622)" style="stroke:#000000; stroke-linecap:round; stroke-linejoin:round; stroke-width:2; stroke-opacity:0.1; fill:none" points="232.389,1059.73 2352.76,1059.73 "/>
<polyline clip-path="url(#clip622)" style="stroke:#000000; stroke-linecap:round; stroke-linejoin:round; stroke-width:2; stroke-opacity:0.1; fill:none" points="232.389,735.212 2352.76,735.212 "/>
<polyline clip-path="url(#clip622)" style="stroke:#000000; stroke-linecap:round; stroke-linejoin:round; stroke-width:2; stroke-opacity:0.1; fill:none" points="232.389,410.699 2352.76,410.699 "/>
<polyline clip-path="url(#clip622)" style="stroke:#000000; stroke-linecap:round; stroke-linejoin:round; stroke-width:2; stroke-opacity:0.1; fill:none" points="232.389,86.1857 2352.76,86.1857 "/>
<polyline clip-path="url(#clip620)" style="stroke:#000000; stroke-linecap:round; stroke-linejoin:round; stroke-width:4; stroke-opacity:1; fill:none" points="232.389,1423.18 2352.76,1423.18 "/>
<polyline clip-path="url(#clip620)" style="stroke:#000000; stroke-linecap:round; stroke-linejoin:round; stroke-width:4; stroke-opacity:1; fill:none" points="292.4,1423.18 292.4,1404.28 "/>
<polyline clip-path="url(#clip620)" style="stroke:#000000; stroke-linecap:round; stroke-linejoin:round; stroke-width:4; stroke-opacity:1; fill:none" points="736.921,1423.18 736.921,1404.28 "/>
<polyline clip-path="url(#clip620)" style="stroke:#000000; stroke-linecap:round; stroke-linejoin:round; stroke-width:4; stroke-opacity:1; fill:none" points="1181.44,1423.18 1181.44,1404.28 "/>
<polyline clip-path="url(#clip620)" style="stroke:#000000; stroke-linecap:round; stroke-linejoin:round; stroke-width:4; stroke-opacity:1; fill:none" points="1625.96,1423.18 1625.96,1404.28 "/>
<polyline clip-path="url(#clip620)" style="stroke:#000000; stroke-linecap:round; stroke-linejoin:round; stroke-width:4; stroke-opacity:1; fill:none" points="2070.48,1423.18 2070.48,1404.28 "/>
<path clip-path="url(#clip620)" d="M292.4 1454.1 Q288.789 1454.1 286.96 1457.66 Q285.154 1461.2 285.154 1468.33 Q285.154 1475.44 286.96 1479.01 Q288.789 1482.55 292.4 1482.55 Q296.034 1482.55 297.84 1479.01 Q299.668 1475.44 299.668 1468.33 Q299.668 1461.2 297.84 1457.66 Q296.034 1454.1 292.4 1454.1 M292.4 1450.39 Q298.21 1450.39 301.265 1455 Q304.344 1459.58 304.344 1468.33 Q304.344 1477.06 301.265 1481.67 Q298.21 1486.25 292.4 1486.25 Q286.59 1486.25 283.511 1481.67 Q280.455 1477.06 280.455 1468.33 Q280.455 1459.58 283.511 1455 Q286.59 1450.39 292.4 1450.39 Z" fill="#000000" fill-rule="nonzero" fill-opacity="1" /><path clip-path="url(#clip620)" d="M715.694 1481.64 L732.014 1481.64 L732.014 1485.58 L710.069 1485.58 L710.069 1481.64 Q712.731 1478.89 717.315 1474.26 Q721.921 1469.61 723.102 1468.27 Q725.347 1465.74 726.227 1464.01 Q727.129 1462.25 727.129 1460.56 Q727.129 1457.8 725.185 1456.07 Q723.264 1454.33 720.162 1454.33 Q717.963 1454.33 715.509 1455.09 Q713.079 1455.86 710.301 1457.41 L710.301 1452.69 Q713.125 1451.55 715.579 1450.97 Q718.032 1450.39 720.069 1450.39 Q725.44 1450.39 728.634 1453.08 Q731.828 1455.77 731.828 1460.26 Q731.828 1462.39 731.018 1464.31 Q730.231 1466.2 728.125 1468.8 Q727.546 1469.47 724.444 1472.69 Q721.342 1475.88 715.694 1481.64 Z" fill="#000000" fill-rule="nonzero" fill-opacity="1" /><path clip-path="url(#clip620)" d="M751.828 1454.1 Q748.217 1454.1 746.389 1457.66 Q744.583 1461.2 744.583 1468.33 Q744.583 1475.44 746.389 1479.01 Q748.217 1482.55 751.828 1482.55 Q755.463 1482.55 757.268 1479.01 Q759.097 1475.44 759.097 1468.33 Q759.097 1461.2 757.268 1457.66 Q755.463 1454.1 751.828 1454.1 M751.828 1450.39 Q757.638 1450.39 760.694 1455 Q763.773 1459.58 763.773 1468.33 Q763.773 1477.06 760.694 1481.67 Q757.638 1486.25 751.828 1486.25 Q746.018 1486.25 742.939 1481.67 Q739.884 1477.06 739.884 1468.33 Q739.884 1459.58 742.939 1455 Q746.018 1450.39 751.828 1450.39 Z" fill="#000000" fill-rule="nonzero" fill-opacity="1" /><path clip-path="url(#clip620)" d="M1169.61 1455.09 L1157.81 1473.54 L1169.61 1473.54 L1169.61 1455.09 M1168.39 1451.02 L1174.27 1451.02 L1174.27 1473.54 L1179.2 1473.54 L1179.2 1477.43 L1174.27 1477.43 L1174.27 1485.58 L1169.61 1485.58 L1169.61 1477.43 L1154.01 1477.43 L1154.01 1472.92 L1168.39 1451.02 Z" fill="#000000" fill-rule="nonzero" fill-opacity="1" /><path clip-path="url(#clip620)" d="M1196.93 1454.1 Q1193.32 1454.1 1191.49 1457.66 Q1189.68 1461.2 1189.68 1468.33 Q1189.68 1475.44 1191.49 1479.01 Q1193.32 1482.55 1196.93 1482.55 Q1200.56 1482.55 1202.37 1479.01 Q1204.2 1475.44 1204.2 1468.33 Q1204.2 1461.2 1202.37 1457.66 Q1200.56 1454.1 1196.93 1454.1 M1196.93 1450.39 Q1202.74 1450.39 1205.79 1455 Q1208.87 1459.58 1208.87 1468.33 Q1208.87 1477.06 1205.79 1481.67 Q1202.74 1486.25 1196.93 1486.25 Q1191.12 1486.25 1188.04 1481.67 Q1184.98 1477.06 1184.98 1468.33 Q1184.98 1459.58 1188.04 1455 Q1191.12 1450.39 1196.93 1450.39 Z" fill="#000000" fill-rule="nonzero" fill-opacity="1" /><path clip-path="url(#clip620)" d="M1611.37 1466.44 Q1608.22 1466.44 1606.37 1468.59 Q1604.54 1470.74 1604.54 1474.49 Q1604.54 1478.22 1606.37 1480.39 Q1608.22 1482.55 1611.37 1482.55 Q1614.52 1482.55 1616.35 1480.39 Q1618.2 1478.22 1618.2 1474.49 Q1618.2 1470.74 1616.35 1468.59 Q1614.52 1466.44 1611.37 1466.44 M1620.65 1451.78 L1620.65 1456.04 Q1618.89 1455.21 1617.09 1454.77 Q1615.3 1454.33 1613.54 1454.33 Q1608.92 1454.33 1606.46 1457.45 Q1604.03 1460.58 1603.68 1466.9 Q1605.05 1464.89 1607.11 1463.82 Q1609.17 1462.73 1611.65 1462.73 Q1616.85 1462.73 1619.86 1465.9 Q1622.9 1469.05 1622.9 1474.49 Q1622.9 1479.82 1619.75 1483.03 Q1616.6 1486.25 1611.37 1486.25 Q1605.37 1486.25 1602.2 1481.67 Q1599.03 1477.06 1599.03 1468.33 Q1599.03 1460.14 1602.92 1455.28 Q1606.81 1450.39 1613.36 1450.39 Q1615.12 1450.39 1616.9 1450.74 Q1618.71 1451.09 1620.65 1451.78 Z" fill="#000000" fill-rule="nonzero" fill-opacity="1" /><path clip-path="url(#clip620)" d="M1640.95 1454.1 Q1637.34 1454.1 1635.51 1457.66 Q1633.71 1461.2 1633.71 1468.33 Q1633.71 1475.44 1635.51 1479.01 Q1637.34 1482.55 1640.95 1482.55 Q1644.59 1482.55 1646.39 1479.01 Q1648.22 1475.44 1648.22 1468.33 Q1648.22 1461.2 1646.39 1457.66 Q1644.59 1454.1 1640.95 1454.1 M1640.95 1450.39 Q1646.76 1450.39 1649.82 1455 Q1652.9 1459.58 1652.9 1468.33 Q1652.9 1477.06 1649.82 1481.67 Q1646.76 1486.25 1640.95 1486.25 Q1635.14 1486.25 1632.06 1481.67 Q1629.01 1477.06 1629.01 1468.33 Q1629.01 1459.58 1632.06 1455 Q1635.14 1450.39 1640.95 1450.39 Z" fill="#000000" fill-rule="nonzero" fill-opacity="1" /><path clip-path="url(#clip620)" d="M2055.36 1469.17 Q2052.02 1469.17 2050.1 1470.95 Q2048.2 1472.73 2048.2 1475.86 Q2048.2 1478.98 2050.1 1480.77 Q2052.02 1482.55 2055.36 1482.55 Q2058.69 1482.55 2060.61 1480.77 Q2062.53 1478.96 2062.53 1475.86 Q2062.53 1472.73 2060.61 1470.95 Q2058.71 1469.17 2055.36 1469.17 M2050.68 1467.18 Q2047.67 1466.44 2045.98 1464.38 Q2044.32 1462.32 2044.32 1459.35 Q2044.32 1455.21 2047.26 1452.8 Q2050.22 1450.39 2055.36 1450.39 Q2060.52 1450.39 2063.46 1452.8 Q2066.4 1455.21 2066.4 1459.35 Q2066.4 1462.32 2064.71 1464.38 Q2063.04 1466.44 2060.06 1467.18 Q2063.44 1467.96 2065.31 1470.26 Q2067.21 1472.55 2067.21 1475.86 Q2067.21 1480.88 2064.13 1483.57 Q2061.08 1486.25 2055.36 1486.25 Q2049.64 1486.25 2046.56 1483.57 Q2043.51 1480.88 2043.51 1475.86 Q2043.51 1472.55 2045.4 1470.26 Q2047.3 1467.96 2050.68 1467.18 M2048.97 1459.79 Q2048.97 1462.48 2050.64 1463.98 Q2052.33 1465.49 2055.36 1465.49 Q2058.37 1465.49 2060.06 1463.98 Q2061.77 1462.48 2061.77 1459.79 Q2061.77 1457.11 2060.06 1455.6 Q2058.37 1454.1 2055.36 1454.1 Q2052.33 1454.1 2050.64 1455.6 Q2048.97 1457.11 2048.97 1459.79 Z" fill="#000000" fill-rule="nonzero" fill-opacity="1" /><path clip-path="url(#clip620)" d="M2085.52 1454.1 Q2081.91 1454.1 2080.08 1457.66 Q2078.27 1461.2 2078.27 1468.33 Q2078.27 1475.44 2080.08 1479.01 Q2081.91 1482.55 2085.52 1482.55 Q2089.15 1482.55 2090.96 1479.01 Q2092.79 1475.44 2092.79 1468.33 Q2092.79 1461.2 2090.96 1457.66 Q2089.15 1454.1 2085.52 1454.1 M2085.52 1450.39 Q2091.33 1450.39 2094.39 1455 Q2097.46 1459.58 2097.46 1468.33 Q2097.46 1477.06 2094.39 1481.67 Q2091.33 1486.25 2085.52 1486.25 Q2079.71 1486.25 2076.63 1481.67 Q2073.58 1477.06 2073.58 1468.33 Q2073.58 1459.58 2076.63 1455 Q2079.71 1450.39 2085.52 1450.39 Z" fill="#000000" fill-rule="nonzero" fill-opacity="1" /><path clip-path="url(#clip620)" d="M987.432 1520.52 L997.013 1520.52 L1009.14 1552.86 L1021.33 1520.52 L1030.91 1520.52 L1030.91 1568.04 L1024.64 1568.04 L1024.64 1526.32 L1012.39 1558.91 L1005.92 1558.91 L993.671 1526.32 L993.671 1568.04 L987.432 1568.04 L987.432 1520.52 Z" fill="#000000" fill-rule="nonzero" fill-opacity="1" /><path clip-path="url(#clip620)" d="M1059.62 1550.12 Q1052.52 1550.12 1049.78 1551.75 Q1047.05 1553.37 1047.05 1557.29 Q1047.05 1560.4 1049.08 1562.25 Q1051.15 1564.07 1054.69 1564.07 Q1059.56 1564.07 1062.48 1560.63 Q1065.44 1557.16 1065.44 1551.43 L1065.44 1550.12 L1059.62 1550.12 M1071.3 1547.71 L1071.3 1568.04 L1065.44 1568.04 L1065.44 1562.63 Q1063.44 1565.88 1060.45 1567.44 Q1057.46 1568.97 1053.13 1568.97 Q1047.65 1568.97 1044.41 1565.91 Q1041.19 1562.82 1041.19 1557.67 Q1041.19 1551.65 1045.2 1548.6 Q1049.24 1545.54 1057.23 1545.54 L1065.44 1545.54 L1065.44 1544.97 Q1065.44 1540.93 1062.77 1538.73 Q1060.13 1536.5 1055.32 1536.5 Q1052.27 1536.5 1049.37 1537.23 Q1046.47 1537.97 1043.8 1539.43 L1043.8 1534.02 Q1047.02 1532.78 1050.04 1532.17 Q1053.06 1531.54 1055.93 1531.54 Q1063.66 1531.54 1067.48 1535.55 Q1071.3 1539.56 1071.3 1547.71 Z" fill="#000000" fill-rule="nonzero" fill-opacity="1" /><path clip-path="url(#clip620)" d="M1106.09 1533.45 L1106.09 1538.98 Q1103.61 1537.71 1100.93 1537.07 Q1098.26 1536.44 1095.39 1536.44 Q1091.03 1536.44 1088.84 1537.77 Q1086.67 1539.11 1086.67 1541.79 Q1086.67 1543.82 1088.23 1545 Q1089.79 1546.15 1094.5 1547.2 L1096.51 1547.64 Q1102.75 1548.98 1105.36 1551.43 Q1108 1553.85 1108 1558.21 Q1108 1563.17 1104.05 1566.07 Q1100.14 1568.97 1093.26 1568.97 Q1090.4 1568.97 1087.28 1568.39 Q1084.19 1567.85 1080.75 1566.74 L1080.75 1560.69 Q1084 1562.38 1087.15 1563.24 Q1090.3 1564.07 1093.39 1564.07 Q1097.53 1564.07 1099.76 1562.66 Q1101.98 1561.23 1101.98 1558.65 Q1101.98 1556.27 1100.36 1554.99 Q1098.77 1553.72 1093.33 1552.54 L1091.29 1552.07 Q1085.85 1550.92 1083.43 1548.56 Q1081.01 1546.18 1081.01 1542.04 Q1081.01 1537.01 1084.57 1534.27 Q1088.14 1531.54 1094.69 1531.54 Q1097.94 1531.54 1100.81 1532.01 Q1103.67 1532.49 1106.09 1533.45 Z" fill="#000000" fill-rule="nonzero" fill-opacity="1" /><path clip-path="url(#clip620)" d="M1140.05 1533.45 L1140.05 1538.98 Q1137.57 1537.71 1134.89 1537.07 Q1132.22 1536.44 1129.36 1536.44 Q1125 1536.44 1122.8 1537.77 Q1120.63 1539.11 1120.63 1541.79 Q1120.63 1543.82 1122.19 1545 Q1123.75 1546.15 1128.46 1547.2 L1130.47 1547.64 Q1136.71 1548.98 1139.32 1551.43 Q1141.96 1553.85 1141.96 1558.21 Q1141.96 1563.17 1138.01 1566.07 Q1134.1 1568.97 1127.22 1568.97 Q1124.36 1568.97 1121.24 1568.39 Q1118.15 1567.85 1114.71 1566.74 L1114.71 1560.69 Q1117.96 1562.38 1121.11 1563.24 Q1124.26 1564.07 1127.35 1564.07 Q1131.49 1564.07 1133.72 1562.66 Q1135.94 1561.23 1135.94 1558.65 Q1135.94 1556.27 1134.32 1554.99 Q1132.73 1553.72 1127.29 1552.54 L1125.25 1552.07 Q1119.81 1550.92 1117.39 1548.56 Q1114.97 1546.18 1114.97 1542.04 Q1114.97 1537.01 1118.53 1534.27 Q1122.1 1531.54 1128.66 1531.54 Q1131.9 1531.54 1134.77 1532.01 Q1137.63 1532.49 1140.05 1533.45 Z" fill="#000000" fill-rule="nonzero" fill-opacity="1" /><path clip-path="url(#clip620)" d="M1197.66 1533.76 L1197.66 1539.24 Q1195.18 1537.87 1192.66 1537.2 Q1190.18 1536.5 1187.63 1536.5 Q1181.94 1536.5 1178.79 1540.13 Q1175.63 1543.73 1175.63 1550.25 Q1175.63 1556.78 1178.79 1560.4 Q1181.94 1564 1187.63 1564 Q1190.18 1564 1192.66 1563.33 Q1195.18 1562.63 1197.66 1561.26 L1197.66 1566.68 Q1195.21 1567.82 1192.57 1568.39 Q1189.96 1568.97 1187 1568.97 Q1178.94 1568.97 1174.2 1563.91 Q1169.46 1558.85 1169.46 1550.25 Q1169.46 1541.53 1174.23 1536.53 Q1179.04 1531.54 1187.38 1531.54 Q1190.08 1531.54 1192.66 1532.11 Q1195.24 1532.65 1197.66 1533.76 Z" fill="#000000" fill-rule="nonzero" fill-opacity="1" /><path clip-path="url(#clip620)" d="M1224.05 1550.12 Q1216.95 1550.12 1214.21 1551.75 Q1211.47 1553.37 1211.47 1557.29 Q1211.47 1560.4 1213.51 1562.25 Q1215.58 1564.07 1219.11 1564.07 Q1223.98 1564.07 1226.91 1560.63 Q1229.87 1557.16 1229.87 1551.43 L1229.87 1550.12 L1224.05 1550.12 M1235.73 1547.71 L1235.73 1568.04 L1229.87 1568.04 L1229.87 1562.63 Q1227.87 1565.88 1224.87 1567.44 Q1221.88 1568.97 1217.55 1568.97 Q1212.08 1568.97 1208.83 1565.91 Q1205.62 1562.82 1205.62 1557.67 Q1205.62 1551.65 1209.63 1548.6 Q1213.67 1545.54 1221.66 1545.54 L1229.87 1545.54 L1229.87 1544.97 Q1229.87 1540.93 1227.2 1538.73 Q1224.56 1536.5 1219.75 1536.5 Q1216.69 1536.5 1213.8 1537.23 Q1210.9 1537.97 1208.23 1539.43 L1208.23 1534.02 Q1211.44 1532.78 1214.47 1532.17 Q1217.49 1531.54 1220.35 1531.54 Q1228.09 1531.54 1231.91 1535.55 Q1235.73 1539.56 1235.73 1547.71 Z" fill="#000000" fill-rule="nonzero" fill-opacity="1" /><path clip-path="url(#clip620)" d="M1247.79 1518.52 L1253.65 1518.52 L1253.65 1568.04 L1247.79 1568.04 L1247.79 1518.52 Z" fill="#000000" fill-rule="nonzero" fill-opacity="1" /><path clip-path="url(#clip620)" d="M1265.9 1532.4 L1271.76 1532.4 L1271.76 1568.04 L1265.9 1568.04 L1265.9 1532.4 M1265.9 1518.52 L1271.76 1518.52 L1271.76 1525.93 L1265.9 1525.93 L1265.9 1518.52 Z" fill="#000000" fill-rule="nonzero" fill-opacity="1" /><path clip-path="url(#clip620)" d="M1309.6 1550.25 Q1309.6 1543.79 1306.93 1540.13 Q1304.29 1536.44 1299.64 1536.44 Q1294.99 1536.44 1292.32 1540.13 Q1289.68 1543.79 1289.68 1550.25 Q1289.68 1556.71 1292.32 1560.4 Q1294.99 1564.07 1299.64 1564.07 Q1304.29 1564.07 1306.93 1560.4 Q1309.6 1556.71 1309.6 1550.25 M1289.68 1537.81 Q1291.52 1534.62 1294.32 1533.1 Q1297.16 1531.54 1301.07 1531.54 Q1307.56 1531.54 1311.61 1536.69 Q1315.68 1541.85 1315.68 1550.25 Q1315.68 1558.65 1311.61 1563.81 Q1307.56 1568.97 1301.07 1568.97 Q1297.16 1568.97 1294.32 1567.44 Q1291.52 1565.88 1289.68 1562.7 L1289.68 1568.04 L1283.79 1568.04 L1283.79 1518.52 L1289.68 1518.52 L1289.68 1537.81 Z" fill="#000000" fill-rule="nonzero" fill-opacity="1" /><path clip-path="url(#clip620)" d="M1346.04 1537.87 Q1345.06 1537.3 1343.88 1537.04 Q1342.73 1536.76 1341.33 1536.76 Q1336.37 1536.76 1333.7 1540 Q1331.05 1543.22 1331.05 1549.27 L1331.05 1568.04 L1325.17 1568.04 L1325.17 1532.4 L1331.05 1532.4 L1331.05 1537.93 Q1332.9 1534.69 1335.86 1533.13 Q1338.82 1531.54 1343.05 1531.54 Q1343.66 1531.54 1344.39 1531.63 Q1345.12 1531.7 1346.01 1531.85 L1346.04 1537.87 Z" fill="#000000" fill-rule="nonzero" fill-opacity="1" /><path clip-path="url(#clip620)" d="M1368.39 1550.12 Q1361.29 1550.12 1358.55 1551.75 Q1355.82 1553.37 1355.82 1557.29 Q1355.82 1560.4 1357.85 1562.25 Q1359.92 1564.07 1363.45 1564.07 Q1368.32 1564.07 1371.25 1560.63 Q1374.21 1557.16 1374.21 1551.43 L1374.21 1550.12 L1368.39 1550.12 M1380.07 1547.71 L1380.07 1568.04 L1374.21 1568.04 L1374.21 1562.63 Q1372.21 1565.88 1369.22 1567.44 Q1366.22 1568.97 1361.9 1568.97 Q1356.42 1568.97 1353.17 1565.91 Q1349.96 1562.82 1349.96 1557.67 Q1349.96 1551.65 1353.97 1548.6 Q1358.01 1545.54 1366 1545.54 L1374.21 1545.54 L1374.21 1544.97 Q1374.21 1540.93 1371.54 1538.73 Q1368.9 1536.5 1364.09 1536.5 Q1361.04 1536.5 1358.14 1537.23 Q1355.24 1537.97 1352.57 1539.43 L1352.57 1534.02 Q1355.78 1532.78 1358.81 1532.17 Q1361.83 1531.54 1364.7 1531.54 Q1372.43 1531.54 1376.25 1535.55 Q1380.07 1539.56 1380.07 1547.71 Z" fill="#000000" fill-rule="nonzero" fill-opacity="1" /><path clip-path="url(#clip620)" d="M1421.76 1546.53 L1421.76 1568.04 L1415.91 1568.04 L1415.91 1546.72 Q1415.91 1541.66 1413.93 1539.14 Q1411.96 1536.63 1408.01 1536.63 Q1403.27 1536.63 1400.54 1539.65 Q1397.8 1542.68 1397.8 1547.9 L1397.8 1568.04 L1391.91 1568.04 L1391.91 1532.4 L1397.8 1532.4 L1397.8 1537.93 Q1399.9 1534.72 1402.73 1533.13 Q1405.6 1531.54 1409.32 1531.54 Q1415.46 1531.54 1418.61 1535.36 Q1421.76 1539.14 1421.76 1546.53 Z" fill="#000000" fill-rule="nonzero" fill-opacity="1" /><path clip-path="url(#clip620)" d="M1439.24 1522.27 L1439.24 1532.4 L1451.3 1532.4 L1451.3 1536.95 L1439.24 1536.95 L1439.24 1556.3 Q1439.24 1560.66 1440.42 1561.9 Q1441.63 1563.14 1445.29 1563.14 L1451.3 1563.14 L1451.3 1568.04 L1445.29 1568.04 Q1438.51 1568.04 1435.93 1565.53 Q1433.35 1562.98 1433.35 1556.3 L1433.35 1536.95 L1429.05 1536.95 L1429.05 1532.4 L1433.35 1532.4 L1433.35 1522.27 L1439.24 1522.27 Z" fill="#000000" fill-rule="nonzero" fill-opacity="1" /><path clip-path="url(#clip620)" d="M1493.79 1518.58 Q1489.53 1525.9 1487.46 1533.06 Q1485.39 1540.23 1485.39 1547.58 Q1485.39 1554.93 1487.46 1562.16 Q1489.56 1569.35 1493.79 1576.64 L1488.7 1576.64 Q1483.93 1569.16 1481.54 1561.93 Q1479.18 1554.71 1479.18 1547.58 Q1479.18 1540.48 1481.54 1533.29 Q1483.89 1526.09 1488.7 1518.58 L1493.79 1518.58 Z" fill="#000000" fill-rule="nonzero" fill-opacity="1" /><path clip-path="url(#clip620)" d="M1505.41 1520.52 L1532.72 1520.52 L1532.72 1525.93 L1511.84 1525.93 L1511.84 1539.94 L1530.68 1539.94 L1530.68 1545.35 L1511.84 1545.35 L1511.84 1568.04 L1505.41 1568.04 L1505.41 1520.52 Z" fill="#000000" fill-rule="nonzero" fill-opacity="1" /><path clip-path="url(#clip620)" d="M1566.11 1549.81 Q1566.11 1543.44 1563.47 1539.94 Q1560.86 1536.44 1556.11 1536.44 Q1551.4 1536.44 1548.76 1539.94 Q1546.15 1543.44 1546.15 1549.81 Q1546.15 1556.14 1548.76 1559.64 Q1551.4 1563.14 1556.11 1563.14 Q1560.86 1563.14 1563.47 1559.64 Q1566.11 1556.14 1566.11 1549.81 M1571.96 1563.62 Q1571.96 1572.72 1567.92 1577.15 Q1563.88 1581.6 1555.54 1581.6 Q1552.45 1581.6 1549.72 1581.13 Q1546.98 1580.68 1544.4 1579.72 L1544.4 1574.03 Q1546.98 1575.43 1549.49 1576.1 Q1552.01 1576.76 1554.62 1576.76 Q1560.38 1576.76 1563.24 1573.74 Q1566.11 1570.75 1566.11 1564.67 L1566.11 1561.77 Q1564.29 1564.92 1561.46 1566.48 Q1558.63 1568.04 1554.68 1568.04 Q1548.12 1568.04 1544.11 1563.05 Q1540.1 1558.05 1540.1 1549.81 Q1540.1 1541.53 1544.11 1536.53 Q1548.12 1531.54 1554.68 1531.54 Q1558.63 1531.54 1561.46 1533.1 Q1564.29 1534.66 1566.11 1537.81 L1566.11 1532.4 L1571.96 1532.4 L1571.96 1563.62 Z" fill="#000000" fill-rule="nonzero" fill-opacity="1" /><path clip-path="url(#clip620)" d="M1583.1 1518.58 L1588.2 1518.58 Q1592.97 1526.09 1595.33 1533.29 Q1597.71 1540.48 1597.71 1547.58 Q1597.71 1554.71 1595.33 1561.93 Q1592.97 1569.16 1588.2 1576.64 L1583.1 1576.64 Q1587.34 1569.35 1589.41 1562.16 Q1591.51 1554.93 1591.51 1547.58 Q1591.51 1540.23 1589.41 1533.06 Q1587.34 1525.9 1583.1 1518.58 Z" fill="#000000" fill-rule="nonzero" fill-opacity="1" /><polyline clip-path="url(#clip620)" style="stroke:#000000; stroke-linecap:round; stroke-linejoin:round; stroke-width:4; stroke-opacity:1; fill:none" points="232.389,1423.18 232.389,47.2441 "/>
<polyline clip-path="url(#clip620)" style="stroke:#000000; stroke-linecap:round; stroke-linejoin:round; stroke-width:4; stroke-opacity:1; fill:none" points="232.389,1384.24 251.287,1384.24 "/>
<polyline clip-path="url(#clip620)" style="stroke:#000000; stroke-linecap:round; stroke-linejoin:round; stroke-width:4; stroke-opacity:1; fill:none" points="232.389,1059.73 251.287,1059.73 "/>
<polyline clip-path="url(#clip620)" style="stroke:#000000; stroke-linecap:round; stroke-linejoin:round; stroke-width:4; stroke-opacity:1; fill:none" points="232.389,735.212 251.287,735.212 "/>
<polyline clip-path="url(#clip620)" style="stroke:#000000; stroke-linecap:round; stroke-linejoin:round; stroke-width:4; stroke-opacity:1; fill:none" points="232.389,410.699 251.287,410.699 "/>
<polyline clip-path="url(#clip620)" style="stroke:#000000; stroke-linecap:round; stroke-linejoin:round; stroke-width:4; stroke-opacity:1; fill:none" points="232.389,86.1857 251.287,86.1857 "/>
<path clip-path="url(#clip620)" d="M184.445 1370.04 Q180.834 1370.04 179.005 1373.6 Q177.2 1377.14 177.2 1384.27 Q177.2 1391.38 179.005 1394.94 Q180.834 1398.49 184.445 1398.49 Q188.079 1398.49 189.885 1394.94 Q191.713 1391.38 191.713 1384.27 Q191.713 1377.14 189.885 1373.6 Q188.079 1370.04 184.445 1370.04 M184.445 1366.33 Q190.255 1366.33 193.311 1370.94 Q196.389 1375.52 196.389 1384.27 Q196.389 1393 193.311 1397.61 Q190.255 1402.19 184.445 1402.19 Q178.635 1402.19 175.556 1397.61 Q172.501 1393 172.501 1384.27 Q172.501 1375.52 175.556 1370.94 Q178.635 1366.33 184.445 1366.33 Z" fill="#000000" fill-rule="nonzero" fill-opacity="1" /><path clip-path="url(#clip620)" d="M149.306 1073.07 L165.626 1073.07 L165.626 1077.01 L143.681 1077.01 L143.681 1073.07 Q146.343 1070.32 150.927 1065.69 Q155.533 1061.03 156.714 1059.69 Q158.959 1057.17 159.839 1055.43 Q160.741 1053.67 160.741 1051.98 Q160.741 1049.23 158.797 1047.49 Q156.876 1045.76 153.774 1045.76 Q151.575 1045.76 149.121 1046.52 Q146.691 1047.28 143.913 1048.83 L143.913 1044.11 Q146.737 1042.98 149.191 1042.4 Q151.644 1041.82 153.681 1041.82 Q159.052 1041.82 162.246 1044.51 Q165.44 1047.19 165.44 1051.68 Q165.44 1053.81 164.63 1055.73 Q163.843 1057.63 161.737 1060.22 Q161.158 1060.89 158.056 1064.11 Q154.954 1067.31 149.306 1073.07 Z" fill="#000000" fill-rule="nonzero" fill-opacity="1" /><path clip-path="url(#clip620)" d="M175.487 1042.45 L193.843 1042.45 L193.843 1046.38 L179.769 1046.38 L179.769 1054.85 Q180.788 1054.51 181.806 1054.34 Q182.825 1054.16 183.843 1054.16 Q189.63 1054.16 193.01 1057.33 Q196.389 1060.5 196.389 1065.92 Q196.389 1071.5 192.917 1074.6 Q189.445 1077.68 183.126 1077.68 Q180.95 1077.68 178.681 1077.31 Q176.436 1076.94 174.028 1076.19 L174.028 1071.5 Q176.112 1072.63 178.334 1073.19 Q180.556 1073.74 183.033 1073.74 Q187.038 1073.74 189.375 1071.63 Q191.713 1069.53 191.713 1065.92 Q191.713 1062.31 189.375 1060.2 Q187.038 1058.09 183.033 1058.09 Q181.158 1058.09 179.283 1058.51 Q177.431 1058.93 175.487 1059.81 L175.487 1042.45 Z" fill="#000000" fill-rule="nonzero" fill-opacity="1" /><path clip-path="url(#clip620)" d="M144.329 717.932 L162.686 717.932 L162.686 721.867 L148.612 721.867 L148.612 730.339 Q149.63 729.992 150.649 729.83 Q151.667 729.645 152.686 729.645 Q158.473 729.645 161.852 732.816 Q165.232 735.987 165.232 741.404 Q165.232 746.983 161.76 750.085 Q158.288 753.163 151.968 753.163 Q149.792 753.163 147.524 752.793 Q145.279 752.423 142.871 751.682 L142.871 746.983 Q144.954 748.117 147.177 748.673 Q149.399 749.228 151.876 749.228 Q155.88 749.228 158.218 747.122 Q160.556 745.015 160.556 741.404 Q160.556 737.793 158.218 735.687 Q155.88 733.58 151.876 733.58 Q150.001 733.58 148.126 733.997 Q146.274 734.413 144.329 735.293 L144.329 717.932 Z" fill="#000000" fill-rule="nonzero" fill-opacity="1" /><path clip-path="url(#clip620)" d="M184.445 721.011 Q180.834 721.011 179.005 724.575 Q177.2 728.117 177.2 735.247 Q177.2 742.353 179.005 745.918 Q180.834 749.46 184.445 749.46 Q188.079 749.46 189.885 745.918 Q191.713 742.353 191.713 735.247 Q191.713 728.117 189.885 724.575 Q188.079 721.011 184.445 721.011 M184.445 717.307 Q190.255 717.307 193.311 721.913 Q196.389 726.497 196.389 735.247 Q196.389 743.973 193.311 748.58 Q190.255 753.163 184.445 753.163 Q178.635 753.163 175.556 748.58 Q172.501 743.973 172.501 735.247 Q172.501 726.497 175.556 721.913 Q178.635 717.307 184.445 717.307 Z" fill="#000000" fill-rule="nonzero" fill-opacity="1" /><path clip-path="url(#clip620)" d="M144.098 393.419 L166.32 393.419 L166.32 395.41 L153.774 427.979 L148.89 427.979 L160.695 397.354 L144.098 397.354 L144.098 393.419 Z" fill="#000000" fill-rule="nonzero" fill-opacity="1" /><path clip-path="url(#clip620)" d="M175.487 393.419 L193.843 393.419 L193.843 397.354 L179.769 397.354 L179.769 405.826 Q180.788 405.479 181.806 405.317 Q182.825 405.132 183.843 405.132 Q189.63 405.132 193.01 408.303 Q196.389 411.474 196.389 416.891 Q196.389 422.47 192.917 425.571 Q189.445 428.65 183.126 428.65 Q180.95 428.65 178.681 428.28 Q176.436 427.909 174.028 427.169 L174.028 422.47 Q176.112 423.604 178.334 424.159 Q180.556 424.715 183.033 424.715 Q187.038 424.715 189.375 422.608 Q191.713 420.502 191.713 416.891 Q191.713 413.28 189.375 411.173 Q187.038 409.067 183.033 409.067 Q181.158 409.067 179.283 409.484 Q177.431 409.9 175.487 410.78 L175.487 393.419 Z" fill="#000000" fill-rule="nonzero" fill-opacity="1" /><path clip-path="url(#clip620)" d="M114.931 99.5305 L122.57 99.5305 L122.57 73.1649 L114.26 74.8316 L114.26 70.5723 L122.524 68.9057 L127.2 68.9057 L127.2 99.5305 L134.839 99.5305 L134.839 103.466 L114.931 103.466 L114.931 99.5305 Z" fill="#000000" fill-rule="nonzero" fill-opacity="1" /><path clip-path="url(#clip620)" d="M154.283 71.9844 Q150.672 71.9844 148.843 75.5492 Q147.038 79.0908 147.038 86.2204 Q147.038 93.3268 148.843 96.8916 Q150.672 100.433 154.283 100.433 Q157.917 100.433 159.723 96.8916 Q161.552 93.3268 161.552 86.2204 Q161.552 79.0908 159.723 75.5492 Q157.917 71.9844 154.283 71.9844 M154.283 68.2807 Q160.093 68.2807 163.149 72.8871 Q166.227 77.4704 166.227 86.2204 Q166.227 94.9472 163.149 99.5537 Q160.093 104.137 154.283 104.137 Q148.473 104.137 145.394 99.5537 Q142.339 94.9472 142.339 86.2204 Q142.339 77.4704 145.394 72.8871 Q148.473 68.2807 154.283 68.2807 Z" fill="#000000" fill-rule="nonzero" fill-opacity="1" /><path clip-path="url(#clip620)" d="M184.445 71.9844 Q180.834 71.9844 179.005 75.5492 Q177.2 79.0908 177.2 86.2204 Q177.2 93.3268 179.005 96.8916 Q180.834 100.433 184.445 100.433 Q188.079 100.433 189.885 96.8916 Q191.713 93.3268 191.713 86.2204 Q191.713 79.0908 189.885 75.5492 Q188.079 71.9844 184.445 71.9844 M184.445 68.2807 Q190.255 68.2807 193.311 72.8871 Q196.389 77.4704 196.389 86.2204 Q196.389 94.9472 193.311 99.5537 Q190.255 104.137 184.445 104.137 Q178.635 104.137 175.556 99.5537 Q172.501 94.9472 172.501 86.2204 Q172.501 77.4704 175.556 72.8871 Q178.635 68.2807 184.445 68.2807 Z" fill="#000000" fill-rule="nonzero" fill-opacity="1" /><path clip-path="url(#clip620)" d="M41.7242 1056.54 Q42.4244 1054.47 44.7161 1052.53 Q47.0077 1050.55 51.0181 1048.58 L64.0042 1042.05 L64.0042 1048.96 L51.8138 1055.04 Q47.0395 1057.4 45.48 1059.62 Q43.9204 1061.82 43.9204 1065.64 L43.9204 1072.64 L64.0042 1072.64 L64.0042 1079.07 L16.4842 1079.07 L16.4842 1064.56 Q16.4842 1056.41 19.8898 1052.4 Q23.2955 1048.39 30.1704 1048.39 Q34.6582 1048.39 37.6183 1050.49 Q40.5784 1052.56 41.7242 1056.54 M21.7677 1072.64 L38.6368 1072.64 L38.6368 1064.56 Q38.6368 1059.91 36.5043 1057.56 Q34.34 1055.17 30.1704 1055.17 Q26.0009 1055.17 23.9002 1057.56 Q21.7677 1059.91 21.7677 1064.56 L21.7677 1072.64 Z" fill="#000000" fill-rule="nonzero" fill-opacity="1" /><path clip-path="url(#clip620)" d="M44.7161 1006.47 L47.5806 1006.47 L47.5806 1033.4 Q53.6281 1033.02 56.8109 1029.77 Q59.9619 1026.49 59.9619 1020.67 Q59.9619 1017.29 59.1344 1014.14 Q58.3069 1010.96 56.6518 1007.84 L62.1899 1007.84 Q63.5267 1010.99 64.227 1014.3 Q64.9272 1017.61 64.9272 1021.02 Q64.9272 1029.55 59.9619 1034.54 Q54.9967 1039.51 46.5303 1039.51 Q37.7774 1039.51 32.6531 1034.8 Q27.4968 1030.06 27.4968 1022.03 Q27.4968 1014.84 32.1438 1010.67 Q36.7589 1006.47 44.7161 1006.47 M42.9973 1012.33 Q38.1912 1012.39 35.3266 1015.03 Q32.4621 1017.64 32.4621 1021.97 Q32.4621 1026.87 35.2312 1029.83 Q38.0002 1032.76 43.0292 1033.21 L42.9973 1012.33 Z" fill="#000000" fill-rule="nonzero" fill-opacity="1" /><path clip-path="url(#clip620)" d="M14.479 996.858 L14.479 991.002 L64.0042 991.002 L64.0042 996.858 L14.479 996.858 Z" fill="#000000" fill-rule="nonzero" fill-opacity="1" /><path clip-path="url(#clip620)" d="M46.0847 962.547 Q46.0847 969.645 47.7079 972.382 Q49.3312 975.12 53.2461 975.12 Q56.3653 975.12 58.2114 973.083 Q60.0256 971.014 60.0256 967.481 Q60.0256 962.611 56.5881 959.683 Q53.1188 956.723 47.3897 956.723 L46.0847 956.723 L46.0847 962.547 M43.6657 950.866 L64.0042 950.866 L64.0042 956.723 L58.5933 956.723 Q61.8398 958.728 63.3994 961.72 Q64.9272 964.712 64.9272 969.04 Q64.9272 974.515 61.8716 977.761 Q58.7843 980.976 53.6281 980.976 Q47.6125 980.976 44.5569 976.966 Q41.5014 972.923 41.5014 964.934 L41.5014 956.723 L40.9285 956.723 Q36.8862 956.723 34.6901 959.396 Q32.4621 962.038 32.4621 966.844 Q32.4621 969.9 33.1941 972.796 Q33.9262 975.692 35.3903 978.366 L29.9795 978.366 Q28.7381 975.151 28.1334 972.128 Q27.4968 969.104 27.4968 966.239 Q27.4968 958.505 31.5072 954.686 Q35.5176 950.866 43.6657 950.866 Z" fill="#000000" fill-rule="nonzero" fill-opacity="1" /><path clip-path="url(#clip620)" d="M18.2347 933.01 L28.3562 933.01 L28.3562 920.947 L32.9077 920.947 L32.9077 933.01 L52.2594 933.01 Q56.6199 933.01 57.8613 931.833 Q59.1026 930.623 59.1026 926.963 L59.1026 920.947 L64.0042 920.947 L64.0042 926.963 Q64.0042 933.742 61.4897 936.321 Q58.9434 938.899 52.2594 938.899 L32.9077 938.899 L32.9077 943.196 L28.3562 943.196 L28.3562 938.899 L18.2347 938.899 L18.2347 933.01 Z" fill="#000000" fill-rule="nonzero" fill-opacity="1" /><path clip-path="url(#clip620)" d="M28.3562 913.245 L28.3562 907.388 L64.0042 907.388 L64.0042 913.245 L28.3562 913.245 M14.479 913.245 L14.479 907.388 L21.895 907.388 L21.895 913.245 L14.479 913.245 Z" fill="#000000" fill-rule="nonzero" fill-opacity="1" /><path clip-path="url(#clip620)" d="M28.3562 899.336 L28.3562 893.129 L58.275 881.989 L28.3562 870.849 L28.3562 864.643 L64.0042 878.011 L64.0042 885.968 L28.3562 899.336 Z" fill="#000000" fill-rule="nonzero" fill-opacity="1" /><path clip-path="url(#clip620)" d="M44.7161 826.067 L47.5806 826.067 L47.5806 852.993 Q53.6281 852.612 56.8109 849.365 Q59.9619 846.087 59.9619 840.262 Q59.9619 836.888 59.1344 833.737 Q58.3069 830.554 56.6518 827.435 L62.1899 827.435 Q63.5267 830.586 64.227 833.896 Q64.9272 837.207 64.9272 840.612 Q64.9272 849.142 59.9619 854.139 Q54.9967 859.105 46.5303 859.105 Q37.7774 859.105 32.6531 854.394 Q27.4968 849.651 27.4968 841.631 Q27.4968 834.437 32.1438 830.268 Q36.7589 826.067 44.7161 826.067 M42.9973 831.923 Q38.1912 831.987 35.3266 834.628 Q32.4621 837.238 32.4621 841.567 Q32.4621 846.469 35.2312 849.429 Q38.0002 852.357 43.0292 852.802 L42.9973 831.923 Z" fill="#000000" fill-rule="nonzero" fill-opacity="1" /><path clip-path="url(#clip620)" d="M28.3562 795.734 L28.3562 789.877 L64.0042 789.877 L64.0042 795.734 L28.3562 795.734 M14.479 795.734 L14.479 789.877 L21.895 789.877 L21.895 795.734 L14.479 795.734 Z" fill="#000000" fill-rule="nonzero" fill-opacity="1" /><path clip-path="url(#clip620)" d="M42.4881 747.991 L64.0042 747.991 L64.0042 753.848 L42.679 753.848 Q37.6183 753.848 35.1038 755.821 Q32.5894 757.794 32.5894 761.741 Q32.5894 766.484 35.6131 769.221 Q38.6368 771.958 43.8567 771.958 L64.0042 771.958 L64.0042 777.846 L28.3562 777.846 L28.3562 771.958 L33.8944 771.958 Q30.6797 769.857 29.0883 767.025 Q27.4968 764.16 27.4968 760.436 Q27.4968 754.293 31.3163 751.142 Q35.1038 747.991 42.4881 747.991 Z" fill="#000000" fill-rule="nonzero" fill-opacity="1" /><path clip-path="url(#clip620)" d="M18.2347 730.517 L28.3562 730.517 L28.3562 718.454 L32.9077 718.454 L32.9077 730.517 L52.2594 730.517 Q56.6199 730.517 57.8613 729.34 Q59.1026 728.13 59.1026 724.47 L59.1026 718.454 L64.0042 718.454 L64.0042 724.47 Q64.0042 731.249 61.4897 733.827 Q58.9434 736.406 52.2594 736.406 L32.9077 736.406 L32.9077 740.702 L28.3562 740.702 L28.3562 736.406 L18.2347 736.406 L18.2347 730.517 Z" fill="#000000" fill-rule="nonzero" fill-opacity="1" /><path clip-path="url(#clip620)" d="M44.7161 680.26 L47.5806 680.26 L47.5806 707.187 Q53.6281 706.805 56.8109 703.558 Q59.9619 700.28 59.9619 694.456 Q59.9619 691.082 59.1344 687.931 Q58.3069 684.748 56.6518 681.629 L62.1899 681.629 Q63.5267 684.78 64.227 688.09 Q64.9272 691.4 64.9272 694.806 Q64.9272 703.336 59.9619 708.333 Q54.9967 713.298 46.5303 713.298 Q37.7774 713.298 32.6531 708.587 Q27.4968 703.845 27.4968 695.824 Q27.4968 688.631 32.1438 684.461 Q36.7589 680.26 44.7161 680.26 M42.9973 686.116 Q38.1912 686.18 35.3266 688.822 Q32.4621 691.432 32.4621 695.761 Q32.4621 700.662 35.2312 703.622 Q38.0002 706.55 43.0292 706.996 L42.9973 686.116 Z" fill="#000000" fill-rule="nonzero" fill-opacity="1" /><path clip-path="url(#clip620)" d="M42.4881 641.015 L64.0042 641.015 L64.0042 646.872 L42.679 646.872 Q37.6183 646.872 35.1038 648.845 Q32.5894 650.819 32.5894 654.765 Q32.5894 659.508 35.6131 662.245 Q38.6368 664.982 43.8567 664.982 L64.0042 664.982 L64.0042 670.871 L28.3562 670.871 L28.3562 664.982 L33.8944 664.982 Q30.6797 662.882 29.0883 660.049 Q27.4968 657.184 27.4968 653.46 Q27.4968 647.317 31.3163 644.166 Q35.1038 641.015 42.4881 641.015 Z" fill="#000000" fill-rule="nonzero" fill-opacity="1" /><path clip-path="url(#clip620)" d="M29.4065 606.609 L34.9447 606.609 Q33.6716 609.091 33.035 611.765 Q32.3984 614.439 32.3984 617.303 Q32.3984 621.664 33.7352 623.86 Q35.072 626.024 37.7456 626.024 Q39.7826 626.024 40.9603 624.465 Q42.1061 622.905 43.1565 618.194 L43.6021 616.189 Q44.9389 609.951 47.3897 607.341 Q49.8086 604.699 54.1691 604.699 Q59.1344 604.699 62.0308 608.646 Q64.9272 612.561 64.9272 619.436 Q64.9272 622.3 64.3543 625.419 Q63.8132 628.507 62.6992 631.944 L56.6518 631.944 Q58.3387 628.698 59.198 625.547 Q60.0256 622.396 60.0256 619.308 Q60.0256 615.171 58.6251 612.943 Q57.1929 610.715 54.6147 610.715 Q52.2276 610.715 50.9545 612.338 Q49.6813 613.929 48.5037 619.372 L48.0262 621.409 Q46.8804 626.852 44.5251 629.271 Q42.138 631.69 38.0002 631.69 Q32.9713 631.69 30.2341 628.125 Q27.4968 624.56 27.4968 618.003 Q27.4968 614.757 27.9743 611.892 Q28.4517 609.028 29.4065 606.609 Z" fill="#000000" fill-rule="nonzero" fill-opacity="1" /><path clip-path="url(#clip620)" d="M28.3562 595.373 L28.3562 589.517 L64.0042 589.517 L64.0042 595.373 L28.3562 595.373 M14.479 595.373 L14.479 589.517 L21.895 589.517 L21.895 595.373 L14.479 595.373 Z" fill="#000000" fill-rule="nonzero" fill-opacity="1" /><path clip-path="url(#clip620)" d="M18.2347 571.47 L28.3562 571.47 L28.3562 559.407 L32.9077 559.407 L32.9077 571.47 L52.2594 571.47 Q56.6199 571.47 57.8613 570.292 Q59.1026 569.083 59.1026 565.423 L59.1026 559.407 L64.0042 559.407 L64.0042 565.423 Q64.0042 572.202 61.4897 574.78 Q58.9434 577.358 52.2594 577.358 L32.9077 577.358 L32.9077 581.655 L28.3562 581.655 L28.3562 577.358 L18.2347 577.358 L18.2347 571.47 Z" fill="#000000" fill-rule="nonzero" fill-opacity="1" /><path clip-path="url(#clip620)" d="M67.3143 536.872 Q73.68 539.355 75.6216 541.71 Q77.5631 544.066 77.5631 548.012 L77.5631 552.691 L72.6615 552.691 L72.6615 549.254 Q72.6615 546.835 71.5157 545.498 Q70.3699 544.161 66.1048 542.538 L63.4312 541.488 L28.3562 555.906 L28.3562 549.699 L56.238 538.559 L28.3562 527.419 L28.3562 521.213 L67.3143 536.872 Z" fill="#000000" fill-rule="nonzero" fill-opacity="1" /><path clip-path="url(#clip620)" d="M14.5426 478.34 Q21.8632 482.605 29.0246 484.674 Q36.186 486.743 43.5384 486.743 Q50.8908 486.743 58.1159 484.674 Q65.3091 482.573 72.5979 478.34 L72.5979 483.432 Q65.1182 488.207 57.8931 490.594 Q50.668 492.949 43.5384 492.949 Q36.4406 492.949 29.2474 490.594 Q22.0542 488.238 14.5426 483.432 L14.5426 478.34 Z" fill="#000000" fill-rule="nonzero" fill-opacity="1" /><path clip-path="url(#clip620)" d="M43.0928 425.727 Q43.0928 428.496 45.4481 430.088 Q47.8034 431.647 52.0048 431.647 Q56.1425 431.647 58.5296 430.088 Q60.885 428.496 60.885 425.727 Q60.885 423.022 58.5296 421.462 Q56.1425 419.871 52.0048 419.871 Q47.8353 419.871 45.48 421.462 Q43.0928 423.022 43.0928 425.727 M39.0506 425.727 Q39.0506 420.698 42.5517 417.738 Q46.0529 414.778 52.0048 414.778 Q57.9567 414.778 61.4579 417.77 Q64.9272 420.73 64.9272 425.727 Q64.9272 430.82 61.4579 433.78 Q57.9567 436.74 52.0048 436.74 Q46.021 436.74 42.5517 433.78 Q39.0506 430.788 39.0506 425.727 M19.667 458.574 Q19.667 461.312 22.0542 462.903 Q24.4095 464.463 28.5472 464.463 Q32.7485 464.463 35.1038 462.903 Q37.4592 461.343 37.4592 458.574 Q37.4592 455.805 35.1038 454.246 Q32.7485 452.654 28.5472 452.654 Q24.4413 452.654 22.0542 454.246 Q19.667 455.837 19.667 458.574 M15.6248 429.833 L15.6248 424.741 L64.9272 454.468 L64.9272 459.561 L15.6248 429.833 M15.6248 458.574 Q15.6248 453.545 19.1259 450.553 Q22.5952 447.562 28.5472 447.562 Q34.5628 447.562 38.0321 450.553 Q41.5014 453.514 41.5014 458.574 Q41.5014 463.635 38.0321 466.595 Q34.5309 469.523 28.5472 469.523 Q22.6271 469.523 19.1259 466.563 Q15.6248 463.603 15.6248 458.574 Z" fill="#000000" fill-rule="nonzero" fill-opacity="1" /><path clip-path="url(#clip620)" d="M14.5426 405.962 L14.5426 400.869 Q22.0542 396.095 29.2474 393.74 Q36.4406 391.352 43.5384 391.352 Q50.668 391.352 57.8931 393.74 Q65.1182 396.095 72.5979 400.869 L72.5979 405.962 Q65.3091 401.729 58.1159 399.66 Q50.8908 397.559 43.5384 397.559 Q36.186 397.559 29.0246 399.66 Q21.8632 401.729 14.5426 405.962 Z" fill="#000000" fill-rule="nonzero" fill-opacity="1" /><circle clip-path="url(#clip622)" cx="336.852" cy="1306.36" r="14.4" fill="#009af9" fill-rule="evenodd" fill-opacity="1" stroke="#000000" stroke-opacity="1" stroke-width="3.2"/>
<circle clip-path="url(#clip622)" cx="374.501" cy="1306.36" r="14.4" fill="#009af9" fill-rule="evenodd" fill-opacity="1" stroke="#000000" stroke-opacity="1" stroke-width="3.2"/>
<circle clip-path="url(#clip622)" cx="412.149" cy="1358.28" r="14.4" fill="#009af9" fill-rule="evenodd" fill-opacity="1" stroke="#000000" stroke-opacity="1" stroke-width="3.2"/>
<circle clip-path="url(#clip622)" cx="449.796" cy="1306.36" r="14.4" fill="#009af9" fill-rule="evenodd" fill-opacity="1" stroke="#000000" stroke-opacity="1" stroke-width="3.2"/>
<circle clip-path="url(#clip622)" cx="487.445" cy="1319.34" r="14.4" fill="#009af9" fill-rule="evenodd" fill-opacity="1" stroke="#000000" stroke-opacity="1" stroke-width="3.2"/>
<circle clip-path="url(#clip622)" cx="525.093" cy="1358.28" r="14.4" fill="#009af9" fill-rule="evenodd" fill-opacity="1" stroke="#000000" stroke-opacity="1" stroke-width="3.2"/>
<circle clip-path="url(#clip622)" cx="562.742" cy="1345.3" r="14.4" fill="#009af9" fill-rule="evenodd" fill-opacity="1" stroke="#000000" stroke-opacity="1" stroke-width="3.2"/>
<circle clip-path="url(#clip622)" cx="600.389" cy="1332.32" r="14.4" fill="#009af9" fill-rule="evenodd" fill-opacity="1" stroke="#000000" stroke-opacity="1" stroke-width="3.2"/>
<circle clip-path="url(#clip622)" cx="638.037" cy="1306.36" r="14.4" fill="#009af9" fill-rule="evenodd" fill-opacity="1" stroke="#000000" stroke-opacity="1" stroke-width="3.2"/>
<circle clip-path="url(#clip622)" cx="675.686" cy="1306.36" r="14.4" fill="#009af9" fill-rule="evenodd" fill-opacity="1" stroke="#000000" stroke-opacity="1" stroke-width="3.2"/>
<circle clip-path="url(#clip622)" cx="713.335" cy="722.231" r="14.4" fill="#009af9" fill-rule="evenodd" fill-opacity="1" stroke="#000000" stroke-opacity="1" stroke-width="3.2"/>
<circle clip-path="url(#clip622)" cx="750.983" cy="605.407" r="14.4" fill="#009af9" fill-rule="evenodd" fill-opacity="1" stroke="#000000" stroke-opacity="1" stroke-width="3.2"/>
<circle clip-path="url(#clip622)" cx="788.63" cy="605.407" r="14.4" fill="#009af9" fill-rule="evenodd" fill-opacity="1" stroke="#000000" stroke-opacity="1" stroke-width="3.2"/>
<circle clip-path="url(#clip622)" cx="826.279" cy="670.309" r="14.4" fill="#009af9" fill-rule="evenodd" fill-opacity="1" stroke="#000000" stroke-opacity="1" stroke-width="3.2"/>
<circle clip-path="url(#clip622)" cx="863.927" cy="631.368" r="14.4" fill="#009af9" fill-rule="evenodd" fill-opacity="1" stroke="#000000" stroke-opacity="1" stroke-width="3.2"/>
<circle clip-path="url(#clip622)" cx="901.576" cy="722.231" r="14.4" fill="#009af9" fill-rule="evenodd" fill-opacity="1" stroke="#000000" stroke-opacity="1" stroke-width="3.2"/>
<circle clip-path="url(#clip622)" cx="939.223" cy="683.29" r="14.4" fill="#009af9" fill-rule="evenodd" fill-opacity="1" stroke="#000000" stroke-opacity="1" stroke-width="3.2"/>
<circle clip-path="url(#clip622)" cx="976.871" cy="605.407" r="14.4" fill="#009af9" fill-rule="evenodd" fill-opacity="1" stroke="#000000" stroke-opacity="1" stroke-width="3.2"/>
<circle clip-path="url(#clip622)" cx="1014.52" cy="631.368" r="14.4" fill="#009af9" fill-rule="evenodd" fill-opacity="1" stroke="#000000" stroke-opacity="1" stroke-width="3.2"/>
<circle clip-path="url(#clip622)" cx="1052.17" cy="605.407" r="14.4" fill="#009af9" fill-rule="evenodd" fill-opacity="1" stroke="#000000" stroke-opacity="1" stroke-width="3.2"/>
<circle clip-path="url(#clip622)" cx="1089.82" cy="125.127" r="14.4" fill="#009af9" fill-rule="evenodd" fill-opacity="1" stroke="#000000" stroke-opacity="1" stroke-width="3.2"/>
<circle clip-path="url(#clip622)" cx="1127.46" cy="215.991" r="14.4" fill="#009af9" fill-rule="evenodd" fill-opacity="1" stroke="#000000" stroke-opacity="1" stroke-width="3.2"/>
<circle clip-path="url(#clip622)" cx="1165.11" cy="99.1662" r="14.4" fill="#009af9" fill-rule="evenodd" fill-opacity="1" stroke="#000000" stroke-opacity="1" stroke-width="3.2"/>
<circle clip-path="url(#clip622)" cx="1202.76" cy="86.1857" r="14.4" fill="#009af9" fill-rule="evenodd" fill-opacity="1" stroke="#000000" stroke-opacity="1" stroke-width="3.2"/>
<circle clip-path="url(#clip622)" cx="1240.41" cy="125.127" r="14.4" fill="#009af9" fill-rule="evenodd" fill-opacity="1" stroke="#000000" stroke-opacity="1" stroke-width="3.2"/>
<circle clip-path="url(#clip622)" cx="1278.06" cy="112.147" r="14.4" fill="#009af9" fill-rule="evenodd" fill-opacity="1" stroke="#000000" stroke-opacity="1" stroke-width="3.2"/>
<circle clip-path="url(#clip622)" cx="1315.71" cy="112.147" r="14.4" fill="#009af9" fill-rule="evenodd" fill-opacity="1" stroke="#000000" stroke-opacity="1" stroke-width="3.2"/>
<circle clip-path="url(#clip622)" cx="1353.35" cy="164.069" r="14.4" fill="#009af9" fill-rule="evenodd" fill-opacity="1" stroke="#000000" stroke-opacity="1" stroke-width="3.2"/>
<circle clip-path="url(#clip622)" cx="1391" cy="125.127" r="14.4" fill="#009af9" fill-rule="evenodd" fill-opacity="1" stroke="#000000" stroke-opacity="1" stroke-width="3.2"/>
<circle clip-path="url(#clip622)" cx="1428.65" cy="203.01" r="14.4" fill="#009af9" fill-rule="evenodd" fill-opacity="1" stroke="#000000" stroke-opacity="1" stroke-width="3.2"/>
<circle clip-path="url(#clip622)" cx="1466.3" cy="449.64" r="14.4" fill="#009af9" fill-rule="evenodd" fill-opacity="1" stroke="#000000" stroke-opacity="1" stroke-width="3.2"/>
<circle clip-path="url(#clip622)" cx="1503.95" cy="540.504" r="14.4" fill="#009af9" fill-rule="evenodd" fill-opacity="1" stroke="#000000" stroke-opacity="1" stroke-width="3.2"/>
<circle clip-path="url(#clip622)" cx="1541.6" cy="501.563" r="14.4" fill="#009af9" fill-rule="evenodd" fill-opacity="1" stroke="#000000" stroke-opacity="1" stroke-width="3.2"/>
<circle clip-path="url(#clip622)" cx="1579.24" cy="540.504" r="14.4" fill="#009af9" fill-rule="evenodd" fill-opacity="1" stroke="#000000" stroke-opacity="1" stroke-width="3.2"/>
<circle clip-path="url(#clip622)" cx="1616.89" cy="527.524" r="14.4" fill="#009af9" fill-rule="evenodd" fill-opacity="1" stroke="#000000" stroke-opacity="1" stroke-width="3.2"/>
<circle clip-path="url(#clip622)" cx="1654.54" cy="423.679" r="14.4" fill="#009af9" fill-rule="evenodd" fill-opacity="1" stroke="#000000" stroke-opacity="1" stroke-width="3.2"/>
<circle clip-path="url(#clip622)" cx="1692.19" cy="449.64" r="14.4" fill="#009af9" fill-rule="evenodd" fill-opacity="1" stroke="#000000" stroke-opacity="1" stroke-width="3.2"/>
<circle clip-path="url(#clip622)" cx="1729.84" cy="501.563" r="14.4" fill="#009af9" fill-rule="evenodd" fill-opacity="1" stroke="#000000" stroke-opacity="1" stroke-width="3.2"/>
<circle clip-path="url(#clip622)" cx="1767.48" cy="410.699" r="14.4" fill="#009af9" fill-rule="evenodd" fill-opacity="1" stroke="#000000" stroke-opacity="1" stroke-width="3.2"/>
<circle clip-path="url(#clip622)" cx="1805.13" cy="540.504" r="14.4" fill="#009af9" fill-rule="evenodd" fill-opacity="1" stroke="#000000" stroke-opacity="1" stroke-width="3.2"/>
<circle clip-path="url(#clip622)" cx="1842.78" cy="709.251" r="14.4" fill="#009af9" fill-rule="evenodd" fill-opacity="1" stroke="#000000" stroke-opacity="1" stroke-width="3.2"/>
<circle clip-path="url(#clip622)" cx="1880.43" cy="709.251" r="14.4" fill="#009af9" fill-rule="evenodd" fill-opacity="1" stroke="#000000" stroke-opacity="1" stroke-width="3.2"/>
<circle clip-path="url(#clip622)" cx="1918.08" cy="683.29" r="14.4" fill="#009af9" fill-rule="evenodd" fill-opacity="1" stroke="#000000" stroke-opacity="1" stroke-width="3.2"/>
<circle clip-path="url(#clip622)" cx="1955.73" cy="683.29" r="14.4" fill="#009af9" fill-rule="evenodd" fill-opacity="1" stroke="#000000" stroke-opacity="1" stroke-width="3.2"/>
<circle clip-path="url(#clip622)" cx="1993.37" cy="722.231" r="14.4" fill="#009af9" fill-rule="evenodd" fill-opacity="1" stroke="#000000" stroke-opacity="1" stroke-width="3.2"/>
<circle clip-path="url(#clip622)" cx="2031.02" cy="709.251" r="14.4" fill="#009af9" fill-rule="evenodd" fill-opacity="1" stroke="#000000" stroke-opacity="1" stroke-width="3.2"/>
<circle clip-path="url(#clip622)" cx="2068.67" cy="709.251" r="14.4" fill="#009af9" fill-rule="evenodd" fill-opacity="1" stroke="#000000" stroke-opacity="1" stroke-width="3.2"/>
<circle clip-path="url(#clip622)" cx="2106.32" cy="696.27" r="14.4" fill="#009af9" fill-rule="evenodd" fill-opacity="1" stroke="#000000" stroke-opacity="1" stroke-width="3.2"/>
<circle clip-path="url(#clip622)" cx="2143.97" cy="683.29" r="14.4" fill="#009af9" fill-rule="evenodd" fill-opacity="1" stroke="#000000" stroke-opacity="1" stroke-width="3.2"/>
<circle clip-path="url(#clip622)" cx="2181.62" cy="683.29" r="14.4" fill="#009af9" fill-rule="evenodd" fill-opacity="1" stroke="#000000" stroke-opacity="1" stroke-width="3.2"/>
<polyline clip-path="url(#clip622)" style="stroke:#e26f46; stroke-linecap:round; stroke-linejoin:round; stroke-width:4; stroke-opacity:1; fill:none" points="292.4,1384.24 2292.75,86.1857 "/>
<path clip-path="url(#clip620)" d="M303.068 248.629 L816.029 248.629 L816.029 93.1086 L303.068 93.1086  Z" fill="#ffffff" fill-rule="evenodd" fill-opacity="1"/>
<polyline clip-path="url(#clip620)" style="stroke:#000000; stroke-linecap:round; stroke-linejoin:round; stroke-width:4; stroke-opacity:1; fill:none" points="303.068,248.629 816.029,248.629 816.029,93.1086 303.068,93.1086 303.068,248.629 "/>
<circle clip-path="url(#clip620)" cx="397.307" cy="144.949" r="20.48" fill="#009af9" fill-rule="evenodd" fill-opacity="1" stroke="#000000" stroke-opacity="1" stroke-width="4.55111"/>
<path clip-path="url(#clip620)" d="M510.457 140.238 L510.457 126.21 L514.716 126.21 L514.716 162.229 L510.457 162.229 L510.457 158.34 Q509.115 160.655 507.054 161.789 Q505.017 162.9 502.147 162.9 Q497.448 162.9 494.485 159.15 Q491.545 155.4 491.545 149.289 Q491.545 143.178 494.485 139.428 Q497.448 135.678 502.147 135.678 Q505.017 135.678 507.054 136.812 Q509.115 137.923 510.457 140.238 M495.943 149.289 Q495.943 153.988 497.865 156.673 Q499.809 159.335 503.189 159.335 Q506.568 159.335 508.513 156.673 Q510.457 153.988 510.457 149.289 Q510.457 144.59 508.513 141.928 Q506.568 139.243 503.189 139.243 Q499.809 139.243 497.865 141.928 Q495.943 144.59 495.943 149.289 Z" fill="#000000" fill-rule="nonzero" fill-opacity="1" /><path clip-path="url(#clip620)" d="M535.272 149.196 Q530.11 149.196 528.119 150.377 Q526.128 151.557 526.128 154.405 Q526.128 156.673 527.61 158.016 Q529.115 159.335 531.684 159.335 Q535.226 159.335 537.355 156.835 Q539.508 154.312 539.508 150.145 L539.508 149.196 L535.272 149.196 M543.767 147.437 L543.767 162.229 L539.508 162.229 L539.508 158.293 Q538.05 160.655 535.874 161.789 Q533.698 162.9 530.55 162.9 Q526.568 162.9 524.207 160.678 Q521.869 158.432 521.869 154.682 Q521.869 150.307 524.786 148.085 Q527.726 145.863 533.536 145.863 L539.508 145.863 L539.508 145.446 Q539.508 142.507 537.564 140.909 Q535.642 139.289 532.147 139.289 Q529.925 139.289 527.818 139.821 Q525.712 140.354 523.767 141.419 L523.767 137.483 Q526.105 136.581 528.304 136.141 Q530.503 135.678 532.587 135.678 Q538.212 135.678 540.989 138.594 Q543.767 141.511 543.767 147.437 Z" fill="#000000" fill-rule="nonzero" fill-opacity="1" /><path clip-path="url(#clip620)" d="M556.753 128.942 L556.753 136.303 L565.526 136.303 L565.526 139.613 L556.753 139.613 L556.753 153.687 Q556.753 156.858 557.61 157.761 Q558.489 158.664 561.151 158.664 L565.526 158.664 L565.526 162.229 L561.151 162.229 Q556.221 162.229 554.346 160.4 Q552.471 158.548 552.471 153.687 L552.471 139.613 L549.346 139.613 L549.346 136.303 L552.471 136.303 L552.471 128.942 L556.753 128.942 Z" fill="#000000" fill-rule="nonzero" fill-opacity="1" /><path clip-path="url(#clip620)" d="M582.911 149.196 Q577.749 149.196 575.758 150.377 Q573.767 151.557 573.767 154.405 Q573.767 156.673 575.249 158.016 Q576.753 159.335 579.323 159.335 Q582.864 159.335 584.994 156.835 Q587.147 154.312 587.147 150.145 L587.147 149.196 L582.911 149.196 M591.406 147.437 L591.406 162.229 L587.147 162.229 L587.147 158.293 Q585.688 160.655 583.512 161.789 Q581.336 162.9 578.188 162.9 Q574.207 162.9 571.846 160.678 Q569.508 158.432 569.508 154.682 Q569.508 150.307 572.424 148.085 Q575.364 145.863 581.174 145.863 L587.147 145.863 L587.147 145.446 Q587.147 142.507 585.202 140.909 Q583.281 139.289 579.786 139.289 Q577.563 139.289 575.457 139.821 Q573.35 140.354 571.406 141.419 L571.406 137.483 Q573.744 136.581 575.943 136.141 Q578.142 135.678 580.225 135.678 Q585.85 135.678 588.628 138.594 Q591.406 141.511 591.406 147.437 Z" fill="#000000" fill-rule="nonzero" fill-opacity="1" /><polyline clip-path="url(#clip620)" style="stroke:#e26f46; stroke-linecap:round; stroke-linejoin:round; stroke-width:4; stroke-opacity:1; fill:none" points="326.628,196.789 467.986,196.789 "/>
<path clip-path="url(#clip620)" d="M491.545 179.509 L496.221 179.509 L496.221 210.133 L513.05 210.133 L513.05 214.069 L491.545 214.069 L491.545 179.509 Z" fill="#000000" fill-rule="nonzero" fill-opacity="1" /><path clip-path="url(#clip620)" d="M517.772 188.143 L522.031 188.143 L522.031 214.069 L517.772 214.069 L517.772 188.143 M517.772 178.05 L522.031 178.05 L522.031 183.444 L517.772 183.444 L517.772 178.05 Z" fill="#000000" fill-rule="nonzero" fill-opacity="1" /><path clip-path="url(#clip620)" d="M552.494 198.421 L552.494 214.069 L548.235 214.069 L548.235 198.559 Q548.235 194.879 546.8 193.05 Q545.364 191.222 542.494 191.222 Q539.045 191.222 537.054 193.421 Q535.064 195.62 535.064 199.416 L535.064 214.069 L530.781 214.069 L530.781 188.143 L535.064 188.143 L535.064 192.171 Q536.591 189.833 538.651 188.675 Q540.735 187.518 543.443 187.518 Q547.911 187.518 550.202 190.296 Q552.494 193.05 552.494 198.421 Z" fill="#000000" fill-rule="nonzero" fill-opacity="1" /><path clip-path="url(#clip620)" d="M583.165 200.041 L583.165 202.124 L563.582 202.124 Q563.86 206.522 566.221 208.837 Q568.605 211.129 572.841 211.129 Q575.295 211.129 577.586 210.527 Q579.901 209.925 582.17 208.721 L582.17 212.749 Q579.878 213.721 577.471 214.231 Q575.063 214.74 572.586 214.74 Q566.383 214.74 562.749 211.129 Q559.137 207.518 559.137 201.36 Q559.137 194.995 562.563 191.268 Q566.012 187.518 571.846 187.518 Q577.077 187.518 580.11 190.897 Q583.165 194.254 583.165 200.041 M578.906 198.791 Q578.86 195.296 576.938 193.212 Q575.04 191.129 571.892 191.129 Q568.327 191.129 566.174 193.143 Q564.045 195.157 563.721 198.814 L578.906 198.791 Z" fill="#000000" fill-rule="nonzero" fill-opacity="1" /><path clip-path="url(#clip620)" d="M601.938 201.036 Q596.776 201.036 594.785 202.217 Q592.795 203.397 592.795 206.245 Q592.795 208.513 594.276 209.856 Q595.781 211.175 598.35 211.175 Q601.892 211.175 604.022 208.675 Q606.174 206.152 606.174 201.985 L606.174 201.036 L601.938 201.036 M610.434 199.277 L610.434 214.069 L606.174 214.069 L606.174 210.133 Q604.716 212.495 602.54 213.629 Q600.364 214.74 597.216 214.74 Q593.235 214.74 590.873 212.518 Q588.535 210.272 588.535 206.522 Q588.535 202.147 591.452 199.925 Q594.392 197.703 600.202 197.703 L606.174 197.703 L606.174 197.286 Q606.174 194.347 604.23 192.749 Q602.309 191.129 598.813 191.129 Q596.591 191.129 594.485 191.661 Q592.378 192.194 590.434 193.259 L590.434 189.323 Q592.772 188.421 594.971 187.981 Q597.17 187.518 599.253 187.518 Q604.878 187.518 607.656 190.434 Q610.434 193.351 610.434 199.277 Z" fill="#000000" fill-rule="nonzero" fill-opacity="1" /><path clip-path="url(#clip620)" d="M634.23 192.124 Q633.512 191.708 632.656 191.522 Q631.822 191.314 630.804 191.314 Q627.193 191.314 625.248 193.675 Q623.327 196.013 623.327 200.411 L623.327 214.069 L619.045 214.069 L619.045 188.143 L623.327 188.143 L623.327 192.171 Q624.67 189.809 626.822 188.675 Q628.975 187.518 632.054 187.518 Q632.494 187.518 633.026 187.587 Q633.558 187.634 634.207 187.749 L634.23 192.124 Z" fill="#000000" fill-rule="nonzero" fill-opacity="1" /><path clip-path="url(#clip620)" d="M673.952 193.12 Q675.549 190.249 677.771 188.884 Q679.993 187.518 683.003 187.518 Q687.053 187.518 689.253 190.365 Q691.452 193.189 691.452 198.421 L691.452 214.069 L687.169 214.069 L687.169 198.559 Q687.169 194.833 685.85 193.027 Q684.53 191.222 681.822 191.222 Q678.512 191.222 676.591 193.421 Q674.669 195.62 674.669 199.416 L674.669 214.069 L670.387 214.069 L670.387 198.559 Q670.387 194.809 669.067 193.027 Q667.748 191.222 664.993 191.222 Q661.73 191.222 659.808 193.444 Q657.887 195.643 657.887 199.416 L657.887 214.069 L653.605 214.069 L653.605 188.143 L657.887 188.143 L657.887 192.171 Q659.345 189.786 661.382 188.652 Q663.419 187.518 666.22 187.518 Q669.044 187.518 671.012 188.953 Q673.003 190.388 673.952 193.12 Z" fill="#000000" fill-rule="nonzero" fill-opacity="1" /><path clip-path="url(#clip620)" d="M709.993 191.129 Q706.567 191.129 704.577 193.814 Q702.586 196.476 702.586 201.129 Q702.586 205.782 704.553 208.467 Q706.544 211.129 709.993 211.129 Q713.396 211.129 715.387 208.444 Q717.377 205.758 717.377 201.129 Q717.377 196.522 715.387 193.837 Q713.396 191.129 709.993 191.129 M709.993 187.518 Q715.549 187.518 718.72 191.129 Q721.891 194.74 721.891 201.129 Q721.891 207.495 718.72 211.129 Q715.549 214.74 709.993 214.74 Q704.414 214.74 701.243 211.129 Q698.095 207.495 698.095 201.129 Q698.095 194.74 701.243 191.129 Q704.414 187.518 709.993 187.518 Z" fill="#000000" fill-rule="nonzero" fill-opacity="1" /><path clip-path="url(#clip620)" d="M746.011 192.078 L746.011 178.05 L750.271 178.05 L750.271 214.069 L746.011 214.069 L746.011 210.18 Q744.669 212.495 742.609 213.629 Q740.572 214.74 737.701 214.74 Q733.002 214.74 730.039 210.99 Q727.1 207.24 727.1 201.129 Q727.1 195.018 730.039 191.268 Q733.002 187.518 737.701 187.518 Q740.572 187.518 742.609 188.652 Q744.669 189.763 746.011 192.078 M731.498 201.129 Q731.498 205.828 733.419 208.513 Q735.363 211.175 738.743 211.175 Q742.123 211.175 744.067 208.513 Q746.011 205.828 746.011 201.129 Q746.011 196.43 744.067 193.768 Q742.123 191.083 738.743 191.083 Q735.363 191.083 733.419 193.768 Q731.498 196.43 731.498 201.129 Z" fill="#000000" fill-rule="nonzero" fill-opacity="1" /><path clip-path="url(#clip620)" d="M781.22 200.041 L781.22 202.124 L761.636 202.124 Q761.914 206.522 764.275 208.837 Q766.66 211.129 770.896 211.129 Q773.349 211.129 775.641 210.527 Q777.956 209.925 780.224 208.721 L780.224 212.749 Q777.933 213.721 775.525 214.231 Q773.118 214.74 770.641 214.74 Q764.437 214.74 760.803 211.129 Q757.192 207.518 757.192 201.36 Q757.192 194.995 760.618 191.268 Q764.067 187.518 769.9 187.518 Q775.132 187.518 778.164 190.897 Q781.22 194.254 781.22 200.041 M776.96 198.791 Q776.914 195.296 774.993 193.212 Q773.095 191.129 769.947 191.129 Q766.382 191.129 764.229 193.143 Q762.099 195.157 761.775 198.814 L776.96 198.791 Z" fill="#000000" fill-rule="nonzero" fill-opacity="1" /><path clip-path="url(#clip620)" d="M788.21 178.05 L792.47 178.05 L792.47 214.069 L788.21 214.069 L788.21 178.05 Z" fill="#000000" fill-rule="nonzero" fill-opacity="1" /></svg>
