<?xml version="1.0" encoding="utf-8"?>
<svg xmlns="http://www.w3.org/2000/svg" xmlns:xlink="http://www.w3.org/1999/xlink" width="600" height="400" viewBox="0 0 2400 1600">
<defs>
  <clipPath id="clip900">
    <rect x="0" y="0" width="2400" height="1600"/>
  </clipPath>
</defs>
<path clip-path="url(#clip900)" d="M0 1600 L2400 1600 L2400 0 L0 0  Z" fill="#ffffff" fill-rule="evenodd" fill-opacity="1"/>
<defs>
  <clipPath id="clip901">
    <rect x="480" y="0" width="1681" height="1600"/>
  </clipPath>
</defs>
<path clip-path="url(#clip900)" d="M203.964 1423.18 L2352.76 1423.18 L2352.76 47.2441 L203.964 47.2441  Z" fill="#ffffff" fill-rule="evenodd" fill-opacity="1"/>
<defs>
  <clipPath id="clip902">
    <rect x="203" y="47" width="2150" height="1377"/>
  </clipPath>
</defs>
<polyline clip-path="url(#clip902)" style="stroke:#000000; stroke-linecap:round; stroke-linejoin:round; stroke-width:2; stroke-opacity:0.1; fill:none" points="490.019,1423.18 490.019,47.2441 "/>
<polyline clip-path="url(#clip902)" style="stroke:#000000; stroke-linecap:round; stroke-linejoin:round; stroke-width:2; stroke-opacity:0.1; fill:none" points="940.499,1423.18 940.499,47.2441 "/>
<polyline clip-path="url(#clip902)" style="stroke:#000000; stroke-linecap:round; stroke-linejoin:round; stroke-width:2; stroke-opacity:0.1; fill:none" points="1390.98,1423.18 1390.98,47.2441 "/>
<polyline clip-path="url(#clip902)" style="stroke:#000000; stroke-linecap:round; stroke-linejoin:round; stroke-width:2; stroke-opacity:0.1; fill:none" points="1841.46,1423.18 1841.46,47.2441 "/>
<polyline clip-path="url(#clip902)" style="stroke:#000000; stroke-linecap:round; stroke-linejoin:round; stroke-width:2; stroke-opacity:0.1; fill:none" points="2291.94,1423.18 2291.94,47.2441 "/>
<polyline clip-path="url(#clip902)" style="stroke:#000000; stroke-linecap:round; stroke-linejoin:round; stroke-width:2; stroke-opacity:0.1; fill:none" points="203.964,1207.03 2352.76,1207.03 "/>
<polyline clip-path="url(#clip902)" style="stroke:#000000; stroke-linecap:round; stroke-linejoin:round; stroke-width:2; stroke-opacity:0.1; fill:none" points="203.964,856.688 2352.76,856.688 "/>
<polyline clip-path="url(#clip902)" style="stroke:#000000; stroke-linecap:round; stroke-linejoin:round; stroke-width:2; stroke-opacity:0.1; fill:none" points="203.964,506.345 2352.76,506.345 "/>
<polyline clip-path="url(#clip902)" style="stroke:#000000; stroke-linecap:round; stroke-linejoin:round; stroke-width:2; stroke-opacity:0.1; fill:none" points="203.964,156.003 2352.76,156.003 "/>
<polyline clip-path="url(#clip900)" style="stroke:#000000; stroke-linecap:round; stroke-linejoin:round; stroke-width:4; stroke-opacity:1; fill:none" points="203.964,1423.18 2352.76,1423.18 "/>
<polyline clip-path="url(#clip900)" style="stroke:#000000; stroke-linecap:round; stroke-linejoin:round; stroke-width:4; stroke-opacity:1; fill:none" points="490.019,1423.18 490.019,1404.28 "/>
<polyline clip-path="url(#clip900)" style="stroke:#000000; stroke-linecap:round; stroke-linejoin:round; stroke-width:4; stroke-opacity:1; fill:none" points="940.499,1423.18 940.499,1404.28 "/>
<polyline clip-path="url(#clip900)" style="stroke:#000000; stroke-linecap:round; stroke-linejoin:round; stroke-width:4; stroke-opacity:1; fill:none" points="1390.98,1423.18 1390.98,1404.28 "/>
<polyline clip-path="url(#clip900)" style="stroke:#000000; stroke-linecap:round; stroke-linejoin:round; stroke-width:4; stroke-opacity:1; fill:none" points="1841.46,1423.18 1841.46,1404.28 "/>
<polyline clip-path="url(#clip900)" style="stroke:#000000; stroke-linecap:round; stroke-linejoin:round; stroke-width:4; stroke-opacity:1; fill:none" points="2291.94,1423.18 2291.94,1404.28 "/>
<path clip-path="url(#clip900)" d="M484.672 1481.64 L500.991 1481.64 L500.991 1485.58 L479.047 1485.58 L479.047 1481.64 Q481.709 1478.89 486.292 1474.26 Q490.898 1469.61 492.079 1468.27 Q494.324 1465.74 495.204 1464.01 Q496.107 1462.25 496.107 1460.56 Q496.107 1457.8 494.162 1456.07 Q492.241 1454.33 489.139 1454.33 Q486.94 1454.33 484.486 1455.09 Q482.056 1455.86 479.278 1457.41 L479.278 1452.69 Q482.102 1451.55 484.556 1450.97 Q487.009 1450.39 489.047 1450.39 Q494.417 1450.39 497.611 1453.08 Q500.806 1455.77 500.806 1460.26 Q500.806 1462.39 499.996 1464.31 Q499.209 1466.2 497.102 1468.8 Q496.523 1469.47 493.421 1472.69 Q490.32 1475.88 484.672 1481.64 Z" fill="#000000" fill-rule="nonzero" fill-opacity="1" /><path clip-path="url(#clip900)" d="M943.509 1455.09 L931.703 1473.54 L943.509 1473.54 L943.509 1455.09 M942.282 1451.02 L948.161 1451.02 L948.161 1473.54 L953.092 1473.54 L953.092 1477.43 L948.161 1477.43 L948.161 1485.58 L943.509 1485.58 L943.509 1477.43 L927.907 1477.43 L927.907 1472.92 L942.282 1451.02 Z" fill="#000000" fill-rule="nonzero" fill-opacity="1" /><path clip-path="url(#clip900)" d="M1391.38 1466.44 Q1388.24 1466.44 1386.38 1468.59 Q1384.56 1470.74 1384.56 1474.49 Q1384.56 1478.22 1386.38 1480.39 Q1388.24 1482.55 1391.38 1482.55 Q1394.53 1482.55 1396.36 1480.39 Q1398.21 1478.22 1398.21 1474.49 Q1398.21 1470.74 1396.36 1468.59 Q1394.53 1466.44 1391.38 1466.44 M1400.67 1451.78 L1400.67 1456.04 Q1398.91 1455.21 1397.1 1454.77 Q1395.32 1454.33 1393.56 1454.33 Q1388.93 1454.33 1386.48 1457.45 Q1384.05 1460.58 1383.7 1466.9 Q1385.07 1464.89 1387.13 1463.82 Q1389.19 1462.73 1391.66 1462.73 Q1396.87 1462.73 1399.88 1465.9 Q1402.91 1469.05 1402.91 1474.49 Q1402.91 1479.82 1399.76 1483.03 Q1396.62 1486.25 1391.38 1486.25 Q1385.39 1486.25 1382.22 1481.67 Q1379.05 1477.06 1379.05 1468.33 Q1379.05 1460.14 1382.94 1455.28 Q1386.82 1450.39 1393.38 1450.39 Q1395.13 1450.39 1396.92 1450.74 Q1398.72 1451.09 1400.67 1451.78 Z" fill="#000000" fill-rule="nonzero" fill-opacity="1" /><path clip-path="url(#clip900)" d="M1841.46 1469.17 Q1838.13 1469.17 1836.21 1470.95 Q1834.31 1472.73 1834.31 1475.86 Q1834.31 1478.98 1836.21 1480.77 Q1838.13 1482.55 1841.46 1482.55 Q1844.79 1482.55 1846.72 1480.77 Q1848.64 1478.96 1848.64 1475.86 Q1848.64 1472.73 1846.72 1470.95 Q1844.82 1469.17 1841.46 1469.17 M1836.78 1467.18 Q1833.78 1466.44 1832.09 1464.38 Q1830.42 1462.32 1830.42 1459.35 Q1830.42 1455.21 1833.36 1452.8 Q1836.32 1450.39 1841.46 1450.39 Q1846.62 1450.39 1849.56 1452.8 Q1852.5 1455.21 1852.5 1459.35 Q1852.5 1462.32 1850.81 1464.38 Q1849.15 1466.44 1846.16 1467.18 Q1849.54 1467.96 1851.41 1470.26 Q1853.31 1472.55 1853.31 1475.86 Q1853.31 1480.88 1850.23 1483.57 Q1847.18 1486.25 1841.46 1486.25 Q1835.74 1486.25 1832.66 1483.57 Q1829.61 1480.88 1829.61 1475.86 Q1829.61 1472.55 1831.51 1470.26 Q1833.4 1467.96 1836.78 1467.18 M1835.07 1459.79 Q1835.07 1462.48 1836.74 1463.98 Q1838.43 1465.49 1841.46 1465.49 Q1844.47 1465.49 1846.16 1463.98 Q1847.87 1462.48 1847.87 1459.79 Q1847.87 1457.11 1846.16 1455.6 Q1844.47 1454.1 1841.46 1454.1 Q1838.43 1454.1 1836.74 1455.6 Q1835.07 1457.11 1835.07 1459.79 Z" fill="#000000" fill-rule="nonzero" fill-opacity="1" /><path clip-path="url(#clip900)" d="M2266.63 1481.64 L2274.27 1481.64 L2274.27 1455.28 L2265.96 1456.95 L2265.96 1452.69 L2274.22 1451.02 L2278.9 1451.02 L2278.9 1481.64 L2286.54 1481.64 L2286.54 1485.58 L2266.63 1485.58 L2266.63 1481.64 Z" fill="#000000" fill-rule="nonzero" fill-opacity="1" /><path clip-path="url(#clip900)" d="M2305.98 1454.1 Q2302.37 1454.1 2300.54 1457.66 Q2298.73 1461.2 2298.73 1468.33 Q2298.73 1475.44 2300.54 1479.01 Q2302.37 1482.55 2305.98 1482.55 Q2309.61 1482.55 2311.42 1479.01 Q2313.25 1475.44 2313.25 1468.33 Q2313.25 1461.2 2311.42 1457.66 Q2309.61 1454.1 2305.98 1454.1 M2305.98 1450.39 Q2311.79 1450.39 2314.85 1455 Q2317.92 1459.58 2317.92 1468.33 Q2317.92 1477.06 2314.85 1481.67 Q2311.79 1486.25 2305.98 1486.25 Q2300.17 1486.25 2297.09 1481.67 Q2294.04 1477.06 2294.04 1468.33 Q2294.04 1459.58 2297.09 1455 Q2300.17 1450.39 2305.98 1450.39 Z" fill="#000000" fill-rule="nonzero" fill-opacity="1" /><path clip-path="url(#clip900)" d="M1260.19 1520.52 L1267.09 1520.52 L1278.9 1538.19 L1290.77 1520.52 L1297.68 1520.52 L1282.4 1543.34 L1298.7 1568.04 L1291.79 1568.04 L1278.42 1547.83 L1264.96 1568.04 L1258.02 1568.04 L1274.99 1542.68 L1260.19 1520.52 Z" fill="#000000" fill-rule="nonzero" fill-opacity="1" /><polyline clip-path="url(#clip900)" style="stroke:#000000; stroke-linecap:round; stroke-linejoin:round; stroke-width:4; stroke-opacity:1; fill:none" points="203.964,1423.18 203.964,47.2441 "/>
<polyline clip-path="url(#clip900)" style="stroke:#000000; stroke-linecap:round; stroke-linejoin:round; stroke-width:4; stroke-opacity:1; fill:none" points="203.964,1207.03 222.861,1207.03 "/>
<polyline clip-path="url(#clip900)" style="stroke:#000000; stroke-linecap:round; stroke-linejoin:round; stroke-width:4; stroke-opacity:1; fill:none" points="203.964,856.688 222.861,856.688 "/>
<polyline clip-path="url(#clip900)" style="stroke:#000000; stroke-linecap:round; stroke-linejoin:round; stroke-width:4; stroke-opacity:1; fill:none" points="203.964,506.345 222.861,506.345 "/>
<polyline clip-path="url(#clip900)" style="stroke:#000000; stroke-linecap:round; stroke-linejoin:round; stroke-width:4; stroke-opacity:1; fill:none" points="203.964,156.003 222.861,156.003 "/>
<path clip-path="url(#clip900)" d="M116.668 1220.38 L124.306 1220.38 L124.306 1194.01 L115.996 1195.68 L115.996 1191.42 L124.26 1189.75 L128.936 1189.75 L128.936 1220.38 L136.575 1220.38 L136.575 1224.31 L116.668 1224.31 L116.668 1220.38 Z" fill="#000000" fill-rule="nonzero" fill-opacity="1" /><path clip-path="url(#clip900)" d="M156.019 1192.83 Q152.408 1192.83 150.579 1196.39 Q148.774 1199.94 148.774 1207.07 Q148.774 1214.17 150.579 1217.74 Q152.408 1221.28 156.019 1221.28 Q159.653 1221.28 161.459 1217.74 Q163.288 1214.17 163.288 1207.07 Q163.288 1199.94 161.459 1196.39 Q159.653 1192.83 156.019 1192.83 M156.019 1189.13 Q161.829 1189.13 164.885 1193.73 Q167.964 1198.32 167.964 1207.07 Q167.964 1215.79 164.885 1220.4 Q161.829 1224.98 156.019 1224.98 Q150.209 1224.98 147.13 1220.4 Q144.075 1215.79 144.075 1207.07 Q144.075 1198.32 147.13 1193.73 Q150.209 1189.13 156.019 1189.13 Z" fill="#000000" fill-rule="nonzero" fill-opacity="1" /><path clip-path="url(#clip900)" d="M117.663 870.033 L125.302 870.033 L125.302 843.667 L116.992 845.334 L116.992 841.074 L125.255 839.408 L129.931 839.408 L129.931 870.033 L137.57 870.033 L137.57 873.968 L117.663 873.968 L117.663 870.033 Z" fill="#000000" fill-rule="nonzero" fill-opacity="1" /><path clip-path="url(#clip900)" d="M147.061 839.408 L165.417 839.408 L165.417 843.343 L151.343 843.343 L151.343 851.815 Q152.362 851.468 153.38 851.306 Q154.399 851.121 155.417 851.121 Q161.204 851.121 164.584 854.292 Q167.964 857.463 167.964 862.88 Q167.964 868.459 164.491 871.56 Q161.019 874.639 154.7 874.639 Q152.524 874.639 150.255 874.269 Q148.01 873.898 145.603 873.158 L145.603 868.459 Q147.686 869.593 149.908 870.148 Q152.13 870.704 154.607 870.704 Q158.612 870.704 160.95 868.597 Q163.288 866.491 163.288 862.88 Q163.288 859.269 160.95 857.162 Q158.612 855.056 154.607 855.056 Q152.732 855.056 150.857 855.472 Q149.005 855.889 147.061 856.769 L147.061 839.408 Z" fill="#000000" fill-rule="nonzero" fill-opacity="1" /><path clip-path="url(#clip900)" d="M119.885 519.69 L136.204 519.69 L136.204 523.625 L114.26 523.625 L114.26 519.69 Q116.922 516.935 121.505 512.306 Q126.112 507.653 127.292 506.31 Q129.538 503.787 130.417 502.051 Q131.32 500.292 131.32 498.602 Q131.32 495.848 129.376 494.111 Q127.455 492.375 124.353 492.375 Q122.154 492.375 119.7 493.139 Q117.269 493.903 114.492 495.454 L114.492 490.732 Q117.316 489.598 119.769 489.019 Q122.223 488.44 124.26 488.44 Q129.63 488.44 132.825 491.125 Q136.019 493.811 136.019 498.301 Q136.019 500.431 135.209 502.352 Q134.422 504.25 132.316 506.843 Q131.737 507.514 128.635 510.732 Q125.533 513.926 119.885 519.69 Z" fill="#000000" fill-rule="nonzero" fill-opacity="1" /><path clip-path="url(#clip900)" d="M156.019 492.144 Q152.408 492.144 150.579 495.709 Q148.774 499.25 148.774 506.38 Q148.774 513.486 150.579 517.051 Q152.408 520.593 156.019 520.593 Q159.653 520.593 161.459 517.051 Q163.288 513.486 163.288 506.38 Q163.288 499.25 161.459 495.709 Q159.653 492.144 156.019 492.144 M156.019 488.44 Q161.829 488.44 164.885 493.047 Q167.964 497.63 167.964 506.38 Q167.964 515.107 164.885 519.713 Q161.829 524.296 156.019 524.296 Q150.209 524.296 147.13 519.713 Q144.075 515.107 144.075 506.38 Q144.075 497.63 147.13 493.047 Q150.209 488.44 156.019 488.44 Z" fill="#000000" fill-rule="nonzero" fill-opacity="1" /><path clip-path="url(#clip900)" d="M120.88 169.347 L137.2 169.347 L137.2 173.283 L115.256 173.283 L115.256 169.347 Q117.918 166.593 122.501 161.963 Q127.107 157.31 128.288 155.968 Q130.533 153.445 131.413 151.709 Q132.316 149.949 132.316 148.26 Q132.316 145.505 130.371 143.769 Q128.45 142.033 125.348 142.033 Q123.149 142.033 120.695 142.797 Q118.265 143.56 115.487 145.111 L115.487 140.389 Q118.311 139.255 120.765 138.676 Q123.218 138.098 125.255 138.098 Q130.626 138.098 133.82 140.783 Q137.015 143.468 137.015 147.959 Q137.015 150.088 136.204 152.01 Q135.417 153.908 133.311 156.5 Q132.732 157.172 129.63 160.389 Q126.529 163.584 120.88 169.347 Z" fill="#000000" fill-rule="nonzero" fill-opacity="1" /><path clip-path="url(#clip900)" d="M147.061 138.723 L165.417 138.723 L165.417 142.658 L151.343 142.658 L151.343 151.13 Q152.362 150.783 153.38 150.621 Q154.399 150.435 155.417 150.435 Q161.204 150.435 164.584 153.607 Q167.964 156.778 167.964 162.195 Q167.964 167.773 164.491 170.875 Q161.019 173.954 154.7 173.954 Q152.524 173.954 150.255 173.583 Q148.01 173.213 145.603 172.472 L145.603 167.773 Q147.686 168.908 149.908 169.463 Q152.13 170.019 154.607 170.019 Q158.612 170.019 160.95 167.912 Q163.288 165.806 163.288 162.195 Q163.288 158.584 160.95 156.477 Q158.612 154.371 154.607 154.371 Q152.732 154.371 150.857 154.787 Q149.005 155.204 147.061 156.084 L147.061 138.723 Z" fill="#000000" fill-rule="nonzero" fill-opacity="1" /><path clip-path="url(#clip900)" d="M16.4842 755.248 L16.4842 748.341 L36.0269 735.164 L16.4842 722.083 L16.4842 715.176 L41.3741 731.981 L64.0042 731.981 L64.0042 738.443 L41.3741 738.443 L16.4842 755.248 Z" fill="#000000" fill-rule="nonzero" fill-opacity="1" /><circle clip-path="url(#clip902)" cx="264.778" cy="1384.24" r="14.4" fill="#009af9" fill-rule="evenodd" fill-opacity="1" stroke="#000000" stroke-opacity="1" stroke-width="3.2"/>
<circle clip-path="url(#clip902)" cx="287.302" cy="1351.55" r="14.4" fill="#009af9" fill-rule="evenodd" fill-opacity="1" stroke="#000000" stroke-opacity="1" stroke-width="3.2"/>
<circle clip-path="url(#clip902)" cx="309.827" cy="1324.42" r="14.4" fill="#009af9" fill-rule="evenodd" fill-opacity="1" stroke="#000000" stroke-opacity="1" stroke-width="3.2"/>
<circle clip-path="url(#clip902)" cx="332.351" cy="1329.86" r="14.4" fill="#009af9" fill-rule="evenodd" fill-opacity="1" stroke="#000000" stroke-opacity="1" stroke-width="3.2"/>
<circle clip-path="url(#clip902)" cx="354.875" cy="1307.48" r="14.4" fill="#009af9" fill-rule="evenodd" fill-opacity="1" stroke="#000000" stroke-opacity="1" stroke-width="3.2"/>
<circle clip-path="url(#clip902)" cx="377.399" cy="1254.26" r="14.4" fill="#009af9" fill-rule="evenodd" fill-opacity="1" stroke="#000000" stroke-opacity="1" stroke-width="3.2"/>
<circle clip-path="url(#clip902)" cx="399.923" cy="1243.79" r="14.4" fill="#009af9" fill-rule="evenodd" fill-opacity="1" stroke="#000000" stroke-opacity="1" stroke-width="3.2"/>
<circle clip-path="url(#clip902)" cx="422.447" cy="1270.63" r="14.4" fill="#009af9" fill-rule="evenodd" fill-opacity="1" stroke="#000000" stroke-opacity="1" stroke-width="3.2"/>
<circle clip-path="url(#clip902)" cx="444.971" cy="1198.45" r="14.4" fill="#009af9" fill-rule="evenodd" fill-opacity="1" stroke="#000000" stroke-opacity="1" stroke-width="3.2"/>
<circle clip-path="url(#clip902)" cx="467.495" cy="1240.61" r="14.4" fill="#009af9" fill-rule="evenodd" fill-opacity="1" stroke="#000000" stroke-opacity="1" stroke-width="3.2"/>
<circle clip-path="url(#clip902)" cx="490.019" cy="1221.87" r="14.4" fill="#009af9" fill-rule="evenodd" fill-opacity="1" stroke="#000000" stroke-opacity="1" stroke-width="3.2"/>
<circle clip-path="url(#clip902)" cx="512.543" cy="1214.36" r="14.4" fill="#009af9" fill-rule="evenodd" fill-opacity="1" stroke="#000000" stroke-opacity="1" stroke-width="3.2"/>
<circle clip-path="url(#clip902)" cx="535.067" cy="1113.25" r="14.4" fill="#009af9" fill-rule="evenodd" fill-opacity="1" stroke="#000000" stroke-opacity="1" stroke-width="3.2"/>
<circle clip-path="url(#clip902)" cx="557.591" cy="1105.19" r="14.4" fill="#009af9" fill-rule="evenodd" fill-opacity="1" stroke="#000000" stroke-opacity="1" stroke-width="3.2"/>
<circle clip-path="url(#clip902)" cx="580.115" cy="1200.63" r="14.4" fill="#009af9" fill-rule="evenodd" fill-opacity="1" stroke="#000000" stroke-opacity="1" stroke-width="3.2"/>
<circle clip-path="url(#clip902)" cx="602.639" cy="1099.69" r="14.4" fill="#009af9" fill-rule="evenodd" fill-opacity="1" stroke="#000000" stroke-opacity="1" stroke-width="3.2"/>
<circle clip-path="url(#clip902)" cx="625.163" cy="1060.47" r="14.4" fill="#009af9" fill-rule="evenodd" fill-opacity="1" stroke="#000000" stroke-opacity="1" stroke-width="3.2"/>
<circle clip-path="url(#clip902)" cx="647.687" cy="1084.62" r="14.4" fill="#009af9" fill-rule="evenodd" fill-opacity="1" stroke="#000000" stroke-opacity="1" stroke-width="3.2"/>
<circle clip-path="url(#clip902)" cx="670.211" cy="1156.65" r="14.4" fill="#009af9" fill-rule="evenodd" fill-opacity="1" stroke="#000000" stroke-opacity="1" stroke-width="3.2"/>
<circle clip-path="url(#clip902)" cx="692.735" cy="1098.66" r="14.4" fill="#009af9" fill-rule="evenodd" fill-opacity="1" stroke="#000000" stroke-opacity="1" stroke-width="3.2"/>
<circle clip-path="url(#clip902)" cx="715.259" cy="1096.45" r="14.4" fill="#009af9" fill-rule="evenodd" fill-opacity="1" stroke="#000000" stroke-opacity="1" stroke-width="3.2"/>
<circle clip-path="url(#clip902)" cx="737.783" cy="1009.42" r="14.4" fill="#009af9" fill-rule="evenodd" fill-opacity="1" stroke="#000000" stroke-opacity="1" stroke-width="3.2"/>
<circle clip-path="url(#clip902)" cx="760.307" cy="1062.76" r="14.4" fill="#009af9" fill-rule="evenodd" fill-opacity="1" stroke="#000000" stroke-opacity="1" stroke-width="3.2"/>
<circle clip-path="url(#clip902)" cx="782.831" cy="1075.09" r="14.4" fill="#009af9" fill-rule="evenodd" fill-opacity="1" stroke="#000000" stroke-opacity="1" stroke-width="3.2"/>
<circle clip-path="url(#clip902)" cx="805.355" cy="949.26" r="14.4" fill="#009af9" fill-rule="evenodd" fill-opacity="1" stroke="#000000" stroke-opacity="1" stroke-width="3.2"/>
<circle clip-path="url(#clip902)" cx="827.879" cy="1045.75" r="14.4" fill="#009af9" fill-rule="evenodd" fill-opacity="1" stroke="#000000" stroke-opacity="1" stroke-width="3.2"/>
<circle clip-path="url(#clip902)" cx="850.403" cy="964.567" r="14.4" fill="#009af9" fill-rule="evenodd" fill-opacity="1" stroke="#000000" stroke-opacity="1" stroke-width="3.2"/>
<circle clip-path="url(#clip902)" cx="872.927" cy="971.437" r="14.4" fill="#009af9" fill-rule="evenodd" fill-opacity="1" stroke="#000000" stroke-opacity="1" stroke-width="3.2"/>
<circle clip-path="url(#clip902)" cx="895.451" cy="940.759" r="14.4" fill="#009af9" fill-rule="evenodd" fill-opacity="1" stroke="#000000" stroke-opacity="1" stroke-width="3.2"/>
<circle clip-path="url(#clip902)" cx="917.975" cy="919.711" r="14.4" fill="#009af9" fill-rule="evenodd" fill-opacity="1" stroke="#000000" stroke-opacity="1" stroke-width="3.2"/>
<circle clip-path="url(#clip902)" cx="940.499" cy="926.967" r="14.4" fill="#009af9" fill-rule="evenodd" fill-opacity="1" stroke="#000000" stroke-opacity="1" stroke-width="3.2"/>
<circle clip-path="url(#clip902)" cx="963.023" cy="906.679" r="14.4" fill="#009af9" fill-rule="evenodd" fill-opacity="1" stroke="#000000" stroke-opacity="1" stroke-width="3.2"/>
<circle clip-path="url(#clip902)" cx="985.547" cy="949.096" r="14.4" fill="#009af9" fill-rule="evenodd" fill-opacity="1" stroke="#000000" stroke-opacity="1" stroke-width="3.2"/>
<circle clip-path="url(#clip902)" cx="1008.07" cy="878.461" r="14.4" fill="#009af9" fill-rule="evenodd" fill-opacity="1" stroke="#000000" stroke-opacity="1" stroke-width="3.2"/>
<circle clip-path="url(#clip902)" cx="1030.6" cy="881.585" r="14.4" fill="#009af9" fill-rule="evenodd" fill-opacity="1" stroke="#000000" stroke-opacity="1" stroke-width="3.2"/>
<circle clip-path="url(#clip902)" cx="1053.12" cy="911.921" r="14.4" fill="#009af9" fill-rule="evenodd" fill-opacity="1" stroke="#000000" stroke-opacity="1" stroke-width="3.2"/>
<circle clip-path="url(#clip902)" cx="1075.64" cy="893.964" r="14.4" fill="#009af9" fill-rule="evenodd" fill-opacity="1" stroke="#000000" stroke-opacity="1" stroke-width="3.2"/>
<circle clip-path="url(#clip902)" cx="1098.17" cy="783.799" r="14.4" fill="#009af9" fill-rule="evenodd" fill-opacity="1" stroke="#000000" stroke-opacity="1" stroke-width="3.2"/>
<circle clip-path="url(#clip902)" cx="1120.69" cy="801.76" r="14.4" fill="#009af9" fill-rule="evenodd" fill-opacity="1" stroke="#000000" stroke-opacity="1" stroke-width="3.2"/>
<circle clip-path="url(#clip902)" cx="1143.22" cy="799.754" r="14.4" fill="#009af9" fill-rule="evenodd" fill-opacity="1" stroke="#000000" stroke-opacity="1" stroke-width="3.2"/>
<circle clip-path="url(#clip902)" cx="1165.74" cy="788.913" r="14.4" fill="#009af9" fill-rule="evenodd" fill-opacity="1" stroke="#000000" stroke-opacity="1" stroke-width="3.2"/>
<circle clip-path="url(#clip902)" cx="1188.26" cy="729.216" r="14.4" fill="#009af9" fill-rule="evenodd" fill-opacity="1" stroke="#000000" stroke-opacity="1" stroke-width="3.2"/>
<circle clip-path="url(#clip902)" cx="1210.79" cy="745.519" r="14.4" fill="#009af9" fill-rule="evenodd" fill-opacity="1" stroke="#000000" stroke-opacity="1" stroke-width="3.2"/>
<circle clip-path="url(#clip902)" cx="1233.31" cy="813.906" r="14.4" fill="#009af9" fill-rule="evenodd" fill-opacity="1" stroke="#000000" stroke-opacity="1" stroke-width="3.2"/>
<circle clip-path="url(#clip902)" cx="1255.84" cy="720.567" r="14.4" fill="#009af9" fill-rule="evenodd" fill-opacity="1" stroke="#000000" stroke-opacity="1" stroke-width="3.2"/>
<circle clip-path="url(#clip902)" cx="1278.36" cy="684.69" r="14.4" fill="#009af9" fill-rule="evenodd" fill-opacity="1" stroke="#000000" stroke-opacity="1" stroke-width="3.2"/>
<circle clip-path="url(#clip902)" cx="1300.88" cy="719.269" r="14.4" fill="#009af9" fill-rule="evenodd" fill-opacity="1" stroke="#000000" stroke-opacity="1" stroke-width="3.2"/>
<circle clip-path="url(#clip902)" cx="1323.41" cy="758.499" r="14.4" fill="#009af9" fill-rule="evenodd" fill-opacity="1" stroke="#000000" stroke-opacity="1" stroke-width="3.2"/>
<circle clip-path="url(#clip902)" cx="1345.93" cy="740.377" r="14.4" fill="#009af9" fill-rule="evenodd" fill-opacity="1" stroke="#000000" stroke-opacity="1" stroke-width="3.2"/>
<circle clip-path="url(#clip902)" cx="1368.46" cy="655.689" r="14.4" fill="#009af9" fill-rule="evenodd" fill-opacity="1" stroke="#000000" stroke-opacity="1" stroke-width="3.2"/>
<circle clip-path="url(#clip902)" cx="1390.98" cy="583.351" r="14.4" fill="#009af9" fill-rule="evenodd" fill-opacity="1" stroke="#000000" stroke-opacity="1" stroke-width="3.2"/>
<circle clip-path="url(#clip902)" cx="1413.5" cy="658.749" r="14.4" fill="#009af9" fill-rule="evenodd" fill-opacity="1" stroke="#000000" stroke-opacity="1" stroke-width="3.2"/>
<circle clip-path="url(#clip902)" cx="1436.03" cy="660.497" r="14.4" fill="#009af9" fill-rule="evenodd" fill-opacity="1" stroke="#000000" stroke-opacity="1" stroke-width="3.2"/>
<circle clip-path="url(#clip902)" cx="1458.55" cy="614.95" r="14.4" fill="#009af9" fill-rule="evenodd" fill-opacity="1" stroke="#000000" stroke-opacity="1" stroke-width="3.2"/>
<circle clip-path="url(#clip902)" cx="1481.08" cy="534.074" r="14.4" fill="#009af9" fill-rule="evenodd" fill-opacity="1" stroke="#000000" stroke-opacity="1" stroke-width="3.2"/>
<circle clip-path="url(#clip902)" cx="1503.6" cy="507.324" r="14.4" fill="#009af9" fill-rule="evenodd" fill-opacity="1" stroke="#000000" stroke-opacity="1" stroke-width="3.2"/>
<circle clip-path="url(#clip902)" cx="1526.12" cy="554.948" r="14.4" fill="#009af9" fill-rule="evenodd" fill-opacity="1" stroke="#000000" stroke-opacity="1" stroke-width="3.2"/>
<circle clip-path="url(#clip902)" cx="1548.65" cy="547.708" r="14.4" fill="#009af9" fill-rule="evenodd" fill-opacity="1" stroke="#000000" stroke-opacity="1" stroke-width="3.2"/>
<circle clip-path="url(#clip902)" cx="1571.17" cy="518.352" r="14.4" fill="#009af9" fill-rule="evenodd" fill-opacity="1" stroke="#000000" stroke-opacity="1" stroke-width="3.2"/>
<circle clip-path="url(#clip902)" cx="1593.7" cy="521.748" r="14.4" fill="#009af9" fill-rule="evenodd" fill-opacity="1" stroke="#000000" stroke-opacity="1" stroke-width="3.2"/>
<circle clip-path="url(#clip902)" cx="1616.22" cy="567.225" r="14.4" fill="#009af9" fill-rule="evenodd" fill-opacity="1" stroke="#000000" stroke-opacity="1" stroke-width="3.2"/>
<circle clip-path="url(#clip902)" cx="1638.74" cy="515.548" r="14.4" fill="#009af9" fill-rule="evenodd" fill-opacity="1" stroke="#000000" stroke-opacity="1" stroke-width="3.2"/>
<circle clip-path="url(#clip902)" cx="1661.27" cy="474.21" r="14.4" fill="#009af9" fill-rule="evenodd" fill-opacity="1" stroke="#000000" stroke-opacity="1" stroke-width="3.2"/>
<circle clip-path="url(#clip902)" cx="1683.79" cy="453.545" r="14.4" fill="#009af9" fill-rule="evenodd" fill-opacity="1" stroke="#000000" stroke-opacity="1" stroke-width="3.2"/>
<circle clip-path="url(#clip902)" cx="1706.32" cy="416.375" r="14.4" fill="#009af9" fill-rule="evenodd" fill-opacity="1" stroke="#000000" stroke-opacity="1" stroke-width="3.2"/>
<circle clip-path="url(#clip902)" cx="1728.84" cy="503.334" r="14.4" fill="#009af9" fill-rule="evenodd" fill-opacity="1" stroke="#000000" stroke-opacity="1" stroke-width="3.2"/>
<circle clip-path="url(#clip902)" cx="1751.36" cy="382.715" r="14.4" fill="#009af9" fill-rule="evenodd" fill-opacity="1" stroke="#000000" stroke-opacity="1" stroke-width="3.2"/>
<circle clip-path="url(#clip902)" cx="1773.89" cy="461.278" r="14.4" fill="#009af9" fill-rule="evenodd" fill-opacity="1" stroke="#000000" stroke-opacity="1" stroke-width="3.2"/>
<circle clip-path="url(#clip902)" cx="1796.41" cy="384.345" r="14.4" fill="#009af9" fill-rule="evenodd" fill-opacity="1" stroke="#000000" stroke-opacity="1" stroke-width="3.2"/>
<circle clip-path="url(#clip902)" cx="1818.94" cy="443.528" r="14.4" fill="#009af9" fill-rule="evenodd" fill-opacity="1" stroke="#000000" stroke-opacity="1" stroke-width="3.2"/>
<circle clip-path="url(#clip902)" cx="1841.46" cy="375.776" r="14.4" fill="#009af9" fill-rule="evenodd" fill-opacity="1" stroke="#000000" stroke-opacity="1" stroke-width="3.2"/>
<circle clip-path="url(#clip902)" cx="1863.98" cy="360.045" r="14.4" fill="#009af9" fill-rule="evenodd" fill-opacity="1" stroke="#000000" stroke-opacity="1" stroke-width="3.2"/>
<circle clip-path="url(#clip902)" cx="1886.51" cy="331.571" r="14.4" fill="#009af9" fill-rule="evenodd" fill-opacity="1" stroke="#000000" stroke-opacity="1" stroke-width="3.2"/>
<circle clip-path="url(#clip902)" cx="1909.03" cy="341.097" r="14.4" fill="#009af9" fill-rule="evenodd" fill-opacity="1" stroke="#000000" stroke-opacity="1" stroke-width="3.2"/>
<circle clip-path="url(#clip902)" cx="1931.56" cy="290.819" r="14.4" fill="#009af9" fill-rule="evenodd" fill-opacity="1" stroke="#000000" stroke-opacity="1" stroke-width="3.2"/>
<circle clip-path="url(#clip902)" cx="1954.08" cy="244.057" r="14.4" fill="#009af9" fill-rule="evenodd" fill-opacity="1" stroke="#000000" stroke-opacity="1" stroke-width="3.2"/>
<circle clip-path="url(#clip902)" cx="1976.6" cy="307.19" r="14.4" fill="#009af9" fill-rule="evenodd" fill-opacity="1" stroke="#000000" stroke-opacity="1" stroke-width="3.2"/>
<circle clip-path="url(#clip902)" cx="1999.13" cy="313.215" r="14.4" fill="#009af9" fill-rule="evenodd" fill-opacity="1" stroke="#000000" stroke-opacity="1" stroke-width="3.2"/>
<circle clip-path="url(#clip902)" cx="2021.65" cy="220.315" r="14.4" fill="#009af9" fill-rule="evenodd" fill-opacity="1" stroke="#000000" stroke-opacity="1" stroke-width="3.2"/>
<circle clip-path="url(#clip902)" cx="2044.18" cy="183.404" r="14.4" fill="#009af9" fill-rule="evenodd" fill-opacity="1" stroke="#000000" stroke-opacity="1" stroke-width="3.2"/>
<circle clip-path="url(#clip902)" cx="2066.7" cy="161.292" r="14.4" fill="#009af9" fill-rule="evenodd" fill-opacity="1" stroke="#000000" stroke-opacity="1" stroke-width="3.2"/>
<circle clip-path="url(#clip902)" cx="2089.22" cy="245.62" r="14.4" fill="#009af9" fill-rule="evenodd" fill-opacity="1" stroke="#000000" stroke-opacity="1" stroke-width="3.2"/>
<circle clip-path="url(#clip902)" cx="2111.75" cy="191.89" r="14.4" fill="#009af9" fill-rule="evenodd" fill-opacity="1" stroke="#000000" stroke-opacity="1" stroke-width="3.2"/>
<circle clip-path="url(#clip902)" cx="2134.27" cy="176.512" r="14.4" fill="#009af9" fill-rule="evenodd" fill-opacity="1" stroke="#000000" stroke-opacity="1" stroke-width="3.2"/>
<circle clip-path="url(#clip902)" cx="2156.8" cy="238.537" r="14.4" fill="#009af9" fill-rule="evenodd" fill-opacity="1" stroke="#000000" stroke-opacity="1" stroke-width="3.2"/>
<circle clip-path="url(#clip902)" cx="2179.32" cy="220.72" r="14.4" fill="#009af9" fill-rule="evenodd" fill-opacity="1" stroke="#000000" stroke-opacity="1" stroke-width="3.2"/>
<circle clip-path="url(#clip902)" cx="2201.84" cy="197.725" r="14.4" fill="#009af9" fill-rule="evenodd" fill-opacity="1" stroke="#000000" stroke-opacity="1" stroke-width="3.2"/>
<circle clip-path="url(#clip902)" cx="2224.37" cy="107.519" r="14.4" fill="#009af9" fill-rule="evenodd" fill-opacity="1" stroke="#000000" stroke-opacity="1" stroke-width="3.2"/>
<circle clip-path="url(#clip902)" cx="2246.89" cy="121.903" r="14.4" fill="#009af9" fill-rule="evenodd" fill-opacity="1" stroke="#000000" stroke-opacity="1" stroke-width="3.2"/>
<circle clip-path="url(#clip902)" cx="2269.42" cy="117.45" r="14.4" fill="#009af9" fill-rule="evenodd" fill-opacity="1" stroke="#000000" stroke-opacity="1" stroke-width="3.2"/>
<circle clip-path="url(#clip902)" cx="2291.94" cy="86.1857" r="14.4" fill="#009af9" fill-rule="evenodd" fill-opacity="1" stroke="#000000" stroke-opacity="1" stroke-width="3.2"/>
</svg>
