<?xml version="1.0" encoding="utf-8"?>
<svg xmlns="http://www.w3.org/2000/svg" xmlns:xlink="http://www.w3.org/1999/xlink" width="600" height="400" viewBox="0 0 2400 1600">
<defs>
  <clipPath id="clip620">
    <rect x="0" y="0" width="2400" height="1600"/>
  </clipPath>
</defs>
<path clip-path="url(#clip620)" d="M0 1600 L2400 1600 L2400 0 L0 0  Z" fill="#ffffff" fill-rule="evenodd" fill-opacity="1"/>
<defs>
  <clipPath id="clip621">
    <rect x="480" y="0" width="1681" height="1600"/>
  </clipPath>
</defs>
<path clip-path="url(#clip620)" d="M203.964 1423.18 L2352.76 1423.18 L2352.76 47.2441 L203.964 47.2441  Z" fill="#ffffff" fill-rule="evenodd" fill-opacity="1"/>
<defs>
  <clipPath id="clip622">
    <rect x="203" y="47" width="2150" height="1377"/>
  </clipPath>
</defs>
<polyline clip-path="url(#clip622)" style="stroke:#000000; stroke-linecap:round; stroke-linejoin:round; stroke-width:2; stroke-opacity:0.1; fill:none" points="490.019,1423.18 490.019,47.2441 "/>
<polyline clip-path="url(#clip622)" style="stroke:#000000; stroke-linecap:round; stroke-linejoin:round; stroke-width:2; stroke-opacity:0.1; fill:none" points="940.499,1423.18 940.499,47.2441 "/>
<polyline clip-path="url(#clip622)" style="stroke:#000000; stroke-linecap:round; stroke-linejoin:round; stroke-width:2; stroke-opacity:0.1; fill:none" points="1390.98,1423.18 1390.98,47.2441 "/>
<polyline clip-path="url(#clip622)" style="stroke:#000000; stroke-linecap:round; stroke-linejoin:round; stroke-width:2; stroke-opacity:0.1; fill:none" points="1841.46,1423.18 1841.46,47.2441 "/>
<polyline clip-path="url(#clip622)" style="stroke:#000000; stroke-linecap:round; stroke-linejoin:round; stroke-width:2; stroke-opacity:0.1; fill:none" points="2291.94,1423.18 2291.94,47.2441 "/>
<polyline clip-path="url(#clip622)" style="stroke:#000000; stroke-linecap:round; stroke-linejoin:round; stroke-width:2; stroke-opacity:0.1; fill:none" points="203.964,1204.62 2352.76,1204.62 "/>
<polyline clip-path="url(#clip622)" style="stroke:#000000; stroke-linecap:round; stroke-linejoin:round; stroke-width:2; stroke-opacity:0.1; fill:none" points="203.964,849.958 2352.76,849.958 "/>
<polyline clip-path="url(#clip622)" style="stroke:#000000; stroke-linecap:round; stroke-linejoin:round; stroke-width:2; stroke-opacity:0.1; fill:none" points="203.964,495.294 2352.76,495.294 "/>
<polyline clip-path="url(#clip622)" style="stroke:#000000; stroke-linecap:round; stroke-linejoin:round; stroke-width:2; stroke-opacity:0.1; fill:none" points="203.964,140.63 2352.76,140.63 "/>
<polyline clip-path="url(#clip620)" style="stroke:#000000; stroke-linecap:round; stroke-linejoin:round; stroke-width:4; stroke-opacity:1; fill:none" points="203.964,1423.18 2352.76,1423.18 "/>
<polyline clip-path="url(#clip620)" style="stroke:#000000; stroke-linecap:round; stroke-linejoin:round; stroke-width:4; stroke-opacity:1; fill:none" points="490.019,1423.18 490.019,1404.28 "/>
<polyline clip-path="url(#clip620)" style="stroke:#000000; stroke-linecap:round; stroke-linejoin:round; stroke-width:4; stroke-opacity:1; fill:none" points="940.499,1423.18 940.499,1404.28 "/>
<polyline clip-path="url(#clip620)" style="stroke:#000000; stroke-linecap:round; stroke-linejoin:round; stroke-width:4; stroke-opacity:1; fill:none" points="1390.98,1423.18 1390.98,1404.28 "/>
<polyline clip-path="url(#clip620)" style="stroke:#000000; stroke-linecap:round; stroke-linejoin:round; stroke-width:4; stroke-opacity:1; fill:none" points="1841.46,1423.18 1841.46,1404.28 "/>
<polyline clip-path="url(#clip620)" style="stroke:#000000; stroke-linecap:round; stroke-linejoin:round; stroke-width:4; stroke-opacity:1; fill:none" points="2291.94,1423.18 2291.94,1404.28 "/>
<path clip-path="url(#clip620)" d="M484.672 1481.64 L500.991 1481.64 L500.991 1485.58 L479.047 1485.58 L479.047 1481.64 Q481.709 1478.89 486.292 1474.26 Q490.898 1469.61 492.079 1468.27 Q494.324 1465.74 495.204 1464.01 Q496.107 1462.25 496.107 1460.56 Q496.107 1457.8 494.162 1456.07 Q492.241 1454.33 489.139 1454.33 Q486.94 1454.33 484.486 1455.09 Q482.056 1455.86 479.278 1457.41 L479.278 1452.69 Q482.102 1451.55 484.556 1450.97 Q487.009 1450.39 489.047 1450.39 Q494.417 1450.39 497.611 1453.08 Q500.806 1455.77 500.806 1460.26 Q500.806 1462.39 499.996 1464.31 Q499.209 1466.2 497.102 1468.8 Q496.523 1469.47 493.421 1472.69 Q490.32 1475.88 484.672 1481.64 Z" fill="#000000" fill-rule="nonzero" fill-opacity="1" /><path clip-path="url(#clip620)" d="M943.509 1455.09 L931.703 1473.54 L943.509 1473.54 L943.509 1455.09 M942.282 1451.02 L948.161 1451.02 L948.161 1473.54 L953.092 1473.54 L953.092 1477.43 L948.161 1477.43 L948.161 1485.58 L943.509 1485.58 L943.509 1477.43 L927.907 1477.43 L927.907 1472.92 L942.282 1451.02 Z" fill="#000000" fill-rule="nonzero" fill-opacity="1" /><path clip-path="url(#clip620)" d="M1391.38 1466.44 Q1388.24 1466.44 1386.38 1468.59 Q1384.56 1470.74 1384.56 1474.49 Q1384.56 1478.22 1386.38 1480.39 Q1388.24 1482.55 1391.38 1482.55 Q1394.53 1482.55 1396.36 1480.39 Q1398.21 1478.22 1398.21 1474.49 Q1398.21 1470.74 1396.36 1468.59 Q1394.53 1466.44 1391.38 1466.44 M1400.67 1451.78 L1400.67 1456.04 Q1398.91 1455.21 1397.1 1454.77 Q1395.32 1454.33 1393.56 1454.33 Q1388.93 1454.33 1386.48 1457.45 Q1384.05 1460.58 1383.7 1466.9 Q1385.07 1464.89 1387.13 1463.82 Q1389.19 1462.73 1391.66 1462.73 Q1396.87 1462.73 1399.88 1465.9 Q1402.91 1469.05 1402.91 1474.49 Q1402.91 1479.82 1399.76 1483.03 Q1396.62 1486.25 1391.38 1486.25 Q1385.39 1486.25 1382.22 1481.67 Q1379.05 1477.06 1379.05 1468.33 Q1379.05 1460.14 1382.94 1455.28 Q1386.82 1450.39 1393.38 1450.39 Q1395.13 1450.39 1396.92 1450.74 Q1398.72 1451.09 1400.67 1451.78 Z" fill="#000000" fill-rule="nonzero" fill-opacity="1" /><path clip-path="url(#clip620)" d="M1841.46 1469.17 Q1838.13 1469.17 1836.21 1470.95 Q1834.31 1472.73 1834.31 1475.86 Q1834.31 1478.98 1836.21 1480.77 Q1838.13 1482.55 1841.46 1482.55 Q1844.79 1482.55 1846.72 1480.77 Q1848.64 1478.96 1848.64 1475.86 Q1848.64 1472.73 1846.72 1470.95 Q1844.82 1469.17 1841.46 1469.17 M1836.78 1467.18 Q1833.78 1466.44 1832.09 1464.38 Q1830.42 1462.32 1830.42 1459.35 Q1830.42 1455.21 1833.36 1452.8 Q1836.32 1450.39 1841.46 1450.39 Q1846.62 1450.39 1849.56 1452.8 Q1852.5 1455.21 1852.5 1459.35 Q1852.5 1462.32 1850.81 1464.38 Q1849.15 1466.44 1846.16 1467.18 Q1849.54 1467.96 1851.41 1470.26 Q1853.31 1472.55 1853.31 1475.86 Q1853.31 1480.88 1850.23 1483.57 Q1847.18 1486.25 1841.46 1486.25 Q1835.74 1486.25 1832.66 1483.57 Q1829.61 1480.88 1829.61 1475.86 Q1829.61 1472.55 1831.51 1470.26 Q1833.4 1467.96 1836.78 1467.18 M1835.07 1459.79 Q1835.07 1462.48 1836.74 1463.98 Q1838.43 1465.49 1841.46 1465.49 Q1844.47 1465.49 1846.16 1463.98 Q1847.87 1462.48 1847.87 1459.79 Q1847.87 1457.11 1846.16 1455.6 Q1844.47 1454.1 1841.46 1454.1 Q1838.43 1454.1 1836.74 1455.6 Q1835.07 1457.11 1835.07 1459.79 Z" fill="#000000" fill-rule="nonzero" fill-opacity="1" /><path clip-path="url(#clip620)" d="M2266.63 1481.64 L2274.27 1481.64 L2274.27 1455.28 L2265.96 1456.95 L2265.96 1452.69 L2274.22 1451.02 L2278.9 1451.02 L2278.9 1481.64 L2286.54 1481.64 L2286.54 1485.58 L2266.63 1485.58 L2266.63 1481.64 Z" fill="#000000" fill-rule="nonzero" fill-opacity="1" /><path clip-path="url(#clip620)" d="M2305.98 1454.1 Q2302.37 1454.1 2300.54 1457.66 Q2298.73 1461.2 2298.73 1468.33 Q2298.73 1475.44 2300.54 1479.01 Q2302.37 1482.55 2305.98 1482.55 Q2309.61 1482.55 2311.42 1479.01 Q2313.25 1475.44 2313.25 1468.33 Q2313.25 1461.2 2311.42 1457.66 Q2309.61 1454.1 2305.98 1454.1 M2305.98 1450.39 Q2311.79 1450.39 2314.85 1455 Q2317.92 1459.58 2317.92 1468.33 Q2317.92 1477.06 2314.85 1481.67 Q2311.79 1486.25 2305.98 1486.25 Q2300.17 1486.25 2297.09 1481.67 Q2294.04 1477.06 2294.04 1468.33 Q2294.04 1459.58 2297.09 1455 Q2300.17 1450.39 2305.98 1450.39 Z" fill="#000000" fill-rule="nonzero" fill-opacity="1" /><path clip-path="url(#clip620)" d="M1260.19 1520.52 L1267.09 1520.52 L1278.9 1538.19 L1290.77 1520.52 L1297.68 1520.52 L1282.4 1543.34 L1298.7 1568.04 L1291.79 1568.04 L1278.42 1547.83 L1264.96 1568.04 L1258.02 1568.04 L1274.99 1542.68 L1260.19 1520.52 Z" fill="#000000" fill-rule="nonzero" fill-opacity="1" /><polyline clip-path="url(#clip620)" style="stroke:#000000; stroke-linecap:round; stroke-linejoin:round; stroke-width:4; stroke-opacity:1; fill:none" points="203.964,1423.18 203.964,47.2441 "/>
<polyline clip-path="url(#clip620)" style="stroke:#000000; stroke-linecap:round; stroke-linejoin:round; stroke-width:4; stroke-opacity:1; fill:none" points="203.964,1204.62 222.861,1204.62 "/>
<polyline clip-path="url(#clip620)" style="stroke:#000000; stroke-linecap:round; stroke-linejoin:round; stroke-width:4; stroke-opacity:1; fill:none" points="203.964,849.958 222.861,849.958 "/>
<polyline clip-path="url(#clip620)" style="stroke:#000000; stroke-linecap:round; stroke-linejoin:round; stroke-width:4; stroke-opacity:1; fill:none" points="203.964,495.294 222.861,495.294 "/>
<polyline clip-path="url(#clip620)" style="stroke:#000000; stroke-linecap:round; stroke-linejoin:round; stroke-width:4; stroke-opacity:1; fill:none" points="203.964,140.63 222.861,140.63 "/>
<path clip-path="url(#clip620)" d="M116.668 1217.97 L124.306 1217.97 L124.306 1191.6 L115.996 1193.27 L115.996 1189.01 L124.26 1187.34 L128.936 1187.34 L128.936 1217.97 L136.575 1217.97 L136.575 1221.9 L116.668 1221.9 L116.668 1217.97 Z" fill="#000000" fill-rule="nonzero" fill-opacity="1" /><path clip-path="url(#clip620)" d="M156.019 1190.42 Q152.408 1190.42 150.579 1193.98 Q148.774 1197.53 148.774 1204.66 Q148.774 1211.76 150.579 1215.33 Q152.408 1218.87 156.019 1218.87 Q159.653 1218.87 161.459 1215.33 Q163.288 1211.76 163.288 1204.66 Q163.288 1197.53 161.459 1193.98 Q159.653 1190.42 156.019 1190.42 M156.019 1186.72 Q161.829 1186.72 164.885 1191.32 Q167.964 1195.91 167.964 1204.66 Q167.964 1213.38 164.885 1217.99 Q161.829 1222.57 156.019 1222.57 Q150.209 1222.57 147.13 1217.99 Q144.075 1213.38 144.075 1204.66 Q144.075 1195.91 147.13 1191.32 Q150.209 1186.72 156.019 1186.72 Z" fill="#000000" fill-rule="nonzero" fill-opacity="1" /><path clip-path="url(#clip620)" d="M117.663 863.303 L125.302 863.303 L125.302 836.937 L116.992 838.604 L116.992 834.344 L125.255 832.678 L129.931 832.678 L129.931 863.303 L137.57 863.303 L137.57 867.238 L117.663 867.238 L117.663 863.303 Z" fill="#000000" fill-rule="nonzero" fill-opacity="1" /><path clip-path="url(#clip620)" d="M147.061 832.678 L165.417 832.678 L165.417 836.613 L151.343 836.613 L151.343 845.085 Q152.362 844.738 153.38 844.576 Q154.399 844.391 155.417 844.391 Q161.204 844.391 164.584 847.562 Q167.964 850.733 167.964 856.15 Q167.964 861.728 164.491 864.83 Q161.019 867.909 154.7 867.909 Q152.524 867.909 150.255 867.539 Q148.01 867.168 145.603 866.427 L145.603 861.728 Q147.686 862.863 149.908 863.418 Q152.13 863.974 154.607 863.974 Q158.612 863.974 160.95 861.867 Q163.288 859.761 163.288 856.15 Q163.288 852.539 160.95 850.432 Q158.612 848.326 154.607 848.326 Q152.732 848.326 150.857 848.742 Q149.005 849.159 147.061 850.039 L147.061 832.678 Z" fill="#000000" fill-rule="nonzero" fill-opacity="1" /><path clip-path="url(#clip620)" d="M119.885 508.639 L136.204 508.639 L136.204 512.574 L114.26 512.574 L114.26 508.639 Q116.922 505.884 121.505 501.255 Q126.112 496.602 127.292 495.259 Q129.538 492.736 130.417 491 Q131.32 489.241 131.32 487.551 Q131.32 484.796 129.376 483.06 Q127.455 481.324 124.353 481.324 Q122.154 481.324 119.7 482.088 Q117.269 482.852 114.492 484.403 L114.492 479.681 Q117.316 478.546 119.769 477.968 Q122.223 477.389 124.26 477.389 Q129.63 477.389 132.825 480.074 Q136.019 482.759 136.019 487.25 Q136.019 489.38 135.209 491.301 Q134.422 493.199 132.316 495.792 Q131.737 496.463 128.635 499.681 Q125.533 502.875 119.885 508.639 Z" fill="#000000" fill-rule="nonzero" fill-opacity="1" /><path clip-path="url(#clip620)" d="M156.019 481.093 Q152.408 481.093 150.579 484.657 Q148.774 488.199 148.774 495.329 Q148.774 502.435 150.579 506 Q152.408 509.542 156.019 509.542 Q159.653 509.542 161.459 506 Q163.288 502.435 163.288 495.329 Q163.288 488.199 161.459 484.657 Q159.653 481.093 156.019 481.093 M156.019 477.389 Q161.829 477.389 164.885 481.995 Q167.964 486.579 167.964 495.329 Q167.964 504.056 164.885 508.662 Q161.829 513.245 156.019 513.245 Q150.209 513.245 147.13 508.662 Q144.075 504.056 144.075 495.329 Q144.075 486.579 147.13 481.995 Q150.209 477.389 156.019 477.389 Z" fill="#000000" fill-rule="nonzero" fill-opacity="1" /><path clip-path="url(#clip620)" d="M120.88 153.975 L137.2 153.975 L137.2 157.91 L115.256 157.91 L115.256 153.975 Q117.918 151.221 122.501 146.591 Q127.107 141.938 128.288 140.596 Q130.533 138.072 131.413 136.336 Q132.316 134.577 132.316 132.887 Q132.316 130.133 130.371 128.397 Q128.45 126.66 125.348 126.66 Q123.149 126.66 120.695 127.424 Q118.265 128.188 115.487 129.739 L115.487 125.017 Q118.311 123.883 120.765 123.304 Q123.218 122.725 125.255 122.725 Q130.626 122.725 133.82 125.41 Q137.015 128.096 137.015 132.586 Q137.015 134.716 136.204 136.637 Q135.417 138.535 133.311 141.128 Q132.732 141.799 129.63 145.017 Q126.529 148.211 120.88 153.975 Z" fill="#000000" fill-rule="nonzero" fill-opacity="1" /><path clip-path="url(#clip620)" d="M147.061 123.35 L165.417 123.35 L165.417 127.285 L151.343 127.285 L151.343 135.758 Q152.362 135.41 153.38 135.248 Q154.399 135.063 155.417 135.063 Q161.204 135.063 164.584 138.234 Q167.964 141.406 167.964 146.822 Q167.964 152.401 164.491 155.503 Q161.019 158.582 154.7 158.582 Q152.524 158.582 150.255 158.211 Q148.01 157.841 145.603 157.1 L145.603 152.401 Q147.686 153.535 149.908 154.091 Q152.13 154.646 154.607 154.646 Q158.612 154.646 160.95 152.54 Q163.288 150.433 163.288 146.822 Q163.288 143.211 160.95 141.105 Q158.612 138.998 154.607 138.998 Q152.732 138.998 150.857 139.415 Q149.005 139.832 147.061 140.711 L147.061 123.35 Z" fill="#000000" fill-rule="nonzero" fill-opacity="1" /><path clip-path="url(#clip620)" d="M16.4842 755.248 L16.4842 748.341 L36.0269 735.164 L16.4842 722.083 L16.4842 715.176 L41.3741 731.981 L64.0042 731.981 L64.0042 738.443 L41.3741 738.443 L16.4842 755.248 Z" fill="#000000" fill-rule="nonzero" fill-opacity="1" /><circle clip-path="url(#clip622)" cx="264.778" cy="1384.24" r="14.4" fill="#009af9" fill-rule="evenodd" fill-opacity="1" stroke="#000000" stroke-opacity="1" stroke-width="3.2"/>
<circle clip-path="url(#clip622)" cx="287.302" cy="1264.46" r="14.4" fill="#009af9" fill-rule="evenodd" fill-opacity="1" stroke="#000000" stroke-opacity="1" stroke-width="3.2"/>
<circle clip-path="url(#clip622)" cx="309.827" cy="1365.09" r="14.4" fill="#009af9" fill-rule="evenodd" fill-opacity="1" stroke="#000000" stroke-opacity="1" stroke-width="3.2"/>
<circle clip-path="url(#clip622)" cx="332.351" cy="1259.29" r="14.4" fill="#009af9" fill-rule="evenodd" fill-opacity="1" stroke="#000000" stroke-opacity="1" stroke-width="3.2"/>
<circle clip-path="url(#clip622)" cx="354.875" cy="1316.74" r="14.4" fill="#009af9" fill-rule="evenodd" fill-opacity="1" stroke="#000000" stroke-opacity="1" stroke-width="3.2"/>
<circle clip-path="url(#clip622)" cx="377.399" cy="1236.78" r="14.4" fill="#009af9" fill-rule="evenodd" fill-opacity="1" stroke="#000000" stroke-opacity="1" stroke-width="3.2"/>
<circle clip-path="url(#clip622)" cx="399.923" cy="1261.25" r="14.4" fill="#009af9" fill-rule="evenodd" fill-opacity="1" stroke="#000000" stroke-opacity="1" stroke-width="3.2"/>
<circle clip-path="url(#clip622)" cx="422.447" cy="1254.77" r="14.4" fill="#009af9" fill-rule="evenodd" fill-opacity="1" stroke="#000000" stroke-opacity="1" stroke-width="3.2"/>
<circle clip-path="url(#clip622)" cx="444.971" cy="1278.7" r="14.4" fill="#009af9" fill-rule="evenodd" fill-opacity="1" stroke="#000000" stroke-opacity="1" stroke-width="3.2"/>
<circle clip-path="url(#clip622)" cx="467.495" cy="1168.47" r="14.4" fill="#009af9" fill-rule="evenodd" fill-opacity="1" stroke="#000000" stroke-opacity="1" stroke-width="3.2"/>
<circle clip-path="url(#clip622)" cx="490.019" cy="1252.69" r="14.4" fill="#009af9" fill-rule="evenodd" fill-opacity="1" stroke="#000000" stroke-opacity="1" stroke-width="3.2"/>
<circle clip-path="url(#clip622)" cx="512.543" cy="1148.11" r="14.4" fill="#009af9" fill-rule="evenodd" fill-opacity="1" stroke="#000000" stroke-opacity="1" stroke-width="3.2"/>
<circle clip-path="url(#clip622)" cx="535.067" cy="1191.23" r="14.4" fill="#009af9" fill-rule="evenodd" fill-opacity="1" stroke="#000000" stroke-opacity="1" stroke-width="3.2"/>
<circle clip-path="url(#clip622)" cx="557.591" cy="1121.66" r="14.4" fill="#009af9" fill-rule="evenodd" fill-opacity="1" stroke="#000000" stroke-opacity="1" stroke-width="3.2"/>
<circle clip-path="url(#clip622)" cx="580.115" cy="1146.64" r="14.4" fill="#009af9" fill-rule="evenodd" fill-opacity="1" stroke="#000000" stroke-opacity="1" stroke-width="3.2"/>
<circle clip-path="url(#clip622)" cx="602.639" cy="1133.51" r="14.4" fill="#009af9" fill-rule="evenodd" fill-opacity="1" stroke="#000000" stroke-opacity="1" stroke-width="3.2"/>
<circle clip-path="url(#clip622)" cx="625.163" cy="1175.62" r="14.4" fill="#009af9" fill-rule="evenodd" fill-opacity="1" stroke="#000000" stroke-opacity="1" stroke-width="3.2"/>
<circle clip-path="url(#clip622)" cx="647.687" cy="1103.21" r="14.4" fill="#009af9" fill-rule="evenodd" fill-opacity="1" stroke="#000000" stroke-opacity="1" stroke-width="3.2"/>
<circle clip-path="url(#clip622)" cx="670.211" cy="1043.56" r="14.4" fill="#009af9" fill-rule="evenodd" fill-opacity="1" stroke="#000000" stroke-opacity="1" stroke-width="3.2"/>
<circle clip-path="url(#clip622)" cx="692.735" cy="1070.34" r="14.4" fill="#009af9" fill-rule="evenodd" fill-opacity="1" stroke="#000000" stroke-opacity="1" stroke-width="3.2"/>
<circle clip-path="url(#clip622)" cx="715.259" cy="1074.04" r="14.4" fill="#009af9" fill-rule="evenodd" fill-opacity="1" stroke="#000000" stroke-opacity="1" stroke-width="3.2"/>
<circle clip-path="url(#clip622)" cx="737.783" cy="1000.51" r="14.4" fill="#009af9" fill-rule="evenodd" fill-opacity="1" stroke="#000000" stroke-opacity="1" stroke-width="3.2"/>
<circle clip-path="url(#clip622)" cx="760.307" cy="1104.2" r="14.4" fill="#009af9" fill-rule="evenodd" fill-opacity="1" stroke="#000000" stroke-opacity="1" stroke-width="3.2"/>
<circle clip-path="url(#clip622)" cx="782.831" cy="1035.62" r="14.4" fill="#009af9" fill-rule="evenodd" fill-opacity="1" stroke="#000000" stroke-opacity="1" stroke-width="3.2"/>
<circle clip-path="url(#clip622)" cx="805.355" cy="997.238" r="14.4" fill="#009af9" fill-rule="evenodd" fill-opacity="1" stroke="#000000" stroke-opacity="1" stroke-width="3.2"/>
<circle clip-path="url(#clip622)" cx="827.879" cy="924.247" r="14.4" fill="#009af9" fill-rule="evenodd" fill-opacity="1" stroke="#000000" stroke-opacity="1" stroke-width="3.2"/>
<circle clip-path="url(#clip622)" cx="850.403" cy="996.855" r="14.4" fill="#009af9" fill-rule="evenodd" fill-opacity="1" stroke="#000000" stroke-opacity="1" stroke-width="3.2"/>
<circle clip-path="url(#clip622)" cx="872.927" cy="924.219" r="14.4" fill="#009af9" fill-rule="evenodd" fill-opacity="1" stroke="#000000" stroke-opacity="1" stroke-width="3.2"/>
<circle clip-path="url(#clip622)" cx="895.451" cy="923.627" r="14.4" fill="#009af9" fill-rule="evenodd" fill-opacity="1" stroke="#000000" stroke-opacity="1" stroke-width="3.2"/>
<circle clip-path="url(#clip622)" cx="917.975" cy="943.486" r="14.4" fill="#009af9" fill-rule="evenodd" fill-opacity="1" stroke="#000000" stroke-opacity="1" stroke-width="3.2"/>
<circle clip-path="url(#clip622)" cx="940.499" cy="914.764" r="14.4" fill="#009af9" fill-rule="evenodd" fill-opacity="1" stroke="#000000" stroke-opacity="1" stroke-width="3.2"/>
<circle clip-path="url(#clip622)" cx="963.023" cy="928.972" r="14.4" fill="#009af9" fill-rule="evenodd" fill-opacity="1" stroke="#000000" stroke-opacity="1" stroke-width="3.2"/>
<circle clip-path="url(#clip622)" cx="985.547" cy="931.939" r="14.4" fill="#009af9" fill-rule="evenodd" fill-opacity="1" stroke="#000000" stroke-opacity="1" stroke-width="3.2"/>
<circle clip-path="url(#clip622)" cx="1008.07" cy="856.056" r="14.4" fill="#009af9" fill-rule="evenodd" fill-opacity="1" stroke="#000000" stroke-opacity="1" stroke-width="3.2"/>
<circle clip-path="url(#clip622)" cx="1030.6" cy="842.874" r="14.4" fill="#009af9" fill-rule="evenodd" fill-opacity="1" stroke="#000000" stroke-opacity="1" stroke-width="3.2"/>
<circle clip-path="url(#clip622)" cx="1053.12" cy="846.903" r="14.4" fill="#009af9" fill-rule="evenodd" fill-opacity="1" stroke="#000000" stroke-opacity="1" stroke-width="3.2"/>
<circle clip-path="url(#clip622)" cx="1075.64" cy="882.276" r="14.4" fill="#009af9" fill-rule="evenodd" fill-opacity="1" stroke="#000000" stroke-opacity="1" stroke-width="3.2"/>
<circle clip-path="url(#clip622)" cx="1098.17" cy="834.723" r="14.4" fill="#009af9" fill-rule="evenodd" fill-opacity="1" stroke="#000000" stroke-opacity="1" stroke-width="3.2"/>
<circle clip-path="url(#clip622)" cx="1120.69" cy="833.636" r="14.4" fill="#009af9" fill-rule="evenodd" fill-opacity="1" stroke="#000000" stroke-opacity="1" stroke-width="3.2"/>
<circle clip-path="url(#clip622)" cx="1143.22" cy="840.057" r="14.4" fill="#009af9" fill-rule="evenodd" fill-opacity="1" stroke="#000000" stroke-opacity="1" stroke-width="3.2"/>
<circle clip-path="url(#clip622)" cx="1165.74" cy="740.579" r="14.4" fill="#009af9" fill-rule="evenodd" fill-opacity="1" stroke="#000000" stroke-opacity="1" stroke-width="3.2"/>
<circle clip-path="url(#clip622)" cx="1188.26" cy="733.258" r="14.4" fill="#009af9" fill-rule="evenodd" fill-opacity="1" stroke="#000000" stroke-opacity="1" stroke-width="3.2"/>
<circle clip-path="url(#clip622)" cx="1210.79" cy="690.18" r="14.4" fill="#009af9" fill-rule="evenodd" fill-opacity="1" stroke="#000000" stroke-opacity="1" stroke-width="3.2"/>
<circle clip-path="url(#clip622)" cx="1233.31" cy="779.235" r="14.4" fill="#009af9" fill-rule="evenodd" fill-opacity="1" stroke="#000000" stroke-opacity="1" stroke-width="3.2"/>
<circle clip-path="url(#clip622)" cx="1255.84" cy="760.145" r="14.4" fill="#009af9" fill-rule="evenodd" fill-opacity="1" stroke="#000000" stroke-opacity="1" stroke-width="3.2"/>
<circle clip-path="url(#clip622)" cx="1278.36" cy="697.245" r="14.4" fill="#009af9" fill-rule="evenodd" fill-opacity="1" stroke="#000000" stroke-opacity="1" stroke-width="3.2"/>
<circle clip-path="url(#clip622)" cx="1300.88" cy="706.127" r="14.4" fill="#009af9" fill-rule="evenodd" fill-opacity="1" stroke="#000000" stroke-opacity="1" stroke-width="3.2"/>
<circle clip-path="url(#clip622)" cx="1323.41" cy="743.425" r="14.4" fill="#009af9" fill-rule="evenodd" fill-opacity="1" stroke="#000000" stroke-opacity="1" stroke-width="3.2"/>
<circle clip-path="url(#clip622)" cx="1345.93" cy="637.372" r="14.4" fill="#009af9" fill-rule="evenodd" fill-opacity="1" stroke="#000000" stroke-opacity="1" stroke-width="3.2"/>
<circle clip-path="url(#clip622)" cx="1368.46" cy="636.419" r="14.4" fill="#009af9" fill-rule="evenodd" fill-opacity="1" stroke="#000000" stroke-opacity="1" stroke-width="3.2"/>
<circle clip-path="url(#clip622)" cx="1390.98" cy="667.342" r="14.4" fill="#009af9" fill-rule="evenodd" fill-opacity="1" stroke="#000000" stroke-opacity="1" stroke-width="3.2"/>
<circle clip-path="url(#clip622)" cx="1413.5" cy="589.298" r="14.4" fill="#009af9" fill-rule="evenodd" fill-opacity="1" stroke="#000000" stroke-opacity="1" stroke-width="3.2"/>
<circle clip-path="url(#clip622)" cx="1436.03" cy="574.657" r="14.4" fill="#009af9" fill-rule="evenodd" fill-opacity="1" stroke="#000000" stroke-opacity="1" stroke-width="3.2"/>
<circle clip-path="url(#clip622)" cx="1458.55" cy="587.099" r="14.4" fill="#009af9" fill-rule="evenodd" fill-opacity="1" stroke="#000000" stroke-opacity="1" stroke-width="3.2"/>
<circle clip-path="url(#clip622)" cx="1481.08" cy="581.318" r="14.4" fill="#009af9" fill-rule="evenodd" fill-opacity="1" stroke="#000000" stroke-opacity="1" stroke-width="3.2"/>
<circle clip-path="url(#clip622)" cx="1503.6" cy="546.894" r="14.4" fill="#009af9" fill-rule="evenodd" fill-opacity="1" stroke="#000000" stroke-opacity="1" stroke-width="3.2"/>
<circle clip-path="url(#clip622)" cx="1526.12" cy="528.397" r="14.4" fill="#009af9" fill-rule="evenodd" fill-opacity="1" stroke="#000000" stroke-opacity="1" stroke-width="3.2"/>
<circle clip-path="url(#clip622)" cx="1548.65" cy="549.042" r="14.4" fill="#009af9" fill-rule="evenodd" fill-opacity="1" stroke="#000000" stroke-opacity="1" stroke-width="3.2"/>
<circle clip-path="url(#clip622)" cx="1571.17" cy="486.893" r="14.4" fill="#009af9" fill-rule="evenodd" fill-opacity="1" stroke="#000000" stroke-opacity="1" stroke-width="3.2"/>
<circle clip-path="url(#clip622)" cx="1593.7" cy="502.902" r="14.4" fill="#009af9" fill-rule="evenodd" fill-opacity="1" stroke="#000000" stroke-opacity="1" stroke-width="3.2"/>
<circle clip-path="url(#clip622)" cx="1616.22" cy="528.455" r="14.4" fill="#009af9" fill-rule="evenodd" fill-opacity="1" stroke="#000000" stroke-opacity="1" stroke-width="3.2"/>
<circle clip-path="url(#clip622)" cx="1638.74" cy="413.223" r="14.4" fill="#009af9" fill-rule="evenodd" fill-opacity="1" stroke="#000000" stroke-opacity="1" stroke-width="3.2"/>
<circle clip-path="url(#clip622)" cx="1661.27" cy="490.135" r="14.4" fill="#009af9" fill-rule="evenodd" fill-opacity="1" stroke="#000000" stroke-opacity="1" stroke-width="3.2"/>
<circle clip-path="url(#clip622)" cx="1683.79" cy="464.278" r="14.4" fill="#009af9" fill-rule="evenodd" fill-opacity="1" stroke="#000000" stroke-opacity="1" stroke-width="3.2"/>
<circle clip-path="url(#clip622)" cx="1706.32" cy="423.636" r="14.4" fill="#009af9" fill-rule="evenodd" fill-opacity="1" stroke="#000000" stroke-opacity="1" stroke-width="3.2"/>
<circle clip-path="url(#clip622)" cx="1728.84" cy="449.487" r="14.4" fill="#009af9" fill-rule="evenodd" fill-opacity="1" stroke="#000000" stroke-opacity="1" stroke-width="3.2"/>
<circle clip-path="url(#clip622)" cx="1751.36" cy="383.49" r="14.4" fill="#009af9" fill-rule="evenodd" fill-opacity="1" stroke="#000000" stroke-opacity="1" stroke-width="3.2"/>
<circle clip-path="url(#clip622)" cx="1773.89" cy="383.433" r="14.4" fill="#009af9" fill-rule="evenodd" fill-opacity="1" stroke="#000000" stroke-opacity="1" stroke-width="3.2"/>
<circle clip-path="url(#clip622)" cx="1796.41" cy="434.143" r="14.4" fill="#009af9" fill-rule="evenodd" fill-opacity="1" stroke="#000000" stroke-opacity="1" stroke-width="3.2"/>
<circle clip-path="url(#clip622)" cx="1818.94" cy="370.66" r="14.4" fill="#009af9" fill-rule="evenodd" fill-opacity="1" stroke="#000000" stroke-opacity="1" stroke-width="3.2"/>
<circle clip-path="url(#clip622)" cx="1841.46" cy="419.89" r="14.4" fill="#009af9" fill-rule="evenodd" fill-opacity="1" stroke="#000000" stroke-opacity="1" stroke-width="3.2"/>
<circle clip-path="url(#clip622)" cx="1863.98" cy="381.145" r="14.4" fill="#009af9" fill-rule="evenodd" fill-opacity="1" stroke="#000000" stroke-opacity="1" stroke-width="3.2"/>
<circle clip-path="url(#clip622)" cx="1886.51" cy="273.134" r="14.4" fill="#009af9" fill-rule="evenodd" fill-opacity="1" stroke="#000000" stroke-opacity="1" stroke-width="3.2"/>
<circle clip-path="url(#clip622)" cx="1909.03" cy="318.761" r="14.4" fill="#009af9" fill-rule="evenodd" fill-opacity="1" stroke="#000000" stroke-opacity="1" stroke-width="3.2"/>
<circle clip-path="url(#clip622)" cx="1931.56" cy="352.924" r="14.4" fill="#009af9" fill-rule="evenodd" fill-opacity="1" stroke="#000000" stroke-opacity="1" stroke-width="3.2"/>
<circle clip-path="url(#clip622)" cx="1954.08" cy="314.557" r="14.4" fill="#009af9" fill-rule="evenodd" fill-opacity="1" stroke="#000000" stroke-opacity="1" stroke-width="3.2"/>
<circle clip-path="url(#clip622)" cx="1976.6" cy="254.352" r="14.4" fill="#009af9" fill-rule="evenodd" fill-opacity="1" stroke="#000000" stroke-opacity="1" stroke-width="3.2"/>
<circle clip-path="url(#clip622)" cx="1999.13" cy="311.983" r="14.4" fill="#009af9" fill-rule="evenodd" fill-opacity="1" stroke="#000000" stroke-opacity="1" stroke-width="3.2"/>
<circle clip-path="url(#clip622)" cx="2021.65" cy="231.945" r="14.4" fill="#009af9" fill-rule="evenodd" fill-opacity="1" stroke="#000000" stroke-opacity="1" stroke-width="3.2"/>
<circle clip-path="url(#clip622)" cx="2044.18" cy="241.037" r="14.4" fill="#009af9" fill-rule="evenodd" fill-opacity="1" stroke="#000000" stroke-opacity="1" stroke-width="3.2"/>
<circle clip-path="url(#clip622)" cx="2066.7" cy="219.695" r="14.4" fill="#009af9" fill-rule="evenodd" fill-opacity="1" stroke="#000000" stroke-opacity="1" stroke-width="3.2"/>
<circle clip-path="url(#clip622)" cx="2089.22" cy="157.584" r="14.4" fill="#009af9" fill-rule="evenodd" fill-opacity="1" stroke="#000000" stroke-opacity="1" stroke-width="3.2"/>
<circle clip-path="url(#clip622)" cx="2111.75" cy="246.832" r="14.4" fill="#009af9" fill-rule="evenodd" fill-opacity="1" stroke="#000000" stroke-opacity="1" stroke-width="3.2"/>
<circle clip-path="url(#clip622)" cx="2134.27" cy="224.933" r="14.4" fill="#009af9" fill-rule="evenodd" fill-opacity="1" stroke="#000000" stroke-opacity="1" stroke-width="3.2"/>
<circle clip-path="url(#clip622)" cx="2156.8" cy="126.854" r="14.4" fill="#009af9" fill-rule="evenodd" fill-opacity="1" stroke="#000000" stroke-opacity="1" stroke-width="3.2"/>
<circle clip-path="url(#clip622)" cx="2179.32" cy="86.1857" r="14.4" fill="#009af9" fill-rule="evenodd" fill-opacity="1" stroke="#000000" stroke-opacity="1" stroke-width="3.2"/>
<circle clip-path="url(#clip622)" cx="2201.84" cy="171.142" r="14.4" fill="#009af9" fill-rule="evenodd" fill-opacity="1" stroke="#000000" stroke-opacity="1" stroke-width="3.2"/>
<circle clip-path="url(#clip622)" cx="2224.37" cy="140.659" r="14.4" fill="#009af9" fill-rule="evenodd" fill-opacity="1" stroke="#000000" stroke-opacity="1" stroke-width="3.2"/>
<circle clip-path="url(#clip622)" cx="2246.89" cy="111.203" r="14.4" fill="#009af9" fill-rule="evenodd" fill-opacity="1" stroke="#000000" stroke-opacity="1" stroke-width="3.2"/>
<circle clip-path="url(#clip622)" cx="2269.42" cy="107.443" r="14.4" fill="#009af9" fill-rule="evenodd" fill-opacity="1" stroke="#000000" stroke-opacity="1" stroke-width="3.2"/>
<circle clip-path="url(#clip622)" cx="2291.94" cy="131.299" r="14.4" fill="#009af9" fill-rule="evenodd" fill-opacity="1" stroke="#000000" stroke-opacity="1" stroke-width="3.2"/>
</svg>
