<?xml version="1.0" encoding="utf-8"?>
<svg xmlns="http://www.w3.org/2000/svg" xmlns:xlink="http://www.w3.org/1999/xlink" width="600" height="400" viewBox="0 0 2400 1600">
<defs>
  <clipPath id="clip200">
    <rect x="0" y="0" width="2400" height="1600"/>
  </clipPath>
</defs>
<path clip-path="url(#clip200)" d="M0 1600 L2400 1600 L2400 0 L0 0  Z" fill="#ffffff" fill-rule="evenodd" fill-opacity="1"/>
<defs>
  <clipPath id="clip201">
    <rect x="480" y="0" width="1681" height="1600"/>
  </clipPath>
</defs>
<path clip-path="url(#clip200)" d="M203.964 1423.18 L2352.76 1423.18 L2352.76 47.2441 L203.964 47.2441  Z" fill="#ffffff" fill-rule="evenodd" fill-opacity="1"/>
<defs>
  <clipPath id="clip202">
    <rect x="203" y="47" width="2150" height="1377"/>
  </clipPath>
</defs>
<polyline clip-path="url(#clip202)" style="stroke:#000000; stroke-linecap:round; stroke-linejoin:round; stroke-width:2; stroke-opacity:0.1; fill:none" points="490.019,1423.18 490.019,47.2441 "/>
<polyline clip-path="url(#clip202)" style="stroke:#000000; stroke-linecap:round; stroke-linejoin:round; stroke-width:2; stroke-opacity:0.1; fill:none" points="940.499,1423.18 940.499,47.2441 "/>
<polyline clip-path="url(#clip202)" style="stroke:#000000; stroke-linecap:round; stroke-linejoin:round; stroke-width:2; stroke-opacity:0.1; fill:none" points="1390.98,1423.18 1390.98,47.2441 "/>
<polyline clip-path="url(#clip202)" style="stroke:#000000; stroke-linecap:round; stroke-linejoin:round; stroke-width:2; stroke-opacity:0.1; fill:none" points="1841.46,1423.18 1841.46,47.2441 "/>
<polyline clip-path="url(#clip202)" style="stroke:#000000; stroke-linecap:round; stroke-linejoin:round; stroke-width:2; stroke-opacity:0.1; fill:none" points="2291.94,1423.18 2291.94,47.2441 "/>
<polyline clip-path="url(#clip202)" style="stroke:#000000; stroke-linecap:round; stroke-linejoin:round; stroke-width:2; stroke-opacity:0.1; fill:none" points="203.964,1191.75 2352.76,1191.75 "/>
<polyline clip-path="url(#clip202)" style="stroke:#000000; stroke-linecap:round; stroke-linejoin:round; stroke-width:2; stroke-opacity:0.1; fill:none" points="203.964,848.558 2352.76,848.558 "/>
<polyline clip-path="url(#clip202)" style="stroke:#000000; stroke-linecap:round; stroke-linejoin:round; stroke-width:2; stroke-opacity:0.1; fill:none" points="203.964,505.364 2352.76,505.364 "/>
<polyline clip-path="url(#clip202)" style="stroke:#000000; stroke-linecap:round; stroke-linejoin:round; stroke-width:2; stroke-opacity:0.1; fill:none" points="203.964,162.17 2352.76,162.17 "/>
<polyline clip-path="url(#clip200)" style="stroke:#000000; stroke-linecap:round; stroke-linejoin:round; stroke-width:4; stroke-opacity:1; fill:none" points="203.964,1423.18 2352.76,1423.18 "/>
<polyline clip-path="url(#clip200)" style="stroke:#000000; stroke-linecap:round; stroke-linejoin:round; stroke-width:4; stroke-opacity:1; fill:none" points="490.019,1423.18 490.019,1404.28 "/>
<polyline clip-path="url(#clip200)" style="stroke:#000000; stroke-linecap:round; stroke-linejoin:round; stroke-width:4; stroke-opacity:1; fill:none" points="940.499,1423.18 940.499,1404.28 "/>
<polyline clip-path="url(#clip200)" style="stroke:#000000; stroke-linecap:round; stroke-linejoin:round; stroke-width:4; stroke-opacity:1; fill:none" points="1390.98,1423.18 1390.98,1404.28 "/>
<polyline clip-path="url(#clip200)" style="stroke:#000000; stroke-linecap:round; stroke-linejoin:round; stroke-width:4; stroke-opacity:1; fill:none" points="1841.46,1423.18 1841.46,1404.28 "/>
<polyline clip-path="url(#clip200)" style="stroke:#000000; stroke-linecap:round; stroke-linejoin:round; stroke-width:4; stroke-opacity:1; fill:none" points="2291.94,1423.18 2291.94,1404.28 "/>
<path clip-path="url(#clip200)" d="M484.672 1481.64 L500.991 1481.64 L500.991 1485.58 L479.047 1485.58 L479.047 1481.64 Q481.709 1478.89 486.292 1474.26 Q490.898 1469.61 492.079 1468.27 Q494.324 1465.74 495.204 1464.01 Q496.107 1462.25 496.107 1460.56 Q496.107 1457.8 494.162 1456.07 Q492.241 1454.33 489.139 1454.33 Q486.94 1454.33 484.486 1455.09 Q482.056 1455.86 479.278 1457.41 L479.278 1452.69 Q482.102 1451.55 484.556 1450.97 Q487.009 1450.39 489.047 1450.39 Q494.417 1450.39 497.611 1453.08 Q500.806 1455.77 500.806 1460.26 Q500.806 1462.39 499.996 1464.31 Q499.209 1466.2 497.102 1468.8 Q496.523 1469.47 493.421 1472.69 Q490.32 1475.88 484.672 1481.64 Z" fill="#000000" fill-rule="nonzero" fill-opacity="1" /><path clip-path="url(#clip200)" d="M943.509 1455.09 L931.703 1473.54 L943.509 1473.54 L943.509 1455.09 M942.282 1451.02 L948.161 1451.02 L948.161 1473.54 L953.092 1473.54 L953.092 1477.43 L948.161 1477.43 L948.161 1485.58 L943.509 1485.58 L943.509 1477.43 L927.907 1477.43 L927.907 1472.92 L942.282 1451.02 Z" fill="#000000" fill-rule="nonzero" fill-opacity="1" /><path clip-path="url(#clip200)" d="M1391.38 1466.44 Q1388.24 1466.44 1386.38 1468.59 Q1384.56 1470.74 1384.56 1474.49 Q1384.56 1478.22 1386.38 1480.39 Q1388.24 1482.55 1391.38 1482.55 Q1394.53 1482.55 1396.36 1480.39 Q1398.21 1478.22 1398.21 1474.49 Q1398.21 1470.74 1396.36 1468.59 Q1394.53 1466.44 1391.38 1466.44 M1400.67 1451.78 L1400.67 1456.04 Q1398.91 1455.21 1397.1 1454.77 Q1395.32 1454.33 1393.56 1454.33 Q1388.93 1454.33 1386.48 1457.45 Q1384.05 1460.58 1383.7 1466.9 Q1385.07 1464.89 1387.13 1463.82 Q1389.19 1462.73 1391.66 1462.73 Q1396.87 1462.73 1399.88 1465.9 Q1402.91 1469.05 1402.91 1474.49 Q1402.91 1479.82 1399.76 1483.03 Q1396.62 1486.25 1391.38 1486.25 Q1385.39 1486.25 1382.22 1481.67 Q1379.05 1477.06 1379.05 1468.33 Q1379.05 1460.14 1382.94 1455.28 Q1386.82 1450.39 1393.38 1450.39 Q1395.13 1450.39 1396.92 1450.74 Q1398.72 1451.09 1400.67 1451.78 Z" fill="#000000" fill-rule="nonzero" fill-opacity="1" /><path clip-path="url(#clip200)" d="M1841.46 1469.17 Q1838.13 1469.17 1836.21 1470.95 Q1834.31 1472.73 1834.31 1475.86 Q1834.31 1478.98 1836.21 1480.77 Q1838.13 1482.55 1841.46 1482.55 Q1844.79 1482.55 1846.72 1480.77 Q1848.64 1478.96 1848.64 1475.86 Q1848.64 1472.73 1846.72 1470.95 Q1844.82 1469.17 1841.46 1469.17 M1836.78 1467.18 Q1833.78 1466.44 1832.09 1464.38 Q1830.42 1462.32 1830.42 1459.35 Q1830.42 1455.21 1833.36 1452.8 Q1836.32 1450.39 1841.46 1450.39 Q1846.62 1450.39 1849.56 1452.8 Q1852.5 1455.21 1852.5 1459.35 Q1852.5 1462.32 1850.81 1464.38 Q1849.15 1466.44 1846.16 1467.18 Q1849.54 1467.96 1851.41 1470.26 Q1853.31 1472.55 1853.31 1475.86 Q1853.31 1480.88 1850.23 1483.57 Q1847.18 1486.25 1841.46 1486.25 Q1835.74 1486.25 1832.66 1483.57 Q1829.61 1480.88 1829.61 1475.86 Q1829.61 1472.55 1831.51 1470.26 Q1833.4 1467.96 1836.78 1467.18 M1835.07 1459.79 Q1835.07 1462.48 1836.74 1463.98 Q1838.43 1465.49 1841.46 1465.49 Q1844.47 1465.49 1846.16 1463.98 Q1847.87 1462.48 1847.87 1459.79 Q1847.87 1457.11 1846.16 1455.6 Q1844.47 1454.1 1841.46 1454.1 Q1838.43 1454.1 1836.74 1455.6 Q1835.07 1457.11 1835.07 1459.79 Z" fill="#000000" fill-rule="nonzero" fill-opacity="1" /><path clip-path="url(#clip200)" d="M2266.63 1481.64 L2274.27 1481.64 L2274.27 1455.28 L2265.96 1456.95 L2265.96 1452.69 L2274.22 1451.02 L2278.9 1451.02 L2278.9 1481.64 L2286.54 1481.64 L2286.54 1485.58 L2266.63 1485.58 L2266.63 1481.64 Z" fill="#000000" fill-rule="nonzero" fill-opacity="1" /><path clip-path="url(#clip200)" d="M2305.98 1454.1 Q2302.37 1454.1 2300.54 1457.66 Q2298.73 1461.2 2298.73 1468.33 Q2298.73 1475.44 2300.54 1479.01 Q2302.37 1482.55 2305.98 1482.55 Q2309.61 1482.55 2311.42 1479.01 Q2313.25 1475.44 2313.25 1468.33 Q2313.25 1461.2 2311.42 1457.66 Q2309.61 1454.1 2305.98 1454.1 M2305.98 1450.39 Q2311.79 1450.39 2314.85 1455 Q2317.92 1459.58 2317.92 1468.33 Q2317.92 1477.06 2314.85 1481.67 Q2311.79 1486.25 2305.98 1486.25 Q2300.17 1486.25 2297.09 1481.67 Q2294.04 1477.06 2294.04 1468.33 Q2294.04 1459.58 2297.09 1455 Q2300.17 1450.39 2305.98 1450.39 Z" fill="#000000" fill-rule="nonzero" fill-opacity="1" /><path clip-path="url(#clip200)" d="M1260.19 1520.52 L1267.09 1520.52 L1278.9 1538.19 L1290.77 1520.52 L1297.68 1520.52 L1282.4 1543.34 L1298.7 1568.04 L1291.79 1568.04 L1278.42 1547.83 L1264.96 1568.04 L1258.02 1568.04 L1274.99 1542.68 L1260.19 1520.52 Z" fill="#000000" fill-rule="nonzero" fill-opacity="1" /><polyline clip-path="url(#clip200)" style="stroke:#000000; stroke-linecap:round; stroke-linejoin:round; stroke-width:4; stroke-opacity:1; fill:none" points="203.964,1423.18 203.964,47.2441 "/>
<polyline clip-path="url(#clip200)" style="stroke:#000000; stroke-linecap:round; stroke-linejoin:round; stroke-width:4; stroke-opacity:1; fill:none" points="203.964,1191.75 222.861,1191.75 "/>
<polyline clip-path="url(#clip200)" style="stroke:#000000; stroke-linecap:round; stroke-linejoin:round; stroke-width:4; stroke-opacity:1; fill:none" points="203.964,848.558 222.861,848.558 "/>
<polyline clip-path="url(#clip200)" style="stroke:#000000; stroke-linecap:round; stroke-linejoin:round; stroke-width:4; stroke-opacity:1; fill:none" points="203.964,505.364 222.861,505.364 "/>
<polyline clip-path="url(#clip200)" style="stroke:#000000; stroke-linecap:round; stroke-linejoin:round; stroke-width:4; stroke-opacity:1; fill:none" points="203.964,162.17 222.861,162.17 "/>
<path clip-path="url(#clip200)" d="M116.668 1205.1 L124.306 1205.1 L124.306 1178.73 L115.996 1180.4 L115.996 1176.14 L124.26 1174.47 L128.936 1174.47 L128.936 1205.1 L136.575 1205.1 L136.575 1209.03 L116.668 1209.03 L116.668 1205.1 Z" fill="#000000" fill-rule="nonzero" fill-opacity="1" /><path clip-path="url(#clip200)" d="M156.019 1177.55 Q152.408 1177.55 150.579 1181.12 Q148.774 1184.66 148.774 1191.79 Q148.774 1198.89 150.579 1202.46 Q152.408 1206 156.019 1206 Q159.653 1206 161.459 1202.46 Q163.288 1198.89 163.288 1191.79 Q163.288 1184.66 161.459 1181.12 Q159.653 1177.55 156.019 1177.55 M156.019 1173.85 Q161.829 1173.85 164.885 1178.45 Q167.964 1183.04 167.964 1191.79 Q167.964 1200.51 164.885 1205.12 Q161.829 1209.7 156.019 1209.7 Q150.209 1209.7 147.13 1205.12 Q144.075 1200.51 144.075 1191.79 Q144.075 1183.04 147.13 1178.45 Q150.209 1173.85 156.019 1173.85 Z" fill="#000000" fill-rule="nonzero" fill-opacity="1" /><path clip-path="url(#clip200)" d="M117.663 861.903 L125.302 861.903 L125.302 835.537 L116.992 837.204 L116.992 832.945 L125.255 831.278 L129.931 831.278 L129.931 861.903 L137.57 861.903 L137.57 865.838 L117.663 865.838 L117.663 861.903 Z" fill="#000000" fill-rule="nonzero" fill-opacity="1" /><path clip-path="url(#clip200)" d="M147.061 831.278 L165.417 831.278 L165.417 835.213 L151.343 835.213 L151.343 843.685 Q152.362 843.338 153.38 843.176 Q154.399 842.991 155.417 842.991 Q161.204 842.991 164.584 846.162 Q167.964 849.333 167.964 854.75 Q167.964 860.329 164.491 863.431 Q161.019 866.509 154.7 866.509 Q152.524 866.509 150.255 866.139 Q148.01 865.768 145.603 865.028 L145.603 860.329 Q147.686 861.463 149.908 862.018 Q152.13 862.574 154.607 862.574 Q158.612 862.574 160.95 860.468 Q163.288 858.361 163.288 854.75 Q163.288 851.139 160.95 849.032 Q158.612 846.926 154.607 846.926 Q152.732 846.926 150.857 847.343 Q149.005 847.759 147.061 848.639 L147.061 831.278 Z" fill="#000000" fill-rule="nonzero" fill-opacity="1" /><path clip-path="url(#clip200)" d="M119.885 518.709 L136.204 518.709 L136.204 522.644 L114.26 522.644 L114.26 518.709 Q116.922 515.954 121.505 511.325 Q126.112 506.672 127.292 505.329 Q129.538 502.806 130.417 501.07 Q131.32 499.311 131.32 497.621 Q131.32 494.867 129.376 493.13 Q127.455 491.394 124.353 491.394 Q122.154 491.394 119.7 492.158 Q117.269 492.922 114.492 494.473 L114.492 489.751 Q117.316 488.617 119.769 488.038 Q122.223 487.459 124.26 487.459 Q129.63 487.459 132.825 490.144 Q136.019 492.83 136.019 497.32 Q136.019 499.45 135.209 501.371 Q134.422 503.269 132.316 505.862 Q131.737 506.533 128.635 509.751 Q125.533 512.945 119.885 518.709 Z" fill="#000000" fill-rule="nonzero" fill-opacity="1" /><path clip-path="url(#clip200)" d="M156.019 491.163 Q152.408 491.163 150.579 494.728 Q148.774 498.269 148.774 505.399 Q148.774 512.505 150.579 516.07 Q152.408 519.612 156.019 519.612 Q159.653 519.612 161.459 516.07 Q163.288 512.505 163.288 505.399 Q163.288 498.269 161.459 494.728 Q159.653 491.163 156.019 491.163 M156.019 487.459 Q161.829 487.459 164.885 492.066 Q167.964 496.649 167.964 505.399 Q167.964 514.126 164.885 518.732 Q161.829 523.315 156.019 523.315 Q150.209 523.315 147.13 518.732 Q144.075 514.126 144.075 505.399 Q144.075 496.649 147.13 492.066 Q150.209 487.459 156.019 487.459 Z" fill="#000000" fill-rule="nonzero" fill-opacity="1" /><path clip-path="url(#clip200)" d="M120.88 175.515 L137.2 175.515 L137.2 179.45 L115.256 179.45 L115.256 175.515 Q117.918 172.761 122.501 168.131 Q127.107 163.478 128.288 162.136 Q130.533 159.613 131.413 157.876 Q132.316 156.117 132.316 154.427 Q132.316 151.673 130.371 149.937 Q128.45 148.201 125.348 148.201 Q123.149 148.201 120.695 148.964 Q118.265 149.728 115.487 151.279 L115.487 146.557 Q118.311 145.423 120.765 144.844 Q123.218 144.265 125.255 144.265 Q130.626 144.265 133.82 146.951 Q137.015 149.636 137.015 154.127 Q137.015 156.256 136.204 158.177 Q135.417 160.076 133.311 162.668 Q132.732 163.339 129.63 166.557 Q126.529 169.751 120.88 175.515 Z" fill="#000000" fill-rule="nonzero" fill-opacity="1" /><path clip-path="url(#clip200)" d="M147.061 144.89 L165.417 144.89 L165.417 148.826 L151.343 148.826 L151.343 157.298 Q152.362 156.951 153.38 156.789 Q154.399 156.603 155.417 156.603 Q161.204 156.603 164.584 159.775 Q167.964 162.946 167.964 168.363 Q167.964 173.941 164.491 177.043 Q161.019 180.122 154.7 180.122 Q152.524 180.122 150.255 179.751 Q148.01 179.381 145.603 178.64 L145.603 173.941 Q147.686 175.075 149.908 175.631 Q152.13 176.187 154.607 176.187 Q158.612 176.187 160.95 174.08 Q163.288 171.974 163.288 168.363 Q163.288 164.751 160.95 162.645 Q158.612 160.539 154.607 160.539 Q152.732 160.539 150.857 160.955 Q149.005 161.372 147.061 162.251 L147.061 144.89 Z" fill="#000000" fill-rule="nonzero" fill-opacity="1" /><path clip-path="url(#clip200)" d="M16.4842 755.248 L16.4842 748.341 L36.0269 735.164 L16.4842 722.083 L16.4842 715.176 L41.3741 731.981 L64.0042 731.981 L64.0042 738.443 L41.3741 738.443 L16.4842 755.248 Z" fill="#000000" fill-rule="nonzero" fill-opacity="1" /><circle clip-path="url(#clip202)" cx="264.778" cy="1384.24" r="14.4" fill="#009af9" fill-rule="evenodd" fill-opacity="1" stroke="#000000" stroke-opacity="1" stroke-width="3.2"/>
<circle clip-path="url(#clip202)" cx="287.302" cy="1339.83" r="14.4" fill="#009af9" fill-rule="evenodd" fill-opacity="1" stroke="#000000" stroke-opacity="1" stroke-width="3.2"/>
<circle clip-path="url(#clip202)" cx="309.827" cy="1280.87" r="14.4" fill="#009af9" fill-rule="evenodd" fill-opacity="1" stroke="#000000" stroke-opacity="1" stroke-width="3.2"/>
<circle clip-path="url(#clip202)" cx="332.351" cy="1268.37" r="14.4" fill="#009af9" fill-rule="evenodd" fill-opacity="1" stroke="#000000" stroke-opacity="1" stroke-width="3.2"/>
<circle clip-path="url(#clip202)" cx="354.875" cy="1233.22" r="14.4" fill="#009af9" fill-rule="evenodd" fill-opacity="1" stroke="#000000" stroke-opacity="1" stroke-width="3.2"/>
<circle clip-path="url(#clip202)" cx="377.399" cy="1292.22" r="14.4" fill="#009af9" fill-rule="evenodd" fill-opacity="1" stroke="#000000" stroke-opacity="1" stroke-width="3.2"/>
<circle clip-path="url(#clip202)" cx="399.923" cy="1289.08" r="14.4" fill="#009af9" fill-rule="evenodd" fill-opacity="1" stroke="#000000" stroke-opacity="1" stroke-width="3.2"/>
<circle clip-path="url(#clip202)" cx="422.447" cy="1186.27" r="14.4" fill="#009af9" fill-rule="evenodd" fill-opacity="1" stroke="#000000" stroke-opacity="1" stroke-width="3.2"/>
<circle clip-path="url(#clip202)" cx="444.971" cy="1203.73" r="14.4" fill="#009af9" fill-rule="evenodd" fill-opacity="1" stroke="#000000" stroke-opacity="1" stroke-width="3.2"/>
<circle clip-path="url(#clip202)" cx="467.495" cy="1221.82" r="14.4" fill="#009af9" fill-rule="evenodd" fill-opacity="1" stroke="#000000" stroke-opacity="1" stroke-width="3.2"/>
<circle clip-path="url(#clip202)" cx="490.019" cy="1239.23" r="14.4" fill="#009af9" fill-rule="evenodd" fill-opacity="1" stroke="#000000" stroke-opacity="1" stroke-width="3.2"/>
<circle clip-path="url(#clip202)" cx="512.543" cy="1207.46" r="14.4" fill="#009af9" fill-rule="evenodd" fill-opacity="1" stroke="#000000" stroke-opacity="1" stroke-width="3.2"/>
<circle clip-path="url(#clip202)" cx="535.067" cy="1127.59" r="14.4" fill="#009af9" fill-rule="evenodd" fill-opacity="1" stroke="#000000" stroke-opacity="1" stroke-width="3.2"/>
<circle clip-path="url(#clip202)" cx="557.591" cy="1107.03" r="14.4" fill="#009af9" fill-rule="evenodd" fill-opacity="1" stroke="#000000" stroke-opacity="1" stroke-width="3.2"/>
<circle clip-path="url(#clip202)" cx="580.115" cy="1068.33" r="14.4" fill="#009af9" fill-rule="evenodd" fill-opacity="1" stroke="#000000" stroke-opacity="1" stroke-width="3.2"/>
<circle clip-path="url(#clip202)" cx="602.639" cy="1083.1" r="14.4" fill="#009af9" fill-rule="evenodd" fill-opacity="1" stroke="#000000" stroke-opacity="1" stroke-width="3.2"/>
<circle clip-path="url(#clip202)" cx="625.163" cy="1168.5" r="14.4" fill="#009af9" fill-rule="evenodd" fill-opacity="1" stroke="#000000" stroke-opacity="1" stroke-width="3.2"/>
<circle clip-path="url(#clip202)" cx="647.687" cy="1068.23" r="14.4" fill="#009af9" fill-rule="evenodd" fill-opacity="1" stroke="#000000" stroke-opacity="1" stroke-width="3.2"/>
<circle clip-path="url(#clip202)" cx="670.211" cy="1138.4" r="14.4" fill="#009af9" fill-rule="evenodd" fill-opacity="1" stroke="#000000" stroke-opacity="1" stroke-width="3.2"/>
<circle clip-path="url(#clip202)" cx="692.735" cy="1036.83" r="14.4" fill="#009af9" fill-rule="evenodd" fill-opacity="1" stroke="#000000" stroke-opacity="1" stroke-width="3.2"/>
<circle clip-path="url(#clip202)" cx="715.259" cy="1019.13" r="14.4" fill="#009af9" fill-rule="evenodd" fill-opacity="1" stroke="#000000" stroke-opacity="1" stroke-width="3.2"/>
<circle clip-path="url(#clip202)" cx="737.783" cy="1077" r="14.4" fill="#009af9" fill-rule="evenodd" fill-opacity="1" stroke="#000000" stroke-opacity="1" stroke-width="3.2"/>
<circle clip-path="url(#clip202)" cx="760.307" cy="1005.15" r="14.4" fill="#009af9" fill-rule="evenodd" fill-opacity="1" stroke="#000000" stroke-opacity="1" stroke-width="3.2"/>
<circle clip-path="url(#clip202)" cx="782.831" cy="984.136" r="14.4" fill="#009af9" fill-rule="evenodd" fill-opacity="1" stroke="#000000" stroke-opacity="1" stroke-width="3.2"/>
<circle clip-path="url(#clip202)" cx="805.355" cy="1056.26" r="14.4" fill="#009af9" fill-rule="evenodd" fill-opacity="1" stroke="#000000" stroke-opacity="1" stroke-width="3.2"/>
<circle clip-path="url(#clip202)" cx="827.879" cy="1032.15" r="14.4" fill="#009af9" fill-rule="evenodd" fill-opacity="1" stroke="#000000" stroke-opacity="1" stroke-width="3.2"/>
<circle clip-path="url(#clip202)" cx="850.403" cy="922.592" r="14.4" fill="#009af9" fill-rule="evenodd" fill-opacity="1" stroke="#000000" stroke-opacity="1" stroke-width="3.2"/>
<circle clip-path="url(#clip202)" cx="872.927" cy="926.019" r="14.4" fill="#009af9" fill-rule="evenodd" fill-opacity="1" stroke="#000000" stroke-opacity="1" stroke-width="3.2"/>
<circle clip-path="url(#clip202)" cx="895.451" cy="962.369" r="14.4" fill="#009af9" fill-rule="evenodd" fill-opacity="1" stroke="#000000" stroke-opacity="1" stroke-width="3.2"/>
<circle clip-path="url(#clip202)" cx="917.975" cy="866.989" r="14.4" fill="#009af9" fill-rule="evenodd" fill-opacity="1" stroke="#000000" stroke-opacity="1" stroke-width="3.2"/>
<circle clip-path="url(#clip202)" cx="940.499" cy="865.81" r="14.4" fill="#009af9" fill-rule="evenodd" fill-opacity="1" stroke="#000000" stroke-opacity="1" stroke-width="3.2"/>
<circle clip-path="url(#clip202)" cx="963.023" cy="954.076" r="14.4" fill="#009af9" fill-rule="evenodd" fill-opacity="1" stroke="#000000" stroke-opacity="1" stroke-width="3.2"/>
<circle clip-path="url(#clip202)" cx="985.547" cy="824.634" r="14.4" fill="#009af9" fill-rule="evenodd" fill-opacity="1" stroke="#000000" stroke-opacity="1" stroke-width="3.2"/>
<circle clip-path="url(#clip202)" cx="1008.07" cy="827.874" r="14.4" fill="#009af9" fill-rule="evenodd" fill-opacity="1" stroke="#000000" stroke-opacity="1" stroke-width="3.2"/>
<circle clip-path="url(#clip202)" cx="1030.6" cy="906.28" r="14.4" fill="#009af9" fill-rule="evenodd" fill-opacity="1" stroke="#000000" stroke-opacity="1" stroke-width="3.2"/>
<circle clip-path="url(#clip202)" cx="1053.12" cy="911.72" r="14.4" fill="#009af9" fill-rule="evenodd" fill-opacity="1" stroke="#000000" stroke-opacity="1" stroke-width="3.2"/>
<circle clip-path="url(#clip202)" cx="1075.64" cy="854.546" r="14.4" fill="#009af9" fill-rule="evenodd" fill-opacity="1" stroke="#000000" stroke-opacity="1" stroke-width="3.2"/>
<circle clip-path="url(#clip202)" cx="1098.17" cy="767.187" r="14.4" fill="#009af9" fill-rule="evenodd" fill-opacity="1" stroke="#000000" stroke-opacity="1" stroke-width="3.2"/>
<circle clip-path="url(#clip202)" cx="1120.69" cy="794.606" r="14.4" fill="#009af9" fill-rule="evenodd" fill-opacity="1" stroke="#000000" stroke-opacity="1" stroke-width="3.2"/>
<circle clip-path="url(#clip202)" cx="1143.22" cy="765.682" r="14.4" fill="#009af9" fill-rule="evenodd" fill-opacity="1" stroke="#000000" stroke-opacity="1" stroke-width="3.2"/>
<circle clip-path="url(#clip202)" cx="1165.74" cy="730.327" r="14.4" fill="#009af9" fill-rule="evenodd" fill-opacity="1" stroke="#000000" stroke-opacity="1" stroke-width="3.2"/>
<circle clip-path="url(#clip202)" cx="1188.26" cy="795.627" r="14.4" fill="#009af9" fill-rule="evenodd" fill-opacity="1" stroke="#000000" stroke-opacity="1" stroke-width="3.2"/>
<circle clip-path="url(#clip202)" cx="1210.79" cy="789.169" r="14.4" fill="#009af9" fill-rule="evenodd" fill-opacity="1" stroke="#000000" stroke-opacity="1" stroke-width="3.2"/>
<circle clip-path="url(#clip202)" cx="1233.31" cy="707.768" r="14.4" fill="#009af9" fill-rule="evenodd" fill-opacity="1" stroke="#000000" stroke-opacity="1" stroke-width="3.2"/>
<circle clip-path="url(#clip202)" cx="1255.84" cy="689.135" r="14.4" fill="#009af9" fill-rule="evenodd" fill-opacity="1" stroke="#000000" stroke-opacity="1" stroke-width="3.2"/>
<circle clip-path="url(#clip202)" cx="1278.36" cy="751.267" r="14.4" fill="#009af9" fill-rule="evenodd" fill-opacity="1" stroke="#000000" stroke-opacity="1" stroke-width="3.2"/>
<circle clip-path="url(#clip202)" cx="1300.88" cy="673.447" r="14.4" fill="#009af9" fill-rule="evenodd" fill-opacity="1" stroke="#000000" stroke-opacity="1" stroke-width="3.2"/>
<circle clip-path="url(#clip202)" cx="1323.41" cy="739.473" r="14.4" fill="#009af9" fill-rule="evenodd" fill-opacity="1" stroke="#000000" stroke-opacity="1" stroke-width="3.2"/>
<circle clip-path="url(#clip202)" cx="1345.93" cy="693.491" r="14.4" fill="#009af9" fill-rule="evenodd" fill-opacity="1" stroke="#000000" stroke-opacity="1" stroke-width="3.2"/>
<circle clip-path="url(#clip202)" cx="1368.46" cy="675.809" r="14.4" fill="#009af9" fill-rule="evenodd" fill-opacity="1" stroke="#000000" stroke-opacity="1" stroke-width="3.2"/>
<circle clip-path="url(#clip202)" cx="1390.98" cy="624.719" r="14.4" fill="#009af9" fill-rule="evenodd" fill-opacity="1" stroke="#000000" stroke-opacity="1" stroke-width="3.2"/>
<circle clip-path="url(#clip202)" cx="1413.5" cy="616.643" r="14.4" fill="#009af9" fill-rule="evenodd" fill-opacity="1" stroke="#000000" stroke-opacity="1" stroke-width="3.2"/>
<circle clip-path="url(#clip202)" cx="1436.03" cy="666.138" r="14.4" fill="#009af9" fill-rule="evenodd" fill-opacity="1" stroke="#000000" stroke-opacity="1" stroke-width="3.2"/>
<circle clip-path="url(#clip202)" cx="1458.55" cy="662.401" r="14.4" fill="#009af9" fill-rule="evenodd" fill-opacity="1" stroke="#000000" stroke-opacity="1" stroke-width="3.2"/>
<circle clip-path="url(#clip202)" cx="1481.08" cy="609.114" r="14.4" fill="#009af9" fill-rule="evenodd" fill-opacity="1" stroke="#000000" stroke-opacity="1" stroke-width="3.2"/>
<circle clip-path="url(#clip202)" cx="1503.6" cy="589.206" r="14.4" fill="#009af9" fill-rule="evenodd" fill-opacity="1" stroke="#000000" stroke-opacity="1" stroke-width="3.2"/>
<circle clip-path="url(#clip202)" cx="1526.12" cy="517.923" r="14.4" fill="#009af9" fill-rule="evenodd" fill-opacity="1" stroke="#000000" stroke-opacity="1" stroke-width="3.2"/>
<circle clip-path="url(#clip202)" cx="1548.65" cy="544.537" r="14.4" fill="#009af9" fill-rule="evenodd" fill-opacity="1" stroke="#000000" stroke-opacity="1" stroke-width="3.2"/>
<circle clip-path="url(#clip202)" cx="1571.17" cy="592.395" r="14.4" fill="#009af9" fill-rule="evenodd" fill-opacity="1" stroke="#000000" stroke-opacity="1" stroke-width="3.2"/>
<circle clip-path="url(#clip202)" cx="1593.7" cy="542.698" r="14.4" fill="#009af9" fill-rule="evenodd" fill-opacity="1" stroke="#000000" stroke-opacity="1" stroke-width="3.2"/>
<circle clip-path="url(#clip202)" cx="1616.22" cy="449.829" r="14.4" fill="#009af9" fill-rule="evenodd" fill-opacity="1" stroke="#000000" stroke-opacity="1" stroke-width="3.2"/>
<circle clip-path="url(#clip202)" cx="1638.74" cy="507.846" r="14.4" fill="#009af9" fill-rule="evenodd" fill-opacity="1" stroke="#000000" stroke-opacity="1" stroke-width="3.2"/>
<circle clip-path="url(#clip202)" cx="1661.27" cy="531.826" r="14.4" fill="#009af9" fill-rule="evenodd" fill-opacity="1" stroke="#000000" stroke-opacity="1" stroke-width="3.2"/>
<circle clip-path="url(#clip202)" cx="1683.79" cy="530.723" r="14.4" fill="#009af9" fill-rule="evenodd" fill-opacity="1" stroke="#000000" stroke-opacity="1" stroke-width="3.2"/>
<circle clip-path="url(#clip202)" cx="1706.32" cy="407.733" r="14.4" fill="#009af9" fill-rule="evenodd" fill-opacity="1" stroke="#000000" stroke-opacity="1" stroke-width="3.2"/>
<circle clip-path="url(#clip202)" cx="1728.84" cy="483.199" r="14.4" fill="#009af9" fill-rule="evenodd" fill-opacity="1" stroke="#000000" stroke-opacity="1" stroke-width="3.2"/>
<circle clip-path="url(#clip202)" cx="1751.36" cy="408.75" r="14.4" fill="#009af9" fill-rule="evenodd" fill-opacity="1" stroke="#000000" stroke-opacity="1" stroke-width="3.2"/>
<circle clip-path="url(#clip202)" cx="1773.89" cy="408.011" r="14.4" fill="#009af9" fill-rule="evenodd" fill-opacity="1" stroke="#000000" stroke-opacity="1" stroke-width="3.2"/>
<circle clip-path="url(#clip202)" cx="1796.41" cy="351.927" r="14.4" fill="#009af9" fill-rule="evenodd" fill-opacity="1" stroke="#000000" stroke-opacity="1" stroke-width="3.2"/>
<circle clip-path="url(#clip202)" cx="1818.94" cy="402.482" r="14.4" fill="#009af9" fill-rule="evenodd" fill-opacity="1" stroke="#000000" stroke-opacity="1" stroke-width="3.2"/>
<circle clip-path="url(#clip202)" cx="1841.46" cy="387.836" r="14.4" fill="#009af9" fill-rule="evenodd" fill-opacity="1" stroke="#000000" stroke-opacity="1" stroke-width="3.2"/>
<circle clip-path="url(#clip202)" cx="1863.98" cy="388.52" r="14.4" fill="#009af9" fill-rule="evenodd" fill-opacity="1" stroke="#000000" stroke-opacity="1" stroke-width="3.2"/>
<circle clip-path="url(#clip202)" cx="1886.51" cy="288.469" r="14.4" fill="#009af9" fill-rule="evenodd" fill-opacity="1" stroke="#000000" stroke-opacity="1" stroke-width="3.2"/>
<circle clip-path="url(#clip202)" cx="1909.03" cy="330.519" r="14.4" fill="#009af9" fill-rule="evenodd" fill-opacity="1" stroke="#000000" stroke-opacity="1" stroke-width="3.2"/>
<circle clip-path="url(#clip202)" cx="1931.56" cy="350.651" r="14.4" fill="#009af9" fill-rule="evenodd" fill-opacity="1" stroke="#000000" stroke-opacity="1" stroke-width="3.2"/>
<circle clip-path="url(#clip202)" cx="1954.08" cy="280.35" r="14.4" fill="#009af9" fill-rule="evenodd" fill-opacity="1" stroke="#000000" stroke-opacity="1" stroke-width="3.2"/>
<circle clip-path="url(#clip202)" cx="1976.6" cy="324.196" r="14.4" fill="#009af9" fill-rule="evenodd" fill-opacity="1" stroke="#000000" stroke-opacity="1" stroke-width="3.2"/>
<circle clip-path="url(#clip202)" cx="1999.13" cy="209.267" r="14.4" fill="#009af9" fill-rule="evenodd" fill-opacity="1" stroke="#000000" stroke-opacity="1" stroke-width="3.2"/>
<circle clip-path="url(#clip202)" cx="2021.65" cy="210.408" r="14.4" fill="#009af9" fill-rule="evenodd" fill-opacity="1" stroke="#000000" stroke-opacity="1" stroke-width="3.2"/>
<circle clip-path="url(#clip202)" cx="2044.18" cy="204.325" r="14.4" fill="#009af9" fill-rule="evenodd" fill-opacity="1" stroke="#000000" stroke-opacity="1" stroke-width="3.2"/>
<circle clip-path="url(#clip202)" cx="2066.7" cy="164.729" r="14.4" fill="#009af9" fill-rule="evenodd" fill-opacity="1" stroke="#000000" stroke-opacity="1" stroke-width="3.2"/>
<circle clip-path="url(#clip202)" cx="2089.22" cy="218.605" r="14.4" fill="#009af9" fill-rule="evenodd" fill-opacity="1" stroke="#000000" stroke-opacity="1" stroke-width="3.2"/>
<circle clip-path="url(#clip202)" cx="2111.75" cy="177.763" r="14.4" fill="#009af9" fill-rule="evenodd" fill-opacity="1" stroke="#000000" stroke-opacity="1" stroke-width="3.2"/>
<circle clip-path="url(#clip202)" cx="2134.27" cy="176.546" r="14.4" fill="#009af9" fill-rule="evenodd" fill-opacity="1" stroke="#000000" stroke-opacity="1" stroke-width="3.2"/>
<circle clip-path="url(#clip202)" cx="2156.8" cy="108.607" r="14.4" fill="#009af9" fill-rule="evenodd" fill-opacity="1" stroke="#000000" stroke-opacity="1" stroke-width="3.2"/>
<circle clip-path="url(#clip202)" cx="2179.32" cy="100.25" r="14.4" fill="#009af9" fill-rule="evenodd" fill-opacity="1" stroke="#000000" stroke-opacity="1" stroke-width="3.2"/>
<circle clip-path="url(#clip202)" cx="2201.84" cy="86.1857" r="14.4" fill="#009af9" fill-rule="evenodd" fill-opacity="1" stroke="#000000" stroke-opacity="1" stroke-width="3.2"/>
<circle clip-path="url(#clip202)" cx="2224.37" cy="182.956" r="14.4" fill="#009af9" fill-rule="evenodd" fill-opacity="1" stroke="#000000" stroke-opacity="1" stroke-width="3.2"/>
<circle clip-path="url(#clip202)" cx="2246.89" cy="187.341" r="14.4" fill="#009af9" fill-rule="evenodd" fill-opacity="1" stroke="#000000" stroke-opacity="1" stroke-width="3.2"/>
<circle clip-path="url(#clip202)" cx="2269.42" cy="151.02" r="14.4" fill="#009af9" fill-rule="evenodd" fill-opacity="1" stroke="#000000" stroke-opacity="1" stroke-width="3.2"/>
<circle clip-path="url(#clip202)" cx="2291.94" cy="135.284" r="14.4" fill="#009af9" fill-rule="evenodd" fill-opacity="1" stroke="#000000" stroke-opacity="1" stroke-width="3.2"/>
</svg>
