<?xml version="1.0" encoding="utf-8"?>
<svg xmlns="http://www.w3.org/2000/svg" xmlns:xlink="http://www.w3.org/1999/xlink" width="600" height="400" viewBox="0 0 2400 1600">
<defs>
  <clipPath id="clip400">
    <rect x="0" y="0" width="2400" height="1600"/>
  </clipPath>
</defs>
<path clip-path="url(#clip400)" d="M0 1600 L2400 1600 L2400 0 L0 0  Z" fill="#ffffff" fill-rule="evenodd" fill-opacity="1"/>
<defs>
  <clipPath id="clip401">
    <rect x="480" y="0" width="1681" height="1600"/>
  </clipPath>
</defs>
<path clip-path="url(#clip400)" d="M203.964 1423.18 L2352.76 1423.18 L2352.76 47.2441 L203.964 47.2441  Z" fill="#ffffff" fill-rule="evenodd" fill-opacity="1"/>
<defs>
  <clipPath id="clip402">
    <rect x="203" y="47" width="2150" height="1377"/>
  </clipPath>
</defs>
<polyline clip-path="url(#clip402)" style="stroke:#000000; stroke-linecap:round; stroke-linejoin:round; stroke-width:2; stroke-opacity:0.1; fill:none" points="490.019,1423.18 490.019,47.2441 "/>
<polyline clip-path="url(#clip402)" style="stroke:#000000; stroke-linecap:round; stroke-linejoin:round; stroke-width:2; stroke-opacity:0.1; fill:none" points="940.499,1423.18 940.499,47.2441 "/>
<polyline clip-path="url(#clip402)" style="stroke:#000000; stroke-linecap:round; stroke-linejoin:round; stroke-width:2; stroke-opacity:0.1; fill:none" points="1390.98,1423.18 1390.98,47.2441 "/>
<polyline clip-path="url(#clip402)" style="stroke:#000000; stroke-linecap:round; stroke-linejoin:round; stroke-width:2; stroke-opacity:0.1; fill:none" points="1841.46,1423.18 1841.46,47.2441 "/>
<polyline clip-path="url(#clip402)" style="stroke:#000000; stroke-linecap:round; stroke-linejoin:round; stroke-width:2; stroke-opacity:0.1; fill:none" points="2291.94,1423.18 2291.94,47.2441 "/>
<polyline clip-path="url(#clip402)" style="stroke:#000000; stroke-linecap:round; stroke-linejoin:round; stroke-width:2; stroke-opacity:0.1; fill:none" points="203.964,1211.32 2352.76,1211.32 "/>
<polyline clip-path="url(#clip402)" style="stroke:#000000; stroke-linecap:round; stroke-linejoin:round; stroke-width:2; stroke-opacity:0.1; fill:none" points="203.964,865.08 2352.76,865.08 "/>
<polyline clip-path="url(#clip402)" style="stroke:#000000; stroke-linecap:round; stroke-linejoin:round; stroke-width:2; stroke-opacity:0.1; fill:none" points="203.964,518.836 2352.76,518.836 "/>
<polyline clip-path="url(#clip402)" style="stroke:#000000; stroke-linecap:round; stroke-linejoin:round; stroke-width:2; stroke-opacity:0.1; fill:none" points="203.964,172.592 2352.76,172.592 "/>
<polyline clip-path="url(#clip400)" style="stroke:#000000; stroke-linecap:round; stroke-linejoin:round; stroke-width:4; stroke-opacity:1; fill:none" points="203.964,1423.18 2352.76,1423.18 "/>
<polyline clip-path="url(#clip400)" style="stroke:#000000; stroke-linecap:round; stroke-linejoin:round; stroke-width:4; stroke-opacity:1; fill:none" points="490.019,1423.18 490.019,1404.28 "/>
<polyline clip-path="url(#clip400)" style="stroke:#000000; stroke-linecap:round; stroke-linejoin:round; stroke-width:4; stroke-opacity:1; fill:none" points="940.499,1423.18 940.499,1404.28 "/>
<polyline clip-path="url(#clip400)" style="stroke:#000000; stroke-linecap:round; stroke-linejoin:round; stroke-width:4; stroke-opacity:1; fill:none" points="1390.98,1423.18 1390.98,1404.28 "/>
<polyline clip-path="url(#clip400)" style="stroke:#000000; stroke-linecap:round; stroke-linejoin:round; stroke-width:4; stroke-opacity:1; fill:none" points="1841.46,1423.18 1841.46,1404.28 "/>
<polyline clip-path="url(#clip400)" style="stroke:#000000; stroke-linecap:round; stroke-linejoin:round; stroke-width:4; stroke-opacity:1; fill:none" points="2291.94,1423.18 2291.94,1404.28 "/>
<path clip-path="url(#clip400)" d="M484.672 1481.64 L500.991 1481.64 L500.991 1485.58 L479.047 1485.58 L479.047 1481.64 Q481.709 1478.89 486.292 1474.26 Q490.898 1469.61 492.079 1468.27 Q494.324 1465.74 495.204 1464.01 Q496.107 1462.25 496.107 1460.56 Q496.107 1457.8 494.162 1456.07 Q492.241 1454.33 489.139 1454.33 Q486.94 1454.33 484.486 1455.09 Q482.056 1455.86 479.278 1457.41 L479.278 1452.69 Q482.102 1451.55 484.556 1450.97 Q487.009 1450.39 489.047 1450.39 Q494.417 1450.39 497.611 1453.08 Q500.806 1455.77 500.806 1460.26 Q500.806 1462.39 499.996 1464.31 Q499.209 1466.2 497.102 1468.8 Q496.523 1469.47 493.421 1472.69 Q490.32 1475.88 484.672 1481.64 Z" fill="#000000" fill-rule="nonzero" fill-opacity="1" /><path clip-path="url(#clip400)" d="M943.509 1455.09 L931.703 1473.54 L943.509 1473.54 L943.509 1455.09 M942.282 1451.02 L948.161 1451.02 L948.161 1473.54 L953.092 1473.54 L953.092 1477.43 L948.161 1477.43 L948.161 1485.58 L943.509 1485.58 L943.509 1477.43 L927.907 1477.43 L927.907 1472.92 L942.282 1451.02 Z" fill="#000000" fill-rule="nonzero" fill-opacity="1" /><path clip-path="url(#clip400)" d="M1391.38 1466.44 Q1388.24 1466.44 1386.38 1468.59 Q1384.56 1470.74 1384.56 1474.49 Q1384.56 1478.22 1386.38 1480.39 Q1388.24 1482.55 1391.38 1482.55 Q1394.53 1482.55 1396.36 1480.39 Q1398.21 1478.22 1398.21 1474.49 Q1398.21 1470.74 1396.36 1468.59 Q1394.53 1466.44 1391.38 1466.44 M1400.67 1451.78 L1400.67 1456.04 Q1398.91 1455.21 1397.1 1454.77 Q1395.32 1454.33 1393.56 1454.33 Q1388.93 1454.33 1386.48 1457.45 Q1384.05 1460.58 1383.7 1466.9 Q1385.07 1464.89 1387.13 1463.82 Q1389.19 1462.73 1391.66 1462.73 Q1396.87 1462.73 1399.88 1465.9 Q1402.91 1469.05 1402.91 1474.49 Q1402.91 1479.82 1399.76 1483.03 Q1396.62 1486.25 1391.38 1486.25 Q1385.39 1486.25 1382.22 1481.67 Q1379.05 1477.06 1379.05 1468.33 Q1379.05 1460.14 1382.94 1455.28 Q1386.82 1450.39 1393.38 1450.39 Q1395.13 1450.39 1396.92 1450.74 Q1398.72 1451.09 1400.67 1451.78 Z" fill="#000000" fill-rule="nonzero" fill-opacity="1" /><path clip-path="url(#clip400)" d="M1841.46 1469.17 Q1838.13 1469.17 1836.21 1470.95 Q1834.31 1472.73 1834.31 1475.86 Q1834.31 1478.98 1836.21 1480.77 Q1838.13 1482.55 1841.46 1482.55 Q1844.79 1482.55 1846.72 1480.77 Q1848.64 1478.96 1848.64 1475.86 Q1848.64 1472.73 1846.72 1470.95 Q1844.82 1469.17 1841.46 1469.17 M1836.78 1467.18 Q1833.78 1466.44 1832.09 1464.38 Q1830.42 1462.32 1830.42 1459.35 Q1830.42 1455.21 1833.36 1452.8 Q1836.32 1450.39 1841.46 1450.39 Q1846.62 1450.39 1849.56 1452.8 Q1852.5 1455.21 1852.5 1459.35 Q1852.5 1462.32 1850.81 1464.38 Q1849.15 1466.44 1846.16 1467.18 Q1849.54 1467.96 1851.41 1470.26 Q1853.31 1472.55 1853.31 1475.86 Q1853.31 1480.88 1850.23 1483.57 Q1847.18 1486.25 1841.46 1486.25 Q1835.74 1486.25 1832.66 1483.57 Q1829.61 1480.88 1829.61 1475.86 Q1829.61 1472.55 1831.51 1470.26 Q1833.4 1467.96 1836.78 1467.18 M1835.07 1459.79 Q1835.07 1462.48 1836.74 1463.98 Q1838.43 1465.49 1841.46 1465.49 Q1844.47 1465.49 1846.16 1463.98 Q1847.87 1462.48 1847.87 1459.79 Q1847.87 1457.11 1846.16 1455.6 Q1844.47 1454.1 1841.46 1454.1 Q1838.43 1454.1 1836.74 1455.6 Q1835.07 1457.11 1835.07 1459.79 Z" fill="#000000" fill-rule="nonzero" fill-opacity="1" /><path clip-path="url(#clip400)" d="M2266.63 1481.64 L2274.27 1481.64 L2274.27 1455.28 L2265.96 1456.95 L2265.96 1452.69 L2274.22 1451.02 L2278.9 1451.02 L2278.9 1481.64 L2286.54 1481.64 L2286.54 1485.58 L2266.63 1485.58 L2266.63 1481.64 Z" fill="#000000" fill-rule="nonzero" fill-opacity="1" /><path clip-path="url(#clip400)" d="M2305.98 1454.1 Q2302.37 1454.1 2300.54 1457.66 Q2298.73 1461.2 2298.73 1468.33 Q2298.73 1475.44 2300.54 1479.01 Q2302.37 1482.55 2305.98 1482.55 Q2309.61 1482.55 2311.42 1479.01 Q2313.25 1475.44 2313.25 1468.33 Q2313.25 1461.2 2311.42 1457.66 Q2309.61 1454.1 2305.98 1454.1 M2305.98 1450.39 Q2311.79 1450.39 2314.85 1455 Q2317.92 1459.58 2317.92 1468.33 Q2317.92 1477.06 2314.85 1481.67 Q2311.79 1486.25 2305.98 1486.25 Q2300.17 1486.25 2297.09 1481.67 Q2294.04 1477.06 2294.04 1468.33 Q2294.04 1459.58 2297.09 1455 Q2300.17 1450.39 2305.98 1450.39 Z" fill="#000000" fill-rule="nonzero" fill-opacity="1" /><path clip-path="url(#clip400)" d="M1260.19 1520.52 L1267.09 1520.52 L1278.9 1538.19 L1290.77 1520.52 L1297.68 1520.52 L1282.4 1543.34 L1298.7 1568.04 L1291.79 1568.04 L1278.42 1547.83 L1264.96 1568.04 L1258.02 1568.04 L1274.99 1542.68 L1260.19 1520.52 Z" fill="#000000" fill-rule="nonzero" fill-opacity="1" /><polyline clip-path="url(#clip400)" style="stroke:#000000; stroke-linecap:round; stroke-linejoin:round; stroke-width:4; stroke-opacity:1; fill:none" points="203.964,1423.18 203.964,47.2441 "/>
<polyline clip-path="url(#clip400)" style="stroke:#000000; stroke-linecap:round; stroke-linejoin:round; stroke-width:4; stroke-opacity:1; fill:none" points="203.964,1211.32 222.861,1211.32 "/>
<polyline clip-path="url(#clip400)" style="stroke:#000000; stroke-linecap:round; stroke-linejoin:round; stroke-width:4; stroke-opacity:1; fill:none" points="203.964,865.08 222.861,865.08 "/>
<polyline clip-path="url(#clip400)" style="stroke:#000000; stroke-linecap:round; stroke-linejoin:round; stroke-width:4; stroke-opacity:1; fill:none" points="203.964,518.836 222.861,518.836 "/>
<polyline clip-path="url(#clip400)" style="stroke:#000000; stroke-linecap:round; stroke-linejoin:round; stroke-width:4; stroke-opacity:1; fill:none" points="203.964,172.592 222.861,172.592 "/>
<path clip-path="url(#clip400)" d="M116.668 1224.67 L124.306 1224.67 L124.306 1198.3 L115.996 1199.97 L115.996 1195.71 L124.26 1194.04 L128.936 1194.04 L128.936 1224.67 L136.575 1224.67 L136.575 1228.6 L116.668 1228.6 L116.668 1224.67 Z" fill="#000000" fill-rule="nonzero" fill-opacity="1" /><path clip-path="url(#clip400)" d="M156.019 1197.12 Q152.408 1197.12 150.579 1200.69 Q148.774 1204.23 148.774 1211.36 Q148.774 1218.47 150.579 1222.03 Q152.408 1225.57 156.019 1225.57 Q159.653 1225.57 161.459 1222.03 Q163.288 1218.47 163.288 1211.36 Q163.288 1204.23 161.459 1200.69 Q159.653 1197.12 156.019 1197.12 M156.019 1193.42 Q161.829 1193.42 164.885 1198.03 Q167.964 1202.61 167.964 1211.36 Q167.964 1220.09 164.885 1224.69 Q161.829 1229.28 156.019 1229.28 Q150.209 1229.28 147.13 1224.69 Q144.075 1220.09 144.075 1211.36 Q144.075 1202.61 147.13 1198.03 Q150.209 1193.42 156.019 1193.42 Z" fill="#000000" fill-rule="nonzero" fill-opacity="1" /><path clip-path="url(#clip400)" d="M117.663 878.425 L125.302 878.425 L125.302 852.059 L116.992 853.726 L116.992 849.467 L125.255 847.8 L129.931 847.8 L129.931 878.425 L137.57 878.425 L137.57 882.36 L117.663 882.36 L117.663 878.425 Z" fill="#000000" fill-rule="nonzero" fill-opacity="1" /><path clip-path="url(#clip400)" d="M147.061 847.8 L165.417 847.8 L165.417 851.735 L151.343 851.735 L151.343 860.207 Q152.362 859.86 153.38 859.698 Q154.399 859.513 155.417 859.513 Q161.204 859.513 164.584 862.684 Q167.964 865.856 167.964 871.272 Q167.964 876.851 164.491 879.953 Q161.019 883.031 154.7 883.031 Q152.524 883.031 150.255 882.661 Q148.01 882.291 145.603 881.55 L145.603 876.851 Q147.686 877.985 149.908 878.541 Q152.13 879.096 154.607 879.096 Q158.612 879.096 160.95 876.99 Q163.288 874.883 163.288 871.272 Q163.288 867.661 160.95 865.555 Q158.612 863.448 154.607 863.448 Q152.732 863.448 150.857 863.865 Q149.005 864.282 147.061 865.161 L147.061 847.8 Z" fill="#000000" fill-rule="nonzero" fill-opacity="1" /><path clip-path="url(#clip400)" d="M119.885 532.181 L136.204 532.181 L136.204 536.116 L114.26 536.116 L114.26 532.181 Q116.922 529.427 121.505 524.797 Q126.112 520.144 127.292 518.802 Q129.538 516.278 130.417 514.542 Q131.32 512.783 131.32 511.093 Q131.32 508.339 129.376 506.603 Q127.455 504.866 124.353 504.866 Q122.154 504.866 119.7 505.63 Q117.269 506.394 114.492 507.945 L114.492 503.223 Q117.316 502.089 119.769 501.51 Q122.223 500.931 124.26 500.931 Q129.63 500.931 132.825 503.616 Q136.019 506.302 136.019 510.792 Q136.019 512.922 135.209 514.843 Q134.422 516.741 132.316 519.334 Q131.737 520.005 128.635 523.223 Q125.533 526.417 119.885 532.181 Z" fill="#000000" fill-rule="nonzero" fill-opacity="1" /><path clip-path="url(#clip400)" d="M156.019 504.635 Q152.408 504.635 150.579 508.2 Q148.774 511.741 148.774 518.871 Q148.774 525.977 150.579 529.542 Q152.408 533.084 156.019 533.084 Q159.653 533.084 161.459 529.542 Q163.288 525.977 163.288 518.871 Q163.288 511.741 161.459 508.2 Q159.653 504.635 156.019 504.635 M156.019 500.931 Q161.829 500.931 164.885 505.538 Q167.964 510.121 167.964 518.871 Q167.964 527.598 164.885 532.204 Q161.829 536.788 156.019 536.788 Q150.209 536.788 147.13 532.204 Q144.075 527.598 144.075 518.871 Q144.075 510.121 147.13 505.538 Q150.209 500.931 156.019 500.931 Z" fill="#000000" fill-rule="nonzero" fill-opacity="1" /><path clip-path="url(#clip400)" d="M120.88 185.937 L137.2 185.937 L137.2 189.872 L115.256 189.872 L115.256 185.937 Q117.918 183.183 122.501 178.553 Q127.107 173.9 128.288 172.558 Q130.533 170.035 131.413 168.298 Q132.316 166.539 132.316 164.849 Q132.316 162.095 130.371 160.359 Q128.45 158.623 125.348 158.623 Q123.149 158.623 120.695 159.387 Q118.265 160.15 115.487 161.701 L115.487 156.979 Q118.311 155.845 120.765 155.266 Q123.218 154.687 125.255 154.687 Q130.626 154.687 133.82 157.373 Q137.015 160.058 137.015 164.549 Q137.015 166.678 136.204 168.599 Q135.417 170.498 133.311 173.09 Q132.732 173.761 129.63 176.979 Q126.529 180.173 120.88 185.937 Z" fill="#000000" fill-rule="nonzero" fill-opacity="1" /><path clip-path="url(#clip400)" d="M147.061 155.312 L165.417 155.312 L165.417 159.248 L151.343 159.248 L151.343 167.72 Q152.362 167.373 153.38 167.211 Q154.399 167.025 155.417 167.025 Q161.204 167.025 164.584 170.197 Q167.964 173.368 167.964 178.785 Q167.964 184.363 164.491 187.465 Q161.019 190.544 154.7 190.544 Q152.524 190.544 150.255 190.173 Q148.01 189.803 145.603 189.062 L145.603 184.363 Q147.686 185.497 149.908 186.053 Q152.13 186.609 154.607 186.609 Q158.612 186.609 160.95 184.502 Q163.288 182.396 163.288 178.785 Q163.288 175.173 160.95 173.067 Q158.612 170.961 154.607 170.961 Q152.732 170.961 150.857 171.377 Q149.005 171.794 147.061 172.673 L147.061 155.312 Z" fill="#000000" fill-rule="nonzero" fill-opacity="1" /><path clip-path="url(#clip400)" d="M16.4842 755.248 L16.4842 748.341 L36.0269 735.164 L16.4842 722.083 L16.4842 715.176 L41.3741 731.981 L64.0042 731.981 L64.0042 738.443 L41.3741 738.443 L16.4842 755.248 Z" fill="#000000" fill-rule="nonzero" fill-opacity="1" /><circle clip-path="url(#clip402)" cx="264.778" cy="1384.24" r="14.4" fill="#009af9" fill-rule="evenodd" fill-opacity="1" stroke="#000000" stroke-opacity="1" stroke-width="3.2"/>
<circle clip-path="url(#clip402)" cx="287.302" cy="1374.58" r="14.4" fill="#009af9" fill-rule="evenodd" fill-opacity="1" stroke="#000000" stroke-opacity="1" stroke-width="3.2"/>
<circle clip-path="url(#clip402)" cx="309.827" cy="1320.52" r="14.4" fill="#009af9" fill-rule="evenodd" fill-opacity="1" stroke="#000000" stroke-opacity="1" stroke-width="3.2"/>
<circle clip-path="url(#clip402)" cx="332.351" cy="1331.41" r="14.4" fill="#009af9" fill-rule="evenodd" fill-opacity="1" stroke="#000000" stroke-opacity="1" stroke-width="3.2"/>
<circle clip-path="url(#clip402)" cx="354.875" cy="1331.99" r="14.4" fill="#009af9" fill-rule="evenodd" fill-opacity="1" stroke="#000000" stroke-opacity="1" stroke-width="3.2"/>
<circle clip-path="url(#clip402)" cx="377.399" cy="1343.09" r="14.4" fill="#009af9" fill-rule="evenodd" fill-opacity="1" stroke="#000000" stroke-opacity="1" stroke-width="3.2"/>
<circle clip-path="url(#clip402)" cx="399.923" cy="1314.99" r="14.4" fill="#009af9" fill-rule="evenodd" fill-opacity="1" stroke="#000000" stroke-opacity="1" stroke-width="3.2"/>
<circle clip-path="url(#clip402)" cx="422.447" cy="1247.17" r="14.4" fill="#009af9" fill-rule="evenodd" fill-opacity="1" stroke="#000000" stroke-opacity="1" stroke-width="3.2"/>
<circle clip-path="url(#clip402)" cx="444.971" cy="1186.07" r="14.4" fill="#009af9" fill-rule="evenodd" fill-opacity="1" stroke="#000000" stroke-opacity="1" stroke-width="3.2"/>
<circle clip-path="url(#clip402)" cx="467.495" cy="1200.67" r="14.4" fill="#009af9" fill-rule="evenodd" fill-opacity="1" stroke="#000000" stroke-opacity="1" stroke-width="3.2"/>
<circle clip-path="url(#clip402)" cx="490.019" cy="1231.98" r="14.4" fill="#009af9" fill-rule="evenodd" fill-opacity="1" stroke="#000000" stroke-opacity="1" stroke-width="3.2"/>
<circle clip-path="url(#clip402)" cx="512.543" cy="1245.69" r="14.4" fill="#009af9" fill-rule="evenodd" fill-opacity="1" stroke="#000000" stroke-opacity="1" stroke-width="3.2"/>
<circle clip-path="url(#clip402)" cx="535.067" cy="1188.62" r="14.4" fill="#009af9" fill-rule="evenodd" fill-opacity="1" stroke="#000000" stroke-opacity="1" stroke-width="3.2"/>
<circle clip-path="url(#clip402)" cx="557.591" cy="1105.49" r="14.4" fill="#009af9" fill-rule="evenodd" fill-opacity="1" stroke="#000000" stroke-opacity="1" stroke-width="3.2"/>
<circle clip-path="url(#clip402)" cx="580.115" cy="1218.3" r="14.4" fill="#009af9" fill-rule="evenodd" fill-opacity="1" stroke="#000000" stroke-opacity="1" stroke-width="3.2"/>
<circle clip-path="url(#clip402)" cx="602.639" cy="1142.67" r="14.4" fill="#009af9" fill-rule="evenodd" fill-opacity="1" stroke="#000000" stroke-opacity="1" stroke-width="3.2"/>
<circle clip-path="url(#clip402)" cx="625.163" cy="1105.78" r="14.4" fill="#009af9" fill-rule="evenodd" fill-opacity="1" stroke="#000000" stroke-opacity="1" stroke-width="3.2"/>
<circle clip-path="url(#clip402)" cx="647.687" cy="1156.03" r="14.4" fill="#009af9" fill-rule="evenodd" fill-opacity="1" stroke="#000000" stroke-opacity="1" stroke-width="3.2"/>
<circle clip-path="url(#clip402)" cx="670.211" cy="1166.17" r="14.4" fill="#009af9" fill-rule="evenodd" fill-opacity="1" stroke="#000000" stroke-opacity="1" stroke-width="3.2"/>
<circle clip-path="url(#clip402)" cx="692.735" cy="1076.17" r="14.4" fill="#009af9" fill-rule="evenodd" fill-opacity="1" stroke="#000000" stroke-opacity="1" stroke-width="3.2"/>
<circle clip-path="url(#clip402)" cx="715.259" cy="1004.8" r="14.4" fill="#009af9" fill-rule="evenodd" fill-opacity="1" stroke="#000000" stroke-opacity="1" stroke-width="3.2"/>
<circle clip-path="url(#clip402)" cx="737.783" cy="1002.1" r="14.4" fill="#009af9" fill-rule="evenodd" fill-opacity="1" stroke="#000000" stroke-opacity="1" stroke-width="3.2"/>
<circle clip-path="url(#clip402)" cx="760.307" cy="1074.28" r="14.4" fill="#009af9" fill-rule="evenodd" fill-opacity="1" stroke="#000000" stroke-opacity="1" stroke-width="3.2"/>
<circle clip-path="url(#clip402)" cx="782.831" cy="1004.01" r="14.4" fill="#009af9" fill-rule="evenodd" fill-opacity="1" stroke="#000000" stroke-opacity="1" stroke-width="3.2"/>
<circle clip-path="url(#clip402)" cx="805.355" cy="981.821" r="14.4" fill="#009af9" fill-rule="evenodd" fill-opacity="1" stroke="#000000" stroke-opacity="1" stroke-width="3.2"/>
<circle clip-path="url(#clip402)" cx="827.879" cy="1038.59" r="14.4" fill="#009af9" fill-rule="evenodd" fill-opacity="1" stroke="#000000" stroke-opacity="1" stroke-width="3.2"/>
<circle clip-path="url(#clip402)" cx="850.403" cy="965.103" r="14.4" fill="#009af9" fill-rule="evenodd" fill-opacity="1" stroke="#000000" stroke-opacity="1" stroke-width="3.2"/>
<circle clip-path="url(#clip402)" cx="872.927" cy="938.683" r="14.4" fill="#009af9" fill-rule="evenodd" fill-opacity="1" stroke="#000000" stroke-opacity="1" stroke-width="3.2"/>
<circle clip-path="url(#clip402)" cx="895.451" cy="1030.54" r="14.4" fill="#009af9" fill-rule="evenodd" fill-opacity="1" stroke="#000000" stroke-opacity="1" stroke-width="3.2"/>
<circle clip-path="url(#clip402)" cx="917.975" cy="936.245" r="14.4" fill="#009af9" fill-rule="evenodd" fill-opacity="1" stroke="#000000" stroke-opacity="1" stroke-width="3.2"/>
<circle clip-path="url(#clip402)" cx="940.499" cy="903.881" r="14.4" fill="#009af9" fill-rule="evenodd" fill-opacity="1" stroke="#000000" stroke-opacity="1" stroke-width="3.2"/>
<circle clip-path="url(#clip402)" cx="963.023" cy="871.195" r="14.4" fill="#009af9" fill-rule="evenodd" fill-opacity="1" stroke="#000000" stroke-opacity="1" stroke-width="3.2"/>
<circle clip-path="url(#clip402)" cx="985.547" cy="869.006" r="14.4" fill="#009af9" fill-rule="evenodd" fill-opacity="1" stroke="#000000" stroke-opacity="1" stroke-width="3.2"/>
<circle clip-path="url(#clip402)" cx="1008.07" cy="902.659" r="14.4" fill="#009af9" fill-rule="evenodd" fill-opacity="1" stroke="#000000" stroke-opacity="1" stroke-width="3.2"/>
<circle clip-path="url(#clip402)" cx="1030.6" cy="881.325" r="14.4" fill="#009af9" fill-rule="evenodd" fill-opacity="1" stroke="#000000" stroke-opacity="1" stroke-width="3.2"/>
<circle clip-path="url(#clip402)" cx="1053.12" cy="917.247" r="14.4" fill="#009af9" fill-rule="evenodd" fill-opacity="1" stroke="#000000" stroke-opacity="1" stroke-width="3.2"/>
<circle clip-path="url(#clip402)" cx="1075.64" cy="916.217" r="14.4" fill="#009af9" fill-rule="evenodd" fill-opacity="1" stroke="#000000" stroke-opacity="1" stroke-width="3.2"/>
<circle clip-path="url(#clip402)" cx="1098.17" cy="810.034" r="14.4" fill="#009af9" fill-rule="evenodd" fill-opacity="1" stroke="#000000" stroke-opacity="1" stroke-width="3.2"/>
<circle clip-path="url(#clip402)" cx="1120.69" cy="797.299" r="14.4" fill="#009af9" fill-rule="evenodd" fill-opacity="1" stroke="#000000" stroke-opacity="1" stroke-width="3.2"/>
<circle clip-path="url(#clip402)" cx="1143.22" cy="752.669" r="14.4" fill="#009af9" fill-rule="evenodd" fill-opacity="1" stroke="#000000" stroke-opacity="1" stroke-width="3.2"/>
<circle clip-path="url(#clip402)" cx="1165.74" cy="827.7" r="14.4" fill="#009af9" fill-rule="evenodd" fill-opacity="1" stroke="#000000" stroke-opacity="1" stroke-width="3.2"/>
<circle clip-path="url(#clip402)" cx="1188.26" cy="796.672" r="14.4" fill="#009af9" fill-rule="evenodd" fill-opacity="1" stroke="#000000" stroke-opacity="1" stroke-width="3.2"/>
<circle clip-path="url(#clip402)" cx="1210.79" cy="823.768" r="14.4" fill="#009af9" fill-rule="evenodd" fill-opacity="1" stroke="#000000" stroke-opacity="1" stroke-width="3.2"/>
<circle clip-path="url(#clip402)" cx="1233.31" cy="788.654" r="14.4" fill="#009af9" fill-rule="evenodd" fill-opacity="1" stroke="#000000" stroke-opacity="1" stroke-width="3.2"/>
<circle clip-path="url(#clip402)" cx="1255.84" cy="767.54" r="14.4" fill="#009af9" fill-rule="evenodd" fill-opacity="1" stroke="#000000" stroke-opacity="1" stroke-width="3.2"/>
<circle clip-path="url(#clip402)" cx="1278.36" cy="775.097" r="14.4" fill="#009af9" fill-rule="evenodd" fill-opacity="1" stroke="#000000" stroke-opacity="1" stroke-width="3.2"/>
<circle clip-path="url(#clip402)" cx="1300.88" cy="749.885" r="14.4" fill="#009af9" fill-rule="evenodd" fill-opacity="1" stroke="#000000" stroke-opacity="1" stroke-width="3.2"/>
<circle clip-path="url(#clip402)" cx="1323.41" cy="687.353" r="14.4" fill="#009af9" fill-rule="evenodd" fill-opacity="1" stroke="#000000" stroke-opacity="1" stroke-width="3.2"/>
<circle clip-path="url(#clip402)" cx="1345.93" cy="672.429" r="14.4" fill="#009af9" fill-rule="evenodd" fill-opacity="1" stroke="#000000" stroke-opacity="1" stroke-width="3.2"/>
<circle clip-path="url(#clip402)" cx="1368.46" cy="689.599" r="14.4" fill="#009af9" fill-rule="evenodd" fill-opacity="1" stroke="#000000" stroke-opacity="1" stroke-width="3.2"/>
<circle clip-path="url(#clip402)" cx="1390.98" cy="605.811" r="14.4" fill="#009af9" fill-rule="evenodd" fill-opacity="1" stroke="#000000" stroke-opacity="1" stroke-width="3.2"/>
<circle clip-path="url(#clip402)" cx="1413.5" cy="668.449" r="14.4" fill="#009af9" fill-rule="evenodd" fill-opacity="1" stroke="#000000" stroke-opacity="1" stroke-width="3.2"/>
<circle clip-path="url(#clip402)" cx="1436.03" cy="572.712" r="14.4" fill="#009af9" fill-rule="evenodd" fill-opacity="1" stroke="#000000" stroke-opacity="1" stroke-width="3.2"/>
<circle clip-path="url(#clip402)" cx="1458.55" cy="680.729" r="14.4" fill="#009af9" fill-rule="evenodd" fill-opacity="1" stroke="#000000" stroke-opacity="1" stroke-width="3.2"/>
<circle clip-path="url(#clip402)" cx="1481.08" cy="600.724" r="14.4" fill="#009af9" fill-rule="evenodd" fill-opacity="1" stroke="#000000" stroke-opacity="1" stroke-width="3.2"/>
<circle clip-path="url(#clip402)" cx="1503.6" cy="560.998" r="14.4" fill="#009af9" fill-rule="evenodd" fill-opacity="1" stroke="#000000" stroke-opacity="1" stroke-width="3.2"/>
<circle clip-path="url(#clip402)" cx="1526.12" cy="520.098" r="14.4" fill="#009af9" fill-rule="evenodd" fill-opacity="1" stroke="#000000" stroke-opacity="1" stroke-width="3.2"/>
<circle clip-path="url(#clip402)" cx="1548.65" cy="607.97" r="14.4" fill="#009af9" fill-rule="evenodd" fill-opacity="1" stroke="#000000" stroke-opacity="1" stroke-width="3.2"/>
<circle clip-path="url(#clip402)" cx="1571.17" cy="526.07" r="14.4" fill="#009af9" fill-rule="evenodd" fill-opacity="1" stroke="#000000" stroke-opacity="1" stroke-width="3.2"/>
<circle clip-path="url(#clip402)" cx="1593.7" cy="532.338" r="14.4" fill="#009af9" fill-rule="evenodd" fill-opacity="1" stroke="#000000" stroke-opacity="1" stroke-width="3.2"/>
<circle clip-path="url(#clip402)" cx="1616.22" cy="480.47" r="14.4" fill="#009af9" fill-rule="evenodd" fill-opacity="1" stroke="#000000" stroke-opacity="1" stroke-width="3.2"/>
<circle clip-path="url(#clip402)" cx="1638.74" cy="471.003" r="14.4" fill="#009af9" fill-rule="evenodd" fill-opacity="1" stroke="#000000" stroke-opacity="1" stroke-width="3.2"/>
<circle clip-path="url(#clip402)" cx="1661.27" cy="518.187" r="14.4" fill="#009af9" fill-rule="evenodd" fill-opacity="1" stroke="#000000" stroke-opacity="1" stroke-width="3.2"/>
<circle clip-path="url(#clip402)" cx="1683.79" cy="453.633" r="14.4" fill="#009af9" fill-rule="evenodd" fill-opacity="1" stroke="#000000" stroke-opacity="1" stroke-width="3.2"/>
<circle clip-path="url(#clip402)" cx="1706.32" cy="473.746" r="14.4" fill="#009af9" fill-rule="evenodd" fill-opacity="1" stroke="#000000" stroke-opacity="1" stroke-width="3.2"/>
<circle clip-path="url(#clip402)" cx="1728.84" cy="454.98" r="14.4" fill="#009af9" fill-rule="evenodd" fill-opacity="1" stroke="#000000" stroke-opacity="1" stroke-width="3.2"/>
<circle clip-path="url(#clip402)" cx="1751.36" cy="488.765" r="14.4" fill="#009af9" fill-rule="evenodd" fill-opacity="1" stroke="#000000" stroke-opacity="1" stroke-width="3.2"/>
<circle clip-path="url(#clip402)" cx="1773.89" cy="449" r="14.4" fill="#009af9" fill-rule="evenodd" fill-opacity="1" stroke="#000000" stroke-opacity="1" stroke-width="3.2"/>
<circle clip-path="url(#clip402)" cx="1796.41" cy="395.383" r="14.4" fill="#009af9" fill-rule="evenodd" fill-opacity="1" stroke="#000000" stroke-opacity="1" stroke-width="3.2"/>
<circle clip-path="url(#clip402)" cx="1818.94" cy="422.377" r="14.4" fill="#009af9" fill-rule="evenodd" fill-opacity="1" stroke="#000000" stroke-opacity="1" stroke-width="3.2"/>
<circle clip-path="url(#clip402)" cx="1841.46" cy="358.306" r="14.4" fill="#009af9" fill-rule="evenodd" fill-opacity="1" stroke="#000000" stroke-opacity="1" stroke-width="3.2"/>
<circle clip-path="url(#clip402)" cx="1863.98" cy="417.823" r="14.4" fill="#009af9" fill-rule="evenodd" fill-opacity="1" stroke="#000000" stroke-opacity="1" stroke-width="3.2"/>
<circle clip-path="url(#clip402)" cx="1886.51" cy="319.713" r="14.4" fill="#009af9" fill-rule="evenodd" fill-opacity="1" stroke="#000000" stroke-opacity="1" stroke-width="3.2"/>
<circle clip-path="url(#clip402)" cx="1909.03" cy="380.835" r="14.4" fill="#009af9" fill-rule="evenodd" fill-opacity="1" stroke="#000000" stroke-opacity="1" stroke-width="3.2"/>
<circle clip-path="url(#clip402)" cx="1931.56" cy="275.542" r="14.4" fill="#009af9" fill-rule="evenodd" fill-opacity="1" stroke="#000000" stroke-opacity="1" stroke-width="3.2"/>
<circle clip-path="url(#clip402)" cx="1954.08" cy="282.976" r="14.4" fill="#009af9" fill-rule="evenodd" fill-opacity="1" stroke="#000000" stroke-opacity="1" stroke-width="3.2"/>
<circle clip-path="url(#clip402)" cx="1976.6" cy="268.131" r="14.4" fill="#009af9" fill-rule="evenodd" fill-opacity="1" stroke="#000000" stroke-opacity="1" stroke-width="3.2"/>
<circle clip-path="url(#clip402)" cx="1999.13" cy="228.871" r="14.4" fill="#009af9" fill-rule="evenodd" fill-opacity="1" stroke="#000000" stroke-opacity="1" stroke-width="3.2"/>
<circle clip-path="url(#clip402)" cx="2021.65" cy="287.637" r="14.4" fill="#009af9" fill-rule="evenodd" fill-opacity="1" stroke="#000000" stroke-opacity="1" stroke-width="3.2"/>
<circle clip-path="url(#clip402)" cx="2044.18" cy="300.314" r="14.4" fill="#009af9" fill-rule="evenodd" fill-opacity="1" stroke="#000000" stroke-opacity="1" stroke-width="3.2"/>
<circle clip-path="url(#clip402)" cx="2066.7" cy="245.184" r="14.4" fill="#009af9" fill-rule="evenodd" fill-opacity="1" stroke="#000000" stroke-opacity="1" stroke-width="3.2"/>
<circle clip-path="url(#clip402)" cx="2089.22" cy="196.024" r="14.4" fill="#009af9" fill-rule="evenodd" fill-opacity="1" stroke="#000000" stroke-opacity="1" stroke-width="3.2"/>
<circle clip-path="url(#clip402)" cx="2111.75" cy="246.22" r="14.4" fill="#009af9" fill-rule="evenodd" fill-opacity="1" stroke="#000000" stroke-opacity="1" stroke-width="3.2"/>
<circle clip-path="url(#clip402)" cx="2134.27" cy="140.056" r="14.4" fill="#009af9" fill-rule="evenodd" fill-opacity="1" stroke="#000000" stroke-opacity="1" stroke-width="3.2"/>
<circle clip-path="url(#clip402)" cx="2156.8" cy="168.877" r="14.4" fill="#009af9" fill-rule="evenodd" fill-opacity="1" stroke="#000000" stroke-opacity="1" stroke-width="3.2"/>
<circle clip-path="url(#clip402)" cx="2179.32" cy="156.97" r="14.4" fill="#009af9" fill-rule="evenodd" fill-opacity="1" stroke="#000000" stroke-opacity="1" stroke-width="3.2"/>
<circle clip-path="url(#clip402)" cx="2201.84" cy="199.548" r="14.4" fill="#009af9" fill-rule="evenodd" fill-opacity="1" stroke="#000000" stroke-opacity="1" stroke-width="3.2"/>
<circle clip-path="url(#clip402)" cx="2224.37" cy="193.997" r="14.4" fill="#009af9" fill-rule="evenodd" fill-opacity="1" stroke="#000000" stroke-opacity="1" stroke-width="3.2"/>
<circle clip-path="url(#clip402)" cx="2246.89" cy="106.5" r="14.4" fill="#009af9" fill-rule="evenodd" fill-opacity="1" stroke="#000000" stroke-opacity="1" stroke-width="3.2"/>
<circle clip-path="url(#clip402)" cx="2269.42" cy="86.1857" r="14.4" fill="#009af9" fill-rule="evenodd" fill-opacity="1" stroke="#000000" stroke-opacity="1" stroke-width="3.2"/>
<circle clip-path="url(#clip402)" cx="2291.94" cy="145.723" r="14.4" fill="#009af9" fill-rule="evenodd" fill-opacity="1" stroke="#000000" stroke-opacity="1" stroke-width="3.2"/>
</svg>
