<?xml version="1.0" encoding="utf-8"?>
<svg xmlns="http://www.w3.org/2000/svg" xmlns:xlink="http://www.w3.org/1999/xlink" width="600" height="400" viewBox="0 0 2400 1600">
<defs>
  <clipPath id="clip870">
    <rect x="0" y="0" width="2400" height="1600"/>
  </clipPath>
</defs>
<path clip-path="url(#clip870)" d="M0 1600 L2400 1600 L2400 0 L0 0  Z" fill="#ffffff" fill-rule="evenodd" fill-opacity="1"/>
<defs>
  <clipPath id="clip871">
    <rect x="480" y="0" width="1681" height="1600"/>
  </clipPath>
</defs>
<path clip-path="url(#clip870)" d="M340.699 1423.18 L2352.76 1423.18 L2352.76 47.2441 L340.699 47.2441  Z" fill="#ffffff" fill-rule="evenodd" fill-opacity="1"/>
<defs>
  <clipPath id="clip872">
    <rect x="340" y="47" width="2013" height="1377"/>
  </clipPath>
</defs>
<polyline clip-path="url(#clip872)" style="stroke:#000000; stroke-linecap:round; stroke-linejoin:round; stroke-width:2; stroke-opacity:0.1; fill:none" points="351.905,1423.18 351.905,47.2441 "/>
<polyline clip-path="url(#clip872)" style="stroke:#000000; stroke-linecap:round; stroke-linejoin:round; stroke-width:2; stroke-opacity:0.1; fill:none" points="809.295,1423.18 809.295,47.2441 "/>
<polyline clip-path="url(#clip872)" style="stroke:#000000; stroke-linecap:round; stroke-linejoin:round; stroke-width:2; stroke-opacity:0.1; fill:none" points="1266.68,1423.18 1266.68,47.2441 "/>
<polyline clip-path="url(#clip872)" style="stroke:#000000; stroke-linecap:round; stroke-linejoin:round; stroke-width:2; stroke-opacity:0.1; fill:none" points="1724.07,1423.18 1724.07,47.2441 "/>
<polyline clip-path="url(#clip872)" style="stroke:#000000; stroke-linecap:round; stroke-linejoin:round; stroke-width:2; stroke-opacity:0.1; fill:none" points="2181.46,1423.18 2181.46,47.2441 "/>
<polyline clip-path="url(#clip872)" style="stroke:#000000; stroke-linecap:round; stroke-linejoin:round; stroke-width:2; stroke-opacity:0.1; fill:none" points="340.699,1384.24 2352.76,1384.24 "/>
<polyline clip-path="url(#clip872)" style="stroke:#000000; stroke-linecap:round; stroke-linejoin:round; stroke-width:2; stroke-opacity:0.1; fill:none" points="340.699,1096.1 2352.76,1096.1 "/>
<polyline clip-path="url(#clip872)" style="stroke:#000000; stroke-linecap:round; stroke-linejoin:round; stroke-width:2; stroke-opacity:0.1; fill:none" points="340.699,807.965 2352.76,807.965 "/>
<polyline clip-path="url(#clip872)" style="stroke:#000000; stroke-linecap:round; stroke-linejoin:round; stroke-width:2; stroke-opacity:0.1; fill:none" points="340.699,519.828 2352.76,519.828 "/>
<polyline clip-path="url(#clip872)" style="stroke:#000000; stroke-linecap:round; stroke-linejoin:round; stroke-width:2; stroke-opacity:0.1; fill:none" points="340.699,231.692 2352.76,231.692 "/>
<polyline clip-path="url(#clip870)" style="stroke:#000000; stroke-linecap:round; stroke-linejoin:round; stroke-width:4; stroke-opacity:1; fill:none" points="340.699,1423.18 2352.76,1423.18 "/>
<polyline clip-path="url(#clip870)" style="stroke:#000000; stroke-linecap:round; stroke-linejoin:round; stroke-width:4; stroke-opacity:1; fill:none" points="351.905,1423.18 351.905,1404.28 "/>
<polyline clip-path="url(#clip870)" style="stroke:#000000; stroke-linecap:round; stroke-linejoin:round; stroke-width:4; stroke-opacity:1; fill:none" points="809.295,1423.18 809.295,1404.28 "/>
<polyline clip-path="url(#clip870)" style="stroke:#000000; stroke-linecap:round; stroke-linejoin:round; stroke-width:4; stroke-opacity:1; fill:none" points="1266.68,1423.18 1266.68,1404.28 "/>
<polyline clip-path="url(#clip870)" style="stroke:#000000; stroke-linecap:round; stroke-linejoin:round; stroke-width:4; stroke-opacity:1; fill:none" points="1724.07,1423.18 1724.07,1404.28 "/>
<polyline clip-path="url(#clip870)" style="stroke:#000000; stroke-linecap:round; stroke-linejoin:round; stroke-width:4; stroke-opacity:1; fill:none" points="2181.46,1423.18 2181.46,1404.28 "/>
<path clip-path="url(#clip870)" d="M351.905 1454.1 Q348.294 1454.1 346.465 1457.66 Q344.66 1461.2 344.66 1468.33 Q344.66 1475.44 346.465 1479.01 Q348.294 1482.55 351.905 1482.55 Q355.539 1482.55 357.345 1479.01 Q359.173 1475.44 359.173 1468.33 Q359.173 1461.2 357.345 1457.66 Q355.539 1454.1 351.905 1454.1 M351.905 1450.39 Q357.715 1450.39 360.771 1455 Q363.849 1459.58 363.849 1468.33 Q363.849 1477.06 360.771 1481.67 Q357.715 1486.25 351.905 1486.25 Q346.095 1486.25 343.016 1481.67 Q339.961 1477.06 339.961 1468.33 Q339.961 1459.58 343.016 1455 Q346.095 1450.39 351.905 1450.39 Z" fill="#000000" fill-rule="nonzero" fill-opacity="1" /><path clip-path="url(#clip870)" d="M788.068 1481.64 L804.387 1481.64 L804.387 1485.58 L782.443 1485.58 L782.443 1481.64 Q785.105 1478.89 789.688 1474.26 Q794.295 1469.61 795.475 1468.27 Q797.721 1465.74 798.6 1464.01 Q799.503 1462.25 799.503 1460.56 Q799.503 1457.8 797.559 1456.07 Q795.637 1454.33 792.535 1454.33 Q790.336 1454.33 787.883 1455.09 Q785.452 1455.86 782.674 1457.41 L782.674 1452.69 Q785.498 1451.55 787.952 1450.97 Q790.406 1450.39 792.443 1450.39 Q797.813 1450.39 801.008 1453.08 Q804.202 1455.77 804.202 1460.26 Q804.202 1462.39 803.392 1464.31 Q802.605 1466.2 800.498 1468.8 Q799.92 1469.47 796.818 1472.69 Q793.716 1475.88 788.068 1481.64 Z" fill="#000000" fill-rule="nonzero" fill-opacity="1" /><path clip-path="url(#clip870)" d="M824.202 1454.1 Q820.591 1454.1 818.762 1457.66 Q816.957 1461.2 816.957 1468.33 Q816.957 1475.44 818.762 1479.01 Q820.591 1482.55 824.202 1482.55 Q827.836 1482.55 829.642 1479.01 Q831.47 1475.44 831.47 1468.33 Q831.47 1461.2 829.642 1457.66 Q827.836 1454.1 824.202 1454.1 M824.202 1450.39 Q830.012 1450.39 833.068 1455 Q836.146 1459.58 836.146 1468.33 Q836.146 1477.06 833.068 1481.67 Q830.012 1486.25 824.202 1486.25 Q818.392 1486.25 815.313 1481.67 Q812.258 1477.06 812.258 1468.33 Q812.258 1459.58 815.313 1455 Q818.392 1450.39 824.202 1450.39 Z" fill="#000000" fill-rule="nonzero" fill-opacity="1" /><path clip-path="url(#clip870)" d="M1254.86 1455.09 L1243.05 1473.54 L1254.86 1473.54 L1254.86 1455.09 M1253.63 1451.02 L1259.51 1451.02 L1259.51 1473.54 L1264.44 1473.54 L1264.44 1477.43 L1259.51 1477.43 L1259.51 1485.58 L1254.86 1485.58 L1254.86 1477.43 L1239.25 1477.43 L1239.25 1472.92 L1253.63 1451.02 Z" fill="#000000" fill-rule="nonzero" fill-opacity="1" /><path clip-path="url(#clip870)" d="M1282.17 1454.1 Q1278.56 1454.1 1276.73 1457.66 Q1274.92 1461.2 1274.92 1468.33 Q1274.92 1475.44 1276.73 1479.01 Q1278.56 1482.55 1282.17 1482.55 Q1285.8 1482.55 1287.61 1479.01 Q1289.44 1475.44 1289.44 1468.33 Q1289.44 1461.2 1287.61 1457.66 Q1285.8 1454.1 1282.17 1454.1 M1282.17 1450.39 Q1287.98 1450.39 1291.04 1455 Q1294.11 1459.58 1294.11 1468.33 Q1294.11 1477.06 1291.04 1481.67 Q1287.98 1486.25 1282.17 1486.25 Q1276.36 1486.25 1273.28 1481.67 Q1270.23 1477.06 1270.23 1468.33 Q1270.23 1459.58 1273.28 1455 Q1276.36 1450.39 1282.17 1450.39 Z" fill="#000000" fill-rule="nonzero" fill-opacity="1" /><path clip-path="url(#clip870)" d="M1709.48 1466.44 Q1706.33 1466.44 1704.48 1468.59 Q1702.65 1470.74 1702.65 1474.49 Q1702.65 1478.22 1704.48 1480.39 Q1706.33 1482.55 1709.48 1482.55 Q1712.63 1482.55 1714.46 1480.39 Q1716.31 1478.22 1716.31 1474.49 Q1716.31 1470.74 1714.46 1468.59 Q1712.63 1466.44 1709.48 1466.44 M1718.76 1451.78 L1718.76 1456.04 Q1717 1455.21 1715.2 1454.77 Q1713.41 1454.33 1711.65 1454.33 Q1707.03 1454.33 1704.57 1457.45 Q1702.14 1460.58 1701.79 1466.9 Q1703.16 1464.89 1705.22 1463.82 Q1707.28 1462.73 1709.76 1462.73 Q1714.97 1462.73 1717.97 1465.9 Q1721.01 1469.05 1721.01 1474.49 Q1721.01 1479.82 1717.86 1483.03 Q1714.71 1486.25 1709.48 1486.25 Q1703.48 1486.25 1700.31 1481.67 Q1697.14 1477.06 1697.14 1468.33 Q1697.14 1460.14 1701.03 1455.28 Q1704.92 1450.39 1711.47 1450.39 Q1713.23 1450.39 1715.01 1450.74 Q1716.82 1451.09 1718.76 1451.78 Z" fill="#000000" fill-rule="nonzero" fill-opacity="1" /><path clip-path="url(#clip870)" d="M1739.06 1454.1 Q1735.45 1454.1 1733.62 1457.66 Q1731.82 1461.2 1731.82 1468.33 Q1731.82 1475.44 1733.62 1479.01 Q1735.45 1482.55 1739.06 1482.55 Q1742.7 1482.55 1744.5 1479.01 Q1746.33 1475.44 1746.33 1468.33 Q1746.33 1461.2 1744.5 1457.66 Q1742.7 1454.1 1739.06 1454.1 M1739.06 1450.39 Q1744.87 1450.39 1747.93 1455 Q1751.01 1459.58 1751.01 1468.33 Q1751.01 1477.06 1747.93 1481.67 Q1744.87 1486.25 1739.06 1486.25 Q1733.25 1486.25 1730.17 1481.67 Q1727.12 1477.06 1727.12 1468.33 Q1727.12 1459.58 1730.17 1455 Q1733.25 1450.39 1739.06 1450.39 Z" fill="#000000" fill-rule="nonzero" fill-opacity="1" /><path clip-path="url(#clip870)" d="M2166.34 1469.17 Q2163 1469.17 2161.08 1470.95 Q2159.18 1472.73 2159.18 1475.86 Q2159.18 1478.98 2161.08 1480.77 Q2163 1482.55 2166.34 1482.55 Q2169.67 1482.55 2171.59 1480.77 Q2173.51 1478.96 2173.51 1475.86 Q2173.51 1472.73 2171.59 1470.95 Q2169.69 1469.17 2166.34 1469.17 M2161.66 1467.18 Q2158.65 1466.44 2156.96 1464.38 Q2155.29 1462.32 2155.29 1459.35 Q2155.29 1455.21 2158.23 1452.8 Q2161.2 1450.39 2166.34 1450.39 Q2171.5 1450.39 2174.44 1452.8 Q2177.38 1455.21 2177.38 1459.35 Q2177.38 1462.32 2175.69 1464.38 Q2174.02 1466.44 2171.04 1467.18 Q2174.41 1467.96 2176.29 1470.26 Q2178.19 1472.55 2178.19 1475.86 Q2178.19 1480.88 2175.11 1483.57 Q2172.05 1486.25 2166.34 1486.25 Q2160.62 1486.25 2157.54 1483.57 Q2154.48 1480.88 2154.48 1475.86 Q2154.48 1472.55 2156.38 1470.26 Q2158.28 1467.96 2161.66 1467.18 M2159.95 1459.79 Q2159.95 1462.48 2161.61 1463.98 Q2163.3 1465.49 2166.34 1465.49 Q2169.35 1465.49 2171.04 1463.98 Q2172.75 1462.48 2172.75 1459.79 Q2172.75 1457.11 2171.04 1455.6 Q2169.35 1454.1 2166.34 1454.1 Q2163.3 1454.1 2161.61 1455.6 Q2159.95 1457.11 2159.95 1459.79 Z" fill="#000000" fill-rule="nonzero" fill-opacity="1" /><path clip-path="url(#clip870)" d="M2196.5 1454.1 Q2192.89 1454.1 2191.06 1457.66 Q2189.25 1461.2 2189.25 1468.33 Q2189.25 1475.44 2191.06 1479.01 Q2192.89 1482.55 2196.5 1482.55 Q2200.13 1482.55 2201.94 1479.01 Q2203.77 1475.44 2203.77 1468.33 Q2203.77 1461.2 2201.94 1457.66 Q2200.13 1454.1 2196.5 1454.1 M2196.5 1450.39 Q2202.31 1450.39 2205.36 1455 Q2208.44 1459.58 2208.44 1468.33 Q2208.44 1477.06 2205.36 1481.67 Q2202.31 1486.25 2196.5 1486.25 Q2190.69 1486.25 2187.61 1481.67 Q2184.55 1477.06 2184.55 1468.33 Q2184.55 1459.58 2187.61 1455 Q2190.69 1450.39 2196.5 1450.39 Z" fill="#000000" fill-rule="nonzero" fill-opacity="1" /><path clip-path="url(#clip870)" d="M1025.4 1520.52 L1034.98 1520.52 L1047.11 1552.86 L1059.3 1520.52 L1068.88 1520.52 L1068.88 1568.04 L1062.61 1568.04 L1062.61 1526.32 L1050.36 1558.91 L1043.89 1558.91 L1031.64 1526.32 L1031.64 1568.04 L1025.4 1568.04 L1025.4 1520.52 Z" fill="#000000" fill-rule="nonzero" fill-opacity="1" /><path clip-path="url(#clip870)" d="M1097.59 1550.12 Q1090.49 1550.12 1087.75 1551.75 Q1085.02 1553.37 1085.02 1557.29 Q1085.02 1560.4 1087.05 1562.25 Q1089.12 1564.07 1092.66 1564.07 Q1097.53 1564.07 1100.45 1560.63 Q1103.41 1557.16 1103.41 1551.43 L1103.41 1550.12 L1097.59 1550.12 M1109.27 1547.71 L1109.27 1568.04 L1103.41 1568.04 L1103.41 1562.63 Q1101.41 1565.88 1098.42 1567.44 Q1095.43 1568.97 1091.1 1568.97 Q1085.62 1568.97 1082.38 1565.91 Q1079.16 1562.82 1079.16 1557.67 Q1079.16 1551.65 1083.17 1548.6 Q1087.21 1545.54 1095.2 1545.54 L1103.41 1545.54 L1103.41 1544.97 Q1103.41 1540.93 1100.74 1538.73 Q1098.1 1536.5 1093.29 1536.5 Q1090.24 1536.5 1087.34 1537.23 Q1084.44 1537.97 1081.77 1539.43 L1081.77 1534.02 Q1084.99 1532.78 1088.01 1532.17 Q1091.03 1531.54 1093.9 1531.54 Q1101.63 1531.54 1105.45 1535.55 Q1109.27 1539.56 1109.27 1547.71 Z" fill="#000000" fill-rule="nonzero" fill-opacity="1" /><path clip-path="url(#clip870)" d="M1144.06 1533.45 L1144.06 1538.98 Q1141.58 1537.71 1138.9 1537.07 Q1136.23 1536.44 1133.36 1536.44 Q1129 1536.44 1126.81 1537.77 Q1124.64 1539.11 1124.64 1541.79 Q1124.64 1543.82 1126.2 1545 Q1127.76 1546.15 1132.47 1547.2 L1134.48 1547.64 Q1140.72 1548.98 1143.33 1551.43 Q1145.97 1553.85 1145.97 1558.21 Q1145.97 1563.17 1142.02 1566.07 Q1138.11 1568.97 1131.23 1568.97 Q1128.37 1568.97 1125.25 1568.39 Q1122.16 1567.85 1118.72 1566.74 L1118.72 1560.69 Q1121.97 1562.38 1125.12 1563.24 Q1128.27 1564.07 1131.36 1564.07 Q1135.5 1564.07 1137.73 1562.66 Q1139.95 1561.23 1139.95 1558.65 Q1139.95 1556.27 1138.33 1554.99 Q1136.74 1553.72 1131.3 1552.54 L1129.26 1552.07 Q1123.82 1550.92 1121.4 1548.56 Q1118.98 1546.18 1118.98 1542.04 Q1118.98 1537.01 1122.54 1534.27 Q1126.11 1531.54 1132.66 1531.54 Q1135.91 1531.54 1138.78 1532.01 Q1141.64 1532.49 1144.06 1533.45 Z" fill="#000000" fill-rule="nonzero" fill-opacity="1" /><path clip-path="url(#clip870)" d="M1178.02 1533.45 L1178.02 1538.98 Q1175.54 1537.71 1172.86 1537.07 Q1170.19 1536.44 1167.33 1536.44 Q1162.97 1536.44 1160.77 1537.77 Q1158.6 1539.11 1158.6 1541.79 Q1158.6 1543.82 1160.16 1545 Q1161.72 1546.15 1166.43 1547.2 L1168.44 1547.64 Q1174.68 1548.98 1177.29 1551.43 Q1179.93 1553.85 1179.93 1558.21 Q1179.93 1563.17 1175.98 1566.07 Q1172.07 1568.97 1165.19 1568.97 Q1162.33 1568.97 1159.21 1568.39 Q1156.12 1567.85 1152.68 1566.74 L1152.68 1560.69 Q1155.93 1562.38 1159.08 1563.24 Q1162.23 1564.07 1165.32 1564.07 Q1169.46 1564.07 1171.69 1562.66 Q1173.91 1561.23 1173.91 1558.65 Q1173.91 1556.27 1172.29 1554.99 Q1170.7 1553.72 1165.26 1552.54 L1163.22 1552.07 Q1157.78 1550.92 1155.36 1548.56 Q1152.94 1546.18 1152.94 1542.04 Q1152.94 1537.01 1156.5 1534.27 Q1160.07 1531.54 1166.63 1531.54 Q1169.87 1531.54 1172.74 1532.01 Q1175.6 1532.49 1178.02 1533.45 Z" fill="#000000" fill-rule="nonzero" fill-opacity="1" /><path clip-path="url(#clip870)" d="M1223.79 1536.5 Q1219.08 1536.5 1216.34 1540.19 Q1213.6 1543.85 1213.6 1550.25 Q1213.6 1556.65 1216.31 1560.34 Q1219.05 1564 1223.79 1564 Q1228.47 1564 1231.21 1560.31 Q1233.94 1556.62 1233.94 1550.25 Q1233.94 1543.92 1231.21 1540.23 Q1228.47 1536.5 1223.79 1536.5 M1223.79 1531.54 Q1231.43 1531.54 1235.79 1536.5 Q1240.15 1541.47 1240.15 1550.25 Q1240.15 1559 1235.79 1564 Q1231.43 1568.97 1223.79 1568.97 Q1216.12 1568.97 1211.76 1564 Q1207.43 1559 1207.43 1550.25 Q1207.43 1541.47 1211.76 1536.5 Q1216.12 1531.54 1223.79 1531.54 Z" fill="#000000" fill-rule="nonzero" fill-opacity="1" /><path clip-path="url(#clip870)" d="M1267.9 1518.52 L1267.9 1523.39 L1262.3 1523.39 Q1259.15 1523.39 1257.91 1524.66 Q1256.7 1525.93 1256.7 1529.24 L1256.7 1532.4 L1266.34 1532.4 L1266.34 1536.95 L1256.7 1536.95 L1256.7 1568.04 L1250.81 1568.04 L1250.81 1536.95 L1245.21 1536.95 L1245.21 1532.4 L1250.81 1532.4 L1250.81 1529.91 Q1250.81 1523.96 1253.58 1521.26 Q1256.35 1518.52 1262.37 1518.52 L1267.9 1518.52 Z" fill="#000000" fill-rule="nonzero" fill-opacity="1" /><path clip-path="url(#clip870)" d="M1319.18 1533.76 L1319.18 1539.24 Q1316.7 1537.87 1314.18 1537.2 Q1311.7 1536.5 1309.15 1536.5 Q1303.46 1536.5 1300.31 1540.13 Q1297.15 1543.73 1297.15 1550.25 Q1297.15 1556.78 1300.31 1560.4 Q1303.46 1564 1309.15 1564 Q1311.7 1564 1314.18 1563.33 Q1316.7 1562.63 1319.18 1561.26 L1319.18 1566.68 Q1316.73 1567.82 1314.09 1568.39 Q1311.48 1568.97 1308.52 1568.97 Q1300.46 1568.97 1295.72 1563.91 Q1290.98 1558.85 1290.98 1550.25 Q1290.98 1541.53 1295.75 1536.53 Q1300.56 1531.54 1308.9 1531.54 Q1311.6 1531.54 1314.18 1532.11 Q1316.76 1532.65 1319.18 1533.76 Z" fill="#000000" fill-rule="nonzero" fill-opacity="1" /><path clip-path="url(#clip870)" d="M1345.57 1550.12 Q1338.47 1550.12 1335.73 1551.75 Q1332.99 1553.37 1332.99 1557.29 Q1332.99 1560.4 1335.03 1562.25 Q1337.1 1564.07 1340.63 1564.07 Q1345.5 1564.07 1348.43 1560.63 Q1351.39 1557.16 1351.39 1551.43 L1351.39 1550.12 L1345.57 1550.12 M1357.25 1547.71 L1357.25 1568.04 L1351.39 1568.04 L1351.39 1562.63 Q1349.39 1565.88 1346.39 1567.44 Q1343.4 1568.97 1339.07 1568.97 Q1333.6 1568.97 1330.35 1565.91 Q1327.14 1562.82 1327.14 1557.67 Q1327.14 1551.65 1331.15 1548.6 Q1335.19 1545.54 1343.18 1545.54 L1351.39 1545.54 L1351.39 1544.97 Q1351.39 1540.93 1348.72 1538.73 Q1346.07 1536.5 1341.27 1536.5 Q1338.21 1536.5 1335.32 1537.23 Q1332.42 1537.97 1329.75 1539.43 L1329.75 1534.02 Q1332.96 1532.78 1335.99 1532.17 Q1339.01 1531.54 1341.87 1531.54 Q1349.61 1531.54 1353.43 1535.55 Q1357.25 1539.56 1357.25 1547.71 Z" fill="#000000" fill-rule="nonzero" fill-opacity="1" /><path clip-path="url(#clip870)" d="M1369.31 1518.52 L1375.17 1518.52 L1375.17 1568.04 L1369.31 1568.04 L1369.31 1518.52 Z" fill="#000000" fill-rule="nonzero" fill-opacity="1" /><path clip-path="url(#clip870)" d="M1387.42 1532.4 L1393.28 1532.4 L1393.28 1568.04 L1387.42 1568.04 L1387.42 1532.4 M1387.42 1518.52 L1393.28 1518.52 L1393.28 1525.93 L1387.42 1525.93 L1387.42 1518.52 Z" fill="#000000" fill-rule="nonzero" fill-opacity="1" /><path clip-path="url(#clip870)" d="M1431.12 1550.25 Q1431.12 1543.79 1428.45 1540.13 Q1425.81 1536.44 1421.16 1536.44 Q1416.51 1536.44 1413.84 1540.13 Q1411.2 1543.79 1411.2 1550.25 Q1411.2 1556.71 1413.84 1560.4 Q1416.51 1564.07 1421.16 1564.07 Q1425.81 1564.07 1428.45 1560.4 Q1431.12 1556.71 1431.12 1550.25 M1411.2 1537.81 Q1413.04 1534.62 1415.84 1533.1 Q1418.68 1531.54 1422.59 1531.54 Q1429.08 1531.54 1433.13 1536.69 Q1437.2 1541.85 1437.2 1550.25 Q1437.2 1558.65 1433.13 1563.81 Q1429.08 1568.97 1422.59 1568.97 Q1418.68 1568.97 1415.84 1567.44 Q1413.04 1565.88 1411.2 1562.7 L1411.2 1568.04 L1405.31 1568.04 L1405.31 1518.52 L1411.2 1518.52 L1411.2 1537.81 Z" fill="#000000" fill-rule="nonzero" fill-opacity="1" /><path clip-path="url(#clip870)" d="M1467.56 1537.87 Q1466.58 1537.3 1465.4 1537.04 Q1464.25 1536.76 1462.85 1536.76 Q1457.89 1536.76 1455.21 1540 Q1452.57 1543.22 1452.57 1549.27 L1452.57 1568.04 L1446.68 1568.04 L1446.68 1532.4 L1452.57 1532.4 L1452.57 1537.93 Q1454.42 1534.69 1457.38 1533.13 Q1460.34 1531.54 1464.57 1531.54 Q1465.18 1531.54 1465.91 1531.63 Q1466.64 1531.7 1467.53 1531.85 L1467.56 1537.87 Z" fill="#000000" fill-rule="nonzero" fill-opacity="1" /><path clip-path="url(#clip870)" d="M1489.91 1550.12 Q1482.81 1550.12 1480.07 1551.75 Q1477.34 1553.37 1477.34 1557.29 Q1477.34 1560.4 1479.37 1562.25 Q1481.44 1564.07 1484.97 1564.07 Q1489.84 1564.07 1492.77 1560.63 Q1495.73 1557.16 1495.73 1551.43 L1495.73 1550.12 L1489.91 1550.12 M1501.59 1547.71 L1501.59 1568.04 L1495.73 1568.04 L1495.73 1562.63 Q1493.73 1565.88 1490.74 1567.44 Q1487.74 1568.97 1483.42 1568.97 Q1477.94 1568.97 1474.69 1565.91 Q1471.48 1562.82 1471.48 1557.67 Q1471.48 1551.65 1475.49 1548.6 Q1479.53 1545.54 1487.52 1545.54 L1495.73 1545.54 L1495.73 1544.97 Q1495.73 1540.93 1493.06 1538.73 Q1490.42 1536.5 1485.61 1536.5 Q1482.56 1536.5 1479.66 1537.23 Q1476.76 1537.97 1474.09 1539.43 L1474.09 1534.02 Q1477.3 1532.78 1480.33 1532.17 Q1483.35 1531.54 1486.22 1531.54 Q1493.95 1531.54 1497.77 1535.55 Q1501.59 1539.56 1501.59 1547.71 Z" fill="#000000" fill-rule="nonzero" fill-opacity="1" /><path clip-path="url(#clip870)" d="M1543.28 1546.53 L1543.28 1568.04 L1537.43 1568.04 L1537.43 1546.72 Q1537.43 1541.66 1535.45 1539.14 Q1533.48 1536.63 1529.53 1536.63 Q1524.79 1536.63 1522.05 1539.65 Q1519.32 1542.68 1519.32 1547.9 L1519.32 1568.04 L1513.43 1568.04 L1513.43 1532.4 L1519.32 1532.4 L1519.32 1537.93 Q1521.42 1534.72 1524.25 1533.13 Q1527.12 1531.54 1530.84 1531.54 Q1536.98 1531.54 1540.13 1535.36 Q1543.28 1539.14 1543.28 1546.53 Z" fill="#000000" fill-rule="nonzero" fill-opacity="1" /><path clip-path="url(#clip870)" d="M1560.76 1522.27 L1560.76 1532.4 L1572.82 1532.4 L1572.82 1536.95 L1560.76 1536.95 L1560.76 1556.3 Q1560.76 1560.66 1561.94 1561.9 Q1563.15 1563.14 1566.81 1563.14 L1572.82 1563.14 L1572.82 1568.04 L1566.81 1568.04 Q1560.03 1568.04 1557.45 1565.53 Q1554.87 1562.98 1554.87 1556.3 L1554.87 1536.95 L1550.57 1536.95 L1550.57 1532.4 L1554.87 1532.4 L1554.87 1522.27 L1560.76 1522.27 Z" fill="#000000" fill-rule="nonzero" fill-opacity="1" /><path clip-path="url(#clip870)" d="M1601.5 1520.52 L1628.81 1520.52 L1628.81 1525.93 L1607.93 1525.93 L1607.93 1539.94 L1626.77 1539.94 L1626.77 1545.35 L1607.93 1545.35 L1607.93 1568.04 L1601.5 1568.04 L1601.5 1520.52 Z" fill="#000000" fill-rule="nonzero" fill-opacity="1" /><path clip-path="url(#clip870)" d="M1662.2 1549.81 Q1662.2 1543.44 1659.55 1539.94 Q1656.94 1536.44 1652.2 1536.44 Q1647.49 1536.44 1644.85 1539.94 Q1642.24 1543.44 1642.24 1549.81 Q1642.24 1556.14 1644.85 1559.64 Q1647.49 1563.14 1652.2 1563.14 Q1656.94 1563.14 1659.55 1559.64 Q1662.2 1556.14 1662.2 1549.81 M1668.05 1563.62 Q1668.05 1572.72 1664.01 1577.15 Q1659.97 1581.6 1651.63 1581.6 Q1648.54 1581.6 1645.8 1581.13 Q1643.07 1580.68 1640.49 1579.72 L1640.49 1574.03 Q1643.07 1575.43 1645.58 1576.1 Q1648.1 1576.76 1650.71 1576.76 Q1656.47 1576.76 1659.33 1573.74 Q1662.2 1570.75 1662.2 1564.67 L1662.2 1561.77 Q1660.38 1564.92 1657.55 1566.48 Q1654.72 1568.04 1650.77 1568.04 Q1644.21 1568.04 1640.2 1563.05 Q1636.19 1558.05 1636.19 1549.81 Q1636.19 1541.53 1640.2 1536.53 Q1644.21 1531.54 1650.77 1531.54 Q1654.72 1531.54 1657.55 1533.1 Q1660.38 1534.66 1662.2 1537.81 L1662.2 1532.4 L1668.05 1532.4 L1668.05 1563.62 Z" fill="#000000" fill-rule="nonzero" fill-opacity="1" /><polyline clip-path="url(#clip870)" style="stroke:#000000; stroke-linecap:round; stroke-linejoin:round; stroke-width:4; stroke-opacity:1; fill:none" points="340.699,1423.18 340.699,47.2441 "/>
<polyline clip-path="url(#clip870)" style="stroke:#000000; stroke-linecap:round; stroke-linejoin:round; stroke-width:4; stroke-opacity:1; fill:none" points="340.699,1384.24 359.597,1384.24 "/>
<polyline clip-path="url(#clip870)" style="stroke:#000000; stroke-linecap:round; stroke-linejoin:round; stroke-width:4; stroke-opacity:1; fill:none" points="340.699,1096.1 359.597,1096.1 "/>
<polyline clip-path="url(#clip870)" style="stroke:#000000; stroke-linecap:round; stroke-linejoin:round; stroke-width:4; stroke-opacity:1; fill:none" points="340.699,807.965 359.597,807.965 "/>
<polyline clip-path="url(#clip870)" style="stroke:#000000; stroke-linecap:round; stroke-linejoin:round; stroke-width:4; stroke-opacity:1; fill:none" points="340.699,519.828 359.597,519.828 "/>
<polyline clip-path="url(#clip870)" style="stroke:#000000; stroke-linecap:round; stroke-linejoin:round; stroke-width:4; stroke-opacity:1; fill:none" points="340.699,231.692 359.597,231.692 "/>
<path clip-path="url(#clip870)" d="M292.755 1370.04 Q289.143 1370.04 287.315 1373.6 Q285.509 1377.14 285.509 1384.27 Q285.509 1391.38 287.315 1394.94 Q289.143 1398.49 292.755 1398.49 Q296.389 1398.49 298.194 1394.94 Q300.023 1391.38 300.023 1384.27 Q300.023 1377.14 298.194 1373.6 Q296.389 1370.04 292.755 1370.04 M292.755 1366.33 Q298.565 1366.33 301.62 1370.94 Q304.699 1375.52 304.699 1384.27 Q304.699 1393 301.62 1397.61 Q298.565 1402.19 292.755 1402.19 Q286.944 1402.19 283.866 1397.61 Q280.81 1393 280.81 1384.27 Q280.81 1375.52 283.866 1370.94 Q286.944 1366.33 292.755 1366.33 Z" fill="#000000" fill-rule="nonzero" fill-opacity="1" /><path clip-path="url(#clip870)" d="M117.825 1115.89 L125.464 1115.89 L125.464 1089.53 L117.154 1091.2 L117.154 1086.94 L125.418 1085.27 L130.093 1085.27 L130.093 1115.89 L137.732 1115.89 L137.732 1119.83 L117.825 1119.83 L117.825 1115.89 Z" fill="#000000" fill-rule="nonzero" fill-opacity="1" /><path clip-path="url(#clip870)" d="M147.177 1113.95 L152.061 1113.95 L152.061 1119.83 L147.177 1119.83 L147.177 1113.95 Z" fill="#000000" fill-rule="nonzero" fill-opacity="1" /><path clip-path="url(#clip870)" d="M172.246 1088.35 Q168.635 1088.35 166.806 1091.91 Q165.001 1095.45 165.001 1102.58 Q165.001 1109.69 166.806 1113.26 Q168.635 1116.8 172.246 1116.8 Q175.88 1116.8 177.686 1113.26 Q179.514 1109.69 179.514 1102.58 Q179.514 1095.45 177.686 1091.91 Q175.88 1088.35 172.246 1088.35 M172.246 1084.64 Q178.056 1084.64 181.112 1089.25 Q184.19 1093.83 184.19 1102.58 Q184.19 1111.31 181.112 1115.92 Q178.056 1120.5 172.246 1120.5 Q166.436 1120.5 163.357 1115.92 Q160.302 1111.31 160.302 1102.58 Q160.302 1093.83 163.357 1089.25 Q166.436 1084.64 172.246 1084.64 Z" fill="#000000" fill-rule="nonzero" fill-opacity="1" /><path clip-path="url(#clip870)" d="M220.579 1094.37 L210 1104.99 L220.579 1115.57 L217.824 1118.37 L207.199 1107.75 L196.575 1118.37 L193.843 1115.57 L204.399 1104.99 L193.843 1094.37 L196.575 1091.57 L207.199 1102.19 L217.824 1091.57 L220.579 1094.37 Z" fill="#000000" fill-rule="nonzero" fill-opacity="1" /><path clip-path="url(#clip870)" d="M232.94 1115.89 L240.579 1115.89 L240.579 1089.53 L232.269 1091.2 L232.269 1086.94 L240.533 1085.27 L245.209 1085.27 L245.209 1115.89 L252.847 1115.89 L252.847 1119.83 L232.94 1119.83 L232.94 1115.89 Z" fill="#000000" fill-rule="nonzero" fill-opacity="1" /><path clip-path="url(#clip870)" d="M272.292 1088.35 Q268.681 1088.35 266.852 1091.91 Q265.046 1095.45 265.046 1102.58 Q265.046 1109.69 266.852 1113.26 Q268.681 1116.8 272.292 1116.8 Q275.926 1116.8 277.732 1113.26 Q279.56 1109.69 279.56 1102.58 Q279.56 1095.45 277.732 1091.91 Q275.926 1088.35 272.292 1088.35 M272.292 1084.64 Q278.102 1084.64 281.157 1089.25 Q284.236 1093.83 284.236 1102.58 Q284.236 1111.31 281.157 1115.92 Q278.102 1120.5 272.292 1120.5 Q266.482 1120.5 263.403 1115.92 Q260.347 1111.31 260.347 1102.58 Q260.347 1093.83 263.403 1089.25 Q266.482 1084.64 272.292 1084.64 Z" fill="#000000" fill-rule="nonzero" fill-opacity="1" /><path clip-path="url(#clip870)" d="M296.913 1067.65 L287.321 1082.64 L296.913 1082.64 L296.913 1067.65 M295.916 1064.34 L300.693 1064.34 L300.693 1082.64 L304.699 1082.64 L304.699 1085.8 L300.693 1085.8 L300.693 1092.42 L296.913 1092.42 L296.913 1085.8 L284.236 1085.8 L284.236 1082.13 L295.916 1064.34 Z" fill="#000000" fill-rule="nonzero" fill-opacity="1" /><path clip-path="url(#clip870)" d="M121.043 827.757 L137.362 827.757 L137.362 831.693 L115.418 831.693 L115.418 827.757 Q118.08 825.003 122.663 820.373 Q127.269 815.72 128.45 814.378 Q130.695 811.855 131.575 810.119 Q132.478 808.359 132.478 806.67 Q132.478 803.915 130.533 802.179 Q128.612 800.443 125.51 800.443 Q123.311 800.443 120.857 801.207 Q118.427 801.971 115.649 803.521 L115.649 798.799 Q118.473 797.665 120.927 797.086 Q123.38 796.508 125.418 796.508 Q130.788 796.508 133.982 799.193 Q137.177 801.878 137.177 806.369 Q137.177 808.498 136.367 810.42 Q135.579 812.318 133.473 814.91 Q132.894 815.582 129.792 818.799 Q126.691 821.994 121.043 827.757 Z" fill="#000000" fill-rule="nonzero" fill-opacity="1" /><path clip-path="url(#clip870)" d="M147.177 825.813 L152.061 825.813 L152.061 831.693 L147.177 831.693 L147.177 825.813 Z" fill="#000000" fill-rule="nonzero" fill-opacity="1" /><path clip-path="url(#clip870)" d="M172.246 800.211 Q168.635 800.211 166.806 803.776 Q165.001 807.318 165.001 814.447 Q165.001 821.554 166.806 825.119 Q168.635 828.66 172.246 828.66 Q175.88 828.66 177.686 825.119 Q179.514 821.554 179.514 814.447 Q179.514 807.318 177.686 803.776 Q175.88 800.211 172.246 800.211 M172.246 796.508 Q178.056 796.508 181.112 801.114 Q184.19 805.697 184.19 814.447 Q184.19 823.174 181.112 827.781 Q178.056 832.364 172.246 832.364 Q166.436 832.364 163.357 827.781 Q160.302 823.174 160.302 814.447 Q160.302 805.697 163.357 801.114 Q166.436 796.508 172.246 796.508 Z" fill="#000000" fill-rule="nonzero" fill-opacity="1" /><path clip-path="url(#clip870)" d="M220.579 806.23 L210 816.855 L220.579 827.433 L217.824 830.234 L207.199 819.609 L196.575 830.234 L193.843 827.433 L204.399 816.855 L193.843 806.23 L196.575 803.429 L207.199 814.054 L217.824 803.429 L220.579 806.23 Z" fill="#000000" fill-rule="nonzero" fill-opacity="1" /><path clip-path="url(#clip870)" d="M232.94 827.757 L240.579 827.757 L240.579 801.392 L232.269 803.058 L232.269 798.799 L240.533 797.133 L245.209 797.133 L245.209 827.757 L252.847 827.757 L252.847 831.693 L232.94 831.693 L232.94 827.757 Z" fill="#000000" fill-rule="nonzero" fill-opacity="1" /><path clip-path="url(#clip870)" d="M272.292 800.211 Q268.681 800.211 266.852 803.776 Q265.046 807.318 265.046 814.447 Q265.046 821.554 266.852 825.119 Q268.681 828.66 272.292 828.66 Q275.926 828.66 277.732 825.119 Q279.56 821.554 279.56 814.447 Q279.56 807.318 277.732 803.776 Q275.926 800.211 272.292 800.211 M272.292 796.508 Q278.102 796.508 281.157 801.114 Q284.236 805.697 284.236 814.447 Q284.236 823.174 281.157 827.781 Q278.102 832.364 272.292 832.364 Q266.482 832.364 263.403 827.781 Q260.347 823.174 260.347 814.447 Q260.347 805.697 263.403 801.114 Q266.482 796.508 272.292 796.508 Z" fill="#000000" fill-rule="nonzero" fill-opacity="1" /><path clip-path="url(#clip870)" d="M296.913 779.512 L287.321 794.502 L296.913 794.502 L296.913 779.512 M295.916 776.202 L300.693 776.202 L300.693 794.502 L304.699 794.502 L304.699 797.662 L300.693 797.662 L300.693 804.282 L296.913 804.282 L296.913 797.662 L284.236 797.662 L284.236 793.994 L295.916 776.202 Z" fill="#000000" fill-rule="nonzero" fill-opacity="1" /><path clip-path="url(#clip870)" d="M131.181 524.922 Q134.538 525.639 136.413 527.908 Q138.311 530.176 138.311 533.51 Q138.311 538.625 134.792 541.426 Q131.274 544.227 124.793 544.227 Q122.617 544.227 120.302 543.787 Q118.01 543.371 115.556 542.514 L115.556 538 Q117.501 539.135 119.816 539.713 Q122.13 540.292 124.654 540.292 Q129.052 540.292 131.343 538.556 Q133.658 536.82 133.658 533.51 Q133.658 530.454 131.505 528.741 Q129.376 527.005 125.556 527.005 L121.529 527.005 L121.529 523.163 L125.742 523.163 Q129.191 523.163 131.019 521.797 Q132.848 520.408 132.848 517.815 Q132.848 515.153 130.95 513.741 Q129.075 512.306 125.556 512.306 Q123.635 512.306 121.436 512.723 Q119.237 513.139 116.598 514.019 L116.598 509.852 Q119.26 509.112 121.575 508.741 Q123.913 508.371 125.973 508.371 Q131.297 508.371 134.399 510.802 Q137.501 513.209 137.501 517.329 Q137.501 520.2 135.857 522.19 Q134.214 524.158 131.181 524.922 Z" fill="#000000" fill-rule="nonzero" fill-opacity="1" /><path clip-path="url(#clip870)" d="M147.177 537.676 L152.061 537.676 L152.061 543.556 L147.177 543.556 L147.177 537.676 Z" fill="#000000" fill-rule="nonzero" fill-opacity="1" /><path clip-path="url(#clip870)" d="M172.246 512.075 Q168.635 512.075 166.806 515.639 Q165.001 519.181 165.001 526.311 Q165.001 533.417 166.806 536.982 Q168.635 540.524 172.246 540.524 Q175.88 540.524 177.686 536.982 Q179.514 533.417 179.514 526.311 Q179.514 519.181 177.686 515.639 Q175.88 512.075 172.246 512.075 M172.246 508.371 Q178.056 508.371 181.112 512.977 Q184.19 517.561 184.19 526.311 Q184.19 535.037 181.112 539.644 Q178.056 544.227 172.246 544.227 Q166.436 544.227 163.357 539.644 Q160.302 535.037 160.302 526.311 Q160.302 517.561 163.357 512.977 Q166.436 508.371 172.246 508.371 Z" fill="#000000" fill-rule="nonzero" fill-opacity="1" /><path clip-path="url(#clip870)" d="M220.579 518.093 L210 528.718 L220.579 539.297 L217.824 542.098 L207.199 531.473 L196.575 542.098 L193.843 539.297 L204.399 528.718 L193.843 518.093 L196.575 515.292 L207.199 525.917 L217.824 515.292 L220.579 518.093 Z" fill="#000000" fill-rule="nonzero" fill-opacity="1" /><path clip-path="url(#clip870)" d="M232.94 539.621 L240.579 539.621 L240.579 513.255 L232.269 514.922 L232.269 510.663 L240.533 508.996 L245.209 508.996 L245.209 539.621 L252.847 539.621 L252.847 543.556 L232.94 543.556 L232.94 539.621 Z" fill="#000000" fill-rule="nonzero" fill-opacity="1" /><path clip-path="url(#clip870)" d="M272.292 512.075 Q268.681 512.075 266.852 515.639 Q265.046 519.181 265.046 526.311 Q265.046 533.417 266.852 536.982 Q268.681 540.524 272.292 540.524 Q275.926 540.524 277.732 536.982 Q279.56 533.417 279.56 526.311 Q279.56 519.181 277.732 515.639 Q275.926 512.075 272.292 512.075 M272.292 508.371 Q278.102 508.371 281.157 512.977 Q284.236 517.561 284.236 526.311 Q284.236 535.037 281.157 539.644 Q278.102 544.227 272.292 544.227 Q266.482 544.227 263.403 539.644 Q260.347 535.037 260.347 526.311 Q260.347 517.561 263.403 512.977 Q266.482 508.371 272.292 508.371 Z" fill="#000000" fill-rule="nonzero" fill-opacity="1" /><path clip-path="url(#clip870)" d="M296.913 491.376 L287.321 506.366 L296.913 506.366 L296.913 491.376 M295.916 488.066 L300.693 488.066 L300.693 506.366 L304.699 506.366 L304.699 509.525 L300.693 509.525 L300.693 516.146 L296.913 516.146 L296.913 509.525 L284.236 509.525 L284.236 505.858 L295.916 488.066 Z" fill="#000000" fill-rule="nonzero" fill-opacity="1" /><path clip-path="url(#clip870)" d="M129.862 224.933 L118.056 243.382 L129.862 243.382 L129.862 224.933 M128.635 220.859 L134.515 220.859 L134.515 243.382 L139.445 243.382 L139.445 247.271 L134.515 247.271 L134.515 255.419 L129.862 255.419 L129.862 247.271 L114.26 247.271 L114.26 242.757 L128.635 220.859 Z" fill="#000000" fill-rule="nonzero" fill-opacity="1" /><path clip-path="url(#clip870)" d="M147.177 249.54 L152.061 249.54 L152.061 255.419 L147.177 255.419 L147.177 249.54 Z" fill="#000000" fill-rule="nonzero" fill-opacity="1" /><path clip-path="url(#clip870)" d="M172.246 223.938 Q168.635 223.938 166.806 227.503 Q165.001 231.044 165.001 238.174 Q165.001 245.28 166.806 248.845 Q168.635 252.387 172.246 252.387 Q175.88 252.387 177.686 248.845 Q179.514 245.28 179.514 238.174 Q179.514 231.044 177.686 227.503 Q175.88 223.938 172.246 223.938 M172.246 220.234 Q178.056 220.234 181.112 224.841 Q184.19 229.424 184.19 238.174 Q184.19 246.901 181.112 251.507 Q178.056 256.091 172.246 256.091 Q166.436 256.091 163.357 251.507 Q160.302 246.901 160.302 238.174 Q160.302 229.424 163.357 224.841 Q166.436 220.234 172.246 220.234 Z" fill="#000000" fill-rule="nonzero" fill-opacity="1" /><path clip-path="url(#clip870)" d="M220.579 229.956 L210 240.581 L220.579 251.16 L217.824 253.961 L207.199 243.336 L196.575 253.961 L193.843 251.16 L204.399 240.581 L193.843 229.956 L196.575 227.156 L207.199 237.781 L217.824 227.156 L220.579 229.956 Z" fill="#000000" fill-rule="nonzero" fill-opacity="1" /><path clip-path="url(#clip870)" d="M232.94 251.484 L240.579 251.484 L240.579 225.119 L232.269 226.785 L232.269 222.526 L240.533 220.859 L245.209 220.859 L245.209 251.484 L252.847 251.484 L252.847 255.419 L232.94 255.419 L232.94 251.484 Z" fill="#000000" fill-rule="nonzero" fill-opacity="1" /><path clip-path="url(#clip870)" d="M272.292 223.938 Q268.681 223.938 266.852 227.503 Q265.046 231.044 265.046 238.174 Q265.046 245.28 266.852 248.845 Q268.681 252.387 272.292 252.387 Q275.926 252.387 277.732 248.845 Q279.56 245.28 279.56 238.174 Q279.56 231.044 277.732 227.503 Q275.926 223.938 272.292 223.938 M272.292 220.234 Q278.102 220.234 281.157 224.841 Q284.236 229.424 284.236 238.174 Q284.236 246.901 281.157 251.507 Q278.102 256.091 272.292 256.091 Q266.482 256.091 263.403 251.507 Q260.347 246.901 260.347 238.174 Q260.347 229.424 263.403 224.841 Q266.482 220.234 272.292 220.234 Z" fill="#000000" fill-rule="nonzero" fill-opacity="1" /><path clip-path="url(#clip870)" d="M296.913 203.239 L287.321 218.229 L296.913 218.229 L296.913 203.239 M295.916 199.929 L300.693 199.929 L300.693 218.229 L304.699 218.229 L304.699 221.389 L300.693 221.389 L300.693 228.009 L296.913 228.009 L296.913 221.389 L284.236 221.389 L284.236 217.721 L295.916 199.929 Z" fill="#000000" fill-rule="nonzero" fill-opacity="1" /><path clip-path="url(#clip870)" d="M41.7242 771.687 Q42.4244 769.619 44.7161 767.677 Q47.0077 765.704 51.0181 763.73 L64.0042 757.205 L64.0042 764.112 L51.8138 770.192 Q47.0395 772.547 45.48 774.775 Q43.9204 776.971 43.9204 780.79 L43.9204 787.793 L64.0042 787.793 L64.0042 794.222 L16.4842 794.222 L16.4842 779.708 Q16.4842 771.56 19.8898 767.55 Q23.2955 763.539 30.1704 763.539 Q34.6582 763.539 37.6183 765.64 Q40.5784 767.709 41.7242 771.687 M21.7677 787.793 L38.6368 787.793 L38.6368 779.708 Q38.6368 775.061 36.5043 772.706 Q34.34 770.319 30.1704 770.319 Q26.0009 770.319 23.9002 772.706 Q21.7677 775.061 21.7677 779.708 L21.7677 787.793 Z" fill="#000000" fill-rule="nonzero" fill-opacity="1" /><path clip-path="url(#clip870)" d="M18.0438 720.444 L24.314 720.444 Q22.5634 724.104 21.704 727.35 Q20.8447 730.597 20.8447 733.621 Q20.8447 738.872 22.8817 741.737 Q24.9187 744.57 28.6745 744.57 Q31.8255 744.57 33.4488 742.692 Q35.0402 740.782 36.0269 735.498 L36.8226 731.615 Q38.1912 724.422 41.6605 721.016 Q45.098 717.579 50.8908 717.579 Q57.7976 717.579 61.3624 722.226 Q64.9272 726.841 64.9272 735.785 Q64.9272 739.159 64.1633 742.978 Q63.3994 746.766 61.9035 750.84 L55.2831 750.84 Q57.4793 746.925 58.5933 743.169 Q59.7073 739.413 59.7073 735.785 Q59.7073 730.279 57.543 727.287 Q55.3786 724.295 51.3682 724.295 Q47.8671 724.295 45.8937 726.459 Q43.9204 728.592 42.9337 733.493 L42.1698 737.408 Q40.7375 744.601 37.682 747.816 Q34.6264 751.031 29.1837 751.031 Q22.8817 751.031 19.2532 746.607 Q15.6248 742.151 15.6248 734.353 Q15.6248 731.011 16.2295 727.541 Q16.8343 724.072 18.0438 720.444 Z" fill="#000000" fill-rule="nonzero" fill-opacity="1" /><path clip-path="url(#clip870)" d="M18.0438 679.066 L24.314 679.066 Q22.5634 682.727 21.704 685.973 Q20.8447 689.22 20.8447 692.243 Q20.8447 697.495 22.8817 700.36 Q24.9187 703.192 28.6745 703.192 Q31.8255 703.192 33.4488 701.315 Q35.0402 699.405 36.0269 694.121 L36.8226 690.238 Q38.1912 683.045 41.6605 679.639 Q45.098 676.202 50.8908 676.202 Q57.7976 676.202 61.3624 680.849 Q64.9272 685.464 64.9272 694.408 Q64.9272 697.782 64.1633 701.601 Q63.3994 705.389 61.9035 709.463 L55.2831 709.463 Q57.4793 705.548 58.5933 701.792 Q59.7073 698.036 59.7073 694.408 Q59.7073 688.901 57.543 685.91 Q55.3786 682.918 51.3682 682.918 Q47.8671 682.918 45.8937 685.082 Q43.9204 687.215 42.9337 692.116 L42.1698 696.031 Q40.7375 703.224 37.682 706.439 Q34.6264 709.654 29.1837 709.654 Q22.8817 709.654 19.2532 705.229 Q15.6248 700.773 15.6248 692.976 Q15.6248 689.634 16.2295 686.164 Q16.8343 682.695 18.0438 679.066 Z" fill="#000000" fill-rule="nonzero" fill-opacity="1" /><circle clip-path="url(#clip872)" cx="397.644" cy="96.4196" r="18" fill="#009af9" fill-rule="evenodd" fill-opacity="1" stroke="#000000" stroke-opacity="1" stroke-width="3.2"/>
<circle clip-path="url(#clip872)" cx="436.383" cy="169.454" r="18" fill="#009af9" fill-rule="evenodd" fill-opacity="1" stroke="#000000" stroke-opacity="1" stroke-width="3.2"/>
<circle clip-path="url(#clip872)" cx="475.121" cy="245.225" r="18" fill="#009af9" fill-rule="evenodd" fill-opacity="1" stroke="#000000" stroke-opacity="1" stroke-width="3.2"/>
<circle clip-path="url(#clip872)" cx="513.858" cy="337.194" r="18" fill="#009af9" fill-rule="evenodd" fill-opacity="1" stroke="#000000" stroke-opacity="1" stroke-width="3.2"/>
<circle clip-path="url(#clip872)" cx="552.596" cy="420.223" r="18" fill="#009af9" fill-rule="evenodd" fill-opacity="1" stroke="#000000" stroke-opacity="1" stroke-width="3.2"/>
<circle clip-path="url(#clip872)" cx="591.335" cy="509.953" r="18" fill="#009af9" fill-rule="evenodd" fill-opacity="1" stroke="#000000" stroke-opacity="1" stroke-width="3.2"/>
<circle clip-path="url(#clip872)" cx="630.073" cy="614.184" r="18" fill="#009af9" fill-rule="evenodd" fill-opacity="1" stroke="#000000" stroke-opacity="1" stroke-width="3.2"/>
<circle clip-path="url(#clip872)" cx="668.81" cy="719.761" r="18" fill="#009af9" fill-rule="evenodd" fill-opacity="1" stroke="#000000" stroke-opacity="1" stroke-width="3.2"/>
<circle clip-path="url(#clip872)" cx="707.548" cy="826.707" r="18" fill="#009af9" fill-rule="evenodd" fill-opacity="1" stroke="#000000" stroke-opacity="1" stroke-width="3.2"/>
<circle clip-path="url(#clip872)" cx="746.287" cy="931.726" r="18" fill="#009af9" fill-rule="evenodd" fill-opacity="1" stroke="#000000" stroke-opacity="1" stroke-width="3.2"/>
<circle clip-path="url(#clip872)" cx="785.026" cy="985.666" r="18" fill="#009af9" fill-rule="evenodd" fill-opacity="1" stroke="#000000" stroke-opacity="1" stroke-width="3.2"/>
<circle clip-path="url(#clip872)" cx="823.764" cy="925.683" r="18" fill="#009af9" fill-rule="evenodd" fill-opacity="1" stroke="#000000" stroke-opacity="1" stroke-width="3.2"/>
<circle clip-path="url(#clip872)" cx="862.5" cy="869.588" r="18" fill="#009af9" fill-rule="evenodd" fill-opacity="1" stroke="#000000" stroke-opacity="1" stroke-width="3.2"/>
<circle clip-path="url(#clip872)" cx="901.239" cy="832.908" r="18" fill="#009af9" fill-rule="evenodd" fill-opacity="1" stroke="#000000" stroke-opacity="1" stroke-width="3.2"/>
<circle clip-path="url(#clip872)" cx="939.978" cy="799.206" r="18" fill="#009af9" fill-rule="evenodd" fill-opacity="1" stroke="#000000" stroke-opacity="1" stroke-width="3.2"/>
<circle clip-path="url(#clip872)" cx="978.716" cy="780.756" r="18" fill="#009af9" fill-rule="evenodd" fill-opacity="1" stroke="#000000" stroke-opacity="1" stroke-width="3.2"/>
<circle clip-path="url(#clip872)" cx="1017.45" cy="767.14" r="18" fill="#009af9" fill-rule="evenodd" fill-opacity="1" stroke="#000000" stroke-opacity="1" stroke-width="3.2"/>
<circle clip-path="url(#clip872)" cx="1056.19" cy="743.406" r="18" fill="#009af9" fill-rule="evenodd" fill-opacity="1" stroke="#000000" stroke-opacity="1" stroke-width="3.2"/>
<circle clip-path="url(#clip872)" cx="1094.93" cy="721.891" r="18" fill="#009af9" fill-rule="evenodd" fill-opacity="1" stroke="#000000" stroke-opacity="1" stroke-width="3.2"/>
<circle clip-path="url(#clip872)" cx="1133.67" cy="701.413" r="18" fill="#009af9" fill-rule="evenodd" fill-opacity="1" stroke="#000000" stroke-opacity="1" stroke-width="3.2"/>
<circle clip-path="url(#clip872)" cx="1172.41" cy="585.057" r="18" fill="#009af9" fill-rule="evenodd" fill-opacity="1" stroke="#000000" stroke-opacity="1" stroke-width="3.2"/>
<circle clip-path="url(#clip872)" cx="1211.14" cy="515.914" r="18" fill="#009af9" fill-rule="evenodd" fill-opacity="1" stroke="#000000" stroke-opacity="1" stroke-width="3.2"/>
<circle clip-path="url(#clip872)" cx="1249.88" cy="417.677" r="18" fill="#009af9" fill-rule="evenodd" fill-opacity="1" stroke="#000000" stroke-opacity="1" stroke-width="3.2"/>
<circle clip-path="url(#clip872)" cx="1288.62" cy="338.409" r="18" fill="#009af9" fill-rule="evenodd" fill-opacity="1" stroke="#000000" stroke-opacity="1" stroke-width="3.2"/>
<circle clip-path="url(#clip872)" cx="1327.36" cy="280.32" r="18" fill="#009af9" fill-rule="evenodd" fill-opacity="1" stroke="#000000" stroke-opacity="1" stroke-width="3.2"/>
<circle clip-path="url(#clip872)" cx="1366.1" cy="222.609" r="18" fill="#009af9" fill-rule="evenodd" fill-opacity="1" stroke="#000000" stroke-opacity="1" stroke-width="3.2"/>
<circle clip-path="url(#clip872)" cx="1404.83" cy="174.663" r="18" fill="#009af9" fill-rule="evenodd" fill-opacity="1" stroke="#000000" stroke-opacity="1" stroke-width="3.2"/>
<circle clip-path="url(#clip872)" cx="1443.57" cy="145.167" r="18" fill="#009af9" fill-rule="evenodd" fill-opacity="1" stroke="#000000" stroke-opacity="1" stroke-width="3.2"/>
<circle clip-path="url(#clip872)" cx="1482.31" cy="107.353" r="18" fill="#009af9" fill-rule="evenodd" fill-opacity="1" stroke="#000000" stroke-opacity="1" stroke-width="3.2"/>
<circle clip-path="url(#clip872)" cx="1521.05" cy="96.1484" r="18" fill="#009af9" fill-rule="evenodd" fill-opacity="1" stroke="#000000" stroke-opacity="1" stroke-width="3.2"/>
<circle clip-path="url(#clip872)" cx="1559.79" cy="110.372" r="18" fill="#009af9" fill-rule="evenodd" fill-opacity="1" stroke="#000000" stroke-opacity="1" stroke-width="3.2"/>
<circle clip-path="url(#clip872)" cx="1598.52" cy="110.154" r="18" fill="#009af9" fill-rule="evenodd" fill-opacity="1" stroke="#000000" stroke-opacity="1" stroke-width="3.2"/>
<circle clip-path="url(#clip872)" cx="1637.26" cy="104.921" r="18" fill="#009af9" fill-rule="evenodd" fill-opacity="1" stroke="#000000" stroke-opacity="1" stroke-width="3.2"/>
<circle clip-path="url(#clip872)" cx="1676" cy="103.407" r="18" fill="#009af9" fill-rule="evenodd" fill-opacity="1" stroke="#000000" stroke-opacity="1" stroke-width="3.2"/>
<circle clip-path="url(#clip872)" cx="1714.74" cy="100.429" r="18" fill="#009af9" fill-rule="evenodd" fill-opacity="1" stroke="#000000" stroke-opacity="1" stroke-width="3.2"/>
<circle clip-path="url(#clip872)" cx="1753.48" cy="91.2552" r="18" fill="#009af9" fill-rule="evenodd" fill-opacity="1" stroke="#000000" stroke-opacity="1" stroke-width="3.2"/>
<circle clip-path="url(#clip872)" cx="1792.22" cy="90.3913" r="18" fill="#009af9" fill-rule="evenodd" fill-opacity="1" stroke="#000000" stroke-opacity="1" stroke-width="3.2"/>
<circle clip-path="url(#clip872)" cx="1830.95" cy="92.3876" r="18" fill="#009af9" fill-rule="evenodd" fill-opacity="1" stroke="#000000" stroke-opacity="1" stroke-width="3.2"/>
<circle clip-path="url(#clip872)" cx="1869.69" cy="86.1857" r="18" fill="#009af9" fill-rule="evenodd" fill-opacity="1" stroke="#000000" stroke-opacity="1" stroke-width="3.2"/>
<circle clip-path="url(#clip872)" cx="1908.43" cy="95.8494" r="18" fill="#009af9" fill-rule="evenodd" fill-opacity="1" stroke="#000000" stroke-opacity="1" stroke-width="3.2"/>
<circle clip-path="url(#clip872)" cx="1947.17" cy="99.1534" r="18" fill="#009af9" fill-rule="evenodd" fill-opacity="1" stroke="#000000" stroke-opacity="1" stroke-width="3.2"/>
<circle clip-path="url(#clip872)" cx="1985.91" cy="98.6074" r="18" fill="#009af9" fill-rule="evenodd" fill-opacity="1" stroke="#000000" stroke-opacity="1" stroke-width="3.2"/>
<circle clip-path="url(#clip872)" cx="2024.65" cy="98.4734" r="18" fill="#009af9" fill-rule="evenodd" fill-opacity="1" stroke="#000000" stroke-opacity="1" stroke-width="3.2"/>
<circle clip-path="url(#clip872)" cx="2063.38" cy="98.3541" r="18" fill="#009af9" fill-rule="evenodd" fill-opacity="1" stroke="#000000" stroke-opacity="1" stroke-width="3.2"/>
<circle clip-path="url(#clip872)" cx="2102.12" cy="97.6147" r="18" fill="#009af9" fill-rule="evenodd" fill-opacity="1" stroke="#000000" stroke-opacity="1" stroke-width="3.2"/>
<circle clip-path="url(#clip872)" cx="2140.86" cy="97.224" r="18" fill="#009af9" fill-rule="evenodd" fill-opacity="1" stroke="#000000" stroke-opacity="1" stroke-width="3.2"/>
<circle clip-path="url(#clip872)" cx="2179.6" cy="96.794" r="18" fill="#009af9" fill-rule="evenodd" fill-opacity="1" stroke="#000000" stroke-opacity="1" stroke-width="3.2"/>
<circle clip-path="url(#clip872)" cx="2218.33" cy="96.6037" r="18" fill="#009af9" fill-rule="evenodd" fill-opacity="1" stroke="#000000" stroke-opacity="1" stroke-width="3.2"/>
<circle clip-path="url(#clip872)" cx="2257.07" cy="96.5192" r="18" fill="#009af9" fill-rule="evenodd" fill-opacity="1" stroke="#000000" stroke-opacity="1" stroke-width="3.2"/>
<circle clip-path="url(#clip872)" cx="2295.81" cy="96.4196" r="18" fill="#009af9" fill-rule="evenodd" fill-opacity="1" stroke="#000000" stroke-opacity="1" stroke-width="3.2"/>
<circle clip-path="url(#clip872)" cx="397.644" cy="1384.24" r="7.2" fill="#e26f46" fill-rule="evenodd" fill-opacity="1" stroke="#000000" stroke-opacity="1" stroke-width="3.2"/>
<circle clip-path="url(#clip872)" cx="436.383" cy="1384.24" r="7.2" fill="#e26f46" fill-rule="evenodd" fill-opacity="1" stroke="#000000" stroke-opacity="1" stroke-width="3.2"/>
<circle clip-path="url(#clip872)" cx="475.121" cy="1383.93" r="7.2" fill="#e26f46" fill-rule="evenodd" fill-opacity="1" stroke="#000000" stroke-opacity="1" stroke-width="3.2"/>
<circle clip-path="url(#clip872)" cx="513.858" cy="1383.89" r="7.2" fill="#e26f46" fill-rule="evenodd" fill-opacity="1" stroke="#000000" stroke-opacity="1" stroke-width="3.2"/>
<circle clip-path="url(#clip872)" cx="552.596" cy="1383.89" r="7.2" fill="#e26f46" fill-rule="evenodd" fill-opacity="1" stroke="#000000" stroke-opacity="1" stroke-width="3.2"/>
<circle clip-path="url(#clip872)" cx="591.335" cy="1383.68" r="7.2" fill="#e26f46" fill-rule="evenodd" fill-opacity="1" stroke="#000000" stroke-opacity="1" stroke-width="3.2"/>
<circle clip-path="url(#clip872)" cx="630.073" cy="1383.62" r="7.2" fill="#e26f46" fill-rule="evenodd" fill-opacity="1" stroke="#000000" stroke-opacity="1" stroke-width="3.2"/>
<circle clip-path="url(#clip872)" cx="668.81" cy="1383.62" r="7.2" fill="#e26f46" fill-rule="evenodd" fill-opacity="1" stroke="#000000" stroke-opacity="1" stroke-width="3.2"/>
<circle clip-path="url(#clip872)" cx="707.548" cy="1383.54" r="7.2" fill="#e26f46" fill-rule="evenodd" fill-opacity="1" stroke="#000000" stroke-opacity="1" stroke-width="3.2"/>
<circle clip-path="url(#clip872)" cx="746.287" cy="1383.48" r="7.2" fill="#e26f46" fill-rule="evenodd" fill-opacity="1" stroke="#000000" stroke-opacity="1" stroke-width="3.2"/>
<circle clip-path="url(#clip872)" cx="785.026" cy="1327.08" r="7.2" fill="#e26f46" fill-rule="evenodd" fill-opacity="1" stroke="#000000" stroke-opacity="1" stroke-width="3.2"/>
<circle clip-path="url(#clip872)" cx="823.764" cy="1257.89" r="7.2" fill="#e26f46" fill-rule="evenodd" fill-opacity="1" stroke="#000000" stroke-opacity="1" stroke-width="3.2"/>
<circle clip-path="url(#clip872)" cx="862.5" cy="1199.35" r="7.2" fill="#e26f46" fill-rule="evenodd" fill-opacity="1" stroke="#000000" stroke-opacity="1" stroke-width="3.2"/>
<circle clip-path="url(#clip872)" cx="901.239" cy="1160.08" r="7.2" fill="#e26f46" fill-rule="evenodd" fill-opacity="1" stroke="#000000" stroke-opacity="1" stroke-width="3.2"/>
<circle clip-path="url(#clip872)" cx="939.978" cy="1120.07" r="7.2" fill="#e26f46" fill-rule="evenodd" fill-opacity="1" stroke="#000000" stroke-opacity="1" stroke-width="3.2"/>
<circle clip-path="url(#clip872)" cx="978.716" cy="1097.36" r="7.2" fill="#e26f46" fill-rule="evenodd" fill-opacity="1" stroke="#000000" stroke-opacity="1" stroke-width="3.2"/>
<circle clip-path="url(#clip872)" cx="1017.45" cy="1072.64" r="7.2" fill="#e26f46" fill-rule="evenodd" fill-opacity="1" stroke="#000000" stroke-opacity="1" stroke-width="3.2"/>
<circle clip-path="url(#clip872)" cx="1056.19" cy="1040.42" r="7.2" fill="#e26f46" fill-rule="evenodd" fill-opacity="1" stroke="#000000" stroke-opacity="1" stroke-width="3.2"/>
<circle clip-path="url(#clip872)" cx="1094.93" cy="1015.03" r="7.2" fill="#e26f46" fill-rule="evenodd" fill-opacity="1" stroke="#000000" stroke-opacity="1" stroke-width="3.2"/>
<circle clip-path="url(#clip872)" cx="1133.67" cy="988.899" r="7.2" fill="#e26f46" fill-rule="evenodd" fill-opacity="1" stroke="#000000" stroke-opacity="1" stroke-width="3.2"/>
<circle clip-path="url(#clip872)" cx="1172.41" cy="868.092" r="7.2" fill="#e26f46" fill-rule="evenodd" fill-opacity="1" stroke="#000000" stroke-opacity="1" stroke-width="3.2"/>
<circle clip-path="url(#clip872)" cx="1211.14" cy="781.252" r="7.2" fill="#e26f46" fill-rule="evenodd" fill-opacity="1" stroke="#000000" stroke-opacity="1" stroke-width="3.2"/>
<circle clip-path="url(#clip872)" cx="1249.88" cy="673.122" r="7.2" fill="#e26f46" fill-rule="evenodd" fill-opacity="1" stroke="#000000" stroke-opacity="1" stroke-width="3.2"/>
<circle clip-path="url(#clip872)" cx="1288.62" cy="570.666" r="7.2" fill="#e26f46" fill-rule="evenodd" fill-opacity="1" stroke="#000000" stroke-opacity="1" stroke-width="3.2"/>
<circle clip-path="url(#clip872)" cx="1327.36" cy="485.847" r="7.2" fill="#e26f46" fill-rule="evenodd" fill-opacity="1" stroke="#000000" stroke-opacity="1" stroke-width="3.2"/>
<circle clip-path="url(#clip872)" cx="1366.1" cy="404.578" r="7.2" fill="#e26f46" fill-rule="evenodd" fill-opacity="1" stroke="#000000" stroke-opacity="1" stroke-width="3.2"/>
<circle clip-path="url(#clip872)" cx="1404.83" cy="329.329" r="7.2" fill="#e26f46" fill-rule="evenodd" fill-opacity="1" stroke="#000000" stroke-opacity="1" stroke-width="3.2"/>
<circle clip-path="url(#clip872)" cx="1443.57" cy="270.158" r="7.2" fill="#e26f46" fill-rule="evenodd" fill-opacity="1" stroke="#000000" stroke-opacity="1" stroke-width="3.2"/>
<circle clip-path="url(#clip872)" cx="1482.31" cy="207.389" r="7.2" fill="#e26f46" fill-rule="evenodd" fill-opacity="1" stroke="#000000" stroke-opacity="1" stroke-width="3.2"/>
<circle clip-path="url(#clip872)" cx="1521.05" cy="163.131" r="7.2" fill="#e26f46" fill-rule="evenodd" fill-opacity="1" stroke="#000000" stroke-opacity="1" stroke-width="3.2"/>
<circle clip-path="url(#clip872)" cx="1559.79" cy="152.491" r="7.2" fill="#e26f46" fill-rule="evenodd" fill-opacity="1" stroke="#000000" stroke-opacity="1" stroke-width="3.2"/>
<circle clip-path="url(#clip872)" cx="1598.52" cy="148.536" r="7.2" fill="#e26f46" fill-rule="evenodd" fill-opacity="1" stroke="#000000" stroke-opacity="1" stroke-width="3.2"/>
<circle clip-path="url(#clip872)" cx="1637.26" cy="142.637" r="7.2" fill="#e26f46" fill-rule="evenodd" fill-opacity="1" stroke="#000000" stroke-opacity="1" stroke-width="3.2"/>
<circle clip-path="url(#clip872)" cx="1676" cy="139.196" r="7.2" fill="#e26f46" fill-rule="evenodd" fill-opacity="1" stroke="#000000" stroke-opacity="1" stroke-width="3.2"/>
<circle clip-path="url(#clip872)" cx="1714.74" cy="135.322" r="7.2" fill="#e26f46" fill-rule="evenodd" fill-opacity="1" stroke="#000000" stroke-opacity="1" stroke-width="3.2"/>
<circle clip-path="url(#clip872)" cx="1753.48" cy="124.748" r="7.2" fill="#e26f46" fill-rule="evenodd" fill-opacity="1" stroke="#000000" stroke-opacity="1" stroke-width="3.2"/>
<circle clip-path="url(#clip872)" cx="1792.22" cy="116.752" r="7.2" fill="#e26f46" fill-rule="evenodd" fill-opacity="1" stroke="#000000" stroke-opacity="1" stroke-width="3.2"/>
<circle clip-path="url(#clip872)" cx="1830.95" cy="112.415" r="7.2" fill="#e26f46" fill-rule="evenodd" fill-opacity="1" stroke="#000000" stroke-opacity="1" stroke-width="3.2"/>
<circle clip-path="url(#clip872)" cx="1869.69" cy="102.168" r="7.2" fill="#e26f46" fill-rule="evenodd" fill-opacity="1" stroke="#000000" stroke-opacity="1" stroke-width="3.2"/>
<circle clip-path="url(#clip872)" cx="1908.43" cy="100.082" r="7.2" fill="#e26f46" fill-rule="evenodd" fill-opacity="1" stroke="#000000" stroke-opacity="1" stroke-width="3.2"/>
<circle clip-path="url(#clip872)" cx="1947.17" cy="99.4876" r="7.2" fill="#e26f46" fill-rule="evenodd" fill-opacity="1" stroke="#000000" stroke-opacity="1" stroke-width="3.2"/>
<circle clip-path="url(#clip872)" cx="1985.91" cy="98.9211" r="7.2" fill="#e26f46" fill-rule="evenodd" fill-opacity="1" stroke="#000000" stroke-opacity="1" stroke-width="3.2"/>
<circle clip-path="url(#clip872)" cx="2024.65" cy="98.7616" r="7.2" fill="#e26f46" fill-rule="evenodd" fill-opacity="1" stroke="#000000" stroke-opacity="1" stroke-width="3.2"/>
<circle clip-path="url(#clip872)" cx="2063.38" cy="98.6093" r="7.2" fill="#e26f46" fill-rule="evenodd" fill-opacity="1" stroke="#000000" stroke-opacity="1" stroke-width="3.2"/>
<circle clip-path="url(#clip872)" cx="2102.12" cy="97.826" r="7.2" fill="#e26f46" fill-rule="evenodd" fill-opacity="1" stroke="#000000" stroke-opacity="1" stroke-width="3.2"/>
<circle clip-path="url(#clip872)" cx="2140.86" cy="97.3392" r="7.2" fill="#e26f46" fill-rule="evenodd" fill-opacity="1" stroke="#000000" stroke-opacity="1" stroke-width="3.2"/>
<circle clip-path="url(#clip872)" cx="2179.6" cy="96.8732" r="7.2" fill="#e26f46" fill-rule="evenodd" fill-opacity="1" stroke="#000000" stroke-opacity="1" stroke-width="3.2"/>
<circle clip-path="url(#clip872)" cx="2218.33" cy="96.6229" r="7.2" fill="#e26f46" fill-rule="evenodd" fill-opacity="1" stroke="#000000" stroke-opacity="1" stroke-width="3.2"/>
<circle clip-path="url(#clip872)" cx="2257.07" cy="96.5192" r="7.2" fill="#e26f46" fill-rule="evenodd" fill-opacity="1" stroke="#000000" stroke-opacity="1" stroke-width="3.2"/>
<circle clip-path="url(#clip872)" cx="2295.81" cy="96.4196" r="7.2" fill="#e26f46" fill-rule="evenodd" fill-opacity="1" stroke="#000000" stroke-opacity="1" stroke-width="3.2"/>
<circle clip-path="url(#clip872)" cx="397.644" cy="96.4196" r="7.2" fill="#3da44d" fill-rule="evenodd" fill-opacity="1" stroke="#000000" stroke-opacity="1" stroke-width="3.2"/>
<circle clip-path="url(#clip872)" cx="436.383" cy="169.454" r="7.2" fill="#3da44d" fill-rule="evenodd" fill-opacity="1" stroke="#000000" stroke-opacity="1" stroke-width="3.2"/>
<circle clip-path="url(#clip872)" cx="475.121" cy="245.532" r="7.2" fill="#3da44d" fill-rule="evenodd" fill-opacity="1" stroke="#000000" stroke-opacity="1" stroke-width="3.2"/>
<circle clip-path="url(#clip872)" cx="513.858" cy="337.54" r="7.2" fill="#3da44d" fill-rule="evenodd" fill-opacity="1" stroke="#000000" stroke-opacity="1" stroke-width="3.2"/>
<circle clip-path="url(#clip872)" cx="552.596" cy="420.569" r="7.2" fill="#3da44d" fill-rule="evenodd" fill-opacity="1" stroke="#000000" stroke-opacity="1" stroke-width="3.2"/>
<circle clip-path="url(#clip872)" cx="591.335" cy="510.514" r="7.2" fill="#3da44d" fill-rule="evenodd" fill-opacity="1" stroke="#000000" stroke-opacity="1" stroke-width="3.2"/>
<circle clip-path="url(#clip872)" cx="630.073" cy="614.801" r="7.2" fill="#3da44d" fill-rule="evenodd" fill-opacity="1" stroke="#000000" stroke-opacity="1" stroke-width="3.2"/>
<circle clip-path="url(#clip872)" cx="668.81" cy="720.381" r="7.2" fill="#3da44d" fill-rule="evenodd" fill-opacity="1" stroke="#000000" stroke-opacity="1" stroke-width="3.2"/>
<circle clip-path="url(#clip872)" cx="707.548" cy="827.405" r="7.2" fill="#3da44d" fill-rule="evenodd" fill-opacity="1" stroke="#000000" stroke-opacity="1" stroke-width="3.2"/>
<circle clip-path="url(#clip872)" cx="746.287" cy="932.486" r="7.2" fill="#3da44d" fill-rule="evenodd" fill-opacity="1" stroke="#000000" stroke-opacity="1" stroke-width="3.2"/>
<circle clip-path="url(#clip872)" cx="785.026" cy="1042.82" r="7.2" fill="#3da44d" fill-rule="evenodd" fill-opacity="1" stroke="#000000" stroke-opacity="1" stroke-width="3.2"/>
<circle clip-path="url(#clip872)" cx="823.764" cy="1052.03" r="7.2" fill="#3da44d" fill-rule="evenodd" fill-opacity="1" stroke="#000000" stroke-opacity="1" stroke-width="3.2"/>
<circle clip-path="url(#clip872)" cx="862.5" cy="1054.48" r="7.2" fill="#3da44d" fill-rule="evenodd" fill-opacity="1" stroke="#000000" stroke-opacity="1" stroke-width="3.2"/>
<circle clip-path="url(#clip872)" cx="901.239" cy="1057.06" r="7.2" fill="#3da44d" fill-rule="evenodd" fill-opacity="1" stroke="#000000" stroke-opacity="1" stroke-width="3.2"/>
<circle clip-path="url(#clip872)" cx="939.978" cy="1063.37" r="7.2" fill="#3da44d" fill-rule="evenodd" fill-opacity="1" stroke="#000000" stroke-opacity="1" stroke-width="3.2"/>
<circle clip-path="url(#clip872)" cx="978.716" cy="1067.64" r="7.2" fill="#3da44d" fill-rule="evenodd" fill-opacity="1" stroke="#000000" stroke-opacity="1" stroke-width="3.2"/>
<circle clip-path="url(#clip872)" cx="1017.45" cy="1078.73" r="7.2" fill="#3da44d" fill-rule="evenodd" fill-opacity="1" stroke="#000000" stroke-opacity="1" stroke-width="3.2"/>
<circle clip-path="url(#clip872)" cx="1056.19" cy="1087.23" r="7.2" fill="#3da44d" fill-rule="evenodd" fill-opacity="1" stroke="#000000" stroke-opacity="1" stroke-width="3.2"/>
<circle clip-path="url(#clip872)" cx="1094.93" cy="1091.1" r="7.2" fill="#3da44d" fill-rule="evenodd" fill-opacity="1" stroke="#000000" stroke-opacity="1" stroke-width="3.2"/>
<circle clip-path="url(#clip872)" cx="1133.67" cy="1096.75" r="7.2" fill="#3da44d" fill-rule="evenodd" fill-opacity="1" stroke="#000000" stroke-opacity="1" stroke-width="3.2"/>
<circle clip-path="url(#clip872)" cx="1172.41" cy="1101.2" r="7.2" fill="#3da44d" fill-rule="evenodd" fill-opacity="1" stroke="#000000" stroke-opacity="1" stroke-width="3.2"/>
<circle clip-path="url(#clip872)" cx="1211.14" cy="1118.9" r="7.2" fill="#3da44d" fill-rule="evenodd" fill-opacity="1" stroke="#000000" stroke-opacity="1" stroke-width="3.2"/>
<circle clip-path="url(#clip872)" cx="1249.88" cy="1128.79" r="7.2" fill="#3da44d" fill-rule="evenodd" fill-opacity="1" stroke="#000000" stroke-opacity="1" stroke-width="3.2"/>
<circle clip-path="url(#clip872)" cx="1288.62" cy="1151.98" r="7.2" fill="#3da44d" fill-rule="evenodd" fill-opacity="1" stroke="#000000" stroke-opacity="1" stroke-width="3.2"/>
<circle clip-path="url(#clip872)" cx="1327.36" cy="1178.71" r="7.2" fill="#3da44d" fill-rule="evenodd" fill-opacity="1" stroke="#000000" stroke-opacity="1" stroke-width="3.2"/>
<circle clip-path="url(#clip872)" cx="1366.1" cy="1202.27" r="7.2" fill="#3da44d" fill-rule="evenodd" fill-opacity="1" stroke="#000000" stroke-opacity="1" stroke-width="3.2"/>
<circle clip-path="url(#clip872)" cx="1404.83" cy="1229.57" r="7.2" fill="#3da44d" fill-rule="evenodd" fill-opacity="1" stroke="#000000" stroke-opacity="1" stroke-width="3.2"/>
<circle clip-path="url(#clip872)" cx="1443.57" cy="1259.25" r="7.2" fill="#3da44d" fill-rule="evenodd" fill-opacity="1" stroke="#000000" stroke-opacity="1" stroke-width="3.2"/>
<circle clip-path="url(#clip872)" cx="1482.31" cy="1284.2" r="7.2" fill="#3da44d" fill-rule="evenodd" fill-opacity="1" stroke="#000000" stroke-opacity="1" stroke-width="3.2"/>
<circle clip-path="url(#clip872)" cx="1521.05" cy="1317.26" r="7.2" fill="#3da44d" fill-rule="evenodd" fill-opacity="1" stroke="#000000" stroke-opacity="1" stroke-width="3.2"/>
<circle clip-path="url(#clip872)" cx="1559.79" cy="1342.12" r="7.2" fill="#3da44d" fill-rule="evenodd" fill-opacity="1" stroke="#000000" stroke-opacity="1" stroke-width="3.2"/>
<circle clip-path="url(#clip872)" cx="1598.52" cy="1345.86" r="7.2" fill="#3da44d" fill-rule="evenodd" fill-opacity="1" stroke="#000000" stroke-opacity="1" stroke-width="3.2"/>
<circle clip-path="url(#clip872)" cx="1637.26" cy="1346.52" r="7.2" fill="#3da44d" fill-rule="evenodd" fill-opacity="1" stroke="#000000" stroke-opacity="1" stroke-width="3.2"/>
<circle clip-path="url(#clip872)" cx="1676" cy="1348.45" r="7.2" fill="#3da44d" fill-rule="evenodd" fill-opacity="1" stroke="#000000" stroke-opacity="1" stroke-width="3.2"/>
<circle clip-path="url(#clip872)" cx="1714.74" cy="1349.34" r="7.2" fill="#3da44d" fill-rule="evenodd" fill-opacity="1" stroke="#000000" stroke-opacity="1" stroke-width="3.2"/>
<circle clip-path="url(#clip872)" cx="1753.48" cy="1350.75" r="7.2" fill="#3da44d" fill-rule="evenodd" fill-opacity="1" stroke="#000000" stroke-opacity="1" stroke-width="3.2"/>
<circle clip-path="url(#clip872)" cx="1792.22" cy="1357.88" r="7.2" fill="#3da44d" fill-rule="evenodd" fill-opacity="1" stroke="#000000" stroke-opacity="1" stroke-width="3.2"/>
<circle clip-path="url(#clip872)" cx="1830.95" cy="1364.21" r="7.2" fill="#3da44d" fill-rule="evenodd" fill-opacity="1" stroke="#000000" stroke-opacity="1" stroke-width="3.2"/>
<circle clip-path="url(#clip872)" cx="1869.69" cy="1368.26" r="7.2" fill="#3da44d" fill-rule="evenodd" fill-opacity="1" stroke="#000000" stroke-opacity="1" stroke-width="3.2"/>
<circle clip-path="url(#clip872)" cx="1908.43" cy="1380.01" r="7.2" fill="#3da44d" fill-rule="evenodd" fill-opacity="1" stroke="#000000" stroke-opacity="1" stroke-width="3.2"/>
<circle clip-path="url(#clip872)" cx="1947.17" cy="1383.9" r="7.2" fill="#3da44d" fill-rule="evenodd" fill-opacity="1" stroke="#000000" stroke-opacity="1" stroke-width="3.2"/>
<circle clip-path="url(#clip872)" cx="1985.91" cy="1383.92" r="7.2" fill="#3da44d" fill-rule="evenodd" fill-opacity="1" stroke="#000000" stroke-opacity="1" stroke-width="3.2"/>
<circle clip-path="url(#clip872)" cx="2024.65" cy="1383.95" r="7.2" fill="#3da44d" fill-rule="evenodd" fill-opacity="1" stroke="#000000" stroke-opacity="1" stroke-width="3.2"/>
<circle clip-path="url(#clip872)" cx="2063.38" cy="1383.98" r="7.2" fill="#3da44d" fill-rule="evenodd" fill-opacity="1" stroke="#000000" stroke-opacity="1" stroke-width="3.2"/>
<circle clip-path="url(#clip872)" cx="2102.12" cy="1384.03" r="7.2" fill="#3da44d" fill-rule="evenodd" fill-opacity="1" stroke="#000000" stroke-opacity="1" stroke-width="3.2"/>
<circle clip-path="url(#clip872)" cx="2140.86" cy="1384.12" r="7.2" fill="#3da44d" fill-rule="evenodd" fill-opacity="1" stroke="#000000" stroke-opacity="1" stroke-width="3.2"/>
<circle clip-path="url(#clip872)" cx="2179.6" cy="1384.16" r="7.2" fill="#3da44d" fill-rule="evenodd" fill-opacity="1" stroke="#000000" stroke-opacity="1" stroke-width="3.2"/>
<circle clip-path="url(#clip872)" cx="2218.33" cy="1384.22" r="7.2" fill="#3da44d" fill-rule="evenodd" fill-opacity="1" stroke="#000000" stroke-opacity="1" stroke-width="3.2"/>
<circle clip-path="url(#clip872)" cx="2257.07" cy="1384.24" r="7.2" fill="#3da44d" fill-rule="evenodd" fill-opacity="1" stroke="#000000" stroke-opacity="1" stroke-width="3.2"/>
<circle clip-path="url(#clip872)" cx="2295.81" cy="1384.24" r="7.2" fill="#3da44d" fill-rule="evenodd" fill-opacity="1" stroke="#000000" stroke-opacity="1" stroke-width="3.2"/>
<path clip-path="url(#clip870)" d="M407.768 300.469 L822.768 300.469 L822.768 93.1086 L407.768 93.1086  Z" fill="#ffffff" fill-rule="evenodd" fill-opacity="1"/>
<polyline clip-path="url(#clip870)" style="stroke:#000000; stroke-linecap:round; stroke-linejoin:round; stroke-width:4; stroke-opacity:1; fill:none" points="407.768,300.469 822.768,300.469 822.768,93.1086 407.768,93.1086 407.768,300.469 "/>
<circle clip-path="url(#clip870)" cx="497.192" cy="144.949" r="20.9455" fill="#009af9" fill-rule="evenodd" fill-opacity="1" stroke="#000000" stroke-opacity="1" stroke-width="3.72364"/>
<path clip-path="url(#clip870)" d="M603.006 146.025 Q604.51 146.534 605.922 148.201 Q607.358 149.868 608.793 152.784 L613.538 162.229 L608.515 162.229 L604.094 153.363 Q602.381 149.891 600.76 148.756 Q599.163 147.622 596.385 147.622 L591.293 147.622 L591.293 162.229 L586.617 162.229 L586.617 127.669 L597.173 127.669 Q603.098 127.669 606.015 130.145 Q608.932 132.622 608.932 137.622 Q608.932 140.886 607.404 143.039 Q605.899 145.192 603.006 146.025 M591.293 131.511 L591.293 143.78 L597.173 143.78 Q600.552 143.78 602.265 142.229 Q604.001 140.655 604.001 137.622 Q604.001 134.59 602.265 133.062 Q600.552 131.511 597.173 131.511 L591.293 131.511 Z" fill="#000000" fill-rule="nonzero" fill-opacity="1" /><path clip-path="url(#clip870)" d="M640.274 128.803 L640.274 133.363 Q637.612 132.09 635.251 131.465 Q632.89 130.84 630.691 130.84 Q626.871 130.84 624.788 132.321 Q622.728 133.803 622.728 136.534 Q622.728 138.826 624.094 140.007 Q625.483 141.164 629.325 141.882 L632.149 142.46 Q637.381 143.456 639.857 145.979 Q642.357 148.479 642.357 152.692 Q642.357 157.715 638.978 160.307 Q635.621 162.9 629.117 162.9 Q626.663 162.9 623.885 162.344 Q621.131 161.789 618.168 160.701 L618.168 155.886 Q621.015 157.483 623.746 158.293 Q626.478 159.104 629.117 159.104 Q633.121 159.104 635.297 157.53 Q637.473 155.956 637.473 153.039 Q637.473 150.493 635.899 149.057 Q634.348 147.622 630.783 146.905 L627.936 146.349 Q622.705 145.307 620.367 143.085 Q618.029 140.863 618.029 136.905 Q618.029 132.321 621.246 129.682 Q624.487 127.044 630.158 127.044 Q632.589 127.044 635.112 127.483 Q637.635 127.923 640.274 128.803 Z" fill="#000000" fill-rule="nonzero" fill-opacity="1" /><path clip-path="url(#clip870)" d="M670.367 128.803 L670.367 133.363 Q667.705 132.09 665.343 131.465 Q662.982 130.84 660.783 130.84 Q656.964 130.84 654.881 132.321 Q652.82 133.803 652.82 136.534 Q652.82 138.826 654.186 140.007 Q655.575 141.164 659.418 141.882 L662.242 142.46 Q667.473 143.456 669.95 145.979 Q672.45 148.479 672.45 152.692 Q672.45 157.715 669.07 160.307 Q665.714 162.9 659.209 162.9 Q656.756 162.9 653.978 162.344 Q651.223 161.789 648.26 160.701 L648.26 155.886 Q651.107 157.483 653.839 158.293 Q656.57 159.104 659.209 159.104 Q663.214 159.104 665.39 157.53 Q667.566 155.956 667.566 153.039 Q667.566 150.493 665.992 149.057 Q664.441 147.622 660.876 146.905 L658.029 146.349 Q652.797 145.307 650.459 143.085 Q648.121 140.863 648.121 136.905 Q648.121 132.321 651.339 129.682 Q654.58 127.044 660.251 127.044 Q662.681 127.044 665.205 127.483 Q667.728 127.923 670.367 128.803 Z" fill="#000000" fill-rule="nonzero" fill-opacity="1" /><circle clip-path="url(#clip870)" cx="497.192" cy="196.789" r="18.432" fill="#e26f46" fill-rule="evenodd" fill-opacity="1" stroke="#000000" stroke-opacity="1" stroke-width="8.192"/>
<path clip-path="url(#clip870)" d="M603.006 197.865 Q604.51 198.374 605.922 200.041 Q607.358 201.708 608.793 204.624 L613.538 214.069 L608.515 214.069 L604.094 205.203 Q602.381 201.731 600.76 200.596 Q599.163 199.462 596.385 199.462 L591.293 199.462 L591.293 214.069 L586.617 214.069 L586.617 179.509 L597.173 179.509 Q603.098 179.509 606.015 181.985 Q608.932 184.462 608.932 189.462 Q608.932 192.726 607.404 194.879 Q605.899 197.032 603.006 197.865 M591.293 183.351 L591.293 195.62 L597.173 195.62 Q600.552 195.62 602.265 194.069 Q604.001 192.495 604.001 189.462 Q604.001 186.43 602.265 184.902 Q600.552 183.351 597.173 183.351 L591.293 183.351 Z" fill="#000000" fill-rule="nonzero" fill-opacity="1" /><path clip-path="url(#clip870)" d="M640.274 180.643 L640.274 185.203 Q637.612 183.93 635.251 183.305 Q632.89 182.68 630.691 182.68 Q626.871 182.68 624.788 184.161 Q622.728 185.643 622.728 188.374 Q622.728 190.666 624.094 191.847 Q625.483 193.004 629.325 193.722 L632.149 194.3 Q637.381 195.296 639.857 197.819 Q642.357 200.319 642.357 204.532 Q642.357 209.555 638.978 212.147 Q635.621 214.74 629.117 214.74 Q626.663 214.74 623.885 214.184 Q621.131 213.629 618.168 212.541 L618.168 207.726 Q621.015 209.323 623.746 210.133 Q626.478 210.944 629.117 210.944 Q633.121 210.944 635.297 209.37 Q637.473 207.796 637.473 204.879 Q637.473 202.333 635.899 200.897 Q634.348 199.462 630.783 198.745 L627.936 198.189 Q622.705 197.147 620.367 194.925 Q618.029 192.703 618.029 188.745 Q618.029 184.161 621.246 181.522 Q624.487 178.884 630.158 178.884 Q632.589 178.884 635.112 179.323 Q637.635 179.763 640.274 180.643 Z" fill="#000000" fill-rule="nonzero" fill-opacity="1" /><path clip-path="url(#clip870)" d="M670.367 180.643 L670.367 185.203 Q667.705 183.93 665.343 183.305 Q662.982 182.68 660.783 182.68 Q656.964 182.68 654.881 184.161 Q652.82 185.643 652.82 188.374 Q652.82 190.666 654.186 191.847 Q655.575 193.004 659.418 193.722 L662.242 194.3 Q667.473 195.296 669.95 197.819 Q672.45 200.319 672.45 204.532 Q672.45 209.555 669.07 212.147 Q665.714 214.74 659.209 214.74 Q656.756 214.74 653.978 214.184 Q651.223 213.629 648.26 212.541 L648.26 207.726 Q651.107 209.323 653.839 210.133 Q656.57 210.944 659.209 210.944 Q663.214 210.944 665.39 209.37 Q667.566 207.796 667.566 204.879 Q667.566 202.333 665.992 200.897 Q664.441 199.462 660.876 198.745 L658.029 198.189 Q652.797 197.147 650.459 194.925 Q648.121 192.703 648.121 188.745 Q648.121 184.161 651.339 181.522 Q654.58 178.884 660.251 178.884 Q662.681 178.884 665.205 179.323 Q667.728 179.763 670.367 180.643 Z" fill="#000000" fill-rule="nonzero" fill-opacity="1" /><path clip-path="url(#clip870)" d="M694.626 178.05 L698.885 178.05 L698.885 214.069 L694.626 214.069 L694.626 178.05 Z" fill="#000000" fill-rule="nonzero" fill-opacity="1" /><path clip-path="url(#clip870)" d="M729.973 200.041 L729.973 202.124 L710.39 202.124 Q710.667 206.522 713.028 208.837 Q715.413 211.129 719.649 211.129 Q722.102 211.129 724.394 210.527 Q726.709 209.925 728.977 208.721 L728.977 212.749 Q726.686 213.721 724.278 214.231 Q721.871 214.74 719.394 214.74 Q713.19 214.74 709.556 211.129 Q705.945 207.518 705.945 201.36 Q705.945 194.995 709.371 191.268 Q712.82 187.518 718.653 187.518 Q723.885 187.518 726.917 190.897 Q729.973 194.254 729.973 200.041 M725.714 198.791 Q725.667 195.296 723.746 193.212 Q721.848 191.129 718.7 191.129 Q715.135 191.129 712.982 193.143 Q710.852 195.157 710.528 198.814 L725.714 198.791 Z" fill="#000000" fill-rule="nonzero" fill-opacity="1" /><path clip-path="url(#clip870)" d="M750.088 178.05 L750.088 181.592 L746.014 181.592 Q743.723 181.592 742.82 182.518 Q741.94 183.444 741.94 185.851 L741.94 188.143 L748.954 188.143 L748.954 191.453 L741.94 191.453 L741.94 214.069 L737.658 214.069 L737.658 191.453 L733.584 191.453 L733.584 188.143 L737.658 188.143 L737.658 186.337 Q737.658 182.009 739.672 180.041 Q741.686 178.05 746.061 178.05 L750.088 178.05 Z" fill="#000000" fill-rule="nonzero" fill-opacity="1" /><path clip-path="url(#clip870)" d="M757.033 180.782 L757.033 188.143 L765.806 188.143 L765.806 191.453 L757.033 191.453 L757.033 205.527 Q757.033 208.698 757.889 209.601 Q758.769 210.504 761.431 210.504 L765.806 210.504 L765.806 214.069 L761.431 214.069 Q756.5 214.069 754.625 212.24 Q752.75 210.388 752.75 205.527 L752.75 191.453 L749.625 191.453 L749.625 188.143 L752.75 188.143 L752.75 180.782 L757.033 180.782 Z" fill="#000000" fill-rule="nonzero" fill-opacity="1" /><circle clip-path="url(#clip870)" cx="497.192" cy="248.629" r="18.432" fill="#3da44d" fill-rule="evenodd" fill-opacity="1" stroke="#000000" stroke-opacity="1" stroke-width="8.192"/>
<path clip-path="url(#clip870)" d="M603.006 249.705 Q604.51 250.214 605.922 251.881 Q607.358 253.548 608.793 256.464 L613.538 265.909 L608.515 265.909 L604.094 257.043 Q602.381 253.571 600.76 252.436 Q599.163 251.302 596.385 251.302 L591.293 251.302 L591.293 265.909 L586.617 265.909 L586.617 231.349 L597.173 231.349 Q603.098 231.349 606.015 233.825 Q608.932 236.302 608.932 241.302 Q608.932 244.566 607.404 246.719 Q605.899 248.872 603.006 249.705 M591.293 235.191 L591.293 247.46 L597.173 247.46 Q600.552 247.46 602.265 245.909 Q604.001 244.335 604.001 241.302 Q604.001 238.27 602.265 236.742 Q600.552 235.191 597.173 235.191 L591.293 235.191 Z" fill="#000000" fill-rule="nonzero" fill-opacity="1" /><path clip-path="url(#clip870)" d="M640.274 232.483 L640.274 237.043 Q637.612 235.77 635.251 235.145 Q632.89 234.52 630.691 234.52 Q626.871 234.52 624.788 236.001 Q622.728 237.483 622.728 240.214 Q622.728 242.506 624.094 243.687 Q625.483 244.844 629.325 245.562 L632.149 246.14 Q637.381 247.136 639.857 249.659 Q642.357 252.159 642.357 256.372 Q642.357 261.395 638.978 263.987 Q635.621 266.58 629.117 266.58 Q626.663 266.58 623.885 266.024 Q621.131 265.469 618.168 264.381 L618.168 259.566 Q621.015 261.163 623.746 261.973 Q626.478 262.784 629.117 262.784 Q633.121 262.784 635.297 261.21 Q637.473 259.636 637.473 256.719 Q637.473 254.173 635.899 252.737 Q634.348 251.302 630.783 250.585 L627.936 250.029 Q622.705 248.987 620.367 246.765 Q618.029 244.543 618.029 240.585 Q618.029 236.001 621.246 233.362 Q624.487 230.724 630.158 230.724 Q632.589 230.724 635.112 231.163 Q637.635 231.603 640.274 232.483 Z" fill="#000000" fill-rule="nonzero" fill-opacity="1" /><path clip-path="url(#clip870)" d="M670.367 232.483 L670.367 237.043 Q667.705 235.77 665.343 235.145 Q662.982 234.52 660.783 234.52 Q656.964 234.52 654.881 236.001 Q652.82 237.483 652.82 240.214 Q652.82 242.506 654.186 243.687 Q655.575 244.844 659.418 245.562 L662.242 246.14 Q667.473 247.136 669.95 249.659 Q672.45 252.159 672.45 256.372 Q672.45 261.395 669.07 263.987 Q665.714 266.58 659.209 266.58 Q656.756 266.58 653.978 266.024 Q651.223 265.469 648.26 264.381 L648.26 259.566 Q651.107 261.163 653.839 261.973 Q656.57 262.784 659.209 262.784 Q663.214 262.784 665.39 261.21 Q667.566 259.636 667.566 256.719 Q667.566 254.173 665.992 252.737 Q664.441 251.302 660.876 250.585 L658.029 250.029 Q652.797 248.987 650.459 246.765 Q648.121 244.543 648.121 240.585 Q648.121 236.001 651.339 233.362 Q654.58 230.724 660.251 230.724 Q662.681 230.724 665.205 231.163 Q667.728 231.603 670.367 232.483 Z" fill="#000000" fill-rule="nonzero" fill-opacity="1" /><path clip-path="url(#clip870)" d="M709.649 243.964 Q708.931 243.548 708.075 243.362 Q707.241 243.154 706.223 243.154 Q702.612 243.154 700.667 245.515 Q698.746 247.853 698.746 252.251 L698.746 265.909 L694.464 265.909 L694.464 239.983 L698.746 239.983 L698.746 244.011 Q700.089 241.649 702.241 240.515 Q704.394 239.358 707.473 239.358 Q707.913 239.358 708.445 239.427 Q708.977 239.474 709.626 239.589 L709.649 243.964 Z" fill="#000000" fill-rule="nonzero" fill-opacity="1" /><path clip-path="url(#clip870)" d="M714.116 239.983 L718.376 239.983 L718.376 265.909 L714.116 265.909 L714.116 239.983 M714.116 229.89 L718.376 229.89 L718.376 235.284 L714.116 235.284 L714.116 229.89 Z" fill="#000000" fill-rule="nonzero" fill-opacity="1" /><path clip-path="url(#clip870)" d="M744.348 252.645 Q744.348 248.015 742.426 245.469 Q740.528 242.923 737.079 242.923 Q733.653 242.923 731.732 245.469 Q729.834 248.015 729.834 252.645 Q729.834 257.251 731.732 259.798 Q733.653 262.344 737.079 262.344 Q740.528 262.344 742.426 259.798 Q744.348 257.251 744.348 252.645 M748.607 262.691 Q748.607 269.311 745.667 272.529 Q742.727 275.77 736.663 275.77 Q734.417 275.77 732.426 275.422 Q730.436 275.098 728.561 274.404 L728.561 270.26 Q730.436 271.279 732.264 271.765 Q734.093 272.251 735.991 272.251 Q740.181 272.251 742.264 270.052 Q744.348 267.876 744.348 263.455 L744.348 261.348 Q743.028 263.64 740.968 264.774 Q738.908 265.909 736.038 265.909 Q731.269 265.909 728.352 262.274 Q725.436 258.64 725.436 252.645 Q725.436 246.626 728.352 242.992 Q731.269 239.358 736.038 239.358 Q738.908 239.358 740.968 240.492 Q743.028 241.626 744.348 243.918 L744.348 239.983 L748.607 239.983 L748.607 262.691 Z" fill="#000000" fill-rule="nonzero" fill-opacity="1" /><path clip-path="url(#clip870)" d="M778.931 250.261 L778.931 265.909 L774.672 265.909 L774.672 250.399 Q774.672 246.719 773.236 244.89 Q771.801 243.062 768.931 243.062 Q765.482 243.062 763.491 245.261 Q761.5 247.46 761.5 251.256 L761.5 265.909 L757.218 265.909 L757.218 229.89 L761.5 229.89 L761.5 244.011 Q763.028 241.673 765.088 240.515 Q767.172 239.358 769.88 239.358 Q774.347 239.358 776.639 242.136 Q778.931 244.89 778.931 250.261 Z" fill="#000000" fill-rule="nonzero" fill-opacity="1" /><path clip-path="url(#clip870)" d="M791.639 232.622 L791.639 239.983 L800.412 239.983 L800.412 243.293 L791.639 243.293 L791.639 257.367 Q791.639 260.538 792.496 261.441 Q793.375 262.344 796.037 262.344 L800.412 262.344 L800.412 265.909 L796.037 265.909 Q791.107 265.909 789.232 264.08 Q787.357 262.228 787.357 257.367 L787.357 243.293 L784.232 243.293 L784.232 239.983 L787.357 239.983 L787.357 232.622 L791.639 232.622 Z" fill="#000000" fill-rule="nonzero" fill-opacity="1" /></svg>
