<?xml version="1.0" encoding="utf-8"?>
<svg xmlns="http://www.w3.org/2000/svg" xmlns:xlink="http://www.w3.org/1999/xlink" width="600" height="400" viewBox="0 0 2400 1600">
<defs>
  <clipPath id="clip780">
    <rect x="0" y="0" width="2400" height="1600"/>
  </clipPath>
</defs>
<path clip-path="url(#clip780)" d="M0 1600 L2400 1600 L2400 0 L0 0  Z" fill="#ffffff" fill-rule="evenodd" fill-opacity="1"/>
<defs>
  <clipPath id="clip781">
    <rect x="480" y="0" width="1681" height="1600"/>
  </clipPath>
</defs>
<path clip-path="url(#clip780)" d="M232.389 1423.18 L2352.76 1423.18 L2352.76 47.2441 L232.389 47.2441  Z" fill="#ffffff" fill-rule="evenodd" fill-opacity="1"/>
<defs>
  <clipPath id="clip782">
    <rect x="232" y="47" width="2121" height="1377"/>
  </clipPath>
</defs>
<polyline clip-path="url(#clip782)" style="stroke:#000000; stroke-linecap:round; stroke-linejoin:round; stroke-width:2; stroke-opacity:0.1; fill:none" points="292.4,1423.18 292.4,47.2441 "/>
<polyline clip-path="url(#clip782)" style="stroke:#000000; stroke-linecap:round; stroke-linejoin:round; stroke-width:2; stroke-opacity:0.1; fill:none" points="736.921,1423.18 736.921,47.2441 "/>
<polyline clip-path="url(#clip782)" style="stroke:#000000; stroke-linecap:round; stroke-linejoin:round; stroke-width:2; stroke-opacity:0.1; fill:none" points="1181.44,1423.18 1181.44,47.2441 "/>
<polyline clip-path="url(#clip782)" style="stroke:#000000; stroke-linecap:round; stroke-linejoin:round; stroke-width:2; stroke-opacity:0.1; fill:none" points="1625.96,1423.18 1625.96,47.2441 "/>
<polyline clip-path="url(#clip782)" style="stroke:#000000; stroke-linecap:round; stroke-linejoin:round; stroke-width:2; stroke-opacity:0.1; fill:none" points="2070.48,1423.18 2070.48,47.2441 "/>
<polyline clip-path="url(#clip782)" style="stroke:#000000; stroke-linecap:round; stroke-linejoin:round; stroke-width:2; stroke-opacity:0.1; fill:none" points="232.389,1410.73 2352.76,1410.73 "/>
<polyline clip-path="url(#clip782)" style="stroke:#000000; stroke-linecap:round; stroke-linejoin:round; stroke-width:2; stroke-opacity:0.1; fill:none" points="232.389,1079.59 2352.76,1079.59 "/>
<polyline clip-path="url(#clip782)" style="stroke:#000000; stroke-linecap:round; stroke-linejoin:round; stroke-width:2; stroke-opacity:0.1; fill:none" points="232.389,748.457 2352.76,748.457 "/>
<polyline clip-path="url(#clip782)" style="stroke:#000000; stroke-linecap:round; stroke-linejoin:round; stroke-width:2; stroke-opacity:0.1; fill:none" points="232.389,417.322 2352.76,417.322 "/>
<polyline clip-path="url(#clip782)" style="stroke:#000000; stroke-linecap:round; stroke-linejoin:round; stroke-width:2; stroke-opacity:0.1; fill:none" points="232.389,86.1857 2352.76,86.1857 "/>
<polyline clip-path="url(#clip780)" style="stroke:#000000; stroke-linecap:round; stroke-linejoin:round; stroke-width:4; stroke-opacity:1; fill:none" points="232.389,1423.18 2352.76,1423.18 "/>
<polyline clip-path="url(#clip780)" style="stroke:#000000; stroke-linecap:round; stroke-linejoin:round; stroke-width:4; stroke-opacity:1; fill:none" points="292.4,1423.18 292.4,1404.28 "/>
<polyline clip-path="url(#clip780)" style="stroke:#000000; stroke-linecap:round; stroke-linejoin:round; stroke-width:4; stroke-opacity:1; fill:none" points="736.921,1423.18 736.921,1404.28 "/>
<polyline clip-path="url(#clip780)" style="stroke:#000000; stroke-linecap:round; stroke-linejoin:round; stroke-width:4; stroke-opacity:1; fill:none" points="1181.44,1423.18 1181.44,1404.28 "/>
<polyline clip-path="url(#clip780)" style="stroke:#000000; stroke-linecap:round; stroke-linejoin:round; stroke-width:4; stroke-opacity:1; fill:none" points="1625.96,1423.18 1625.96,1404.28 "/>
<polyline clip-path="url(#clip780)" style="stroke:#000000; stroke-linecap:round; stroke-linejoin:round; stroke-width:4; stroke-opacity:1; fill:none" points="2070.48,1423.18 2070.48,1404.28 "/>
<path clip-path="url(#clip780)" d="M292.4 1454.1 Q288.789 1454.1 286.96 1457.66 Q285.154 1461.2 285.154 1468.33 Q285.154 1475.44 286.96 1479.01 Q288.789 1482.55 292.4 1482.55 Q296.034 1482.55 297.84 1479.01 Q299.668 1475.44 299.668 1468.33 Q299.668 1461.2 297.84 1457.66 Q296.034 1454.1 292.4 1454.1 M292.4 1450.39 Q298.21 1450.39 301.265 1455 Q304.344 1459.58 304.344 1468.33 Q304.344 1477.06 301.265 1481.67 Q298.21 1486.25 292.4 1486.25 Q286.59 1486.25 283.511 1481.67 Q280.455 1477.06 280.455 1468.33 Q280.455 1459.58 283.511 1455 Q286.59 1450.39 292.4 1450.39 Z" fill="#000000" fill-rule="nonzero" fill-opacity="1" /><path clip-path="url(#clip780)" d="M715.694 1481.64 L732.014 1481.64 L732.014 1485.58 L710.069 1485.58 L710.069 1481.64 Q712.731 1478.89 717.315 1474.26 Q721.921 1469.61 723.102 1468.27 Q725.347 1465.74 726.227 1464.01 Q727.129 1462.25 727.129 1460.56 Q727.129 1457.8 725.185 1456.07 Q723.264 1454.33 720.162 1454.33 Q717.963 1454.33 715.509 1455.09 Q713.079 1455.86 710.301 1457.41 L710.301 1452.69 Q713.125 1451.55 715.579 1450.97 Q718.032 1450.39 720.069 1450.39 Q725.44 1450.39 728.634 1453.08 Q731.828 1455.77 731.828 1460.26 Q731.828 1462.39 731.018 1464.31 Q730.231 1466.2 728.125 1468.8 Q727.546 1469.47 724.444 1472.69 Q721.342 1475.88 715.694 1481.64 Z" fill="#000000" fill-rule="nonzero" fill-opacity="1" /><path clip-path="url(#clip780)" d="M751.828 1454.1 Q748.217 1454.1 746.389 1457.66 Q744.583 1461.2 744.583 1468.33 Q744.583 1475.44 746.389 1479.01 Q748.217 1482.55 751.828 1482.55 Q755.463 1482.55 757.268 1479.01 Q759.097 1475.44 759.097 1468.33 Q759.097 1461.2 757.268 1457.66 Q755.463 1454.1 751.828 1454.1 M751.828 1450.39 Q757.638 1450.39 760.694 1455 Q763.773 1459.58 763.773 1468.33 Q763.773 1477.06 760.694 1481.67 Q757.638 1486.25 751.828 1486.25 Q746.018 1486.25 742.939 1481.67 Q739.884 1477.06 739.884 1468.33 Q739.884 1459.58 742.939 1455 Q746.018 1450.39 751.828 1450.39 Z" fill="#000000" fill-rule="nonzero" fill-opacity="1" /><path clip-path="url(#clip780)" d="M1169.61 1455.09 L1157.81 1473.54 L1169.61 1473.54 L1169.61 1455.09 M1168.39 1451.02 L1174.27 1451.02 L1174.27 1473.54 L1179.2 1473.54 L1179.2 1477.43 L1174.27 1477.43 L1174.27 1485.58 L1169.61 1485.58 L1169.61 1477.43 L1154.01 1477.43 L1154.01 1472.92 L1168.39 1451.02 Z" fill="#000000" fill-rule="nonzero" fill-opacity="1" /><path clip-path="url(#clip780)" d="M1196.93 1454.1 Q1193.32 1454.1 1191.49 1457.66 Q1189.68 1461.2 1189.68 1468.33 Q1189.68 1475.44 1191.49 1479.01 Q1193.32 1482.55 1196.93 1482.55 Q1200.56 1482.55 1202.37 1479.01 Q1204.2 1475.44 1204.2 1468.33 Q1204.2 1461.2 1202.37 1457.66 Q1200.56 1454.1 1196.93 1454.1 M1196.93 1450.39 Q1202.74 1450.39 1205.79 1455 Q1208.87 1459.58 1208.87 1468.33 Q1208.87 1477.06 1205.79 1481.67 Q1202.74 1486.25 1196.93 1486.25 Q1191.12 1486.25 1188.04 1481.67 Q1184.98 1477.06 1184.98 1468.33 Q1184.98 1459.58 1188.04 1455 Q1191.12 1450.39 1196.93 1450.39 Z" fill="#000000" fill-rule="nonzero" fill-opacity="1" /><path clip-path="url(#clip780)" d="M1611.37 1466.44 Q1608.22 1466.44 1606.37 1468.59 Q1604.54 1470.74 1604.54 1474.49 Q1604.54 1478.22 1606.37 1480.39 Q1608.22 1482.55 1611.37 1482.55 Q1614.52 1482.55 1616.35 1480.39 Q1618.2 1478.22 1618.2 1474.49 Q1618.2 1470.74 1616.35 1468.59 Q1614.52 1466.44 1611.37 1466.44 M1620.65 1451.78 L1620.65 1456.04 Q1618.89 1455.21 1617.09 1454.77 Q1615.3 1454.33 1613.54 1454.33 Q1608.92 1454.33 1606.46 1457.45 Q1604.03 1460.58 1603.68 1466.9 Q1605.05 1464.89 1607.11 1463.82 Q1609.17 1462.73 1611.65 1462.73 Q1616.85 1462.73 1619.86 1465.9 Q1622.9 1469.05 1622.9 1474.49 Q1622.9 1479.82 1619.75 1483.03 Q1616.6 1486.25 1611.37 1486.25 Q1605.37 1486.25 1602.2 1481.67 Q1599.03 1477.06 1599.03 1468.33 Q1599.03 1460.14 1602.92 1455.28 Q1606.81 1450.39 1613.36 1450.39 Q1615.12 1450.39 1616.9 1450.74 Q1618.71 1451.09 1620.65 1451.78 Z" fill="#000000" fill-rule="nonzero" fill-opacity="1" /><path clip-path="url(#clip780)" d="M1640.95 1454.1 Q1637.34 1454.1 1635.51 1457.66 Q1633.71 1461.2 1633.71 1468.33 Q1633.71 1475.44 1635.51 1479.01 Q1637.34 1482.55 1640.95 1482.55 Q1644.59 1482.55 1646.39 1479.01 Q1648.22 1475.44 1648.22 1468.33 Q1648.22 1461.2 1646.39 1457.66 Q1644.59 1454.1 1640.95 1454.1 M1640.95 1450.39 Q1646.76 1450.39 1649.82 1455 Q1652.9 1459.58 1652.9 1468.33 Q1652.9 1477.06 1649.82 1481.67 Q1646.76 1486.25 1640.95 1486.25 Q1635.14 1486.25 1632.06 1481.67 Q1629.01 1477.06 1629.01 1468.33 Q1629.01 1459.58 1632.06 1455 Q1635.14 1450.39 1640.95 1450.39 Z" fill="#000000" fill-rule="nonzero" fill-opacity="1" /><path clip-path="url(#clip780)" d="M2055.36 1469.17 Q2052.02 1469.17 2050.1 1470.95 Q2048.2 1472.73 2048.2 1475.86 Q2048.2 1478.98 2050.1 1480.77 Q2052.02 1482.55 2055.36 1482.55 Q2058.69 1482.55 2060.61 1480.77 Q2062.53 1478.96 2062.53 1475.86 Q2062.53 1472.73 2060.61 1470.95 Q2058.71 1469.17 2055.36 1469.17 M2050.68 1467.18 Q2047.67 1466.44 2045.98 1464.38 Q2044.32 1462.32 2044.32 1459.35 Q2044.32 1455.21 2047.26 1452.8 Q2050.22 1450.39 2055.36 1450.39 Q2060.52 1450.39 2063.46 1452.8 Q2066.4 1455.21 2066.4 1459.35 Q2066.4 1462.32 2064.71 1464.38 Q2063.04 1466.44 2060.06 1467.18 Q2063.44 1467.96 2065.31 1470.26 Q2067.21 1472.55 2067.21 1475.86 Q2067.21 1480.88 2064.13 1483.57 Q2061.08 1486.25 2055.36 1486.25 Q2049.64 1486.25 2046.56 1483.57 Q2043.51 1480.88 2043.51 1475.86 Q2043.51 1472.55 2045.4 1470.26 Q2047.3 1467.96 2050.68 1467.18 M2048.97 1459.79 Q2048.97 1462.48 2050.64 1463.98 Q2052.33 1465.49 2055.36 1465.49 Q2058.37 1465.49 2060.06 1463.98 Q2061.77 1462.48 2061.77 1459.79 Q2061.77 1457.11 2060.06 1455.6 Q2058.37 1454.1 2055.36 1454.1 Q2052.33 1454.1 2050.64 1455.6 Q2048.97 1457.11 2048.97 1459.79 Z" fill="#000000" fill-rule="nonzero" fill-opacity="1" /><path clip-path="url(#clip780)" d="M2085.52 1454.1 Q2081.91 1454.1 2080.08 1457.66 Q2078.27 1461.2 2078.27 1468.33 Q2078.27 1475.44 2080.08 1479.01 Q2081.91 1482.55 2085.52 1482.55 Q2089.15 1482.55 2090.96 1479.01 Q2092.79 1475.44 2092.79 1468.33 Q2092.79 1461.2 2090.96 1457.66 Q2089.15 1454.1 2085.52 1454.1 M2085.52 1450.39 Q2091.33 1450.39 2094.39 1455 Q2097.46 1459.58 2097.46 1468.33 Q2097.46 1477.06 2094.39 1481.67 Q2091.33 1486.25 2085.52 1486.25 Q2079.71 1486.25 2076.63 1481.67 Q2073.58 1477.06 2073.58 1468.33 Q2073.58 1459.58 2076.63 1455 Q2079.71 1450.39 2085.52 1450.39 Z" fill="#000000" fill-rule="nonzero" fill-opacity="1" /><path clip-path="url(#clip780)" d="M987.432 1520.52 L997.013 1520.52 L1009.14 1552.86 L1021.33 1520.52 L1030.91 1520.52 L1030.91 1568.04 L1024.64 1568.04 L1024.64 1526.32 L1012.39 1558.91 L1005.92 1558.91 L993.671 1526.32 L993.671 1568.04 L987.432 1568.04 L987.432 1520.52 Z" fill="#000000" fill-rule="nonzero" fill-opacity="1" /><path clip-path="url(#clip780)" d="M1059.62 1550.12 Q1052.52 1550.12 1049.78 1551.75 Q1047.05 1553.37 1047.05 1557.29 Q1047.05 1560.4 1049.08 1562.25 Q1051.15 1564.07 1054.69 1564.07 Q1059.56 1564.07 1062.48 1560.63 Q1065.44 1557.16 1065.44 1551.43 L1065.44 1550.12 L1059.62 1550.12 M1071.3 1547.71 L1071.3 1568.04 L1065.44 1568.04 L1065.44 1562.63 Q1063.44 1565.88 1060.45 1567.44 Q1057.46 1568.97 1053.13 1568.97 Q1047.65 1568.97 1044.41 1565.91 Q1041.19 1562.82 1041.19 1557.67 Q1041.19 1551.65 1045.2 1548.6 Q1049.24 1545.54 1057.23 1545.54 L1065.44 1545.54 L1065.44 1544.97 Q1065.44 1540.93 1062.77 1538.73 Q1060.13 1536.5 1055.32 1536.5 Q1052.27 1536.5 1049.37 1537.23 Q1046.47 1537.97 1043.8 1539.43 L1043.8 1534.02 Q1047.02 1532.78 1050.04 1532.17 Q1053.06 1531.54 1055.93 1531.54 Q1063.66 1531.54 1067.48 1535.55 Q1071.3 1539.56 1071.3 1547.71 Z" fill="#000000" fill-rule="nonzero" fill-opacity="1" /><path clip-path="url(#clip780)" d="M1106.09 1533.45 L1106.09 1538.98 Q1103.61 1537.71 1100.93 1537.07 Q1098.26 1536.44 1095.39 1536.44 Q1091.03 1536.44 1088.84 1537.77 Q1086.67 1539.11 1086.67 1541.79 Q1086.67 1543.82 1088.23 1545 Q1089.79 1546.15 1094.5 1547.2 L1096.51 1547.64 Q1102.75 1548.98 1105.36 1551.43 Q1108 1553.85 1108 1558.21 Q1108 1563.17 1104.05 1566.07 Q1100.14 1568.97 1093.26 1568.97 Q1090.4 1568.97 1087.28 1568.39 Q1084.19 1567.85 1080.75 1566.74 L1080.75 1560.69 Q1084 1562.38 1087.15 1563.24 Q1090.3 1564.07 1093.39 1564.07 Q1097.53 1564.07 1099.76 1562.66 Q1101.98 1561.23 1101.98 1558.65 Q1101.98 1556.27 1100.36 1554.99 Q1098.77 1553.72 1093.33 1552.54 L1091.29 1552.07 Q1085.85 1550.92 1083.43 1548.56 Q1081.01 1546.18 1081.01 1542.04 Q1081.01 1537.01 1084.57 1534.27 Q1088.14 1531.54 1094.69 1531.54 Q1097.94 1531.54 1100.81 1532.01 Q1103.67 1532.49 1106.09 1533.45 Z" fill="#000000" fill-rule="nonzero" fill-opacity="1" /><path clip-path="url(#clip780)" d="M1140.05 1533.45 L1140.05 1538.98 Q1137.57 1537.71 1134.89 1537.07 Q1132.22 1536.44 1129.36 1536.44 Q1125 1536.44 1122.8 1537.77 Q1120.63 1539.11 1120.63 1541.79 Q1120.63 1543.82 1122.19 1545 Q1123.75 1546.15 1128.46 1547.2 L1130.47 1547.64 Q1136.71 1548.98 1139.32 1551.43 Q1141.96 1553.85 1141.96 1558.21 Q1141.96 1563.17 1138.01 1566.07 Q1134.1 1568.97 1127.22 1568.97 Q1124.36 1568.97 1121.24 1568.39 Q1118.15 1567.85 1114.71 1566.74 L1114.71 1560.69 Q1117.96 1562.38 1121.11 1563.24 Q1124.26 1564.07 1127.35 1564.07 Q1131.49 1564.07 1133.72 1562.66 Q1135.94 1561.23 1135.94 1558.65 Q1135.94 1556.27 1134.32 1554.99 Q1132.73 1553.72 1127.29 1552.54 L1125.25 1552.07 Q1119.81 1550.92 1117.39 1548.56 Q1114.97 1546.18 1114.97 1542.04 Q1114.97 1537.01 1118.53 1534.27 Q1122.1 1531.54 1128.66 1531.54 Q1131.9 1531.54 1134.77 1532.01 Q1137.63 1532.49 1140.05 1533.45 Z" fill="#000000" fill-rule="nonzero" fill-opacity="1" /><path clip-path="url(#clip780)" d="M1197.66 1533.76 L1197.66 1539.24 Q1195.18 1537.87 1192.66 1537.2 Q1190.18 1536.5 1187.63 1536.5 Q1181.94 1536.5 1178.79 1540.13 Q1175.63 1543.73 1175.63 1550.25 Q1175.63 1556.78 1178.79 1560.4 Q1181.94 1564 1187.63 1564 Q1190.18 1564 1192.66 1563.33 Q1195.18 1562.63 1197.66 1561.26 L1197.66 1566.68 Q1195.21 1567.82 1192.57 1568.39 Q1189.96 1568.97 1187 1568.97 Q1178.94 1568.97 1174.2 1563.91 Q1169.46 1558.85 1169.46 1550.25 Q1169.46 1541.53 1174.23 1536.53 Q1179.04 1531.54 1187.38 1531.54 Q1190.08 1531.54 1192.66 1532.11 Q1195.24 1532.65 1197.66 1533.76 Z" fill="#000000" fill-rule="nonzero" fill-opacity="1" /><path clip-path="url(#clip780)" d="M1224.05 1550.12 Q1216.95 1550.12 1214.21 1551.75 Q1211.47 1553.37 1211.47 1557.29 Q1211.47 1560.4 1213.51 1562.25 Q1215.58 1564.07 1219.11 1564.07 Q1223.98 1564.07 1226.91 1560.63 Q1229.87 1557.16 1229.87 1551.43 L1229.87 1550.12 L1224.05 1550.12 M1235.73 1547.71 L1235.73 1568.04 L1229.87 1568.04 L1229.87 1562.63 Q1227.87 1565.88 1224.87 1567.44 Q1221.88 1568.97 1217.55 1568.97 Q1212.08 1568.97 1208.83 1565.91 Q1205.62 1562.82 1205.62 1557.67 Q1205.62 1551.65 1209.63 1548.6 Q1213.67 1545.54 1221.66 1545.54 L1229.87 1545.54 L1229.87 1544.97 Q1229.87 1540.93 1227.2 1538.73 Q1224.56 1536.5 1219.75 1536.5 Q1216.69 1536.5 1213.8 1537.23 Q1210.9 1537.97 1208.23 1539.43 L1208.23 1534.02 Q1211.44 1532.78 1214.47 1532.17 Q1217.49 1531.54 1220.35 1531.54 Q1228.09 1531.54 1231.91 1535.55 Q1235.73 1539.56 1235.73 1547.71 Z" fill="#000000" fill-rule="nonzero" fill-opacity="1" /><path clip-path="url(#clip780)" d="M1247.79 1518.52 L1253.65 1518.52 L1253.65 1568.04 L1247.79 1568.04 L1247.79 1518.52 Z" fill="#000000" fill-rule="nonzero" fill-opacity="1" /><path clip-path="url(#clip780)" d="M1265.9 1532.4 L1271.76 1532.4 L1271.76 1568.04 L1265.9 1568.04 L1265.9 1532.4 M1265.9 1518.52 L1271.76 1518.52 L1271.76 1525.93 L1265.9 1525.93 L1265.9 1518.52 Z" fill="#000000" fill-rule="nonzero" fill-opacity="1" /><path clip-path="url(#clip780)" d="M1309.6 1550.25 Q1309.6 1543.79 1306.93 1540.13 Q1304.29 1536.44 1299.64 1536.44 Q1294.99 1536.44 1292.32 1540.13 Q1289.68 1543.79 1289.68 1550.25 Q1289.68 1556.71 1292.32 1560.4 Q1294.99 1564.07 1299.64 1564.07 Q1304.29 1564.07 1306.93 1560.4 Q1309.6 1556.71 1309.6 1550.25 M1289.68 1537.81 Q1291.52 1534.62 1294.32 1533.1 Q1297.16 1531.54 1301.07 1531.54 Q1307.56 1531.54 1311.61 1536.69 Q1315.68 1541.85 1315.68 1550.25 Q1315.68 1558.65 1311.61 1563.81 Q1307.56 1568.97 1301.07 1568.97 Q1297.16 1568.97 1294.32 1567.44 Q1291.52 1565.88 1289.68 1562.7 L1289.68 1568.04 L1283.79 1568.04 L1283.79 1518.52 L1289.68 1518.52 L1289.68 1537.81 Z" fill="#000000" fill-rule="nonzero" fill-opacity="1" /><path clip-path="url(#clip780)" d="M1346.04 1537.87 Q1345.06 1537.3 1343.88 1537.04 Q1342.73 1536.76 1341.33 1536.76 Q1336.37 1536.76 1333.7 1540 Q1331.05 1543.22 1331.05 1549.27 L1331.05 1568.04 L1325.17 1568.04 L1325.17 1532.4 L1331.05 1532.4 L1331.05 1537.93 Q1332.9 1534.69 1335.86 1533.13 Q1338.82 1531.54 1343.05 1531.54 Q1343.66 1531.54 1344.39 1531.63 Q1345.12 1531.7 1346.01 1531.85 L1346.04 1537.87 Z" fill="#000000" fill-rule="nonzero" fill-opacity="1" /><path clip-path="url(#clip780)" d="M1368.39 1550.12 Q1361.29 1550.12 1358.55 1551.75 Q1355.82 1553.37 1355.82 1557.29 Q1355.82 1560.4 1357.85 1562.25 Q1359.92 1564.07 1363.45 1564.07 Q1368.32 1564.07 1371.25 1560.63 Q1374.21 1557.16 1374.21 1551.43 L1374.21 1550.12 L1368.39 1550.12 M1380.07 1547.71 L1380.07 1568.04 L1374.21 1568.04 L1374.21 1562.63 Q1372.21 1565.88 1369.22 1567.44 Q1366.22 1568.97 1361.9 1568.97 Q1356.42 1568.97 1353.17 1565.91 Q1349.96 1562.82 1349.96 1557.67 Q1349.96 1551.65 1353.97 1548.6 Q1358.01 1545.54 1366 1545.54 L1374.21 1545.54 L1374.21 1544.97 Q1374.21 1540.93 1371.54 1538.73 Q1368.9 1536.5 1364.09 1536.5 Q1361.04 1536.5 1358.14 1537.23 Q1355.24 1537.97 1352.57 1539.43 L1352.57 1534.02 Q1355.78 1532.78 1358.81 1532.17 Q1361.83 1531.54 1364.7 1531.54 Q1372.43 1531.54 1376.25 1535.55 Q1380.07 1539.56 1380.07 1547.71 Z" fill="#000000" fill-rule="nonzero" fill-opacity="1" /><path clip-path="url(#clip780)" d="M1421.76 1546.53 L1421.76 1568.04 L1415.91 1568.04 L1415.91 1546.72 Q1415.91 1541.66 1413.93 1539.14 Q1411.96 1536.63 1408.01 1536.63 Q1403.27 1536.63 1400.54 1539.65 Q1397.8 1542.68 1397.8 1547.9 L1397.8 1568.04 L1391.91 1568.04 L1391.91 1532.4 L1397.8 1532.4 L1397.8 1537.93 Q1399.9 1534.72 1402.73 1533.13 Q1405.6 1531.54 1409.32 1531.54 Q1415.46 1531.54 1418.61 1535.36 Q1421.76 1539.14 1421.76 1546.53 Z" fill="#000000" fill-rule="nonzero" fill-opacity="1" /><path clip-path="url(#clip780)" d="M1439.24 1522.27 L1439.24 1532.4 L1451.3 1532.4 L1451.3 1536.95 L1439.24 1536.95 L1439.24 1556.3 Q1439.24 1560.66 1440.42 1561.9 Q1441.63 1563.14 1445.29 1563.14 L1451.3 1563.14 L1451.3 1568.04 L1445.29 1568.04 Q1438.51 1568.04 1435.93 1565.53 Q1433.35 1562.98 1433.35 1556.3 L1433.35 1536.95 L1429.05 1536.95 L1429.05 1532.4 L1433.35 1532.4 L1433.35 1522.27 L1439.24 1522.27 Z" fill="#000000" fill-rule="nonzero" fill-opacity="1" /><path clip-path="url(#clip780)" d="M1493.79 1518.58 Q1489.53 1525.9 1487.46 1533.06 Q1485.39 1540.23 1485.39 1547.58 Q1485.39 1554.93 1487.46 1562.16 Q1489.56 1569.35 1493.79 1576.64 L1488.7 1576.64 Q1483.93 1569.16 1481.54 1561.93 Q1479.18 1554.71 1479.18 1547.58 Q1479.18 1540.48 1481.54 1533.29 Q1483.89 1526.09 1488.7 1518.58 L1493.79 1518.58 Z" fill="#000000" fill-rule="nonzero" fill-opacity="1" /><path clip-path="url(#clip780)" d="M1505.41 1520.52 L1532.72 1520.52 L1532.72 1525.93 L1511.84 1525.93 L1511.84 1539.94 L1530.68 1539.94 L1530.68 1545.35 L1511.84 1545.35 L1511.84 1568.04 L1505.41 1568.04 L1505.41 1520.52 Z" fill="#000000" fill-rule="nonzero" fill-opacity="1" /><path clip-path="url(#clip780)" d="M1566.11 1549.81 Q1566.11 1543.44 1563.47 1539.94 Q1560.86 1536.44 1556.11 1536.44 Q1551.4 1536.44 1548.76 1539.94 Q1546.15 1543.44 1546.15 1549.81 Q1546.15 1556.14 1548.76 1559.64 Q1551.4 1563.14 1556.11 1563.14 Q1560.86 1563.14 1563.47 1559.64 Q1566.11 1556.14 1566.11 1549.81 M1571.96 1563.62 Q1571.96 1572.72 1567.92 1577.15 Q1563.88 1581.6 1555.54 1581.6 Q1552.45 1581.6 1549.72 1581.13 Q1546.98 1580.68 1544.4 1579.72 L1544.4 1574.03 Q1546.98 1575.43 1549.49 1576.1 Q1552.01 1576.76 1554.62 1576.76 Q1560.38 1576.76 1563.24 1573.74 Q1566.11 1570.75 1566.11 1564.67 L1566.11 1561.77 Q1564.29 1564.92 1561.46 1566.48 Q1558.63 1568.04 1554.68 1568.04 Q1548.12 1568.04 1544.11 1563.05 Q1540.1 1558.05 1540.1 1549.81 Q1540.1 1541.53 1544.11 1536.53 Q1548.12 1531.54 1554.68 1531.54 Q1558.63 1531.54 1561.46 1533.1 Q1564.29 1534.66 1566.11 1537.81 L1566.11 1532.4 L1571.96 1532.4 L1571.96 1563.62 Z" fill="#000000" fill-rule="nonzero" fill-opacity="1" /><path clip-path="url(#clip780)" d="M1583.1 1518.58 L1588.2 1518.58 Q1592.97 1526.09 1595.33 1533.29 Q1597.71 1540.48 1597.71 1547.58 Q1597.71 1554.71 1595.33 1561.93 Q1592.97 1569.16 1588.2 1576.64 L1583.1 1576.64 Q1587.34 1569.35 1589.41 1562.16 Q1591.51 1554.93 1591.51 1547.58 Q1591.51 1540.23 1589.41 1533.06 Q1587.34 1525.9 1583.1 1518.58 Z" fill="#000000" fill-rule="nonzero" fill-opacity="1" /><polyline clip-path="url(#clip780)" style="stroke:#000000; stroke-linecap:round; stroke-linejoin:round; stroke-width:4; stroke-opacity:1; fill:none" points="232.389,1423.18 232.389,47.2441 "/>
<polyline clip-path="url(#clip780)" style="stroke:#000000; stroke-linecap:round; stroke-linejoin:round; stroke-width:4; stroke-opacity:1; fill:none" points="232.389,1410.73 251.287,1410.73 "/>
<polyline clip-path="url(#clip780)" style="stroke:#000000; stroke-linecap:round; stroke-linejoin:round; stroke-width:4; stroke-opacity:1; fill:none" points="232.389,1079.59 251.287,1079.59 "/>
<polyline clip-path="url(#clip780)" style="stroke:#000000; stroke-linecap:round; stroke-linejoin:round; stroke-width:4; stroke-opacity:1; fill:none" points="232.389,748.457 251.287,748.457 "/>
<polyline clip-path="url(#clip780)" style="stroke:#000000; stroke-linecap:round; stroke-linejoin:round; stroke-width:4; stroke-opacity:1; fill:none" points="232.389,417.322 251.287,417.322 "/>
<polyline clip-path="url(#clip780)" style="stroke:#000000; stroke-linecap:round; stroke-linejoin:round; stroke-width:4; stroke-opacity:1; fill:none" points="232.389,86.1857 251.287,86.1857 "/>
<path clip-path="url(#clip780)" d="M184.445 1396.53 Q180.834 1396.53 179.005 1400.09 Q177.2 1403.63 177.2 1410.76 Q177.2 1417.87 179.005 1421.44 Q180.834 1424.98 184.445 1424.98 Q188.079 1424.98 189.885 1421.44 Q191.713 1417.87 191.713 1410.76 Q191.713 1403.63 189.885 1400.09 Q188.079 1396.53 184.445 1396.53 M184.445 1392.82 Q190.255 1392.82 193.311 1397.43 Q196.389 1402.01 196.389 1410.76 Q196.389 1419.49 193.311 1424.1 Q190.255 1428.68 184.445 1428.68 Q178.635 1428.68 175.556 1424.1 Q172.501 1419.49 172.501 1410.76 Q172.501 1402.01 175.556 1397.43 Q178.635 1392.82 184.445 1392.82 Z" fill="#000000" fill-rule="nonzero" fill-opacity="1" /><path clip-path="url(#clip780)" d="M149.306 1092.94 L165.626 1092.94 L165.626 1096.87 L143.681 1096.87 L143.681 1092.94 Q146.343 1090.18 150.927 1085.55 Q155.533 1080.9 156.714 1079.56 Q158.959 1077.04 159.839 1075.3 Q160.741 1073.54 160.741 1071.85 Q160.741 1069.1 158.797 1067.36 Q156.876 1065.62 153.774 1065.62 Q151.575 1065.62 149.121 1066.39 Q146.691 1067.15 143.913 1068.7 L143.913 1063.98 Q146.737 1062.85 149.191 1062.27 Q151.644 1061.69 153.681 1061.69 Q159.052 1061.69 162.246 1064.37 Q165.44 1067.06 165.44 1071.55 Q165.44 1073.68 164.63 1075.6 Q163.843 1077.5 161.737 1080.09 Q161.158 1080.76 158.056 1083.98 Q154.954 1087.17 149.306 1092.94 Z" fill="#000000" fill-rule="nonzero" fill-opacity="1" /><path clip-path="url(#clip780)" d="M175.487 1062.31 L193.843 1062.31 L193.843 1066.25 L179.769 1066.25 L179.769 1074.72 Q180.788 1074.37 181.806 1074.21 Q182.825 1074.03 183.843 1074.03 Q189.63 1074.03 193.01 1077.2 Q196.389 1080.37 196.389 1085.79 Q196.389 1091.36 192.917 1094.47 Q189.445 1097.54 183.126 1097.54 Q180.95 1097.54 178.681 1097.17 Q176.436 1096.8 174.028 1096.06 L174.028 1091.36 Q176.112 1092.5 178.334 1093.05 Q180.556 1093.61 183.033 1093.61 Q187.038 1093.61 189.375 1091.5 Q191.713 1089.4 191.713 1085.79 Q191.713 1082.17 189.375 1080.07 Q187.038 1077.96 183.033 1077.96 Q181.158 1077.96 179.283 1078.38 Q177.431 1078.79 175.487 1079.67 L175.487 1062.31 Z" fill="#000000" fill-rule="nonzero" fill-opacity="1" /><path clip-path="url(#clip780)" d="M144.329 731.177 L162.686 731.177 L162.686 735.113 L148.612 735.113 L148.612 743.585 Q149.63 743.238 150.649 743.075 Q151.667 742.89 152.686 742.89 Q158.473 742.89 161.852 746.062 Q165.232 749.233 165.232 754.649 Q165.232 760.228 161.76 763.33 Q158.288 766.409 151.968 766.409 Q149.792 766.409 147.524 766.038 Q145.279 765.668 142.871 764.927 L142.871 760.228 Q144.954 761.362 147.177 761.918 Q149.399 762.474 151.876 762.474 Q155.88 762.474 158.218 760.367 Q160.556 758.261 160.556 754.649 Q160.556 751.038 158.218 748.932 Q155.88 746.825 151.876 746.825 Q150.001 746.825 148.126 747.242 Q146.274 747.659 144.329 748.538 L144.329 731.177 Z" fill="#000000" fill-rule="nonzero" fill-opacity="1" /><path clip-path="url(#clip780)" d="M184.445 734.256 Q180.834 734.256 179.005 737.821 Q177.2 741.363 177.2 748.492 Q177.2 755.599 179.005 759.163 Q180.834 762.705 184.445 762.705 Q188.079 762.705 189.885 759.163 Q191.713 755.599 191.713 748.492 Q191.713 741.363 189.885 737.821 Q188.079 734.256 184.445 734.256 M184.445 730.552 Q190.255 730.552 193.311 735.159 Q196.389 739.742 196.389 748.492 Q196.389 757.219 193.311 761.825 Q190.255 766.409 184.445 766.409 Q178.635 766.409 175.556 761.825 Q172.501 757.219 172.501 748.492 Q172.501 739.742 175.556 735.159 Q178.635 730.552 184.445 730.552 Z" fill="#000000" fill-rule="nonzero" fill-opacity="1" /><path clip-path="url(#clip780)" d="M144.098 400.042 L166.32 400.042 L166.32 402.032 L153.774 434.602 L148.89 434.602 L160.695 403.977 L144.098 403.977 L144.098 400.042 Z" fill="#000000" fill-rule="nonzero" fill-opacity="1" /><path clip-path="url(#clip780)" d="M175.487 400.042 L193.843 400.042 L193.843 403.977 L179.769 403.977 L179.769 412.449 Q180.788 412.102 181.806 411.94 Q182.825 411.754 183.843 411.754 Q189.63 411.754 193.01 414.926 Q196.389 418.097 196.389 423.514 Q196.389 429.092 192.917 432.194 Q189.445 435.273 183.126 435.273 Q180.95 435.273 178.681 434.902 Q176.436 434.532 174.028 433.791 L174.028 429.092 Q176.112 430.227 178.334 430.782 Q180.556 431.338 183.033 431.338 Q187.038 431.338 189.375 429.231 Q191.713 427.125 191.713 423.514 Q191.713 419.903 189.375 417.796 Q187.038 415.69 183.033 415.69 Q181.158 415.69 179.283 416.106 Q177.431 416.523 175.487 417.403 L175.487 400.042 Z" fill="#000000" fill-rule="nonzero" fill-opacity="1" /><path clip-path="url(#clip780)" d="M114.931 99.5305 L122.57 99.5305 L122.57 73.1649 L114.26 74.8316 L114.26 70.5723 L122.524 68.9057 L127.2 68.9057 L127.2 99.5305 L134.839 99.5305 L134.839 103.466 L114.931 103.466 L114.931 99.5305 Z" fill="#000000" fill-rule="nonzero" fill-opacity="1" /><path clip-path="url(#clip780)" d="M154.283 71.9844 Q150.672 71.9844 148.843 75.5492 Q147.038 79.0908 147.038 86.2204 Q147.038 93.3268 148.843 96.8916 Q150.672 100.433 154.283 100.433 Q157.917 100.433 159.723 96.8916 Q161.552 93.3268 161.552 86.2204 Q161.552 79.0908 159.723 75.5492 Q157.917 71.9844 154.283 71.9844 M154.283 68.2807 Q160.093 68.2807 163.149 72.8871 Q166.227 77.4704 166.227 86.2204 Q166.227 94.9472 163.149 99.5537 Q160.093 104.137 154.283 104.137 Q148.473 104.137 145.394 99.5537 Q142.339 94.9472 142.339 86.2204 Q142.339 77.4704 145.394 72.8871 Q148.473 68.2807 154.283 68.2807 Z" fill="#000000" fill-rule="nonzero" fill-opacity="1" /><path clip-path="url(#clip780)" d="M184.445 71.9844 Q180.834 71.9844 179.005 75.5492 Q177.2 79.0908 177.2 86.2204 Q177.2 93.3268 179.005 96.8916 Q180.834 100.433 184.445 100.433 Q188.079 100.433 189.885 96.8916 Q191.713 93.3268 191.713 86.2204 Q191.713 79.0908 189.885 75.5492 Q188.079 71.9844 184.445 71.9844 M184.445 68.2807 Q190.255 68.2807 193.311 72.8871 Q196.389 77.4704 196.389 86.2204 Q196.389 94.9472 193.311 99.5537 Q190.255 104.137 184.445 104.137 Q178.635 104.137 175.556 99.5537 Q172.501 94.9472 172.501 86.2204 Q172.501 77.4704 175.556 72.8871 Q178.635 68.2807 184.445 68.2807 Z" fill="#000000" fill-rule="nonzero" fill-opacity="1" /><path clip-path="url(#clip780)" d="M41.7242 1056.54 Q42.4244 1054.47 44.7161 1052.53 Q47.0077 1050.55 51.0181 1048.58 L64.0042 1042.05 L64.0042 1048.96 L51.8138 1055.04 Q47.0395 1057.4 45.48 1059.62 Q43.9204 1061.82 43.9204 1065.64 L43.9204 1072.64 L64.0042 1072.64 L64.0042 1079.07 L16.4842 1079.07 L16.4842 1064.56 Q16.4842 1056.41 19.8898 1052.4 Q23.2955 1048.39 30.1704 1048.39 Q34.6582 1048.39 37.6183 1050.49 Q40.5784 1052.56 41.7242 1056.54 M21.7677 1072.64 L38.6368 1072.64 L38.6368 1064.56 Q38.6368 1059.91 36.5043 1057.56 Q34.34 1055.17 30.1704 1055.17 Q26.0009 1055.17 23.9002 1057.56 Q21.7677 1059.91 21.7677 1064.56 L21.7677 1072.64 Z" fill="#000000" fill-rule="nonzero" fill-opacity="1" /><path clip-path="url(#clip780)" d="M44.7161 1006.47 L47.5806 1006.47 L47.5806 1033.4 Q53.6281 1033.02 56.8109 1029.77 Q59.9619 1026.49 59.9619 1020.67 Q59.9619 1017.29 59.1344 1014.14 Q58.3069 1010.96 56.6518 1007.84 L62.1899 1007.84 Q63.5267 1010.99 64.227 1014.3 Q64.9272 1017.61 64.9272 1021.02 Q64.9272 1029.55 59.9619 1034.54 Q54.9967 1039.51 46.5303 1039.51 Q37.7774 1039.51 32.6531 1034.8 Q27.4968 1030.06 27.4968 1022.03 Q27.4968 1014.84 32.1438 1010.67 Q36.7589 1006.47 44.7161 1006.47 M42.9973 1012.33 Q38.1912 1012.39 35.3266 1015.03 Q32.4621 1017.64 32.4621 1021.97 Q32.4621 1026.87 35.2312 1029.83 Q38.0002 1032.76 43.0292 1033.21 L42.9973 1012.33 Z" fill="#000000" fill-rule="nonzero" fill-opacity="1" /><path clip-path="url(#clip780)" d="M14.479 996.858 L14.479 991.002 L64.0042 991.002 L64.0042 996.858 L14.479 996.858 Z" fill="#000000" fill-rule="nonzero" fill-opacity="1" /><path clip-path="url(#clip780)" d="M46.0847 962.547 Q46.0847 969.645 47.7079 972.382 Q49.3312 975.12 53.2461 975.12 Q56.3653 975.12 58.2114 973.083 Q60.0256 971.014 60.0256 967.481 Q60.0256 962.611 56.5881 959.683 Q53.1188 956.723 47.3897 956.723 L46.0847 956.723 L46.0847 962.547 M43.6657 950.866 L64.0042 950.866 L64.0042 956.723 L58.5933 956.723 Q61.8398 958.728 63.3994 961.72 Q64.9272 964.712 64.9272 969.04 Q64.9272 974.515 61.8716 977.761 Q58.7843 980.976 53.6281 980.976 Q47.6125 980.976 44.5569 976.966 Q41.5014 972.923 41.5014 964.934 L41.5014 956.723 L40.9285 956.723 Q36.8862 956.723 34.6901 959.396 Q32.4621 962.038 32.4621 966.844 Q32.4621 969.9 33.1941 972.796 Q33.9262 975.692 35.3903 978.366 L29.9795 978.366 Q28.7381 975.151 28.1334 972.128 Q27.4968 969.104 27.4968 966.239 Q27.4968 958.505 31.5072 954.686 Q35.5176 950.866 43.6657 950.866 Z" fill="#000000" fill-rule="nonzero" fill-opacity="1" /><path clip-path="url(#clip780)" d="M18.2347 933.01 L28.3562 933.01 L28.3562 920.947 L32.9077 920.947 L32.9077 933.01 L52.2594 933.01 Q56.6199 933.01 57.8613 931.833 Q59.1026 930.623 59.1026 926.963 L59.1026 920.947 L64.0042 920.947 L64.0042 926.963 Q64.0042 933.742 61.4897 936.321 Q58.9434 938.899 52.2594 938.899 L32.9077 938.899 L32.9077 943.196 L28.3562 943.196 L28.3562 938.899 L18.2347 938.899 L18.2347 933.01 Z" fill="#000000" fill-rule="nonzero" fill-opacity="1" /><path clip-path="url(#clip780)" d="M28.3562 913.245 L28.3562 907.388 L64.0042 907.388 L64.0042 913.245 L28.3562 913.245 M14.479 913.245 L14.479 907.388 L21.895 907.388 L21.895 913.245 L14.479 913.245 Z" fill="#000000" fill-rule="nonzero" fill-opacity="1" /><path clip-path="url(#clip780)" d="M28.3562 899.336 L28.3562 893.129 L58.275 881.989 L28.3562 870.849 L28.3562 864.643 L64.0042 878.011 L64.0042 885.968 L28.3562 899.336 Z" fill="#000000" fill-rule="nonzero" fill-opacity="1" /><path clip-path="url(#clip780)" d="M44.7161 826.067 L47.5806 826.067 L47.5806 852.993 Q53.6281 852.612 56.8109 849.365 Q59.9619 846.087 59.9619 840.262 Q59.9619 836.888 59.1344 833.737 Q58.3069 830.554 56.6518 827.435 L62.1899 827.435 Q63.5267 830.586 64.227 833.896 Q64.9272 837.207 64.9272 840.612 Q64.9272 849.142 59.9619 854.139 Q54.9967 859.105 46.5303 859.105 Q37.7774 859.105 32.6531 854.394 Q27.4968 849.651 27.4968 841.631 Q27.4968 834.437 32.1438 830.268 Q36.7589 826.067 44.7161 826.067 M42.9973 831.923 Q38.1912 831.987 35.3266 834.628 Q32.4621 837.238 32.4621 841.567 Q32.4621 846.469 35.2312 849.429 Q38.0002 852.357 43.0292 852.802 L42.9973 831.923 Z" fill="#000000" fill-rule="nonzero" fill-opacity="1" /><path clip-path="url(#clip780)" d="M28.3562 795.734 L28.3562 789.877 L64.0042 789.877 L64.0042 795.734 L28.3562 795.734 M14.479 795.734 L14.479 789.877 L21.895 789.877 L21.895 795.734 L14.479 795.734 Z" fill="#000000" fill-rule="nonzero" fill-opacity="1" /><path clip-path="url(#clip780)" d="M42.4881 747.991 L64.0042 747.991 L64.0042 753.848 L42.679 753.848 Q37.6183 753.848 35.1038 755.821 Q32.5894 757.794 32.5894 761.741 Q32.5894 766.484 35.6131 769.221 Q38.6368 771.958 43.8567 771.958 L64.0042 771.958 L64.0042 777.846 L28.3562 777.846 L28.3562 771.958 L33.8944 771.958 Q30.6797 769.857 29.0883 767.025 Q27.4968 764.16 27.4968 760.436 Q27.4968 754.293 31.3163 751.142 Q35.1038 747.991 42.4881 747.991 Z" fill="#000000" fill-rule="nonzero" fill-opacity="1" /><path clip-path="url(#clip780)" d="M18.2347 730.517 L28.3562 730.517 L28.3562 718.454 L32.9077 718.454 L32.9077 730.517 L52.2594 730.517 Q56.6199 730.517 57.8613 729.34 Q59.1026 728.13 59.1026 724.47 L59.1026 718.454 L64.0042 718.454 L64.0042 724.47 Q64.0042 731.249 61.4897 733.827 Q58.9434 736.406 52.2594 736.406 L32.9077 736.406 L32.9077 740.702 L28.3562 740.702 L28.3562 736.406 L18.2347 736.406 L18.2347 730.517 Z" fill="#000000" fill-rule="nonzero" fill-opacity="1" /><path clip-path="url(#clip780)" d="M44.7161 680.26 L47.5806 680.26 L47.5806 707.187 Q53.6281 706.805 56.8109 703.558 Q59.9619 700.28 59.9619 694.456 Q59.9619 691.082 59.1344 687.931 Q58.3069 684.748 56.6518 681.629 L62.1899 681.629 Q63.5267 684.78 64.227 688.09 Q64.9272 691.4 64.9272 694.806 Q64.9272 703.336 59.9619 708.333 Q54.9967 713.298 46.5303 713.298 Q37.7774 713.298 32.6531 708.587 Q27.4968 703.845 27.4968 695.824 Q27.4968 688.631 32.1438 684.461 Q36.7589 680.26 44.7161 680.26 M42.9973 686.116 Q38.1912 686.18 35.3266 688.822 Q32.4621 691.432 32.4621 695.761 Q32.4621 700.662 35.2312 703.622 Q38.0002 706.55 43.0292 706.996 L42.9973 686.116 Z" fill="#000000" fill-rule="nonzero" fill-opacity="1" /><path clip-path="url(#clip780)" d="M42.4881 641.015 L64.0042 641.015 L64.0042 646.872 L42.679 646.872 Q37.6183 646.872 35.1038 648.845 Q32.5894 650.819 32.5894 654.765 Q32.5894 659.508 35.6131 662.245 Q38.6368 664.982 43.8567 664.982 L64.0042 664.982 L64.0042 670.871 L28.3562 670.871 L28.3562 664.982 L33.8944 664.982 Q30.6797 662.882 29.0883 660.049 Q27.4968 657.184 27.4968 653.46 Q27.4968 647.317 31.3163 644.166 Q35.1038 641.015 42.4881 641.015 Z" fill="#000000" fill-rule="nonzero" fill-opacity="1" /><path clip-path="url(#clip780)" d="M29.4065 606.609 L34.9447 606.609 Q33.6716 609.091 33.035 611.765 Q32.3984 614.439 32.3984 617.303 Q32.3984 621.664 33.7352 623.86 Q35.072 626.024 37.7456 626.024 Q39.7826 626.024 40.9603 624.465 Q42.1061 622.905 43.1565 618.194 L43.6021 616.189 Q44.9389 609.951 47.3897 607.341 Q49.8086 604.699 54.1691 604.699 Q59.1344 604.699 62.0308 608.646 Q64.9272 612.561 64.9272 619.436 Q64.9272 622.3 64.3543 625.419 Q63.8132 628.507 62.6992 631.944 L56.6518 631.944 Q58.3387 628.698 59.198 625.547 Q60.0256 622.396 60.0256 619.308 Q60.0256 615.171 58.6251 612.943 Q57.1929 610.715 54.6147 610.715 Q52.2276 610.715 50.9545 612.338 Q49.6813 613.929 48.5037 619.372 L48.0262 621.409 Q46.8804 626.852 44.5251 629.271 Q42.138 631.69 38.0002 631.69 Q32.9713 631.69 30.2341 628.125 Q27.4968 624.56 27.4968 618.003 Q27.4968 614.757 27.9743 611.892 Q28.4517 609.028 29.4065 606.609 Z" fill="#000000" fill-rule="nonzero" fill-opacity="1" /><path clip-path="url(#clip780)" d="M28.3562 595.373 L28.3562 589.517 L64.0042 589.517 L64.0042 595.373 L28.3562 595.373 M14.479 595.373 L14.479 589.517 L21.895 589.517 L21.895 595.373 L14.479 595.373 Z" fill="#000000" fill-rule="nonzero" fill-opacity="1" /><path clip-path="url(#clip780)" d="M18.2347 571.47 L28.3562 571.47 L28.3562 559.407 L32.9077 559.407 L32.9077 571.47 L52.2594 571.47 Q56.6199 571.47 57.8613 570.292 Q59.1026 569.083 59.1026 565.423 L59.1026 559.407 L64.0042 559.407 L64.0042 565.423 Q64.0042 572.202 61.4897 574.78 Q58.9434 577.358 52.2594 577.358 L32.9077 577.358 L32.9077 581.655 L28.3562 581.655 L28.3562 577.358 L18.2347 577.358 L18.2347 571.47 Z" fill="#000000" fill-rule="nonzero" fill-opacity="1" /><path clip-path="url(#clip780)" d="M67.3143 536.872 Q73.68 539.355 75.6216 541.71 Q77.5631 544.066 77.5631 548.012 L77.5631 552.691 L72.6615 552.691 L72.6615 549.254 Q72.6615 546.835 71.5157 545.498 Q70.3699 544.161 66.1048 542.538 L63.4312 541.488 L28.3562 555.906 L28.3562 549.699 L56.238 538.559 L28.3562 527.419 L28.3562 521.213 L67.3143 536.872 Z" fill="#000000" fill-rule="nonzero" fill-opacity="1" /><path clip-path="url(#clip780)" d="M14.5426 478.34 Q21.8632 482.605 29.0246 484.674 Q36.186 486.743 43.5384 486.743 Q50.8908 486.743 58.1159 484.674 Q65.3091 482.573 72.5979 478.34 L72.5979 483.432 Q65.1182 488.207 57.8931 490.594 Q50.668 492.949 43.5384 492.949 Q36.4406 492.949 29.2474 490.594 Q22.0542 488.238 14.5426 483.432 L14.5426 478.34 Z" fill="#000000" fill-rule="nonzero" fill-opacity="1" /><path clip-path="url(#clip780)" d="M43.0928 425.727 Q43.0928 428.496 45.4481 430.088 Q47.8034 431.647 52.0048 431.647 Q56.1425 431.647 58.5296 430.088 Q60.885 428.496 60.885 425.727 Q60.885 423.022 58.5296 421.462 Q56.1425 419.871 52.0048 419.871 Q47.8353 419.871 45.48 421.462 Q43.0928 423.022 43.0928 425.727 M39.0506 425.727 Q39.0506 420.698 42.5517 417.738 Q46.0529 414.778 52.0048 414.778 Q57.9567 414.778 61.4579 417.77 Q64.9272 420.73 64.9272 425.727 Q64.9272 430.82 61.4579 433.78 Q57.9567 436.74 52.0048 436.74 Q46.021 436.74 42.5517 433.78 Q39.0506 430.788 39.0506 425.727 M19.667 458.574 Q19.667 461.312 22.0542 462.903 Q24.4095 464.463 28.5472 464.463 Q32.7485 464.463 35.1038 462.903 Q37.4592 461.343 37.4592 458.574 Q37.4592 455.805 35.1038 454.246 Q32.7485 452.654 28.5472 452.654 Q24.4413 452.654 22.0542 454.246 Q19.667 455.837 19.667 458.574 M15.6248 429.833 L15.6248 424.741 L64.9272 454.468 L64.9272 459.561 L15.6248 429.833 M15.6248 458.574 Q15.6248 453.545 19.1259 450.553 Q22.5952 447.562 28.5472 447.562 Q34.5628 447.562 38.0321 450.553 Q41.5014 453.514 41.5014 458.574 Q41.5014 463.635 38.0321 466.595 Q34.5309 469.523 28.5472 469.523 Q22.6271 469.523 19.1259 466.563 Q15.6248 463.603 15.6248 458.574 Z" fill="#000000" fill-rule="nonzero" fill-opacity="1" /><path clip-path="url(#clip780)" d="M14.5426 405.962 L14.5426 400.869 Q22.0542 396.095 29.2474 393.74 Q36.4406 391.352 43.5384 391.352 Q50.668 391.352 57.8931 393.74 Q65.1182 396.095 72.5979 400.869 L72.5979 405.962 Q65.3091 401.729 58.1159 399.66 Q50.8908 397.559 43.5384 397.559 Q36.186 397.559 29.0246 399.66 Q21.8632 401.729 14.5426 405.962 Z" fill="#000000" fill-rule="nonzero" fill-opacity="1" /><circle clip-path="url(#clip782)" cx="336.852" cy="1331.26" r="14.4" fill="#009af9" fill-rule="evenodd" fill-opacity="1" stroke="#000000" stroke-opacity="1" stroke-width="3.2"/>
<circle clip-path="url(#clip782)" cx="374.501" cy="1331.26" r="14.4" fill="#009af9" fill-rule="evenodd" fill-opacity="1" stroke="#000000" stroke-opacity="1" stroke-width="3.2"/>
<circle clip-path="url(#clip782)" cx="412.149" cy="1384.24" r="14.4" fill="#009af9" fill-rule="evenodd" fill-opacity="1" stroke="#000000" stroke-opacity="1" stroke-width="3.2"/>
<circle clip-path="url(#clip782)" cx="449.796" cy="1331.26" r="14.4" fill="#009af9" fill-rule="evenodd" fill-opacity="1" stroke="#000000" stroke-opacity="1" stroke-width="3.2"/>
<circle clip-path="url(#clip782)" cx="487.445" cy="1344.5" r="14.4" fill="#009af9" fill-rule="evenodd" fill-opacity="1" stroke="#000000" stroke-opacity="1" stroke-width="3.2"/>
<circle clip-path="url(#clip782)" cx="525.093" cy="1384.24" r="14.4" fill="#009af9" fill-rule="evenodd" fill-opacity="1" stroke="#000000" stroke-opacity="1" stroke-width="3.2"/>
<circle clip-path="url(#clip782)" cx="562.742" cy="1370.99" r="14.4" fill="#009af9" fill-rule="evenodd" fill-opacity="1" stroke="#000000" stroke-opacity="1" stroke-width="3.2"/>
<circle clip-path="url(#clip782)" cx="600.389" cy="1357.75" r="14.4" fill="#009af9" fill-rule="evenodd" fill-opacity="1" stroke="#000000" stroke-opacity="1" stroke-width="3.2"/>
<circle clip-path="url(#clip782)" cx="638.037" cy="1331.26" r="14.4" fill="#009af9" fill-rule="evenodd" fill-opacity="1" stroke="#000000" stroke-opacity="1" stroke-width="3.2"/>
<circle clip-path="url(#clip782)" cx="675.686" cy="1331.26" r="14.4" fill="#009af9" fill-rule="evenodd" fill-opacity="1" stroke="#000000" stroke-opacity="1" stroke-width="3.2"/>
<circle clip-path="url(#clip782)" cx="713.335" cy="735.212" r="14.4" fill="#009af9" fill-rule="evenodd" fill-opacity="1" stroke="#000000" stroke-opacity="1" stroke-width="3.2"/>
<circle clip-path="url(#clip782)" cx="750.983" cy="616.003" r="14.4" fill="#009af9" fill-rule="evenodd" fill-opacity="1" stroke="#000000" stroke-opacity="1" stroke-width="3.2"/>
<circle clip-path="url(#clip782)" cx="788.63" cy="616.003" r="14.4" fill="#009af9" fill-rule="evenodd" fill-opacity="1" stroke="#000000" stroke-opacity="1" stroke-width="3.2"/>
<circle clip-path="url(#clip782)" cx="826.279" cy="682.23" r="14.4" fill="#009af9" fill-rule="evenodd" fill-opacity="1" stroke="#000000" stroke-opacity="1" stroke-width="3.2"/>
<circle clip-path="url(#clip782)" cx="863.927" cy="642.494" r="14.4" fill="#009af9" fill-rule="evenodd" fill-opacity="1" stroke="#000000" stroke-opacity="1" stroke-width="3.2"/>
<circle clip-path="url(#clip782)" cx="901.576" cy="735.212" r="14.4" fill="#009af9" fill-rule="evenodd" fill-opacity="1" stroke="#000000" stroke-opacity="1" stroke-width="3.2"/>
<circle clip-path="url(#clip782)" cx="939.223" cy="695.476" r="14.4" fill="#009af9" fill-rule="evenodd" fill-opacity="1" stroke="#000000" stroke-opacity="1" stroke-width="3.2"/>
<circle clip-path="url(#clip782)" cx="976.871" cy="616.003" r="14.4" fill="#009af9" fill-rule="evenodd" fill-opacity="1" stroke="#000000" stroke-opacity="1" stroke-width="3.2"/>
<circle clip-path="url(#clip782)" cx="1014.52" cy="642.494" r="14.4" fill="#009af9" fill-rule="evenodd" fill-opacity="1" stroke="#000000" stroke-opacity="1" stroke-width="3.2"/>
<circle clip-path="url(#clip782)" cx="1052.17" cy="616.003" r="14.4" fill="#009af9" fill-rule="evenodd" fill-opacity="1" stroke="#000000" stroke-opacity="1" stroke-width="3.2"/>
<circle clip-path="url(#clip782)" cx="1089.82" cy="125.922" r="14.4" fill="#009af9" fill-rule="evenodd" fill-opacity="1" stroke="#000000" stroke-opacity="1" stroke-width="3.2"/>
<circle clip-path="url(#clip782)" cx="1127.46" cy="218.64" r="14.4" fill="#009af9" fill-rule="evenodd" fill-opacity="1" stroke="#000000" stroke-opacity="1" stroke-width="3.2"/>
<circle clip-path="url(#clip782)" cx="1165.11" cy="99.4311" r="14.4" fill="#009af9" fill-rule="evenodd" fill-opacity="1" stroke="#000000" stroke-opacity="1" stroke-width="3.2"/>
<circle clip-path="url(#clip782)" cx="1202.76" cy="86.1857" r="14.4" fill="#009af9" fill-rule="evenodd" fill-opacity="1" stroke="#000000" stroke-opacity="1" stroke-width="3.2"/>
<circle clip-path="url(#clip782)" cx="1240.41" cy="125.922" r="14.4" fill="#009af9" fill-rule="evenodd" fill-opacity="1" stroke="#000000" stroke-opacity="1" stroke-width="3.2"/>
<circle clip-path="url(#clip782)" cx="1278.06" cy="112.677" r="14.4" fill="#009af9" fill-rule="evenodd" fill-opacity="1" stroke="#000000" stroke-opacity="1" stroke-width="3.2"/>
<circle clip-path="url(#clip782)" cx="1315.71" cy="112.677" r="14.4" fill="#009af9" fill-rule="evenodd" fill-opacity="1" stroke="#000000" stroke-opacity="1" stroke-width="3.2"/>
<circle clip-path="url(#clip782)" cx="1353.35" cy="165.658" r="14.4" fill="#009af9" fill-rule="evenodd" fill-opacity="1" stroke="#000000" stroke-opacity="1" stroke-width="3.2"/>
<circle clip-path="url(#clip782)" cx="1391" cy="125.922" r="14.4" fill="#009af9" fill-rule="evenodd" fill-opacity="1" stroke="#000000" stroke-opacity="1" stroke-width="3.2"/>
<circle clip-path="url(#clip782)" cx="1428.65" cy="205.395" r="14.4" fill="#009af9" fill-rule="evenodd" fill-opacity="1" stroke="#000000" stroke-opacity="1" stroke-width="3.2"/>
<circle clip-path="url(#clip782)" cx="1466.3" cy="457.058" r="14.4" fill="#009af9" fill-rule="evenodd" fill-opacity="1" stroke="#000000" stroke-opacity="1" stroke-width="3.2"/>
<circle clip-path="url(#clip782)" cx="1503.95" cy="549.776" r="14.4" fill="#009af9" fill-rule="evenodd" fill-opacity="1" stroke="#000000" stroke-opacity="1" stroke-width="3.2"/>
<circle clip-path="url(#clip782)" cx="1541.6" cy="510.04" r="14.4" fill="#009af9" fill-rule="evenodd" fill-opacity="1" stroke="#000000" stroke-opacity="1" stroke-width="3.2"/>
<circle clip-path="url(#clip782)" cx="1579.24" cy="549.776" r="14.4" fill="#009af9" fill-rule="evenodd" fill-opacity="1" stroke="#000000" stroke-opacity="1" stroke-width="3.2"/>
<circle clip-path="url(#clip782)" cx="1616.89" cy="536.53" r="14.4" fill="#009af9" fill-rule="evenodd" fill-opacity="1" stroke="#000000" stroke-opacity="1" stroke-width="3.2"/>
<circle clip-path="url(#clip782)" cx="1654.54" cy="430.567" r="14.4" fill="#009af9" fill-rule="evenodd" fill-opacity="1" stroke="#000000" stroke-opacity="1" stroke-width="3.2"/>
<circle clip-path="url(#clip782)" cx="1692.19" cy="457.058" r="14.4" fill="#009af9" fill-rule="evenodd" fill-opacity="1" stroke="#000000" stroke-opacity="1" stroke-width="3.2"/>
<circle clip-path="url(#clip782)" cx="1729.84" cy="510.04" r="14.4" fill="#009af9" fill-rule="evenodd" fill-opacity="1" stroke="#000000" stroke-opacity="1" stroke-width="3.2"/>
<circle clip-path="url(#clip782)" cx="1767.48" cy="417.322" r="14.4" fill="#009af9" fill-rule="evenodd" fill-opacity="1" stroke="#000000" stroke-opacity="1" stroke-width="3.2"/>
<circle clip-path="url(#clip782)" cx="1805.13" cy="549.776" r="14.4" fill="#009af9" fill-rule="evenodd" fill-opacity="1" stroke="#000000" stroke-opacity="1" stroke-width="3.2"/>
<circle clip-path="url(#clip782)" cx="1842.78" cy="721.967" r="14.4" fill="#009af9" fill-rule="evenodd" fill-opacity="1" stroke="#000000" stroke-opacity="1" stroke-width="3.2"/>
<circle clip-path="url(#clip782)" cx="1880.43" cy="721.967" r="14.4" fill="#009af9" fill-rule="evenodd" fill-opacity="1" stroke="#000000" stroke-opacity="1" stroke-width="3.2"/>
<circle clip-path="url(#clip782)" cx="1918.08" cy="695.476" r="14.4" fill="#009af9" fill-rule="evenodd" fill-opacity="1" stroke="#000000" stroke-opacity="1" stroke-width="3.2"/>
<circle clip-path="url(#clip782)" cx="1955.73" cy="695.476" r="14.4" fill="#009af9" fill-rule="evenodd" fill-opacity="1" stroke="#000000" stroke-opacity="1" stroke-width="3.2"/>
<circle clip-path="url(#clip782)" cx="1993.37" cy="735.212" r="14.4" fill="#009af9" fill-rule="evenodd" fill-opacity="1" stroke="#000000" stroke-opacity="1" stroke-width="3.2"/>
<circle clip-path="url(#clip782)" cx="2031.02" cy="721.967" r="14.4" fill="#009af9" fill-rule="evenodd" fill-opacity="1" stroke="#000000" stroke-opacity="1" stroke-width="3.2"/>
<circle clip-path="url(#clip782)" cx="2068.67" cy="721.967" r="14.4" fill="#009af9" fill-rule="evenodd" fill-opacity="1" stroke="#000000" stroke-opacity="1" stroke-width="3.2"/>
<circle clip-path="url(#clip782)" cx="2106.32" cy="708.721" r="14.4" fill="#009af9" fill-rule="evenodd" fill-opacity="1" stroke="#000000" stroke-opacity="1" stroke-width="3.2"/>
<circle clip-path="url(#clip782)" cx="2143.97" cy="695.476" r="14.4" fill="#009af9" fill-rule="evenodd" fill-opacity="1" stroke="#000000" stroke-opacity="1" stroke-width="3.2"/>
<circle clip-path="url(#clip782)" cx="2181.62" cy="695.476" r="14.4" fill="#009af9" fill-rule="evenodd" fill-opacity="1" stroke="#000000" stroke-opacity="1" stroke-width="3.2"/>
<polyline clip-path="url(#clip782)" style="stroke:#e26f46; stroke-linecap:round; stroke-linejoin:round; stroke-width:4; stroke-opacity:1; fill:none" points="292.4,802.458 1278.06,802.458 "/>
<polyline clip-path="url(#clip782)" style="stroke:#3da44d; stroke-linecap:round; stroke-linejoin:round; stroke-width:4; stroke-opacity:1; fill:none" points="1278.06,512.159 2292.75,512.159 "/>
<path clip-path="url(#clip780)" d="M1918.51 300.469 L2282.08 300.469 L2282.08 93.1086 L1918.51 93.1086  Z" fill="#ffffff" fill-rule="evenodd" fill-opacity="1"/>
<polyline clip-path="url(#clip780)" style="stroke:#000000; stroke-linecap:round; stroke-linejoin:round; stroke-width:4; stroke-opacity:1; fill:none" points="1918.51,300.469 2282.08,300.469 2282.08,93.1086 1918.51,93.1086 1918.51,300.469 "/>
<circle clip-path="url(#clip780)" cx="2012.75" cy="144.949" r="20.48" fill="#009af9" fill-rule="evenodd" fill-opacity="1" stroke="#000000" stroke-opacity="1" stroke-width="4.55111"/>
<path clip-path="url(#clip780)" d="M2125.9 140.238 L2125.9 126.21 L2130.16 126.21 L2130.16 162.229 L2125.9 162.229 L2125.9 158.34 Q2124.56 160.655 2122.5 161.789 Q2120.46 162.9 2117.59 162.9 Q2112.89 162.9 2109.93 159.15 Q2106.99 155.4 2106.99 149.289 Q2106.99 143.178 2109.93 139.428 Q2112.89 135.678 2117.59 135.678 Q2120.46 135.678 2122.5 136.812 Q2124.56 137.923 2125.9 140.238 M2111.39 149.289 Q2111.39 153.988 2113.31 156.673 Q2115.25 159.335 2118.63 159.335 Q2122.01 159.335 2123.96 156.673 Q2125.9 153.988 2125.9 149.289 Q2125.9 144.59 2123.96 141.928 Q2122.01 139.243 2118.63 139.243 Q2115.25 139.243 2113.31 141.928 Q2111.39 144.59 2111.39 149.289 Z" fill="#000000" fill-rule="nonzero" fill-opacity="1" /><path clip-path="url(#clip780)" d="M2150.72 149.196 Q2145.56 149.196 2143.56 150.377 Q2141.57 151.557 2141.57 154.405 Q2141.57 156.673 2143.06 158.016 Q2144.56 159.335 2147.13 159.335 Q2150.67 159.335 2152.8 156.835 Q2154.95 154.312 2154.95 150.145 L2154.95 149.196 L2150.72 149.196 M2159.21 147.437 L2159.21 162.229 L2154.95 162.229 L2154.95 158.293 Q2153.49 160.655 2151.32 161.789 Q2149.14 162.9 2145.99 162.9 Q2142.01 162.9 2139.65 160.678 Q2137.31 158.432 2137.31 154.682 Q2137.31 150.307 2140.23 148.085 Q2143.17 145.863 2148.98 145.863 L2154.95 145.863 L2154.95 145.446 Q2154.95 142.507 2153.01 140.909 Q2151.09 139.289 2147.59 139.289 Q2145.37 139.289 2143.26 139.821 Q2141.16 140.354 2139.21 141.419 L2139.21 137.483 Q2141.55 136.581 2143.75 136.141 Q2145.95 135.678 2148.03 135.678 Q2153.66 135.678 2156.43 138.594 Q2159.21 141.511 2159.21 147.437 Z" fill="#000000" fill-rule="nonzero" fill-opacity="1" /><path clip-path="url(#clip780)" d="M2172.2 128.942 L2172.2 136.303 L2180.97 136.303 L2180.97 139.613 L2172.2 139.613 L2172.2 153.687 Q2172.2 156.858 2173.05 157.761 Q2173.93 158.664 2176.6 158.664 L2180.97 158.664 L2180.97 162.229 L2176.6 162.229 Q2171.67 162.229 2169.79 160.4 Q2167.92 158.548 2167.92 153.687 L2167.92 139.613 L2164.79 139.613 L2164.79 136.303 L2167.92 136.303 L2167.92 128.942 L2172.2 128.942 Z" fill="#000000" fill-rule="nonzero" fill-opacity="1" /><path clip-path="url(#clip780)" d="M2198.36 149.196 Q2193.19 149.196 2191.2 150.377 Q2189.21 151.557 2189.21 154.405 Q2189.21 156.673 2190.69 158.016 Q2192.2 159.335 2194.77 159.335 Q2198.31 159.335 2200.44 156.835 Q2202.59 154.312 2202.59 150.145 L2202.59 149.196 L2198.36 149.196 M2206.85 147.437 L2206.85 162.229 L2202.59 162.229 L2202.59 158.293 Q2201.13 160.655 2198.96 161.789 Q2196.78 162.9 2193.63 162.9 Q2189.65 162.9 2187.29 160.678 Q2184.95 158.432 2184.95 154.682 Q2184.95 150.307 2187.87 148.085 Q2190.81 145.863 2196.62 145.863 L2202.59 145.863 L2202.59 145.446 Q2202.59 142.507 2200.65 140.909 Q2198.73 139.289 2195.23 139.289 Q2193.01 139.289 2190.9 139.821 Q2188.8 140.354 2186.85 141.419 L2186.85 137.483 Q2189.19 136.581 2191.39 136.141 Q2193.59 135.678 2195.67 135.678 Q2201.3 135.678 2204.07 138.594 Q2206.85 141.511 2206.85 147.437 Z" fill="#000000" fill-rule="nonzero" fill-opacity="1" /><polyline clip-path="url(#clip780)" style="stroke:#e26f46; stroke-linecap:round; stroke-linejoin:round; stroke-width:4; stroke-opacity:1; fill:none" points="1942.07,196.789 2083.43,196.789 "/>
<path clip-path="url(#clip780)" d="M2136.67 190.735 L2112.78 199.231 L2136.67 207.68 L2136.67 211.893 L2106.99 201.129 L2106.99 197.286 L2136.67 186.522 L2136.67 190.735 Z" fill="#000000" fill-rule="nonzero" fill-opacity="1" /><path clip-path="url(#clip780)" d="M2174.68 183.583 L2162.87 202.032 L2174.68 202.032 L2174.68 183.583 M2173.45 179.509 L2179.33 179.509 L2179.33 202.032 L2184.26 202.032 L2184.26 205.921 L2179.33 205.921 L2179.33 214.069 L2174.68 214.069 L2174.68 205.921 L2159.07 205.921 L2159.07 201.407 L2173.45 179.509 Z" fill="#000000" fill-rule="nonzero" fill-opacity="1" /><path clip-path="url(#clip780)" d="M2204.84 183.583 L2193.03 202.032 L2204.84 202.032 L2204.84 183.583 M2203.61 179.509 L2209.49 179.509 L2209.49 202.032 L2214.42 202.032 L2214.42 205.921 L2209.49 205.921 L2209.49 214.069 L2204.84 214.069 L2204.84 205.921 L2189.24 205.921 L2189.24 201.407 L2203.61 179.509 Z" fill="#000000" fill-rule="nonzero" fill-opacity="1" /><path clip-path="url(#clip780)" d="M2222.15 208.189 L2227.04 208.189 L2227.04 214.069 L2222.15 214.069 L2222.15 208.189 Z" fill="#000000" fill-rule="nonzero" fill-opacity="1" /><path clip-path="url(#clip780)" d="M2251.39 195.434 Q2254.74 196.152 2256.62 198.421 Q2258.52 200.689 2258.52 204.022 Q2258.52 209.138 2255 211.939 Q2251.48 214.74 2245 214.74 Q2242.82 214.74 2240.51 214.3 Q2238.22 213.883 2235.76 213.027 L2235.76 208.513 Q2237.71 209.647 2240.02 210.226 Q2242.34 210.805 2244.86 210.805 Q2249.26 210.805 2251.55 209.069 Q2253.86 207.333 2253.86 204.022 Q2253.86 200.967 2251.71 199.254 Q2249.58 197.518 2245.76 197.518 L2241.74 197.518 L2241.74 193.675 L2245.95 193.675 Q2249.4 193.675 2251.23 192.309 Q2253.05 190.921 2253.05 188.328 Q2253.05 185.666 2251.16 184.254 Q2249.28 182.819 2245.76 182.819 Q2243.84 182.819 2241.64 183.235 Q2239.44 183.652 2236.8 184.532 L2236.8 180.365 Q2239.47 179.624 2241.78 179.254 Q2244.12 178.884 2246.18 178.884 Q2251.5 178.884 2254.61 181.314 Q2257.71 183.722 2257.71 187.842 Q2257.71 190.712 2256.06 192.703 Q2254.42 194.671 2251.39 195.434 Z" fill="#000000" fill-rule="nonzero" fill-opacity="1" /><polyline clip-path="url(#clip780)" style="stroke:#3da44d; stroke-linecap:round; stroke-linejoin:round; stroke-width:4; stroke-opacity:1; fill:none" points="1942.07,248.629 2083.43,248.629 "/>
<path clip-path="url(#clip780)" d="M2106.99 242.575 L2106.99 238.362 L2136.67 249.126 L2136.67 252.969 L2106.99 263.733 L2106.99 259.52 L2130.83 251.071 L2106.99 242.575 Z" fill="#000000" fill-rule="nonzero" fill-opacity="1" /><path clip-path="url(#clip780)" d="M2174.68 235.423 L2162.87 253.872 L2174.68 253.872 L2174.68 235.423 M2173.45 231.349 L2179.33 231.349 L2179.33 253.872 L2184.26 253.872 L2184.26 257.761 L2179.33 257.761 L2179.33 265.909 L2174.68 265.909 L2174.68 257.761 L2159.07 257.761 L2159.07 253.247 L2173.45 231.349 Z" fill="#000000" fill-rule="nonzero" fill-opacity="1" /><path clip-path="url(#clip780)" d="M2204.84 235.423 L2193.03 253.872 L2204.84 253.872 L2204.84 235.423 M2203.61 231.349 L2209.49 231.349 L2209.49 253.872 L2214.42 253.872 L2214.42 257.761 L2209.49 257.761 L2209.49 265.909 L2204.84 265.909 L2204.84 257.761 L2189.24 257.761 L2189.24 253.247 L2203.61 231.349 Z" fill="#000000" fill-rule="nonzero" fill-opacity="1" /><path clip-path="url(#clip780)" d="M2222.15 260.029 L2227.04 260.029 L2227.04 265.909 L2222.15 265.909 L2222.15 260.029 Z" fill="#000000" fill-rule="nonzero" fill-opacity="1" /><path clip-path="url(#clip780)" d="M2251.39 247.274 Q2254.74 247.992 2256.62 250.261 Q2258.52 252.529 2258.52 255.862 Q2258.52 260.978 2255 263.779 Q2251.48 266.58 2245 266.58 Q2242.82 266.58 2240.51 266.14 Q2238.22 265.723 2235.76 264.867 L2235.76 260.353 Q2237.71 261.487 2240.02 262.066 Q2242.34 262.645 2244.86 262.645 Q2249.26 262.645 2251.55 260.909 Q2253.86 259.173 2253.86 255.862 Q2253.86 252.807 2251.71 251.094 Q2249.58 249.358 2245.76 249.358 L2241.74 249.358 L2241.74 245.515 L2245.95 245.515 Q2249.4 245.515 2251.23 244.149 Q2253.05 242.761 2253.05 240.168 Q2253.05 237.506 2251.16 236.094 Q2249.28 234.659 2245.76 234.659 Q2243.84 234.659 2241.64 235.075 Q2239.44 235.492 2236.8 236.372 L2236.8 232.205 Q2239.47 231.464 2241.78 231.094 Q2244.12 230.724 2246.18 230.724 Q2251.5 230.724 2254.61 233.154 Q2257.71 235.562 2257.71 239.682 Q2257.71 242.552 2256.06 244.543 Q2254.42 246.511 2251.39 247.274 Z" fill="#000000" fill-rule="nonzero" fill-opacity="1" /></svg>
