<?xml version="1.0" encoding="utf-8"?>
<svg xmlns="http://www.w3.org/2000/svg" xmlns:xlink="http://www.w3.org/1999/xlink" width="600" height="400" viewBox="0 0 2400 1600">
<defs>
  <clipPath id="clip090">
    <rect x="0" y="0" width="2400" height="1600"/>
  </clipPath>
</defs>
<path clip-path="url(#clip090)" d="M0 1600 L2400 1600 L2400 0 L0 0  Z" fill="#ffffff" fill-rule="evenodd" fill-opacity="1"/>
<defs>
  <clipPath id="clip091">
    <rect x="480" y="0" width="1681" height="1600"/>
  </clipPath>
</defs>
<path clip-path="url(#clip090)" d="M175.445 1423.18 L2352.76 1423.18 L2352.76 47.2441 L175.445 47.2441  Z" fill="#ffffff" fill-rule="evenodd" fill-opacity="1"/>
<defs>
  <clipPath id="clip092">
    <rect x="175" y="47" width="2178" height="1377"/>
  </clipPath>
</defs>
<polyline clip-path="url(#clip092)" style="stroke:#000000; stroke-linecap:round; stroke-linejoin:round; stroke-width:2; stroke-opacity:0.1; fill:none" points="229.491,1423.18 229.491,47.2441 "/>
<polyline clip-path="url(#clip092)" style="stroke:#000000; stroke-linecap:round; stroke-linejoin:round; stroke-width:2; stroke-opacity:0.1; fill:none" points="673.8,1423.18 673.8,47.2441 "/>
<polyline clip-path="url(#clip092)" style="stroke:#000000; stroke-linecap:round; stroke-linejoin:round; stroke-width:2; stroke-opacity:0.1; fill:none" points="1118.11,1423.18 1118.11,47.2441 "/>
<polyline clip-path="url(#clip092)" style="stroke:#000000; stroke-linecap:round; stroke-linejoin:round; stroke-width:2; stroke-opacity:0.1; fill:none" points="1562.42,1423.18 1562.42,47.2441 "/>
<polyline clip-path="url(#clip092)" style="stroke:#000000; stroke-linecap:round; stroke-linejoin:round; stroke-width:2; stroke-opacity:0.1; fill:none" points="2006.73,1423.18 2006.73,47.2441 "/>
<polyline clip-path="url(#clip092)" style="stroke:#000000; stroke-linecap:round; stroke-linejoin:round; stroke-width:2; stroke-opacity:0.1; fill:none" points="175.445,1218.57 2352.76,1218.57 "/>
<polyline clip-path="url(#clip092)" style="stroke:#000000; stroke-linecap:round; stroke-linejoin:round; stroke-width:2; stroke-opacity:0.1; fill:none" points="175.445,984.833 2352.76,984.833 "/>
<polyline clip-path="url(#clip092)" style="stroke:#000000; stroke-linecap:round; stroke-linejoin:round; stroke-width:2; stroke-opacity:0.1; fill:none" points="175.445,751.097 2352.76,751.097 "/>
<polyline clip-path="url(#clip092)" style="stroke:#000000; stroke-linecap:round; stroke-linejoin:round; stroke-width:2; stroke-opacity:0.1; fill:none" points="175.445,517.36 2352.76,517.36 "/>
<polyline clip-path="url(#clip092)" style="stroke:#000000; stroke-linecap:round; stroke-linejoin:round; stroke-width:2; stroke-opacity:0.1; fill:none" points="175.445,283.624 2352.76,283.624 "/>
<polyline clip-path="url(#clip092)" style="stroke:#000000; stroke-linecap:round; stroke-linejoin:round; stroke-width:2; stroke-opacity:0.1; fill:none" points="175.445,49.8873 2352.76,49.8873 "/>
<polyline clip-path="url(#clip090)" style="stroke:#000000; stroke-linecap:round; stroke-linejoin:round; stroke-width:4; stroke-opacity:1; fill:none" points="175.445,1423.18 2352.76,1423.18 "/>
<polyline clip-path="url(#clip090)" style="stroke:#000000; stroke-linecap:round; stroke-linejoin:round; stroke-width:4; stroke-opacity:1; fill:none" points="229.491,1423.18 229.491,1404.28 "/>
<polyline clip-path="url(#clip090)" style="stroke:#000000; stroke-linecap:round; stroke-linejoin:round; stroke-width:4; stroke-opacity:1; fill:none" points="673.8,1423.18 673.8,1404.28 "/>
<polyline clip-path="url(#clip090)" style="stroke:#000000; stroke-linecap:round; stroke-linejoin:round; stroke-width:4; stroke-opacity:1; fill:none" points="1118.11,1423.18 1118.11,1404.28 "/>
<polyline clip-path="url(#clip090)" style="stroke:#000000; stroke-linecap:round; stroke-linejoin:round; stroke-width:4; stroke-opacity:1; fill:none" points="1562.42,1423.18 1562.42,1404.28 "/>
<polyline clip-path="url(#clip090)" style="stroke:#000000; stroke-linecap:round; stroke-linejoin:round; stroke-width:4; stroke-opacity:1; fill:none" points="2006.73,1423.18 2006.73,1404.28 "/>
<path clip-path="url(#clip090)" d="M219.873 1481.64 L227.512 1481.64 L227.512 1455.28 L219.202 1456.95 L219.202 1452.69 L227.466 1451.02 L232.142 1451.02 L232.142 1481.64 L239.781 1481.64 L239.781 1485.58 L219.873 1485.58 L219.873 1481.64 Z" fill="#000000" fill-rule="nonzero" fill-opacity="1" /><path clip-path="url(#clip090)" d="M668.453 1481.64 L684.773 1481.64 L684.773 1485.58 L662.828 1485.58 L662.828 1481.64 Q665.49 1478.89 670.074 1474.26 Q674.68 1469.61 675.861 1468.27 Q678.106 1465.74 678.986 1464.01 Q679.888 1462.25 679.888 1460.56 Q679.888 1457.8 677.944 1456.07 Q676.023 1454.33 672.921 1454.33 Q670.722 1454.33 668.268 1455.09 Q665.838 1455.86 663.06 1457.41 L663.06 1452.69 Q665.884 1451.55 668.338 1450.97 Q670.791 1450.39 672.828 1450.39 Q678.199 1450.39 681.393 1453.08 Q684.587 1455.77 684.587 1460.26 Q684.587 1462.39 683.777 1464.31 Q682.99 1466.2 680.884 1468.8 Q680.305 1469.47 677.203 1472.69 Q674.101 1475.88 668.453 1481.64 Z" fill="#000000" fill-rule="nonzero" fill-opacity="1" /><path clip-path="url(#clip090)" d="M1122.36 1466.95 Q1125.71 1467.66 1127.59 1469.93 Q1129.49 1472.2 1129.49 1475.53 Q1129.49 1480.65 1125.97 1483.45 Q1122.45 1486.25 1115.97 1486.25 Q1113.79 1486.25 1111.48 1485.81 Q1109.19 1485.39 1106.73 1484.54 L1106.73 1480.02 Q1108.68 1481.16 1110.99 1481.74 Q1113.31 1482.32 1115.83 1482.32 Q1120.23 1482.32 1122.52 1480.58 Q1124.83 1478.84 1124.83 1475.53 Q1124.83 1472.48 1122.68 1470.77 Q1120.55 1469.03 1116.73 1469.03 L1112.7 1469.03 L1112.7 1465.19 L1116.92 1465.19 Q1120.37 1465.19 1122.2 1463.82 Q1124.02 1462.43 1124.02 1459.84 Q1124.02 1457.18 1122.13 1455.77 Q1120.25 1454.33 1116.73 1454.33 Q1114.81 1454.33 1112.61 1454.75 Q1110.41 1455.16 1107.77 1456.04 L1107.77 1451.88 Q1110.44 1451.14 1112.75 1450.77 Q1115.09 1450.39 1117.15 1450.39 Q1122.47 1450.39 1125.57 1452.83 Q1128.68 1455.23 1128.68 1459.35 Q1128.68 1462.22 1127.03 1464.21 Q1125.39 1466.18 1122.36 1466.95 Z" fill="#000000" fill-rule="nonzero" fill-opacity="1" /><path clip-path="url(#clip090)" d="M1565.43 1455.09 L1553.62 1473.54 L1565.43 1473.54 L1565.43 1455.09 M1564.2 1451.02 L1570.08 1451.02 L1570.08 1473.54 L1575.01 1473.54 L1575.01 1477.43 L1570.08 1477.43 L1570.08 1485.58 L1565.43 1485.58 L1565.43 1477.43 L1549.83 1477.43 L1549.83 1472.92 L1564.2 1451.02 Z" fill="#000000" fill-rule="nonzero" fill-opacity="1" /><path clip-path="url(#clip090)" d="M1997.01 1451.02 L2015.36 1451.02 L2015.36 1454.96 L2001.29 1454.96 L2001.29 1463.43 Q2002.31 1463.08 2003.32 1462.92 Q2004.34 1462.73 2005.36 1462.73 Q2011.15 1462.73 2014.53 1465.9 Q2017.91 1469.08 2017.91 1474.49 Q2017.91 1480.07 2014.44 1483.17 Q2010.96 1486.25 2004.64 1486.25 Q2002.47 1486.25 2000.2 1485.88 Q1997.95 1485.51 1995.55 1484.77 L1995.55 1480.07 Q1997.63 1481.2 1999.85 1481.76 Q2002.07 1482.32 2004.55 1482.32 Q2008.56 1482.32 2010.89 1480.21 Q2013.23 1478.1 2013.23 1474.49 Q2013.23 1470.88 2010.89 1468.77 Q2008.56 1466.67 2004.55 1466.67 Q2002.68 1466.67 2000.8 1467.08 Q1998.95 1467.5 1997.01 1468.38 L1997.01 1451.02 Z" fill="#000000" fill-rule="nonzero" fill-opacity="1" /><path clip-path="url(#clip090)" d="M1245.93 1520.52 L1252.83 1520.52 L1264.64 1538.19 L1276.51 1520.52 L1283.42 1520.52 L1268.14 1543.34 L1284.44 1568.04 L1277.53 1568.04 L1264.16 1547.83 L1250.7 1568.04 L1243.76 1568.04 L1260.73 1542.68 L1245.93 1520.52 Z" fill="#000000" fill-rule="nonzero" fill-opacity="1" /><polyline clip-path="url(#clip090)" style="stroke:#000000; stroke-linecap:round; stroke-linejoin:round; stroke-width:4; stroke-opacity:1; fill:none" points="175.445,1423.18 175.445,47.2441 "/>
<polyline clip-path="url(#clip090)" style="stroke:#000000; stroke-linecap:round; stroke-linejoin:round; stroke-width:4; stroke-opacity:1; fill:none" points="175.445,1218.57 194.343,1218.57 "/>
<polyline clip-path="url(#clip090)" style="stroke:#000000; stroke-linecap:round; stroke-linejoin:round; stroke-width:4; stroke-opacity:1; fill:none" points="175.445,984.833 194.343,984.833 "/>
<polyline clip-path="url(#clip090)" style="stroke:#000000; stroke-linecap:round; stroke-linejoin:round; stroke-width:4; stroke-opacity:1; fill:none" points="175.445,751.097 194.343,751.097 "/>
<polyline clip-path="url(#clip090)" style="stroke:#000000; stroke-linecap:round; stroke-linejoin:round; stroke-width:4; stroke-opacity:1; fill:none" points="175.445,517.36 194.343,517.36 "/>
<polyline clip-path="url(#clip090)" style="stroke:#000000; stroke-linecap:round; stroke-linejoin:round; stroke-width:4; stroke-opacity:1; fill:none" points="175.445,283.624 194.343,283.624 "/>
<polyline clip-path="url(#clip090)" style="stroke:#000000; stroke-linecap:round; stroke-linejoin:round; stroke-width:4; stroke-opacity:1; fill:none" points="175.445,49.8873 194.343,49.8873 "/>
<path clip-path="url(#clip090)" d="M119.538 1231.91 L127.177 1231.91 L127.177 1205.55 L118.867 1207.22 L118.867 1202.96 L127.13 1201.29 L131.806 1201.29 L131.806 1231.91 L139.445 1231.91 L139.445 1235.85 L119.538 1235.85 L119.538 1231.91 Z" fill="#000000" fill-rule="nonzero" fill-opacity="1" /><path clip-path="url(#clip090)" d="M123.126 998.178 L139.445 998.178 L139.445 1002.11 L117.501 1002.11 L117.501 998.178 Q120.163 995.423 124.746 990.794 Q129.353 986.141 130.533 984.798 Q132.779 982.275 133.658 980.539 Q134.561 978.78 134.561 977.09 Q134.561 974.335 132.617 972.599 Q130.695 970.863 127.593 970.863 Q125.394 970.863 122.941 971.627 Q120.51 972.391 117.732 973.942 L117.732 969.22 Q120.556 968.085 123.01 967.507 Q125.464 966.928 127.501 966.928 Q132.871 966.928 136.066 969.613 Q139.26 972.298 139.26 976.789 Q139.26 978.919 138.45 980.84 Q137.663 982.738 135.556 985.331 Q134.978 986.002 131.876 989.22 Q128.774 992.414 123.126 998.178 Z" fill="#000000" fill-rule="nonzero" fill-opacity="1" /><path clip-path="url(#clip090)" d="M132.316 749.742 Q135.672 750.46 137.547 752.729 Q139.445 754.997 139.445 758.33 Q139.445 763.446 135.927 766.247 Q132.408 769.048 125.927 769.048 Q123.751 769.048 121.436 768.608 Q119.144 768.191 116.691 767.335 L116.691 762.821 Q118.635 763.955 120.95 764.534 Q123.265 765.113 125.788 765.113 Q130.186 765.113 132.478 763.377 Q134.792 761.641 134.792 758.33 Q134.792 755.275 132.64 753.562 Q130.51 751.826 126.691 751.826 L122.663 751.826 L122.663 747.983 L126.876 747.983 Q130.325 747.983 132.154 746.617 Q133.982 745.229 133.982 742.636 Q133.982 739.974 132.084 738.562 Q130.209 737.127 126.691 737.127 Q124.769 737.127 122.57 737.543 Q120.371 737.96 117.732 738.84 L117.732 734.673 Q120.394 733.932 122.709 733.562 Q125.047 733.192 127.107 733.192 Q132.431 733.192 135.533 735.622 Q138.635 738.03 138.635 742.15 Q138.635 745.02 136.992 747.011 Q135.348 748.979 132.316 749.742 Z" fill="#000000" fill-rule="nonzero" fill-opacity="1" /><path clip-path="url(#clip090)" d="M129.862 504.154 L118.056 522.603 L129.862 522.603 L129.862 504.154 M128.635 500.08 L134.515 500.08 L134.515 522.603 L139.445 522.603 L139.445 526.492 L134.515 526.492 L134.515 534.64 L129.862 534.64 L129.862 526.492 L114.26 526.492 L114.26 521.978 L128.635 500.08 Z" fill="#000000" fill-rule="nonzero" fill-opacity="1" /><path clip-path="url(#clip090)" d="M118.543 266.344 L136.899 266.344 L136.899 270.279 L122.825 270.279 L122.825 278.751 Q123.843 278.404 124.862 278.242 Q125.88 278.057 126.899 278.057 Q132.686 278.057 136.066 281.228 Q139.445 284.399 139.445 289.816 Q139.445 295.395 135.973 298.496 Q132.501 301.575 126.181 301.575 Q124.005 301.575 121.737 301.205 Q119.492 300.834 117.084 300.094 L117.084 295.395 Q119.168 296.529 121.39 297.084 Q123.612 297.64 126.089 297.64 Q130.093 297.64 132.431 295.533 Q134.769 293.427 134.769 289.816 Q134.769 286.205 132.431 284.098 Q130.093 281.992 126.089 281.992 Q124.214 281.992 122.339 282.408 Q120.487 282.825 118.543 283.705 L118.543 266.344 Z" fill="#000000" fill-rule="nonzero" fill-opacity="1" /><path clip-path="url(#clip090)" d="M127.917 48.0239 Q124.769 48.0239 122.918 50.1766 Q121.089 52.3294 121.089 56.0794 Q121.089 59.8062 122.918 61.9821 Q124.769 64.1349 127.917 64.1349 Q131.066 64.1349 132.894 61.9821 Q134.746 59.8062 134.746 56.0794 Q134.746 52.3294 132.894 50.1766 Q131.066 48.0239 127.917 48.0239 M137.2 33.3712 L137.2 37.6304 Q135.441 36.7971 133.635 36.3573 Q131.853 35.9175 130.093 35.9175 Q125.464 35.9175 123.01 39.0424 Q120.58 42.1674 120.232 48.4868 Q121.598 46.473 123.658 45.4081 Q125.718 44.3202 128.195 44.3202 Q133.404 44.3202 136.413 47.4915 Q139.445 50.6396 139.445 56.0794 Q139.445 61.4034 136.297 64.621 Q133.149 67.8386 127.917 67.8386 Q121.922 67.8386 118.751 63.2553 Q115.58 58.6488 115.58 49.922 Q115.58 41.7276 119.468 36.8665 Q123.357 31.9823 129.908 31.9823 Q131.667 31.9823 133.45 32.3295 Q135.255 32.6767 137.2 33.3712 Z" fill="#000000" fill-rule="nonzero" fill-opacity="1" /><path clip-path="url(#clip090)" d="M16.4842 755.248 L16.4842 748.341 L36.0269 735.164 L16.4842 722.083 L16.4842 715.176 L41.3741 731.981 L64.0042 731.981 L64.0042 738.443 L41.3741 738.443 L16.4842 755.248 Z" fill="#000000" fill-rule="nonzero" fill-opacity="1" /><circle clip-path="url(#clip092)" cx="237.067" cy="1378.79" r="14.4" fill="#009af9" fill-rule="evenodd" fill-opacity="1" stroke="#000000" stroke-opacity="1" stroke-width="3.2"/>
<circle clip-path="url(#clip092)" cx="439.244" cy="606.352" r="14.4" fill="#009af9" fill-rule="evenodd" fill-opacity="1" stroke="#000000" stroke-opacity="1" stroke-width="3.2"/>
<circle clip-path="url(#clip092)" cx="496.793" cy="571.03" r="14.4" fill="#009af9" fill-rule="evenodd" fill-opacity="1" stroke="#000000" stroke-opacity="1" stroke-width="3.2"/>
<circle clip-path="url(#clip092)" cx="624.585" cy="1384.24" r="14.4" fill="#009af9" fill-rule="evenodd" fill-opacity="1" stroke="#000000" stroke-opacity="1" stroke-width="3.2"/>
<circle clip-path="url(#clip092)" cx="558.509" cy="1033.81" r="14.4" fill="#009af9" fill-rule="evenodd" fill-opacity="1" stroke="#000000" stroke-opacity="1" stroke-width="3.2"/>
<circle clip-path="url(#clip092)" cx="1611.56" cy="794.947" r="14.4" fill="#e26f46" fill-rule="evenodd" fill-opacity="1" stroke="#000000" stroke-opacity="1" stroke-width="3.2"/>
<circle clip-path="url(#clip092)" cx="2228.85" cy="663.752" r="14.4" fill="#e26f46" fill-rule="evenodd" fill-opacity="1" stroke="#000000" stroke-opacity="1" stroke-width="3.2"/>
<circle clip-path="url(#clip092)" cx="1739.52" cy="86.1857" r="14.4" fill="#e26f46" fill-rule="evenodd" fill-opacity="1" stroke="#000000" stroke-opacity="1" stroke-width="3.2"/>
<circle clip-path="url(#clip092)" cx="1759.82" cy="912.882" r="14.4" fill="#e26f46" fill-rule="evenodd" fill-opacity="1" stroke="#000000" stroke-opacity="1" stroke-width="3.2"/>
<circle clip-path="url(#clip092)" cx="2291.13" cy="532.577" r="14.4" fill="#e26f46" fill-rule="evenodd" fill-opacity="1" stroke="#000000" stroke-opacity="1" stroke-width="3.2"/>
<path clip-path="url(#clip090)" d="M1855.99 248.629 L2280.18 248.629 L2280.18 93.1086 L1855.99 93.1086  Z" fill="#ffffff" fill-rule="evenodd" fill-opacity="1"/>
<polyline clip-path="url(#clip090)" style="stroke:#000000; stroke-linecap:round; stroke-linejoin:round; stroke-width:4; stroke-opacity:1; fill:none" points="1855.99,248.629 2280.18,248.629 2280.18,93.1086 1855.99,93.1086 1855.99,248.629 "/>
<circle clip-path="url(#clip090)" cx="1952.76" cy="144.949" r="20.48" fill="#009af9" fill-rule="evenodd" fill-opacity="1" stroke="#000000" stroke-opacity="1" stroke-width="4.55111"/>
<path clip-path="url(#clip090)" d="M2077.4 130.331 L2077.4 135.261 Q2075.04 133.062 2072.35 131.974 Q2069.69 130.886 2066.68 130.886 Q2060.76 130.886 2057.61 134.52 Q2054.46 138.132 2054.46 144.983 Q2054.46 151.812 2057.61 155.446 Q2060.76 159.057 2066.68 159.057 Q2069.69 159.057 2072.35 157.969 Q2075.04 156.881 2077.4 154.682 L2077.4 159.567 Q2074.95 161.233 2072.19 162.067 Q2069.46 162.9 2066.4 162.9 Q2058.56 162.9 2054.04 158.108 Q2049.53 153.293 2049.53 144.983 Q2049.53 136.65 2054.04 131.858 Q2058.56 127.044 2066.4 127.044 Q2069.51 127.044 2072.24 127.877 Q2074.99 128.687 2077.4 130.331 Z" fill="#000000" fill-rule="nonzero" fill-opacity="1" /><path clip-path="url(#clip090)" d="M2084.44 126.21 L2088.7 126.21 L2088.7 162.229 L2084.44 162.229 L2084.44 126.21 Z" fill="#000000" fill-rule="nonzero" fill-opacity="1" /><path clip-path="url(#clip090)" d="M2097.17 151.997 L2097.17 136.303 L2101.43 136.303 L2101.43 151.835 Q2101.43 155.516 2102.86 157.368 Q2104.3 159.196 2107.17 159.196 Q2110.62 159.196 2112.61 156.997 Q2114.62 154.798 2114.62 151.002 L2114.62 136.303 L2118.88 136.303 L2118.88 162.229 L2114.62 162.229 L2114.62 158.247 Q2113.07 160.608 2111.01 161.766 Q2108.97 162.9 2106.27 162.9 Q2101.8 162.9 2099.48 160.122 Q2097.17 157.344 2097.17 151.997 M2107.89 135.678 L2107.89 135.678 Z" fill="#000000" fill-rule="nonzero" fill-opacity="1" /><path clip-path="url(#clip090)" d="M2144.18 137.067 L2144.18 141.094 Q2142.38 140.169 2140.43 139.706 Q2138.49 139.243 2136.4 139.243 Q2133.23 139.243 2131.64 140.215 Q2130.06 141.187 2130.06 143.131 Q2130.06 144.613 2131.2 145.469 Q2132.33 146.303 2135.76 147.067 L2137.21 147.391 Q2141.75 148.363 2143.65 150.145 Q2145.57 151.905 2145.57 155.076 Q2145.57 158.687 2142.7 160.793 Q2139.85 162.9 2134.85 162.9 Q2132.77 162.9 2130.5 162.483 Q2128.26 162.09 2125.76 161.28 L2125.76 156.881 Q2128.12 158.108 2130.41 158.733 Q2132.7 159.335 2134.95 159.335 Q2137.95 159.335 2139.58 158.317 Q2141.2 157.275 2141.2 155.4 Q2141.2 153.664 2140.01 152.738 Q2138.86 151.812 2134.9 150.956 L2133.42 150.608 Q2129.46 149.775 2127.7 148.062 Q2125.94 146.326 2125.94 143.317 Q2125.94 139.659 2128.53 137.669 Q2131.13 135.678 2135.89 135.678 Q2138.26 135.678 2140.34 136.025 Q2142.42 136.372 2144.18 137.067 Z" fill="#000000" fill-rule="nonzero" fill-opacity="1" /><path clip-path="url(#clip090)" d="M2156.57 128.942 L2156.57 136.303 L2165.34 136.303 L2165.34 139.613 L2156.57 139.613 L2156.57 153.687 Q2156.57 156.858 2157.42 157.761 Q2158.3 158.664 2160.96 158.664 L2165.34 158.664 L2165.34 162.229 L2160.96 162.229 Q2156.03 162.229 2154.16 160.4 Q2152.28 158.548 2152.28 153.687 L2152.28 139.613 L2149.16 139.613 L2149.16 136.303 L2152.28 136.303 L2152.28 128.942 L2156.57 128.942 Z" fill="#000000" fill-rule="nonzero" fill-opacity="1" /><path clip-path="url(#clip090)" d="M2193.12 148.201 L2193.12 150.284 L2173.53 150.284 Q2173.81 154.682 2176.17 156.997 Q2178.56 159.289 2182.79 159.289 Q2185.25 159.289 2187.54 158.687 Q2189.85 158.085 2192.12 156.881 L2192.12 160.909 Q2189.83 161.881 2187.42 162.391 Q2185.01 162.9 2182.54 162.9 Q2176.33 162.9 2172.7 159.289 Q2169.09 155.678 2169.09 149.52 Q2169.09 143.155 2172.51 139.428 Q2175.96 135.678 2181.8 135.678 Q2187.03 135.678 2190.06 139.057 Q2193.12 142.414 2193.12 148.201 M2188.86 146.951 Q2188.81 143.456 2186.89 141.372 Q2184.99 139.289 2181.84 139.289 Q2178.28 139.289 2176.13 141.303 Q2174 143.317 2173.67 146.974 L2188.86 146.951 Z" fill="#000000" fill-rule="nonzero" fill-opacity="1" /><path clip-path="url(#clip090)" d="M2215.13 140.284 Q2214.41 139.868 2213.56 139.682 Q2212.72 139.474 2211.7 139.474 Q2208.09 139.474 2206.15 141.835 Q2204.23 144.173 2204.23 148.571 L2204.23 162.229 L2199.95 162.229 L2199.95 136.303 L2204.23 136.303 L2204.23 140.331 Q2205.57 137.969 2207.72 136.835 Q2209.88 135.678 2212.95 135.678 Q2213.39 135.678 2213.93 135.747 Q2214.46 135.794 2215.11 135.909 L2215.13 140.284 Z" fill="#000000" fill-rule="nonzero" fill-opacity="1" /><path clip-path="url(#clip090)" d="M2236.08 158.293 L2243.72 158.293 L2243.72 131.928 L2235.41 133.595 L2235.41 129.335 L2243.67 127.669 L2248.35 127.669 L2248.35 158.293 L2255.99 158.293 L2255.99 162.229 L2236.08 162.229 L2236.08 158.293 Z" fill="#000000" fill-rule="nonzero" fill-opacity="1" /><circle clip-path="url(#clip090)" cx="1952.76" cy="196.789" r="20.48" fill="#e26f46" fill-rule="evenodd" fill-opacity="1" stroke="#000000" stroke-opacity="1" stroke-width="4.55111"/>
<path clip-path="url(#clip090)" d="M2077.4 182.171 L2077.4 187.101 Q2075.04 184.902 2072.35 183.814 Q2069.69 182.726 2066.68 182.726 Q2060.76 182.726 2057.61 186.36 Q2054.46 189.972 2054.46 196.823 Q2054.46 203.652 2057.61 207.286 Q2060.76 210.897 2066.68 210.897 Q2069.69 210.897 2072.35 209.809 Q2075.04 208.721 2077.4 206.522 L2077.4 211.407 Q2074.95 213.073 2072.19 213.907 Q2069.46 214.74 2066.4 214.74 Q2058.56 214.74 2054.04 209.948 Q2049.53 205.133 2049.53 196.823 Q2049.53 188.49 2054.04 183.698 Q2058.56 178.884 2066.4 178.884 Q2069.51 178.884 2072.24 179.717 Q2074.99 180.527 2077.4 182.171 Z" fill="#000000" fill-rule="nonzero" fill-opacity="1" /><path clip-path="url(#clip090)" d="M2084.44 178.05 L2088.7 178.05 L2088.7 214.069 L2084.44 214.069 L2084.44 178.05 Z" fill="#000000" fill-rule="nonzero" fill-opacity="1" /><path clip-path="url(#clip090)" d="M2097.17 203.837 L2097.17 188.143 L2101.43 188.143 L2101.43 203.675 Q2101.43 207.356 2102.86 209.208 Q2104.3 211.036 2107.17 211.036 Q2110.62 211.036 2112.61 208.837 Q2114.62 206.638 2114.62 202.842 L2114.62 188.143 L2118.88 188.143 L2118.88 214.069 L2114.62 214.069 L2114.62 210.087 Q2113.07 212.448 2111.01 213.606 Q2108.97 214.74 2106.27 214.74 Q2101.8 214.74 2099.48 211.962 Q2097.17 209.184 2097.17 203.837 M2107.89 187.518 L2107.89 187.518 Z" fill="#000000" fill-rule="nonzero" fill-opacity="1" /><path clip-path="url(#clip090)" d="M2144.18 188.907 L2144.18 192.934 Q2142.38 192.009 2140.43 191.546 Q2138.49 191.083 2136.4 191.083 Q2133.23 191.083 2131.64 192.055 Q2130.06 193.027 2130.06 194.971 Q2130.06 196.453 2131.2 197.309 Q2132.33 198.143 2135.76 198.907 L2137.21 199.231 Q2141.75 200.203 2143.65 201.985 Q2145.57 203.745 2145.57 206.916 Q2145.57 210.527 2142.7 212.633 Q2139.85 214.74 2134.85 214.74 Q2132.77 214.74 2130.5 214.323 Q2128.26 213.93 2125.76 213.12 L2125.76 208.721 Q2128.12 209.948 2130.41 210.573 Q2132.7 211.175 2134.95 211.175 Q2137.95 211.175 2139.58 210.157 Q2141.2 209.115 2141.2 207.24 Q2141.2 205.504 2140.01 204.578 Q2138.86 203.652 2134.9 202.796 L2133.42 202.448 Q2129.46 201.615 2127.7 199.902 Q2125.94 198.166 2125.94 195.157 Q2125.94 191.499 2128.53 189.509 Q2131.13 187.518 2135.89 187.518 Q2138.26 187.518 2140.34 187.865 Q2142.42 188.212 2144.18 188.907 Z" fill="#000000" fill-rule="nonzero" fill-opacity="1" /><path clip-path="url(#clip090)" d="M2156.57 180.782 L2156.57 188.143 L2165.34 188.143 L2165.34 191.453 L2156.57 191.453 L2156.57 205.527 Q2156.57 208.698 2157.42 209.601 Q2158.3 210.504 2160.96 210.504 L2165.34 210.504 L2165.34 214.069 L2160.96 214.069 Q2156.03 214.069 2154.16 212.24 Q2152.28 210.388 2152.28 205.527 L2152.28 191.453 L2149.16 191.453 L2149.16 188.143 L2152.28 188.143 L2152.28 180.782 L2156.57 180.782 Z" fill="#000000" fill-rule="nonzero" fill-opacity="1" /><path clip-path="url(#clip090)" d="M2193.12 200.041 L2193.12 202.124 L2173.53 202.124 Q2173.81 206.522 2176.17 208.837 Q2178.56 211.129 2182.79 211.129 Q2185.25 211.129 2187.54 210.527 Q2189.85 209.925 2192.12 208.721 L2192.12 212.749 Q2189.83 213.721 2187.42 214.231 Q2185.01 214.74 2182.54 214.74 Q2176.33 214.74 2172.7 211.129 Q2169.09 207.518 2169.09 201.36 Q2169.09 194.995 2172.51 191.268 Q2175.96 187.518 2181.8 187.518 Q2187.03 187.518 2190.06 190.897 Q2193.12 194.254 2193.12 200.041 M2188.86 198.791 Q2188.81 195.296 2186.89 193.212 Q2184.99 191.129 2181.84 191.129 Q2178.28 191.129 2176.13 193.143 Q2174 195.157 2173.67 198.814 L2188.86 198.791 Z" fill="#000000" fill-rule="nonzero" fill-opacity="1" /><path clip-path="url(#clip090)" d="M2215.13 192.124 Q2214.41 191.708 2213.56 191.522 Q2212.72 191.314 2211.7 191.314 Q2208.09 191.314 2206.15 193.675 Q2204.23 196.013 2204.23 200.411 L2204.23 214.069 L2199.95 214.069 L2199.95 188.143 L2204.23 188.143 L2204.23 192.171 Q2205.57 189.809 2207.72 188.675 Q2209.88 187.518 2212.95 187.518 Q2213.39 187.518 2213.93 187.587 Q2214.46 187.634 2215.11 187.749 L2215.13 192.124 Z" fill="#000000" fill-rule="nonzero" fill-opacity="1" /><path clip-path="url(#clip090)" d="M2239.3 210.133 L2255.62 210.133 L2255.62 214.069 L2233.67 214.069 L2233.67 210.133 Q2236.33 207.379 2240.92 202.749 Q2245.52 198.096 2246.7 196.754 Q2248.95 194.231 2249.83 192.495 Q2250.73 190.735 2250.73 189.046 Q2250.73 186.291 2248.79 184.555 Q2246.87 182.819 2243.76 182.819 Q2241.57 182.819 2239.11 183.583 Q2236.68 184.347 2233.9 185.897 L2233.9 181.175 Q2236.73 180.041 2239.18 179.462 Q2241.63 178.884 2243.67 178.884 Q2249.04 178.884 2252.24 181.569 Q2255.43 184.254 2255.43 188.745 Q2255.43 190.874 2254.62 192.796 Q2253.83 194.694 2251.73 197.286 Q2251.15 197.958 2248.05 201.175 Q2244.94 204.37 2239.3 210.133 Z" fill="#000000" fill-rule="nonzero" fill-opacity="1" /></svg>
