<?xml version="1.0" encoding="utf-8"?>
<svg xmlns="http://www.w3.org/2000/svg" xmlns:xlink="http://www.w3.org/1999/xlink" width="600" height="400" viewBox="0 0 2400 1600">
<defs>
  <clipPath id="clip880">
    <rect x="0" y="0" width="2400" height="1600"/>
  </clipPath>
</defs>
<path clip-path="url(#clip880)" d="M0 1600 L2400 1600 L2400 0 L0 0  Z" fill="#ffffff" fill-rule="evenodd" fill-opacity="1"/>
<defs>
  <clipPath id="clip881">
    <rect x="480" y="0" width="1681" height="1600"/>
  </clipPath>
</defs>
<path clip-path="url(#clip880)" d="M110.881 1486.45 L2352.76 1486.45 L2352.76 47.2441 L110.881 47.2441  Z" fill="#ffffff" fill-rule="evenodd" fill-opacity="1"/>
<defs>
  <clipPath id="clip882">
    <rect x="110" y="47" width="2243" height="1440"/>
  </clipPath>
</defs>
<polyline clip-path="url(#clip882)" style="stroke:#000000; stroke-linecap:round; stroke-linejoin:round; stroke-width:2; stroke-opacity:0.1; fill:none" points="110.881,1486.45 2352.76,1486.45 "/>
<polyline clip-path="url(#clip882)" style="stroke:#000000; stroke-linecap:round; stroke-linejoin:round; stroke-width:2; stroke-opacity:0.1; fill:none" points="110.881,1079.37 2352.76,1079.37 "/>
<polyline clip-path="url(#clip882)" style="stroke:#000000; stroke-linecap:round; stroke-linejoin:round; stroke-width:2; stroke-opacity:0.1; fill:none" points="110.881,672.299 2352.76,672.299 "/>
<polyline clip-path="url(#clip882)" style="stroke:#000000; stroke-linecap:round; stroke-linejoin:round; stroke-width:2; stroke-opacity:0.1; fill:none" points="110.881,265.225 2352.76,265.225 "/>
<polyline clip-path="url(#clip880)" style="stroke:#000000; stroke-linecap:round; stroke-linejoin:round; stroke-width:4; stroke-opacity:1; fill:none" points="110.881,1486.45 2352.76,1486.45 "/>
<polyline clip-path="url(#clip880)" style="stroke:#ffffff; stroke-linecap:round; stroke-linejoin:round; stroke-width:4; stroke-opacity:1; fill:none" points="222.975,1486.45 222.975,1467.55 "/>
<polyline clip-path="url(#clip880)" style="stroke:#ffffff; stroke-linecap:round; stroke-linejoin:round; stroke-width:4; stroke-opacity:1; fill:none" points="447.162,1486.45 447.162,1467.55 "/>
<polyline clip-path="url(#clip880)" style="stroke:#ffffff; stroke-linecap:round; stroke-linejoin:round; stroke-width:4; stroke-opacity:1; fill:none" points="671.35,1486.45 671.35,1467.55 "/>
<polyline clip-path="url(#clip880)" style="stroke:#ffffff; stroke-linecap:round; stroke-linejoin:round; stroke-width:4; stroke-opacity:1; fill:none" points="895.537,1486.45 895.537,1467.55 "/>
<polyline clip-path="url(#clip880)" style="stroke:#ffffff; stroke-linecap:round; stroke-linejoin:round; stroke-width:4; stroke-opacity:1; fill:none" points="1119.72,1486.45 1119.72,1467.55 "/>
<polyline clip-path="url(#clip880)" style="stroke:#ffffff; stroke-linecap:round; stroke-linejoin:round; stroke-width:4; stroke-opacity:1; fill:none" points="1343.91,1486.45 1343.91,1467.55 "/>
<polyline clip-path="url(#clip880)" style="stroke:#ffffff; stroke-linecap:round; stroke-linejoin:round; stroke-width:4; stroke-opacity:1; fill:none" points="1568.1,1486.45 1568.1,1467.55 "/>
<polyline clip-path="url(#clip880)" style="stroke:#ffffff; stroke-linecap:round; stroke-linejoin:round; stroke-width:4; stroke-opacity:1; fill:none" points="1792.29,1486.45 1792.29,1467.55 "/>
<polyline clip-path="url(#clip880)" style="stroke:#ffffff; stroke-linecap:round; stroke-linejoin:round; stroke-width:4; stroke-opacity:1; fill:none" points="2016.47,1486.45 2016.47,1467.55 "/>
<polyline clip-path="url(#clip880)" style="stroke:#ffffff; stroke-linecap:round; stroke-linejoin:round; stroke-width:4; stroke-opacity:1; fill:none" points="2240.66,1486.45 2240.66,1467.55 "/>
<path clip-path="url(#clip880)" d="M213.276 1548.13 L213.276 1543.87 Q215.035 1544.7 216.84 1545.14 Q218.646 1545.58 220.382 1545.58 Q225.012 1545.58 227.442 1542.48 Q229.896 1539.36 230.243 1533.01 Q228.901 1535.01 226.84 1536.07 Q224.78 1537.13 222.28 1537.13 Q217.095 1537.13 214.063 1534.01 Q211.053 1530.86 211.053 1525.42 Q211.053 1520.1 214.202 1516.88 Q217.35 1513.66 222.581 1513.66 Q228.576 1513.66 231.725 1518.27 Q234.896 1522.85 234.896 1531.6 Q234.896 1539.77 231.007 1544.66 Q227.141 1549.52 220.59 1549.52 Q218.831 1549.52 217.026 1549.17 Q215.22 1548.82 213.276 1548.13 M222.581 1533.48 Q225.729 1533.48 227.558 1531.32 Q229.41 1529.17 229.41 1525.42 Q229.41 1521.7 227.558 1519.54 Q225.729 1517.37 222.581 1517.37 Q219.433 1517.37 217.581 1519.54 Q215.752 1521.7 215.752 1525.42 Q215.752 1529.17 217.581 1531.32 Q219.433 1533.48 222.581 1533.48 Z" fill="#000000" fill-rule="nonzero" fill-opacity="1" /><path clip-path="url(#clip880)" d="M447.162 1532.44 Q443.829 1532.44 441.908 1534.22 Q440.009 1536 440.009 1539.13 Q440.009 1542.25 441.908 1544.03 Q443.829 1545.82 447.162 1545.82 Q450.495 1545.82 452.417 1544.03 Q454.338 1542.23 454.338 1539.13 Q454.338 1536 452.417 1534.22 Q450.519 1532.44 447.162 1532.44 M442.486 1530.45 Q439.477 1529.7 437.787 1527.64 Q436.121 1525.58 436.121 1522.62 Q436.121 1518.48 439.06 1516.07 Q442.023 1513.66 447.162 1513.66 Q452.324 1513.66 455.264 1516.07 Q458.204 1518.48 458.204 1522.62 Q458.204 1525.58 456.514 1527.64 Q454.847 1529.7 451.861 1530.45 Q455.241 1531.23 457.116 1533.52 Q459.014 1535.82 459.014 1539.13 Q459.014 1544.15 455.935 1546.83 Q452.88 1549.52 447.162 1549.52 Q441.445 1549.52 438.366 1546.83 Q435.31 1544.15 435.31 1539.13 Q435.31 1535.82 437.208 1533.52 Q439.107 1531.23 442.486 1530.45 M440.773 1523.06 Q440.773 1525.75 442.44 1527.25 Q444.13 1528.76 447.162 1528.76 Q450.171 1528.76 451.861 1527.25 Q453.574 1525.75 453.574 1523.06 Q453.574 1520.38 451.861 1518.87 Q450.171 1517.37 447.162 1517.37 Q444.13 1517.37 442.44 1518.87 Q440.773 1520.38 440.773 1523.06 Z" fill="#000000" fill-rule="nonzero" fill-opacity="1" /><path clip-path="url(#clip880)" d="M646.037 1544.91 L653.676 1544.91 L653.676 1518.55 L645.366 1520.21 L645.366 1515.95 L653.63 1514.29 L658.306 1514.29 L658.306 1544.91 L665.945 1544.91 L665.945 1548.85 L646.037 1548.85 L646.037 1544.91 Z" fill="#000000" fill-rule="nonzero" fill-opacity="1" /><path clip-path="url(#clip880)" d="M685.389 1517.37 Q681.778 1517.37 679.949 1520.93 Q678.144 1524.47 678.144 1531.6 Q678.144 1538.71 679.949 1542.27 Q681.778 1545.82 685.389 1545.82 Q689.023 1545.82 690.829 1542.27 Q692.657 1538.71 692.657 1531.6 Q692.657 1524.47 690.829 1520.93 Q689.023 1517.37 685.389 1517.37 M685.389 1513.66 Q691.199 1513.66 694.255 1518.27 Q697.333 1522.85 697.333 1531.6 Q697.333 1540.33 694.255 1544.94 Q691.199 1549.52 685.389 1549.52 Q679.579 1549.52 676.5 1544.94 Q673.445 1540.33 673.445 1531.6 Q673.445 1522.85 676.5 1518.27 Q679.579 1513.66 685.389 1513.66 Z" fill="#000000" fill-rule="nonzero" fill-opacity="1" /><path clip-path="url(#clip880)" d="M895.942 1529.7 Q892.794 1529.7 890.942 1531.86 Q889.114 1534.01 889.114 1537.76 Q889.114 1541.49 890.942 1543.66 Q892.794 1545.82 895.942 1545.82 Q899.09 1545.82 900.919 1543.66 Q902.771 1541.49 902.771 1537.76 Q902.771 1534.01 900.919 1531.86 Q899.09 1529.7 895.942 1529.7 M905.225 1515.05 L905.225 1519.31 Q903.465 1518.48 901.66 1518.04 Q899.877 1517.6 898.118 1517.6 Q893.489 1517.6 891.035 1520.72 Q888.604 1523.85 888.257 1530.17 Q889.623 1528.15 891.683 1527.09 Q893.743 1526 896.22 1526 Q901.428 1526 904.438 1529.17 Q907.47 1532.32 907.47 1537.76 Q907.47 1543.08 904.322 1546.3 Q901.174 1549.52 895.942 1549.52 Q889.947 1549.52 886.776 1544.94 Q883.604 1540.33 883.604 1531.6 Q883.604 1523.41 887.493 1518.55 Q891.382 1513.66 897.933 1513.66 Q899.692 1513.66 901.475 1514.01 Q903.28 1514.36 905.225 1515.05 Z" fill="#000000" fill-rule="nonzero" fill-opacity="1" /><path clip-path="url(#clip880)" d="M1108.61 1514.29 L1130.84 1514.29 L1130.84 1516.28 L1118.29 1548.85 L1113.41 1548.85 L1125.21 1518.22 L1108.61 1518.22 L1108.61 1514.29 Z" fill="#000000" fill-rule="nonzero" fill-opacity="1" /><path clip-path="url(#clip880)" d="M1338.56 1544.91 L1354.88 1544.91 L1354.88 1548.85 L1332.94 1548.85 L1332.94 1544.91 Q1335.6 1542.16 1340.19 1537.53 Q1344.79 1532.88 1345.97 1531.53 Q1348.22 1529.01 1349.1 1527.27 Q1350 1525.51 1350 1523.82 Q1350 1521.07 1348.06 1519.33 Q1346.13 1517.6 1343.03 1517.6 Q1340.83 1517.6 1338.38 1518.36 Q1335.95 1519.13 1333.17 1520.68 L1333.17 1515.95 Q1336 1514.82 1338.45 1514.24 Q1340.9 1513.66 1342.94 1513.66 Q1348.31 1513.66 1351.5 1516.35 Q1354.7 1519.03 1354.7 1523.52 Q1354.7 1525.65 1353.89 1527.57 Q1353.1 1529.47 1351 1532.07 Q1350.42 1532.74 1347.31 1535.95 Q1344.21 1539.15 1338.56 1544.91 Z" fill="#000000" fill-rule="nonzero" fill-opacity="1" /><path clip-path="url(#clip880)" d="M1558.48 1544.91 L1566.12 1544.91 L1566.12 1518.55 L1557.81 1520.21 L1557.81 1515.95 L1566.07 1514.29 L1570.75 1514.29 L1570.75 1544.91 L1578.39 1544.91 L1578.39 1548.85 L1558.48 1548.85 L1558.48 1544.91 Z" fill="#000000" fill-rule="nonzero" fill-opacity="1" /><path clip-path="url(#clip880)" d="M1795.3 1518.36 L1783.49 1536.81 L1795.3 1536.81 L1795.3 1518.36 M1794.07 1514.29 L1799.95 1514.29 L1799.95 1536.81 L1804.88 1536.81 L1804.88 1540.7 L1799.95 1540.7 L1799.95 1548.85 L1795.3 1548.85 L1795.3 1540.7 L1779.69 1540.7 L1779.69 1536.19 L1794.07 1514.29 Z" fill="#000000" fill-rule="nonzero" fill-opacity="1" /><path clip-path="url(#clip880)" d="M2020.72 1530.21 Q2024.08 1530.93 2025.95 1533.2 Q2027.85 1535.47 2027.85 1538.8 Q2027.85 1543.92 2024.33 1546.72 Q2020.81 1549.52 2014.33 1549.52 Q2012.16 1549.52 2009.84 1549.08 Q2007.55 1548.66 2005.1 1547.81 L2005.1 1543.29 Q2007.04 1544.43 2009.36 1545.01 Q2011.67 1545.58 2014.19 1545.58 Q2018.59 1545.58 2020.88 1543.85 Q2023.2 1542.11 2023.2 1538.8 Q2023.2 1535.75 2021.05 1534.03 Q2018.92 1532.3 2015.1 1532.3 L2011.07 1532.3 L2011.07 1528.45 L2015.28 1528.45 Q2018.73 1528.45 2020.56 1527.09 Q2022.39 1525.7 2022.39 1523.11 Q2022.39 1520.45 2020.49 1519.03 Q2018.62 1517.6 2015.1 1517.6 Q2013.18 1517.6 2010.98 1518.01 Q2008.78 1518.43 2006.14 1519.31 L2006.14 1515.14 Q2008.8 1514.4 2011.12 1514.03 Q2013.45 1513.66 2015.51 1513.66 Q2020.84 1513.66 2023.94 1516.09 Q2027.04 1518.5 2027.04 1522.62 Q2027.04 1525.49 2025.4 1527.48 Q2023.75 1529.45 2020.72 1530.21 Z" fill="#000000" fill-rule="nonzero" fill-opacity="1" /><path clip-path="url(#clip880)" d="M2230.94 1514.29 L2249.3 1514.29 L2249.3 1518.22 L2235.22 1518.22 L2235.22 1526.7 Q2236.24 1526.35 2237.26 1526.19 Q2238.28 1526 2239.3 1526 Q2245.08 1526 2248.46 1529.17 Q2251.84 1532.34 2251.84 1537.76 Q2251.84 1543.34 2248.37 1546.44 Q2244.9 1549.52 2238.58 1549.52 Q2236.4 1549.52 2234.13 1549.15 Q2231.89 1548.78 2229.48 1548.04 L2229.48 1543.34 Q2231.56 1544.47 2233.79 1545.03 Q2236.01 1545.58 2238.49 1545.58 Q2242.49 1545.58 2244.83 1543.48 Q2247.17 1541.37 2247.17 1537.76 Q2247.17 1534.15 2244.83 1532.04 Q2242.49 1529.94 2238.49 1529.94 Q2236.61 1529.94 2234.74 1530.35 Q2232.88 1530.77 2230.94 1531.65 L2230.94 1514.29 Z" fill="#000000" fill-rule="nonzero" fill-opacity="1" /><polyline clip-path="url(#clip880)" style="stroke:#000000; stroke-linecap:round; stroke-linejoin:round; stroke-width:4; stroke-opacity:1; fill:none" points="110.881,1486.45 110.881,47.2441 "/>
<polyline clip-path="url(#clip880)" style="stroke:#000000; stroke-linecap:round; stroke-linejoin:round; stroke-width:4; stroke-opacity:1; fill:none" points="110.881,1486.45 129.779,1486.45 "/>
<polyline clip-path="url(#clip880)" style="stroke:#000000; stroke-linecap:round; stroke-linejoin:round; stroke-width:4; stroke-opacity:1; fill:none" points="110.881,1079.37 129.779,1079.37 "/>
<polyline clip-path="url(#clip880)" style="stroke:#000000; stroke-linecap:round; stroke-linejoin:round; stroke-width:4; stroke-opacity:1; fill:none" points="110.881,672.299 129.779,672.299 "/>
<polyline clip-path="url(#clip880)" style="stroke:#000000; stroke-linecap:round; stroke-linejoin:round; stroke-width:4; stroke-opacity:1; fill:none" points="110.881,265.225 129.779,265.225 "/>
<path clip-path="url(#clip880)" d="M62.9365 1472.25 Q59.3254 1472.25 57.4967 1475.81 Q55.6912 1479.35 55.6912 1486.48 Q55.6912 1493.59 57.4967 1497.15 Q59.3254 1500.7 62.9365 1500.7 Q66.5707 1500.7 68.3763 1497.15 Q70.205 1493.59 70.205 1486.48 Q70.205 1479.35 68.3763 1475.81 Q66.5707 1472.25 62.9365 1472.25 M62.9365 1468.54 Q68.7467 1468.54 71.8022 1473.15 Q74.8809 1477.73 74.8809 1486.48 Q74.8809 1495.21 71.8022 1499.82 Q68.7467 1504.4 62.9365 1504.4 Q57.1264 1504.4 54.0477 1499.82 Q50.9921 1495.21 50.9921 1486.48 Q50.9921 1477.73 54.0477 1473.15 Q57.1264 1468.54 62.9365 1468.54 Z" fill="#000000" fill-rule="nonzero" fill-opacity="1" /><path clip-path="url(#clip880)" d="M54.9736 1092.72 L62.6124 1092.72 L62.6124 1066.35 L54.3023 1068.02 L54.3023 1063.76 L62.5661 1062.09 L67.242 1062.09 L67.242 1092.72 L74.8809 1092.72 L74.8809 1096.65 L54.9736 1096.65 L54.9736 1092.72 Z" fill="#000000" fill-rule="nonzero" fill-opacity="1" /><path clip-path="url(#clip880)" d="M58.5615 685.644 L74.8809 685.644 L74.8809 689.579 L52.9366 689.579 L52.9366 685.644 Q55.5986 682.889 60.1819 678.26 Q64.7883 673.607 65.9689 672.264 Q68.2143 669.741 69.0939 668.005 Q69.9967 666.246 69.9967 664.556 Q69.9967 661.801 68.0522 660.065 Q66.1309 658.329 63.0291 658.329 Q60.83 658.329 58.3763 659.093 Q55.9458 659.857 53.168 661.408 L53.168 656.686 Q55.9921 655.552 58.4458 654.973 Q60.8995 654.394 62.9365 654.394 Q68.3068 654.394 71.5013 657.079 Q74.6957 659.764 74.6957 664.255 Q74.6957 666.385 73.8855 668.306 Q73.0985 670.204 70.992 672.797 Q70.4133 673.468 67.3115 676.686 Q64.2096 679.88 58.5615 685.644 Z" fill="#000000" fill-rule="nonzero" fill-opacity="1" /><path clip-path="url(#clip880)" d="M67.7513 263.871 Q71.1078 264.588 72.9827 266.857 Q74.8809 269.125 74.8809 272.458 Q74.8809 277.574 71.3624 280.375 Q67.8439 283.176 61.3624 283.176 Q59.1865 283.176 56.8717 282.736 Q54.5801 282.32 52.1264 281.463 L52.1264 276.949 Q54.0708 278.083 56.3856 278.662 Q58.7004 279.241 61.2236 279.241 Q65.6217 279.241 67.9133 277.505 Q70.2281 275.769 70.2281 272.458 Q70.2281 269.403 68.0754 267.69 Q65.9457 265.954 62.1263 265.954 L58.0986 265.954 L58.0986 262.111 L62.3115 262.111 Q65.7606 262.111 67.5893 260.746 Q69.418 259.357 69.418 256.764 Q69.418 254.102 67.5198 252.69 Q65.6448 251.255 62.1263 251.255 Q60.205 251.255 58.006 251.672 Q55.8069 252.088 53.168 252.968 L53.168 248.801 Q55.8301 248.06 58.1449 247.69 Q60.4828 247.32 62.543 247.32 Q67.867 247.32 70.9689 249.75 Q74.0707 252.158 74.0707 256.278 Q74.0707 259.148 72.4272 261.139 Q70.7837 263.107 67.7513 263.871 Z" fill="#000000" fill-rule="nonzero" fill-opacity="1" /><polyline clip-path="url(#clip882)" style="stroke:#000000; stroke-linecap:round; stroke-linejoin:round; stroke-width:4; stroke-opacity:1; fill:none" points="1568.1,1486.45 1568.1,1407.65 1792.29,1407.65 1792.29,1486.45 "/>
<polyline clip-path="url(#clip882)" style="stroke:#000000; stroke-linecap:round; stroke-linejoin:round; stroke-width:4; stroke-opacity:1; fill:none" points="895.537,1486.45 895.537,1287.82 1119.72,1287.82 1119.72,1486.45 "/>
<polyline clip-path="url(#clip882)" style="stroke:#000000; stroke-linecap:round; stroke-linejoin:round; stroke-width:4; stroke-opacity:1; fill:none" points="2016.47,1486.45 2016.47,1235.66 2240.66,1235.66 2240.66,1486.45 "/>
<polyline clip-path="url(#clip882)" style="stroke:#000000; stroke-linecap:round; stroke-linejoin:round; stroke-width:4; stroke-opacity:1; fill:none" points="671.35,1486.45 671.35,1172.72 1007.63,1172.72 1007.63,1287.82 "/>
<polyline clip-path="url(#clip882)" style="stroke:#000000; stroke-linecap:round; stroke-linejoin:round; stroke-width:4; stroke-opacity:1; fill:none" points="447.162,1486.45 447.162,952.028 839.49,952.028 839.49,1172.72 "/>
<polyline clip-path="url(#clip882)" style="stroke:#000000; stroke-linecap:round; stroke-linejoin:round; stroke-width:4; stroke-opacity:1; fill:none" points="1680.19,1407.65 1680.19,855.582 2128.57,855.582 2128.57,1235.66 "/>
<polyline clip-path="url(#clip882)" style="stroke:#000000; stroke-linecap:round; stroke-linejoin:round; stroke-width:4; stroke-opacity:1; fill:none" points="1343.91,1486.45 1343.91,396.197 1904.38,396.197 1904.38,855.582 "/>
<polyline clip-path="url(#clip882)" style="stroke:#000000; stroke-linecap:round; stroke-linejoin:round; stroke-width:4; stroke-opacity:1; fill:none" points="643.326,952.028 643.326,241.642 1624.15,241.642 1624.15,396.197 "/>
<polyline clip-path="url(#clip882)" style="stroke:#000000; stroke-linecap:round; stroke-linejoin:round; stroke-width:4; stroke-opacity:1; fill:none" points="222.975,1486.45 222.975,47.2441 1133.74,47.2441 1133.74,241.642 "/>
</svg>
