<?xml version="1.0" encoding="utf-8"?>
<svg xmlns="http://www.w3.org/2000/svg" xmlns:xlink="http://www.w3.org/1999/xlink" width="600" height="400" viewBox="0 0 2400 1600">
<defs>
  <clipPath id="clip680">
    <rect x="0" y="0" width="2400" height="1600"/>
  </clipPath>
</defs>
<path clip-path="url(#clip680)" d="M0 1600 L2400 1600 L2400 0 L0 0  Z" fill="#ffffff" fill-rule="evenodd" fill-opacity="1"/>
<defs>
  <clipPath id="clip681">
    <rect x="480" y="0" width="1681" height="1600"/>
  </clipPath>
</defs>
<path clip-path="url(#clip680)" d="M247.459 1423.18 L2352.76 1423.18 L2352.76 47.2441 L247.459 47.2441  Z" fill="#ffffff" fill-rule="evenodd" fill-opacity="1"/>
<defs>
  <clipPath id="clip682">
    <rect x="247" y="47" width="2106" height="1377"/>
  </clipPath>
</defs>
<polyline clip-path="url(#clip682)" style="stroke:#000000; stroke-linecap:round; stroke-linejoin:round; stroke-width:2; stroke-opacity:0.1; fill:none" points="650.822,1423.18 650.822,47.2441 "/>
<polyline clip-path="url(#clip682)" style="stroke:#000000; stroke-linecap:round; stroke-linejoin:round; stroke-width:2; stroke-opacity:0.1; fill:none" points="1079.22,1423.18 1079.22,47.2441 "/>
<polyline clip-path="url(#clip682)" style="stroke:#000000; stroke-linecap:round; stroke-linejoin:round; stroke-width:2; stroke-opacity:0.1; fill:none" points="1507.62,1423.18 1507.62,47.2441 "/>
<polyline clip-path="url(#clip682)" style="stroke:#000000; stroke-linecap:round; stroke-linejoin:round; stroke-width:2; stroke-opacity:0.1; fill:none" points="1936.01,1423.18 1936.01,47.2441 "/>
<polyline clip-path="url(#clip682)" style="stroke:#000000; stroke-linecap:round; stroke-linejoin:round; stroke-width:2; stroke-opacity:0.1; fill:none" points="247.459,1410.81 2352.76,1410.81 "/>
<polyline clip-path="url(#clip682)" style="stroke:#000000; stroke-linecap:round; stroke-linejoin:round; stroke-width:2; stroke-opacity:0.1; fill:none" points="247.459,1077.86 2352.76,1077.86 "/>
<polyline clip-path="url(#clip682)" style="stroke:#000000; stroke-linecap:round; stroke-linejoin:round; stroke-width:2; stroke-opacity:0.1; fill:none" points="247.459,744.916 2352.76,744.916 "/>
<polyline clip-path="url(#clip682)" style="stroke:#000000; stroke-linecap:round; stroke-linejoin:round; stroke-width:2; stroke-opacity:0.1; fill:none" points="247.459,411.97 2352.76,411.97 "/>
<polyline clip-path="url(#clip682)" style="stroke:#000000; stroke-linecap:round; stroke-linejoin:round; stroke-width:2; stroke-opacity:0.1; fill:none" points="247.459,79.024 2352.76,79.024 "/>
<polyline clip-path="url(#clip680)" style="stroke:#000000; stroke-linecap:round; stroke-linejoin:round; stroke-width:4; stroke-opacity:1; fill:none" points="247.459,1423.18 2352.76,1423.18 "/>
<polyline clip-path="url(#clip680)" style="stroke:#000000; stroke-linecap:round; stroke-linejoin:round; stroke-width:4; stroke-opacity:1; fill:none" points="650.822,1423.18 650.822,1404.28 "/>
<polyline clip-path="url(#clip680)" style="stroke:#000000; stroke-linecap:round; stroke-linejoin:round; stroke-width:4; stroke-opacity:1; fill:none" points="1079.22,1423.18 1079.22,1404.28 "/>
<polyline clip-path="url(#clip680)" style="stroke:#000000; stroke-linecap:round; stroke-linejoin:round; stroke-width:4; stroke-opacity:1; fill:none" points="1507.62,1423.18 1507.62,1404.28 "/>
<polyline clip-path="url(#clip680)" style="stroke:#000000; stroke-linecap:round; stroke-linejoin:round; stroke-width:4; stroke-opacity:1; fill:none" points="1936.01,1423.18 1936.01,1404.28 "/>
<path clip-path="url(#clip680)" d="M645.475 1481.64 L661.794 1481.64 L661.794 1485.58 L639.85 1485.58 L639.85 1481.64 Q642.512 1478.89 647.095 1474.26 Q651.701 1469.61 652.882 1468.27 Q655.127 1465.74 656.007 1464.01 Q656.91 1462.25 656.91 1460.56 Q656.91 1457.8 654.965 1456.07 Q653.044 1454.33 649.942 1454.33 Q647.743 1454.33 645.289 1455.09 Q642.859 1455.86 640.081 1457.41 L640.081 1452.69 Q642.905 1451.55 645.359 1450.97 Q647.812 1450.39 649.849 1450.39 Q655.22 1450.39 658.414 1453.08 Q661.609 1455.77 661.609 1460.26 Q661.609 1462.39 660.798 1464.31 Q660.011 1466.2 657.905 1468.8 Q657.326 1469.47 654.224 1472.69 Q651.123 1475.88 645.475 1481.64 Z" fill="#000000" fill-rule="nonzero" fill-opacity="1" /><path clip-path="url(#clip680)" d="M1083.47 1466.95 Q1086.82 1467.66 1088.7 1469.93 Q1090.6 1472.2 1090.6 1475.53 Q1090.6 1480.65 1087.08 1483.45 Q1083.56 1486.25 1077.08 1486.25 Q1074.9 1486.25 1072.59 1485.81 Q1070.3 1485.39 1067.84 1484.54 L1067.84 1480.02 Q1069.79 1481.16 1072.1 1481.74 Q1074.42 1482.32 1076.94 1482.32 Q1081.34 1482.32 1083.63 1480.58 Q1085.94 1478.84 1085.94 1475.53 Q1085.94 1472.48 1083.79 1470.77 Q1081.66 1469.03 1077.84 1469.03 L1073.81 1469.03 L1073.81 1465.19 L1078.03 1465.19 Q1081.48 1465.19 1083.3 1463.82 Q1085.13 1462.43 1085.13 1459.84 Q1085.13 1457.18 1083.24 1455.77 Q1081.36 1454.33 1077.84 1454.33 Q1075.92 1454.33 1073.72 1454.75 Q1071.52 1455.16 1068.88 1456.04 L1068.88 1451.88 Q1071.55 1451.14 1073.86 1450.77 Q1076.2 1450.39 1078.26 1450.39 Q1083.58 1450.39 1086.68 1452.83 Q1089.79 1455.23 1089.79 1459.35 Q1089.79 1462.22 1088.14 1464.21 Q1086.5 1466.18 1083.47 1466.95 Z" fill="#000000" fill-rule="nonzero" fill-opacity="1" /><path clip-path="url(#clip680)" d="M1510.63 1455.09 L1498.82 1473.54 L1510.63 1473.54 L1510.63 1455.09 M1509.4 1451.02 L1515.28 1451.02 L1515.28 1473.54 L1520.21 1473.54 L1520.21 1477.43 L1515.28 1477.43 L1515.28 1485.58 L1510.63 1485.58 L1510.63 1477.43 L1495.02 1477.43 L1495.02 1472.92 L1509.4 1451.02 Z" fill="#000000" fill-rule="nonzero" fill-opacity="1" /><path clip-path="url(#clip680)" d="M1926.29 1451.02 L1944.65 1451.02 L1944.65 1454.96 L1930.57 1454.96 L1930.57 1463.43 Q1931.59 1463.08 1932.61 1462.92 Q1933.63 1462.73 1934.65 1462.73 Q1940.44 1462.73 1943.82 1465.9 Q1947.2 1469.08 1947.2 1474.49 Q1947.2 1480.07 1943.72 1483.17 Q1940.25 1486.25 1933.93 1486.25 Q1931.76 1486.25 1929.49 1485.88 Q1927.24 1485.51 1924.83 1484.77 L1924.83 1480.07 Q1926.92 1481.2 1929.14 1481.76 Q1931.36 1482.32 1933.84 1482.32 Q1937.84 1482.32 1940.18 1480.21 Q1942.52 1478.1 1942.52 1474.49 Q1942.52 1470.88 1940.18 1468.77 Q1937.84 1466.67 1933.84 1466.67 Q1931.96 1466.67 1930.09 1467.08 Q1928.24 1467.5 1926.29 1468.38 L1926.29 1451.02 Z" fill="#000000" fill-rule="nonzero" fill-opacity="1" /><path clip-path="url(#clip680)" d="M1281.93 1520.52 L1288.84 1520.52 L1300.65 1538.19 L1312.52 1520.52 L1319.43 1520.52 L1304.15 1543.34 L1320.45 1568.04 L1313.54 1568.04 L1300.17 1547.83 L1286.71 1568.04 L1279.77 1568.04 L1296.73 1542.68 L1281.93 1520.52 Z" fill="#000000" fill-rule="nonzero" fill-opacity="1" /><polyline clip-path="url(#clip680)" style="stroke:#000000; stroke-linecap:round; stroke-linejoin:round; stroke-width:4; stroke-opacity:1; fill:none" points="247.459,1423.18 247.459,47.2441 "/>
<polyline clip-path="url(#clip680)" style="stroke:#000000; stroke-linecap:round; stroke-linejoin:round; stroke-width:4; stroke-opacity:1; fill:none" points="247.459,1410.81 266.356,1410.81 "/>
<polyline clip-path="url(#clip680)" style="stroke:#000000; stroke-linecap:round; stroke-linejoin:round; stroke-width:4; stroke-opacity:1; fill:none" points="247.459,1077.86 266.356,1077.86 "/>
<polyline clip-path="url(#clip680)" style="stroke:#000000; stroke-linecap:round; stroke-linejoin:round; stroke-width:4; stroke-opacity:1; fill:none" points="247.459,744.916 266.356,744.916 "/>
<polyline clip-path="url(#clip680)" style="stroke:#000000; stroke-linecap:round; stroke-linejoin:round; stroke-width:4; stroke-opacity:1; fill:none" points="247.459,411.97 266.356,411.97 "/>
<polyline clip-path="url(#clip680)" style="stroke:#000000; stroke-linecap:round; stroke-linejoin:round; stroke-width:4; stroke-opacity:1; fill:none" points="247.459,79.024 266.356,79.024 "/>
<path clip-path="url(#clip680)" d="M154.283 1396.61 Q150.672 1396.61 148.843 1400.17 Q147.038 1403.71 147.038 1410.84 Q147.038 1417.95 148.843 1421.51 Q150.672 1425.05 154.283 1425.05 Q157.917 1425.05 159.723 1421.51 Q161.552 1417.95 161.552 1410.84 Q161.552 1403.71 159.723 1400.17 Q157.917 1396.61 154.283 1396.61 M154.283 1392.9 Q160.093 1392.9 163.149 1397.51 Q166.227 1402.09 166.227 1410.84 Q166.227 1419.57 163.149 1424.18 Q160.093 1428.76 154.283 1428.76 Q148.473 1428.76 145.394 1424.18 Q142.339 1419.57 142.339 1410.84 Q142.339 1402.09 145.394 1397.51 Q148.473 1392.9 154.283 1392.9 Z" fill="#000000" fill-rule="nonzero" fill-opacity="1" /><path clip-path="url(#clip680)" d="M174.445 1422.21 L179.329 1422.21 L179.329 1428.09 L174.445 1428.09 L174.445 1422.21 Z" fill="#000000" fill-rule="nonzero" fill-opacity="1" /><path clip-path="url(#clip680)" d="M199.514 1396.61 Q195.903 1396.61 194.075 1400.17 Q192.269 1403.71 192.269 1410.84 Q192.269 1417.95 194.075 1421.51 Q195.903 1425.05 199.514 1425.05 Q203.149 1425.05 204.954 1421.51 Q206.783 1417.95 206.783 1410.84 Q206.783 1403.71 204.954 1400.17 Q203.149 1396.61 199.514 1396.61 M199.514 1392.9 Q205.324 1392.9 208.38 1397.51 Q211.459 1402.09 211.459 1410.84 Q211.459 1419.57 208.38 1424.18 Q205.324 1428.76 199.514 1428.76 Q193.704 1428.76 190.625 1424.18 Q187.57 1419.57 187.57 1410.84 Q187.57 1402.09 190.625 1397.51 Q193.704 1392.9 199.514 1392.9 Z" fill="#000000" fill-rule="nonzero" fill-opacity="1" /><path clip-path="url(#clip680)" d="M149.306 1091.21 L165.626 1091.21 L165.626 1095.14 L143.681 1095.14 L143.681 1091.21 Q146.343 1088.45 150.927 1083.82 Q155.533 1079.17 156.714 1077.83 Q158.959 1075.3 159.839 1073.57 Q160.741 1071.81 160.741 1070.12 Q160.741 1067.36 158.797 1065.63 Q156.876 1063.89 153.774 1063.89 Q151.575 1063.89 149.121 1064.66 Q146.691 1065.42 143.913 1066.97 L143.913 1062.25 Q146.737 1061.11 149.191 1060.54 Q151.644 1059.96 153.681 1059.96 Q159.052 1059.96 162.246 1062.64 Q165.44 1065.33 165.44 1069.82 Q165.44 1071.95 164.63 1073.87 Q163.843 1075.77 161.737 1078.36 Q161.158 1079.03 158.056 1082.25 Q154.954 1085.44 149.306 1091.21 Z" fill="#000000" fill-rule="nonzero" fill-opacity="1" /><path clip-path="url(#clip680)" d="M175.44 1089.26 L180.325 1089.26 L180.325 1095.14 L175.44 1095.14 L175.44 1089.26 Z" fill="#000000" fill-rule="nonzero" fill-opacity="1" /><path clip-path="url(#clip680)" d="M190.556 1060.58 L208.912 1060.58 L208.912 1064.52 L194.838 1064.52 L194.838 1072.99 Q195.857 1072.64 196.875 1072.48 Q197.894 1072.29 198.912 1072.29 Q204.699 1072.29 208.079 1075.47 Q211.459 1078.64 211.459 1084.05 Q211.459 1089.63 207.987 1092.73 Q204.514 1095.81 198.195 1095.81 Q196.019 1095.81 193.75 1095.44 Q191.505 1095.07 189.098 1094.33 L189.098 1089.63 Q191.181 1090.77 193.403 1091.32 Q195.625 1091.88 198.102 1091.88 Q202.107 1091.88 204.445 1089.77 Q206.783 1087.66 206.783 1084.05 Q206.783 1080.44 204.445 1078.34 Q202.107 1076.23 198.102 1076.23 Q196.227 1076.23 194.352 1076.65 Q192.5 1077.06 190.556 1077.94 L190.556 1060.58 Z" fill="#000000" fill-rule="nonzero" fill-opacity="1" /><path clip-path="url(#clip680)" d="M144.329 727.636 L162.686 727.636 L162.686 731.571 L148.612 731.571 L148.612 740.043 Q149.63 739.696 150.649 739.534 Q151.667 739.349 152.686 739.349 Q158.473 739.349 161.852 742.52 Q165.232 745.691 165.232 751.108 Q165.232 756.686 161.76 759.788 Q158.288 762.867 151.968 762.867 Q149.792 762.867 147.524 762.497 Q145.279 762.126 142.871 761.385 L142.871 756.686 Q144.954 757.821 147.177 758.376 Q149.399 758.932 151.876 758.932 Q155.88 758.932 158.218 756.825 Q160.556 754.719 160.556 751.108 Q160.556 747.497 158.218 745.39 Q155.88 743.284 151.876 743.284 Q150.001 743.284 148.126 743.7 Q146.274 744.117 144.329 744.997 L144.329 727.636 Z" fill="#000000" fill-rule="nonzero" fill-opacity="1" /><path clip-path="url(#clip680)" d="M174.445 756.316 L179.329 756.316 L179.329 762.196 L174.445 762.196 L174.445 756.316 Z" fill="#000000" fill-rule="nonzero" fill-opacity="1" /><path clip-path="url(#clip680)" d="M199.514 730.714 Q195.903 730.714 194.075 734.279 Q192.269 737.821 192.269 744.95 Q192.269 752.057 194.075 755.622 Q195.903 759.163 199.514 759.163 Q203.149 759.163 204.954 755.622 Q206.783 752.057 206.783 744.95 Q206.783 737.821 204.954 734.279 Q203.149 730.714 199.514 730.714 M199.514 727.011 Q205.324 727.011 208.38 731.617 Q211.459 736.2 211.459 744.95 Q211.459 753.677 208.38 758.284 Q205.324 762.867 199.514 762.867 Q193.704 762.867 190.625 758.284 Q187.57 753.677 187.57 744.95 Q187.57 736.2 190.625 731.617 Q193.704 727.011 199.514 727.011 Z" fill="#000000" fill-rule="nonzero" fill-opacity="1" /><path clip-path="url(#clip680)" d="M144.098 394.69 L166.32 394.69 L166.32 396.681 L153.774 429.25 L148.89 429.25 L160.695 398.625 L144.098 398.625 L144.098 394.69 Z" fill="#000000" fill-rule="nonzero" fill-opacity="1" /><path clip-path="url(#clip680)" d="M175.44 423.37 L180.325 423.37 L180.325 429.25 L175.44 429.25 L175.44 423.37 Z" fill="#000000" fill-rule="nonzero" fill-opacity="1" /><path clip-path="url(#clip680)" d="M190.556 394.69 L208.912 394.69 L208.912 398.625 L194.838 398.625 L194.838 407.097 Q195.857 406.75 196.875 406.588 Q197.894 406.403 198.912 406.403 Q204.699 406.403 208.079 409.574 Q211.459 412.745 211.459 418.162 Q211.459 423.741 207.987 426.842 Q204.514 429.921 198.195 429.921 Q196.019 429.921 193.75 429.551 Q191.505 429.18 189.098 428.44 L189.098 423.741 Q191.181 424.875 193.403 425.43 Q195.625 425.986 198.102 425.986 Q202.107 425.986 204.445 423.88 Q206.783 421.773 206.783 418.162 Q206.783 414.551 204.445 412.444 Q202.107 410.338 198.102 410.338 Q196.227 410.338 194.352 410.755 Q192.5 411.171 190.556 412.051 L190.556 394.69 Z" fill="#000000" fill-rule="nonzero" fill-opacity="1" /><path clip-path="url(#clip680)" d="M114.931 92.3689 L122.57 92.3689 L122.57 66.0033 L114.26 67.6699 L114.26 63.4107 L122.524 61.744 L127.2 61.744 L127.2 92.3689 L134.839 92.3689 L134.839 96.304 L114.931 96.304 L114.931 92.3689 Z" fill="#000000" fill-rule="nonzero" fill-opacity="1" /><path clip-path="url(#clip680)" d="M154.283 64.8227 Q150.672 64.8227 148.843 68.3875 Q147.038 71.9291 147.038 79.0587 Q147.038 86.1652 148.843 89.73 Q150.672 93.2716 154.283 93.2716 Q157.917 93.2716 159.723 89.73 Q161.552 86.1652 161.552 79.0587 Q161.552 71.9291 159.723 68.3875 Q157.917 64.8227 154.283 64.8227 M154.283 61.119 Q160.093 61.119 163.149 65.7255 Q166.227 70.3088 166.227 79.0587 Q166.227 87.7855 163.149 92.392 Q160.093 96.9753 154.283 96.9753 Q148.473 96.9753 145.394 92.392 Q142.339 87.7855 142.339 79.0587 Q142.339 70.3088 145.394 65.7255 Q148.473 61.119 154.283 61.119 Z" fill="#000000" fill-rule="nonzero" fill-opacity="1" /><path clip-path="url(#clip680)" d="M174.445 90.4244 L179.329 90.4244 L179.329 96.304 L174.445 96.304 L174.445 90.4244 Z" fill="#000000" fill-rule="nonzero" fill-opacity="1" /><path clip-path="url(#clip680)" d="M199.514 64.8227 Q195.903 64.8227 194.075 68.3875 Q192.269 71.9291 192.269 79.0587 Q192.269 86.1652 194.075 89.73 Q195.903 93.2716 199.514 93.2716 Q203.149 93.2716 204.954 89.73 Q206.783 86.1652 206.783 79.0587 Q206.783 71.9291 204.954 68.3875 Q203.149 64.8227 199.514 64.8227 M199.514 61.119 Q205.324 61.119 208.38 65.7255 Q211.459 70.3088 211.459 79.0587 Q211.459 87.7855 208.38 92.392 Q205.324 96.9753 199.514 96.9753 Q193.704 96.9753 190.625 92.392 Q187.57 87.7855 187.57 79.0587 Q187.57 70.3088 190.625 65.7255 Q193.704 61.119 199.514 61.119 Z" fill="#000000" fill-rule="nonzero" fill-opacity="1" /><path clip-path="url(#clip680)" d="M16.4842 755.248 L16.4842 748.341 L36.0269 735.164 L16.4842 722.083 L16.4842 715.176 L41.3741 731.981 L64.0042 731.981 L64.0042 738.443 L41.3741 738.443 L16.4842 755.248 Z" fill="#000000" fill-rule="nonzero" fill-opacity="1" /><circle clip-path="url(#clip682)" cx="591.983" cy="1251.98" r="14.4" fill="#009af9" fill-rule="evenodd" fill-opacity="1" stroke="#000000" stroke-opacity="1" stroke-width="3.2"/>
<circle clip-path="url(#clip682)" cx="549.184" cy="843.838" r="14.4" fill="#009af9" fill-rule="evenodd" fill-opacity="1" stroke="#000000" stroke-opacity="1" stroke-width="3.2"/>
<circle clip-path="url(#clip682)" cx="307.043" cy="934.481" r="14.4" fill="#009af9" fill-rule="evenodd" fill-opacity="1" stroke="#000000" stroke-opacity="1" stroke-width="3.2"/>
<circle clip-path="url(#clip682)" cx="438.867" cy="1167.27" r="14.4" fill="#009af9" fill-rule="evenodd" fill-opacity="1" stroke="#000000" stroke-opacity="1" stroke-width="3.2"/>
<circle clip-path="url(#clip682)" cx="374.512" cy="1384.24" r="14.4" fill="#009af9" fill-rule="evenodd" fill-opacity="1" stroke="#000000" stroke-opacity="1" stroke-width="3.2"/>
<circle clip-path="url(#clip682)" cx="1785.32" cy="705.577" r="14.4" fill="#009af9" fill-rule="evenodd" fill-opacity="1" stroke="#000000" stroke-opacity="1" stroke-width="3.2"/>
<circle clip-path="url(#clip682)" cx="2262.79" cy="582.148" r="14.4" fill="#009af9" fill-rule="evenodd" fill-opacity="1" stroke="#000000" stroke-opacity="1" stroke-width="3.2"/>
<circle clip-path="url(#clip682)" cx="1997.46" cy="1046.99" r="14.4" fill="#009af9" fill-rule="evenodd" fill-opacity="1" stroke="#000000" stroke-opacity="1" stroke-width="3.2"/>
<circle clip-path="url(#clip682)" cx="2029.4" cy="86.1857" r="14.4" fill="#009af9" fill-rule="evenodd" fill-opacity="1" stroke="#000000" stroke-opacity="1" stroke-width="3.2"/>
<circle clip-path="url(#clip682)" cx="2293.17" cy="139.493" r="14.4" fill="#009af9" fill-rule="evenodd" fill-opacity="1" stroke="#000000" stroke-opacity="1" stroke-width="3.2"/>
<circle clip-path="url(#clip682)" cx="515.425" cy="1209.62" r="14.4" fill="#e26f46" fill-rule="evenodd" fill-opacity="1" stroke="#000000" stroke-opacity="1" stroke-width="3.2"/>
<circle clip-path="url(#clip682)" cx="549.184" cy="843.838" r="14.4" fill="#e26f46" fill-rule="evenodd" fill-opacity="1" stroke="#000000" stroke-opacity="1" stroke-width="3.2"/>
<circle clip-path="url(#clip682)" cx="307.043" cy="934.481" r="14.4" fill="#e26f46" fill-rule="evenodd" fill-opacity="1" stroke="#000000" stroke-opacity="1" stroke-width="3.2"/>
<circle clip-path="url(#clip682)" cx="515.425" cy="1209.62" r="14.4" fill="#e26f46" fill-rule="evenodd" fill-opacity="1" stroke="#000000" stroke-opacity="1" stroke-width="3.2"/>
<circle clip-path="url(#clip682)" cx="374.512" cy="1384.24" r="14.4" fill="#e26f46" fill-rule="evenodd" fill-opacity="1" stroke="#000000" stroke-opacity="1" stroke-width="3.2"/>
<circle clip-path="url(#clip682)" cx="1785.32" cy="705.577" r="14.4" fill="#e26f46" fill-rule="evenodd" fill-opacity="1" stroke="#000000" stroke-opacity="1" stroke-width="3.2"/>
<circle clip-path="url(#clip682)" cx="2262.79" cy="582.148" r="14.4" fill="#e26f46" fill-rule="evenodd" fill-opacity="1" stroke="#000000" stroke-opacity="1" stroke-width="3.2"/>
<circle clip-path="url(#clip682)" cx="1997.46" cy="1046.99" r="14.4" fill="#e26f46" fill-rule="evenodd" fill-opacity="1" stroke="#000000" stroke-opacity="1" stroke-width="3.2"/>
<circle clip-path="url(#clip682)" cx="2029.4" cy="86.1857" r="14.4" fill="#e26f46" fill-rule="evenodd" fill-opacity="1" stroke="#000000" stroke-opacity="1" stroke-width="3.2"/>
<circle clip-path="url(#clip682)" cx="2293.17" cy="139.493" r="14.4" fill="#e26f46" fill-rule="evenodd" fill-opacity="1" stroke="#000000" stroke-opacity="1" stroke-width="3.2"/>
<path clip-path="url(#clip680)" d="M317.635 248.629 L1009.23 248.629 L1009.23 93.1086 L317.635 93.1086  Z" fill="#ffffff" fill-rule="evenodd" fill-opacity="1"/>
<polyline clip-path="url(#clip680)" style="stroke:#000000; stroke-linecap:round; stroke-linejoin:round; stroke-width:4; stroke-opacity:1; fill:none" points="317.635,248.629 1009.23,248.629 1009.23,93.1086 317.635,93.1086 317.635,248.629 "/>
<circle clip-path="url(#clip680)" cx="411.204" cy="144.949" r="20.48" fill="#009af9" fill-rule="evenodd" fill-opacity="1" stroke="#000000" stroke-opacity="1" stroke-width="4.55111"/>
<path clip-path="url(#clip680)" d="M520.791 130.84 Q515.699 130.84 512.689 134.636 Q509.703 138.432 509.703 144.983 Q509.703 151.511 512.689 155.307 Q515.699 159.104 520.791 159.104 Q525.884 159.104 528.847 155.307 Q531.833 151.511 531.833 144.983 Q531.833 138.432 528.847 134.636 Q525.884 130.84 520.791 130.84 M520.791 127.044 Q528.06 127.044 532.412 131.928 Q536.763 136.789 536.763 144.983 Q536.763 153.155 532.412 158.039 Q528.06 162.9 520.791 162.9 Q513.5 162.9 509.125 158.039 Q504.773 153.178 504.773 144.983 Q504.773 136.789 509.125 131.928 Q513.5 127.044 520.791 127.044 Z" fill="#000000" fill-rule="nonzero" fill-opacity="1" /><path clip-path="url(#clip680)" d="M558.916 140.284 Q558.198 139.868 557.342 139.682 Q556.509 139.474 555.49 139.474 Q551.879 139.474 549.935 141.835 Q548.013 144.173 548.013 148.571 L548.013 162.229 L543.731 162.229 L543.731 136.303 L548.013 136.303 L548.013 140.331 Q549.356 137.969 551.509 136.835 Q553.661 135.678 556.74 135.678 Q557.18 135.678 557.712 135.747 Q558.245 135.794 558.893 135.909 L558.916 140.284 Z" fill="#000000" fill-rule="nonzero" fill-opacity="1" /><path clip-path="url(#clip680)" d="M563.384 136.303 L567.643 136.303 L567.643 162.229 L563.384 162.229 L563.384 136.303 M563.384 126.21 L567.643 126.21 L567.643 131.604 L563.384 131.604 L563.384 126.21 Z" fill="#000000" fill-rule="nonzero" fill-opacity="1" /><path clip-path="url(#clip680)" d="M593.615 148.965 Q593.615 144.335 591.694 141.789 Q589.796 139.243 586.346 139.243 Q582.921 139.243 580.999 141.789 Q579.101 144.335 579.101 148.965 Q579.101 153.571 580.999 156.118 Q582.921 158.664 586.346 158.664 Q589.796 158.664 591.694 156.118 Q593.615 153.571 593.615 148.965 M597.874 159.011 Q597.874 165.631 594.934 168.849 Q591.995 172.09 585.93 172.09 Q583.684 172.09 581.694 171.742 Q579.703 171.418 577.828 170.724 L577.828 166.58 Q579.703 167.599 581.532 168.085 Q583.36 168.571 585.258 168.571 Q589.448 168.571 591.532 166.372 Q593.615 164.196 593.615 159.775 L593.615 157.668 Q592.295 159.96 590.235 161.094 Q588.175 162.229 585.305 162.229 Q580.536 162.229 577.62 158.594 Q574.703 154.96 574.703 148.965 Q574.703 142.946 577.62 139.312 Q580.536 135.678 585.305 135.678 Q588.175 135.678 590.235 136.812 Q592.295 137.946 593.615 140.238 L593.615 136.303 L597.874 136.303 L597.874 159.011 Z" fill="#000000" fill-rule="nonzero" fill-opacity="1" /><path clip-path="url(#clip680)" d="M606.647 136.303 L610.907 136.303 L610.907 162.229 L606.647 162.229 L606.647 136.303 M606.647 126.21 L610.907 126.21 L610.907 131.604 L606.647 131.604 L606.647 126.21 Z" fill="#000000" fill-rule="nonzero" fill-opacity="1" /><path clip-path="url(#clip680)" d="M641.369 146.581 L641.369 162.229 L637.11 162.229 L637.11 146.719 Q637.11 143.039 635.675 141.21 Q634.24 139.382 631.369 139.382 Q627.92 139.382 625.93 141.581 Q623.939 143.78 623.939 147.576 L623.939 162.229 L619.656 162.229 L619.656 136.303 L623.939 136.303 L623.939 140.331 Q625.467 137.993 627.527 136.835 Q629.61 135.678 632.318 135.678 Q636.786 135.678 639.078 138.456 Q641.369 141.21 641.369 146.581 Z" fill="#000000" fill-rule="nonzero" fill-opacity="1" /><path clip-path="url(#clip680)" d="M661.647 149.196 Q656.485 149.196 654.494 150.377 Q652.504 151.557 652.504 154.405 Q652.504 156.673 653.985 158.016 Q655.49 159.335 658.059 159.335 Q661.601 159.335 663.73 156.835 Q665.883 154.312 665.883 150.145 L665.883 149.196 L661.647 149.196 M670.142 147.437 L670.142 162.229 L665.883 162.229 L665.883 158.293 Q664.425 160.655 662.249 161.789 Q660.073 162.9 656.925 162.9 Q652.943 162.9 650.582 160.678 Q648.244 158.432 648.244 154.682 Q648.244 150.307 651.161 148.085 Q654.101 145.863 659.911 145.863 L665.883 145.863 L665.883 145.446 Q665.883 142.507 663.939 140.909 Q662.017 139.289 658.522 139.289 Q656.3 139.289 654.193 139.821 Q652.087 140.354 650.142 141.419 L650.142 137.483 Q652.48 136.581 654.679 136.141 Q656.878 135.678 658.962 135.678 Q664.587 135.678 667.365 138.594 Q670.142 141.511 670.142 147.437 Z" fill="#000000" fill-rule="nonzero" fill-opacity="1" /><path clip-path="url(#clip680)" d="M678.915 126.21 L683.175 126.21 L683.175 162.229 L678.915 162.229 L678.915 126.21 Z" fill="#000000" fill-rule="nonzero" fill-opacity="1" /><path clip-path="url(#clip680)" d="M724.216 140.238 L724.216 126.21 L728.475 126.21 L728.475 162.229 L724.216 162.229 L724.216 158.34 Q722.873 160.655 720.813 161.789 Q718.776 162.9 715.906 162.9 Q711.207 162.9 708.244 159.15 Q705.304 155.4 705.304 149.289 Q705.304 143.178 708.244 139.428 Q711.207 135.678 715.906 135.678 Q718.776 135.678 720.813 136.812 Q722.873 137.923 724.216 140.238 M709.702 149.289 Q709.702 153.988 711.624 156.673 Q713.568 159.335 716.948 159.335 Q720.327 159.335 722.272 156.673 Q724.216 153.988 724.216 149.289 Q724.216 144.59 722.272 141.928 Q720.327 139.243 716.948 139.243 Q713.568 139.243 711.624 141.928 Q709.702 144.59 709.702 149.289 Z" fill="#000000" fill-rule="nonzero" fill-opacity="1" /><path clip-path="url(#clip680)" d="M749.031 149.196 Q743.869 149.196 741.878 150.377 Q739.887 151.557 739.887 154.405 Q739.887 156.673 741.369 158.016 Q742.873 159.335 745.443 159.335 Q748.984 159.335 751.114 156.835 Q753.267 154.312 753.267 150.145 L753.267 149.196 L749.031 149.196 M757.526 147.437 L757.526 162.229 L753.267 162.229 L753.267 158.293 Q751.809 160.655 749.633 161.789 Q747.457 162.9 744.309 162.9 Q740.327 162.9 737.966 160.678 Q735.628 158.432 735.628 154.682 Q735.628 150.307 738.545 148.085 Q741.485 145.863 747.295 145.863 L753.267 145.863 L753.267 145.446 Q753.267 142.507 751.322 140.909 Q749.401 139.289 745.906 139.289 Q743.684 139.289 741.577 139.821 Q739.471 140.354 737.526 141.419 L737.526 137.483 Q739.864 136.581 742.063 136.141 Q744.262 135.678 746.346 135.678 Q751.971 135.678 754.748 138.594 Q757.526 141.511 757.526 147.437 Z" fill="#000000" fill-rule="nonzero" fill-opacity="1" /><path clip-path="url(#clip680)" d="M770.512 128.942 L770.512 136.303 L779.285 136.303 L779.285 139.613 L770.512 139.613 L770.512 153.687 Q770.512 156.858 771.369 157.761 Q772.248 158.664 774.91 158.664 L779.285 158.664 L779.285 162.229 L774.91 162.229 Q769.98 162.229 768.105 160.4 Q766.23 158.548 766.23 153.687 L766.23 139.613 L763.105 139.613 L763.105 136.303 L766.23 136.303 L766.23 128.942 L770.512 128.942 Z" fill="#000000" fill-rule="nonzero" fill-opacity="1" /><path clip-path="url(#clip680)" d="M796.669 149.196 Q791.507 149.196 789.517 150.377 Q787.526 151.557 787.526 154.405 Q787.526 156.673 789.007 158.016 Q790.512 159.335 793.081 159.335 Q796.623 159.335 798.753 156.835 Q800.905 154.312 800.905 150.145 L800.905 149.196 L796.669 149.196 M805.165 147.437 L805.165 162.229 L800.905 162.229 L800.905 158.293 Q799.447 160.655 797.271 161.789 Q795.095 162.9 791.947 162.9 Q787.966 162.9 785.605 160.678 Q783.267 158.432 783.267 154.682 Q783.267 150.307 786.183 148.085 Q789.123 145.863 794.933 145.863 L800.905 145.863 L800.905 145.446 Q800.905 142.507 798.961 140.909 Q797.04 139.289 793.544 139.289 Q791.322 139.289 789.216 139.821 Q787.109 140.354 785.165 141.419 L785.165 137.483 Q787.503 136.581 789.702 136.141 Q791.901 135.678 793.984 135.678 Q799.609 135.678 802.387 138.594 Q805.165 141.511 805.165 147.437 Z" fill="#000000" fill-rule="nonzero" fill-opacity="1" /><circle clip-path="url(#clip680)" cx="411.204" cy="196.789" r="20.48" fill="#e26f46" fill-rule="evenodd" fill-opacity="1" stroke="#000000" stroke-opacity="1" stroke-width="4.55111"/>
<path clip-path="url(#clip680)" d="M509.449 183.351 L509.449 210.226 L515.097 210.226 Q522.25 210.226 525.56 206.985 Q528.893 203.745 528.893 196.754 Q528.893 189.809 525.56 186.592 Q522.25 183.351 515.097 183.351 L509.449 183.351 M504.773 179.509 L514.379 179.509 Q524.425 179.509 529.125 183.698 Q533.824 187.865 533.824 196.754 Q533.824 205.689 529.101 209.879 Q524.379 214.069 514.379 214.069 L504.773 214.069 L504.773 179.509 Z" fill="#000000" fill-rule="nonzero" fill-opacity="1" /><path clip-path="url(#clip680)" d="M552.874 201.036 Q547.712 201.036 545.722 202.217 Q543.731 203.397 543.731 206.245 Q543.731 208.513 545.212 209.856 Q546.717 211.175 549.286 211.175 Q552.828 211.175 554.958 208.675 Q557.11 206.152 557.11 201.985 L557.11 201.036 L552.874 201.036 M561.37 199.277 L561.37 214.069 L557.11 214.069 L557.11 210.133 Q555.652 212.495 553.476 213.629 Q551.3 214.74 548.152 214.74 Q544.171 214.74 541.81 212.518 Q539.472 210.272 539.472 206.522 Q539.472 202.147 542.388 199.925 Q545.328 197.703 551.138 197.703 L557.11 197.703 L557.11 197.286 Q557.11 194.347 555.166 192.749 Q553.245 191.129 549.749 191.129 Q547.527 191.129 545.421 191.661 Q543.314 192.194 541.37 193.259 L541.37 189.323 Q543.708 188.421 545.907 187.981 Q548.106 187.518 550.189 187.518 Q555.814 187.518 558.592 190.434 Q561.37 193.351 561.37 199.277 Z" fill="#000000" fill-rule="nonzero" fill-opacity="1" /><path clip-path="url(#clip680)" d="M574.356 180.782 L574.356 188.143 L583.129 188.143 L583.129 191.453 L574.356 191.453 L574.356 205.527 Q574.356 208.698 575.212 209.601 Q576.092 210.504 578.754 210.504 L583.129 210.504 L583.129 214.069 L578.754 214.069 Q573.823 214.069 571.948 212.24 Q570.073 210.388 570.073 205.527 L570.073 191.453 L566.948 191.453 L566.948 188.143 L570.073 188.143 L570.073 180.782 L574.356 180.782 Z" fill="#000000" fill-rule="nonzero" fill-opacity="1" /><path clip-path="url(#clip680)" d="M600.513 201.036 Q595.351 201.036 593.36 202.217 Q591.37 203.397 591.37 206.245 Q591.37 208.513 592.851 209.856 Q594.356 211.175 596.925 211.175 Q600.467 211.175 602.596 208.675 Q604.749 206.152 604.749 201.985 L604.749 201.036 L600.513 201.036 M609.008 199.277 L609.008 214.069 L604.749 214.069 L604.749 210.133 Q603.291 212.495 601.115 213.629 Q598.939 214.74 595.791 214.74 Q591.809 214.74 589.448 212.518 Q587.11 210.272 587.11 206.522 Q587.11 202.147 590.027 199.925 Q592.967 197.703 598.777 197.703 L604.749 197.703 L604.749 197.286 Q604.749 194.347 602.805 192.749 Q600.883 191.129 597.388 191.129 Q595.166 191.129 593.059 191.661 Q590.953 192.194 589.008 193.259 L589.008 189.323 Q591.346 188.421 593.545 187.981 Q595.745 187.518 597.828 187.518 Q603.453 187.518 606.231 190.434 Q609.008 193.351 609.008 199.277 Z" fill="#000000" fill-rule="nonzero" fill-opacity="1" /><path clip-path="url(#clip680)" d="M644.633 201.036 Q639.471 201.036 637.48 202.217 Q635.49 203.397 635.49 206.245 Q635.49 208.513 636.971 209.856 Q638.476 211.175 641.045 211.175 Q644.587 211.175 646.716 208.675 Q648.869 206.152 648.869 201.985 L648.869 201.036 L644.633 201.036 M653.128 199.277 L653.128 214.069 L648.869 214.069 L648.869 210.133 Q647.411 212.495 645.235 213.629 Q643.059 214.74 639.911 214.74 Q635.93 214.74 633.568 212.518 Q631.23 210.272 631.23 206.522 Q631.23 202.147 634.147 199.925 Q637.087 197.703 642.897 197.703 L648.869 197.703 L648.869 197.286 Q648.869 194.347 646.925 192.749 Q645.004 191.129 641.508 191.129 Q639.286 191.129 637.18 191.661 Q635.073 192.194 633.129 193.259 L633.129 189.323 Q635.467 188.421 637.666 187.981 Q639.865 187.518 641.948 187.518 Q647.573 187.518 650.351 190.434 Q653.128 193.351 653.128 199.277 Z" fill="#000000" fill-rule="nonzero" fill-opacity="1" /><path clip-path="url(#clip680)" d="M675.027 178.05 L675.027 181.592 L670.952 181.592 Q668.661 181.592 667.758 182.518 Q666.878 183.444 666.878 185.851 L666.878 188.143 L673.892 188.143 L673.892 191.453 L666.878 191.453 L666.878 214.069 L662.596 214.069 L662.596 191.453 L658.522 191.453 L658.522 188.143 L662.596 188.143 L662.596 186.337 Q662.596 182.009 664.61 180.041 Q666.624 178.05 670.999 178.05 L675.027 178.05 Z" fill="#000000" fill-rule="nonzero" fill-opacity="1" /><path clip-path="url(#clip680)" d="M681.971 180.782 L681.971 188.143 L690.744 188.143 L690.744 191.453 L681.971 191.453 L681.971 205.527 Q681.971 208.698 682.827 209.601 Q683.707 210.504 686.369 210.504 L690.744 210.504 L690.744 214.069 L686.369 214.069 Q681.439 214.069 679.564 212.24 Q677.689 210.388 677.689 205.527 L677.689 191.453 L674.564 191.453 L674.564 188.143 L677.689 188.143 L677.689 180.782 L681.971 180.782 Z" fill="#000000" fill-rule="nonzero" fill-opacity="1" /><path clip-path="url(#clip680)" d="M718.522 200.041 L718.522 202.124 L698.938 202.124 Q699.216 206.522 701.577 208.837 Q703.962 211.129 708.198 211.129 Q710.651 211.129 712.943 210.527 Q715.258 209.925 717.526 208.721 L717.526 212.749 Q715.235 213.721 712.827 214.231 Q710.42 214.74 707.943 214.74 Q701.739 214.74 698.105 211.129 Q694.494 207.518 694.494 201.36 Q694.494 194.995 697.92 191.268 Q701.369 187.518 707.202 187.518 Q712.434 187.518 715.466 190.897 Q718.522 194.254 718.522 200.041 M714.262 198.791 Q714.216 195.296 712.295 193.212 Q710.397 191.129 707.249 191.129 Q703.684 191.129 701.531 193.143 Q699.401 195.157 699.077 198.814 L714.262 198.791 Z" fill="#000000" fill-rule="nonzero" fill-opacity="1" /><path clip-path="url(#clip680)" d="M740.535 192.124 Q739.818 191.708 738.961 191.522 Q738.128 191.314 737.11 191.314 Q733.498 191.314 731.554 193.675 Q729.633 196.013 729.633 200.411 L729.633 214.069 L725.35 214.069 L725.35 188.143 L729.633 188.143 L729.633 192.171 Q730.975 189.809 733.128 188.675 Q735.281 187.518 738.36 187.518 Q738.799 187.518 739.332 187.587 Q739.864 187.634 740.512 187.749 L740.535 192.124 Z" fill="#000000" fill-rule="nonzero" fill-opacity="1" /><path clip-path="url(#clip680)" d="M778.73 189.138 L778.73 193.12 Q776.924 192.124 775.095 191.638 Q773.29 191.129 771.438 191.129 Q767.295 191.129 765.003 193.768 Q762.711 196.384 762.711 201.129 Q762.711 205.874 765.003 208.513 Q767.295 211.129 771.438 211.129 Q773.29 211.129 775.095 210.643 Q776.924 210.133 778.73 209.138 L778.73 213.073 Q776.947 213.907 775.026 214.323 Q773.128 214.74 770.975 214.74 Q765.119 214.74 761.67 211.059 Q758.221 207.379 758.221 201.129 Q758.221 194.786 761.693 191.152 Q765.188 187.518 771.253 187.518 Q773.22 187.518 775.095 187.935 Q776.97 188.328 778.73 189.138 Z" fill="#000000" fill-rule="nonzero" fill-opacity="1" /><path clip-path="url(#clip680)" d="M786.137 178.05 L790.396 178.05 L790.396 214.069 L786.137 214.069 L786.137 178.05 Z" fill="#000000" fill-rule="nonzero" fill-opacity="1" /><path clip-path="url(#clip680)" d="M798.868 203.837 L798.868 188.143 L803.128 188.143 L803.128 203.675 Q803.128 207.356 804.563 209.208 Q805.998 211.036 808.868 211.036 Q812.317 211.036 814.308 208.837 Q816.322 206.638 816.322 202.842 L816.322 188.143 L820.581 188.143 L820.581 214.069 L816.322 214.069 L816.322 210.087 Q814.771 212.448 812.711 213.606 Q810.674 214.74 807.966 214.74 Q803.498 214.74 801.183 211.962 Q798.868 209.184 798.868 203.837 M809.586 187.518 L809.586 187.518 Z" fill="#000000" fill-rule="nonzero" fill-opacity="1" /><path clip-path="url(#clip680)" d="M845.882 188.907 L845.882 192.934 Q844.077 192.009 842.132 191.546 Q840.188 191.083 838.104 191.083 Q834.933 191.083 833.336 192.055 Q831.762 193.027 831.762 194.971 Q831.762 196.453 832.896 197.309 Q834.03 198.143 837.456 198.907 L838.915 199.231 Q843.452 200.203 845.35 201.985 Q847.271 203.745 847.271 206.916 Q847.271 210.527 844.401 212.633 Q841.553 214.74 836.553 214.74 Q834.47 214.74 832.202 214.323 Q829.956 213.93 827.456 213.12 L827.456 208.721 Q829.817 209.948 832.109 210.573 Q834.401 211.175 836.646 211.175 Q839.655 211.175 841.276 210.157 Q842.896 209.115 842.896 207.24 Q842.896 205.504 841.715 204.578 Q840.558 203.652 836.6 202.796 L835.118 202.448 Q831.16 201.615 829.401 199.902 Q827.641 198.166 827.641 195.157 Q827.641 191.499 830.234 189.509 Q832.827 187.518 837.595 187.518 Q839.956 187.518 842.04 187.865 Q844.123 188.212 845.882 188.907 Z" fill="#000000" fill-rule="nonzero" fill-opacity="1" /><path clip-path="url(#clip680)" d="M858.266 180.782 L858.266 188.143 L867.039 188.143 L867.039 191.453 L858.266 191.453 L858.266 205.527 Q858.266 208.698 859.123 209.601 Q860.002 210.504 862.664 210.504 L867.039 210.504 L867.039 214.069 L862.664 214.069 Q857.734 214.069 855.859 212.24 Q853.984 210.388 853.984 205.527 L853.984 191.453 L850.859 191.453 L850.859 188.143 L853.984 188.143 L853.984 180.782 L858.266 180.782 Z" fill="#000000" fill-rule="nonzero" fill-opacity="1" /><path clip-path="url(#clip680)" d="M894.817 200.041 L894.817 202.124 L875.234 202.124 Q875.512 206.522 877.873 208.837 Q880.257 211.129 884.493 211.129 Q886.947 211.129 889.238 210.527 Q891.553 209.925 893.822 208.721 L893.822 212.749 Q891.53 213.721 889.123 214.231 Q886.715 214.74 884.238 214.74 Q878.035 214.74 874.4 211.129 Q870.789 207.518 870.789 201.36 Q870.789 194.995 874.215 191.268 Q877.664 187.518 883.498 187.518 Q888.729 187.518 891.761 190.897 Q894.817 194.254 894.817 200.041 M890.558 198.791 Q890.511 195.296 888.59 193.212 Q886.692 191.129 883.544 191.129 Q879.979 191.129 877.826 193.143 Q875.697 195.157 875.373 198.814 L890.558 198.791 Z" fill="#000000" fill-rule="nonzero" fill-opacity="1" /><path clip-path="url(#clip680)" d="M916.831 192.124 Q916.113 191.708 915.257 191.522 Q914.423 191.314 913.405 191.314 Q909.794 191.314 907.849 193.675 Q905.928 196.013 905.928 200.411 L905.928 214.069 L901.646 214.069 L901.646 188.143 L905.928 188.143 L905.928 192.171 Q907.271 189.809 909.423 188.675 Q911.576 187.518 914.655 187.518 Q915.095 187.518 915.627 187.587 Q916.159 187.634 916.808 187.749 L916.831 192.124 Z" fill="#000000" fill-rule="nonzero" fill-opacity="1" /><path clip-path="url(#clip680)" d="M921.298 188.143 L925.558 188.143 L925.558 214.069 L921.298 214.069 L921.298 188.143 M921.298 178.05 L925.558 178.05 L925.558 183.444 L921.298 183.444 L921.298 178.05 Z" fill="#000000" fill-rule="nonzero" fill-opacity="1" /><path clip-path="url(#clip680)" d="M956.02 198.421 L956.02 214.069 L951.761 214.069 L951.761 198.559 Q951.761 194.879 950.326 193.05 Q948.891 191.222 946.02 191.222 Q942.571 191.222 940.581 193.421 Q938.59 195.62 938.59 199.416 L938.59 214.069 L934.308 214.069 L934.308 188.143 L938.59 188.143 L938.59 192.171 Q940.118 189.833 942.178 188.675 Q944.261 187.518 946.97 187.518 Q951.437 187.518 953.729 190.296 Q956.02 193.05 956.02 198.421 Z" fill="#000000" fill-rule="nonzero" fill-opacity="1" /><path clip-path="url(#clip680)" d="M981.576 200.805 Q981.576 196.175 979.655 193.629 Q977.756 191.083 974.307 191.083 Q970.881 191.083 968.96 193.629 Q967.062 196.175 967.062 200.805 Q967.062 205.411 968.96 207.958 Q970.881 210.504 974.307 210.504 Q977.756 210.504 979.655 207.958 Q981.576 205.411 981.576 200.805 M985.835 210.851 Q985.835 217.471 982.895 220.689 Q979.955 223.93 973.891 223.93 Q971.645 223.93 969.655 223.582 Q967.664 223.258 965.789 222.564 L965.789 218.42 Q967.664 219.439 969.493 219.925 Q971.321 220.411 973.219 220.411 Q977.409 220.411 979.492 218.212 Q981.576 216.036 981.576 211.615 L981.576 209.508 Q980.256 211.8 978.196 212.934 Q976.136 214.069 973.266 214.069 Q968.497 214.069 965.581 210.434 Q962.664 206.8 962.664 200.805 Q962.664 194.786 965.581 191.152 Q968.497 187.518 973.266 187.518 Q976.136 187.518 978.196 188.652 Q980.256 189.786 981.576 192.078 L981.576 188.143 L985.835 188.143 L985.835 210.851 Z" fill="#000000" fill-rule="nonzero" fill-opacity="1" /></svg>
