<?xml version="1.0" encoding="utf-8"?>
<svg xmlns="http://www.w3.org/2000/svg" xmlns:xlink="http://www.w3.org/1999/xlink" width="600" height="400" viewBox="0 0 2400 1600">
<defs>
  <clipPath id="clip340">
    <rect x="0" y="0" width="2400" height="1600"/>
  </clipPath>
</defs>
<path clip-path="url(#clip340)" d="M0 1600 L2400 1600 L2400 0 L0 0  Z" fill="#ffffff" fill-rule="evenodd" fill-opacity="1"/>
<defs>
  <clipPath id="clip341">
    <rect x="480" y="0" width="1681" height="1600"/>
  </clipPath>
</defs>
<path clip-path="url(#clip340)" d="M175.445 1423.18 L2352.76 1423.18 L2352.76 47.2441 L175.445 47.2441  Z" fill="#ffffff" fill-rule="evenodd" fill-opacity="1"/>
<defs>
  <clipPath id="clip342">
    <rect x="175" y="47" width="2178" height="1377"/>
  </clipPath>
</defs>
<polyline clip-path="url(#clip342)" style="stroke:#000000; stroke-linecap:round; stroke-linejoin:round; stroke-width:2; stroke-opacity:0.1; fill:none" points="302.815,1423.18 302.815,47.2441 "/>
<polyline clip-path="url(#clip342)" style="stroke:#000000; stroke-linecap:round; stroke-linejoin:round; stroke-width:2; stroke-opacity:0.1; fill:none" points="655.848,1423.18 655.848,47.2441 "/>
<polyline clip-path="url(#clip342)" style="stroke:#000000; stroke-linecap:round; stroke-linejoin:round; stroke-width:2; stroke-opacity:0.1; fill:none" points="1008.88,1423.18 1008.88,47.2441 "/>
<polyline clip-path="url(#clip342)" style="stroke:#000000; stroke-linecap:round; stroke-linejoin:round; stroke-width:2; stroke-opacity:0.1; fill:none" points="1361.91,1423.18 1361.91,47.2441 "/>
<polyline clip-path="url(#clip342)" style="stroke:#000000; stroke-linecap:round; stroke-linejoin:round; stroke-width:2; stroke-opacity:0.1; fill:none" points="1714.95,1423.18 1714.95,47.2441 "/>
<polyline clip-path="url(#clip342)" style="stroke:#000000; stroke-linecap:round; stroke-linejoin:round; stroke-width:2; stroke-opacity:0.1; fill:none" points="2067.98,1423.18 2067.98,47.2441 "/>
<polyline clip-path="url(#clip342)" style="stroke:#000000; stroke-linecap:round; stroke-linejoin:round; stroke-width:2; stroke-opacity:0.1; fill:none" points="175.445,1174.77 2352.76,1174.77 "/>
<polyline clip-path="url(#clip342)" style="stroke:#000000; stroke-linecap:round; stroke-linejoin:round; stroke-width:2; stroke-opacity:0.1; fill:none" points="175.445,898.633 2352.76,898.633 "/>
<polyline clip-path="url(#clip342)" style="stroke:#000000; stroke-linecap:round; stroke-linejoin:round; stroke-width:2; stroke-opacity:0.1; fill:none" points="175.445,622.499 2352.76,622.499 "/>
<polyline clip-path="url(#clip342)" style="stroke:#000000; stroke-linecap:round; stroke-linejoin:round; stroke-width:2; stroke-opacity:0.1; fill:none" points="175.445,346.366 2352.76,346.366 "/>
<polyline clip-path="url(#clip342)" style="stroke:#000000; stroke-linecap:round; stroke-linejoin:round; stroke-width:2; stroke-opacity:0.1; fill:none" points="175.445,70.2329 2352.76,70.2329 "/>
<polyline clip-path="url(#clip340)" style="stroke:#000000; stroke-linecap:round; stroke-linejoin:round; stroke-width:4; stroke-opacity:1; fill:none" points="175.445,1423.18 2352.76,1423.18 "/>
<polyline clip-path="url(#clip340)" style="stroke:#000000; stroke-linecap:round; stroke-linejoin:round; stroke-width:4; stroke-opacity:1; fill:none" points="302.815,1423.18 302.815,1404.28 "/>
<polyline clip-path="url(#clip340)" style="stroke:#000000; stroke-linecap:round; stroke-linejoin:round; stroke-width:4; stroke-opacity:1; fill:none" points="655.848,1423.18 655.848,1404.28 "/>
<polyline clip-path="url(#clip340)" style="stroke:#000000; stroke-linecap:round; stroke-linejoin:round; stroke-width:4; stroke-opacity:1; fill:none" points="1008.88,1423.18 1008.88,1404.28 "/>
<polyline clip-path="url(#clip340)" style="stroke:#000000; stroke-linecap:round; stroke-linejoin:round; stroke-width:4; stroke-opacity:1; fill:none" points="1361.91,1423.18 1361.91,1404.28 "/>
<polyline clip-path="url(#clip340)" style="stroke:#000000; stroke-linecap:round; stroke-linejoin:round; stroke-width:4; stroke-opacity:1; fill:none" points="1714.95,1423.18 1714.95,1404.28 "/>
<polyline clip-path="url(#clip340)" style="stroke:#000000; stroke-linecap:round; stroke-linejoin:round; stroke-width:4; stroke-opacity:1; fill:none" points="2067.98,1423.18 2067.98,1404.28 "/>
<path clip-path="url(#clip340)" d="M270.465 1481.64 L278.104 1481.64 L278.104 1455.28 L269.794 1456.95 L269.794 1452.69 L278.058 1451.02 L282.734 1451.02 L282.734 1481.64 L290.373 1481.64 L290.373 1485.58 L270.465 1485.58 L270.465 1481.64 Z" fill="#000000" fill-rule="nonzero" fill-opacity="1" /><path clip-path="url(#clip340)" d="M299.817 1479.7 L304.701 1479.7 L304.701 1485.58 L299.817 1485.58 L299.817 1479.7 Z" fill="#000000" fill-rule="nonzero" fill-opacity="1" /><path clip-path="url(#clip340)" d="M314.933 1451.02 L333.289 1451.02 L333.289 1454.96 L319.215 1454.96 L319.215 1463.43 Q320.234 1463.08 321.252 1462.92 Q322.271 1462.73 323.289 1462.73 Q329.076 1462.73 332.456 1465.9 Q335.835 1469.08 335.835 1474.49 Q335.835 1480.07 332.363 1483.17 Q328.891 1486.25 322.572 1486.25 Q320.396 1486.25 318.127 1485.88 Q315.882 1485.51 313.474 1484.77 L313.474 1480.07 Q315.558 1481.2 317.78 1481.76 Q320.002 1482.32 322.479 1482.32 Q326.484 1482.32 328.822 1480.21 Q331.159 1478.1 331.159 1474.49 Q331.159 1470.88 328.822 1468.77 Q326.484 1466.67 322.479 1466.67 Q320.604 1466.67 318.729 1467.08 Q316.877 1467.5 314.933 1468.38 L314.933 1451.02 Z" fill="#000000" fill-rule="nonzero" fill-opacity="1" /><path clip-path="url(#clip340)" d="M627.086 1481.64 L643.406 1481.64 L643.406 1485.58 L621.461 1485.58 L621.461 1481.64 Q624.123 1478.89 628.707 1474.26 Q633.313 1469.61 634.494 1468.27 Q636.739 1465.74 637.619 1464.01 Q638.522 1462.25 638.522 1460.56 Q638.522 1457.8 636.577 1456.07 Q634.656 1454.33 631.554 1454.33 Q629.355 1454.33 626.901 1455.09 Q624.471 1455.86 621.693 1457.41 L621.693 1452.69 Q624.517 1451.55 626.971 1450.97 Q629.424 1450.39 631.461 1450.39 Q636.832 1450.39 640.026 1453.08 Q643.221 1455.77 643.221 1460.26 Q643.221 1462.39 642.41 1464.31 Q641.623 1466.2 639.517 1468.8 Q638.938 1469.47 635.836 1472.69 Q632.735 1475.88 627.086 1481.64 Z" fill="#000000" fill-rule="nonzero" fill-opacity="1" /><path clip-path="url(#clip340)" d="M653.221 1479.7 L658.105 1479.7 L658.105 1485.58 L653.221 1485.58 L653.221 1479.7 Z" fill="#000000" fill-rule="nonzero" fill-opacity="1" /><path clip-path="url(#clip340)" d="M678.29 1454.1 Q674.679 1454.1 672.85 1457.66 Q671.044 1461.2 671.044 1468.33 Q671.044 1475.44 672.85 1479.01 Q674.679 1482.55 678.29 1482.55 Q681.924 1482.55 683.73 1479.01 Q685.558 1475.44 685.558 1468.33 Q685.558 1461.2 683.73 1457.66 Q681.924 1454.1 678.29 1454.1 M678.29 1450.39 Q684.1 1450.39 687.156 1455 Q690.234 1459.58 690.234 1468.33 Q690.234 1477.06 687.156 1481.67 Q684.1 1486.25 678.29 1486.25 Q672.48 1486.25 669.401 1481.67 Q666.345 1477.06 666.345 1468.33 Q666.345 1459.58 669.401 1455 Q672.48 1450.39 678.29 1450.39 Z" fill="#000000" fill-rule="nonzero" fill-opacity="1" /><path clip-path="url(#clip340)" d="M980.617 1481.64 L996.937 1481.64 L996.937 1485.58 L974.992 1485.58 L974.992 1481.64 Q977.654 1478.89 982.238 1474.26 Q986.844 1469.61 988.025 1468.27 Q990.27 1465.74 991.149 1464.01 Q992.052 1462.25 992.052 1460.56 Q992.052 1457.8 990.108 1456.07 Q988.187 1454.33 985.085 1454.33 Q982.886 1454.33 980.432 1455.09 Q978.001 1455.86 975.224 1457.41 L975.224 1452.69 Q978.048 1451.55 980.501 1450.97 Q982.955 1450.39 984.992 1450.39 Q990.362 1450.39 993.557 1453.08 Q996.751 1455.77 996.751 1460.26 Q996.751 1462.39 995.941 1464.31 Q995.154 1466.2 993.048 1468.8 Q992.469 1469.47 989.367 1472.69 Q986.265 1475.88 980.617 1481.64 Z" fill="#000000" fill-rule="nonzero" fill-opacity="1" /><path clip-path="url(#clip340)" d="M1006.75 1479.7 L1011.64 1479.7 L1011.64 1485.58 L1006.75 1485.58 L1006.75 1479.7 Z" fill="#000000" fill-rule="nonzero" fill-opacity="1" /><path clip-path="url(#clip340)" d="M1021.87 1451.02 L1040.22 1451.02 L1040.22 1454.96 L1026.15 1454.96 L1026.15 1463.43 Q1027.17 1463.08 1028.19 1462.92 Q1029.2 1462.73 1030.22 1462.73 Q1036.01 1462.73 1039.39 1465.9 Q1042.77 1469.08 1042.77 1474.49 Q1042.77 1480.07 1039.3 1483.17 Q1035.83 1486.25 1029.51 1486.25 Q1027.33 1486.25 1025.06 1485.88 Q1022.82 1485.51 1020.41 1484.77 L1020.41 1480.07 Q1022.49 1481.2 1024.71 1481.76 Q1026.94 1482.32 1029.41 1482.32 Q1033.42 1482.32 1035.76 1480.21 Q1038.09 1478.1 1038.09 1474.49 Q1038.09 1470.88 1035.76 1468.77 Q1033.42 1466.67 1029.41 1466.67 Q1027.54 1466.67 1025.66 1467.08 Q1023.81 1467.5 1021.87 1468.38 L1021.87 1451.02 Z" fill="#000000" fill-rule="nonzero" fill-opacity="1" /><path clip-path="url(#clip340)" d="M1343.22 1466.95 Q1346.58 1467.66 1348.45 1469.93 Q1350.35 1472.2 1350.35 1475.53 Q1350.35 1480.65 1346.83 1483.45 Q1343.31 1486.25 1336.83 1486.25 Q1334.66 1486.25 1332.34 1485.81 Q1330.05 1485.39 1327.6 1484.54 L1327.6 1480.02 Q1329.54 1481.16 1331.86 1481.74 Q1334.17 1482.32 1336.69 1482.32 Q1341.09 1482.32 1343.38 1480.58 Q1345.7 1478.84 1345.7 1475.53 Q1345.7 1472.48 1343.55 1470.77 Q1341.42 1469.03 1337.6 1469.03 L1333.57 1469.03 L1333.57 1465.19 L1337.78 1465.19 Q1341.23 1465.19 1343.06 1463.82 Q1344.89 1462.43 1344.89 1459.84 Q1344.89 1457.18 1342.99 1455.77 Q1341.12 1454.33 1337.6 1454.33 Q1335.68 1454.33 1333.48 1454.75 Q1331.28 1455.16 1328.64 1456.04 L1328.64 1451.88 Q1331.3 1451.14 1333.62 1450.77 Q1335.95 1450.39 1338.01 1450.39 Q1343.34 1450.39 1346.44 1452.83 Q1349.54 1455.23 1349.54 1459.35 Q1349.54 1462.22 1347.9 1464.21 Q1346.25 1466.18 1343.22 1466.95 Z" fill="#000000" fill-rule="nonzero" fill-opacity="1" /><path clip-path="url(#clip340)" d="M1359.22 1479.7 L1364.1 1479.7 L1364.1 1485.58 L1359.22 1485.58 L1359.22 1479.7 Z" fill="#000000" fill-rule="nonzero" fill-opacity="1" /><path clip-path="url(#clip340)" d="M1384.29 1454.1 Q1380.68 1454.1 1378.85 1457.66 Q1377.04 1461.2 1377.04 1468.33 Q1377.04 1475.44 1378.85 1479.01 Q1380.68 1482.55 1384.29 1482.55 Q1387.92 1482.55 1389.73 1479.01 Q1391.55 1475.44 1391.55 1468.33 Q1391.55 1461.2 1389.73 1457.66 Q1387.92 1454.1 1384.29 1454.1 M1384.29 1450.39 Q1390.1 1450.39 1393.15 1455 Q1396.23 1459.58 1396.23 1468.33 Q1396.23 1477.06 1393.15 1481.67 Q1390.1 1486.25 1384.29 1486.25 Q1378.48 1486.25 1375.4 1481.67 Q1372.34 1477.06 1372.34 1468.33 Q1372.34 1459.58 1375.4 1455 Q1378.48 1450.39 1384.29 1450.39 Z" fill="#000000" fill-rule="nonzero" fill-opacity="1" /><path clip-path="url(#clip340)" d="M1696.75 1466.95 Q1700.11 1467.66 1701.98 1469.93 Q1703.88 1472.2 1703.88 1475.53 Q1703.88 1480.65 1700.36 1483.45 Q1696.85 1486.25 1690.36 1486.25 Q1688.19 1486.25 1685.87 1485.81 Q1683.58 1485.39 1681.13 1484.54 L1681.13 1480.02 Q1683.07 1481.16 1685.39 1481.74 Q1687.7 1482.32 1690.22 1482.32 Q1694.62 1482.32 1696.91 1480.58 Q1699.23 1478.84 1699.23 1475.53 Q1699.23 1472.48 1697.08 1470.77 Q1694.95 1469.03 1691.13 1469.03 L1687.1 1469.03 L1687.1 1465.19 L1691.31 1465.19 Q1694.76 1465.19 1696.59 1463.82 Q1698.42 1462.43 1698.42 1459.84 Q1698.42 1457.18 1696.52 1455.77 Q1694.65 1454.33 1691.13 1454.33 Q1689.21 1454.33 1687.01 1454.75 Q1684.81 1455.16 1682.17 1456.04 L1682.17 1451.88 Q1684.83 1451.14 1687.15 1450.77 Q1689.48 1450.39 1691.54 1450.39 Q1696.87 1450.39 1699.97 1452.83 Q1703.07 1455.23 1703.07 1459.35 Q1703.07 1462.22 1701.43 1464.21 Q1699.79 1466.18 1696.75 1466.95 Z" fill="#000000" fill-rule="nonzero" fill-opacity="1" /><path clip-path="url(#clip340)" d="M1712.75 1479.7 L1717.63 1479.7 L1717.63 1485.58 L1712.75 1485.58 L1712.75 1479.7 Z" fill="#000000" fill-rule="nonzero" fill-opacity="1" /><path clip-path="url(#clip340)" d="M1727.86 1451.02 L1746.22 1451.02 L1746.22 1454.96 L1732.15 1454.96 L1732.15 1463.43 Q1733.16 1463.08 1734.18 1462.92 Q1735.2 1462.73 1736.22 1462.73 Q1742.01 1462.73 1745.39 1465.9 Q1748.77 1469.08 1748.77 1474.49 Q1748.77 1480.07 1745.29 1483.17 Q1741.82 1486.25 1735.5 1486.25 Q1733.33 1486.25 1731.06 1485.88 Q1728.81 1485.51 1726.41 1484.77 L1726.41 1480.07 Q1728.49 1481.2 1730.71 1481.76 Q1732.93 1482.32 1735.41 1482.32 Q1739.41 1482.32 1741.75 1480.21 Q1744.09 1478.1 1744.09 1474.49 Q1744.09 1470.88 1741.75 1468.77 Q1739.41 1466.67 1735.41 1466.67 Q1733.53 1466.67 1731.66 1467.08 Q1729.81 1467.5 1727.86 1468.38 L1727.86 1451.02 Z" fill="#000000" fill-rule="nonzero" fill-opacity="1" /><path clip-path="url(#clip340)" d="M2048.62 1455.09 L2036.81 1473.54 L2048.62 1473.54 L2048.62 1455.09 M2047.39 1451.02 L2053.27 1451.02 L2053.27 1473.54 L2058.2 1473.54 L2058.2 1477.43 L2053.27 1477.43 L2053.27 1485.58 L2048.62 1485.58 L2048.62 1477.43 L2033.02 1477.43 L2033.02 1472.92 L2047.39 1451.02 Z" fill="#000000" fill-rule="nonzero" fill-opacity="1" /><path clip-path="url(#clip340)" d="M2065.93 1479.7 L2070.82 1479.7 L2070.82 1485.58 L2065.93 1485.58 L2065.93 1479.7 Z" fill="#000000" fill-rule="nonzero" fill-opacity="1" /><path clip-path="url(#clip340)" d="M2091 1454.1 Q2087.39 1454.1 2085.56 1457.66 Q2083.76 1461.2 2083.76 1468.33 Q2083.76 1475.44 2085.56 1479.01 Q2087.39 1482.55 2091 1482.55 Q2094.64 1482.55 2096.44 1479.01 Q2098.27 1475.44 2098.27 1468.33 Q2098.27 1461.2 2096.44 1457.66 Q2094.64 1454.1 2091 1454.1 M2091 1450.39 Q2096.81 1450.39 2099.87 1455 Q2102.95 1459.58 2102.95 1468.33 Q2102.95 1477.06 2099.87 1481.67 Q2096.81 1486.25 2091 1486.25 Q2085.19 1486.25 2082.11 1481.67 Q2079.06 1477.06 2079.06 1468.33 Q2079.06 1459.58 2082.11 1455 Q2085.19 1450.39 2091 1450.39 Z" fill="#000000" fill-rule="nonzero" fill-opacity="1" /><path clip-path="url(#clip340)" d="M1245.93 1520.52 L1252.83 1520.52 L1264.64 1538.19 L1276.51 1520.52 L1283.42 1520.52 L1268.14 1543.34 L1284.44 1568.04 L1277.53 1568.04 L1264.16 1547.83 L1250.7 1568.04 L1243.76 1568.04 L1260.73 1542.68 L1245.93 1520.52 Z" fill="#000000" fill-rule="nonzero" fill-opacity="1" /><polyline clip-path="url(#clip340)" style="stroke:#000000; stroke-linecap:round; stroke-linejoin:round; stroke-width:4; stroke-opacity:1; fill:none" points="175.445,1423.18 175.445,47.2441 "/>
<polyline clip-path="url(#clip340)" style="stroke:#000000; stroke-linecap:round; stroke-linejoin:round; stroke-width:4; stroke-opacity:1; fill:none" points="175.445,1174.77 194.343,1174.77 "/>
<polyline clip-path="url(#clip340)" style="stroke:#000000; stroke-linecap:round; stroke-linejoin:round; stroke-width:4; stroke-opacity:1; fill:none" points="175.445,898.633 194.343,898.633 "/>
<polyline clip-path="url(#clip340)" style="stroke:#000000; stroke-linecap:round; stroke-linejoin:round; stroke-width:4; stroke-opacity:1; fill:none" points="175.445,622.499 194.343,622.499 "/>
<polyline clip-path="url(#clip340)" style="stroke:#000000; stroke-linecap:round; stroke-linejoin:round; stroke-width:4; stroke-opacity:1; fill:none" points="175.445,346.366 194.343,346.366 "/>
<polyline clip-path="url(#clip340)" style="stroke:#000000; stroke-linecap:round; stroke-linejoin:round; stroke-width:4; stroke-opacity:1; fill:none" points="175.445,70.2329 194.343,70.2329 "/>
<path clip-path="url(#clip340)" d="M123.126 1188.11 L139.445 1188.11 L139.445 1192.05 L117.501 1192.05 L117.501 1188.11 Q120.163 1185.36 124.746 1180.73 Q129.353 1176.07 130.533 1174.73 Q132.779 1172.21 133.658 1170.47 Q134.561 1168.71 134.561 1167.02 Q134.561 1164.27 132.617 1162.53 Q130.695 1160.8 127.593 1160.8 Q125.394 1160.8 122.941 1161.56 Q120.51 1162.32 117.732 1163.87 L117.732 1159.15 Q120.556 1158.02 123.01 1157.44 Q125.464 1156.86 127.501 1156.86 Q132.871 1156.86 136.066 1159.55 Q139.26 1162.23 139.26 1166.72 Q139.26 1168.85 138.45 1170.77 Q137.663 1172.67 135.556 1175.26 Q134.978 1175.94 131.876 1179.15 Q128.774 1182.35 123.126 1188.11 Z" fill="#000000" fill-rule="nonzero" fill-opacity="1" /><path clip-path="url(#clip340)" d="M132.316 897.279 Q135.672 897.996 137.547 900.265 Q139.445 902.533 139.445 905.867 Q139.445 910.982 135.927 913.783 Q132.408 916.584 125.927 916.584 Q123.751 916.584 121.436 916.144 Q119.144 915.728 116.691 914.871 L116.691 910.357 Q118.635 911.491 120.95 912.07 Q123.265 912.649 125.788 912.649 Q130.186 912.649 132.478 910.913 Q134.792 909.177 134.792 905.867 Q134.792 902.811 132.64 901.098 Q130.51 899.362 126.691 899.362 L122.663 899.362 L122.663 895.519 L126.876 895.519 Q130.325 895.519 132.154 894.154 Q133.982 892.765 133.982 890.172 Q133.982 887.51 132.084 886.098 Q130.209 884.663 126.691 884.663 Q124.769 884.663 122.57 885.08 Q120.371 885.496 117.732 886.376 L117.732 882.209 Q120.394 881.468 122.709 881.098 Q125.047 880.728 127.107 880.728 Q132.431 880.728 135.533 883.158 Q138.635 885.566 138.635 889.686 Q138.635 892.556 136.992 894.547 Q135.348 896.515 132.316 897.279 Z" fill="#000000" fill-rule="nonzero" fill-opacity="1" /><path clip-path="url(#clip340)" d="M129.862 609.294 L118.056 627.742 L129.862 627.742 L129.862 609.294 M128.635 605.219 L134.515 605.219 L134.515 627.742 L139.445 627.742 L139.445 631.631 L134.515 631.631 L134.515 639.779 L129.862 639.779 L129.862 631.631 L114.26 631.631 L114.26 627.117 L128.635 605.219 Z" fill="#000000" fill-rule="nonzero" fill-opacity="1" /><path clip-path="url(#clip340)" d="M118.543 329.086 L136.899 329.086 L136.899 333.021 L122.825 333.021 L122.825 341.494 Q123.843 341.146 124.862 340.984 Q125.88 340.799 126.899 340.799 Q132.686 340.799 136.066 343.97 Q139.445 347.142 139.445 352.558 Q139.445 358.137 135.973 361.239 Q132.501 364.317 126.181 364.317 Q124.005 364.317 121.737 363.947 Q119.492 363.577 117.084 362.836 L117.084 358.137 Q119.168 359.271 121.39 359.827 Q123.612 360.382 126.089 360.382 Q130.093 360.382 132.431 358.276 Q134.769 356.169 134.769 352.558 Q134.769 348.947 132.431 346.841 Q130.093 344.734 126.089 344.734 Q124.214 344.734 122.339 345.151 Q120.487 345.568 118.543 346.447 L118.543 329.086 Z" fill="#000000" fill-rule="nonzero" fill-opacity="1" /><path clip-path="url(#clip340)" d="M127.917 68.3695 Q124.769 68.3695 122.918 70.5222 Q121.089 72.675 121.089 76.425 Q121.089 80.1518 122.918 82.3277 Q124.769 84.4805 127.917 84.4805 Q131.066 84.4805 132.894 82.3277 Q134.746 80.1518 134.746 76.425 Q134.746 72.675 132.894 70.5222 Q131.066 68.3695 127.917 68.3695 M137.2 53.7168 L137.2 57.976 Q135.441 57.1427 133.635 56.7029 Q131.853 56.263 130.093 56.263 Q125.464 56.263 123.01 59.388 Q120.58 62.513 120.232 68.8324 Q121.598 66.8185 123.658 65.7537 Q125.718 64.6658 128.195 64.6658 Q133.404 64.6658 136.413 67.8371 Q139.445 70.9852 139.445 76.425 Q139.445 81.749 136.297 84.9666 Q133.149 88.1842 127.917 88.1842 Q121.922 88.1842 118.751 83.6009 Q115.58 78.9944 115.58 70.2676 Q115.58 62.0732 119.468 57.2121 Q123.357 52.3279 129.908 52.3279 Q131.667 52.3279 133.45 52.6751 Q135.255 53.0223 137.2 53.7168 Z" fill="#000000" fill-rule="nonzero" fill-opacity="1" /><path clip-path="url(#clip340)" d="M16.4842 755.248 L16.4842 748.341 L36.0269 735.164 L16.4842 722.083 L16.4842 715.176 L41.3741 731.981 L64.0042 731.981 L64.0042 738.443 L41.3741 738.443 L16.4842 755.248 Z" fill="#000000" fill-rule="nonzero" fill-opacity="1" /><circle clip-path="url(#clip342)" cx="469.678" cy="459.537" r="14.4" fill="#009af9" fill-rule="evenodd" fill-opacity="1" stroke="#000000" stroke-opacity="1" stroke-width="3.2"/>
<circle clip-path="url(#clip342)" cx="237.067" cy="1384.24" r="14.4" fill="#009af9" fill-rule="evenodd" fill-opacity="1" stroke="#000000" stroke-opacity="1" stroke-width="3.2"/>
<circle clip-path="url(#clip342)" cx="581.456" cy="951.072" r="14.4" fill="#009af9" fill-rule="evenodd" fill-opacity="1" stroke="#000000" stroke-opacity="1" stroke-width="3.2"/>
<circle clip-path="url(#clip342)" cx="361.97" cy="426.632" r="14.4" fill="#009af9" fill-rule="evenodd" fill-opacity="1" stroke="#000000" stroke-opacity="1" stroke-width="3.2"/>
<circle clip-path="url(#clip342)" cx="564.406" cy="781.086" r="14.4" fill="#009af9" fill-rule="evenodd" fill-opacity="1" stroke="#000000" stroke-opacity="1" stroke-width="3.2"/>
<circle clip-path="url(#clip342)" cx="2258.14" cy="1093.22" r="14.4" fill="#e26f46" fill-rule="evenodd" fill-opacity="1" stroke="#000000" stroke-opacity="1" stroke-width="3.2"/>
<circle clip-path="url(#clip342)" cx="2287.95" cy="958.99" r="14.4" fill="#e26f46" fill-rule="evenodd" fill-opacity="1" stroke="#000000" stroke-opacity="1" stroke-width="3.2"/>
<circle clip-path="url(#clip342)" cx="2291.13" cy="1317.59" r="14.4" fill="#e26f46" fill-rule="evenodd" fill-opacity="1" stroke="#000000" stroke-opacity="1" stroke-width="3.2"/>
<circle clip-path="url(#clip342)" cx="2086.03" cy="86.1857" r="14.4" fill="#e26f46" fill-rule="evenodd" fill-opacity="1" stroke="#000000" stroke-opacity="1" stroke-width="3.2"/>
<circle clip-path="url(#clip342)" cx="2255.64" cy="813.568" r="14.4" fill="#e26f46" fill-rule="evenodd" fill-opacity="1" stroke="#000000" stroke-opacity="1" stroke-width="3.2"/>
<path clip-path="url(#clip340)" d="M248.022 248.629 L672.211 248.629 L672.211 93.1086 L248.022 93.1086  Z" fill="#ffffff" fill-rule="evenodd" fill-opacity="1"/>
<polyline clip-path="url(#clip340)" style="stroke:#000000; stroke-linecap:round; stroke-linejoin:round; stroke-width:4; stroke-opacity:1; fill:none" points="248.022,248.629 672.211,248.629 672.211,93.1086 248.022,93.1086 248.022,248.629 "/>
<circle clip-path="url(#clip340)" cx="344.792" cy="144.949" r="20.48" fill="#009af9" fill-rule="evenodd" fill-opacity="1" stroke="#000000" stroke-opacity="1" stroke-width="4.55111"/>
<path clip-path="url(#clip340)" d="M469.431 130.331 L469.431 135.261 Q467.07 133.062 464.385 131.974 Q461.723 130.886 458.714 130.886 Q452.788 130.886 449.64 134.52 Q446.491 138.132 446.491 144.983 Q446.491 151.812 449.64 155.446 Q452.788 159.057 458.714 159.057 Q461.723 159.057 464.385 157.969 Q467.07 156.881 469.431 154.682 L469.431 159.567 Q466.977 161.233 464.223 162.067 Q461.491 162.9 458.436 162.9 Q450.589 162.9 446.075 158.108 Q441.561 153.293 441.561 144.983 Q441.561 136.65 446.075 131.858 Q450.589 127.044 458.436 127.044 Q461.538 127.044 464.269 127.877 Q467.024 128.687 469.431 130.331 Z" fill="#000000" fill-rule="nonzero" fill-opacity="1" /><path clip-path="url(#clip340)" d="M476.468 126.21 L480.727 126.21 L480.727 162.229 L476.468 162.229 L476.468 126.21 Z" fill="#000000" fill-rule="nonzero" fill-opacity="1" /><path clip-path="url(#clip340)" d="M489.2 151.997 L489.2 136.303 L493.459 136.303 L493.459 151.835 Q493.459 155.516 494.894 157.368 Q496.329 159.196 499.2 159.196 Q502.649 159.196 504.639 156.997 Q506.653 154.798 506.653 151.002 L506.653 136.303 L510.912 136.303 L510.912 162.229 L506.653 162.229 L506.653 158.247 Q505.102 160.608 503.042 161.766 Q501.005 162.9 498.297 162.9 Q493.829 162.9 491.514 160.122 Q489.2 157.344 489.2 151.997 M499.917 135.678 L499.917 135.678 Z" fill="#000000" fill-rule="nonzero" fill-opacity="1" /><path clip-path="url(#clip340)" d="M536.213 137.067 L536.213 141.094 Q534.408 140.169 532.463 139.706 Q530.519 139.243 528.435 139.243 Q525.264 139.243 523.667 140.215 Q522.093 141.187 522.093 143.131 Q522.093 144.613 523.227 145.469 Q524.361 146.303 527.787 147.067 L529.246 147.391 Q533.783 148.363 535.681 150.145 Q537.602 151.905 537.602 155.076 Q537.602 158.687 534.732 160.793 Q531.885 162.9 526.885 162.9 Q524.801 162.9 522.533 162.483 Q520.287 162.09 517.787 161.28 L517.787 156.881 Q520.149 158.108 522.44 158.733 Q524.732 159.335 526.977 159.335 Q529.986 159.335 531.607 158.317 Q533.227 157.275 533.227 155.4 Q533.227 153.664 532.047 152.738 Q530.889 151.812 526.931 150.956 L525.449 150.608 Q521.491 149.775 519.732 148.062 Q517.973 146.326 517.973 143.317 Q517.973 139.659 520.565 137.669 Q523.158 135.678 527.926 135.678 Q530.287 135.678 532.371 136.025 Q534.454 136.372 536.213 137.067 Z" fill="#000000" fill-rule="nonzero" fill-opacity="1" /><path clip-path="url(#clip340)" d="M548.597 128.942 L548.597 136.303 L557.371 136.303 L557.371 139.613 L548.597 139.613 L548.597 153.687 Q548.597 156.858 549.454 157.761 Q550.334 158.664 552.996 158.664 L557.371 158.664 L557.371 162.229 L552.996 162.229 Q548.065 162.229 546.19 160.4 Q544.315 158.548 544.315 153.687 L544.315 139.613 L541.19 139.613 L541.19 136.303 L544.315 136.303 L544.315 128.942 L548.597 128.942 Z" fill="#000000" fill-rule="nonzero" fill-opacity="1" /><path clip-path="url(#clip340)" d="M585.148 148.201 L585.148 150.284 L565.565 150.284 Q565.843 154.682 568.204 156.997 Q570.588 159.289 574.824 159.289 Q577.278 159.289 579.569 158.687 Q581.884 158.085 584.153 156.881 L584.153 160.909 Q581.861 161.881 579.454 162.391 Q577.046 162.9 574.57 162.9 Q568.366 162.9 564.732 159.289 Q561.121 155.678 561.121 149.52 Q561.121 143.155 564.546 139.428 Q567.995 135.678 573.829 135.678 Q579.06 135.678 582.093 139.057 Q585.148 142.414 585.148 148.201 M580.889 146.951 Q580.843 143.456 578.921 141.372 Q577.023 139.289 573.875 139.289 Q570.31 139.289 568.158 141.303 Q566.028 143.317 565.704 146.974 L580.889 146.951 Z" fill="#000000" fill-rule="nonzero" fill-opacity="1" /><path clip-path="url(#clip340)" d="M607.162 140.284 Q606.444 139.868 605.588 139.682 Q604.755 139.474 603.736 139.474 Q600.125 139.474 598.18 141.835 Q596.259 144.173 596.259 148.571 L596.259 162.229 L591.977 162.229 L591.977 136.303 L596.259 136.303 L596.259 140.331 Q597.602 137.969 599.755 136.835 Q601.907 135.678 604.986 135.678 Q605.426 135.678 605.958 135.747 Q606.491 135.794 607.139 135.909 L607.162 140.284 Z" fill="#000000" fill-rule="nonzero" fill-opacity="1" /><path clip-path="url(#clip340)" d="M628.111 158.293 L635.75 158.293 L635.75 131.928 L627.44 133.595 L627.44 129.335 L635.703 127.669 L640.379 127.669 L640.379 158.293 L648.018 158.293 L648.018 162.229 L628.111 162.229 L628.111 158.293 Z" fill="#000000" fill-rule="nonzero" fill-opacity="1" /><circle clip-path="url(#clip340)" cx="344.792" cy="196.789" r="20.48" fill="#e26f46" fill-rule="evenodd" fill-opacity="1" stroke="#000000" stroke-opacity="1" stroke-width="4.55111"/>
<path clip-path="url(#clip340)" d="M469.431 182.171 L469.431 187.101 Q467.07 184.902 464.385 183.814 Q461.723 182.726 458.714 182.726 Q452.788 182.726 449.64 186.36 Q446.491 189.972 446.491 196.823 Q446.491 203.652 449.64 207.286 Q452.788 210.897 458.714 210.897 Q461.723 210.897 464.385 209.809 Q467.07 208.721 469.431 206.522 L469.431 211.407 Q466.977 213.073 464.223 213.907 Q461.491 214.74 458.436 214.74 Q450.589 214.74 446.075 209.948 Q441.561 205.133 441.561 196.823 Q441.561 188.49 446.075 183.698 Q450.589 178.884 458.436 178.884 Q461.538 178.884 464.269 179.717 Q467.024 180.527 469.431 182.171 Z" fill="#000000" fill-rule="nonzero" fill-opacity="1" /><path clip-path="url(#clip340)" d="M476.468 178.05 L480.727 178.05 L480.727 214.069 L476.468 214.069 L476.468 178.05 Z" fill="#000000" fill-rule="nonzero" fill-opacity="1" /><path clip-path="url(#clip340)" d="M489.2 203.837 L489.2 188.143 L493.459 188.143 L493.459 203.675 Q493.459 207.356 494.894 209.208 Q496.329 211.036 499.2 211.036 Q502.649 211.036 504.639 208.837 Q506.653 206.638 506.653 202.842 L506.653 188.143 L510.912 188.143 L510.912 214.069 L506.653 214.069 L506.653 210.087 Q505.102 212.448 503.042 213.606 Q501.005 214.74 498.297 214.74 Q493.829 214.74 491.514 211.962 Q489.2 209.184 489.2 203.837 M499.917 187.518 L499.917 187.518 Z" fill="#000000" fill-rule="nonzero" fill-opacity="1" /><path clip-path="url(#clip340)" d="M536.213 188.907 L536.213 192.934 Q534.408 192.009 532.463 191.546 Q530.519 191.083 528.435 191.083 Q525.264 191.083 523.667 192.055 Q522.093 193.027 522.093 194.971 Q522.093 196.453 523.227 197.309 Q524.361 198.143 527.787 198.907 L529.246 199.231 Q533.783 200.203 535.681 201.985 Q537.602 203.745 537.602 206.916 Q537.602 210.527 534.732 212.633 Q531.885 214.74 526.885 214.74 Q524.801 214.74 522.533 214.323 Q520.287 213.93 517.787 213.12 L517.787 208.721 Q520.149 209.948 522.44 210.573 Q524.732 211.175 526.977 211.175 Q529.986 211.175 531.607 210.157 Q533.227 209.115 533.227 207.24 Q533.227 205.504 532.047 204.578 Q530.889 203.652 526.931 202.796 L525.449 202.448 Q521.491 201.615 519.732 199.902 Q517.973 198.166 517.973 195.157 Q517.973 191.499 520.565 189.509 Q523.158 187.518 527.926 187.518 Q530.287 187.518 532.371 187.865 Q534.454 188.212 536.213 188.907 Z" fill="#000000" fill-rule="nonzero" fill-opacity="1" /><path clip-path="url(#clip340)" d="M548.597 180.782 L548.597 188.143 L557.371 188.143 L557.371 191.453 L548.597 191.453 L548.597 205.527 Q548.597 208.698 549.454 209.601 Q550.334 210.504 552.996 210.504 L557.371 210.504 L557.371 214.069 L552.996 214.069 Q548.065 214.069 546.19 212.24 Q544.315 210.388 544.315 205.527 L544.315 191.453 L541.19 191.453 L541.19 188.143 L544.315 188.143 L544.315 180.782 L548.597 180.782 Z" fill="#000000" fill-rule="nonzero" fill-opacity="1" /><path clip-path="url(#clip340)" d="M585.148 200.041 L585.148 202.124 L565.565 202.124 Q565.843 206.522 568.204 208.837 Q570.588 211.129 574.824 211.129 Q577.278 211.129 579.569 210.527 Q581.884 209.925 584.153 208.721 L584.153 212.749 Q581.861 213.721 579.454 214.231 Q577.046 214.74 574.57 214.74 Q568.366 214.74 564.732 211.129 Q561.121 207.518 561.121 201.36 Q561.121 194.995 564.546 191.268 Q567.995 187.518 573.829 187.518 Q579.06 187.518 582.093 190.897 Q585.148 194.254 585.148 200.041 M580.889 198.791 Q580.843 195.296 578.921 193.212 Q577.023 191.129 573.875 191.129 Q570.31 191.129 568.158 193.143 Q566.028 195.157 565.704 198.814 L580.889 198.791 Z" fill="#000000" fill-rule="nonzero" fill-opacity="1" /><path clip-path="url(#clip340)" d="M607.162 192.124 Q606.444 191.708 605.588 191.522 Q604.755 191.314 603.736 191.314 Q600.125 191.314 598.18 193.675 Q596.259 196.013 596.259 200.411 L596.259 214.069 L591.977 214.069 L591.977 188.143 L596.259 188.143 L596.259 192.171 Q597.602 189.809 599.755 188.675 Q601.907 187.518 604.986 187.518 Q605.426 187.518 605.958 187.587 Q606.491 187.634 607.139 187.749 L607.162 192.124 Z" fill="#000000" fill-rule="nonzero" fill-opacity="1" /><path clip-path="url(#clip340)" d="M631.328 210.133 L647.648 210.133 L647.648 214.069 L625.703 214.069 L625.703 210.133 Q628.366 207.379 632.949 202.749 Q637.555 198.096 638.736 196.754 Q640.981 194.231 641.861 192.495 Q642.764 190.735 642.764 189.046 Q642.764 186.291 640.819 184.555 Q638.898 182.819 635.796 182.819 Q633.597 182.819 631.143 183.583 Q628.713 184.347 625.935 185.897 L625.935 181.175 Q628.759 180.041 631.213 179.462 Q633.666 178.884 635.703 178.884 Q641.074 178.884 644.268 181.569 Q647.463 184.254 647.463 188.745 Q647.463 190.874 646.652 192.796 Q645.865 194.694 643.759 197.286 Q643.18 197.958 640.078 201.175 Q636.977 204.37 631.328 210.133 Z" fill="#000000" fill-rule="nonzero" fill-opacity="1" /></svg>
