<?xml version="1.0" encoding="utf-8"?>
<svg xmlns="http://www.w3.org/2000/svg" xmlns:xlink="http://www.w3.org/1999/xlink" width="600" height="400" viewBox="0 0 2400 1600">
<defs>
  <clipPath id="clip570">
    <rect x="0" y="0" width="2400" height="1600"/>
  </clipPath>
</defs>
<path clip-path="url(#clip570)" d="M0 1600 L2400 1600 L2400 0 L0 0  Z" fill="#ffffff" fill-rule="evenodd" fill-opacity="1"/>
<defs>
  <clipPath id="clip571">
    <rect x="480" y="0" width="1681" height="1600"/>
  </clipPath>
</defs>
<path clip-path="url(#clip570)" d="M112.177 1486.45 L2352.76 1486.45 L2352.76 47.2441 L112.177 47.2441  Z" fill="#ffffff" fill-rule="evenodd" fill-opacity="1"/>
<defs>
  <clipPath id="clip572">
    <rect x="112" y="47" width="2242" height="1440"/>
  </clipPath>
</defs>
<polyline clip-path="url(#clip572)" style="stroke:#000000; stroke-linecap:round; stroke-linejoin:round; stroke-width:2; stroke-opacity:0.1; fill:none" points="112.177,1486.45 2352.76,1486.45 "/>
<polyline clip-path="url(#clip572)" style="stroke:#000000; stroke-linecap:round; stroke-linejoin:round; stroke-width:2; stroke-opacity:0.1; fill:none" points="112.177,1255.06 2352.76,1255.06 "/>
<polyline clip-path="url(#clip572)" style="stroke:#000000; stroke-linecap:round; stroke-linejoin:round; stroke-width:2; stroke-opacity:0.1; fill:none" points="112.177,1023.68 2352.76,1023.68 "/>
<polyline clip-path="url(#clip572)" style="stroke:#000000; stroke-linecap:round; stroke-linejoin:round; stroke-width:2; stroke-opacity:0.1; fill:none" points="112.177,792.289 2352.76,792.289 "/>
<polyline clip-path="url(#clip572)" style="stroke:#000000; stroke-linecap:round; stroke-linejoin:round; stroke-width:2; stroke-opacity:0.1; fill:none" points="112.177,560.903 2352.76,560.903 "/>
<polyline clip-path="url(#clip572)" style="stroke:#000000; stroke-linecap:round; stroke-linejoin:round; stroke-width:2; stroke-opacity:0.1; fill:none" points="112.177,329.516 2352.76,329.516 "/>
<polyline clip-path="url(#clip572)" style="stroke:#000000; stroke-linecap:round; stroke-linejoin:round; stroke-width:2; stroke-opacity:0.1; fill:none" points="112.177,98.1301 2352.76,98.1301 "/>
<polyline clip-path="url(#clip570)" style="stroke:#000000; stroke-linecap:round; stroke-linejoin:round; stroke-width:4; stroke-opacity:1; fill:none" points="112.177,1486.45 2352.76,1486.45 "/>
<polyline clip-path="url(#clip570)" style="stroke:#ffffff; stroke-linecap:round; stroke-linejoin:round; stroke-width:4; stroke-opacity:1; fill:none" points="224.206,1486.45 224.206,1467.55 "/>
<polyline clip-path="url(#clip570)" style="stroke:#ffffff; stroke-linecap:round; stroke-linejoin:round; stroke-width:4; stroke-opacity:1; fill:none" points="448.264,1486.45 448.264,1467.55 "/>
<polyline clip-path="url(#clip570)" style="stroke:#ffffff; stroke-linecap:round; stroke-linejoin:round; stroke-width:4; stroke-opacity:1; fill:none" points="672.322,1486.45 672.322,1467.55 "/>
<polyline clip-path="url(#clip570)" style="stroke:#ffffff; stroke-linecap:round; stroke-linejoin:round; stroke-width:4; stroke-opacity:1; fill:none" points="896.38,1486.45 896.38,1467.55 "/>
<polyline clip-path="url(#clip570)" style="stroke:#ffffff; stroke-linecap:round; stroke-linejoin:round; stroke-width:4; stroke-opacity:1; fill:none" points="1120.44,1486.45 1120.44,1467.55 "/>
<polyline clip-path="url(#clip570)" style="stroke:#ffffff; stroke-linecap:round; stroke-linejoin:round; stroke-width:4; stroke-opacity:1; fill:none" points="1344.5,1486.45 1344.5,1467.55 "/>
<polyline clip-path="url(#clip570)" style="stroke:#ffffff; stroke-linecap:round; stroke-linejoin:round; stroke-width:4; stroke-opacity:1; fill:none" points="1568.55,1486.45 1568.55,1467.55 "/>
<polyline clip-path="url(#clip570)" style="stroke:#ffffff; stroke-linecap:round; stroke-linejoin:round; stroke-width:4; stroke-opacity:1; fill:none" points="1792.61,1486.45 1792.61,1467.55 "/>
<polyline clip-path="url(#clip570)" style="stroke:#ffffff; stroke-linecap:round; stroke-linejoin:round; stroke-width:4; stroke-opacity:1; fill:none" points="2016.67,1486.45 2016.67,1467.55 "/>
<polyline clip-path="url(#clip570)" style="stroke:#ffffff; stroke-linecap:round; stroke-linejoin:round; stroke-width:4; stroke-opacity:1; fill:none" points="2240.73,1486.45 2240.73,1467.55 "/>
<path clip-path="url(#clip570)" d="M224.611 1529.7 Q221.463 1529.7 219.611 1531.86 Q217.783 1534.01 217.783 1537.76 Q217.783 1541.49 219.611 1543.66 Q221.463 1545.82 224.611 1545.82 Q227.759 1545.82 229.588 1543.66 Q231.44 1541.49 231.44 1537.76 Q231.44 1534.01 229.588 1531.86 Q227.759 1529.7 224.611 1529.7 M233.894 1515.05 L233.894 1519.31 Q232.134 1518.48 230.329 1518.04 Q228.546 1517.6 226.787 1517.6 Q222.158 1517.6 219.704 1520.72 Q217.273 1523.85 216.926 1530.17 Q218.292 1528.15 220.352 1527.09 Q222.412 1526 224.889 1526 Q230.097 1526 233.107 1529.17 Q236.139 1532.32 236.139 1537.76 Q236.139 1543.08 232.991 1546.3 Q229.843 1549.52 224.611 1549.52 Q218.616 1549.52 215.445 1544.94 Q212.273 1540.33 212.273 1531.6 Q212.273 1523.41 216.162 1518.55 Q220.051 1513.66 226.602 1513.66 Q228.361 1513.66 230.144 1514.01 Q231.949 1514.36 233.894 1515.05 Z" fill="#000000" fill-rule="nonzero" fill-opacity="1" /><path clip-path="url(#clip570)" d="M448.264 1532.44 Q444.931 1532.44 443.009 1534.22 Q441.111 1536 441.111 1539.13 Q441.111 1542.25 443.009 1544.03 Q444.931 1545.82 448.264 1545.82 Q451.597 1545.82 453.519 1544.03 Q455.44 1542.23 455.44 1539.13 Q455.44 1536 453.519 1534.22 Q451.62 1532.44 448.264 1532.44 M443.588 1530.45 Q440.579 1529.7 438.889 1527.64 Q437.222 1525.58 437.222 1522.62 Q437.222 1518.48 440.162 1516.07 Q443.125 1513.66 448.264 1513.66 Q453.426 1513.66 456.366 1516.07 Q459.306 1518.48 459.306 1522.62 Q459.306 1525.58 457.616 1527.64 Q455.949 1529.7 452.963 1530.45 Q456.343 1531.23 458.218 1533.52 Q460.116 1535.82 460.116 1539.13 Q460.116 1544.15 457.037 1546.83 Q453.982 1549.52 448.264 1549.52 Q442.546 1549.52 439.468 1546.83 Q436.412 1544.15 436.412 1539.13 Q436.412 1535.82 438.31 1533.52 Q440.208 1531.23 443.588 1530.45 M441.875 1523.06 Q441.875 1525.75 443.542 1527.25 Q445.232 1528.76 448.264 1528.76 Q451.273 1528.76 452.963 1527.25 Q454.676 1525.75 454.676 1523.06 Q454.676 1520.38 452.963 1518.87 Q451.273 1517.37 448.264 1517.37 Q445.232 1517.37 443.542 1518.87 Q441.875 1520.38 441.875 1523.06 Z" fill="#000000" fill-rule="nonzero" fill-opacity="1" /><path clip-path="url(#clip570)" d="M661.211 1514.29 L683.433 1514.29 L683.433 1516.28 L670.887 1548.85 L666.002 1548.85 L677.808 1518.22 L661.211 1518.22 L661.211 1514.29 Z" fill="#000000" fill-rule="nonzero" fill-opacity="1" /><path clip-path="url(#clip570)" d="M886.681 1548.13 L886.681 1543.87 Q888.44 1544.7 890.246 1545.14 Q892.051 1545.58 893.787 1545.58 Q898.417 1545.58 900.847 1542.48 Q903.301 1539.36 903.648 1533.01 Q902.306 1535.01 900.245 1536.07 Q898.185 1537.13 895.685 1537.13 Q890.5 1537.13 887.468 1534.01 Q884.458 1530.86 884.458 1525.42 Q884.458 1520.1 887.607 1516.88 Q890.755 1513.66 895.986 1513.66 Q901.982 1513.66 905.13 1518.27 Q908.301 1522.85 908.301 1531.6 Q908.301 1539.77 904.412 1544.66 Q900.546 1549.52 893.995 1549.52 Q892.236 1549.52 890.431 1549.17 Q888.625 1548.82 886.681 1548.13 M895.986 1533.48 Q899.134 1533.48 900.963 1531.32 Q902.815 1529.17 902.815 1525.42 Q902.815 1521.7 900.963 1519.54 Q899.134 1517.37 895.986 1517.37 Q892.838 1517.37 890.986 1519.54 Q889.158 1521.7 889.158 1525.42 Q889.158 1529.17 890.986 1531.32 Q892.838 1533.48 895.986 1533.48 Z" fill="#000000" fill-rule="nonzero" fill-opacity="1" /><path clip-path="url(#clip570)" d="M1095.13 1544.91 L1102.76 1544.91 L1102.76 1518.55 L1094.45 1520.21 L1094.45 1515.95 L1102.72 1514.29 L1107.39 1514.29 L1107.39 1544.91 L1115.03 1544.91 L1115.03 1548.85 L1095.13 1548.85 L1095.13 1544.91 Z" fill="#000000" fill-rule="nonzero" fill-opacity="1" /><path clip-path="url(#clip570)" d="M1134.48 1517.37 Q1130.87 1517.37 1129.04 1520.93 Q1127.23 1524.47 1127.23 1531.6 Q1127.23 1538.71 1129.04 1542.27 Q1130.87 1545.82 1134.48 1545.82 Q1138.11 1545.82 1139.92 1542.27 Q1141.75 1538.71 1141.75 1531.6 Q1141.75 1524.47 1139.92 1520.93 Q1138.11 1517.37 1134.48 1517.37 M1134.48 1513.66 Q1140.29 1513.66 1143.34 1518.27 Q1146.42 1522.85 1146.42 1531.6 Q1146.42 1540.33 1143.34 1544.94 Q1140.29 1549.52 1134.48 1549.52 Q1128.67 1549.52 1125.59 1544.94 Q1122.53 1540.33 1122.53 1531.6 Q1122.53 1522.85 1125.59 1518.27 Q1128.67 1513.66 1134.48 1513.66 Z" fill="#000000" fill-rule="nonzero" fill-opacity="1" /><path clip-path="url(#clip570)" d="M1348.74 1530.21 Q1352.1 1530.93 1353.97 1533.2 Q1355.87 1535.47 1355.87 1538.8 Q1355.87 1543.92 1352.35 1546.72 Q1348.84 1549.52 1342.35 1549.52 Q1340.18 1549.52 1337.86 1549.08 Q1335.57 1548.66 1333.12 1547.81 L1333.12 1543.29 Q1335.06 1544.43 1337.38 1545.01 Q1339.69 1545.58 1342.22 1545.58 Q1346.61 1545.58 1348.91 1543.85 Q1351.22 1542.11 1351.22 1538.8 Q1351.22 1535.75 1349.07 1534.03 Q1346.94 1532.3 1343.12 1532.3 L1339.09 1532.3 L1339.09 1528.45 L1343.3 1528.45 Q1346.75 1528.45 1348.58 1527.09 Q1350.41 1525.7 1350.41 1523.11 Q1350.41 1520.45 1348.51 1519.03 Q1346.64 1517.6 1343.12 1517.6 Q1341.2 1517.6 1339 1518.01 Q1336.8 1518.43 1334.16 1519.31 L1334.16 1515.14 Q1336.82 1514.4 1339.14 1514.03 Q1341.47 1513.66 1343.53 1513.66 Q1348.86 1513.66 1351.96 1516.09 Q1355.06 1518.5 1355.06 1522.62 Q1355.06 1525.49 1353.42 1527.48 Q1351.78 1529.45 1348.74 1530.21 Z" fill="#000000" fill-rule="nonzero" fill-opacity="1" /><path clip-path="url(#clip570)" d="M1571.56 1518.36 L1559.76 1536.81 L1571.56 1536.81 L1571.56 1518.36 M1570.34 1514.29 L1576.22 1514.29 L1576.22 1536.81 L1581.15 1536.81 L1581.15 1540.7 L1576.22 1540.7 L1576.22 1548.85 L1571.56 1548.85 L1571.56 1540.7 L1555.96 1540.7 L1555.96 1536.19 L1570.34 1514.29 Z" fill="#000000" fill-rule="nonzero" fill-opacity="1" /><path clip-path="url(#clip570)" d="M1782.89 1514.29 L1801.25 1514.29 L1801.25 1518.22 L1787.17 1518.22 L1787.17 1526.7 Q1788.19 1526.35 1789.21 1526.19 Q1790.23 1526 1791.25 1526 Q1797.03 1526 1800.41 1529.17 Q1803.79 1532.34 1803.79 1537.76 Q1803.79 1543.34 1800.32 1546.44 Q1796.85 1549.52 1790.53 1549.52 Q1788.35 1549.52 1786.08 1549.15 Q1783.84 1548.78 1781.43 1548.04 L1781.43 1543.34 Q1783.51 1544.47 1785.74 1545.03 Q1787.96 1545.58 1790.44 1545.58 Q1794.44 1545.58 1796.78 1543.48 Q1799.12 1541.37 1799.12 1537.76 Q1799.12 1534.15 1796.78 1532.04 Q1794.44 1529.94 1790.44 1529.94 Q1788.56 1529.94 1786.69 1530.35 Q1784.83 1530.77 1782.89 1531.65 L1782.89 1514.29 Z" fill="#000000" fill-rule="nonzero" fill-opacity="1" /><path clip-path="url(#clip570)" d="M2007.05 1544.91 L2014.69 1544.91 L2014.69 1518.55 L2006.38 1520.21 L2006.38 1515.95 L2014.64 1514.29 L2019.32 1514.29 L2019.32 1544.91 L2026.96 1544.91 L2026.96 1548.85 L2007.05 1548.85 L2007.05 1544.91 Z" fill="#000000" fill-rule="nonzero" fill-opacity="1" /><path clip-path="url(#clip570)" d="M2235.38 1544.91 L2251.7 1544.91 L2251.7 1548.85 L2229.75 1548.85 L2229.75 1544.91 Q2232.42 1542.16 2237 1537.53 Q2241.61 1532.88 2242.79 1531.53 Q2245.03 1529.01 2245.91 1527.27 Q2246.81 1525.51 2246.81 1523.82 Q2246.81 1521.07 2244.87 1519.33 Q2242.95 1517.6 2239.85 1517.6 Q2237.65 1517.6 2235.19 1518.36 Q2232.76 1519.13 2229.99 1520.68 L2229.99 1515.95 Q2232.81 1514.82 2235.26 1514.24 Q2237.72 1513.66 2239.75 1513.66 Q2245.13 1513.66 2248.32 1516.35 Q2251.51 1519.03 2251.51 1523.52 Q2251.51 1525.65 2250.7 1527.57 Q2249.92 1529.47 2247.81 1532.07 Q2247.23 1532.74 2244.13 1535.95 Q2241.03 1539.15 2235.38 1544.91 Z" fill="#000000" fill-rule="nonzero" fill-opacity="1" /><polyline clip-path="url(#clip570)" style="stroke:#000000; stroke-linecap:round; stroke-linejoin:round; stroke-width:4; stroke-opacity:1; fill:none" points="112.177,1486.45 112.177,47.2441 "/>
<polyline clip-path="url(#clip570)" style="stroke:#000000; stroke-linecap:round; stroke-linejoin:round; stroke-width:4; stroke-opacity:1; fill:none" points="112.177,1486.45 131.075,1486.45 "/>
<polyline clip-path="url(#clip570)" style="stroke:#000000; stroke-linecap:round; stroke-linejoin:round; stroke-width:4; stroke-opacity:1; fill:none" points="112.177,1255.06 131.075,1255.06 "/>
<polyline clip-path="url(#clip570)" style="stroke:#000000; stroke-linecap:round; stroke-linejoin:round; stroke-width:4; stroke-opacity:1; fill:none" points="112.177,1023.68 131.075,1023.68 "/>
<polyline clip-path="url(#clip570)" style="stroke:#000000; stroke-linecap:round; stroke-linejoin:round; stroke-width:4; stroke-opacity:1; fill:none" points="112.177,792.289 131.075,792.289 "/>
<polyline clip-path="url(#clip570)" style="stroke:#000000; stroke-linecap:round; stroke-linejoin:round; stroke-width:4; stroke-opacity:1; fill:none" points="112.177,560.903 131.075,560.903 "/>
<polyline clip-path="url(#clip570)" style="stroke:#000000; stroke-linecap:round; stroke-linejoin:round; stroke-width:4; stroke-opacity:1; fill:none" points="112.177,329.516 131.075,329.516 "/>
<polyline clip-path="url(#clip570)" style="stroke:#000000; stroke-linecap:round; stroke-linejoin:round; stroke-width:4; stroke-opacity:1; fill:none" points="112.177,98.1301 131.075,98.1301 "/>
<path clip-path="url(#clip570)" d="M64.2328 1472.25 Q60.6217 1472.25 58.793 1475.81 Q56.9875 1479.35 56.9875 1486.48 Q56.9875 1493.59 58.793 1497.15 Q60.6217 1500.7 64.2328 1500.7 Q67.867 1500.7 69.6726 1497.15 Q71.5013 1493.59 71.5013 1486.48 Q71.5013 1479.35 69.6726 1475.81 Q67.867 1472.25 64.2328 1472.25 M64.2328 1468.54 Q70.0429 1468.54 73.0985 1473.15 Q76.1772 1477.73 76.1772 1486.48 Q76.1772 1495.21 73.0985 1499.82 Q70.0429 1504.4 64.2328 1504.4 Q58.4226 1504.4 55.344 1499.82 Q52.2884 1495.21 52.2884 1486.48 Q52.2884 1477.73 55.344 1473.15 Q58.4226 1468.54 64.2328 1468.54 Z" fill="#000000" fill-rule="nonzero" fill-opacity="1" /><path clip-path="url(#clip570)" d="M56.2699 1268.41 L63.9087 1268.41 L63.9087 1242.04 L55.5986 1243.71 L55.5986 1239.45 L63.8624 1237.78 L68.5383 1237.78 L68.5383 1268.41 L76.1772 1268.41 L76.1772 1272.34 L56.2699 1272.34 L56.2699 1268.41 Z" fill="#000000" fill-rule="nonzero" fill-opacity="1" /><path clip-path="url(#clip570)" d="M59.8578 1037.02 L76.1772 1037.02 L76.1772 1040.96 L54.2328 1040.96 L54.2328 1037.02 Q56.8949 1034.27 61.4782 1029.64 Q66.0846 1024.98 67.2652 1023.64 Q69.5105 1021.12 70.3902 1019.38 Q71.2929 1017.62 71.2929 1015.93 Q71.2929 1013.18 69.3485 1011.44 Q67.4272 1009.71 64.3254 1009.71 Q62.1263 1009.71 59.6726 1010.47 Q57.2421 1011.23 54.4643 1012.78 L54.4643 1008.06 Q57.2884 1006.93 59.7421 1006.35 Q62.1958 1005.77 64.2328 1005.77 Q69.6031 1005.77 72.7976 1008.46 Q75.992 1011.14 75.992 1015.63 Q75.992 1017.76 75.1818 1019.68 Q74.3948 1021.58 72.2883 1024.17 Q71.7096 1024.84 68.6078 1028.06 Q65.5059 1031.26 59.8578 1037.02 Z" fill="#000000" fill-rule="nonzero" fill-opacity="1" /><path clip-path="url(#clip570)" d="M69.0476 790.935 Q72.404 791.652 74.279 793.921 Q76.1772 796.189 76.1772 799.523 Q76.1772 804.638 72.6587 807.439 Q69.1402 810.24 62.6587 810.24 Q60.4828 810.24 58.168 809.8 Q55.8764 809.384 53.4227 808.527 L53.4227 804.013 Q55.3671 805.148 57.6819 805.726 Q59.9967 806.305 62.5198 806.305 Q66.918 806.305 69.2096 804.569 Q71.5244 802.833 71.5244 799.523 Q71.5244 796.467 69.3717 794.754 Q67.242 793.018 63.4226 793.018 L59.3949 793.018 L59.3949 789.176 L63.6078 789.176 Q67.0569 789.176 68.8855 787.81 Q70.7142 786.421 70.7142 783.828 Q70.7142 781.166 68.8161 779.754 Q66.9411 778.319 63.4226 778.319 Q61.5013 778.319 59.3023 778.736 Q57.1032 779.152 54.4643 780.032 L54.4643 775.865 Q57.1264 775.125 59.4412 774.754 Q61.7791 774.384 63.8393 774.384 Q69.1633 774.384 72.2652 776.815 Q75.367 779.222 75.367 783.342 Q75.367 786.213 73.7235 788.203 Q72.08 790.171 69.0476 790.935 Z" fill="#000000" fill-rule="nonzero" fill-opacity="1" /><path clip-path="url(#clip570)" d="M66.5939 547.697 L54.7884 566.146 L66.5939 566.146 L66.5939 547.697 M65.367 543.623 L71.2466 543.623 L71.2466 566.146 L76.1772 566.146 L76.1772 570.035 L71.2466 570.035 L71.2466 578.183 L66.5939 578.183 L66.5939 570.035 L50.9921 570.035 L50.9921 565.521 L65.367 543.623 Z" fill="#000000" fill-rule="nonzero" fill-opacity="1" /><path clip-path="url(#clip570)" d="M55.2745 312.236 L73.6309 312.236 L73.6309 316.172 L59.5569 316.172 L59.5569 324.644 Q60.5754 324.297 61.5939 324.134 Q62.6124 323.949 63.6309 323.949 Q69.418 323.949 72.7976 327.121 Q76.1772 330.292 76.1772 335.709 Q76.1772 341.287 72.705 344.389 Q69.2328 347.468 62.9134 347.468 Q60.7374 347.468 58.4689 347.097 Q56.2236 346.727 53.8162 345.986 L53.8162 341.287 Q55.8995 342.421 58.1217 342.977 Q60.3439 343.533 62.8208 343.533 Q66.8254 343.533 69.1633 341.426 Q71.5013 339.32 71.5013 335.709 Q71.5013 332.097 69.1633 329.991 Q66.8254 327.884 62.8208 327.884 Q60.9458 327.884 59.0708 328.301 Q57.2189 328.718 55.2745 329.597 L55.2745 312.236 Z" fill="#000000" fill-rule="nonzero" fill-opacity="1" /><path clip-path="url(#clip570)" d="M64.6495 96.2667 Q61.5013 96.2667 59.6495 98.4195 Q57.8208 100.572 57.8208 104.322 Q57.8208 108.049 59.6495 110.225 Q61.5013 112.378 64.6495 112.378 Q67.7976 112.378 69.6263 110.225 Q71.4781 108.049 71.4781 104.322 Q71.4781 100.572 69.6263 98.4195 Q67.7976 96.2667 64.6495 96.2667 M73.9318 81.614 L73.9318 85.8732 Q72.1726 85.0399 70.367 84.6001 Q68.5846 84.1603 66.8254 84.1603 Q62.1958 84.1603 59.7421 87.2853 Q57.3115 90.4103 56.9643 96.7297 Q58.33 94.7158 60.3902 93.651 Q62.4504 92.563 64.9272 92.563 Q70.1355 92.563 73.1448 95.7343 Q76.1772 98.8824 76.1772 104.322 Q76.1772 109.646 73.029 112.864 Q69.8809 116.081 64.6495 116.081 Q58.6541 116.081 55.4828 111.498 Q52.3116 106.892 52.3116 98.1648 Q52.3116 89.9704 56.2004 85.1094 Q60.0893 80.2251 66.6402 80.2251 Q68.3994 80.2251 70.1818 80.5723 Q71.9874 80.9196 73.9318 81.614 Z" fill="#000000" fill-rule="nonzero" fill-opacity="1" /><polyline clip-path="url(#clip572)" style="stroke:#000000; stroke-linecap:round; stroke-linejoin:round; stroke-width:4; stroke-opacity:1; fill:none" points="1344.5,1486.45 1344.5,1374.24 1568.55,1374.24 1568.55,1486.45 "/>
<polyline clip-path="url(#clip572)" style="stroke:#000000; stroke-linecap:round; stroke-linejoin:round; stroke-width:4; stroke-opacity:1; fill:none" points="2016.67,1486.45 2016.67,1315.15 2240.73,1315.15 2240.73,1486.45 "/>
<polyline clip-path="url(#clip572)" style="stroke:#000000; stroke-linecap:round; stroke-linejoin:round; stroke-width:4; stroke-opacity:1; fill:none" points="224.206,1486.45 224.206,1289.43 448.264,1289.43 448.264,1486.45 "/>
<polyline clip-path="url(#clip572)" style="stroke:#000000; stroke-linecap:round; stroke-linejoin:round; stroke-width:4; stroke-opacity:1; fill:none" points="672.322,1486.45 672.322,1263.6 896.38,1263.6 896.38,1486.45 "/>
<polyline clip-path="url(#clip572)" style="stroke:#000000; stroke-linecap:round; stroke-linejoin:round; stroke-width:4; stroke-opacity:1; fill:none" points="1792.61,1486.45 1792.61,1218.95 2128.7,1218.95 2128.7,1315.15 "/>
<polyline clip-path="url(#clip572)" style="stroke:#000000; stroke-linecap:round; stroke-linejoin:round; stroke-width:4; stroke-opacity:1; fill:none" points="1456.52,1374.24 1456.52,1016.13 1960.65,1016.13 1960.65,1218.95 "/>
<polyline clip-path="url(#clip572)" style="stroke:#000000; stroke-linecap:round; stroke-linejoin:round; stroke-width:4; stroke-opacity:1; fill:none" points="336.235,1289.43 336.235,808.319 784.351,808.319 784.351,1263.6 "/>
<polyline clip-path="url(#clip572)" style="stroke:#000000; stroke-linecap:round; stroke-linejoin:round; stroke-width:4; stroke-opacity:1; fill:none" points="1120.44,1486.45 1120.44,646.757 1708.59,646.757 1708.59,1016.13 "/>
<polyline clip-path="url(#clip572)" style="stroke:#000000; stroke-linecap:round; stroke-linejoin:round; stroke-width:4; stroke-opacity:1; fill:none" points="560.293,808.319 560.293,47.2441 1414.51,47.2441 1414.51,646.757 "/>
</svg>
