<?xml version="1.0" encoding="utf-8"?>
<svg xmlns="http://www.w3.org/2000/svg" xmlns:xlink="http://www.w3.org/1999/xlink" width="600" height="400" viewBox="0 0 2400 1600">
<defs>
  <clipPath id="clip180">
    <rect x="0" y="0" width="2400" height="1600"/>
  </clipPath>
</defs>
<path clip-path="url(#clip180)" d="M0 1600 L2400 1600 L2400 0 L0 0  Z" fill="#ffffff" fill-rule="evenodd" fill-opacity="1"/>
<defs>
  <clipPath id="clip181">
    <rect x="480" y="0" width="1681" height="1600"/>
  </clipPath>
</defs>
<path clip-path="url(#clip180)" d="M175.445 1423.18 L2352.76 1423.18 L2352.76 47.2441 L175.445 47.2441  Z" fill="#ffffff" fill-rule="evenodd" fill-opacity="1"/>
<defs>
  <clipPath id="clip182">
    <rect x="175" y="47" width="2178" height="1377"/>
  </clipPath>
</defs>
<polyline clip-path="url(#clip182)" style="stroke:#000000; stroke-linecap:round; stroke-linejoin:round; stroke-width:2; stroke-opacity:0.1; fill:none" points="229.491,1423.18 229.491,47.2441 "/>
<polyline clip-path="url(#clip182)" style="stroke:#000000; stroke-linecap:round; stroke-linejoin:round; stroke-width:2; stroke-opacity:0.1; fill:none" points="673.8,1423.18 673.8,47.2441 "/>
<polyline clip-path="url(#clip182)" style="stroke:#000000; stroke-linecap:round; stroke-linejoin:round; stroke-width:2; stroke-opacity:0.1; fill:none" points="1118.11,1423.18 1118.11,47.2441 "/>
<polyline clip-path="url(#clip182)" style="stroke:#000000; stroke-linecap:round; stroke-linejoin:round; stroke-width:2; stroke-opacity:0.1; fill:none" points="1562.42,1423.18 1562.42,47.2441 "/>
<polyline clip-path="url(#clip182)" style="stroke:#000000; stroke-linecap:round; stroke-linejoin:round; stroke-width:2; stroke-opacity:0.1; fill:none" points="2006.73,1423.18 2006.73,47.2441 "/>
<polyline clip-path="url(#clip182)" style="stroke:#000000; stroke-linecap:round; stroke-linejoin:round; stroke-width:2; stroke-opacity:0.1; fill:none" points="175.445,1218.57 2352.76,1218.57 "/>
<polyline clip-path="url(#clip182)" style="stroke:#000000; stroke-linecap:round; stroke-linejoin:round; stroke-width:2; stroke-opacity:0.1; fill:none" points="175.445,984.833 2352.76,984.833 "/>
<polyline clip-path="url(#clip182)" style="stroke:#000000; stroke-linecap:round; stroke-linejoin:round; stroke-width:2; stroke-opacity:0.1; fill:none" points="175.445,751.097 2352.76,751.097 "/>
<polyline clip-path="url(#clip182)" style="stroke:#000000; stroke-linecap:round; stroke-linejoin:round; stroke-width:2; stroke-opacity:0.1; fill:none" points="175.445,517.36 2352.76,517.36 "/>
<polyline clip-path="url(#clip182)" style="stroke:#000000; stroke-linecap:round; stroke-linejoin:round; stroke-width:2; stroke-opacity:0.1; fill:none" points="175.445,283.624 2352.76,283.624 "/>
<polyline clip-path="url(#clip182)" style="stroke:#000000; stroke-linecap:round; stroke-linejoin:round; stroke-width:2; stroke-opacity:0.1; fill:none" points="175.445,49.8873 2352.76,49.8873 "/>
<polyline clip-path="url(#clip180)" style="stroke:#000000; stroke-linecap:round; stroke-linejoin:round; stroke-width:4; stroke-opacity:1; fill:none" points="175.445,1423.18 2352.76,1423.18 "/>
<polyline clip-path="url(#clip180)" style="stroke:#000000; stroke-linecap:round; stroke-linejoin:round; stroke-width:4; stroke-opacity:1; fill:none" points="229.491,1423.18 229.491,1404.28 "/>
<polyline clip-path="url(#clip180)" style="stroke:#000000; stroke-linecap:round; stroke-linejoin:round; stroke-width:4; stroke-opacity:1; fill:none" points="673.8,1423.18 673.8,1404.28 "/>
<polyline clip-path="url(#clip180)" style="stroke:#000000; stroke-linecap:round; stroke-linejoin:round; stroke-width:4; stroke-opacity:1; fill:none" points="1118.11,1423.18 1118.11,1404.28 "/>
<polyline clip-path="url(#clip180)" style="stroke:#000000; stroke-linecap:round; stroke-linejoin:round; stroke-width:4; stroke-opacity:1; fill:none" points="1562.42,1423.18 1562.42,1404.28 "/>
<polyline clip-path="url(#clip180)" style="stroke:#000000; stroke-linecap:round; stroke-linejoin:round; stroke-width:4; stroke-opacity:1; fill:none" points="2006.73,1423.18 2006.73,1404.28 "/>
<path clip-path="url(#clip180)" d="M219.873 1481.64 L227.512 1481.64 L227.512 1455.28 L219.202 1456.95 L219.202 1452.69 L227.466 1451.02 L232.142 1451.02 L232.142 1481.64 L239.781 1481.64 L239.781 1485.58 L219.873 1485.58 L219.873 1481.64 Z" fill="#000000" fill-rule="nonzero" fill-opacity="1" /><path clip-path="url(#clip180)" d="M668.453 1481.64 L684.773 1481.64 L684.773 1485.58 L662.828 1485.58 L662.828 1481.64 Q665.49 1478.89 670.074 1474.26 Q674.68 1469.61 675.861 1468.27 Q678.106 1465.74 678.986 1464.01 Q679.888 1462.25 679.888 1460.56 Q679.888 1457.8 677.944 1456.07 Q676.023 1454.33 672.921 1454.33 Q670.722 1454.33 668.268 1455.09 Q665.838 1455.86 663.06 1457.41 L663.06 1452.69 Q665.884 1451.55 668.338 1450.97 Q670.791 1450.39 672.828 1450.39 Q678.199 1450.39 681.393 1453.08 Q684.587 1455.77 684.587 1460.26 Q684.587 1462.39 683.777 1464.31 Q682.99 1466.2 680.884 1468.8 Q680.305 1469.47 677.203 1472.69 Q674.101 1475.88 668.453 1481.64 Z" fill="#000000" fill-rule="nonzero" fill-opacity="1" /><path clip-path="url(#clip180)" d="M1122.36 1466.95 Q1125.71 1467.66 1127.59 1469.93 Q1129.49 1472.2 1129.49 1475.53 Q1129.49 1480.65 1125.97 1483.45 Q1122.45 1486.25 1115.97 1486.25 Q1113.79 1486.25 1111.48 1485.81 Q1109.19 1485.39 1106.73 1484.54 L1106.73 1480.02 Q1108.68 1481.16 1110.99 1481.74 Q1113.31 1482.32 1115.83 1482.32 Q1120.23 1482.32 1122.52 1480.58 Q1124.83 1478.84 1124.83 1475.53 Q1124.83 1472.48 1122.68 1470.77 Q1120.55 1469.03 1116.73 1469.03 L1112.7 1469.03 L1112.7 1465.19 L1116.92 1465.19 Q1120.37 1465.19 1122.2 1463.82 Q1124.02 1462.43 1124.02 1459.84 Q1124.02 1457.18 1122.13 1455.77 Q1120.25 1454.33 1116.73 1454.33 Q1114.81 1454.33 1112.61 1454.75 Q1110.41 1455.16 1107.77 1456.04 L1107.77 1451.88 Q1110.44 1451.14 1112.75 1450.77 Q1115.09 1450.39 1117.15 1450.39 Q1122.47 1450.39 1125.57 1452.83 Q1128.68 1455.23 1128.68 1459.35 Q1128.68 1462.22 1127.03 1464.21 Q1125.39 1466.18 1122.36 1466.95 Z" fill="#000000" fill-rule="nonzero" fill-opacity="1" /><path clip-path="url(#clip180)" d="M1565.43 1455.09 L1553.62 1473.54 L1565.43 1473.54 L1565.43 1455.09 M1564.2 1451.02 L1570.08 1451.02 L1570.08 1473.54 L1575.01 1473.54 L1575.01 1477.43 L1570.08 1477.43 L1570.08 1485.58 L1565.43 1485.58 L1565.43 1477.43 L1549.83 1477.43 L1549.83 1472.92 L1564.2 1451.02 Z" fill="#000000" fill-rule="nonzero" fill-opacity="1" /><path clip-path="url(#clip180)" d="M1997.01 1451.02 L2015.36 1451.02 L2015.36 1454.96 L2001.29 1454.96 L2001.29 1463.43 Q2002.31 1463.08 2003.32 1462.92 Q2004.34 1462.73 2005.36 1462.73 Q2011.15 1462.73 2014.53 1465.9 Q2017.91 1469.08 2017.91 1474.49 Q2017.91 1480.07 2014.44 1483.17 Q2010.96 1486.25 2004.64 1486.25 Q2002.47 1486.25 2000.2 1485.88 Q1997.95 1485.51 1995.55 1484.77 L1995.55 1480.07 Q1997.63 1481.2 1999.85 1481.76 Q2002.07 1482.32 2004.55 1482.32 Q2008.56 1482.32 2010.89 1480.21 Q2013.23 1478.1 2013.23 1474.49 Q2013.23 1470.88 2010.89 1468.77 Q2008.56 1466.67 2004.55 1466.67 Q2002.68 1466.67 2000.8 1467.08 Q1998.95 1467.5 1997.01 1468.38 L1997.01 1451.02 Z" fill="#000000" fill-rule="nonzero" fill-opacity="1" /><path clip-path="url(#clip180)" d="M1245.93 1520.52 L1252.83 1520.52 L1264.64 1538.19 L1276.51 1520.52 L1283.42 1520.52 L1268.14 1543.34 L1284.44 1568.04 L1277.53 1568.04 L1264.16 1547.83 L1250.7 1568.04 L1243.76 1568.04 L1260.73 1542.68 L1245.93 1520.52 Z" fill="#000000" fill-rule="nonzero" fill-opacity="1" /><polyline clip-path="url(#clip180)" style="stroke:#000000; stroke-linecap:round; stroke-linejoin:round; stroke-width:4; stroke-opacity:1; fill:none" points="175.445,1423.18 175.445,47.2441 "/>
<polyline clip-path="url(#clip180)" style="stroke:#000000; stroke-linecap:round; stroke-linejoin:round; stroke-width:4; stroke-opacity:1; fill:none" points="175.445,1218.57 194.343,1218.57 "/>
<polyline clip-path="url(#clip180)" style="stroke:#000000; stroke-linecap:round; stroke-linejoin:round; stroke-width:4; stroke-opacity:1; fill:none" points="175.445,984.833 194.343,984.833 "/>
<polyline clip-path="url(#clip180)" style="stroke:#000000; stroke-linecap:round; stroke-linejoin:round; stroke-width:4; stroke-opacity:1; fill:none" points="175.445,751.097 194.343,751.097 "/>
<polyline clip-path="url(#clip180)" style="stroke:#000000; stroke-linecap:round; stroke-linejoin:round; stroke-width:4; stroke-opacity:1; fill:none" points="175.445,517.36 194.343,517.36 "/>
<polyline clip-path="url(#clip180)" style="stroke:#000000; stroke-linecap:round; stroke-linejoin:round; stroke-width:4; stroke-opacity:1; fill:none" points="175.445,283.624 194.343,283.624 "/>
<polyline clip-path="url(#clip180)" style="stroke:#000000; stroke-linecap:round; stroke-linejoin:round; stroke-width:4; stroke-opacity:1; fill:none" points="175.445,49.8873 194.343,49.8873 "/>
<path clip-path="url(#clip180)" d="M119.538 1231.91 L127.177 1231.91 L127.177 1205.55 L118.867 1207.22 L118.867 1202.96 L127.13 1201.29 L131.806 1201.29 L131.806 1231.91 L139.445 1231.91 L139.445 1235.85 L119.538 1235.85 L119.538 1231.91 Z" fill="#000000" fill-rule="nonzero" fill-opacity="1" /><path clip-path="url(#clip180)" d="M123.126 998.178 L139.445 998.178 L139.445 1002.11 L117.501 1002.11 L117.501 998.178 Q120.163 995.423 124.746 990.794 Q129.353 986.141 130.533 984.798 Q132.779 982.275 133.658 980.539 Q134.561 978.78 134.561 977.09 Q134.561 974.335 132.617 972.599 Q130.695 970.863 127.593 970.863 Q125.394 970.863 122.941 971.627 Q120.51 972.391 117.732 973.942 L117.732 969.22 Q120.556 968.085 123.01 967.507 Q125.464 966.928 127.501 966.928 Q132.871 966.928 136.066 969.613 Q139.26 972.298 139.26 976.789 Q139.26 978.919 138.45 980.84 Q137.663 982.738 135.556 985.331 Q134.978 986.002 131.876 989.22 Q128.774 992.414 123.126 998.178 Z" fill="#000000" fill-rule="nonzero" fill-opacity="1" /><path clip-path="url(#clip180)" d="M132.316 749.742 Q135.672 750.46 137.547 752.729 Q139.445 754.997 139.445 758.33 Q139.445 763.446 135.927 766.247 Q132.408 769.048 125.927 769.048 Q123.751 769.048 121.436 768.608 Q119.144 768.191 116.691 767.335 L116.691 762.821 Q118.635 763.955 120.95 764.534 Q123.265 765.113 125.788 765.113 Q130.186 765.113 132.478 763.377 Q134.792 761.641 134.792 758.33 Q134.792 755.275 132.64 753.562 Q130.51 751.826 126.691 751.826 L122.663 751.826 L122.663 747.983 L126.876 747.983 Q130.325 747.983 132.154 746.617 Q133.982 745.229 133.982 742.636 Q133.982 739.974 132.084 738.562 Q130.209 737.127 126.691 737.127 Q124.769 737.127 122.57 737.543 Q120.371 737.96 117.732 738.84 L117.732 734.673 Q120.394 733.932 122.709 733.562 Q125.047 733.192 127.107 733.192 Q132.431 733.192 135.533 735.622 Q138.635 738.03 138.635 742.15 Q138.635 745.02 136.992 747.011 Q135.348 748.979 132.316 749.742 Z" fill="#000000" fill-rule="nonzero" fill-opacity="1" /><path clip-path="url(#clip180)" d="M129.862 504.154 L118.056 522.603 L129.862 522.603 L129.862 504.154 M128.635 500.08 L134.515 500.08 L134.515 522.603 L139.445 522.603 L139.445 526.492 L134.515 526.492 L134.515 534.64 L129.862 534.64 L129.862 526.492 L114.26 526.492 L114.26 521.978 L128.635 500.08 Z" fill="#000000" fill-rule="nonzero" fill-opacity="1" /><path clip-path="url(#clip180)" d="M118.543 266.344 L136.899 266.344 L136.899 270.279 L122.825 270.279 L122.825 278.751 Q123.843 278.404 124.862 278.242 Q125.88 278.057 126.899 278.057 Q132.686 278.057 136.066 281.228 Q139.445 284.399 139.445 289.816 Q139.445 295.395 135.973 298.496 Q132.501 301.575 126.181 301.575 Q124.005 301.575 121.737 301.205 Q119.492 300.834 117.084 300.094 L117.084 295.395 Q119.168 296.529 121.39 297.084 Q123.612 297.64 126.089 297.64 Q130.093 297.64 132.431 295.533 Q134.769 293.427 134.769 289.816 Q134.769 286.205 132.431 284.098 Q130.093 281.992 126.089 281.992 Q124.214 281.992 122.339 282.408 Q120.487 282.825 118.543 283.705 L118.543 266.344 Z" fill="#000000" fill-rule="nonzero" fill-opacity="1" /><path clip-path="url(#clip180)" d="M127.917 48.0239 Q124.769 48.0239 122.918 50.1766 Q121.089 52.3294 121.089 56.0794 Q121.089 59.8062 122.918 61.9821 Q124.769 64.1349 127.917 64.1349 Q131.066 64.1349 132.894 61.9821 Q134.746 59.8062 134.746 56.0794 Q134.746 52.3294 132.894 50.1766 Q131.066 48.0239 127.917 48.0239 M137.2 33.3712 L137.2 37.6304 Q135.441 36.7971 133.635 36.3573 Q131.853 35.9175 130.093 35.9175 Q125.464 35.9175 123.01 39.0424 Q120.58 42.1674 120.232 48.4868 Q121.598 46.473 123.658 45.4081 Q125.718 44.3202 128.195 44.3202 Q133.404 44.3202 136.413 47.4915 Q139.445 50.6396 139.445 56.0794 Q139.445 61.4034 136.297 64.621 Q133.149 67.8386 127.917 67.8386 Q121.922 67.8386 118.751 63.2553 Q115.58 58.6488 115.58 49.922 Q115.58 41.7276 119.468 36.8665 Q123.357 31.9823 129.908 31.9823 Q131.667 31.9823 133.45 32.3295 Q135.255 32.6767 137.2 33.3712 Z" fill="#000000" fill-rule="nonzero" fill-opacity="1" /><path clip-path="url(#clip180)" d="M16.4842 755.248 L16.4842 748.341 L36.0269 735.164 L16.4842 722.083 L16.4842 715.176 L41.3741 731.981 L64.0042 731.981 L64.0042 738.443 L41.3741 738.443 L16.4842 755.248 Z" fill="#000000" fill-rule="nonzero" fill-opacity="1" /><circle clip-path="url(#clip182)" cx="237.067" cy="1378.79" r="14.4" fill="#009af9" fill-rule="evenodd" fill-opacity="1" stroke="#000000" stroke-opacity="1" stroke-width="3.2"/>
<circle clip-path="url(#clip182)" cx="439.244" cy="606.352" r="14.4" fill="#009af9" fill-rule="evenodd" fill-opacity="1" stroke="#000000" stroke-opacity="1" stroke-width="3.2"/>
<circle clip-path="url(#clip182)" cx="496.793" cy="571.03" r="14.4" fill="#009af9" fill-rule="evenodd" fill-opacity="1" stroke="#000000" stroke-opacity="1" stroke-width="3.2"/>
<circle clip-path="url(#clip182)" cx="624.585" cy="1384.24" r="14.4" fill="#009af9" fill-rule="evenodd" fill-opacity="1" stroke="#000000" stroke-opacity="1" stroke-width="3.2"/>
<circle clip-path="url(#clip182)" cx="558.509" cy="1033.81" r="14.4" fill="#009af9" fill-rule="evenodd" fill-opacity="1" stroke="#000000" stroke-opacity="1" stroke-width="3.2"/>
<circle clip-path="url(#clip182)" cx="1611.56" cy="794.947" r="14.4" fill="#009af9" fill-rule="evenodd" fill-opacity="1" stroke="#000000" stroke-opacity="1" stroke-width="3.2"/>
<circle clip-path="url(#clip182)" cx="2228.85" cy="663.752" r="14.4" fill="#009af9" fill-rule="evenodd" fill-opacity="1" stroke="#000000" stroke-opacity="1" stroke-width="3.2"/>
<circle clip-path="url(#clip182)" cx="1739.52" cy="86.1857" r="14.4" fill="#009af9" fill-rule="evenodd" fill-opacity="1" stroke="#000000" stroke-opacity="1" stroke-width="3.2"/>
<circle clip-path="url(#clip182)" cx="1759.82" cy="912.882" r="14.4" fill="#009af9" fill-rule="evenodd" fill-opacity="1" stroke="#000000" stroke-opacity="1" stroke-width="3.2"/>
<circle clip-path="url(#clip182)" cx="2291.13" cy="532.577" r="14.4" fill="#009af9" fill-rule="evenodd" fill-opacity="1" stroke="#000000" stroke-opacity="1" stroke-width="3.2"/>
<circle clip-path="url(#clip182)" cx="237.067" cy="1378.79" r="14.4" fill="#e26f46" fill-rule="evenodd" fill-opacity="1" stroke="#000000" stroke-opacity="1" stroke-width="3.2"/>
<circle clip-path="url(#clip182)" cx="468.018" cy="588.691" r="14.4" fill="#e26f46" fill-rule="evenodd" fill-opacity="1" stroke="#000000" stroke-opacity="1" stroke-width="3.2"/>
<circle clip-path="url(#clip182)" cx="468.018" cy="588.691" r="14.4" fill="#e26f46" fill-rule="evenodd" fill-opacity="1" stroke="#000000" stroke-opacity="1" stroke-width="3.2"/>
<circle clip-path="url(#clip182)" cx="624.585" cy="1384.24" r="14.4" fill="#e26f46" fill-rule="evenodd" fill-opacity="1" stroke="#000000" stroke-opacity="1" stroke-width="3.2"/>
<circle clip-path="url(#clip182)" cx="558.509" cy="1033.81" r="14.4" fill="#e26f46" fill-rule="evenodd" fill-opacity="1" stroke="#000000" stroke-opacity="1" stroke-width="3.2"/>
<circle clip-path="url(#clip182)" cx="1611.56" cy="794.947" r="14.4" fill="#e26f46" fill-rule="evenodd" fill-opacity="1" stroke="#000000" stroke-opacity="1" stroke-width="3.2"/>
<circle clip-path="url(#clip182)" cx="2228.85" cy="663.752" r="14.4" fill="#e26f46" fill-rule="evenodd" fill-opacity="1" stroke="#000000" stroke-opacity="1" stroke-width="3.2"/>
<circle clip-path="url(#clip182)" cx="1739.52" cy="86.1857" r="14.4" fill="#e26f46" fill-rule="evenodd" fill-opacity="1" stroke="#000000" stroke-opacity="1" stroke-width="3.2"/>
<circle clip-path="url(#clip182)" cx="1759.82" cy="912.882" r="14.4" fill="#e26f46" fill-rule="evenodd" fill-opacity="1" stroke="#000000" stroke-opacity="1" stroke-width="3.2"/>
<circle clip-path="url(#clip182)" cx="2291.13" cy="532.577" r="14.4" fill="#e26f46" fill-rule="evenodd" fill-opacity="1" stroke="#000000" stroke-opacity="1" stroke-width="3.2"/>
<path clip-path="url(#clip180)" d="M1581.39 248.629 L2280.18 248.629 L2280.18 93.1086 L1581.39 93.1086  Z" fill="#ffffff" fill-rule="evenodd" fill-opacity="1"/>
<polyline clip-path="url(#clip180)" style="stroke:#000000; stroke-linecap:round; stroke-linejoin:round; stroke-width:4; stroke-opacity:1; fill:none" points="1581.39,248.629 2280.18,248.629 2280.18,93.1086 1581.39,93.1086 1581.39,248.629 "/>
<circle clip-path="url(#clip180)" cx="1678.15" cy="144.949" r="20.48" fill="#009af9" fill-rule="evenodd" fill-opacity="1" stroke="#000000" stroke-opacity="1" stroke-width="4.55111"/>
<path clip-path="url(#clip180)" d="M1790.94 130.84 Q1785.85 130.84 1782.84 134.636 Q1779.85 138.432 1779.85 144.983 Q1779.85 151.511 1782.84 155.307 Q1785.85 159.104 1790.94 159.104 Q1796.04 159.104 1799 155.307 Q1801.98 151.511 1801.98 144.983 Q1801.98 138.432 1799 134.636 Q1796.04 130.84 1790.94 130.84 M1790.94 127.044 Q1798.21 127.044 1802.56 131.928 Q1806.91 136.789 1806.91 144.983 Q1806.91 153.155 1802.56 158.039 Q1798.21 162.9 1790.94 162.9 Q1783.65 162.9 1779.28 158.039 Q1774.92 153.178 1774.92 144.983 Q1774.92 136.789 1779.28 131.928 Q1783.65 127.044 1790.94 127.044 Z" fill="#000000" fill-rule="nonzero" fill-opacity="1" /><path clip-path="url(#clip180)" d="M1829.07 140.284 Q1828.35 139.868 1827.49 139.682 Q1826.66 139.474 1825.64 139.474 Q1822.03 139.474 1820.09 141.835 Q1818.16 144.173 1818.16 148.571 L1818.16 162.229 L1813.88 162.229 L1813.88 136.303 L1818.16 136.303 L1818.16 140.331 Q1819.51 137.969 1821.66 136.835 Q1823.81 135.678 1826.89 135.678 Q1827.33 135.678 1827.86 135.747 Q1828.4 135.794 1829.04 135.909 L1829.07 140.284 Z" fill="#000000" fill-rule="nonzero" fill-opacity="1" /><path clip-path="url(#clip180)" d="M1833.54 136.303 L1837.79 136.303 L1837.79 162.229 L1833.54 162.229 L1833.54 136.303 M1833.54 126.21 L1837.79 126.21 L1837.79 131.604 L1833.54 131.604 L1833.54 126.21 Z" fill="#000000" fill-rule="nonzero" fill-opacity="1" /><path clip-path="url(#clip180)" d="M1863.77 148.965 Q1863.77 144.335 1861.85 141.789 Q1859.95 139.243 1856.5 139.243 Q1853.07 139.243 1851.15 141.789 Q1849.25 144.335 1849.25 148.965 Q1849.25 153.571 1851.15 156.118 Q1853.07 158.664 1856.5 158.664 Q1859.95 158.664 1861.85 156.118 Q1863.77 153.571 1863.77 148.965 M1868.03 159.011 Q1868.03 165.631 1865.09 168.849 Q1862.15 172.09 1856.08 172.09 Q1853.84 172.09 1851.85 171.742 Q1849.85 171.418 1847.98 170.724 L1847.98 166.58 Q1849.85 167.599 1851.68 168.085 Q1853.51 168.571 1855.41 168.571 Q1859.6 168.571 1861.68 166.372 Q1863.77 164.196 1863.77 159.775 L1863.77 157.668 Q1862.45 159.96 1860.39 161.094 Q1858.33 162.229 1855.46 162.229 Q1850.69 162.229 1847.77 158.594 Q1844.85 154.96 1844.85 148.965 Q1844.85 142.946 1847.77 139.312 Q1850.69 135.678 1855.46 135.678 Q1858.33 135.678 1860.39 136.812 Q1862.45 137.946 1863.77 140.238 L1863.77 136.303 L1868.03 136.303 L1868.03 159.011 Z" fill="#000000" fill-rule="nonzero" fill-opacity="1" /><path clip-path="url(#clip180)" d="M1876.8 136.303 L1881.06 136.303 L1881.06 162.229 L1876.8 162.229 L1876.8 136.303 M1876.8 126.21 L1881.06 126.21 L1881.06 131.604 L1876.8 131.604 L1876.8 126.21 Z" fill="#000000" fill-rule="nonzero" fill-opacity="1" /><path clip-path="url(#clip180)" d="M1911.52 146.581 L1911.52 162.229 L1907.26 162.229 L1907.26 146.719 Q1907.26 143.039 1905.83 141.21 Q1904.39 139.382 1901.52 139.382 Q1898.07 139.382 1896.08 141.581 Q1894.09 143.78 1894.09 147.576 L1894.09 162.229 L1889.81 162.229 L1889.81 136.303 L1894.09 136.303 L1894.09 140.331 Q1895.62 137.993 1897.68 136.835 Q1899.76 135.678 1902.47 135.678 Q1906.94 135.678 1909.23 138.456 Q1911.52 141.21 1911.52 146.581 Z" fill="#000000" fill-rule="nonzero" fill-opacity="1" /><path clip-path="url(#clip180)" d="M1931.8 149.196 Q1926.64 149.196 1924.65 150.377 Q1922.65 151.557 1922.65 154.405 Q1922.65 156.673 1924.14 158.016 Q1925.64 159.335 1928.21 159.335 Q1931.75 159.335 1933.88 156.835 Q1936.03 154.312 1936.03 150.145 L1936.03 149.196 L1931.8 149.196 M1940.29 147.437 L1940.29 162.229 L1936.03 162.229 L1936.03 158.293 Q1934.58 160.655 1932.4 161.789 Q1930.22 162.9 1927.08 162.9 Q1923.09 162.9 1920.73 160.678 Q1918.4 158.432 1918.4 154.682 Q1918.4 150.307 1921.31 148.085 Q1924.25 145.863 1930.06 145.863 L1936.03 145.863 L1936.03 145.446 Q1936.03 142.507 1934.09 140.909 Q1932.17 139.289 1928.67 139.289 Q1926.45 139.289 1924.34 139.821 Q1922.24 140.354 1920.29 141.419 L1920.29 137.483 Q1922.63 136.581 1924.83 136.141 Q1927.03 135.678 1929.11 135.678 Q1934.74 135.678 1937.52 138.594 Q1940.29 141.511 1940.29 147.437 Z" fill="#000000" fill-rule="nonzero" fill-opacity="1" /><path clip-path="url(#clip180)" d="M1949.07 126.21 L1953.33 126.21 L1953.33 162.229 L1949.07 162.229 L1949.07 126.21 Z" fill="#000000" fill-rule="nonzero" fill-opacity="1" /><path clip-path="url(#clip180)" d="M1994.37 140.238 L1994.37 126.21 L1998.63 126.21 L1998.63 162.229 L1994.37 162.229 L1994.37 158.34 Q1993.02 160.655 1990.96 161.789 Q1988.93 162.9 1986.06 162.9 Q1981.36 162.9 1978.4 159.15 Q1975.46 155.4 1975.46 149.289 Q1975.46 143.178 1978.4 139.428 Q1981.36 135.678 1986.06 135.678 Q1988.93 135.678 1990.96 136.812 Q1993.02 137.923 1994.37 140.238 M1979.85 149.289 Q1979.85 153.988 1981.78 156.673 Q1983.72 159.335 1987.1 159.335 Q1990.48 159.335 1992.42 156.673 Q1994.37 153.988 1994.37 149.289 Q1994.37 144.59 1992.42 141.928 Q1990.48 139.243 1987.1 139.243 Q1983.72 139.243 1981.78 141.928 Q1979.85 144.59 1979.85 149.289 Z" fill="#000000" fill-rule="nonzero" fill-opacity="1" /><path clip-path="url(#clip180)" d="M2019.18 149.196 Q2014.02 149.196 2012.03 150.377 Q2010.04 151.557 2010.04 154.405 Q2010.04 156.673 2011.52 158.016 Q2013.02 159.335 2015.59 159.335 Q2019.14 159.335 2021.27 156.835 Q2023.42 154.312 2023.42 150.145 L2023.42 149.196 L2019.18 149.196 M2027.68 147.437 L2027.68 162.229 L2023.42 162.229 L2023.42 158.293 Q2021.96 160.655 2019.78 161.789 Q2017.61 162.9 2014.46 162.9 Q2010.48 162.9 2008.12 160.678 Q2005.78 158.432 2005.78 154.682 Q2005.78 150.307 2008.7 148.085 Q2011.64 145.863 2017.45 145.863 L2023.42 145.863 L2023.42 145.446 Q2023.42 142.507 2021.47 140.909 Q2019.55 139.289 2016.06 139.289 Q2013.84 139.289 2011.73 139.821 Q2009.62 140.354 2007.68 141.419 L2007.68 137.483 Q2010.02 136.581 2012.21 136.141 Q2014.41 135.678 2016.5 135.678 Q2022.12 135.678 2024.9 138.594 Q2027.68 141.511 2027.68 147.437 Z" fill="#000000" fill-rule="nonzero" fill-opacity="1" /><path clip-path="url(#clip180)" d="M2040.66 128.942 L2040.66 136.303 L2049.44 136.303 L2049.44 139.613 L2040.66 139.613 L2040.66 153.687 Q2040.66 156.858 2041.52 157.761 Q2042.4 158.664 2045.06 158.664 L2049.44 158.664 L2049.44 162.229 L2045.06 162.229 Q2040.13 162.229 2038.26 160.4 Q2036.38 158.548 2036.38 153.687 L2036.38 139.613 L2033.26 139.613 L2033.26 136.303 L2036.38 136.303 L2036.38 128.942 L2040.66 128.942 Z" fill="#000000" fill-rule="nonzero" fill-opacity="1" /><path clip-path="url(#clip180)" d="M2066.82 149.196 Q2061.66 149.196 2059.67 150.377 Q2057.68 151.557 2057.68 154.405 Q2057.68 156.673 2059.16 158.016 Q2060.66 159.335 2063.23 159.335 Q2066.77 159.335 2068.9 156.835 Q2071.06 154.312 2071.06 150.145 L2071.06 149.196 L2066.82 149.196 M2075.32 147.437 L2075.32 162.229 L2071.06 162.229 L2071.06 158.293 Q2069.6 160.655 2067.42 161.789 Q2065.25 162.9 2062.1 162.9 Q2058.12 162.9 2055.76 160.678 Q2053.42 158.432 2053.42 154.682 Q2053.42 150.307 2056.33 148.085 Q2059.27 145.863 2065.08 145.863 L2071.06 145.863 L2071.06 145.446 Q2071.06 142.507 2069.11 140.909 Q2067.19 139.289 2063.7 139.289 Q2061.47 139.289 2059.37 139.821 Q2057.26 140.354 2055.32 141.419 L2055.32 137.483 Q2057.65 136.581 2059.85 136.141 Q2062.05 135.678 2064.14 135.678 Q2069.76 135.678 2072.54 138.594 Q2075.32 141.511 2075.32 147.437 Z" fill="#000000" fill-rule="nonzero" fill-opacity="1" /><circle clip-path="url(#clip180)" cx="1678.15" cy="196.789" r="20.48" fill="#e26f46" fill-rule="evenodd" fill-opacity="1" stroke="#000000" stroke-opacity="1" stroke-width="4.55111"/>
<path clip-path="url(#clip180)" d="M1779.6 183.351 L1779.6 210.226 L1785.25 210.226 Q1792.4 210.226 1795.71 206.985 Q1799.04 203.745 1799.04 196.754 Q1799.04 189.809 1795.71 186.592 Q1792.4 183.351 1785.25 183.351 L1779.6 183.351 M1774.92 179.509 L1784.53 179.509 Q1794.58 179.509 1799.28 183.698 Q1803.98 187.865 1803.98 196.754 Q1803.98 205.689 1799.25 209.879 Q1794.53 214.069 1784.53 214.069 L1774.92 214.069 L1774.92 179.509 Z" fill="#000000" fill-rule="nonzero" fill-opacity="1" /><path clip-path="url(#clip180)" d="M1823.03 201.036 Q1817.86 201.036 1815.87 202.217 Q1813.88 203.397 1813.88 206.245 Q1813.88 208.513 1815.36 209.856 Q1816.87 211.175 1819.44 211.175 Q1822.98 211.175 1825.11 208.675 Q1827.26 206.152 1827.26 201.985 L1827.26 201.036 L1823.03 201.036 M1831.52 199.277 L1831.52 214.069 L1827.26 214.069 L1827.26 210.133 Q1825.8 212.495 1823.63 213.629 Q1821.45 214.74 1818.3 214.74 Q1814.32 214.74 1811.96 212.518 Q1809.62 210.272 1809.62 206.522 Q1809.62 202.147 1812.54 199.925 Q1815.48 197.703 1821.29 197.703 L1827.26 197.703 L1827.26 197.286 Q1827.26 194.347 1825.32 192.749 Q1823.4 191.129 1819.9 191.129 Q1817.68 191.129 1815.57 191.661 Q1813.47 192.194 1811.52 193.259 L1811.52 189.323 Q1813.86 188.421 1816.06 187.981 Q1818.26 187.518 1820.34 187.518 Q1825.97 187.518 1828.74 190.434 Q1831.52 193.351 1831.52 199.277 Z" fill="#000000" fill-rule="nonzero" fill-opacity="1" /><path clip-path="url(#clip180)" d="M1844.51 180.782 L1844.51 188.143 L1853.28 188.143 L1853.28 191.453 L1844.51 191.453 L1844.51 205.527 Q1844.51 208.698 1845.36 209.601 Q1846.24 210.504 1848.91 210.504 L1853.28 210.504 L1853.28 214.069 L1848.91 214.069 Q1843.97 214.069 1842.1 212.24 Q1840.22 210.388 1840.22 205.527 L1840.22 191.453 L1837.1 191.453 L1837.1 188.143 L1840.22 188.143 L1840.22 180.782 L1844.51 180.782 Z" fill="#000000" fill-rule="nonzero" fill-opacity="1" /><path clip-path="url(#clip180)" d="M1870.66 201.036 Q1865.5 201.036 1863.51 202.217 Q1861.52 203.397 1861.52 206.245 Q1861.52 208.513 1863 209.856 Q1864.51 211.175 1867.08 211.175 Q1870.62 211.175 1872.75 208.675 Q1874.9 206.152 1874.9 201.985 L1874.9 201.036 L1870.66 201.036 M1879.16 199.277 L1879.16 214.069 L1874.9 214.069 L1874.9 210.133 Q1873.44 212.495 1871.27 213.629 Q1869.09 214.74 1865.94 214.74 Q1861.96 214.74 1859.6 212.518 Q1857.26 210.272 1857.26 206.522 Q1857.26 202.147 1860.18 199.925 Q1863.12 197.703 1868.93 197.703 L1874.9 197.703 L1874.9 197.286 Q1874.9 194.347 1872.96 192.749 Q1871.03 191.129 1867.54 191.129 Q1865.32 191.129 1863.21 191.661 Q1861.1 192.194 1859.16 193.259 L1859.16 189.323 Q1861.5 188.421 1863.7 187.981 Q1865.9 187.518 1867.98 187.518 Q1873.6 187.518 1876.38 190.434 Q1879.16 193.351 1879.16 199.277 Z" fill="#000000" fill-rule="nonzero" fill-opacity="1" /><path clip-path="url(#clip180)" d="M1914.78 201.036 Q1909.62 201.036 1907.63 202.217 Q1905.64 203.397 1905.64 206.245 Q1905.64 208.513 1907.12 209.856 Q1908.63 211.175 1911.2 211.175 Q1914.74 211.175 1916.87 208.675 Q1919.02 206.152 1919.02 201.985 L1919.02 201.036 L1914.78 201.036 M1923.28 199.277 L1923.28 214.069 L1919.02 214.069 L1919.02 210.133 Q1917.56 212.495 1915.39 213.629 Q1913.21 214.74 1910.06 214.74 Q1906.08 214.74 1903.72 212.518 Q1901.38 210.272 1901.38 206.522 Q1901.38 202.147 1904.3 199.925 Q1907.24 197.703 1913.05 197.703 L1919.02 197.703 L1919.02 197.286 Q1919.02 194.347 1917.08 192.749 Q1915.16 191.129 1911.66 191.129 Q1909.44 191.129 1907.33 191.661 Q1905.22 192.194 1903.28 193.259 L1903.28 189.323 Q1905.62 188.421 1907.82 187.981 Q1910.02 187.518 1912.1 187.518 Q1917.72 187.518 1920.5 190.434 Q1923.28 193.351 1923.28 199.277 Z" fill="#000000" fill-rule="nonzero" fill-opacity="1" /><path clip-path="url(#clip180)" d="M1945.18 178.05 L1945.18 181.592 L1941.1 181.592 Q1938.81 181.592 1937.91 182.518 Q1937.03 183.444 1937.03 185.851 L1937.03 188.143 L1944.04 188.143 L1944.04 191.453 L1937.03 191.453 L1937.03 214.069 L1932.75 214.069 L1932.75 191.453 L1928.67 191.453 L1928.67 188.143 L1932.75 188.143 L1932.75 186.337 Q1932.75 182.009 1934.76 180.041 Q1936.78 178.05 1941.15 178.05 L1945.18 178.05 Z" fill="#000000" fill-rule="nonzero" fill-opacity="1" /><path clip-path="url(#clip180)" d="M1952.12 180.782 L1952.12 188.143 L1960.9 188.143 L1960.9 191.453 L1952.12 191.453 L1952.12 205.527 Q1952.12 208.698 1952.98 209.601 Q1953.86 210.504 1956.52 210.504 L1960.9 210.504 L1960.9 214.069 L1956.52 214.069 Q1951.59 214.069 1949.72 212.24 Q1947.84 210.388 1947.84 205.527 L1947.84 191.453 L1944.72 191.453 L1944.72 188.143 L1947.84 188.143 L1947.84 180.782 L1952.12 180.782 Z" fill="#000000" fill-rule="nonzero" fill-opacity="1" /><path clip-path="url(#clip180)" d="M1988.67 200.041 L1988.67 202.124 L1969.09 202.124 Q1969.37 206.522 1971.73 208.837 Q1974.11 211.129 1978.35 211.129 Q1980.8 211.129 1983.09 210.527 Q1985.41 209.925 1987.68 208.721 L1987.68 212.749 Q1985.39 213.721 1982.98 214.231 Q1980.57 214.74 1978.09 214.74 Q1971.89 214.74 1968.26 211.129 Q1964.65 207.518 1964.65 201.36 Q1964.65 194.995 1968.07 191.268 Q1971.52 187.518 1977.35 187.518 Q1982.59 187.518 1985.62 190.897 Q1988.67 194.254 1988.67 200.041 M1984.41 198.791 Q1984.37 195.296 1982.45 193.212 Q1980.55 191.129 1977.4 191.129 Q1973.84 191.129 1971.68 193.143 Q1969.55 195.157 1969.23 198.814 L1984.41 198.791 Z" fill="#000000" fill-rule="nonzero" fill-opacity="1" /><path clip-path="url(#clip180)" d="M2010.69 192.124 Q2009.97 191.708 2009.11 191.522 Q2008.28 191.314 2007.26 191.314 Q2003.65 191.314 2001.71 193.675 Q1999.78 196.013 1999.78 200.411 L1999.78 214.069 L1995.5 214.069 L1995.5 188.143 L1999.78 188.143 L1999.78 192.171 Q2001.13 189.809 2003.28 188.675 Q2005.43 187.518 2008.51 187.518 Q2008.95 187.518 2009.48 187.587 Q2010.02 187.634 2010.66 187.749 L2010.69 192.124 Z" fill="#000000" fill-rule="nonzero" fill-opacity="1" /><path clip-path="url(#clip180)" d="M2048.88 189.138 L2048.88 193.12 Q2047.08 192.124 2045.25 191.638 Q2043.44 191.129 2041.59 191.129 Q2037.45 191.129 2035.15 193.768 Q2032.86 196.384 2032.86 201.129 Q2032.86 205.874 2035.15 208.513 Q2037.45 211.129 2041.59 211.129 Q2043.44 211.129 2045.25 210.643 Q2047.08 210.133 2048.88 209.138 L2048.88 213.073 Q2047.1 213.907 2045.18 214.323 Q2043.28 214.74 2041.13 214.74 Q2035.27 214.74 2031.82 211.059 Q2028.37 207.379 2028.37 201.129 Q2028.37 194.786 2031.84 191.152 Q2035.34 187.518 2041.4 187.518 Q2043.37 187.518 2045.25 187.935 Q2047.12 188.328 2048.88 189.138 Z" fill="#000000" fill-rule="nonzero" fill-opacity="1" /><path clip-path="url(#clip180)" d="M2056.29 178.05 L2060.55 178.05 L2060.55 214.069 L2056.29 214.069 L2056.29 178.05 Z" fill="#000000" fill-rule="nonzero" fill-opacity="1" /><path clip-path="url(#clip180)" d="M2069.02 203.837 L2069.02 188.143 L2073.28 188.143 L2073.28 203.675 Q2073.28 207.356 2074.71 209.208 Q2076.15 211.036 2079.02 211.036 Q2082.47 211.036 2084.46 208.837 Q2086.47 206.638 2086.47 202.842 L2086.47 188.143 L2090.73 188.143 L2090.73 214.069 L2086.47 214.069 L2086.47 210.087 Q2084.92 212.448 2082.86 213.606 Q2080.83 214.74 2078.12 214.74 Q2073.65 214.74 2071.33 211.962 Q2069.02 209.184 2069.02 203.837 M2079.74 187.518 L2079.74 187.518 Z" fill="#000000" fill-rule="nonzero" fill-opacity="1" /><path clip-path="url(#clip180)" d="M2116.03 188.907 L2116.03 192.934 Q2114.23 192.009 2112.28 191.546 Q2110.34 191.083 2108.26 191.083 Q2105.08 191.083 2103.49 192.055 Q2101.91 193.027 2101.91 194.971 Q2101.91 196.453 2103.05 197.309 Q2104.18 198.143 2107.61 198.907 L2109.07 199.231 Q2113.6 200.203 2115.5 201.985 Q2117.42 203.745 2117.42 206.916 Q2117.42 210.527 2114.55 212.633 Q2111.7 214.74 2106.7 214.74 Q2104.62 214.74 2102.35 214.323 Q2100.11 213.93 2097.61 213.12 L2097.61 208.721 Q2099.97 209.948 2102.26 210.573 Q2104.55 211.175 2106.8 211.175 Q2109.81 211.175 2111.43 210.157 Q2113.05 209.115 2113.05 207.24 Q2113.05 205.504 2111.87 204.578 Q2110.71 203.652 2106.75 202.796 L2105.27 202.448 Q2101.31 201.615 2099.55 199.902 Q2097.79 198.166 2097.79 195.157 Q2097.79 191.499 2100.39 189.509 Q2102.98 187.518 2107.75 187.518 Q2110.11 187.518 2112.19 187.865 Q2114.27 188.212 2116.03 188.907 Z" fill="#000000" fill-rule="nonzero" fill-opacity="1" /><path clip-path="url(#clip180)" d="M2128.42 180.782 L2128.42 188.143 L2137.19 188.143 L2137.19 191.453 L2128.42 191.453 L2128.42 205.527 Q2128.42 208.698 2129.27 209.601 Q2130.15 210.504 2132.82 210.504 L2137.19 210.504 L2137.19 214.069 L2132.82 214.069 Q2127.89 214.069 2126.01 212.24 Q2124.14 210.388 2124.14 205.527 L2124.14 191.453 L2121.01 191.453 L2121.01 188.143 L2124.14 188.143 L2124.14 180.782 L2128.42 180.782 Z" fill="#000000" fill-rule="nonzero" fill-opacity="1" /><path clip-path="url(#clip180)" d="M2164.97 200.041 L2164.97 202.124 L2145.39 202.124 Q2145.66 206.522 2148.02 208.837 Q2150.41 211.129 2154.64 211.129 Q2157.1 211.129 2159.39 210.527 Q2161.7 209.925 2163.97 208.721 L2163.97 212.749 Q2161.68 213.721 2159.27 214.231 Q2156.87 214.74 2154.39 214.74 Q2148.19 214.74 2144.55 211.129 Q2140.94 207.518 2140.94 201.36 Q2140.94 194.995 2144.37 191.268 Q2147.82 187.518 2153.65 187.518 Q2158.88 187.518 2161.91 190.897 Q2164.97 194.254 2164.97 200.041 M2160.71 198.791 Q2160.66 195.296 2158.74 193.212 Q2156.84 191.129 2153.7 191.129 Q2150.13 191.129 2147.98 193.143 Q2145.85 195.157 2145.52 198.814 L2160.71 198.791 Z" fill="#000000" fill-rule="nonzero" fill-opacity="1" /><path clip-path="url(#clip180)" d="M2186.98 192.124 Q2186.26 191.708 2185.41 191.522 Q2184.57 191.314 2183.56 191.314 Q2179.95 191.314 2178 193.675 Q2176.08 196.013 2176.08 200.411 L2176.08 214.069 L2171.8 214.069 L2171.8 188.143 L2176.08 188.143 L2176.08 192.171 Q2177.42 189.809 2179.57 188.675 Q2181.73 187.518 2184.81 187.518 Q2185.25 187.518 2185.78 187.587 Q2186.31 187.634 2186.96 187.749 L2186.98 192.124 Z" fill="#000000" fill-rule="nonzero" fill-opacity="1" /><path clip-path="url(#clip180)" d="M2191.45 188.143 L2195.71 188.143 L2195.71 214.069 L2191.45 214.069 L2191.45 188.143 M2191.45 178.05 L2195.71 178.05 L2195.71 183.444 L2191.45 183.444 L2191.45 178.05 Z" fill="#000000" fill-rule="nonzero" fill-opacity="1" /><path clip-path="url(#clip180)" d="M2226.17 198.421 L2226.17 214.069 L2221.91 214.069 L2221.91 198.559 Q2221.91 194.879 2220.48 193.05 Q2219.04 191.222 2216.17 191.222 Q2212.72 191.222 2210.73 193.421 Q2208.74 195.62 2208.74 199.416 L2208.74 214.069 L2204.46 214.069 L2204.46 188.143 L2208.74 188.143 L2208.74 192.171 Q2210.27 189.833 2212.33 188.675 Q2214.41 187.518 2217.12 187.518 Q2221.59 187.518 2223.88 190.296 Q2226.17 193.05 2226.17 198.421 Z" fill="#000000" fill-rule="nonzero" fill-opacity="1" /><path clip-path="url(#clip180)" d="M2251.73 200.805 Q2251.73 196.175 2249.81 193.629 Q2247.91 191.083 2244.46 191.083 Q2241.03 191.083 2239.11 193.629 Q2237.21 196.175 2237.21 200.805 Q2237.21 205.411 2239.11 207.958 Q2241.03 210.504 2244.46 210.504 Q2247.91 210.504 2249.81 207.958 Q2251.73 205.411 2251.73 200.805 M2255.99 210.851 Q2255.99 217.471 2253.05 220.689 Q2250.11 223.93 2244.04 223.93 Q2241.8 223.93 2239.81 223.582 Q2237.82 223.258 2235.94 222.564 L2235.94 218.42 Q2237.82 219.439 2239.64 219.925 Q2241.47 220.411 2243.37 220.411 Q2247.56 220.411 2249.64 218.212 Q2251.73 216.036 2251.73 211.615 L2251.73 209.508 Q2250.41 211.8 2248.35 212.934 Q2246.29 214.069 2243.42 214.069 Q2238.65 214.069 2235.73 210.434 Q2232.82 206.8 2232.82 200.805 Q2232.82 194.786 2235.73 191.152 Q2238.65 187.518 2243.42 187.518 Q2246.29 187.518 2248.35 188.652 Q2250.41 189.786 2251.73 192.078 L2251.73 188.143 L2255.99 188.143 L2255.99 210.851 Z" fill="#000000" fill-rule="nonzero" fill-opacity="1" /></svg>
