<?xml version="1.0" encoding="utf-8"?>
<svg xmlns="http://www.w3.org/2000/svg" xmlns:xlink="http://www.w3.org/1999/xlink" width="600" height="400" viewBox="0 0 2400 1600">
<defs>
  <clipPath id="clip990">
    <rect x="0" y="0" width="2400" height="1600"/>
  </clipPath>
</defs>
<path clip-path="url(#clip990)" d="M0 1600 L2400 1600 L2400 0 L0 0  Z" fill="#ffffff" fill-rule="evenodd" fill-opacity="1"/>
<defs>
  <clipPath id="clip991">
    <rect x="480" y="0" width="1681" height="1600"/>
  </clipPath>
</defs>
<path clip-path="url(#clip990)" d="M112.177 1486.45 L2352.76 1486.45 L2352.76 47.2441 L112.177 47.2441  Z" fill="#ffffff" fill-rule="evenodd" fill-opacity="1"/>
<defs>
  <clipPath id="clip992">
    <rect x="112" y="47" width="2242" height="1440"/>
  </clipPath>
</defs>
<polyline clip-path="url(#clip992)" style="stroke:#000000; stroke-linecap:round; stroke-linejoin:round; stroke-width:2; stroke-opacity:0.1; fill:none" points="112.177,1486.45 2352.76,1486.45 "/>
<polyline clip-path="url(#clip992)" style="stroke:#000000; stroke-linecap:round; stroke-linejoin:round; stroke-width:2; stroke-opacity:0.1; fill:none" points="112.177,1239.46 2352.76,1239.46 "/>
<polyline clip-path="url(#clip992)" style="stroke:#000000; stroke-linecap:round; stroke-linejoin:round; stroke-width:2; stroke-opacity:0.1; fill:none" points="112.177,992.464 2352.76,992.464 "/>
<polyline clip-path="url(#clip992)" style="stroke:#000000; stroke-linecap:round; stroke-linejoin:round; stroke-width:2; stroke-opacity:0.1; fill:none" points="112.177,745.471 2352.76,745.471 "/>
<polyline clip-path="url(#clip992)" style="stroke:#000000; stroke-linecap:round; stroke-linejoin:round; stroke-width:2; stroke-opacity:0.1; fill:none" points="112.177,498.479 2352.76,498.479 "/>
<polyline clip-path="url(#clip992)" style="stroke:#000000; stroke-linecap:round; stroke-linejoin:round; stroke-width:2; stroke-opacity:0.1; fill:none" points="112.177,251.487 2352.76,251.487 "/>
<polyline clip-path="url(#clip990)" style="stroke:#000000; stroke-linecap:round; stroke-linejoin:round; stroke-width:4; stroke-opacity:1; fill:none" points="112.177,1486.45 2352.76,1486.45 "/>
<polyline clip-path="url(#clip990)" style="stroke:#ffffff; stroke-linecap:round; stroke-linejoin:round; stroke-width:4; stroke-opacity:1; fill:none" points="224.206,1486.45 224.206,1467.55 "/>
<polyline clip-path="url(#clip990)" style="stroke:#ffffff; stroke-linecap:round; stroke-linejoin:round; stroke-width:4; stroke-opacity:1; fill:none" points="448.264,1486.45 448.264,1467.55 "/>
<polyline clip-path="url(#clip990)" style="stroke:#ffffff; stroke-linecap:round; stroke-linejoin:round; stroke-width:4; stroke-opacity:1; fill:none" points="672.322,1486.45 672.322,1467.55 "/>
<polyline clip-path="url(#clip990)" style="stroke:#ffffff; stroke-linecap:round; stroke-linejoin:round; stroke-width:4; stroke-opacity:1; fill:none" points="896.38,1486.45 896.38,1467.55 "/>
<polyline clip-path="url(#clip990)" style="stroke:#ffffff; stroke-linecap:round; stroke-linejoin:round; stroke-width:4; stroke-opacity:1; fill:none" points="1120.44,1486.45 1120.44,1467.55 "/>
<polyline clip-path="url(#clip990)" style="stroke:#ffffff; stroke-linecap:round; stroke-linejoin:round; stroke-width:4; stroke-opacity:1; fill:none" points="1344.5,1486.45 1344.5,1467.55 "/>
<polyline clip-path="url(#clip990)" style="stroke:#ffffff; stroke-linecap:round; stroke-linejoin:round; stroke-width:4; stroke-opacity:1; fill:none" points="1568.55,1486.45 1568.55,1467.55 "/>
<polyline clip-path="url(#clip990)" style="stroke:#ffffff; stroke-linecap:round; stroke-linejoin:round; stroke-width:4; stroke-opacity:1; fill:none" points="1792.61,1486.45 1792.61,1467.55 "/>
<polyline clip-path="url(#clip990)" style="stroke:#ffffff; stroke-linecap:round; stroke-linejoin:round; stroke-width:4; stroke-opacity:1; fill:none" points="2016.67,1486.45 2016.67,1467.55 "/>
<polyline clip-path="url(#clip990)" style="stroke:#ffffff; stroke-linecap:round; stroke-linejoin:round; stroke-width:4; stroke-opacity:1; fill:none" points="2240.73,1486.45 2240.73,1467.55 "/>
<path clip-path="url(#clip990)" d="M213.095 1514.29 L235.317 1514.29 L235.317 1516.28 L222.771 1548.85 L217.887 1548.85 L229.692 1518.22 L213.095 1518.22 L213.095 1514.29 Z" fill="#000000" fill-rule="nonzero" fill-opacity="1" /><path clip-path="url(#clip990)" d="M438.565 1548.13 L438.565 1543.87 Q440.324 1544.7 442.13 1545.14 Q443.935 1545.58 445.671 1545.58 Q450.301 1545.58 452.732 1542.48 Q455.185 1539.36 455.532 1533.01 Q454.19 1535.01 452.13 1536.07 Q450.07 1537.13 447.57 1537.13 Q442.384 1537.13 439.352 1534.01 Q436.343 1530.86 436.343 1525.42 Q436.343 1520.1 439.491 1516.88 Q442.639 1513.66 447.87 1513.66 Q453.866 1513.66 457.014 1518.27 Q460.185 1522.85 460.185 1531.6 Q460.185 1539.77 456.296 1544.66 Q452.431 1549.52 445.88 1549.52 Q444.12 1549.52 442.315 1549.17 Q440.509 1548.82 438.565 1548.13 M447.87 1533.48 Q451.019 1533.48 452.847 1531.32 Q454.699 1529.17 454.699 1525.42 Q454.699 1521.7 452.847 1519.54 Q451.019 1517.37 447.87 1517.37 Q444.722 1517.37 442.87 1519.54 Q441.042 1521.7 441.042 1525.42 Q441.042 1529.17 442.87 1531.32 Q444.722 1533.48 447.87 1533.48 Z" fill="#000000" fill-rule="nonzero" fill-opacity="1" /><path clip-path="url(#clip990)" d="M672.727 1529.7 Q669.579 1529.7 667.727 1531.86 Q665.898 1534.01 665.898 1537.76 Q665.898 1541.49 667.727 1543.66 Q669.579 1545.82 672.727 1545.82 Q675.875 1545.82 677.704 1543.66 Q679.556 1541.49 679.556 1537.76 Q679.556 1534.01 677.704 1531.86 Q675.875 1529.7 672.727 1529.7 M682.009 1515.05 L682.009 1519.31 Q680.25 1518.48 678.445 1518.04 Q676.662 1517.6 674.903 1517.6 Q670.273 1517.6 667.82 1520.72 Q665.389 1523.85 665.042 1530.17 Q666.408 1528.15 668.468 1527.09 Q670.528 1526 673.005 1526 Q678.213 1526 681.222 1529.17 Q684.255 1532.32 684.255 1537.76 Q684.255 1543.08 681.107 1546.3 Q677.958 1549.52 672.727 1549.52 Q666.732 1549.52 663.56 1544.94 Q660.389 1540.33 660.389 1531.6 Q660.389 1523.41 664.278 1518.55 Q668.167 1513.66 674.718 1513.66 Q676.477 1513.66 678.259 1514.01 Q680.065 1514.36 682.009 1515.05 Z" fill="#000000" fill-rule="nonzero" fill-opacity="1" /><path clip-path="url(#clip990)" d="M871.067 1544.91 L878.706 1544.91 L878.706 1518.55 L870.396 1520.21 L870.396 1515.95 L878.66 1514.29 L883.336 1514.29 L883.336 1544.91 L890.975 1544.91 L890.975 1548.85 L871.067 1548.85 L871.067 1544.91 Z" fill="#000000" fill-rule="nonzero" fill-opacity="1" /><path clip-path="url(#clip990)" d="M910.419 1517.37 Q906.808 1517.37 904.979 1520.93 Q903.174 1524.47 903.174 1531.6 Q903.174 1538.71 904.979 1542.27 Q906.808 1545.82 910.419 1545.82 Q914.053 1545.82 915.859 1542.27 Q917.687 1538.71 917.687 1531.6 Q917.687 1524.47 915.859 1520.93 Q914.053 1517.37 910.419 1517.37 M910.419 1513.66 Q916.229 1513.66 919.285 1518.27 Q922.363 1522.85 922.363 1531.6 Q922.363 1540.33 919.285 1544.94 Q916.229 1549.52 910.419 1549.52 Q904.609 1549.52 901.53 1544.94 Q898.475 1540.33 898.475 1531.6 Q898.475 1522.85 901.53 1518.27 Q904.609 1513.66 910.419 1513.66 Z" fill="#000000" fill-rule="nonzero" fill-opacity="1" /><path clip-path="url(#clip990)" d="M1115.09 1544.91 L1131.41 1544.91 L1131.41 1548.85 L1109.47 1548.85 L1109.47 1544.91 Q1112.13 1542.16 1116.71 1537.53 Q1121.32 1532.88 1122.5 1531.53 Q1124.74 1529.01 1125.62 1527.27 Q1126.53 1525.51 1126.53 1523.82 Q1126.53 1521.07 1124.58 1519.33 Q1122.66 1517.6 1119.56 1517.6 Q1117.36 1517.6 1114.91 1518.36 Q1112.47 1519.13 1109.7 1520.68 L1109.7 1515.95 Q1112.52 1514.82 1114.97 1514.24 Q1117.43 1513.66 1119.47 1513.66 Q1124.84 1513.66 1128.03 1516.35 Q1131.22 1519.03 1131.22 1523.52 Q1131.22 1525.65 1130.41 1527.57 Q1129.63 1529.47 1127.52 1532.07 Q1126.94 1532.74 1123.84 1535.95 Q1120.74 1539.15 1115.09 1544.91 Z" fill="#000000" fill-rule="nonzero" fill-opacity="1" /><path clip-path="url(#clip990)" d="M1334.77 1514.29 L1353.13 1514.29 L1353.13 1518.22 L1339.06 1518.22 L1339.06 1526.7 Q1340.07 1526.35 1341.09 1526.19 Q1342.11 1526 1343.13 1526 Q1348.92 1526 1352.3 1529.17 Q1355.68 1532.34 1355.68 1537.76 Q1355.68 1543.34 1352.2 1546.44 Q1348.73 1549.52 1342.41 1549.52 Q1340.24 1549.52 1337.97 1549.15 Q1335.72 1548.78 1333.31 1548.04 L1333.31 1543.34 Q1335.4 1544.47 1337.62 1545.03 Q1339.84 1545.58 1342.32 1545.58 Q1346.32 1545.58 1348.66 1543.48 Q1351 1541.37 1351 1537.76 Q1351 1534.15 1348.66 1532.04 Q1346.32 1529.94 1342.32 1529.94 Q1340.44 1529.94 1338.57 1530.35 Q1336.72 1530.77 1334.77 1531.65 L1334.77 1514.29 Z" fill="#000000" fill-rule="nonzero" fill-opacity="1" /><path clip-path="url(#clip990)" d="M1568.55 1532.44 Q1565.22 1532.44 1563.3 1534.22 Q1561.4 1536 1561.4 1539.13 Q1561.4 1542.25 1563.3 1544.03 Q1565.22 1545.82 1568.55 1545.82 Q1571.89 1545.82 1573.81 1544.03 Q1575.73 1542.23 1575.73 1539.13 Q1575.73 1536 1573.81 1534.22 Q1571.91 1532.44 1568.55 1532.44 M1563.88 1530.45 Q1560.87 1529.7 1559.18 1527.64 Q1557.51 1525.58 1557.51 1522.62 Q1557.51 1518.48 1560.45 1516.07 Q1563.41 1513.66 1568.55 1513.66 Q1573.72 1513.66 1576.66 1516.07 Q1579.59 1518.48 1579.59 1522.62 Q1579.59 1525.58 1577.91 1527.64 Q1576.24 1529.7 1573.25 1530.45 Q1576.63 1531.23 1578.51 1533.52 Q1580.41 1535.82 1580.41 1539.13 Q1580.41 1544.15 1577.33 1546.83 Q1574.27 1549.52 1568.55 1549.52 Q1562.84 1549.52 1559.76 1546.83 Q1556.7 1544.15 1556.7 1539.13 Q1556.7 1535.82 1558.6 1533.52 Q1560.5 1531.23 1563.88 1530.45 M1562.16 1523.06 Q1562.16 1525.75 1563.83 1527.25 Q1565.52 1528.76 1568.55 1528.76 Q1571.56 1528.76 1573.25 1527.25 Q1574.97 1525.75 1574.97 1523.06 Q1574.97 1520.38 1573.25 1518.87 Q1571.56 1517.37 1568.55 1517.37 Q1565.52 1517.37 1563.83 1518.87 Q1562.16 1520.38 1562.16 1523.06 Z" fill="#000000" fill-rule="nonzero" fill-opacity="1" /><path clip-path="url(#clip990)" d="M1795.62 1518.36 L1783.81 1536.81 L1795.62 1536.81 L1795.62 1518.36 M1794.39 1514.29 L1800.27 1514.29 L1800.27 1536.81 L1805.2 1536.81 L1805.2 1540.7 L1800.27 1540.7 L1800.27 1548.85 L1795.62 1548.85 L1795.62 1540.7 L1780.02 1540.7 L1780.02 1536.19 L1794.39 1514.29 Z" fill="#000000" fill-rule="nonzero" fill-opacity="1" /><path clip-path="url(#clip990)" d="M2007.05 1544.91 L2014.69 1544.91 L2014.69 1518.55 L2006.38 1520.21 L2006.38 1515.95 L2014.64 1514.29 L2019.32 1514.29 L2019.32 1544.91 L2026.96 1544.91 L2026.96 1548.85 L2007.05 1548.85 L2007.05 1544.91 Z" fill="#000000" fill-rule="nonzero" fill-opacity="1" /><path clip-path="url(#clip990)" d="M2244.97 1530.21 Q2248.33 1530.93 2250.21 1533.2 Q2252.1 1535.47 2252.1 1538.8 Q2252.1 1543.92 2248.59 1546.72 Q2245.07 1549.52 2238.59 1549.52 Q2236.41 1549.52 2234.1 1549.08 Q2231.8 1548.66 2229.35 1547.81 L2229.35 1543.29 Q2231.29 1544.43 2233.61 1545.01 Q2235.92 1545.58 2238.45 1545.58 Q2242.85 1545.58 2245.14 1543.85 Q2247.45 1542.11 2247.45 1538.8 Q2247.45 1535.75 2245.3 1534.03 Q2243.17 1532.3 2239.35 1532.3 L2235.32 1532.3 L2235.32 1528.45 L2239.53 1528.45 Q2242.98 1528.45 2244.81 1527.09 Q2246.64 1525.7 2246.64 1523.11 Q2246.64 1520.45 2244.74 1519.03 Q2242.87 1517.6 2239.35 1517.6 Q2237.43 1517.6 2235.23 1518.01 Q2233.03 1518.43 2230.39 1519.31 L2230.39 1515.14 Q2233.05 1514.4 2235.37 1514.03 Q2237.71 1513.66 2239.77 1513.66 Q2245.09 1513.66 2248.19 1516.09 Q2251.29 1518.5 2251.29 1522.62 Q2251.29 1525.49 2249.65 1527.48 Q2248.01 1529.45 2244.97 1530.21 Z" fill="#000000" fill-rule="nonzero" fill-opacity="1" /><polyline clip-path="url(#clip990)" style="stroke:#000000; stroke-linecap:round; stroke-linejoin:round; stroke-width:4; stroke-opacity:1; fill:none" points="112.177,1486.45 112.177,47.2441 "/>
<polyline clip-path="url(#clip990)" style="stroke:#000000; stroke-linecap:round; stroke-linejoin:round; stroke-width:4; stroke-opacity:1; fill:none" points="112.177,1486.45 131.075,1486.45 "/>
<polyline clip-path="url(#clip990)" style="stroke:#000000; stroke-linecap:round; stroke-linejoin:round; stroke-width:4; stroke-opacity:1; fill:none" points="112.177,1239.46 131.075,1239.46 "/>
<polyline clip-path="url(#clip990)" style="stroke:#000000; stroke-linecap:round; stroke-linejoin:round; stroke-width:4; stroke-opacity:1; fill:none" points="112.177,992.464 131.075,992.464 "/>
<polyline clip-path="url(#clip990)" style="stroke:#000000; stroke-linecap:round; stroke-linejoin:round; stroke-width:4; stroke-opacity:1; fill:none" points="112.177,745.471 131.075,745.471 "/>
<polyline clip-path="url(#clip990)" style="stroke:#000000; stroke-linecap:round; stroke-linejoin:round; stroke-width:4; stroke-opacity:1; fill:none" points="112.177,498.479 131.075,498.479 "/>
<polyline clip-path="url(#clip990)" style="stroke:#000000; stroke-linecap:round; stroke-linejoin:round; stroke-width:4; stroke-opacity:1; fill:none" points="112.177,251.487 131.075,251.487 "/>
<path clip-path="url(#clip990)" d="M64.2328 1472.25 Q60.6217 1472.25 58.793 1475.81 Q56.9875 1479.35 56.9875 1486.48 Q56.9875 1493.59 58.793 1497.15 Q60.6217 1500.7 64.2328 1500.7 Q67.867 1500.7 69.6726 1497.15 Q71.5013 1493.59 71.5013 1486.48 Q71.5013 1479.35 69.6726 1475.81 Q67.867 1472.25 64.2328 1472.25 M64.2328 1468.54 Q70.0429 1468.54 73.0985 1473.15 Q76.1772 1477.73 76.1772 1486.48 Q76.1772 1495.21 73.0985 1499.82 Q70.0429 1504.4 64.2328 1504.4 Q58.4226 1504.4 55.344 1499.82 Q52.2884 1495.21 52.2884 1486.48 Q52.2884 1477.73 55.344 1473.15 Q58.4226 1468.54 64.2328 1468.54 Z" fill="#000000" fill-rule="nonzero" fill-opacity="1" /><path clip-path="url(#clip990)" d="M56.2699 1252.8 L63.9087 1252.8 L63.9087 1226.43 L55.5986 1228.1 L55.5986 1223.84 L63.8624 1222.18 L68.5383 1222.18 L68.5383 1252.8 L76.1772 1252.8 L76.1772 1256.74 L56.2699 1256.74 L56.2699 1252.8 Z" fill="#000000" fill-rule="nonzero" fill-opacity="1" /><path clip-path="url(#clip990)" d="M59.8578 1005.81 L76.1772 1005.81 L76.1772 1009.74 L54.2328 1009.74 L54.2328 1005.81 Q56.8949 1003.05 61.4782 998.424 Q66.0846 993.771 67.2652 992.429 Q69.5105 989.906 70.3902 988.17 Q71.2929 986.41 71.2929 984.721 Q71.2929 981.966 69.3485 980.23 Q67.4272 978.494 64.3254 978.494 Q62.1263 978.494 59.6726 979.258 Q57.2421 980.022 54.4643 981.572 L54.4643 976.85 Q57.2884 975.716 59.7421 975.137 Q62.1958 974.559 64.2328 974.559 Q69.6031 974.559 72.7976 977.244 Q75.992 979.929 75.992 984.42 Q75.992 986.549 75.1818 988.471 Q74.3948 990.369 72.2883 992.961 Q71.7096 993.633 68.6078 996.85 Q65.5059 1000.04 59.8578 1005.81 Z" fill="#000000" fill-rule="nonzero" fill-opacity="1" /><path clip-path="url(#clip990)" d="M69.0476 744.117 Q72.404 744.835 74.279 747.103 Q76.1772 749.372 76.1772 752.705 Q76.1772 757.821 72.6587 760.622 Q69.1402 763.423 62.6587 763.423 Q60.4828 763.423 58.168 762.983 Q55.8764 762.566 53.4227 761.71 L53.4227 757.196 Q55.3671 758.33 57.6819 758.909 Q59.9967 759.488 62.5198 759.488 Q66.918 759.488 69.2096 757.751 Q71.5244 756.015 71.5244 752.705 Q71.5244 749.65 69.3717 747.937 Q67.242 746.201 63.4226 746.201 L59.3949 746.201 L59.3949 742.358 L63.6078 742.358 Q67.0569 742.358 68.8855 740.992 Q70.7142 739.603 70.7142 737.011 Q70.7142 734.349 68.8161 732.937 Q66.9411 731.502 63.4226 731.502 Q61.5013 731.502 59.3023 731.918 Q57.1032 732.335 54.4643 733.215 L54.4643 729.048 Q57.1264 728.307 59.4412 727.937 Q61.7791 727.566 63.8393 727.566 Q69.1633 727.566 72.2652 729.997 Q75.367 732.404 75.367 736.525 Q75.367 739.395 73.7235 741.386 Q72.08 743.353 69.0476 744.117 Z" fill="#000000" fill-rule="nonzero" fill-opacity="1" /><path clip-path="url(#clip990)" d="M66.5939 485.273 L54.7884 503.722 L66.5939 503.722 L66.5939 485.273 M65.367 481.199 L71.2466 481.199 L71.2466 503.722 L76.1772 503.722 L76.1772 507.611 L71.2466 507.611 L71.2466 515.759 L66.5939 515.759 L66.5939 507.611 L50.9921 507.611 L50.9921 503.097 L65.367 481.199 Z" fill="#000000" fill-rule="nonzero" fill-opacity="1" /><path clip-path="url(#clip990)" d="M55.2745 234.207 L73.6309 234.207 L73.6309 238.142 L59.5569 238.142 L59.5569 246.615 Q60.5754 246.267 61.5939 246.105 Q62.6124 245.92 63.6309 245.92 Q69.418 245.92 72.7976 249.091 Q76.1772 252.263 76.1772 257.679 Q76.1772 263.258 72.705 266.36 Q69.2328 269.438 62.9134 269.438 Q60.7374 269.438 58.4689 269.068 Q56.2236 268.698 53.8162 267.957 L53.8162 263.258 Q55.8995 264.392 58.1217 264.948 Q60.3439 265.503 62.8208 265.503 Q66.8254 265.503 69.1633 263.397 Q71.5013 261.29 71.5013 257.679 Q71.5013 254.068 69.1633 251.962 Q66.8254 249.855 62.8208 249.855 Q60.9458 249.855 59.0708 250.272 Q57.2189 250.689 55.2745 251.568 L55.2745 234.207 Z" fill="#000000" fill-rule="nonzero" fill-opacity="1" /><polyline clip-path="url(#clip992)" style="stroke:#000000; stroke-linecap:round; stroke-linejoin:round; stroke-width:4; stroke-opacity:1; fill:none" points="2016.67,1486.45 2016.67,1423.92 2240.73,1423.92 2240.73,1486.45 "/>
<polyline clip-path="url(#clip992)" style="stroke:#000000; stroke-linecap:round; stroke-linejoin:round; stroke-width:4; stroke-opacity:1; fill:none" points="1120.44,1486.45 1120.44,1382.09 1344.5,1382.09 1344.5,1486.45 "/>
<polyline clip-path="url(#clip992)" style="stroke:#000000; stroke-linecap:round; stroke-linejoin:round; stroke-width:4; stroke-opacity:1; fill:none" points="1792.61,1486.45 1792.61,1356.04 2128.7,1356.04 2128.7,1423.92 "/>
<polyline clip-path="url(#clip992)" style="stroke:#000000; stroke-linecap:round; stroke-linejoin:round; stroke-width:4; stroke-opacity:1; fill:none" points="224.206,1486.45 224.206,1177.33 448.264,1177.33 448.264,1486.45 "/>
<polyline clip-path="url(#clip992)" style="stroke:#000000; stroke-linecap:round; stroke-linejoin:round; stroke-width:4; stroke-opacity:1; fill:none" points="672.322,1486.45 672.322,1097.03 896.38,1097.03 896.38,1486.45 "/>
<polyline clip-path="url(#clip992)" style="stroke:#000000; stroke-linecap:round; stroke-linejoin:round; stroke-width:4; stroke-opacity:1; fill:none" points="1568.55,1486.45 1568.55,629.961 1960.65,629.961 1960.65,1356.04 "/>
<polyline clip-path="url(#clip992)" style="stroke:#000000; stroke-linecap:round; stroke-linejoin:round; stroke-width:4; stroke-opacity:1; fill:none" points="336.235,1177.33 336.235,601.016 784.351,601.016 784.351,1097.03 "/>
<polyline clip-path="url(#clip992)" style="stroke:#000000; stroke-linecap:round; stroke-linejoin:round; stroke-width:4; stroke-opacity:1; fill:none" points="1232.47,1382.09 1232.47,428.155 1764.6,428.155 1764.6,629.961 "/>
<polyline clip-path="url(#clip992)" style="stroke:#000000; stroke-linecap:round; stroke-linejoin:round; stroke-width:4; stroke-opacity:1; fill:none" points="560.293,601.016 560.293,47.2441 1498.54,47.2441 1498.54,428.155 "/>
</svg>
