<?xml version="1.0" encoding="utf-8"?>
<svg xmlns="http://www.w3.org/2000/svg" xmlns:xlink="http://www.w3.org/1999/xlink" width="600" height="400" viewBox="0 0 2400 1600">
<defs>
  <clipPath id="clip810">
    <rect x="0" y="0" width="2400" height="1600"/>
  </clipPath>
</defs>
<path clip-path="url(#clip810)" d="M0 1600 L2400 1600 L2400 0 L0 0  Z" fill="#ffffff" fill-rule="evenodd" fill-opacity="1"/>
<defs>
  <clipPath id="clip811">
    <rect x="480" y="0" width="1681" height="1600"/>
  </clipPath>
</defs>
<path clip-path="url(#clip810)" d="M175.445 1423.18 L2352.76 1423.18 L2352.76 47.2441 L175.445 47.2441  Z" fill="#ffffff" fill-rule="evenodd" fill-opacity="1"/>
<defs>
  <clipPath id="clip812">
    <rect x="175" y="47" width="2178" height="1377"/>
  </clipPath>
</defs>
<polyline clip-path="url(#clip812)" style="stroke:#000000; stroke-linecap:round; stroke-linejoin:round; stroke-width:2; stroke-opacity:0.1; fill:none" points="221.223,1423.18 221.223,47.2441 "/>
<polyline clip-path="url(#clip812)" style="stroke:#000000; stroke-linecap:round; stroke-linejoin:round; stroke-width:2; stroke-opacity:0.1; fill:none" points="650.781,1423.18 650.781,47.2441 "/>
<polyline clip-path="url(#clip812)" style="stroke:#000000; stroke-linecap:round; stroke-linejoin:round; stroke-width:2; stroke-opacity:0.1; fill:none" points="1080.34,1423.18 1080.34,47.2441 "/>
<polyline clip-path="url(#clip812)" style="stroke:#000000; stroke-linecap:round; stroke-linejoin:round; stroke-width:2; stroke-opacity:0.1; fill:none" points="1509.9,1423.18 1509.9,47.2441 "/>
<polyline clip-path="url(#clip812)" style="stroke:#000000; stroke-linecap:round; stroke-linejoin:round; stroke-width:2; stroke-opacity:0.1; fill:none" points="1939.45,1423.18 1939.45,47.2441 "/>
<polyline clip-path="url(#clip812)" style="stroke:#000000; stroke-linecap:round; stroke-linejoin:round; stroke-width:2; stroke-opacity:0.1; fill:none" points="175.445,1399.48 2352.76,1399.48 "/>
<polyline clip-path="url(#clip812)" style="stroke:#000000; stroke-linecap:round; stroke-linejoin:round; stroke-width:2; stroke-opacity:0.1; fill:none" points="175.445,1073.71 2352.76,1073.71 "/>
<polyline clip-path="url(#clip812)" style="stroke:#000000; stroke-linecap:round; stroke-linejoin:round; stroke-width:2; stroke-opacity:0.1; fill:none" points="175.445,747.94 2352.76,747.94 "/>
<polyline clip-path="url(#clip812)" style="stroke:#000000; stroke-linecap:round; stroke-linejoin:round; stroke-width:2; stroke-opacity:0.1; fill:none" points="175.445,422.17 2352.76,422.17 "/>
<polyline clip-path="url(#clip812)" style="stroke:#000000; stroke-linecap:round; stroke-linejoin:round; stroke-width:2; stroke-opacity:0.1; fill:none" points="175.445,96.399 2352.76,96.399 "/>
<polyline clip-path="url(#clip810)" style="stroke:#000000; stroke-linecap:round; stroke-linejoin:round; stroke-width:4; stroke-opacity:1; fill:none" points="175.445,1423.18 2352.76,1423.18 "/>
<polyline clip-path="url(#clip810)" style="stroke:#000000; stroke-linecap:round; stroke-linejoin:round; stroke-width:4; stroke-opacity:1; fill:none" points="221.223,1423.18 221.223,1404.28 "/>
<polyline clip-path="url(#clip810)" style="stroke:#000000; stroke-linecap:round; stroke-linejoin:round; stroke-width:4; stroke-opacity:1; fill:none" points="650.781,1423.18 650.781,1404.28 "/>
<polyline clip-path="url(#clip810)" style="stroke:#000000; stroke-linecap:round; stroke-linejoin:round; stroke-width:4; stroke-opacity:1; fill:none" points="1080.34,1423.18 1080.34,1404.28 "/>
<polyline clip-path="url(#clip810)" style="stroke:#000000; stroke-linecap:round; stroke-linejoin:round; stroke-width:4; stroke-opacity:1; fill:none" points="1509.9,1423.18 1509.9,1404.28 "/>
<polyline clip-path="url(#clip810)" style="stroke:#000000; stroke-linecap:round; stroke-linejoin:round; stroke-width:4; stroke-opacity:1; fill:none" points="1939.45,1423.18 1939.45,1404.28 "/>
<path clip-path="url(#clip810)" d="M211.605 1481.64 L219.243 1481.64 L219.243 1455.28 L210.933 1456.95 L210.933 1452.69 L219.197 1451.02 L223.873 1451.02 L223.873 1481.64 L231.512 1481.64 L231.512 1485.58 L211.605 1485.58 L211.605 1481.64 Z" fill="#000000" fill-rule="nonzero" fill-opacity="1" /><path clip-path="url(#clip810)" d="M645.433 1481.64 L661.753 1481.64 L661.753 1485.58 L639.808 1485.58 L639.808 1481.64 Q642.47 1478.89 647.054 1474.26 Q651.66 1469.61 652.841 1468.27 Q655.086 1465.74 655.966 1464.01 Q656.868 1462.25 656.868 1460.56 Q656.868 1457.8 654.924 1456.07 Q653.003 1454.33 649.901 1454.33 Q647.702 1454.33 645.248 1455.09 Q642.818 1455.86 640.04 1457.41 L640.04 1452.69 Q642.864 1451.55 645.318 1450.97 Q647.771 1450.39 649.808 1450.39 Q655.179 1450.39 658.373 1453.08 Q661.567 1455.77 661.567 1460.26 Q661.567 1462.39 660.757 1464.31 Q659.97 1466.2 657.864 1468.8 Q657.285 1469.47 654.183 1472.69 Q651.081 1475.88 645.433 1481.64 Z" fill="#000000" fill-rule="nonzero" fill-opacity="1" /><path clip-path="url(#clip810)" d="M1084.59 1466.95 Q1087.94 1467.66 1089.82 1469.93 Q1091.72 1472.2 1091.72 1475.53 Q1091.72 1480.65 1088.2 1483.45 Q1084.68 1486.25 1078.2 1486.25 Q1076.02 1486.25 1073.71 1485.81 Q1071.41 1485.39 1068.96 1484.54 L1068.96 1480.02 Q1070.91 1481.16 1073.22 1481.74 Q1075.54 1482.32 1078.06 1482.32 Q1082.46 1482.32 1084.75 1480.58 Q1087.06 1478.84 1087.06 1475.53 Q1087.06 1472.48 1084.91 1470.77 Q1082.78 1469.03 1078.96 1469.03 L1074.93 1469.03 L1074.93 1465.19 L1079.15 1465.19 Q1082.6 1465.19 1084.42 1463.82 Q1086.25 1462.43 1086.25 1459.84 Q1086.25 1457.18 1084.35 1455.77 Q1082.48 1454.33 1078.96 1454.33 Q1077.04 1454.33 1074.84 1454.75 Q1072.64 1455.16 1070 1456.04 L1070 1451.88 Q1072.66 1451.14 1074.98 1450.77 Q1077.32 1450.39 1079.38 1450.39 Q1084.7 1450.39 1087.8 1452.83 Q1090.91 1455.23 1090.91 1459.35 Q1090.91 1462.22 1089.26 1464.21 Q1087.62 1466.18 1084.59 1466.95 Z" fill="#000000" fill-rule="nonzero" fill-opacity="1" /><path clip-path="url(#clip810)" d="M1512.91 1455.09 L1501.1 1473.54 L1512.91 1473.54 L1512.91 1455.09 M1511.68 1451.02 L1517.56 1451.02 L1517.56 1473.54 L1522.49 1473.54 L1522.49 1477.43 L1517.56 1477.43 L1517.56 1485.58 L1512.91 1485.58 L1512.91 1477.43 L1497.3 1477.43 L1497.3 1472.92 L1511.68 1451.02 Z" fill="#000000" fill-rule="nonzero" fill-opacity="1" /><path clip-path="url(#clip810)" d="M1929.73 1451.02 L1948.09 1451.02 L1948.09 1454.96 L1934.01 1454.96 L1934.01 1463.43 Q1935.03 1463.08 1936.05 1462.92 Q1937.07 1462.73 1938.09 1462.73 Q1943.88 1462.73 1947.26 1465.9 Q1950.63 1469.08 1950.63 1474.49 Q1950.63 1480.07 1947.16 1483.17 Q1943.69 1486.25 1937.37 1486.25 Q1935.2 1486.25 1932.93 1485.88 Q1930.68 1485.51 1928.27 1484.77 L1928.27 1480.07 Q1930.36 1481.2 1932.58 1481.76 Q1934.8 1482.32 1937.28 1482.32 Q1941.28 1482.32 1943.62 1480.21 Q1945.96 1478.1 1945.96 1474.49 Q1945.96 1470.88 1943.62 1468.77 Q1941.28 1466.67 1937.28 1466.67 Q1935.4 1466.67 1933.53 1467.08 Q1931.68 1467.5 1929.73 1468.38 L1929.73 1451.02 Z" fill="#000000" fill-rule="nonzero" fill-opacity="1" /><path clip-path="url(#clip810)" d="M1245.93 1520.52 L1252.83 1520.52 L1264.64 1538.19 L1276.51 1520.52 L1283.42 1520.52 L1268.14 1543.34 L1284.44 1568.04 L1277.53 1568.04 L1264.16 1547.83 L1250.7 1568.04 L1243.76 1568.04 L1260.73 1542.68 L1245.93 1520.52 Z" fill="#000000" fill-rule="nonzero" fill-opacity="1" /><polyline clip-path="url(#clip810)" style="stroke:#000000; stroke-linecap:round; stroke-linejoin:round; stroke-width:4; stroke-opacity:1; fill:none" points="175.445,1423.18 175.445,47.2441 "/>
<polyline clip-path="url(#clip810)" style="stroke:#000000; stroke-linecap:round; stroke-linejoin:round; stroke-width:4; stroke-opacity:1; fill:none" points="175.445,1399.48 194.343,1399.48 "/>
<polyline clip-path="url(#clip810)" style="stroke:#000000; stroke-linecap:round; stroke-linejoin:round; stroke-width:4; stroke-opacity:1; fill:none" points="175.445,1073.71 194.343,1073.71 "/>
<polyline clip-path="url(#clip810)" style="stroke:#000000; stroke-linecap:round; stroke-linejoin:round; stroke-width:4; stroke-opacity:1; fill:none" points="175.445,747.94 194.343,747.94 "/>
<polyline clip-path="url(#clip810)" style="stroke:#000000; stroke-linecap:round; stroke-linejoin:round; stroke-width:4; stroke-opacity:1; fill:none" points="175.445,422.17 194.343,422.17 "/>
<polyline clip-path="url(#clip810)" style="stroke:#000000; stroke-linecap:round; stroke-linejoin:round; stroke-width:4; stroke-opacity:1; fill:none" points="175.445,96.399 194.343,96.399 "/>
<path clip-path="url(#clip810)" d="M127.501 1385.28 Q123.89 1385.28 122.061 1388.84 Q120.255 1392.39 120.255 1399.52 Q120.255 1406.62 122.061 1410.19 Q123.89 1413.73 127.501 1413.73 Q131.135 1413.73 132.941 1410.19 Q134.769 1406.62 134.769 1399.52 Q134.769 1392.39 132.941 1388.84 Q131.135 1385.28 127.501 1385.28 M127.501 1381.58 Q133.311 1381.58 136.367 1386.18 Q139.445 1390.77 139.445 1399.52 Q139.445 1408.24 136.367 1412.85 Q133.311 1417.43 127.501 1417.43 Q121.691 1417.43 118.612 1412.85 Q115.556 1408.24 115.556 1399.52 Q115.556 1390.77 118.612 1386.18 Q121.691 1381.58 127.501 1381.58 Z" fill="#000000" fill-rule="nonzero" fill-opacity="1" /><path clip-path="url(#clip810)" d="M123.126 1087.06 L139.445 1087.06 L139.445 1090.99 L117.501 1090.99 L117.501 1087.06 Q120.163 1084.3 124.746 1079.67 Q129.353 1075.02 130.533 1073.68 Q132.779 1071.15 133.658 1069.42 Q134.561 1067.66 134.561 1065.97 Q134.561 1063.21 132.617 1061.48 Q130.695 1059.74 127.593 1059.74 Q125.394 1059.74 122.941 1060.5 Q120.51 1061.27 117.732 1062.82 L117.732 1058.1 Q120.556 1056.96 123.01 1056.38 Q125.464 1055.81 127.501 1055.81 Q132.871 1055.81 136.066 1058.49 Q139.26 1061.18 139.26 1065.67 Q139.26 1067.8 138.45 1069.72 Q137.663 1071.62 135.556 1074.21 Q134.978 1074.88 131.876 1078.1 Q128.774 1081.29 123.126 1087.06 Z" fill="#000000" fill-rule="nonzero" fill-opacity="1" /><path clip-path="url(#clip810)" d="M129.862 734.734 L118.056 753.183 L129.862 753.183 L129.862 734.734 M128.635 730.66 L134.515 730.66 L134.515 753.183 L139.445 753.183 L139.445 757.072 L134.515 757.072 L134.515 765.22 L129.862 765.22 L129.862 757.072 L114.26 757.072 L114.26 752.558 L128.635 730.66 Z" fill="#000000" fill-rule="nonzero" fill-opacity="1" /><path clip-path="url(#clip810)" d="M127.917 420.306 Q124.769 420.306 122.918 422.459 Q121.089 424.612 121.089 428.362 Q121.089 432.088 122.918 434.264 Q124.769 436.417 127.917 436.417 Q131.066 436.417 132.894 434.264 Q134.746 432.088 134.746 428.362 Q134.746 424.612 132.894 422.459 Q131.066 420.306 127.917 420.306 M137.2 405.653 L137.2 409.913 Q135.441 409.079 133.635 408.64 Q131.853 408.2 130.093 408.2 Q125.464 408.2 123.01 411.325 Q120.58 414.45 120.232 420.769 Q121.598 418.755 123.658 417.69 Q125.718 416.602 128.195 416.602 Q133.404 416.602 136.413 419.774 Q139.445 422.922 139.445 428.362 Q139.445 433.686 136.297 436.903 Q133.149 440.121 127.917 440.121 Q121.922 440.121 118.751 435.538 Q115.58 430.931 115.58 422.204 Q115.58 414.01 119.468 409.149 Q123.357 404.265 129.908 404.265 Q131.667 404.265 133.45 404.612 Q135.255 404.959 137.2 405.653 Z" fill="#000000" fill-rule="nonzero" fill-opacity="1" /><path clip-path="url(#clip810)" d="M127.593 97.2671 Q124.26 97.2671 122.339 99.0495 Q120.441 100.832 120.441 103.957 Q120.441 107.082 122.339 108.864 Q124.26 110.647 127.593 110.647 Q130.927 110.647 132.848 108.864 Q134.769 107.059 134.769 103.957 Q134.769 100.832 132.848 99.0495 Q130.95 97.2671 127.593 97.2671 M122.918 95.2764 Q119.908 94.5356 118.218 92.4755 Q116.552 90.4153 116.552 87.4523 Q116.552 83.3088 119.492 80.9014 Q122.455 78.4941 127.593 78.4941 Q132.755 78.4941 135.695 80.9014 Q138.635 83.3088 138.635 87.4523 Q138.635 90.4153 136.945 92.4755 Q135.279 94.5356 132.292 95.2764 Q135.672 96.0634 137.547 98.3551 Q139.445 100.647 139.445 103.957 Q139.445 108.98 136.367 111.665 Q133.311 114.35 127.593 114.35 Q121.876 114.35 118.797 111.665 Q115.742 108.98 115.742 103.957 Q115.742 100.647 117.64 98.3551 Q119.538 96.0634 122.918 95.2764 M121.205 87.8921 Q121.205 90.5773 122.871 92.0819 Q124.561 93.5866 127.593 93.5866 Q130.603 93.5866 132.292 92.0819 Q134.005 90.5773 134.005 87.8921 Q134.005 85.207 132.292 83.7024 Q130.603 82.1977 127.593 82.1977 Q124.561 82.1977 122.871 83.7024 Q121.205 85.207 121.205 87.8921 Z" fill="#000000" fill-rule="nonzero" fill-opacity="1" /><path clip-path="url(#clip810)" d="M16.4842 755.248 L16.4842 748.341 L36.0269 735.164 L16.4842 722.083 L16.4842 715.176 L41.3741 731.981 L64.0042 731.981 L64.0042 738.443 L41.3741 738.443 L16.4842 755.248 Z" fill="#000000" fill-rule="nonzero" fill-opacity="1" /><circle clip-path="url(#clip812)" cx="461.031" cy="1256.79" r="14.4" fill="#009af9" fill-rule="evenodd" fill-opacity="1" stroke="#000000" stroke-opacity="1" stroke-width="3.2"/>
<circle clip-path="url(#clip812)" cx="382.984" cy="707.449" r="14.4" fill="#009af9" fill-rule="evenodd" fill-opacity="1" stroke="#000000" stroke-opacity="1" stroke-width="3.2"/>
<circle clip-path="url(#clip812)" cx="447.391" cy="1297.7" r="14.4" fill="#009af9" fill-rule="evenodd" fill-opacity="1" stroke="#000000" stroke-opacity="1" stroke-width="3.2"/>
<circle clip-path="url(#clip812)" cx="438.234" cy="1363.03" r="14.4" fill="#009af9" fill-rule="evenodd" fill-opacity="1" stroke="#000000" stroke-opacity="1" stroke-width="3.2"/>
<circle clip-path="url(#clip812)" cx="237.067" cy="666.519" r="14.4" fill="#009af9" fill-rule="evenodd" fill-opacity="1" stroke="#000000" stroke-opacity="1" stroke-width="3.2"/>
<circle clip-path="url(#clip812)" cx="2166.17" cy="300.337" r="14.4" fill="#e26f46" fill-rule="evenodd" fill-opacity="1" stroke="#000000" stroke-opacity="1" stroke-width="3.2"/>
<circle clip-path="url(#clip812)" cx="2248.01" cy="662.77" r="14.4" fill="#e26f46" fill-rule="evenodd" fill-opacity="1" stroke="#000000" stroke-opacity="1" stroke-width="3.2"/>
<circle clip-path="url(#clip812)" cx="1919.5" cy="1384.24" r="14.4" fill="#e26f46" fill-rule="evenodd" fill-opacity="1" stroke="#000000" stroke-opacity="1" stroke-width="3.2"/>
<circle clip-path="url(#clip812)" cx="2291.13" cy="865.971" r="14.4" fill="#e26f46" fill-rule="evenodd" fill-opacity="1" stroke="#000000" stroke-opacity="1" stroke-width="3.2"/>
<circle clip-path="url(#clip812)" cx="1792.36" cy="86.1857" r="14.4" fill="#e26f46" fill-rule="evenodd" fill-opacity="1" stroke="#000000" stroke-opacity="1" stroke-width="3.2"/>
<path clip-path="url(#clip810)" d="M248.022 248.629 L672.211 248.629 L672.211 93.1086 L248.022 93.1086  Z" fill="#ffffff" fill-rule="evenodd" fill-opacity="1"/>
<polyline clip-path="url(#clip810)" style="stroke:#000000; stroke-linecap:round; stroke-linejoin:round; stroke-width:4; stroke-opacity:1; fill:none" points="248.022,248.629 672.211,248.629 672.211,93.1086 248.022,93.1086 248.022,248.629 "/>
<circle clip-path="url(#clip810)" cx="344.792" cy="144.949" r="20.48" fill="#009af9" fill-rule="evenodd" fill-opacity="1" stroke="#000000" stroke-opacity="1" stroke-width="4.55111"/>
<path clip-path="url(#clip810)" d="M469.431 130.331 L469.431 135.261 Q467.07 133.062 464.385 131.974 Q461.723 130.886 458.714 130.886 Q452.788 130.886 449.64 134.52 Q446.491 138.132 446.491 144.983 Q446.491 151.812 449.64 155.446 Q452.788 159.057 458.714 159.057 Q461.723 159.057 464.385 157.969 Q467.07 156.881 469.431 154.682 L469.431 159.567 Q466.977 161.233 464.223 162.067 Q461.491 162.9 458.436 162.9 Q450.589 162.9 446.075 158.108 Q441.561 153.293 441.561 144.983 Q441.561 136.65 446.075 131.858 Q450.589 127.044 458.436 127.044 Q461.538 127.044 464.269 127.877 Q467.024 128.687 469.431 130.331 Z" fill="#000000" fill-rule="nonzero" fill-opacity="1" /><path clip-path="url(#clip810)" d="M476.468 126.21 L480.727 126.21 L480.727 162.229 L476.468 162.229 L476.468 126.21 Z" fill="#000000" fill-rule="nonzero" fill-opacity="1" /><path clip-path="url(#clip810)" d="M489.2 151.997 L489.2 136.303 L493.459 136.303 L493.459 151.835 Q493.459 155.516 494.894 157.368 Q496.329 159.196 499.2 159.196 Q502.649 159.196 504.639 156.997 Q506.653 154.798 506.653 151.002 L506.653 136.303 L510.912 136.303 L510.912 162.229 L506.653 162.229 L506.653 158.247 Q505.102 160.608 503.042 161.766 Q501.005 162.9 498.297 162.9 Q493.829 162.9 491.514 160.122 Q489.2 157.344 489.2 151.997 M499.917 135.678 L499.917 135.678 Z" fill="#000000" fill-rule="nonzero" fill-opacity="1" /><path clip-path="url(#clip810)" d="M536.213 137.067 L536.213 141.094 Q534.408 140.169 532.463 139.706 Q530.519 139.243 528.435 139.243 Q525.264 139.243 523.667 140.215 Q522.093 141.187 522.093 143.131 Q522.093 144.613 523.227 145.469 Q524.361 146.303 527.787 147.067 L529.246 147.391 Q533.783 148.363 535.681 150.145 Q537.602 151.905 537.602 155.076 Q537.602 158.687 534.732 160.793 Q531.885 162.9 526.885 162.9 Q524.801 162.9 522.533 162.483 Q520.287 162.09 517.787 161.28 L517.787 156.881 Q520.149 158.108 522.44 158.733 Q524.732 159.335 526.977 159.335 Q529.986 159.335 531.607 158.317 Q533.227 157.275 533.227 155.4 Q533.227 153.664 532.047 152.738 Q530.889 151.812 526.931 150.956 L525.449 150.608 Q521.491 149.775 519.732 148.062 Q517.973 146.326 517.973 143.317 Q517.973 139.659 520.565 137.669 Q523.158 135.678 527.926 135.678 Q530.287 135.678 532.371 136.025 Q534.454 136.372 536.213 137.067 Z" fill="#000000" fill-rule="nonzero" fill-opacity="1" /><path clip-path="url(#clip810)" d="M548.597 128.942 L548.597 136.303 L557.371 136.303 L557.371 139.613 L548.597 139.613 L548.597 153.687 Q548.597 156.858 549.454 157.761 Q550.334 158.664 552.996 158.664 L557.371 158.664 L557.371 162.229 L552.996 162.229 Q548.065 162.229 546.19 160.4 Q544.315 158.548 544.315 153.687 L544.315 139.613 L541.19 139.613 L541.19 136.303 L544.315 136.303 L544.315 128.942 L548.597 128.942 Z" fill="#000000" fill-rule="nonzero" fill-opacity="1" /><path clip-path="url(#clip810)" d="M585.148 148.201 L585.148 150.284 L565.565 150.284 Q565.843 154.682 568.204 156.997 Q570.588 159.289 574.824 159.289 Q577.278 159.289 579.569 158.687 Q581.884 158.085 584.153 156.881 L584.153 160.909 Q581.861 161.881 579.454 162.391 Q577.046 162.9 574.57 162.9 Q568.366 162.9 564.732 159.289 Q561.121 155.678 561.121 149.52 Q561.121 143.155 564.546 139.428 Q567.995 135.678 573.829 135.678 Q579.06 135.678 582.093 139.057 Q585.148 142.414 585.148 148.201 M580.889 146.951 Q580.843 143.456 578.921 141.372 Q577.023 139.289 573.875 139.289 Q570.31 139.289 568.158 141.303 Q566.028 143.317 565.704 146.974 L580.889 146.951 Z" fill="#000000" fill-rule="nonzero" fill-opacity="1" /><path clip-path="url(#clip810)" d="M607.162 140.284 Q606.444 139.868 605.588 139.682 Q604.755 139.474 603.736 139.474 Q600.125 139.474 598.18 141.835 Q596.259 144.173 596.259 148.571 L596.259 162.229 L591.977 162.229 L591.977 136.303 L596.259 136.303 L596.259 140.331 Q597.602 137.969 599.755 136.835 Q601.907 135.678 604.986 135.678 Q605.426 135.678 605.958 135.747 Q606.491 135.794 607.139 135.909 L607.162 140.284 Z" fill="#000000" fill-rule="nonzero" fill-opacity="1" /><path clip-path="url(#clip810)" d="M628.111 158.293 L635.75 158.293 L635.75 131.928 L627.44 133.595 L627.44 129.335 L635.703 127.669 L640.379 127.669 L640.379 158.293 L648.018 158.293 L648.018 162.229 L628.111 162.229 L628.111 158.293 Z" fill="#000000" fill-rule="nonzero" fill-opacity="1" /><circle clip-path="url(#clip810)" cx="344.792" cy="196.789" r="20.48" fill="#e26f46" fill-rule="evenodd" fill-opacity="1" stroke="#000000" stroke-opacity="1" stroke-width="4.55111"/>
<path clip-path="url(#clip810)" d="M469.431 182.171 L469.431 187.101 Q467.07 184.902 464.385 183.814 Q461.723 182.726 458.714 182.726 Q452.788 182.726 449.64 186.36 Q446.491 189.972 446.491 196.823 Q446.491 203.652 449.64 207.286 Q452.788 210.897 458.714 210.897 Q461.723 210.897 464.385 209.809 Q467.07 208.721 469.431 206.522 L469.431 211.407 Q466.977 213.073 464.223 213.907 Q461.491 214.74 458.436 214.74 Q450.589 214.74 446.075 209.948 Q441.561 205.133 441.561 196.823 Q441.561 188.49 446.075 183.698 Q450.589 178.884 458.436 178.884 Q461.538 178.884 464.269 179.717 Q467.024 180.527 469.431 182.171 Z" fill="#000000" fill-rule="nonzero" fill-opacity="1" /><path clip-path="url(#clip810)" d="M476.468 178.05 L480.727 178.05 L480.727 214.069 L476.468 214.069 L476.468 178.05 Z" fill="#000000" fill-rule="nonzero" fill-opacity="1" /><path clip-path="url(#clip810)" d="M489.2 203.837 L489.2 188.143 L493.459 188.143 L493.459 203.675 Q493.459 207.356 494.894 209.208 Q496.329 211.036 499.2 211.036 Q502.649 211.036 504.639 208.837 Q506.653 206.638 506.653 202.842 L506.653 188.143 L510.912 188.143 L510.912 214.069 L506.653 214.069 L506.653 210.087 Q505.102 212.448 503.042 213.606 Q501.005 214.74 498.297 214.74 Q493.829 214.74 491.514 211.962 Q489.2 209.184 489.2 203.837 M499.917 187.518 L499.917 187.518 Z" fill="#000000" fill-rule="nonzero" fill-opacity="1" /><path clip-path="url(#clip810)" d="M536.213 188.907 L536.213 192.934 Q534.408 192.009 532.463 191.546 Q530.519 191.083 528.435 191.083 Q525.264 191.083 523.667 192.055 Q522.093 193.027 522.093 194.971 Q522.093 196.453 523.227 197.309 Q524.361 198.143 527.787 198.907 L529.246 199.231 Q533.783 200.203 535.681 201.985 Q537.602 203.745 537.602 206.916 Q537.602 210.527 534.732 212.633 Q531.885 214.74 526.885 214.74 Q524.801 214.74 522.533 214.323 Q520.287 213.93 517.787 213.12 L517.787 208.721 Q520.149 209.948 522.44 210.573 Q524.732 211.175 526.977 211.175 Q529.986 211.175 531.607 210.157 Q533.227 209.115 533.227 207.24 Q533.227 205.504 532.047 204.578 Q530.889 203.652 526.931 202.796 L525.449 202.448 Q521.491 201.615 519.732 199.902 Q517.973 198.166 517.973 195.157 Q517.973 191.499 520.565 189.509 Q523.158 187.518 527.926 187.518 Q530.287 187.518 532.371 187.865 Q534.454 188.212 536.213 188.907 Z" fill="#000000" fill-rule="nonzero" fill-opacity="1" /><path clip-path="url(#clip810)" d="M548.597 180.782 L548.597 188.143 L557.371 188.143 L557.371 191.453 L548.597 191.453 L548.597 205.527 Q548.597 208.698 549.454 209.601 Q550.334 210.504 552.996 210.504 L557.371 210.504 L557.371 214.069 L552.996 214.069 Q548.065 214.069 546.19 212.24 Q544.315 210.388 544.315 205.527 L544.315 191.453 L541.19 191.453 L541.19 188.143 L544.315 188.143 L544.315 180.782 L548.597 180.782 Z" fill="#000000" fill-rule="nonzero" fill-opacity="1" /><path clip-path="url(#clip810)" d="M585.148 200.041 L585.148 202.124 L565.565 202.124 Q565.843 206.522 568.204 208.837 Q570.588 211.129 574.824 211.129 Q577.278 211.129 579.569 210.527 Q581.884 209.925 584.153 208.721 L584.153 212.749 Q581.861 213.721 579.454 214.231 Q577.046 214.74 574.57 214.74 Q568.366 214.74 564.732 211.129 Q561.121 207.518 561.121 201.36 Q561.121 194.995 564.546 191.268 Q567.995 187.518 573.829 187.518 Q579.06 187.518 582.093 190.897 Q585.148 194.254 585.148 200.041 M580.889 198.791 Q580.843 195.296 578.921 193.212 Q577.023 191.129 573.875 191.129 Q570.31 191.129 568.158 193.143 Q566.028 195.157 565.704 198.814 L580.889 198.791 Z" fill="#000000" fill-rule="nonzero" fill-opacity="1" /><path clip-path="url(#clip810)" d="M607.162 192.124 Q606.444 191.708 605.588 191.522 Q604.755 191.314 603.736 191.314 Q600.125 191.314 598.18 193.675 Q596.259 196.013 596.259 200.411 L596.259 214.069 L591.977 214.069 L591.977 188.143 L596.259 188.143 L596.259 192.171 Q597.602 189.809 599.755 188.675 Q601.907 187.518 604.986 187.518 Q605.426 187.518 605.958 187.587 Q606.491 187.634 607.139 187.749 L607.162 192.124 Z" fill="#000000" fill-rule="nonzero" fill-opacity="1" /><path clip-path="url(#clip810)" d="M631.328 210.133 L647.648 210.133 L647.648 214.069 L625.703 214.069 L625.703 210.133 Q628.366 207.379 632.949 202.749 Q637.555 198.096 638.736 196.754 Q640.981 194.231 641.861 192.495 Q642.764 190.735 642.764 189.046 Q642.764 186.291 640.819 184.555 Q638.898 182.819 635.796 182.819 Q633.597 182.819 631.143 183.583 Q628.713 184.347 625.935 185.897 L625.935 181.175 Q628.759 180.041 631.213 179.462 Q633.666 178.884 635.703 178.884 Q641.074 178.884 644.268 181.569 Q647.463 184.254 647.463 188.745 Q647.463 190.874 646.652 192.796 Q645.865 194.694 643.759 197.286 Q643.18 197.958 640.078 201.175 Q636.977 204.37 631.328 210.133 Z" fill="#000000" fill-rule="nonzero" fill-opacity="1" /></svg>
