<?xml version="1.0" encoding="utf-8"?>
<svg xmlns="http://www.w3.org/2000/svg" xmlns:xlink="http://www.w3.org/1999/xlink" width="600" height="400" viewBox="0 0 2400 1600">
<defs>
  <clipPath id="clip700">
    <rect x="0" y="0" width="2400" height="1600"/>
  </clipPath>
</defs>
<path clip-path="url(#clip700)" d="M0 1600 L2400 1600 L2400 0 L0 0  Z" fill="#ffffff" fill-rule="evenodd" fill-opacity="1"/>
<defs>
  <clipPath id="clip701">
    <rect x="480" y="0" width="1681" height="1600"/>
  </clipPath>
</defs>
<path clip-path="url(#clip700)" d="M175.445 1423.18 L2352.76 1423.18 L2352.76 47.2441 L175.445 47.2441  Z" fill="#ffffff" fill-rule="evenodd" fill-opacity="1"/>
<defs>
  <clipPath id="clip702">
    <rect x="175" y="47" width="2178" height="1377"/>
  </clipPath>
</defs>
<polyline clip-path="url(#clip702)" style="stroke:#000000; stroke-linecap:round; stroke-linejoin:round; stroke-width:2; stroke-opacity:0.1; fill:none" points="302.815,1423.18 302.815,47.2441 "/>
<polyline clip-path="url(#clip702)" style="stroke:#000000; stroke-linecap:round; stroke-linejoin:round; stroke-width:2; stroke-opacity:0.1; fill:none" points="655.848,1423.18 655.848,47.2441 "/>
<polyline clip-path="url(#clip702)" style="stroke:#000000; stroke-linecap:round; stroke-linejoin:round; stroke-width:2; stroke-opacity:0.1; fill:none" points="1008.88,1423.18 1008.88,47.2441 "/>
<polyline clip-path="url(#clip702)" style="stroke:#000000; stroke-linecap:round; stroke-linejoin:round; stroke-width:2; stroke-opacity:0.1; fill:none" points="1361.91,1423.18 1361.91,47.2441 "/>
<polyline clip-path="url(#clip702)" style="stroke:#000000; stroke-linecap:round; stroke-linejoin:round; stroke-width:2; stroke-opacity:0.1; fill:none" points="1714.95,1423.18 1714.95,47.2441 "/>
<polyline clip-path="url(#clip702)" style="stroke:#000000; stroke-linecap:round; stroke-linejoin:round; stroke-width:2; stroke-opacity:0.1; fill:none" points="2067.98,1423.18 2067.98,47.2441 "/>
<polyline clip-path="url(#clip702)" style="stroke:#000000; stroke-linecap:round; stroke-linejoin:round; stroke-width:2; stroke-opacity:0.1; fill:none" points="175.445,1174.77 2352.76,1174.77 "/>
<polyline clip-path="url(#clip702)" style="stroke:#000000; stroke-linecap:round; stroke-linejoin:round; stroke-width:2; stroke-opacity:0.1; fill:none" points="175.445,898.633 2352.76,898.633 "/>
<polyline clip-path="url(#clip702)" style="stroke:#000000; stroke-linecap:round; stroke-linejoin:round; stroke-width:2; stroke-opacity:0.1; fill:none" points="175.445,622.499 2352.76,622.499 "/>
<polyline clip-path="url(#clip702)" style="stroke:#000000; stroke-linecap:round; stroke-linejoin:round; stroke-width:2; stroke-opacity:0.1; fill:none" points="175.445,346.366 2352.76,346.366 "/>
<polyline clip-path="url(#clip702)" style="stroke:#000000; stroke-linecap:round; stroke-linejoin:round; stroke-width:2; stroke-opacity:0.1; fill:none" points="175.445,70.2329 2352.76,70.2329 "/>
<polyline clip-path="url(#clip700)" style="stroke:#000000; stroke-linecap:round; stroke-linejoin:round; stroke-width:4; stroke-opacity:1; fill:none" points="175.445,1423.18 2352.76,1423.18 "/>
<polyline clip-path="url(#clip700)" style="stroke:#000000; stroke-linecap:round; stroke-linejoin:round; stroke-width:4; stroke-opacity:1; fill:none" points="302.815,1423.18 302.815,1404.28 "/>
<polyline clip-path="url(#clip700)" style="stroke:#000000; stroke-linecap:round; stroke-linejoin:round; stroke-width:4; stroke-opacity:1; fill:none" points="655.848,1423.18 655.848,1404.28 "/>
<polyline clip-path="url(#clip700)" style="stroke:#000000; stroke-linecap:round; stroke-linejoin:round; stroke-width:4; stroke-opacity:1; fill:none" points="1008.88,1423.18 1008.88,1404.28 "/>
<polyline clip-path="url(#clip700)" style="stroke:#000000; stroke-linecap:round; stroke-linejoin:round; stroke-width:4; stroke-opacity:1; fill:none" points="1361.91,1423.18 1361.91,1404.28 "/>
<polyline clip-path="url(#clip700)" style="stroke:#000000; stroke-linecap:round; stroke-linejoin:round; stroke-width:4; stroke-opacity:1; fill:none" points="1714.95,1423.18 1714.95,1404.28 "/>
<polyline clip-path="url(#clip700)" style="stroke:#000000; stroke-linecap:round; stroke-linejoin:round; stroke-width:4; stroke-opacity:1; fill:none" points="2067.98,1423.18 2067.98,1404.28 "/>
<path clip-path="url(#clip700)" d="M270.465 1481.64 L278.104 1481.64 L278.104 1455.28 L269.794 1456.95 L269.794 1452.69 L278.058 1451.02 L282.734 1451.02 L282.734 1481.64 L290.373 1481.64 L290.373 1485.58 L270.465 1485.58 L270.465 1481.64 Z" fill="#000000" fill-rule="nonzero" fill-opacity="1" /><path clip-path="url(#clip700)" d="M299.817 1479.7 L304.701 1479.7 L304.701 1485.58 L299.817 1485.58 L299.817 1479.7 Z" fill="#000000" fill-rule="nonzero" fill-opacity="1" /><path clip-path="url(#clip700)" d="M314.933 1451.02 L333.289 1451.02 L333.289 1454.96 L319.215 1454.96 L319.215 1463.43 Q320.234 1463.08 321.252 1462.92 Q322.271 1462.73 323.289 1462.73 Q329.076 1462.73 332.456 1465.9 Q335.835 1469.08 335.835 1474.49 Q335.835 1480.07 332.363 1483.17 Q328.891 1486.25 322.572 1486.25 Q320.396 1486.25 318.127 1485.88 Q315.882 1485.51 313.474 1484.77 L313.474 1480.07 Q315.558 1481.2 317.78 1481.76 Q320.002 1482.32 322.479 1482.32 Q326.484 1482.32 328.822 1480.21 Q331.159 1478.1 331.159 1474.49 Q331.159 1470.88 328.822 1468.77 Q326.484 1466.67 322.479 1466.67 Q320.604 1466.67 318.729 1467.08 Q316.877 1467.5 314.933 1468.38 L314.933 1451.02 Z" fill="#000000" fill-rule="nonzero" fill-opacity="1" /><path clip-path="url(#clip700)" d="M627.086 1481.64 L643.406 1481.64 L643.406 1485.58 L621.461 1485.58 L621.461 1481.64 Q624.123 1478.89 628.707 1474.26 Q633.313 1469.61 634.494 1468.27 Q636.739 1465.74 637.619 1464.01 Q638.522 1462.25 638.522 1460.56 Q638.522 1457.8 636.577 1456.07 Q634.656 1454.33 631.554 1454.33 Q629.355 1454.33 626.901 1455.09 Q624.471 1455.86 621.693 1457.41 L621.693 1452.69 Q624.517 1451.55 626.971 1450.97 Q629.424 1450.39 631.461 1450.39 Q636.832 1450.39 640.026 1453.08 Q643.221 1455.77 643.221 1460.26 Q643.221 1462.39 642.41 1464.31 Q641.623 1466.2 639.517 1468.8 Q638.938 1469.47 635.836 1472.69 Q632.735 1475.88 627.086 1481.64 Z" fill="#000000" fill-rule="nonzero" fill-opacity="1" /><path clip-path="url(#clip700)" d="M653.221 1479.7 L658.105 1479.7 L658.105 1485.58 L653.221 1485.58 L653.221 1479.7 Z" fill="#000000" fill-rule="nonzero" fill-opacity="1" /><path clip-path="url(#clip700)" d="M678.29 1454.1 Q674.679 1454.1 672.85 1457.66 Q671.044 1461.2 671.044 1468.33 Q671.044 1475.44 672.85 1479.01 Q674.679 1482.55 678.29 1482.55 Q681.924 1482.55 683.73 1479.01 Q685.558 1475.44 685.558 1468.33 Q685.558 1461.2 683.73 1457.66 Q681.924 1454.1 678.29 1454.1 M678.29 1450.39 Q684.1 1450.39 687.156 1455 Q690.234 1459.58 690.234 1468.33 Q690.234 1477.06 687.156 1481.67 Q684.1 1486.25 678.29 1486.25 Q672.48 1486.25 669.401 1481.67 Q666.345 1477.06 666.345 1468.33 Q666.345 1459.58 669.401 1455 Q672.48 1450.39 678.29 1450.39 Z" fill="#000000" fill-rule="nonzero" fill-opacity="1" /><path clip-path="url(#clip700)" d="M980.617 1481.64 L996.937 1481.64 L996.937 1485.58 L974.992 1485.58 L974.992 1481.64 Q977.654 1478.89 982.238 1474.26 Q986.844 1469.61 988.025 1468.27 Q990.27 1465.74 991.149 1464.01 Q992.052 1462.25 992.052 1460.56 Q992.052 1457.8 990.108 1456.07 Q988.187 1454.33 985.085 1454.33 Q982.886 1454.33 980.432 1455.09 Q978.001 1455.86 975.224 1457.41 L975.224 1452.69 Q978.048 1451.55 980.501 1450.97 Q982.955 1450.39 984.992 1450.39 Q990.362 1450.39 993.557 1453.08 Q996.751 1455.77 996.751 1460.26 Q996.751 1462.39 995.941 1464.31 Q995.154 1466.2 993.048 1468.8 Q992.469 1469.47 989.367 1472.69 Q986.265 1475.88 980.617 1481.64 Z" fill="#000000" fill-rule="nonzero" fill-opacity="1" /><path clip-path="url(#clip700)" d="M1006.75 1479.7 L1011.64 1479.7 L1011.64 1485.58 L1006.75 1485.58 L1006.75 1479.7 Z" fill="#000000" fill-rule="nonzero" fill-opacity="1" /><path clip-path="url(#clip700)" d="M1021.87 1451.02 L1040.22 1451.02 L1040.22 1454.96 L1026.15 1454.96 L1026.15 1463.43 Q1027.17 1463.08 1028.19 1462.92 Q1029.2 1462.73 1030.22 1462.73 Q1036.01 1462.73 1039.39 1465.9 Q1042.77 1469.08 1042.77 1474.49 Q1042.77 1480.07 1039.3 1483.17 Q1035.83 1486.25 1029.51 1486.25 Q1027.33 1486.25 1025.06 1485.88 Q1022.82 1485.51 1020.41 1484.77 L1020.41 1480.07 Q1022.49 1481.2 1024.71 1481.76 Q1026.94 1482.32 1029.41 1482.32 Q1033.42 1482.32 1035.76 1480.21 Q1038.09 1478.1 1038.09 1474.49 Q1038.09 1470.88 1035.76 1468.77 Q1033.42 1466.67 1029.41 1466.67 Q1027.54 1466.67 1025.66 1467.08 Q1023.81 1467.5 1021.87 1468.38 L1021.87 1451.02 Z" fill="#000000" fill-rule="nonzero" fill-opacity="1" /><path clip-path="url(#clip700)" d="M1343.22 1466.95 Q1346.58 1467.66 1348.45 1469.93 Q1350.35 1472.2 1350.35 1475.53 Q1350.35 1480.65 1346.83 1483.45 Q1343.31 1486.25 1336.83 1486.25 Q1334.66 1486.25 1332.34 1485.81 Q1330.05 1485.39 1327.6 1484.54 L1327.6 1480.02 Q1329.54 1481.16 1331.86 1481.74 Q1334.17 1482.32 1336.69 1482.32 Q1341.09 1482.32 1343.38 1480.58 Q1345.7 1478.84 1345.7 1475.53 Q1345.7 1472.48 1343.55 1470.77 Q1341.42 1469.03 1337.6 1469.03 L1333.57 1469.03 L1333.57 1465.19 L1337.78 1465.19 Q1341.23 1465.19 1343.06 1463.82 Q1344.89 1462.43 1344.89 1459.84 Q1344.89 1457.18 1342.99 1455.77 Q1341.12 1454.33 1337.6 1454.33 Q1335.68 1454.33 1333.48 1454.75 Q1331.28 1455.16 1328.64 1456.04 L1328.64 1451.88 Q1331.3 1451.14 1333.62 1450.77 Q1335.95 1450.39 1338.01 1450.39 Q1343.34 1450.39 1346.44 1452.83 Q1349.54 1455.23 1349.54 1459.35 Q1349.54 1462.22 1347.9 1464.21 Q1346.25 1466.18 1343.22 1466.95 Z" fill="#000000" fill-rule="nonzero" fill-opacity="1" /><path clip-path="url(#clip700)" d="M1359.22 1479.7 L1364.1 1479.7 L1364.1 1485.58 L1359.22 1485.58 L1359.22 1479.7 Z" fill="#000000" fill-rule="nonzero" fill-opacity="1" /><path clip-path="url(#clip700)" d="M1384.29 1454.1 Q1380.68 1454.1 1378.85 1457.66 Q1377.04 1461.2 1377.04 1468.33 Q1377.04 1475.44 1378.85 1479.01 Q1380.68 1482.55 1384.29 1482.55 Q1387.92 1482.55 1389.73 1479.01 Q1391.55 1475.44 1391.55 1468.33 Q1391.55 1461.2 1389.73 1457.66 Q1387.92 1454.1 1384.29 1454.1 M1384.29 1450.39 Q1390.1 1450.39 1393.15 1455 Q1396.23 1459.58 1396.23 1468.33 Q1396.23 1477.06 1393.15 1481.67 Q1390.1 1486.25 1384.29 1486.25 Q1378.48 1486.25 1375.4 1481.67 Q1372.34 1477.06 1372.34 1468.33 Q1372.34 1459.58 1375.4 1455 Q1378.48 1450.39 1384.29 1450.39 Z" fill="#000000" fill-rule="nonzero" fill-opacity="1" /><path clip-path="url(#clip700)" d="M1696.75 1466.95 Q1700.11 1467.66 1701.98 1469.93 Q1703.88 1472.2 1703.88 1475.53 Q1703.88 1480.65 1700.36 1483.45 Q1696.85 1486.25 1690.36 1486.25 Q1688.19 1486.25 1685.87 1485.81 Q1683.58 1485.39 1681.13 1484.54 L1681.13 1480.02 Q1683.07 1481.16 1685.39 1481.74 Q1687.7 1482.32 1690.22 1482.32 Q1694.62 1482.32 1696.91 1480.58 Q1699.23 1478.84 1699.23 1475.53 Q1699.23 1472.48 1697.08 1470.77 Q1694.95 1469.03 1691.13 1469.03 L1687.1 1469.03 L1687.1 1465.19 L1691.31 1465.19 Q1694.76 1465.19 1696.59 1463.82 Q1698.42 1462.43 1698.42 1459.84 Q1698.42 1457.18 1696.52 1455.77 Q1694.65 1454.33 1691.13 1454.33 Q1689.21 1454.33 1687.01 1454.75 Q1684.81 1455.16 1682.17 1456.04 L1682.17 1451.88 Q1684.83 1451.14 1687.15 1450.77 Q1689.48 1450.39 1691.54 1450.39 Q1696.87 1450.39 1699.97 1452.83 Q1703.07 1455.23 1703.07 1459.35 Q1703.07 1462.22 1701.43 1464.21 Q1699.79 1466.18 1696.75 1466.95 Z" fill="#000000" fill-rule="nonzero" fill-opacity="1" /><path clip-path="url(#clip700)" d="M1712.75 1479.7 L1717.63 1479.7 L1717.63 1485.58 L1712.75 1485.58 L1712.75 1479.7 Z" fill="#000000" fill-rule="nonzero" fill-opacity="1" /><path clip-path="url(#clip700)" d="M1727.86 1451.02 L1746.22 1451.02 L1746.22 1454.96 L1732.15 1454.96 L1732.15 1463.43 Q1733.16 1463.08 1734.18 1462.92 Q1735.2 1462.73 1736.22 1462.73 Q1742.01 1462.73 1745.39 1465.9 Q1748.77 1469.08 1748.77 1474.49 Q1748.77 1480.07 1745.29 1483.17 Q1741.82 1486.25 1735.5 1486.25 Q1733.33 1486.25 1731.06 1485.88 Q1728.81 1485.51 1726.41 1484.77 L1726.41 1480.07 Q1728.49 1481.2 1730.71 1481.76 Q1732.93 1482.32 1735.41 1482.32 Q1739.41 1482.32 1741.75 1480.21 Q1744.09 1478.1 1744.09 1474.49 Q1744.09 1470.88 1741.75 1468.77 Q1739.41 1466.67 1735.41 1466.67 Q1733.53 1466.67 1731.66 1467.08 Q1729.81 1467.5 1727.86 1468.38 L1727.86 1451.02 Z" fill="#000000" fill-rule="nonzero" fill-opacity="1" /><path clip-path="url(#clip700)" d="M2048.62 1455.09 L2036.81 1473.54 L2048.62 1473.54 L2048.62 1455.09 M2047.39 1451.02 L2053.27 1451.02 L2053.27 1473.54 L2058.2 1473.54 L2058.2 1477.43 L2053.27 1477.43 L2053.27 1485.58 L2048.62 1485.58 L2048.62 1477.43 L2033.02 1477.43 L2033.02 1472.92 L2047.39 1451.02 Z" fill="#000000" fill-rule="nonzero" fill-opacity="1" /><path clip-path="url(#clip700)" d="M2065.93 1479.7 L2070.82 1479.7 L2070.82 1485.58 L2065.93 1485.58 L2065.93 1479.7 Z" fill="#000000" fill-rule="nonzero" fill-opacity="1" /><path clip-path="url(#clip700)" d="M2091 1454.1 Q2087.39 1454.1 2085.56 1457.66 Q2083.76 1461.2 2083.76 1468.33 Q2083.76 1475.44 2085.56 1479.01 Q2087.39 1482.55 2091 1482.55 Q2094.64 1482.55 2096.44 1479.01 Q2098.27 1475.44 2098.27 1468.33 Q2098.27 1461.2 2096.44 1457.66 Q2094.64 1454.1 2091 1454.1 M2091 1450.39 Q2096.81 1450.39 2099.87 1455 Q2102.95 1459.58 2102.95 1468.33 Q2102.95 1477.06 2099.87 1481.67 Q2096.81 1486.25 2091 1486.25 Q2085.19 1486.25 2082.11 1481.67 Q2079.06 1477.06 2079.06 1468.33 Q2079.06 1459.58 2082.11 1455 Q2085.19 1450.39 2091 1450.39 Z" fill="#000000" fill-rule="nonzero" fill-opacity="1" /><path clip-path="url(#clip700)" d="M1245.93 1520.52 L1252.83 1520.52 L1264.64 1538.19 L1276.51 1520.52 L1283.42 1520.52 L1268.14 1543.34 L1284.44 1568.04 L1277.53 1568.04 L1264.16 1547.83 L1250.7 1568.04 L1243.76 1568.04 L1260.73 1542.68 L1245.93 1520.52 Z" fill="#000000" fill-rule="nonzero" fill-opacity="1" /><polyline clip-path="url(#clip700)" style="stroke:#000000; stroke-linecap:round; stroke-linejoin:round; stroke-width:4; stroke-opacity:1; fill:none" points="175.445,1423.18 175.445,47.2441 "/>
<polyline clip-path="url(#clip700)" style="stroke:#000000; stroke-linecap:round; stroke-linejoin:round; stroke-width:4; stroke-opacity:1; fill:none" points="175.445,1174.77 194.343,1174.77 "/>
<polyline clip-path="url(#clip700)" style="stroke:#000000; stroke-linecap:round; stroke-linejoin:round; stroke-width:4; stroke-opacity:1; fill:none" points="175.445,898.633 194.343,898.633 "/>
<polyline clip-path="url(#clip700)" style="stroke:#000000; stroke-linecap:round; stroke-linejoin:round; stroke-width:4; stroke-opacity:1; fill:none" points="175.445,622.499 194.343,622.499 "/>
<polyline clip-path="url(#clip700)" style="stroke:#000000; stroke-linecap:round; stroke-linejoin:round; stroke-width:4; stroke-opacity:1; fill:none" points="175.445,346.366 194.343,346.366 "/>
<polyline clip-path="url(#clip700)" style="stroke:#000000; stroke-linecap:round; stroke-linejoin:round; stroke-width:4; stroke-opacity:1; fill:none" points="175.445,70.2329 194.343,70.2329 "/>
<path clip-path="url(#clip700)" d="M123.126 1188.11 L139.445 1188.11 L139.445 1192.05 L117.501 1192.05 L117.501 1188.11 Q120.163 1185.36 124.746 1180.73 Q129.353 1176.07 130.533 1174.73 Q132.779 1172.21 133.658 1170.47 Q134.561 1168.71 134.561 1167.02 Q134.561 1164.27 132.617 1162.53 Q130.695 1160.8 127.593 1160.8 Q125.394 1160.8 122.941 1161.56 Q120.51 1162.32 117.732 1163.87 L117.732 1159.15 Q120.556 1158.02 123.01 1157.44 Q125.464 1156.86 127.501 1156.86 Q132.871 1156.86 136.066 1159.55 Q139.26 1162.23 139.26 1166.72 Q139.26 1168.85 138.45 1170.77 Q137.663 1172.67 135.556 1175.26 Q134.978 1175.94 131.876 1179.15 Q128.774 1182.35 123.126 1188.11 Z" fill="#000000" fill-rule="nonzero" fill-opacity="1" /><path clip-path="url(#clip700)" d="M132.316 897.279 Q135.672 897.996 137.547 900.265 Q139.445 902.533 139.445 905.867 Q139.445 910.982 135.927 913.783 Q132.408 916.584 125.927 916.584 Q123.751 916.584 121.436 916.144 Q119.144 915.728 116.691 914.871 L116.691 910.357 Q118.635 911.491 120.95 912.07 Q123.265 912.649 125.788 912.649 Q130.186 912.649 132.478 910.913 Q134.792 909.177 134.792 905.867 Q134.792 902.811 132.64 901.098 Q130.51 899.362 126.691 899.362 L122.663 899.362 L122.663 895.519 L126.876 895.519 Q130.325 895.519 132.154 894.154 Q133.982 892.765 133.982 890.172 Q133.982 887.51 132.084 886.098 Q130.209 884.663 126.691 884.663 Q124.769 884.663 122.57 885.08 Q120.371 885.496 117.732 886.376 L117.732 882.209 Q120.394 881.468 122.709 881.098 Q125.047 880.728 127.107 880.728 Q132.431 880.728 135.533 883.158 Q138.635 885.566 138.635 889.686 Q138.635 892.556 136.992 894.547 Q135.348 896.515 132.316 897.279 Z" fill="#000000" fill-rule="nonzero" fill-opacity="1" /><path clip-path="url(#clip700)" d="M129.862 609.294 L118.056 627.742 L129.862 627.742 L129.862 609.294 M128.635 605.219 L134.515 605.219 L134.515 627.742 L139.445 627.742 L139.445 631.631 L134.515 631.631 L134.515 639.779 L129.862 639.779 L129.862 631.631 L114.26 631.631 L114.26 627.117 L128.635 605.219 Z" fill="#000000" fill-rule="nonzero" fill-opacity="1" /><path clip-path="url(#clip700)" d="M118.543 329.086 L136.899 329.086 L136.899 333.021 L122.825 333.021 L122.825 341.494 Q123.843 341.146 124.862 340.984 Q125.88 340.799 126.899 340.799 Q132.686 340.799 136.066 343.97 Q139.445 347.142 139.445 352.558 Q139.445 358.137 135.973 361.239 Q132.501 364.317 126.181 364.317 Q124.005 364.317 121.737 363.947 Q119.492 363.577 117.084 362.836 L117.084 358.137 Q119.168 359.271 121.39 359.827 Q123.612 360.382 126.089 360.382 Q130.093 360.382 132.431 358.276 Q134.769 356.169 134.769 352.558 Q134.769 348.947 132.431 346.841 Q130.093 344.734 126.089 344.734 Q124.214 344.734 122.339 345.151 Q120.487 345.568 118.543 346.447 L118.543 329.086 Z" fill="#000000" fill-rule="nonzero" fill-opacity="1" /><path clip-path="url(#clip700)" d="M127.917 68.3695 Q124.769 68.3695 122.918 70.5222 Q121.089 72.675 121.089 76.425 Q121.089 80.1518 122.918 82.3277 Q124.769 84.4805 127.917 84.4805 Q131.066 84.4805 132.894 82.3277 Q134.746 80.1518 134.746 76.425 Q134.746 72.675 132.894 70.5222 Q131.066 68.3695 127.917 68.3695 M137.2 53.7168 L137.2 57.976 Q135.441 57.1427 133.635 56.7029 Q131.853 56.263 130.093 56.263 Q125.464 56.263 123.01 59.388 Q120.58 62.513 120.232 68.8324 Q121.598 66.8185 123.658 65.7537 Q125.718 64.6658 128.195 64.6658 Q133.404 64.6658 136.413 67.8371 Q139.445 70.9852 139.445 76.425 Q139.445 81.749 136.297 84.9666 Q133.149 88.1842 127.917 88.1842 Q121.922 88.1842 118.751 83.6009 Q115.58 78.9944 115.58 70.2676 Q115.58 62.0732 119.468 57.2121 Q123.357 52.3279 129.908 52.3279 Q131.667 52.3279 133.45 52.6751 Q135.255 53.0223 137.2 53.7168 Z" fill="#000000" fill-rule="nonzero" fill-opacity="1" /><path clip-path="url(#clip700)" d="M16.4842 755.248 L16.4842 748.341 L36.0269 735.164 L16.4842 722.083 L16.4842 715.176 L41.3741 731.981 L64.0042 731.981 L64.0042 738.443 L41.3741 738.443 L16.4842 755.248 Z" fill="#000000" fill-rule="nonzero" fill-opacity="1" /><circle clip-path="url(#clip702)" cx="469.678" cy="459.537" r="14.4" fill="#009af9" fill-rule="evenodd" fill-opacity="1" stroke="#000000" stroke-opacity="1" stroke-width="3.2"/>
<circle clip-path="url(#clip702)" cx="237.067" cy="1384.24" r="14.4" fill="#009af9" fill-rule="evenodd" fill-opacity="1" stroke="#000000" stroke-opacity="1" stroke-width="3.2"/>
<circle clip-path="url(#clip702)" cx="581.456" cy="951.072" r="14.4" fill="#009af9" fill-rule="evenodd" fill-opacity="1" stroke="#000000" stroke-opacity="1" stroke-width="3.2"/>
<circle clip-path="url(#clip702)" cx="361.97" cy="426.632" r="14.4" fill="#009af9" fill-rule="evenodd" fill-opacity="1" stroke="#000000" stroke-opacity="1" stroke-width="3.2"/>
<circle clip-path="url(#clip702)" cx="564.406" cy="781.086" r="14.4" fill="#009af9" fill-rule="evenodd" fill-opacity="1" stroke="#000000" stroke-opacity="1" stroke-width="3.2"/>
<circle clip-path="url(#clip702)" cx="2258.14" cy="1093.22" r="14.4" fill="#009af9" fill-rule="evenodd" fill-opacity="1" stroke="#000000" stroke-opacity="1" stroke-width="3.2"/>
<circle clip-path="url(#clip702)" cx="2287.95" cy="958.99" r="14.4" fill="#009af9" fill-rule="evenodd" fill-opacity="1" stroke="#000000" stroke-opacity="1" stroke-width="3.2"/>
<circle clip-path="url(#clip702)" cx="2291.13" cy="1317.59" r="14.4" fill="#009af9" fill-rule="evenodd" fill-opacity="1" stroke="#000000" stroke-opacity="1" stroke-width="3.2"/>
<circle clip-path="url(#clip702)" cx="2086.03" cy="86.1857" r="14.4" fill="#009af9" fill-rule="evenodd" fill-opacity="1" stroke="#000000" stroke-opacity="1" stroke-width="3.2"/>
<circle clip-path="url(#clip702)" cx="2255.64" cy="813.568" r="14.4" fill="#009af9" fill-rule="evenodd" fill-opacity="1" stroke="#000000" stroke-opacity="1" stroke-width="3.2"/>
<circle clip-path="url(#clip702)" cx="415.824" cy="443.084" r="14.4" fill="#e26f46" fill-rule="evenodd" fill-opacity="1" stroke="#000000" stroke-opacity="1" stroke-width="3.2"/>
<circle clip-path="url(#clip702)" cx="237.067" cy="1384.24" r="14.4" fill="#e26f46" fill-rule="evenodd" fill-opacity="1" stroke="#000000" stroke-opacity="1" stroke-width="3.2"/>
<circle clip-path="url(#clip702)" cx="581.456" cy="951.072" r="14.4" fill="#e26f46" fill-rule="evenodd" fill-opacity="1" stroke="#000000" stroke-opacity="1" stroke-width="3.2"/>
<circle clip-path="url(#clip702)" cx="415.824" cy="443.084" r="14.4" fill="#e26f46" fill-rule="evenodd" fill-opacity="1" stroke="#000000" stroke-opacity="1" stroke-width="3.2"/>
<circle clip-path="url(#clip702)" cx="564.406" cy="781.086" r="14.4" fill="#e26f46" fill-rule="evenodd" fill-opacity="1" stroke="#000000" stroke-opacity="1" stroke-width="3.2"/>
<circle clip-path="url(#clip702)" cx="2258.14" cy="1093.22" r="14.4" fill="#e26f46" fill-rule="evenodd" fill-opacity="1" stroke="#000000" stroke-opacity="1" stroke-width="3.2"/>
<circle clip-path="url(#clip702)" cx="2287.95" cy="958.99" r="14.4" fill="#e26f46" fill-rule="evenodd" fill-opacity="1" stroke="#000000" stroke-opacity="1" stroke-width="3.2"/>
<circle clip-path="url(#clip702)" cx="2291.13" cy="1317.59" r="14.4" fill="#e26f46" fill-rule="evenodd" fill-opacity="1" stroke="#000000" stroke-opacity="1" stroke-width="3.2"/>
<circle clip-path="url(#clip702)" cx="2086.03" cy="86.1857" r="14.4" fill="#e26f46" fill-rule="evenodd" fill-opacity="1" stroke="#000000" stroke-opacity="1" stroke-width="3.2"/>
<circle clip-path="url(#clip702)" cx="2255.64" cy="813.568" r="14.4" fill="#e26f46" fill-rule="evenodd" fill-opacity="1" stroke="#000000" stroke-opacity="1" stroke-width="3.2"/>
<path clip-path="url(#clip700)" d="M248.022 248.629 L946.816 248.629 L946.816 93.1086 L248.022 93.1086  Z" fill="#ffffff" fill-rule="evenodd" fill-opacity="1"/>
<polyline clip-path="url(#clip700)" style="stroke:#000000; stroke-linecap:round; stroke-linejoin:round; stroke-width:4; stroke-opacity:1; fill:none" points="248.022,248.629 946.816,248.629 946.816,93.1086 248.022,93.1086 248.022,248.629 "/>
<circle clip-path="url(#clip700)" cx="344.792" cy="144.949" r="20.48" fill="#009af9" fill-rule="evenodd" fill-opacity="1" stroke="#000000" stroke-opacity="1" stroke-width="4.55111"/>
<path clip-path="url(#clip700)" d="M457.579 130.84 Q452.487 130.84 449.478 134.636 Q446.491 138.432 446.491 144.983 Q446.491 151.511 449.478 155.307 Q452.487 159.104 457.579 159.104 Q462.672 159.104 465.635 155.307 Q468.621 151.511 468.621 144.983 Q468.621 138.432 465.635 134.636 Q462.672 130.84 457.579 130.84 M457.579 127.044 Q464.848 127.044 469.2 131.928 Q473.552 136.789 473.552 144.983 Q473.552 153.155 469.2 158.039 Q464.848 162.9 457.579 162.9 Q450.288 162.9 445.913 158.039 Q441.561 153.178 441.561 144.983 Q441.561 136.789 445.913 131.928 Q450.288 127.044 457.579 127.044 Z" fill="#000000" fill-rule="nonzero" fill-opacity="1" /><path clip-path="url(#clip700)" d="M495.704 140.284 Q494.987 139.868 494.13 139.682 Q493.297 139.474 492.278 139.474 Q488.667 139.474 486.723 141.835 Q484.801 144.173 484.801 148.571 L484.801 162.229 L480.519 162.229 L480.519 136.303 L484.801 136.303 L484.801 140.331 Q486.144 137.969 488.297 136.835 Q490.45 135.678 493.528 135.678 Q493.968 135.678 494.5 135.747 Q495.033 135.794 495.681 135.909 L495.704 140.284 Z" fill="#000000" fill-rule="nonzero" fill-opacity="1" /><path clip-path="url(#clip700)" d="M500.172 136.303 L504.431 136.303 L504.431 162.229 L500.172 162.229 L500.172 136.303 M500.172 126.21 L504.431 126.21 L504.431 131.604 L500.172 131.604 L500.172 126.21 Z" fill="#000000" fill-rule="nonzero" fill-opacity="1" /><path clip-path="url(#clip700)" d="M530.403 148.965 Q530.403 144.335 528.482 141.789 Q526.584 139.243 523.135 139.243 Q519.709 139.243 517.787 141.789 Q515.889 144.335 515.889 148.965 Q515.889 153.571 517.787 156.118 Q519.709 158.664 523.135 158.664 Q526.584 158.664 528.482 156.118 Q530.403 153.571 530.403 148.965 M534.662 159.011 Q534.662 165.631 531.723 168.849 Q528.783 172.09 522.718 172.09 Q520.473 172.09 518.482 171.742 Q516.491 171.418 514.616 170.724 L514.616 166.58 Q516.491 167.599 518.32 168.085 Q520.149 168.571 522.047 168.571 Q526.236 168.571 528.32 166.372 Q530.403 164.196 530.403 159.775 L530.403 157.668 Q529.084 159.96 527.023 161.094 Q524.963 162.229 522.093 162.229 Q517.324 162.229 514.408 158.594 Q511.491 154.96 511.491 148.965 Q511.491 142.946 514.408 139.312 Q517.324 135.678 522.093 135.678 Q524.963 135.678 527.023 136.812 Q529.084 137.946 530.403 140.238 L530.403 136.303 L534.662 136.303 L534.662 159.011 Z" fill="#000000" fill-rule="nonzero" fill-opacity="1" /><path clip-path="url(#clip700)" d="M543.435 136.303 L547.695 136.303 L547.695 162.229 L543.435 162.229 L543.435 136.303 M543.435 126.21 L547.695 126.21 L547.695 131.604 L543.435 131.604 L543.435 126.21 Z" fill="#000000" fill-rule="nonzero" fill-opacity="1" /><path clip-path="url(#clip700)" d="M578.157 146.581 L578.157 162.229 L573.898 162.229 L573.898 146.719 Q573.898 143.039 572.463 141.21 Q571.028 139.382 568.158 139.382 Q564.708 139.382 562.718 141.581 Q560.727 143.78 560.727 147.576 L560.727 162.229 L556.445 162.229 L556.445 136.303 L560.727 136.303 L560.727 140.331 Q562.255 137.993 564.315 136.835 Q566.398 135.678 569.107 135.678 Q573.574 135.678 575.866 138.456 Q578.157 141.21 578.157 146.581 Z" fill="#000000" fill-rule="nonzero" fill-opacity="1" /><path clip-path="url(#clip700)" d="M598.435 149.196 Q593.273 149.196 591.282 150.377 Q589.292 151.557 589.292 154.405 Q589.292 156.673 590.773 158.016 Q592.278 159.335 594.847 159.335 Q598.389 159.335 600.518 156.835 Q602.671 154.312 602.671 150.145 L602.671 149.196 L598.435 149.196 M606.93 147.437 L606.93 162.229 L602.671 162.229 L602.671 158.293 Q601.213 160.655 599.037 161.789 Q596.861 162.9 593.713 162.9 Q589.731 162.9 587.37 160.678 Q585.032 158.432 585.032 154.682 Q585.032 150.307 587.949 148.085 Q590.889 145.863 596.699 145.863 L602.671 145.863 L602.671 145.446 Q602.671 142.507 600.727 140.909 Q598.805 139.289 595.31 139.289 Q593.088 139.289 590.981 139.821 Q588.875 140.354 586.931 141.419 L586.931 137.483 Q589.269 136.581 591.468 136.141 Q593.667 135.678 595.75 135.678 Q601.375 135.678 604.153 138.594 Q606.93 141.511 606.93 147.437 Z" fill="#000000" fill-rule="nonzero" fill-opacity="1" /><path clip-path="url(#clip700)" d="M615.704 126.21 L619.963 126.21 L619.963 162.229 L615.704 162.229 L615.704 126.21 Z" fill="#000000" fill-rule="nonzero" fill-opacity="1" /><path clip-path="url(#clip700)" d="M661.004 140.238 L661.004 126.21 L665.263 126.21 L665.263 162.229 L661.004 162.229 L661.004 158.34 Q659.662 160.655 657.601 161.789 Q655.564 162.9 652.694 162.9 Q647.995 162.9 645.032 159.15 Q642.092 155.4 642.092 149.289 Q642.092 143.178 645.032 139.428 Q647.995 135.678 652.694 135.678 Q655.564 135.678 657.601 136.812 Q659.662 137.923 661.004 140.238 M646.49 149.289 Q646.49 153.988 648.412 156.673 Q650.356 159.335 653.736 159.335 Q657.115 159.335 659.06 156.673 Q661.004 153.988 661.004 149.289 Q661.004 144.59 659.06 141.928 Q657.115 139.243 653.736 139.243 Q650.356 139.243 648.412 141.928 Q646.49 144.59 646.49 149.289 Z" fill="#000000" fill-rule="nonzero" fill-opacity="1" /><path clip-path="url(#clip700)" d="M685.819 149.196 Q680.657 149.196 678.666 150.377 Q676.675 151.557 676.675 154.405 Q676.675 156.673 678.157 158.016 Q679.662 159.335 682.231 159.335 Q685.773 159.335 687.902 156.835 Q690.055 154.312 690.055 150.145 L690.055 149.196 L685.819 149.196 M694.314 147.437 L694.314 162.229 L690.055 162.229 L690.055 158.293 Q688.597 160.655 686.421 161.789 Q684.245 162.9 681.097 162.9 Q677.115 162.9 674.754 160.678 Q672.416 158.432 672.416 154.682 Q672.416 150.307 675.333 148.085 Q678.273 145.863 684.083 145.863 L690.055 145.863 L690.055 145.446 Q690.055 142.507 688.111 140.909 Q686.189 139.289 682.694 139.289 Q680.472 139.289 678.365 139.821 Q676.259 140.354 674.314 141.419 L674.314 137.483 Q676.652 136.581 678.851 136.141 Q681.05 135.678 683.134 135.678 Q688.759 135.678 691.536 138.594 Q694.314 141.511 694.314 147.437 Z" fill="#000000" fill-rule="nonzero" fill-opacity="1" /><path clip-path="url(#clip700)" d="M707.3 128.942 L707.3 136.303 L716.073 136.303 L716.073 139.613 L707.3 139.613 L707.3 153.687 Q707.3 156.858 708.157 157.761 Q709.036 158.664 711.698 158.664 L716.073 158.664 L716.073 162.229 L711.698 162.229 Q706.768 162.229 704.893 160.4 Q703.018 158.548 703.018 153.687 L703.018 139.613 L699.893 139.613 L699.893 136.303 L703.018 136.303 L703.018 128.942 L707.3 128.942 Z" fill="#000000" fill-rule="nonzero" fill-opacity="1" /><path clip-path="url(#clip700)" d="M733.458 149.196 Q728.296 149.196 726.305 150.377 Q724.314 151.557 724.314 154.405 Q724.314 156.673 725.796 158.016 Q727.3 159.335 729.87 159.335 Q733.411 159.335 735.541 156.835 Q737.694 154.312 737.694 150.145 L737.694 149.196 L733.458 149.196 M741.953 147.437 L741.953 162.229 L737.694 162.229 L737.694 158.293 Q736.235 160.655 734.059 161.789 Q731.883 162.9 728.735 162.9 Q724.754 162.9 722.393 160.678 Q720.055 158.432 720.055 154.682 Q720.055 150.307 722.971 148.085 Q725.911 145.863 731.721 145.863 L737.694 145.863 L737.694 145.446 Q737.694 142.507 735.749 140.909 Q733.828 139.289 730.333 139.289 Q728.11 139.289 726.004 139.821 Q723.897 140.354 721.953 141.419 L721.953 137.483 Q724.291 136.581 726.49 136.141 Q728.689 135.678 730.772 135.678 Q736.397 135.678 739.175 138.594 Q741.953 141.511 741.953 147.437 Z" fill="#000000" fill-rule="nonzero" fill-opacity="1" /><circle clip-path="url(#clip700)" cx="344.792" cy="196.789" r="20.48" fill="#e26f46" fill-rule="evenodd" fill-opacity="1" stroke="#000000" stroke-opacity="1" stroke-width="4.55111"/>
<path clip-path="url(#clip700)" d="M446.237 183.351 L446.237 210.226 L451.885 210.226 Q459.038 210.226 462.348 206.985 Q465.681 203.745 465.681 196.754 Q465.681 189.809 462.348 186.592 Q459.038 183.351 451.885 183.351 L446.237 183.351 M441.561 179.509 L451.167 179.509 Q461.214 179.509 465.913 183.698 Q470.612 187.865 470.612 196.754 Q470.612 205.689 465.89 209.879 Q461.167 214.069 451.167 214.069 L441.561 214.069 L441.561 179.509 Z" fill="#000000" fill-rule="nonzero" fill-opacity="1" /><path clip-path="url(#clip700)" d="M489.663 201.036 Q484.501 201.036 482.51 202.217 Q480.519 203.397 480.519 206.245 Q480.519 208.513 482.001 209.856 Q483.505 211.175 486.075 211.175 Q489.616 211.175 491.746 208.675 Q493.899 206.152 493.899 201.985 L493.899 201.036 L489.663 201.036 M498.158 199.277 L498.158 214.069 L493.899 214.069 L493.899 210.133 Q492.44 212.495 490.264 213.629 Q488.088 214.74 484.94 214.74 Q480.959 214.74 478.598 212.518 Q476.26 210.272 476.26 206.522 Q476.26 202.147 479.176 199.925 Q482.116 197.703 487.926 197.703 L493.899 197.703 L493.899 197.286 Q493.899 194.347 491.954 192.749 Q490.033 191.129 486.538 191.129 Q484.315 191.129 482.209 191.661 Q480.102 192.194 478.158 193.259 L478.158 189.323 Q480.496 188.421 482.695 187.981 Q484.894 187.518 486.977 187.518 Q492.602 187.518 495.38 190.434 Q498.158 193.351 498.158 199.277 Z" fill="#000000" fill-rule="nonzero" fill-opacity="1" /><path clip-path="url(#clip700)" d="M511.144 180.782 L511.144 188.143 L519.917 188.143 L519.917 191.453 L511.144 191.453 L511.144 205.527 Q511.144 208.698 512 209.601 Q512.88 210.504 515.542 210.504 L519.917 210.504 L519.917 214.069 L515.542 214.069 Q510.612 214.069 508.737 212.24 Q506.862 210.388 506.862 205.527 L506.862 191.453 L503.737 191.453 L503.737 188.143 L506.862 188.143 L506.862 180.782 L511.144 180.782 Z" fill="#000000" fill-rule="nonzero" fill-opacity="1" /><path clip-path="url(#clip700)" d="M537.301 201.036 Q532.139 201.036 530.148 202.217 Q528.158 203.397 528.158 206.245 Q528.158 208.513 529.639 209.856 Q531.144 211.175 533.713 211.175 Q537.255 211.175 539.385 208.675 Q541.537 206.152 541.537 201.985 L541.537 201.036 L537.301 201.036 M545.797 199.277 L545.797 214.069 L541.537 214.069 L541.537 210.133 Q540.079 212.495 537.903 213.629 Q535.727 214.74 532.579 214.74 Q528.598 214.74 526.236 212.518 Q523.898 210.272 523.898 206.522 Q523.898 202.147 526.815 199.925 Q529.755 197.703 535.565 197.703 L541.537 197.703 L541.537 197.286 Q541.537 194.347 539.593 192.749 Q537.672 191.129 534.176 191.129 Q531.954 191.129 529.848 191.661 Q527.741 192.194 525.797 193.259 L525.797 189.323 Q528.135 188.421 530.334 187.981 Q532.533 187.518 534.616 187.518 Q540.241 187.518 543.019 190.434 Q545.797 193.351 545.797 199.277 Z" fill="#000000" fill-rule="nonzero" fill-opacity="1" /><path clip-path="url(#clip700)" d="M581.421 201.036 Q576.259 201.036 574.269 202.217 Q572.278 203.397 572.278 206.245 Q572.278 208.513 573.759 209.856 Q575.264 211.175 577.833 211.175 Q581.375 211.175 583.505 208.675 Q585.657 206.152 585.657 201.985 L585.657 201.036 L581.421 201.036 M589.917 199.277 L589.917 214.069 L585.657 214.069 L585.657 210.133 Q584.199 212.495 582.023 213.629 Q579.847 214.74 576.699 214.74 Q572.718 214.74 570.357 212.518 Q568.019 210.272 568.019 206.522 Q568.019 202.147 570.935 199.925 Q573.875 197.703 579.685 197.703 L585.657 197.703 L585.657 197.286 Q585.657 194.347 583.713 192.749 Q581.792 191.129 578.296 191.129 Q576.074 191.129 573.968 191.661 Q571.861 192.194 569.917 193.259 L569.917 189.323 Q572.255 188.421 574.454 187.981 Q576.653 187.518 578.736 187.518 Q584.361 187.518 587.139 190.434 Q589.917 193.351 589.917 199.277 Z" fill="#000000" fill-rule="nonzero" fill-opacity="1" /><path clip-path="url(#clip700)" d="M611.815 178.05 L611.815 181.592 L607.741 181.592 Q605.449 181.592 604.546 182.518 Q603.667 183.444 603.667 185.851 L603.667 188.143 L610.68 188.143 L610.68 191.453 L603.667 191.453 L603.667 214.069 L599.384 214.069 L599.384 191.453 L595.31 191.453 L595.31 188.143 L599.384 188.143 L599.384 186.337 Q599.384 182.009 601.398 180.041 Q603.412 178.05 607.787 178.05 L611.815 178.05 Z" fill="#000000" fill-rule="nonzero" fill-opacity="1" /><path clip-path="url(#clip700)" d="M618.759 180.782 L618.759 188.143 L627.532 188.143 L627.532 191.453 L618.759 191.453 L618.759 205.527 Q618.759 208.698 619.616 209.601 Q620.495 210.504 623.157 210.504 L627.532 210.504 L627.532 214.069 L623.157 214.069 Q618.227 214.069 616.352 212.24 Q614.477 210.388 614.477 205.527 L614.477 191.453 L611.352 191.453 L611.352 188.143 L614.477 188.143 L614.477 180.782 L618.759 180.782 Z" fill="#000000" fill-rule="nonzero" fill-opacity="1" /><path clip-path="url(#clip700)" d="M655.31 200.041 L655.31 202.124 L635.727 202.124 Q636.004 206.522 638.365 208.837 Q640.75 211.129 644.986 211.129 Q647.439 211.129 649.731 210.527 Q652.046 209.925 654.314 208.721 L654.314 212.749 Q652.023 213.721 649.615 214.231 Q647.208 214.74 644.731 214.74 Q638.527 214.74 634.893 211.129 Q631.282 207.518 631.282 201.36 Q631.282 194.995 634.708 191.268 Q638.157 187.518 643.99 187.518 Q649.222 187.518 652.254 190.897 Q655.31 194.254 655.31 200.041 M651.051 198.791 Q651.004 195.296 649.083 193.212 Q647.185 191.129 644.037 191.129 Q640.472 191.129 638.319 193.143 Q636.19 195.157 635.865 198.814 L651.051 198.791 Z" fill="#000000" fill-rule="nonzero" fill-opacity="1" /><path clip-path="url(#clip700)" d="M677.324 192.124 Q676.606 191.708 675.75 191.522 Q674.916 191.314 673.898 191.314 Q670.287 191.314 668.342 193.675 Q666.421 196.013 666.421 200.411 L666.421 214.069 L662.138 214.069 L662.138 188.143 L666.421 188.143 L666.421 192.171 Q667.763 189.809 669.916 188.675 Q672.069 187.518 675.148 187.518 Q675.587 187.518 676.12 187.587 Q676.652 187.634 677.3 187.749 L677.324 192.124 Z" fill="#000000" fill-rule="nonzero" fill-opacity="1" /><path clip-path="url(#clip700)" d="M715.518 189.138 L715.518 193.12 Q713.712 192.124 711.884 191.638 Q710.078 191.129 708.226 191.129 Q704.083 191.129 701.791 193.768 Q699.499 196.384 699.499 201.129 Q699.499 205.874 701.791 208.513 Q704.083 211.129 708.226 211.129 Q710.078 211.129 711.884 210.643 Q713.712 210.133 715.518 209.138 L715.518 213.073 Q713.735 213.907 711.814 214.323 Q709.916 214.74 707.763 214.74 Q701.907 214.74 698.458 211.059 Q695.009 207.379 695.009 201.129 Q695.009 194.786 698.481 191.152 Q701.976 187.518 708.041 187.518 Q710.009 187.518 711.884 187.935 Q713.759 188.328 715.518 189.138 Z" fill="#000000" fill-rule="nonzero" fill-opacity="1" /><path clip-path="url(#clip700)" d="M722.925 178.05 L727.184 178.05 L727.184 214.069 L722.925 214.069 L722.925 178.05 Z" fill="#000000" fill-rule="nonzero" fill-opacity="1" /><path clip-path="url(#clip700)" d="M735.657 203.837 L735.657 188.143 L739.916 188.143 L739.916 203.675 Q739.916 207.356 741.351 209.208 Q742.786 211.036 745.657 211.036 Q749.106 211.036 751.096 208.837 Q753.11 206.638 753.11 202.842 L753.11 188.143 L757.369 188.143 L757.369 214.069 L753.11 214.069 L753.11 210.087 Q751.559 212.448 749.499 213.606 Q747.462 214.74 744.754 214.74 Q740.286 214.74 737.971 211.962 Q735.657 209.184 735.657 203.837 M746.374 187.518 L746.374 187.518 Z" fill="#000000" fill-rule="nonzero" fill-opacity="1" /><path clip-path="url(#clip700)" d="M782.67 188.907 L782.67 192.934 Q780.865 192.009 778.92 191.546 Q776.976 191.083 774.893 191.083 Q771.721 191.083 770.124 192.055 Q768.55 193.027 768.55 194.971 Q768.55 196.453 769.684 197.309 Q770.818 198.143 774.244 198.907 L775.703 199.231 Q780.24 200.203 782.138 201.985 Q784.059 203.745 784.059 206.916 Q784.059 210.527 781.189 212.633 Q778.342 214.74 773.342 214.74 Q771.258 214.74 768.99 214.323 Q766.744 213.93 764.244 213.12 L764.244 208.721 Q766.606 209.948 768.897 210.573 Q771.189 211.175 773.434 211.175 Q776.443 211.175 778.064 210.157 Q779.684 209.115 779.684 207.24 Q779.684 205.504 778.504 204.578 Q777.346 203.652 773.388 202.796 L771.906 202.448 Q767.948 201.615 766.189 199.902 Q764.43 198.166 764.43 195.157 Q764.43 191.499 767.022 189.509 Q769.615 187.518 774.383 187.518 Q776.744 187.518 778.828 187.865 Q780.911 188.212 782.67 188.907 Z" fill="#000000" fill-rule="nonzero" fill-opacity="1" /><path clip-path="url(#clip700)" d="M795.054 180.782 L795.054 188.143 L803.828 188.143 L803.828 191.453 L795.054 191.453 L795.054 205.527 Q795.054 208.698 795.911 209.601 Q796.791 210.504 799.453 210.504 L803.828 210.504 L803.828 214.069 L799.453 214.069 Q794.522 214.069 792.647 212.24 Q790.772 210.388 790.772 205.527 L790.772 191.453 L787.647 191.453 L787.647 188.143 L790.772 188.143 L790.772 180.782 L795.054 180.782 Z" fill="#000000" fill-rule="nonzero" fill-opacity="1" /><path clip-path="url(#clip700)" d="M831.605 200.041 L831.605 202.124 L812.022 202.124 Q812.3 206.522 814.661 208.837 Q817.045 211.129 821.281 211.129 Q823.735 211.129 826.026 210.527 Q828.341 209.925 830.61 208.721 L830.61 212.749 Q828.318 213.721 825.911 214.231 Q823.503 214.74 821.027 214.74 Q814.823 214.74 811.189 211.129 Q807.578 207.518 807.578 201.36 Q807.578 194.995 811.003 191.268 Q814.452 187.518 820.286 187.518 Q825.517 187.518 828.55 190.897 Q831.605 194.254 831.605 200.041 M827.346 198.791 Q827.3 195.296 825.378 193.212 Q823.48 191.129 820.332 191.129 Q816.767 191.129 814.615 193.143 Q812.485 195.157 812.161 198.814 L827.346 198.791 Z" fill="#000000" fill-rule="nonzero" fill-opacity="1" /><path clip-path="url(#clip700)" d="M853.619 192.124 Q852.901 191.708 852.045 191.522 Q851.212 191.314 850.193 191.314 Q846.582 191.314 844.638 193.675 Q842.716 196.013 842.716 200.411 L842.716 214.069 L838.434 214.069 L838.434 188.143 L842.716 188.143 L842.716 192.171 Q844.059 189.809 846.212 188.675 Q848.364 187.518 851.443 187.518 Q851.883 187.518 852.415 187.587 Q852.948 187.634 853.596 187.749 L853.619 192.124 Z" fill="#000000" fill-rule="nonzero" fill-opacity="1" /><path clip-path="url(#clip700)" d="M858.087 188.143 L862.346 188.143 L862.346 214.069 L858.087 214.069 L858.087 188.143 M858.087 178.05 L862.346 178.05 L862.346 183.444 L858.087 183.444 L858.087 178.05 Z" fill="#000000" fill-rule="nonzero" fill-opacity="1" /><path clip-path="url(#clip700)" d="M892.809 198.421 L892.809 214.069 L888.549 214.069 L888.549 198.559 Q888.549 194.879 887.114 193.05 Q885.679 191.222 882.809 191.222 Q879.36 191.222 877.369 193.421 Q875.378 195.62 875.378 199.416 L875.378 214.069 L871.096 214.069 L871.096 188.143 L875.378 188.143 L875.378 192.171 Q876.906 189.833 878.966 188.675 Q881.049 187.518 883.758 187.518 Q888.225 187.518 890.517 190.296 Q892.809 193.05 892.809 198.421 Z" fill="#000000" fill-rule="nonzero" fill-opacity="1" /><path clip-path="url(#clip700)" d="M918.364 200.805 Q918.364 196.175 916.443 193.629 Q914.545 191.083 911.095 191.083 Q907.67 191.083 905.748 193.629 Q903.85 196.175 903.85 200.805 Q903.85 205.411 905.748 207.958 Q907.67 210.504 911.095 210.504 Q914.545 210.504 916.443 207.958 Q918.364 205.411 918.364 200.805 M922.623 210.851 Q922.623 217.471 919.683 220.689 Q916.744 223.93 910.679 223.93 Q908.433 223.93 906.443 223.582 Q904.452 223.258 902.577 222.564 L902.577 218.42 Q904.452 219.439 906.281 219.925 Q908.109 220.411 910.008 220.411 Q914.197 220.411 916.281 218.212 Q918.364 216.036 918.364 211.615 L918.364 209.508 Q917.045 211.8 914.984 212.934 Q912.924 214.069 910.054 214.069 Q905.285 214.069 902.369 210.434 Q899.452 206.8 899.452 200.805 Q899.452 194.786 902.369 191.152 Q905.285 187.518 910.054 187.518 Q912.924 187.518 914.984 188.652 Q917.045 189.786 918.364 192.078 L918.364 188.143 L922.623 188.143 L922.623 210.851 Z" fill="#000000" fill-rule="nonzero" fill-opacity="1" /></svg>
