<?xml version="1.0" encoding="utf-8"?>
<svg xmlns="http://www.w3.org/2000/svg" xmlns:xlink="http://www.w3.org/1999/xlink" width="600" height="400" viewBox="0 0 2400 1600">
<defs>
  <clipPath id="clip450">
    <rect x="0" y="0" width="2400" height="1600"/>
  </clipPath>
</defs>
<path clip-path="url(#clip450)" d="M0 1600 L2400 1600 L2400 0 L0 0  Z" fill="#ffffff" fill-rule="evenodd" fill-opacity="1"/>
<defs>
  <clipPath id="clip451">
    <rect x="480" y="0" width="1681" height="1600"/>
  </clipPath>
</defs>
<path clip-path="url(#clip450)" d="M201.232 1423.18 L2352.76 1423.18 L2352.76 47.2441 L201.232 47.2441  Z" fill="#ffffff" fill-rule="evenodd" fill-opacity="1"/>
<defs>
  <clipPath id="clip452">
    <rect x="201" y="47" width="2153" height="1377"/>
  </clipPath>
</defs>
<polyline clip-path="url(#clip452)" style="stroke:#000000; stroke-linecap:round; stroke-linejoin:round; stroke-width:2; stroke-opacity:0.1; fill:none" points="441.837,1423.18 441.837,47.2441 "/>
<polyline clip-path="url(#clip452)" style="stroke:#000000; stroke-linecap:round; stroke-linejoin:round; stroke-width:2; stroke-opacity:0.1; fill:none" points="935.393,1423.18 935.393,47.2441 "/>
<polyline clip-path="url(#clip452)" style="stroke:#000000; stroke-linecap:round; stroke-linejoin:round; stroke-width:2; stroke-opacity:0.1; fill:none" points="1428.95,1423.18 1428.95,47.2441 "/>
<polyline clip-path="url(#clip452)" style="stroke:#000000; stroke-linecap:round; stroke-linejoin:round; stroke-width:2; stroke-opacity:0.1; fill:none" points="1922.5,1423.18 1922.5,47.2441 "/>
<polyline clip-path="url(#clip452)" style="stroke:#000000; stroke-linecap:round; stroke-linejoin:round; stroke-width:2; stroke-opacity:0.1; fill:none" points="201.232,1215.4 2352.76,1215.4 "/>
<polyline clip-path="url(#clip452)" style="stroke:#000000; stroke-linecap:round; stroke-linejoin:round; stroke-width:2; stroke-opacity:0.1; fill:none" points="201.232,965.618 2352.76,965.618 "/>
<polyline clip-path="url(#clip452)" style="stroke:#000000; stroke-linecap:round; stroke-linejoin:round; stroke-width:2; stroke-opacity:0.1; fill:none" points="201.232,715.84 2352.76,715.84 "/>
<polyline clip-path="url(#clip452)" style="stroke:#000000; stroke-linecap:round; stroke-linejoin:round; stroke-width:2; stroke-opacity:0.1; fill:none" points="201.232,466.062 2352.76,466.062 "/>
<polyline clip-path="url(#clip452)" style="stroke:#000000; stroke-linecap:round; stroke-linejoin:round; stroke-width:2; stroke-opacity:0.1; fill:none" points="201.232,216.284 2352.76,216.284 "/>
<polyline clip-path="url(#clip450)" style="stroke:#000000; stroke-linecap:round; stroke-linejoin:round; stroke-width:4; stroke-opacity:1; fill:none" points="201.232,1423.18 2352.76,1423.18 "/>
<polyline clip-path="url(#clip450)" style="stroke:#000000; stroke-linecap:round; stroke-linejoin:round; stroke-width:4; stroke-opacity:1; fill:none" points="441.837,1423.18 441.837,1404.28 "/>
<polyline clip-path="url(#clip450)" style="stroke:#000000; stroke-linecap:round; stroke-linejoin:round; stroke-width:4; stroke-opacity:1; fill:none" points="935.393,1423.18 935.393,1404.28 "/>
<polyline clip-path="url(#clip450)" style="stroke:#000000; stroke-linecap:round; stroke-linejoin:round; stroke-width:4; stroke-opacity:1; fill:none" points="1428.95,1423.18 1428.95,1404.28 "/>
<polyline clip-path="url(#clip450)" style="stroke:#000000; stroke-linecap:round; stroke-linejoin:round; stroke-width:4; stroke-opacity:1; fill:none" points="1922.5,1423.18 1922.5,1404.28 "/>
<path clip-path="url(#clip450)" d="M436.49 1481.64 L452.809 1481.64 L452.809 1485.58 L430.865 1485.58 L430.865 1481.64 Q433.527 1478.89 438.11 1474.26 Q442.717 1469.61 443.897 1468.27 Q446.143 1465.74 447.022 1464.01 Q447.925 1462.25 447.925 1460.56 Q447.925 1457.8 445.981 1456.07 Q444.059 1454.33 440.958 1454.33 Q438.759 1454.33 436.305 1455.09 Q433.874 1455.86 431.097 1457.41 L431.097 1452.69 Q433.921 1451.55 436.374 1450.97 Q438.828 1450.39 440.865 1450.39 Q446.235 1450.39 449.43 1453.08 Q452.624 1455.77 452.624 1460.26 Q452.624 1462.39 451.814 1464.31 Q451.027 1466.2 448.921 1468.8 Q448.342 1469.47 445.24 1472.69 Q442.138 1475.88 436.49 1481.64 Z" fill="#000000" fill-rule="nonzero" fill-opacity="1" /><path clip-path="url(#clip450)" d="M938.402 1455.09 L926.596 1473.54 L938.402 1473.54 L938.402 1455.09 M937.175 1451.02 L943.055 1451.02 L943.055 1473.54 L947.985 1473.54 L947.985 1477.43 L943.055 1477.43 L943.055 1485.58 L938.402 1485.58 L938.402 1477.43 L922.8 1477.43 L922.8 1472.92 L937.175 1451.02 Z" fill="#000000" fill-rule="nonzero" fill-opacity="1" /><path clip-path="url(#clip450)" d="M1429.35 1466.44 Q1426.2 1466.44 1424.35 1468.59 Q1422.52 1470.74 1422.52 1474.49 Q1422.52 1478.22 1424.35 1480.39 Q1426.2 1482.55 1429.35 1482.55 Q1432.5 1482.55 1434.33 1480.39 Q1436.18 1478.22 1436.18 1474.49 Q1436.18 1470.74 1434.33 1468.59 Q1432.5 1466.44 1429.35 1466.44 M1438.64 1451.78 L1438.64 1456.04 Q1436.88 1455.21 1435.07 1454.77 Q1433.29 1454.33 1431.53 1454.33 Q1426.9 1454.33 1424.45 1457.45 Q1422.02 1460.58 1421.67 1466.9 Q1423.03 1464.89 1425.09 1463.82 Q1427.15 1462.73 1429.63 1462.73 Q1434.84 1462.73 1437.85 1465.9 Q1440.88 1469.05 1440.88 1474.49 Q1440.88 1479.82 1437.73 1483.03 Q1434.58 1486.25 1429.35 1486.25 Q1423.36 1486.25 1420.19 1481.67 Q1417.02 1477.06 1417.02 1468.33 Q1417.02 1460.14 1420.9 1455.28 Q1424.79 1450.39 1431.34 1450.39 Q1433.1 1450.39 1434.89 1450.74 Q1436.69 1451.09 1438.64 1451.78 Z" fill="#000000" fill-rule="nonzero" fill-opacity="1" /><path clip-path="url(#clip450)" d="M1922.5 1469.17 Q1919.17 1469.17 1917.25 1470.95 Q1915.35 1472.73 1915.35 1475.86 Q1915.35 1478.98 1917.25 1480.77 Q1919.17 1482.55 1922.5 1482.55 Q1925.84 1482.55 1927.76 1480.77 Q1929.68 1478.96 1929.68 1475.86 Q1929.68 1472.73 1927.76 1470.95 Q1925.86 1469.17 1922.5 1469.17 M1917.83 1467.18 Q1914.82 1466.44 1913.13 1464.38 Q1911.46 1462.32 1911.46 1459.35 Q1911.46 1455.21 1914.4 1452.8 Q1917.36 1450.39 1922.5 1450.39 Q1927.67 1450.39 1930.61 1452.8 Q1933.54 1455.21 1933.54 1459.35 Q1933.54 1462.32 1931.86 1464.38 Q1930.19 1466.44 1927.2 1467.18 Q1930.58 1467.96 1932.46 1470.26 Q1934.36 1472.55 1934.36 1475.86 Q1934.36 1480.88 1931.28 1483.57 Q1928.22 1486.25 1922.5 1486.25 Q1916.79 1486.25 1913.71 1483.57 Q1910.65 1480.88 1910.65 1475.86 Q1910.65 1472.55 1912.55 1470.26 Q1914.45 1467.96 1917.83 1467.18 M1916.11 1459.79 Q1916.11 1462.48 1917.78 1463.98 Q1919.47 1465.49 1922.5 1465.49 Q1925.51 1465.49 1927.2 1463.98 Q1928.92 1462.48 1928.92 1459.79 Q1928.92 1457.11 1927.2 1455.6 Q1925.51 1454.1 1922.5 1454.1 Q1919.47 1454.1 1917.78 1455.6 Q1916.11 1457.11 1916.11 1459.79 Z" fill="#000000" fill-rule="nonzero" fill-opacity="1" /><path clip-path="url(#clip450)" d="M1258.82 1520.52 L1265.73 1520.52 L1277.54 1538.19 L1289.41 1520.52 L1296.31 1520.52 L1281.04 1543.34 L1297.33 1568.04 L1290.43 1568.04 L1277.06 1547.83 L1263.59 1568.04 L1256.66 1568.04 L1273.62 1542.68 L1258.82 1520.52 Z" fill="#000000" fill-rule="nonzero" fill-opacity="1" /><polyline clip-path="url(#clip450)" style="stroke:#000000; stroke-linecap:round; stroke-linejoin:round; stroke-width:4; stroke-opacity:1; fill:none" points="201.232,1423.18 201.232,47.2441 "/>
<polyline clip-path="url(#clip450)" style="stroke:#000000; stroke-linecap:round; stroke-linejoin:round; stroke-width:4; stroke-opacity:1; fill:none" points="201.232,1215.4 220.13,1215.4 "/>
<polyline clip-path="url(#clip450)" style="stroke:#000000; stroke-linecap:round; stroke-linejoin:round; stroke-width:4; stroke-opacity:1; fill:none" points="201.232,965.618 220.13,965.618 "/>
<polyline clip-path="url(#clip450)" style="stroke:#000000; stroke-linecap:round; stroke-linejoin:round; stroke-width:4; stroke-opacity:1; fill:none" points="201.232,715.84 220.13,715.84 "/>
<polyline clip-path="url(#clip450)" style="stroke:#000000; stroke-linecap:round; stroke-linejoin:round; stroke-width:4; stroke-opacity:1; fill:none" points="201.232,466.062 220.13,466.062 "/>
<polyline clip-path="url(#clip450)" style="stroke:#000000; stroke-linecap:round; stroke-linejoin:round; stroke-width:4; stroke-opacity:1; fill:none" points="201.232,216.284 220.13,216.284 "/>
<path clip-path="url(#clip450)" d="M158.103 1214.04 Q161.459 1214.76 163.334 1217.03 Q165.232 1219.3 165.232 1222.63 Q165.232 1227.74 161.714 1230.55 Q158.195 1233.35 151.714 1233.35 Q149.538 1233.35 147.223 1232.91 Q144.931 1232.49 142.478 1231.63 L142.478 1227.12 Q144.422 1228.25 146.737 1228.83 Q149.052 1229.41 151.575 1229.41 Q155.973 1229.41 158.265 1227.68 Q160.579 1225.94 160.579 1222.63 Q160.579 1219.57 158.427 1217.86 Q156.297 1216.12 152.478 1216.12 L148.45 1216.12 L148.45 1212.28 L152.663 1212.28 Q156.112 1212.28 157.94 1210.92 Q159.769 1209.53 159.769 1206.93 Q159.769 1204.27 157.871 1202.86 Q155.996 1201.43 152.478 1201.43 Q150.556 1201.43 148.357 1201.84 Q146.158 1202.26 143.519 1203.14 L143.519 1198.97 Q146.181 1198.23 148.496 1197.86 Q150.834 1197.49 152.894 1197.49 Q158.218 1197.49 161.32 1199.92 Q164.422 1202.33 164.422 1206.45 Q164.422 1209.32 162.778 1211.31 Q161.135 1213.28 158.103 1214.04 Z" fill="#000000" fill-rule="nonzero" fill-opacity="1" /><path clip-path="url(#clip450)" d="M153.704 963.754 Q150.556 963.754 148.704 965.907 Q146.876 968.06 146.876 971.81 Q146.876 975.536 148.704 977.712 Q150.556 979.865 153.704 979.865 Q156.853 979.865 158.681 977.712 Q160.533 975.536 160.533 971.81 Q160.533 968.06 158.681 965.907 Q156.853 963.754 153.704 963.754 M162.987 949.101 L162.987 953.361 Q161.227 952.527 159.422 952.088 Q157.64 951.648 155.88 951.648 Q151.251 951.648 148.797 954.773 Q146.366 957.898 146.019 964.217 Q147.385 962.203 149.445 961.138 Q151.505 960.05 153.982 960.05 Q159.19 960.05 162.2 963.222 Q165.232 966.37 165.232 971.81 Q165.232 977.134 162.084 980.351 Q158.936 983.569 153.704 983.569 Q147.709 983.569 144.538 978.986 Q141.366 974.379 141.366 965.652 Q141.366 957.458 145.255 952.597 Q149.144 947.713 155.695 947.713 Q157.454 947.713 159.237 948.06 Q161.042 948.407 162.987 949.101 Z" fill="#000000" fill-rule="nonzero" fill-opacity="1" /><path clip-path="url(#clip450)" d="M143.612 732.402 L143.612 728.143 Q145.371 728.976 147.177 729.416 Q148.982 729.856 150.718 729.856 Q155.348 729.856 157.778 726.754 Q160.232 723.629 160.579 717.287 Q159.237 719.277 157.177 720.342 Q155.116 721.407 152.616 721.407 Q147.431 721.407 144.399 718.282 Q141.39 715.134 141.39 709.694 Q141.39 704.37 144.538 701.152 Q147.686 697.935 152.917 697.935 Q158.913 697.935 162.061 702.541 Q165.232 707.125 165.232 715.875 Q165.232 724.046 161.343 728.93 Q157.478 733.791 150.927 733.791 Q149.167 733.791 147.362 733.444 Q145.556 733.097 143.612 732.402 M152.917 717.749 Q156.065 717.749 157.894 715.597 Q159.746 713.444 159.746 709.694 Q159.746 705.967 157.894 703.814 Q156.065 701.638 152.917 701.638 Q149.769 701.638 147.917 703.814 Q146.089 705.967 146.089 709.694 Q146.089 713.444 147.917 715.597 Q149.769 717.749 152.917 717.749 Z" fill="#000000" fill-rule="nonzero" fill-opacity="1" /><path clip-path="url(#clip450)" d="M115.533 479.407 L123.172 479.407 L123.172 453.041 L114.862 454.708 L114.862 450.449 L123.126 448.782 L127.802 448.782 L127.802 479.407 L135.441 479.407 L135.441 483.342 L115.533 483.342 L115.533 479.407 Z" fill="#000000" fill-rule="nonzero" fill-opacity="1" /><path clip-path="url(#clip450)" d="M148.913 479.407 L165.232 479.407 L165.232 483.342 L143.288 483.342 L143.288 479.407 Q145.95 476.652 150.533 472.023 Q155.14 467.37 156.32 466.027 Q158.565 463.504 159.445 461.768 Q160.348 460.009 160.348 458.319 Q160.348 455.564 158.403 453.828 Q156.482 452.092 153.38 452.092 Q151.181 452.092 148.728 452.856 Q146.297 453.62 143.519 455.171 L143.519 450.449 Q146.343 449.314 148.797 448.736 Q151.251 448.157 153.288 448.157 Q158.658 448.157 161.852 450.842 Q165.047 453.527 165.047 458.018 Q165.047 460.148 164.237 462.069 Q163.45 463.967 161.343 466.56 Q160.765 467.231 157.663 470.449 Q154.561 473.643 148.913 479.407 Z" fill="#000000" fill-rule="nonzero" fill-opacity="1" /><path clip-path="url(#clip450)" d="M114.931 229.629 L122.57 229.629 L122.57 203.264 L114.26 204.93 L114.26 200.671 L122.524 199.004 L127.2 199.004 L127.2 229.629 L134.839 229.629 L134.839 233.564 L114.931 233.564 L114.931 229.629 Z" fill="#000000" fill-rule="nonzero" fill-opacity="1" /><path clip-path="url(#clip450)" d="M144.329 199.004 L162.686 199.004 L162.686 202.939 L148.612 202.939 L148.612 211.412 Q149.63 211.064 150.649 210.902 Q151.667 210.717 152.686 210.717 Q158.473 210.717 161.852 213.888 Q165.232 217.06 165.232 222.476 Q165.232 228.055 161.76 231.157 Q158.288 234.236 151.968 234.236 Q149.792 234.236 147.524 233.865 Q145.279 233.495 142.871 232.754 L142.871 228.055 Q144.954 229.189 147.177 229.745 Q149.399 230.3 151.876 230.3 Q155.88 230.3 158.218 228.194 Q160.556 226.087 160.556 222.476 Q160.556 218.865 158.218 216.759 Q155.88 214.652 151.876 214.652 Q150.001 214.652 148.126 215.069 Q146.274 215.486 144.329 216.365 L144.329 199.004 Z" fill="#000000" fill-rule="nonzero" fill-opacity="1" /><path clip-path="url(#clip450)" d="M16.4842 755.248 L16.4842 748.341 L36.0269 735.164 L16.4842 722.083 L16.4842 715.176 L41.3741 731.981 L64.0042 731.981 L64.0042 738.443 L41.3741 738.443 L16.4842 755.248 Z" fill="#000000" fill-rule="nonzero" fill-opacity="1" /><circle clip-path="url(#clip452)" cx="412.479" cy="1287.85" r="14.4" fill="#009af9" fill-rule="evenodd" fill-opacity="1" stroke="#000000" stroke-opacity="1" stroke-width="3.2"/>
<circle clip-path="url(#clip452)" cx="415.605" cy="1221.26" r="14.4" fill="#009af9" fill-rule="evenodd" fill-opacity="1" stroke="#000000" stroke-opacity="1" stroke-width="3.2"/>
<circle clip-path="url(#clip452)" cx="382.878" cy="1384.24" r="14.4" fill="#009af9" fill-rule="evenodd" fill-opacity="1" stroke="#000000" stroke-opacity="1" stroke-width="3.2"/>
<circle clip-path="url(#clip452)" cx="262.124" cy="1129.45" r="14.4" fill="#009af9" fill-rule="evenodd" fill-opacity="1" stroke="#000000" stroke-opacity="1" stroke-width="3.2"/>
<circle clip-path="url(#clip452)" cx="440.423" cy="1140.66" r="14.4" fill="#009af9" fill-rule="evenodd" fill-opacity="1" stroke="#000000" stroke-opacity="1" stroke-width="3.2"/>
<circle clip-path="url(#clip452)" cx="1809.73" cy="770.528" r="14.4" fill="#009af9" fill-rule="evenodd" fill-opacity="1" stroke="#000000" stroke-opacity="1" stroke-width="3.2"/>
<circle clip-path="url(#clip452)" cx="1901.41" cy="184.589" r="14.4" fill="#009af9" fill-rule="evenodd" fill-opacity="1" stroke="#000000" stroke-opacity="1" stroke-width="3.2"/>
<circle clip-path="url(#clip452)" cx="2291.86" cy="86.1857" r="14.4" fill="#009af9" fill-rule="evenodd" fill-opacity="1" stroke="#000000" stroke-opacity="1" stroke-width="3.2"/>
<circle clip-path="url(#clip452)" cx="1932.96" cy="967.241" r="14.4" fill="#009af9" fill-rule="evenodd" fill-opacity="1" stroke="#000000" stroke-opacity="1" stroke-width="3.2"/>
<circle clip-path="url(#clip452)" cx="1954.67" cy="1266.95" r="14.4" fill="#009af9" fill-rule="evenodd" fill-opacity="1" stroke="#000000" stroke-opacity="1" stroke-width="3.2"/>
</svg>
