<?xml version="1.0" encoding="utf-8"?>
<svg xmlns="http://www.w3.org/2000/svg" xmlns:xlink="http://www.w3.org/1999/xlink" width="600" height="400" viewBox="0 0 2400 1600">
<defs>
  <clipPath id="clip810">
    <rect x="0" y="0" width="2400" height="1600"/>
  </clipPath>
</defs>
<path clip-path="url(#clip810)" d="M0 1600 L2400 1600 L2400 0 L0 0  Z" fill="#ffffff" fill-rule="evenodd" fill-opacity="1"/>
<defs>
  <clipPath id="clip811">
    <rect x="480" y="0" width="1681" height="1600"/>
  </clipPath>
</defs>
<path clip-path="url(#clip810)" d="M201.232 1423.18 L2352.76 1423.18 L2352.76 47.2441 L201.232 47.2441  Z" fill="#ffffff" fill-rule="evenodd" fill-opacity="1"/>
<defs>
  <clipPath id="clip812">
    <rect x="201" y="47" width="2153" height="1377"/>
  </clipPath>
</defs>
<polyline clip-path="url(#clip812)" style="stroke:#000000; stroke-linecap:round; stroke-linejoin:round; stroke-width:2; stroke-opacity:0.1; fill:none" points="441.837,1423.18 441.837,47.2441 "/>
<polyline clip-path="url(#clip812)" style="stroke:#000000; stroke-linecap:round; stroke-linejoin:round; stroke-width:2; stroke-opacity:0.1; fill:none" points="935.393,1423.18 935.393,47.2441 "/>
<polyline clip-path="url(#clip812)" style="stroke:#000000; stroke-linecap:round; stroke-linejoin:round; stroke-width:2; stroke-opacity:0.1; fill:none" points="1428.95,1423.18 1428.95,47.2441 "/>
<polyline clip-path="url(#clip812)" style="stroke:#000000; stroke-linecap:round; stroke-linejoin:round; stroke-width:2; stroke-opacity:0.1; fill:none" points="1922.5,1423.18 1922.5,47.2441 "/>
<polyline clip-path="url(#clip812)" style="stroke:#000000; stroke-linecap:round; stroke-linejoin:round; stroke-width:2; stroke-opacity:0.1; fill:none" points="201.232,1215.4 2352.76,1215.4 "/>
<polyline clip-path="url(#clip812)" style="stroke:#000000; stroke-linecap:round; stroke-linejoin:round; stroke-width:2; stroke-opacity:0.1; fill:none" points="201.232,965.618 2352.76,965.618 "/>
<polyline clip-path="url(#clip812)" style="stroke:#000000; stroke-linecap:round; stroke-linejoin:round; stroke-width:2; stroke-opacity:0.1; fill:none" points="201.232,715.84 2352.76,715.84 "/>
<polyline clip-path="url(#clip812)" style="stroke:#000000; stroke-linecap:round; stroke-linejoin:round; stroke-width:2; stroke-opacity:0.1; fill:none" points="201.232,466.062 2352.76,466.062 "/>
<polyline clip-path="url(#clip812)" style="stroke:#000000; stroke-linecap:round; stroke-linejoin:round; stroke-width:2; stroke-opacity:0.1; fill:none" points="201.232,216.284 2352.76,216.284 "/>
<polyline clip-path="url(#clip810)" style="stroke:#000000; stroke-linecap:round; stroke-linejoin:round; stroke-width:4; stroke-opacity:1; fill:none" points="201.232,1423.18 2352.76,1423.18 "/>
<polyline clip-path="url(#clip810)" style="stroke:#000000; stroke-linecap:round; stroke-linejoin:round; stroke-width:4; stroke-opacity:1; fill:none" points="441.837,1423.18 441.837,1404.28 "/>
<polyline clip-path="url(#clip810)" style="stroke:#000000; stroke-linecap:round; stroke-linejoin:round; stroke-width:4; stroke-opacity:1; fill:none" points="935.393,1423.18 935.393,1404.28 "/>
<polyline clip-path="url(#clip810)" style="stroke:#000000; stroke-linecap:round; stroke-linejoin:round; stroke-width:4; stroke-opacity:1; fill:none" points="1428.95,1423.18 1428.95,1404.28 "/>
<polyline clip-path="url(#clip810)" style="stroke:#000000; stroke-linecap:round; stroke-linejoin:round; stroke-width:4; stroke-opacity:1; fill:none" points="1922.5,1423.18 1922.5,1404.28 "/>
<path clip-path="url(#clip810)" d="M436.49 1481.64 L452.809 1481.64 L452.809 1485.58 L430.865 1485.58 L430.865 1481.64 Q433.527 1478.89 438.11 1474.26 Q442.717 1469.61 443.897 1468.27 Q446.143 1465.74 447.022 1464.01 Q447.925 1462.25 447.925 1460.56 Q447.925 1457.8 445.981 1456.07 Q444.059 1454.33 440.958 1454.33 Q438.759 1454.33 436.305 1455.09 Q433.874 1455.86 431.097 1457.41 L431.097 1452.69 Q433.921 1451.55 436.374 1450.97 Q438.828 1450.39 440.865 1450.39 Q446.235 1450.39 449.43 1453.08 Q452.624 1455.77 452.624 1460.26 Q452.624 1462.39 451.814 1464.31 Q451.027 1466.2 448.921 1468.8 Q448.342 1469.47 445.24 1472.69 Q442.138 1475.88 436.49 1481.64 Z" fill="#000000" fill-rule="nonzero" fill-opacity="1" /><path clip-path="url(#clip810)" d="M938.402 1455.09 L926.596 1473.54 L938.402 1473.54 L938.402 1455.09 M937.175 1451.02 L943.055 1451.02 L943.055 1473.54 L947.985 1473.54 L947.985 1477.43 L943.055 1477.43 L943.055 1485.58 L938.402 1485.58 L938.402 1477.43 L922.8 1477.43 L922.8 1472.92 L937.175 1451.02 Z" fill="#000000" fill-rule="nonzero" fill-opacity="1" /><path clip-path="url(#clip810)" d="M1429.35 1466.44 Q1426.2 1466.44 1424.35 1468.59 Q1422.52 1470.74 1422.52 1474.49 Q1422.52 1478.22 1424.35 1480.39 Q1426.2 1482.55 1429.35 1482.55 Q1432.5 1482.55 1434.33 1480.39 Q1436.18 1478.22 1436.18 1474.49 Q1436.18 1470.74 1434.33 1468.59 Q1432.5 1466.44 1429.35 1466.44 M1438.64 1451.78 L1438.64 1456.04 Q1436.88 1455.21 1435.07 1454.77 Q1433.29 1454.33 1431.53 1454.33 Q1426.9 1454.33 1424.45 1457.45 Q1422.02 1460.58 1421.67 1466.9 Q1423.03 1464.89 1425.09 1463.82 Q1427.15 1462.73 1429.63 1462.73 Q1434.84 1462.73 1437.85 1465.9 Q1440.88 1469.05 1440.88 1474.49 Q1440.88 1479.82 1437.73 1483.03 Q1434.58 1486.25 1429.35 1486.25 Q1423.36 1486.25 1420.19 1481.67 Q1417.02 1477.06 1417.02 1468.33 Q1417.02 1460.14 1420.9 1455.28 Q1424.79 1450.39 1431.34 1450.39 Q1433.1 1450.39 1434.89 1450.74 Q1436.69 1451.09 1438.64 1451.78 Z" fill="#000000" fill-rule="nonzero" fill-opacity="1" /><path clip-path="url(#clip810)" d="M1922.5 1469.17 Q1919.17 1469.17 1917.25 1470.95 Q1915.35 1472.73 1915.35 1475.86 Q1915.35 1478.98 1917.25 1480.77 Q1919.17 1482.55 1922.5 1482.55 Q1925.84 1482.55 1927.76 1480.77 Q1929.68 1478.96 1929.68 1475.86 Q1929.68 1472.73 1927.76 1470.95 Q1925.86 1469.17 1922.5 1469.17 M1917.83 1467.18 Q1914.82 1466.44 1913.13 1464.38 Q1911.46 1462.32 1911.46 1459.35 Q1911.46 1455.21 1914.4 1452.8 Q1917.36 1450.39 1922.5 1450.39 Q1927.67 1450.39 1930.61 1452.8 Q1933.54 1455.21 1933.54 1459.35 Q1933.54 1462.32 1931.86 1464.38 Q1930.19 1466.44 1927.2 1467.18 Q1930.58 1467.96 1932.46 1470.26 Q1934.36 1472.55 1934.36 1475.86 Q1934.36 1480.88 1931.28 1483.57 Q1928.22 1486.25 1922.5 1486.25 Q1916.79 1486.25 1913.71 1483.57 Q1910.65 1480.88 1910.65 1475.86 Q1910.65 1472.55 1912.55 1470.26 Q1914.45 1467.96 1917.83 1467.18 M1916.11 1459.79 Q1916.11 1462.48 1917.78 1463.98 Q1919.47 1465.49 1922.5 1465.49 Q1925.51 1465.49 1927.2 1463.98 Q1928.92 1462.48 1928.92 1459.79 Q1928.92 1457.11 1927.2 1455.6 Q1925.51 1454.1 1922.5 1454.1 Q1919.47 1454.1 1917.78 1455.6 Q1916.11 1457.11 1916.11 1459.79 Z" fill="#000000" fill-rule="nonzero" fill-opacity="1" /><path clip-path="url(#clip810)" d="M1258.82 1520.52 L1265.73 1520.52 L1277.54 1538.19 L1289.41 1520.52 L1296.31 1520.52 L1281.04 1543.34 L1297.33 1568.04 L1290.43 1568.04 L1277.06 1547.83 L1263.59 1568.04 L1256.66 1568.04 L1273.62 1542.68 L1258.82 1520.52 Z" fill="#000000" fill-rule="nonzero" fill-opacity="1" /><polyline clip-path="url(#clip810)" style="stroke:#000000; stroke-linecap:round; stroke-linejoin:round; stroke-width:4; stroke-opacity:1; fill:none" points="201.232,1423.18 201.232,47.2441 "/>
<polyline clip-path="url(#clip810)" style="stroke:#000000; stroke-linecap:round; stroke-linejoin:round; stroke-width:4; stroke-opacity:1; fill:none" points="201.232,1215.4 220.13,1215.4 "/>
<polyline clip-path="url(#clip810)" style="stroke:#000000; stroke-linecap:round; stroke-linejoin:round; stroke-width:4; stroke-opacity:1; fill:none" points="201.232,965.618 220.13,965.618 "/>
<polyline clip-path="url(#clip810)" style="stroke:#000000; stroke-linecap:round; stroke-linejoin:round; stroke-width:4; stroke-opacity:1; fill:none" points="201.232,715.84 220.13,715.84 "/>
<polyline clip-path="url(#clip810)" style="stroke:#000000; stroke-linecap:round; stroke-linejoin:round; stroke-width:4; stroke-opacity:1; fill:none" points="201.232,466.062 220.13,466.062 "/>
<polyline clip-path="url(#clip810)" style="stroke:#000000; stroke-linecap:round; stroke-linejoin:round; stroke-width:4; stroke-opacity:1; fill:none" points="201.232,216.284 220.13,216.284 "/>
<path clip-path="url(#clip810)" d="M158.103 1214.04 Q161.459 1214.76 163.334 1217.03 Q165.232 1219.3 165.232 1222.63 Q165.232 1227.74 161.714 1230.55 Q158.195 1233.35 151.714 1233.35 Q149.538 1233.35 147.223 1232.91 Q144.931 1232.49 142.478 1231.63 L142.478 1227.12 Q144.422 1228.25 146.737 1228.83 Q149.052 1229.41 151.575 1229.41 Q155.973 1229.41 158.265 1227.68 Q160.579 1225.94 160.579 1222.63 Q160.579 1219.57 158.427 1217.86 Q156.297 1216.12 152.478 1216.12 L148.45 1216.12 L148.45 1212.28 L152.663 1212.28 Q156.112 1212.28 157.94 1210.92 Q159.769 1209.53 159.769 1206.93 Q159.769 1204.27 157.871 1202.86 Q155.996 1201.43 152.478 1201.43 Q150.556 1201.43 148.357 1201.84 Q146.158 1202.26 143.519 1203.14 L143.519 1198.97 Q146.181 1198.23 148.496 1197.86 Q150.834 1197.49 152.894 1197.49 Q158.218 1197.49 161.32 1199.92 Q164.422 1202.33 164.422 1206.45 Q164.422 1209.32 162.778 1211.31 Q161.135 1213.28 158.103 1214.04 Z" fill="#000000" fill-rule="nonzero" fill-opacity="1" /><path clip-path="url(#clip810)" d="M153.704 963.754 Q150.556 963.754 148.704 965.907 Q146.876 968.06 146.876 971.81 Q146.876 975.536 148.704 977.712 Q150.556 979.865 153.704 979.865 Q156.853 979.865 158.681 977.712 Q160.533 975.536 160.533 971.81 Q160.533 968.06 158.681 965.907 Q156.853 963.754 153.704 963.754 M162.987 949.101 L162.987 953.361 Q161.227 952.527 159.422 952.088 Q157.64 951.648 155.88 951.648 Q151.251 951.648 148.797 954.773 Q146.366 957.898 146.019 964.217 Q147.385 962.203 149.445 961.138 Q151.505 960.05 153.982 960.05 Q159.19 960.05 162.2 963.222 Q165.232 966.37 165.232 971.81 Q165.232 977.134 162.084 980.351 Q158.936 983.569 153.704 983.569 Q147.709 983.569 144.538 978.986 Q141.366 974.379 141.366 965.652 Q141.366 957.458 145.255 952.597 Q149.144 947.713 155.695 947.713 Q157.454 947.713 159.237 948.06 Q161.042 948.407 162.987 949.101 Z" fill="#000000" fill-rule="nonzero" fill-opacity="1" /><path clip-path="url(#clip810)" d="M143.612 732.402 L143.612 728.143 Q145.371 728.976 147.177 729.416 Q148.982 729.856 150.718 729.856 Q155.348 729.856 157.778 726.754 Q160.232 723.629 160.579 717.287 Q159.237 719.277 157.177 720.342 Q155.116 721.407 152.616 721.407 Q147.431 721.407 144.399 718.282 Q141.39 715.134 141.39 709.694 Q141.39 704.37 144.538 701.152 Q147.686 697.935 152.917 697.935 Q158.913 697.935 162.061 702.541 Q165.232 707.125 165.232 715.875 Q165.232 724.046 161.343 728.93 Q157.478 733.791 150.927 733.791 Q149.167 733.791 147.362 733.444 Q145.556 733.097 143.612 732.402 M152.917 717.749 Q156.065 717.749 157.894 715.597 Q159.746 713.444 159.746 709.694 Q159.746 705.967 157.894 703.814 Q156.065 701.638 152.917 701.638 Q149.769 701.638 147.917 703.814 Q146.089 705.967 146.089 709.694 Q146.089 713.444 147.917 715.597 Q149.769 717.749 152.917 717.749 Z" fill="#000000" fill-rule="nonzero" fill-opacity="1" /><path clip-path="url(#clip810)" d="M115.533 479.407 L123.172 479.407 L123.172 453.041 L114.862 454.708 L114.862 450.449 L123.126 448.782 L127.802 448.782 L127.802 479.407 L135.441 479.407 L135.441 483.342 L115.533 483.342 L115.533 479.407 Z" fill="#000000" fill-rule="nonzero" fill-opacity="1" /><path clip-path="url(#clip810)" d="M148.913 479.407 L165.232 479.407 L165.232 483.342 L143.288 483.342 L143.288 479.407 Q145.95 476.652 150.533 472.023 Q155.14 467.37 156.32 466.027 Q158.565 463.504 159.445 461.768 Q160.348 460.009 160.348 458.319 Q160.348 455.564 158.403 453.828 Q156.482 452.092 153.38 452.092 Q151.181 452.092 148.728 452.856 Q146.297 453.62 143.519 455.171 L143.519 450.449 Q146.343 449.314 148.797 448.736 Q151.251 448.157 153.288 448.157 Q158.658 448.157 161.852 450.842 Q165.047 453.527 165.047 458.018 Q165.047 460.148 164.237 462.069 Q163.45 463.967 161.343 466.56 Q160.765 467.231 157.663 470.449 Q154.561 473.643 148.913 479.407 Z" fill="#000000" fill-rule="nonzero" fill-opacity="1" /><path clip-path="url(#clip810)" d="M114.931 229.629 L122.57 229.629 L122.57 203.264 L114.26 204.93 L114.26 200.671 L122.524 199.004 L127.2 199.004 L127.2 229.629 L134.839 229.629 L134.839 233.564 L114.931 233.564 L114.931 229.629 Z" fill="#000000" fill-rule="nonzero" fill-opacity="1" /><path clip-path="url(#clip810)" d="M144.329 199.004 L162.686 199.004 L162.686 202.939 L148.612 202.939 L148.612 211.412 Q149.63 211.064 150.649 210.902 Q151.667 210.717 152.686 210.717 Q158.473 210.717 161.852 213.888 Q165.232 217.06 165.232 222.476 Q165.232 228.055 161.76 231.157 Q158.288 234.236 151.968 234.236 Q149.792 234.236 147.524 233.865 Q145.279 233.495 142.871 232.754 L142.871 228.055 Q144.954 229.189 147.177 229.745 Q149.399 230.3 151.876 230.3 Q155.88 230.3 158.218 228.194 Q160.556 226.087 160.556 222.476 Q160.556 218.865 158.218 216.759 Q155.88 214.652 151.876 214.652 Q150.001 214.652 148.126 215.069 Q146.274 215.486 144.329 216.365 L144.329 199.004 Z" fill="#000000" fill-rule="nonzero" fill-opacity="1" /><path clip-path="url(#clip810)" d="M16.4842 755.248 L16.4842 748.341 L36.0269 735.164 L16.4842 722.083 L16.4842 715.176 L41.3741 731.981 L64.0042 731.981 L64.0042 738.443 L41.3741 738.443 L16.4842 755.248 Z" fill="#000000" fill-rule="nonzero" fill-opacity="1" /><circle clip-path="url(#clip812)" cx="1809.73" cy="770.528" r="14.4" fill="#009af9" fill-rule="evenodd" fill-opacity="1" stroke="#000000" stroke-opacity="1" stroke-width="3.2"/>
<circle clip-path="url(#clip812)" cx="1901.41" cy="184.589" r="14.4" fill="#009af9" fill-rule="evenodd" fill-opacity="1" stroke="#000000" stroke-opacity="1" stroke-width="3.2"/>
<circle clip-path="url(#clip812)" cx="2291.86" cy="86.1857" r="14.4" fill="#009af9" fill-rule="evenodd" fill-opacity="1" stroke="#000000" stroke-opacity="1" stroke-width="3.2"/>
<circle clip-path="url(#clip812)" cx="1932.96" cy="967.241" r="14.4" fill="#009af9" fill-rule="evenodd" fill-opacity="1" stroke="#000000" stroke-opacity="1" stroke-width="3.2"/>
<circle clip-path="url(#clip812)" cx="412.479" cy="1287.85" r="14.4" fill="#e26f46" fill-rule="evenodd" fill-opacity="1" stroke="#000000" stroke-opacity="1" stroke-width="3.2"/>
<circle clip-path="url(#clip812)" cx="415.605" cy="1221.26" r="14.4" fill="#e26f46" fill-rule="evenodd" fill-opacity="1" stroke="#000000" stroke-opacity="1" stroke-width="3.2"/>
<circle clip-path="url(#clip812)" cx="382.878" cy="1384.24" r="14.4" fill="#e26f46" fill-rule="evenodd" fill-opacity="1" stroke="#000000" stroke-opacity="1" stroke-width="3.2"/>
<circle clip-path="url(#clip812)" cx="262.124" cy="1129.45" r="14.4" fill="#e26f46" fill-rule="evenodd" fill-opacity="1" stroke="#000000" stroke-opacity="1" stroke-width="3.2"/>
<circle clip-path="url(#clip812)" cx="440.423" cy="1140.66" r="14.4" fill="#e26f46" fill-rule="evenodd" fill-opacity="1" stroke="#000000" stroke-opacity="1" stroke-width="3.2"/>
<circle clip-path="url(#clip812)" cx="1954.67" cy="1266.95" r="14.4" fill="#e26f46" fill-rule="evenodd" fill-opacity="1" stroke="#000000" stroke-opacity="1" stroke-width="3.2"/>
<circle clip-path="url(#clip812)" cx="1983.99" cy="502.136" r="14.4" fill="#3da44d" fill-rule="evenodd" fill-opacity="1" stroke="#000000" stroke-opacity="1" stroke-width="3.2"/>
<circle clip-path="url(#clip812)" cx="644.697" cy="1238.4" r="14.4" fill="#3da44d" fill-rule="evenodd" fill-opacity="1" stroke="#000000" stroke-opacity="1" stroke-width="3.2"/>
<path clip-path="url(#clip810)" d="M272.95 300.469 L709.443 300.469 L709.443 93.1086 L272.95 93.1086  Z" fill="#ffffff" fill-rule="evenodd" fill-opacity="1"/>
<polyline clip-path="url(#clip810)" style="stroke:#000000; stroke-linecap:round; stroke-linejoin:round; stroke-width:4; stroke-opacity:1; fill:none" points="272.95,300.469 709.443,300.469 709.443,93.1086 272.95,93.1086 272.95,300.469 "/>
<circle clip-path="url(#clip810)" cx="368.573" cy="144.949" r="20.48" fill="#009af9" fill-rule="evenodd" fill-opacity="1" stroke="#000000" stroke-opacity="1" stroke-width="4.55111"/>
<path clip-path="url(#clip810)" d="M464.867 158.293 L472.506 158.293 L472.506 131.928 L464.196 133.595 L464.196 129.335 L472.46 127.669 L477.136 127.669 L477.136 158.293 L484.775 158.293 L484.775 162.229 L464.867 162.229 L464.867 158.293 Z" fill="#000000" fill-rule="nonzero" fill-opacity="1" /><circle clip-path="url(#clip810)" cx="368.573" cy="196.789" r="20.48" fill="#e26f46" fill-rule="evenodd" fill-opacity="1" stroke="#000000" stroke-opacity="1" stroke-width="4.55111"/>
<path clip-path="url(#clip810)" d="M469.821 210.133 L486.14 210.133 L486.14 214.069 L464.196 214.069 L464.196 210.133 Q466.858 207.379 471.441 202.749 Q476.048 198.096 477.228 196.754 Q479.474 194.231 480.353 192.495 Q481.256 190.735 481.256 189.046 Q481.256 186.291 479.312 184.555 Q477.391 182.819 474.289 182.819 Q472.09 182.819 469.636 183.583 Q467.205 184.347 464.428 185.897 L464.428 181.175 Q467.252 180.041 469.705 179.462 Q472.159 178.884 474.196 178.884 Q479.566 178.884 482.761 181.569 Q485.955 184.254 485.955 188.745 Q485.955 190.874 485.145 192.796 Q484.358 194.694 482.252 197.286 Q481.673 197.958 478.571 201.175 Q475.469 204.37 469.821 210.133 Z" fill="#000000" fill-rule="nonzero" fill-opacity="1" /><circle clip-path="url(#clip810)" cx="368.573" cy="248.629" r="20.48" fill="#3da44d" fill-rule="evenodd" fill-opacity="1" stroke="#000000" stroke-opacity="1" stroke-width="4.55111"/>
<path clip-path="url(#clip810)" d="M492.066 234.011 L492.066 238.941 Q489.705 236.742 487.02 235.654 Q484.358 234.566 481.349 234.566 Q475.423 234.566 472.275 238.2 Q469.127 241.812 469.127 248.663 Q469.127 255.492 472.275 259.126 Q475.423 262.737 481.349 262.737 Q484.358 262.737 487.02 261.649 Q489.705 260.561 492.066 258.362 L492.066 263.247 Q489.613 264.913 486.858 265.747 Q484.127 266.58 481.071 266.58 Q473.224 266.58 468.71 261.788 Q464.196 256.973 464.196 248.663 Q464.196 240.33 468.71 235.538 Q473.224 230.724 481.071 230.724 Q484.173 230.724 486.904 231.557 Q489.659 232.367 492.066 234.011 Z" fill="#000000" fill-rule="nonzero" fill-opacity="1" /><path clip-path="url(#clip810)" d="M521.279 251.881 L521.279 253.964 L501.696 253.964 Q501.974 258.362 504.335 260.677 Q506.719 262.969 510.955 262.969 Q513.409 262.969 515.7 262.367 Q518.015 261.765 520.284 260.561 L520.284 264.589 Q517.992 265.561 515.585 266.071 Q513.177 266.58 510.701 266.58 Q504.497 266.58 500.863 262.969 Q497.252 259.358 497.252 253.2 Q497.252 246.835 500.677 243.108 Q504.126 239.358 509.96 239.358 Q515.191 239.358 518.224 242.737 Q521.279 246.094 521.279 251.881 M517.02 250.631 Q516.974 247.136 515.052 245.052 Q513.154 242.969 510.006 242.969 Q506.441 242.969 504.289 244.983 Q502.159 246.997 501.835 250.654 L517.02 250.631 Z" fill="#000000" fill-rule="nonzero" fill-opacity="1" /><path clip-path="url(#clip810)" d="M549.821 250.261 L549.821 265.909 L545.561 265.909 L545.561 250.399 Q545.561 246.719 544.126 244.89 Q542.691 243.062 539.821 243.062 Q536.372 243.062 534.381 245.261 Q532.39 247.46 532.39 251.256 L532.39 265.909 L528.108 265.909 L528.108 239.983 L532.39 239.983 L532.39 244.011 Q533.918 241.673 535.978 240.515 Q538.061 239.358 540.77 239.358 Q545.237 239.358 547.529 242.136 Q549.821 244.89 549.821 250.261 Z" fill="#000000" fill-rule="nonzero" fill-opacity="1" /><path clip-path="url(#clip810)" d="M562.529 232.622 L562.529 239.983 L571.302 239.983 L571.302 243.293 L562.529 243.293 L562.529 257.367 Q562.529 260.538 563.385 261.441 Q564.265 262.344 566.927 262.344 L571.302 262.344 L571.302 265.909 L566.927 265.909 Q561.997 265.909 560.122 264.08 Q558.247 262.228 558.247 257.367 L558.247 243.293 L555.122 243.293 L555.122 239.983 L558.247 239.983 L558.247 232.622 L562.529 232.622 Z" fill="#000000" fill-rule="nonzero" fill-opacity="1" /><path clip-path="url(#clip810)" d="M591.927 243.964 Q591.209 243.548 590.353 243.362 Q589.52 243.154 588.501 243.154 Q584.89 243.154 582.945 245.515 Q581.024 247.853 581.024 252.251 L581.024 265.909 L576.742 265.909 L576.742 239.983 L581.024 239.983 L581.024 244.011 Q582.367 241.649 584.52 240.515 Q586.672 239.358 589.751 239.358 Q590.191 239.358 590.723 239.427 Q591.256 239.474 591.904 239.589 L591.927 243.964 Z" fill="#000000" fill-rule="nonzero" fill-opacity="1" /><path clip-path="url(#clip810)" d="M605.399 242.969 Q601.973 242.969 599.982 245.654 Q597.992 248.316 597.992 252.969 Q597.992 257.622 599.959 260.307 Q601.95 262.969 605.399 262.969 Q608.802 262.969 610.793 260.284 Q612.783 257.598 612.783 252.969 Q612.783 248.362 610.793 245.677 Q608.802 242.969 605.399 242.969 M605.399 239.358 Q610.955 239.358 614.126 242.969 Q617.297 246.58 617.297 252.969 Q617.297 259.335 614.126 262.969 Q610.955 266.58 605.399 266.58 Q599.82 266.58 596.649 262.969 Q593.501 259.335 593.501 252.969 Q593.501 246.58 596.649 242.969 Q599.82 239.358 605.399 239.358 Z" fill="#000000" fill-rule="nonzero" fill-opacity="1" /><path clip-path="url(#clip810)" d="M624.357 239.983 L628.617 239.983 L628.617 265.909 L624.357 265.909 L624.357 239.983 M624.357 229.89 L628.617 229.89 L628.617 235.284 L624.357 235.284 L624.357 229.89 Z" fill="#000000" fill-rule="nonzero" fill-opacity="1" /><path clip-path="url(#clip810)" d="M654.589 243.918 L654.589 229.89 L658.848 229.89 L658.848 265.909 L654.589 265.909 L654.589 262.02 Q653.246 264.335 651.186 265.469 Q649.149 266.58 646.278 266.58 Q641.579 266.58 638.616 262.83 Q635.677 259.08 635.677 252.969 Q635.677 246.858 638.616 243.108 Q641.579 239.358 646.278 239.358 Q649.149 239.358 651.186 240.492 Q653.246 241.603 654.589 243.918 M640.075 252.969 Q640.075 257.668 641.996 260.353 Q643.941 263.015 647.32 263.015 Q650.7 263.015 652.644 260.353 Q654.589 257.668 654.589 252.969 Q654.589 248.27 652.644 245.608 Q650.7 242.923 647.32 242.923 Q643.941 242.923 641.996 245.608 Q640.075 248.27 640.075 252.969 Z" fill="#000000" fill-rule="nonzero" fill-opacity="1" /><path clip-path="url(#clip810)" d="M684.149 240.747 L684.149 244.774 Q682.343 243.849 680.399 243.386 Q678.454 242.923 676.371 242.923 Q673.2 242.923 671.602 243.895 Q670.028 244.867 670.028 246.811 Q670.028 248.293 671.163 249.149 Q672.297 249.983 675.723 250.747 L677.181 251.071 Q681.718 252.043 683.616 253.825 Q685.538 255.585 685.538 258.756 Q685.538 262.367 682.667 264.473 Q679.82 266.58 674.82 266.58 Q672.737 266.58 670.468 266.163 Q668.223 265.77 665.723 264.96 L665.723 260.561 Q668.084 261.788 670.376 262.413 Q672.667 263.015 674.913 263.015 Q677.922 263.015 679.542 261.997 Q681.163 260.955 681.163 259.08 Q681.163 257.344 679.982 256.418 Q678.825 255.492 674.866 254.636 L673.385 254.288 Q669.427 253.455 667.667 251.742 Q665.908 250.006 665.908 246.997 Q665.908 243.339 668.501 241.349 Q671.093 239.358 675.862 239.358 Q678.223 239.358 680.306 239.705 Q682.389 240.052 684.149 240.747 Z" fill="#000000" fill-rule="nonzero" fill-opacity="1" /></svg>
