<?xml version="1.0" encoding="utf-8"?>
<svg xmlns="http://www.w3.org/2000/svg" xmlns:xlink="http://www.w3.org/1999/xlink" width="600" height="400" viewBox="0 0 2400 1600">
<defs>
  <clipPath id="clip040">
    <rect x="0" y="0" width="2400" height="1600"/>
  </clipPath>
</defs>
<path clip-path="url(#clip040)" d="M0 1600 L2400 1600 L2400 0 L0 0  Z" fill="#ffffff" fill-rule="evenodd" fill-opacity="1"/>
<defs>
  <clipPath id="clip041">
    <rect x="480" y="0" width="1681" height="1600"/>
  </clipPath>
</defs>
<path clip-path="url(#clip040)" d="M202.227 1423.18 L2352.76 1423.18 L2352.76 47.2441 L202.227 47.2441  Z" fill="#ffffff" fill-rule="evenodd" fill-opacity="1"/>
<defs>
  <clipPath id="clip042">
    <rect x="202" y="47" width="2152" height="1377"/>
  </clipPath>
</defs>
<polyline clip-path="url(#clip042)" style="stroke:#000000; stroke-linecap:round; stroke-linejoin:round; stroke-width:2; stroke-opacity:0.1; fill:none" points="430.671,1423.18 430.671,47.2441 "/>
<polyline clip-path="url(#clip042)" style="stroke:#000000; stroke-linecap:round; stroke-linejoin:round; stroke-width:2; stroke-opacity:0.1; fill:none" points="902.113,1423.18 902.113,47.2441 "/>
<polyline clip-path="url(#clip042)" style="stroke:#000000; stroke-linecap:round; stroke-linejoin:round; stroke-width:2; stroke-opacity:0.1; fill:none" points="1373.56,1423.18 1373.56,47.2441 "/>
<polyline clip-path="url(#clip042)" style="stroke:#000000; stroke-linecap:round; stroke-linejoin:round; stroke-width:2; stroke-opacity:0.1; fill:none" points="1845,1423.18 1845,47.2441 "/>
<polyline clip-path="url(#clip042)" style="stroke:#000000; stroke-linecap:round; stroke-linejoin:round; stroke-width:2; stroke-opacity:0.1; fill:none" points="2316.44,1423.18 2316.44,47.2441 "/>
<polyline clip-path="url(#clip042)" style="stroke:#000000; stroke-linecap:round; stroke-linejoin:round; stroke-width:2; stroke-opacity:0.1; fill:none" points="202.227,1417.98 2352.76,1417.98 "/>
<polyline clip-path="url(#clip042)" style="stroke:#000000; stroke-linecap:round; stroke-linejoin:round; stroke-width:2; stroke-opacity:0.1; fill:none" points="202.227,1052.02 2352.76,1052.02 "/>
<polyline clip-path="url(#clip042)" style="stroke:#000000; stroke-linecap:round; stroke-linejoin:round; stroke-width:2; stroke-opacity:0.1; fill:none" points="202.227,686.061 2352.76,686.061 "/>
<polyline clip-path="url(#clip042)" style="stroke:#000000; stroke-linecap:round; stroke-linejoin:round; stroke-width:2; stroke-opacity:0.1; fill:none" points="202.227,320.1 2352.76,320.1 "/>
<polyline clip-path="url(#clip040)" style="stroke:#000000; stroke-linecap:round; stroke-linejoin:round; stroke-width:4; stroke-opacity:1; fill:none" points="202.227,1423.18 2352.76,1423.18 "/>
<polyline clip-path="url(#clip040)" style="stroke:#000000; stroke-linecap:round; stroke-linejoin:round; stroke-width:4; stroke-opacity:1; fill:none" points="430.671,1423.18 430.671,1404.28 "/>
<polyline clip-path="url(#clip040)" style="stroke:#000000; stroke-linecap:round; stroke-linejoin:round; stroke-width:4; stroke-opacity:1; fill:none" points="902.113,1423.18 902.113,1404.28 "/>
<polyline clip-path="url(#clip040)" style="stroke:#000000; stroke-linecap:round; stroke-linejoin:round; stroke-width:4; stroke-opacity:1; fill:none" points="1373.56,1423.18 1373.56,1404.28 "/>
<polyline clip-path="url(#clip040)" style="stroke:#000000; stroke-linecap:round; stroke-linejoin:round; stroke-width:4; stroke-opacity:1; fill:none" points="1845,1423.18 1845,1404.28 "/>
<polyline clip-path="url(#clip040)" style="stroke:#000000; stroke-linecap:round; stroke-linejoin:round; stroke-width:4; stroke-opacity:1; fill:none" points="2316.44,1423.18 2316.44,1404.28 "/>
<path clip-path="url(#clip040)" d="M425.324 1481.64 L441.644 1481.64 L441.644 1485.58 L419.699 1485.58 L419.699 1481.64 Q422.361 1478.89 426.945 1474.26 Q431.551 1469.61 432.732 1468.27 Q434.977 1465.74 435.857 1464.01 Q436.759 1462.25 436.759 1460.56 Q436.759 1457.8 434.815 1456.07 Q432.894 1454.33 429.792 1454.33 Q427.593 1454.33 425.139 1455.09 Q422.709 1455.86 419.931 1457.41 L419.931 1452.69 Q422.755 1451.55 425.209 1450.97 Q427.662 1450.39 429.699 1450.39 Q435.07 1450.39 438.264 1453.08 Q441.458 1455.77 441.458 1460.26 Q441.458 1462.39 440.648 1464.31 Q439.861 1466.2 437.755 1468.8 Q437.176 1469.47 434.074 1472.69 Q430.972 1475.88 425.324 1481.64 Z" fill="#000000" fill-rule="nonzero" fill-opacity="1" /><path clip-path="url(#clip040)" d="M905.123 1455.09 L893.317 1473.54 L905.123 1473.54 L905.123 1455.09 M903.896 1451.02 L909.775 1451.02 L909.775 1473.54 L914.706 1473.54 L914.706 1477.43 L909.775 1477.43 L909.775 1485.58 L905.123 1485.58 L905.123 1477.43 L889.521 1477.43 L889.521 1472.92 L903.896 1451.02 Z" fill="#000000" fill-rule="nonzero" fill-opacity="1" /><path clip-path="url(#clip040)" d="M1373.96 1466.44 Q1370.81 1466.44 1368.96 1468.59 Q1367.13 1470.74 1367.13 1474.49 Q1367.13 1478.22 1368.96 1480.39 Q1370.81 1482.55 1373.96 1482.55 Q1377.11 1482.55 1378.94 1480.39 Q1380.79 1478.22 1380.79 1474.49 Q1380.79 1470.74 1378.94 1468.59 Q1377.11 1466.44 1373.96 1466.44 M1383.24 1451.78 L1383.24 1456.04 Q1381.48 1455.21 1379.68 1454.77 Q1377.9 1454.33 1376.14 1454.33 Q1371.51 1454.33 1369.05 1457.45 Q1366.62 1460.58 1366.28 1466.9 Q1367.64 1464.89 1369.7 1463.82 Q1371.76 1462.73 1374.24 1462.73 Q1379.45 1462.73 1382.46 1465.9 Q1385.49 1469.05 1385.49 1474.49 Q1385.49 1479.82 1382.34 1483.03 Q1379.19 1486.25 1373.96 1486.25 Q1367.97 1486.25 1364.79 1481.67 Q1361.62 1477.06 1361.62 1468.33 Q1361.62 1460.14 1365.51 1455.28 Q1369.4 1450.39 1375.95 1450.39 Q1377.71 1450.39 1379.49 1450.74 Q1381.3 1451.09 1383.24 1451.78 Z" fill="#000000" fill-rule="nonzero" fill-opacity="1" /><path clip-path="url(#clip040)" d="M1845 1469.17 Q1841.66 1469.17 1839.74 1470.95 Q1837.84 1472.73 1837.84 1475.86 Q1837.84 1478.98 1839.74 1480.77 Q1841.66 1482.55 1845 1482.55 Q1848.33 1482.55 1850.25 1480.77 Q1852.17 1478.96 1852.17 1475.86 Q1852.17 1472.73 1850.25 1470.95 Q1848.35 1469.17 1845 1469.17 M1840.32 1467.18 Q1837.31 1466.44 1835.62 1464.38 Q1833.96 1462.32 1833.96 1459.35 Q1833.96 1455.21 1836.9 1452.8 Q1839.86 1450.39 1845 1450.39 Q1850.16 1450.39 1853.1 1452.8 Q1856.04 1455.21 1856.04 1459.35 Q1856.04 1462.32 1854.35 1464.38 Q1852.68 1466.44 1849.7 1467.18 Q1853.08 1467.96 1854.95 1470.26 Q1856.85 1472.55 1856.85 1475.86 Q1856.85 1480.88 1853.77 1483.57 Q1850.71 1486.25 1845 1486.25 Q1839.28 1486.25 1836.2 1483.57 Q1833.15 1480.88 1833.15 1475.86 Q1833.15 1472.55 1835.04 1470.26 Q1836.94 1467.96 1840.32 1467.18 M1838.61 1459.79 Q1838.61 1462.48 1840.28 1463.98 Q1841.96 1465.49 1845 1465.49 Q1848.01 1465.49 1849.7 1463.98 Q1851.41 1462.48 1851.41 1459.79 Q1851.41 1457.11 1849.7 1455.6 Q1848.01 1454.1 1845 1454.1 Q1841.96 1454.1 1840.28 1455.6 Q1838.61 1457.11 1838.61 1459.79 Z" fill="#000000" fill-rule="nonzero" fill-opacity="1" /><path clip-path="url(#clip040)" d="M2291.13 1481.64 L2298.77 1481.64 L2298.77 1455.28 L2290.46 1456.95 L2290.46 1452.69 L2298.72 1451.02 L2303.4 1451.02 L2303.4 1481.64 L2311.03 1481.64 L2311.03 1485.58 L2291.13 1485.58 L2291.13 1481.64 Z" fill="#000000" fill-rule="nonzero" fill-opacity="1" /><path clip-path="url(#clip040)" d="M2330.48 1454.1 Q2326.87 1454.1 2325.04 1457.66 Q2323.23 1461.2 2323.23 1468.33 Q2323.23 1475.44 2325.04 1479.01 Q2326.87 1482.55 2330.48 1482.55 Q2334.11 1482.55 2335.92 1479.01 Q2337.75 1475.44 2337.75 1468.33 Q2337.75 1461.2 2335.92 1457.66 Q2334.11 1454.1 2330.48 1454.1 M2330.48 1450.39 Q2336.29 1450.39 2339.34 1455 Q2342.42 1459.58 2342.42 1468.33 Q2342.42 1477.06 2339.34 1481.67 Q2336.29 1486.25 2330.48 1486.25 Q2324.67 1486.25 2321.59 1481.67 Q2318.53 1477.06 2318.53 1468.33 Q2318.53 1459.58 2321.59 1455 Q2324.67 1450.39 2330.48 1450.39 Z" fill="#000000" fill-rule="nonzero" fill-opacity="1" /><path clip-path="url(#clip040)" d="M1259.32 1520.52 L1266.22 1520.52 L1278.03 1538.19 L1289.9 1520.52 L1296.81 1520.52 L1281.53 1543.34 L1297.83 1568.04 L1290.92 1568.04 L1277.56 1547.83 L1264.09 1568.04 L1257.15 1568.04 L1274.12 1542.68 L1259.32 1520.52 Z" fill="#000000" fill-rule="nonzero" fill-opacity="1" /><polyline clip-path="url(#clip040)" style="stroke:#000000; stroke-linecap:round; stroke-linejoin:round; stroke-width:4; stroke-opacity:1; fill:none" points="202.227,1423.18 202.227,47.2441 "/>
<polyline clip-path="url(#clip040)" style="stroke:#000000; stroke-linecap:round; stroke-linejoin:round; stroke-width:4; stroke-opacity:1; fill:none" points="202.227,1417.98 221.125,1417.98 "/>
<polyline clip-path="url(#clip040)" style="stroke:#000000; stroke-linecap:round; stroke-linejoin:round; stroke-width:4; stroke-opacity:1; fill:none" points="202.227,1052.02 221.125,1052.02 "/>
<polyline clip-path="url(#clip040)" style="stroke:#000000; stroke-linecap:round; stroke-linejoin:round; stroke-width:4; stroke-opacity:1; fill:none" points="202.227,686.061 221.125,686.061 "/>
<polyline clip-path="url(#clip040)" style="stroke:#000000; stroke-linecap:round; stroke-linejoin:round; stroke-width:4; stroke-opacity:1; fill:none" points="202.227,320.1 221.125,320.1 "/>
<path clip-path="url(#clip040)" d="M154.283 1403.78 Q150.672 1403.78 148.843 1407.35 Q147.038 1410.89 147.038 1418.02 Q147.038 1425.12 148.843 1428.69 Q150.672 1432.23 154.283 1432.23 Q157.917 1432.23 159.723 1428.69 Q161.552 1425.12 161.552 1418.02 Q161.552 1410.89 159.723 1407.35 Q157.917 1403.78 154.283 1403.78 M154.283 1400.08 Q160.093 1400.08 163.149 1404.68 Q166.227 1409.27 166.227 1418.02 Q166.227 1426.74 163.149 1431.35 Q160.093 1435.93 154.283 1435.93 Q148.473 1435.93 145.394 1431.35 Q142.339 1426.74 142.339 1418.02 Q142.339 1409.27 145.394 1404.68 Q148.473 1400.08 154.283 1400.08 Z" fill="#000000" fill-rule="nonzero" fill-opacity="1" /><path clip-path="url(#clip040)" d="M145.325 1034.74 L163.681 1034.74 L163.681 1038.68 L149.607 1038.68 L149.607 1047.15 Q150.626 1046.8 151.644 1046.64 Q152.663 1046.46 153.681 1046.46 Q159.468 1046.46 162.848 1049.63 Q166.227 1052.8 166.227 1058.21 Q166.227 1063.79 162.755 1066.89 Q159.283 1069.97 152.964 1069.97 Q150.788 1069.97 148.519 1069.6 Q146.274 1069.23 143.866 1068.49 L143.866 1063.79 Q145.95 1064.93 148.172 1065.48 Q150.394 1066.04 152.871 1066.04 Q156.876 1066.04 159.214 1063.93 Q161.552 1061.83 161.552 1058.21 Q161.552 1054.6 159.214 1052.5 Q156.876 1050.39 152.871 1050.39 Q150.996 1050.39 149.121 1050.81 Q147.269 1051.22 145.325 1052.1 L145.325 1034.74 Z" fill="#000000" fill-rule="nonzero" fill-opacity="1" /><path clip-path="url(#clip040)" d="M114.931 699.406 L122.57 699.406 L122.57 673.04 L114.26 674.707 L114.26 670.448 L122.524 668.781 L127.2 668.781 L127.2 699.406 L134.839 699.406 L134.839 703.341 L114.931 703.341 L114.931 699.406 Z" fill="#000000" fill-rule="nonzero" fill-opacity="1" /><path clip-path="url(#clip040)" d="M154.283 671.86 Q150.672 671.86 148.843 675.425 Q147.038 678.966 147.038 686.096 Q147.038 693.202 148.843 696.767 Q150.672 700.309 154.283 700.309 Q157.917 700.309 159.723 696.767 Q161.552 693.202 161.552 686.096 Q161.552 678.966 159.723 675.425 Q157.917 671.86 154.283 671.86 M154.283 668.156 Q160.093 668.156 163.149 672.763 Q166.227 677.346 166.227 686.096 Q166.227 694.823 163.149 699.429 Q160.093 704.012 154.283 704.012 Q148.473 704.012 145.394 699.429 Q142.339 694.823 142.339 686.096 Q142.339 677.346 145.394 672.763 Q148.473 668.156 154.283 668.156 Z" fill="#000000" fill-rule="nonzero" fill-opacity="1" /><path clip-path="url(#clip040)" d="M115.927 333.445 L123.566 333.445 L123.566 307.079 L115.256 308.746 L115.256 304.487 L123.519 302.82 L128.195 302.82 L128.195 333.445 L135.834 333.445 L135.834 337.38 L115.927 337.38 L115.927 333.445 Z" fill="#000000" fill-rule="nonzero" fill-opacity="1" /><path clip-path="url(#clip040)" d="M145.325 302.82 L163.681 302.82 L163.681 306.755 L149.607 306.755 L149.607 315.227 Q150.626 314.88 151.644 314.718 Q152.663 314.533 153.681 314.533 Q159.468 314.533 162.848 317.704 Q166.227 320.875 166.227 326.292 Q166.227 331.871 162.755 334.972 Q159.283 338.051 152.964 338.051 Q150.788 338.051 148.519 337.681 Q146.274 337.31 143.866 336.57 L143.866 331.871 Q145.95 333.005 148.172 333.56 Q150.394 334.116 152.871 334.116 Q156.876 334.116 159.214 332.01 Q161.552 329.903 161.552 326.292 Q161.552 322.681 159.214 320.574 Q156.876 318.468 152.871 318.468 Q150.996 318.468 149.121 318.885 Q147.269 319.301 145.325 320.181 L145.325 302.82 Z" fill="#000000" fill-rule="nonzero" fill-opacity="1" /><path clip-path="url(#clip040)" d="M16.4842 755.248 L16.4842 748.341 L36.0269 735.164 L16.4842 722.083 L16.4842 715.176 L41.3741 731.981 L64.0042 731.981 L64.0042 738.443 L41.3741 738.443 L16.4842 755.248 Z" fill="#000000" fill-rule="nonzero" fill-opacity="1" /><circle clip-path="url(#clip042)" cx="263.091" cy="1288.35" r="14.4" fill="#009af9" fill-rule="evenodd" fill-opacity="1" stroke="#000000" stroke-opacity="1" stroke-width="3.2"/>
<circle clip-path="url(#clip042)" cx="361.017" cy="1262.57" r="14.4" fill="#009af9" fill-rule="evenodd" fill-opacity="1" stroke="#000000" stroke-opacity="1" stroke-width="3.2"/>
<circle clip-path="url(#clip042)" cx="330.623" cy="1384.24" r="14.4" fill="#009af9" fill-rule="evenodd" fill-opacity="1" stroke="#000000" stroke-opacity="1" stroke-width="3.2"/>
<circle clip-path="url(#clip042)" cx="374.189" cy="1380.47" r="14.4" fill="#009af9" fill-rule="evenodd" fill-opacity="1" stroke="#000000" stroke-opacity="1" stroke-width="3.2"/>
<circle clip-path="url(#clip042)" cx="323.797" cy="1113.86" r="14.4" fill="#009af9" fill-rule="evenodd" fill-opacity="1" stroke="#000000" stroke-opacity="1" stroke-width="3.2"/>
<circle clip-path="url(#clip042)" cx="2291.89" cy="86.1857" r="14.4" fill="#009af9" fill-rule="evenodd" fill-opacity="1" stroke="#000000" stroke-opacity="1" stroke-width="3.2"/>
<circle clip-path="url(#clip042)" cx="1537.04" cy="708.197" r="14.4" fill="#009af9" fill-rule="evenodd" fill-opacity="1" stroke="#000000" stroke-opacity="1" stroke-width="3.2"/>
<circle clip-path="url(#clip042)" cx="1974.79" cy="530.104" r="14.4" fill="#009af9" fill-rule="evenodd" fill-opacity="1" stroke="#000000" stroke-opacity="1" stroke-width="3.2"/>
<circle clip-path="url(#clip042)" cx="1693.12" cy="1361.65" r="14.4" fill="#009af9" fill-rule="evenodd" fill-opacity="1" stroke="#000000" stroke-opacity="1" stroke-width="3.2"/>
<circle clip-path="url(#clip042)" cx="1706.77" cy="831.148" r="14.4" fill="#009af9" fill-rule="evenodd" fill-opacity="1" stroke="#000000" stroke-opacity="1" stroke-width="3.2"/>
<circle clip-path="url(#clip042)" cx="1974.79" cy="530.104" r="14.4" fill="#e26f46" fill-rule="evenodd" fill-opacity="1" stroke="#000000" stroke-opacity="1" stroke-width="3.2"/>
<circle clip-path="url(#clip042)" cx="2291.89" cy="86.1857" r="14.4" fill="#e26f46" fill-rule="evenodd" fill-opacity="1" stroke="#000000" stroke-opacity="1" stroke-width="3.2"/>
<path clip-path="url(#clip040)" d="M273.912 248.629 L710.306 248.629 L710.306 93.1086 L273.912 93.1086  Z" fill="#ffffff" fill-rule="evenodd" fill-opacity="1"/>
<polyline clip-path="url(#clip040)" style="stroke:#000000; stroke-linecap:round; stroke-linejoin:round; stroke-width:4; stroke-opacity:1; fill:none" points="273.912,248.629 710.306,248.629 710.306,93.1086 273.912,93.1086 273.912,248.629 "/>
<circle clip-path="url(#clip040)" cx="369.491" cy="144.949" r="20.48" fill="#009af9" fill-rule="evenodd" fill-opacity="1" stroke="#000000" stroke-opacity="1" stroke-width="4.55111"/>
<path clip-path="url(#clip040)" d="M483.982 140.238 L483.982 126.21 L488.241 126.21 L488.241 162.229 L483.982 162.229 L483.982 158.34 Q482.639 160.655 480.579 161.789 Q478.542 162.9 475.672 162.9 Q470.973 162.9 468.01 159.15 Q465.07 155.4 465.07 149.289 Q465.07 143.178 468.01 139.428 Q470.973 135.678 475.672 135.678 Q478.542 135.678 480.579 136.812 Q482.639 137.923 483.982 140.238 M469.468 149.289 Q469.468 153.988 471.389 156.673 Q473.334 159.335 476.713 159.335 Q480.093 159.335 482.037 156.673 Q483.982 153.988 483.982 149.289 Q483.982 144.59 482.037 141.928 Q480.093 139.243 476.713 139.243 Q473.334 139.243 471.389 141.928 Q469.468 144.59 469.468 149.289 Z" fill="#000000" fill-rule="nonzero" fill-opacity="1" /><path clip-path="url(#clip040)" d="M508.796 149.196 Q503.634 149.196 501.644 150.377 Q499.653 151.557 499.653 154.405 Q499.653 156.673 501.134 158.016 Q502.639 159.335 505.209 159.335 Q508.75 159.335 510.88 156.835 Q513.033 154.312 513.033 150.145 L513.033 149.196 L508.796 149.196 M517.292 147.437 L517.292 162.229 L513.033 162.229 L513.033 158.293 Q511.574 160.655 509.398 161.789 Q507.222 162.9 504.074 162.9 Q500.093 162.9 497.732 160.678 Q495.394 158.432 495.394 154.682 Q495.394 150.307 498.31 148.085 Q501.25 145.863 507.06 145.863 L513.033 145.863 L513.033 145.446 Q513.033 142.507 511.088 140.909 Q509.167 139.289 505.671 139.289 Q503.449 139.289 501.343 139.821 Q499.236 140.354 497.292 141.419 L497.292 137.483 Q499.63 136.581 501.829 136.141 Q504.028 135.678 506.111 135.678 Q511.736 135.678 514.514 138.594 Q517.292 141.511 517.292 147.437 Z" fill="#000000" fill-rule="nonzero" fill-opacity="1" /><path clip-path="url(#clip040)" d="M530.278 128.942 L530.278 136.303 L539.051 136.303 L539.051 139.613 L530.278 139.613 L530.278 153.687 Q530.278 156.858 531.134 157.761 Q532.014 158.664 534.676 158.664 L539.051 158.664 L539.051 162.229 L534.676 162.229 Q529.745 162.229 527.87 160.4 Q525.995 158.548 525.995 153.687 L525.995 139.613 L522.87 139.613 L522.87 136.303 L525.995 136.303 L525.995 128.942 L530.278 128.942 Z" fill="#000000" fill-rule="nonzero" fill-opacity="1" /><path clip-path="url(#clip040)" d="M556.435 149.196 Q551.273 149.196 549.282 150.377 Q547.292 151.557 547.292 154.405 Q547.292 156.673 548.773 158.016 Q550.278 159.335 552.847 159.335 Q556.389 159.335 558.518 156.835 Q560.671 154.312 560.671 150.145 L560.671 149.196 L556.435 149.196 M564.93 147.437 L564.93 162.229 L560.671 162.229 L560.671 158.293 Q559.213 160.655 557.037 161.789 Q554.861 162.9 551.713 162.9 Q547.731 162.9 545.37 160.678 Q543.032 158.432 543.032 154.682 Q543.032 150.307 545.949 148.085 Q548.889 145.863 554.699 145.863 L560.671 145.863 L560.671 145.446 Q560.671 142.507 558.727 140.909 Q556.805 139.289 553.31 139.289 Q551.088 139.289 548.981 139.821 Q546.875 140.354 544.931 141.419 L544.931 137.483 Q547.268 136.581 549.468 136.141 Q551.667 135.678 553.75 135.678 Q559.375 135.678 562.153 138.594 Q564.93 141.511 564.93 147.437 Z" fill="#000000" fill-rule="nonzero" fill-opacity="1" /><path clip-path="url(#clip040)" d="M593.402 170.099 L593.402 173.409 L568.773 173.409 L568.773 170.099 L593.402 170.099 Z" fill="#000000" fill-rule="nonzero" fill-opacity="1" /><path clip-path="url(#clip040)" d="M613.935 137.067 L613.935 141.094 Q612.129 140.169 610.185 139.706 Q608.24 139.243 606.157 139.243 Q602.986 139.243 601.389 140.215 Q599.814 141.187 599.814 143.131 Q599.814 144.613 600.949 145.469 Q602.083 146.303 605.509 147.067 L606.967 147.391 Q611.504 148.363 613.402 150.145 Q615.324 151.905 615.324 155.076 Q615.324 158.687 612.453 160.793 Q609.606 162.9 604.606 162.9 Q602.523 162.9 600.254 162.483 Q598.009 162.09 595.509 161.28 L595.509 156.881 Q597.87 158.108 600.162 158.733 Q602.453 159.335 604.699 159.335 Q607.708 159.335 609.328 158.317 Q610.949 157.275 610.949 155.4 Q610.949 153.664 609.768 152.738 Q608.611 151.812 604.652 150.956 L603.171 150.608 Q599.213 149.775 597.453 148.062 Q595.694 146.326 595.694 143.317 Q595.694 139.659 598.287 137.669 Q600.879 135.678 605.648 135.678 Q608.009 135.678 610.092 136.025 Q612.176 136.372 613.935 137.067 Z" fill="#000000" fill-rule="nonzero" fill-opacity="1" /><circle clip-path="url(#clip040)" cx="369.491" cy="196.789" r="20.48" fill="#e26f46" fill-rule="evenodd" fill-opacity="1" stroke="#000000" stroke-opacity="1" stroke-width="4.55111"/>
<path clip-path="url(#clip040)" d="M492.94 182.171 L492.94 187.101 Q490.579 184.902 487.894 183.814 Q485.232 182.726 482.223 182.726 Q476.297 182.726 473.148 186.36 Q470 189.972 470 196.823 Q470 203.652 473.148 207.286 Q476.297 210.897 482.223 210.897 Q485.232 210.897 487.894 209.809 Q490.579 208.721 492.94 206.522 L492.94 211.407 Q490.486 213.073 487.732 213.907 Q485 214.74 481.945 214.74 Q474.098 214.74 469.584 209.948 Q465.07 205.133 465.07 196.823 Q465.07 188.49 469.584 183.698 Q474.098 178.884 481.945 178.884 Q485.047 178.884 487.778 179.717 Q490.533 180.527 492.94 182.171 Z" fill="#000000" fill-rule="nonzero" fill-opacity="1" /><path clip-path="url(#clip040)" d="M522.153 200.041 L522.153 202.124 L502.57 202.124 Q502.847 206.522 505.209 208.837 Q507.593 211.129 511.829 211.129 Q514.283 211.129 516.574 210.527 Q518.889 209.925 521.157 208.721 L521.157 212.749 Q518.866 213.721 516.458 214.231 Q514.051 214.74 511.574 214.74 Q505.371 214.74 501.736 211.129 Q498.125 207.518 498.125 201.36 Q498.125 194.995 501.551 191.268 Q505 187.518 510.833 187.518 Q516.065 187.518 519.097 190.897 Q522.153 194.254 522.153 200.041 M517.894 198.791 Q517.847 195.296 515.926 193.212 Q514.028 191.129 510.88 191.129 Q507.315 191.129 505.162 193.143 Q503.033 195.157 502.709 198.814 L517.894 198.791 Z" fill="#000000" fill-rule="nonzero" fill-opacity="1" /><path clip-path="url(#clip040)" d="M550.694 198.421 L550.694 214.069 L546.435 214.069 L546.435 198.559 Q546.435 194.879 545 193.05 Q543.565 191.222 540.694 191.222 Q537.245 191.222 535.255 193.421 Q533.264 195.62 533.264 199.416 L533.264 214.069 L528.982 214.069 L528.982 188.143 L533.264 188.143 L533.264 192.171 Q534.792 189.833 536.852 188.675 Q538.935 187.518 541.643 187.518 Q546.111 187.518 548.403 190.296 Q550.694 193.05 550.694 198.421 Z" fill="#000000" fill-rule="nonzero" fill-opacity="1" /><path clip-path="url(#clip040)" d="M563.403 180.782 L563.403 188.143 L572.176 188.143 L572.176 191.453 L563.403 191.453 L563.403 205.527 Q563.403 208.698 564.259 209.601 Q565.139 210.504 567.801 210.504 L572.176 210.504 L572.176 214.069 L567.801 214.069 Q562.87 214.069 560.995 212.24 Q559.12 210.388 559.12 205.527 L559.12 191.453 L555.995 191.453 L555.995 188.143 L559.12 188.143 L559.12 180.782 L563.403 180.782 Z" fill="#000000" fill-rule="nonzero" fill-opacity="1" /><path clip-path="url(#clip040)" d="M592.801 192.124 Q592.083 191.708 591.227 191.522 Q590.393 191.314 589.375 191.314 Q585.764 191.314 583.819 193.675 Q581.898 196.013 581.898 200.411 L581.898 214.069 L577.616 214.069 L577.616 188.143 L581.898 188.143 L581.898 192.171 Q583.24 189.809 585.393 188.675 Q587.546 187.518 590.625 187.518 Q591.065 187.518 591.597 187.587 Q592.129 187.634 592.777 187.749 L592.801 192.124 Z" fill="#000000" fill-rule="nonzero" fill-opacity="1" /><path clip-path="url(#clip040)" d="M606.273 191.129 Q602.847 191.129 600.856 193.814 Q598.865 196.476 598.865 201.129 Q598.865 205.782 600.833 208.467 Q602.824 211.129 606.273 211.129 Q609.676 211.129 611.666 208.444 Q613.657 205.758 613.657 201.129 Q613.657 196.522 611.666 193.837 Q609.676 191.129 606.273 191.129 M606.273 187.518 Q611.828 187.518 615 191.129 Q618.171 194.74 618.171 201.129 Q618.171 207.495 615 211.129 Q611.828 214.74 606.273 214.74 Q600.694 214.74 597.523 211.129 Q594.375 207.495 594.375 201.129 Q594.375 194.74 597.523 191.129 Q600.694 187.518 606.273 187.518 Z" fill="#000000" fill-rule="nonzero" fill-opacity="1" /><path clip-path="url(#clip040)" d="M625.231 188.143 L629.49 188.143 L629.49 214.069 L625.231 214.069 L625.231 188.143 M625.231 178.05 L629.49 178.05 L629.49 183.444 L625.231 183.444 L625.231 178.05 Z" fill="#000000" fill-rule="nonzero" fill-opacity="1" /><path clip-path="url(#clip040)" d="M655.462 192.078 L655.462 178.05 L659.722 178.05 L659.722 214.069 L655.462 214.069 L655.462 210.18 Q654.12 212.495 652.06 213.629 Q650.023 214.74 647.152 214.74 Q642.453 214.74 639.49 210.99 Q636.55 207.24 636.55 201.129 Q636.55 195.018 639.49 191.268 Q642.453 187.518 647.152 187.518 Q650.023 187.518 652.06 188.652 Q654.12 189.763 655.462 192.078 M640.949 201.129 Q640.949 205.828 642.87 208.513 Q644.814 211.175 648.194 211.175 Q651.573 211.175 653.518 208.513 Q655.462 205.828 655.462 201.129 Q655.462 196.43 653.518 193.768 Q651.573 191.083 648.194 191.083 Q644.814 191.083 642.87 193.768 Q640.949 196.43 640.949 201.129 Z" fill="#000000" fill-rule="nonzero" fill-opacity="1" /><path clip-path="url(#clip040)" d="M685.022 188.907 L685.022 192.934 Q683.217 192.009 681.272 191.546 Q679.328 191.083 677.245 191.083 Q674.073 191.083 672.476 192.055 Q670.902 193.027 670.902 194.971 Q670.902 196.453 672.036 197.309 Q673.171 198.143 676.596 198.907 L678.055 199.231 Q682.592 200.203 684.49 201.985 Q686.411 203.745 686.411 206.916 Q686.411 210.527 683.541 212.633 Q680.694 214.74 675.694 214.74 Q673.61 214.74 671.342 214.323 Q669.097 213.93 666.597 213.12 L666.597 208.721 Q668.958 209.948 671.249 210.573 Q673.541 211.175 675.786 211.175 Q678.796 211.175 680.416 210.157 Q682.036 209.115 682.036 207.24 Q682.036 205.504 680.856 204.578 Q679.698 203.652 675.74 202.796 L674.259 202.448 Q670.3 201.615 668.541 199.902 Q666.782 198.166 666.782 195.157 Q666.782 191.499 669.374 189.509 Q671.967 187.518 676.735 187.518 Q679.096 187.518 681.18 187.865 Q683.263 188.212 685.022 188.907 Z" fill="#000000" fill-rule="nonzero" fill-opacity="1" /></svg>
