<?xml version="1.0" encoding="utf-8"?>
<svg xmlns="http://www.w3.org/2000/svg" xmlns:xlink="http://www.w3.org/1999/xlink" width="600" height="400" viewBox="0 0 2400 1600">
<defs>
  <clipPath id="clip630">
    <rect x="0" y="0" width="2400" height="1600"/>
  </clipPath>
</defs>
<path clip-path="url(#clip630)" d="M0 1600 L2400 1600 L2400 0 L0 0  Z" fill="#ffffff" fill-rule="evenodd" fill-opacity="1"/>
<defs>
  <clipPath id="clip631">
    <rect x="480" y="0" width="1681" height="1600"/>
  </clipPath>
</defs>
<path clip-path="url(#clip630)" d="M201.232 1423.18 L2352.76 1423.18 L2352.76 47.2441 L201.232 47.2441  Z" fill="#ffffff" fill-rule="evenodd" fill-opacity="1"/>
<defs>
  <clipPath id="clip632">
    <rect x="201" y="47" width="2153" height="1377"/>
  </clipPath>
</defs>
<polyline clip-path="url(#clip632)" style="stroke:#000000; stroke-linecap:round; stroke-linejoin:round; stroke-width:2; stroke-opacity:0.1; fill:none" points="441.837,1423.18 441.837,47.2441 "/>
<polyline clip-path="url(#clip632)" style="stroke:#000000; stroke-linecap:round; stroke-linejoin:round; stroke-width:2; stroke-opacity:0.1; fill:none" points="935.393,1423.18 935.393,47.2441 "/>
<polyline clip-path="url(#clip632)" style="stroke:#000000; stroke-linecap:round; stroke-linejoin:round; stroke-width:2; stroke-opacity:0.1; fill:none" points="1428.95,1423.18 1428.95,47.2441 "/>
<polyline clip-path="url(#clip632)" style="stroke:#000000; stroke-linecap:round; stroke-linejoin:round; stroke-width:2; stroke-opacity:0.1; fill:none" points="1922.5,1423.18 1922.5,47.2441 "/>
<polyline clip-path="url(#clip632)" style="stroke:#000000; stroke-linecap:round; stroke-linejoin:round; stroke-width:2; stroke-opacity:0.1; fill:none" points="201.232,1215.4 2352.76,1215.4 "/>
<polyline clip-path="url(#clip632)" style="stroke:#000000; stroke-linecap:round; stroke-linejoin:round; stroke-width:2; stroke-opacity:0.1; fill:none" points="201.232,965.618 2352.76,965.618 "/>
<polyline clip-path="url(#clip632)" style="stroke:#000000; stroke-linecap:round; stroke-linejoin:round; stroke-width:2; stroke-opacity:0.1; fill:none" points="201.232,715.84 2352.76,715.84 "/>
<polyline clip-path="url(#clip632)" style="stroke:#000000; stroke-linecap:round; stroke-linejoin:round; stroke-width:2; stroke-opacity:0.1; fill:none" points="201.232,466.062 2352.76,466.062 "/>
<polyline clip-path="url(#clip632)" style="stroke:#000000; stroke-linecap:round; stroke-linejoin:round; stroke-width:2; stroke-opacity:0.1; fill:none" points="201.232,216.284 2352.76,216.284 "/>
<polyline clip-path="url(#clip630)" style="stroke:#000000; stroke-linecap:round; stroke-linejoin:round; stroke-width:4; stroke-opacity:1; fill:none" points="201.232,1423.18 2352.76,1423.18 "/>
<polyline clip-path="url(#clip630)" style="stroke:#000000; stroke-linecap:round; stroke-linejoin:round; stroke-width:4; stroke-opacity:1; fill:none" points="441.837,1423.18 441.837,1404.28 "/>
<polyline clip-path="url(#clip630)" style="stroke:#000000; stroke-linecap:round; stroke-linejoin:round; stroke-width:4; stroke-opacity:1; fill:none" points="935.393,1423.18 935.393,1404.28 "/>
<polyline clip-path="url(#clip630)" style="stroke:#000000; stroke-linecap:round; stroke-linejoin:round; stroke-width:4; stroke-opacity:1; fill:none" points="1428.95,1423.18 1428.95,1404.28 "/>
<polyline clip-path="url(#clip630)" style="stroke:#000000; stroke-linecap:round; stroke-linejoin:round; stroke-width:4; stroke-opacity:1; fill:none" points="1922.5,1423.18 1922.5,1404.28 "/>
<path clip-path="url(#clip630)" d="M436.49 1481.64 L452.809 1481.64 L452.809 1485.58 L430.865 1485.58 L430.865 1481.64 Q433.527 1478.89 438.11 1474.26 Q442.717 1469.61 443.897 1468.27 Q446.143 1465.74 447.022 1464.01 Q447.925 1462.25 447.925 1460.56 Q447.925 1457.8 445.981 1456.07 Q444.059 1454.33 440.958 1454.33 Q438.759 1454.33 436.305 1455.09 Q433.874 1455.86 431.097 1457.41 L431.097 1452.69 Q433.921 1451.55 436.374 1450.97 Q438.828 1450.39 440.865 1450.39 Q446.235 1450.39 449.43 1453.08 Q452.624 1455.77 452.624 1460.26 Q452.624 1462.39 451.814 1464.31 Q451.027 1466.2 448.921 1468.8 Q448.342 1469.47 445.24 1472.69 Q442.138 1475.88 436.49 1481.64 Z" fill="#000000" fill-rule="nonzero" fill-opacity="1" /><path clip-path="url(#clip630)" d="M938.402 1455.09 L926.596 1473.54 L938.402 1473.54 L938.402 1455.09 M937.175 1451.02 L943.055 1451.02 L943.055 1473.54 L947.985 1473.54 L947.985 1477.43 L943.055 1477.43 L943.055 1485.58 L938.402 1485.58 L938.402 1477.43 L922.8 1477.43 L922.8 1472.92 L937.175 1451.02 Z" fill="#000000" fill-rule="nonzero" fill-opacity="1" /><path clip-path="url(#clip630)" d="M1429.35 1466.44 Q1426.2 1466.44 1424.35 1468.59 Q1422.52 1470.74 1422.52 1474.49 Q1422.52 1478.22 1424.35 1480.39 Q1426.2 1482.55 1429.35 1482.55 Q1432.5 1482.55 1434.33 1480.39 Q1436.18 1478.22 1436.18 1474.49 Q1436.18 1470.74 1434.33 1468.59 Q1432.5 1466.44 1429.35 1466.44 M1438.64 1451.78 L1438.64 1456.04 Q1436.88 1455.21 1435.07 1454.77 Q1433.29 1454.33 1431.53 1454.33 Q1426.9 1454.33 1424.45 1457.45 Q1422.02 1460.58 1421.67 1466.9 Q1423.03 1464.89 1425.09 1463.82 Q1427.15 1462.73 1429.63 1462.73 Q1434.84 1462.73 1437.85 1465.9 Q1440.88 1469.05 1440.88 1474.49 Q1440.88 1479.82 1437.73 1483.03 Q1434.58 1486.25 1429.35 1486.25 Q1423.36 1486.25 1420.19 1481.67 Q1417.02 1477.06 1417.02 1468.33 Q1417.02 1460.14 1420.9 1455.28 Q1424.79 1450.39 1431.34 1450.39 Q1433.1 1450.39 1434.89 1450.74 Q1436.69 1451.09 1438.64 1451.78 Z" fill="#000000" fill-rule="nonzero" fill-opacity="1" /><path clip-path="url(#clip630)" d="M1922.5 1469.17 Q1919.17 1469.17 1917.25 1470.95 Q1915.35 1472.73 1915.35 1475.86 Q1915.35 1478.98 1917.25 1480.77 Q1919.17 1482.55 1922.5 1482.55 Q1925.84 1482.55 1927.76 1480.77 Q1929.68 1478.96 1929.68 1475.86 Q1929.68 1472.73 1927.76 1470.95 Q1925.86 1469.17 1922.5 1469.17 M1917.83 1467.18 Q1914.82 1466.44 1913.13 1464.38 Q1911.46 1462.32 1911.46 1459.35 Q1911.46 1455.21 1914.4 1452.8 Q1917.36 1450.39 1922.5 1450.39 Q1927.67 1450.39 1930.61 1452.8 Q1933.54 1455.21 1933.54 1459.35 Q1933.54 1462.32 1931.86 1464.38 Q1930.19 1466.44 1927.2 1467.18 Q1930.58 1467.96 1932.46 1470.26 Q1934.36 1472.55 1934.36 1475.86 Q1934.36 1480.88 1931.28 1483.57 Q1928.22 1486.25 1922.5 1486.25 Q1916.79 1486.25 1913.71 1483.57 Q1910.65 1480.88 1910.65 1475.86 Q1910.65 1472.55 1912.55 1470.26 Q1914.45 1467.96 1917.83 1467.18 M1916.11 1459.79 Q1916.11 1462.48 1917.78 1463.98 Q1919.47 1465.49 1922.5 1465.49 Q1925.51 1465.49 1927.2 1463.98 Q1928.92 1462.48 1928.92 1459.79 Q1928.92 1457.11 1927.2 1455.6 Q1925.51 1454.1 1922.5 1454.1 Q1919.47 1454.1 1917.78 1455.6 Q1916.11 1457.11 1916.11 1459.79 Z" fill="#000000" fill-rule="nonzero" fill-opacity="1" /><path clip-path="url(#clip630)" d="M1258.82 1520.52 L1265.73 1520.52 L1277.54 1538.19 L1289.41 1520.52 L1296.31 1520.52 L1281.04 1543.34 L1297.33 1568.04 L1290.43 1568.04 L1277.06 1547.83 L1263.59 1568.04 L1256.66 1568.04 L1273.62 1542.68 L1258.82 1520.52 Z" fill="#000000" fill-rule="nonzero" fill-opacity="1" /><polyline clip-path="url(#clip630)" style="stroke:#000000; stroke-linecap:round; stroke-linejoin:round; stroke-width:4; stroke-opacity:1; fill:none" points="201.232,1423.18 201.232,47.2441 "/>
<polyline clip-path="url(#clip630)" style="stroke:#000000; stroke-linecap:round; stroke-linejoin:round; stroke-width:4; stroke-opacity:1; fill:none" points="201.232,1215.4 220.13,1215.4 "/>
<polyline clip-path="url(#clip630)" style="stroke:#000000; stroke-linecap:round; stroke-linejoin:round; stroke-width:4; stroke-opacity:1; fill:none" points="201.232,965.618 220.13,965.618 "/>
<polyline clip-path="url(#clip630)" style="stroke:#000000; stroke-linecap:round; stroke-linejoin:round; stroke-width:4; stroke-opacity:1; fill:none" points="201.232,715.84 220.13,715.84 "/>
<polyline clip-path="url(#clip630)" style="stroke:#000000; stroke-linecap:round; stroke-linejoin:round; stroke-width:4; stroke-opacity:1; fill:none" points="201.232,466.062 220.13,466.062 "/>
<polyline clip-path="url(#clip630)" style="stroke:#000000; stroke-linecap:round; stroke-linejoin:round; stroke-width:4; stroke-opacity:1; fill:none" points="201.232,216.284 220.13,216.284 "/>
<path clip-path="url(#clip630)" d="M158.103 1214.04 Q161.459 1214.76 163.334 1217.03 Q165.232 1219.3 165.232 1222.63 Q165.232 1227.74 161.714 1230.55 Q158.195 1233.35 151.714 1233.35 Q149.538 1233.35 147.223 1232.91 Q144.931 1232.49 142.478 1231.63 L142.478 1227.12 Q144.422 1228.25 146.737 1228.83 Q149.052 1229.41 151.575 1229.41 Q155.973 1229.41 158.265 1227.68 Q160.579 1225.94 160.579 1222.63 Q160.579 1219.57 158.427 1217.86 Q156.297 1216.12 152.478 1216.12 L148.45 1216.12 L148.45 1212.28 L152.663 1212.28 Q156.112 1212.28 157.94 1210.92 Q159.769 1209.53 159.769 1206.93 Q159.769 1204.27 157.871 1202.86 Q155.996 1201.43 152.478 1201.43 Q150.556 1201.43 148.357 1201.84 Q146.158 1202.26 143.519 1203.14 L143.519 1198.97 Q146.181 1198.23 148.496 1197.86 Q150.834 1197.49 152.894 1197.49 Q158.218 1197.49 161.32 1199.92 Q164.422 1202.33 164.422 1206.45 Q164.422 1209.32 162.778 1211.31 Q161.135 1213.28 158.103 1214.04 Z" fill="#000000" fill-rule="nonzero" fill-opacity="1" /><path clip-path="url(#clip630)" d="M153.704 963.754 Q150.556 963.754 148.704 965.907 Q146.876 968.06 146.876 971.81 Q146.876 975.536 148.704 977.712 Q150.556 979.865 153.704 979.865 Q156.853 979.865 158.681 977.712 Q160.533 975.536 160.533 971.81 Q160.533 968.06 158.681 965.907 Q156.853 963.754 153.704 963.754 M162.987 949.101 L162.987 953.361 Q161.227 952.527 159.422 952.088 Q157.64 951.648 155.88 951.648 Q151.251 951.648 148.797 954.773 Q146.366 957.898 146.019 964.217 Q147.385 962.203 149.445 961.138 Q151.505 960.05 153.982 960.05 Q159.19 960.05 162.2 963.222 Q165.232 966.37 165.232 971.81 Q165.232 977.134 162.084 980.351 Q158.936 983.569 153.704 983.569 Q147.709 983.569 144.538 978.986 Q141.366 974.379 141.366 965.652 Q141.366 957.458 145.255 952.597 Q149.144 947.713 155.695 947.713 Q157.454 947.713 159.237 948.06 Q161.042 948.407 162.987 949.101 Z" fill="#000000" fill-rule="nonzero" fill-opacity="1" /><path clip-path="url(#clip630)" d="M143.612 732.402 L143.612 728.143 Q145.371 728.976 147.177 729.416 Q148.982 729.856 150.718 729.856 Q155.348 729.856 157.778 726.754 Q160.232 723.629 160.579 717.287 Q159.237 719.277 157.177 720.342 Q155.116 721.407 152.616 721.407 Q147.431 721.407 144.399 718.282 Q141.39 715.134 141.39 709.694 Q141.39 704.37 144.538 701.152 Q147.686 697.935 152.917 697.935 Q158.913 697.935 162.061 702.541 Q165.232 707.125 165.232 715.875 Q165.232 724.046 161.343 728.93 Q157.478 733.791 150.927 733.791 Q149.167 733.791 147.362 733.444 Q145.556 733.097 143.612 732.402 M152.917 717.749 Q156.065 717.749 157.894 715.597 Q159.746 713.444 159.746 709.694 Q159.746 705.967 157.894 703.814 Q156.065 701.638 152.917 701.638 Q149.769 701.638 147.917 703.814 Q146.089 705.967 146.089 709.694 Q146.089 713.444 147.917 715.597 Q149.769 717.749 152.917 717.749 Z" fill="#000000" fill-rule="nonzero" fill-opacity="1" /><path clip-path="url(#clip630)" d="M115.533 479.407 L123.172 479.407 L123.172 453.041 L114.862 454.708 L114.862 450.449 L123.126 448.782 L127.802 448.782 L127.802 479.407 L135.441 479.407 L135.441 483.342 L115.533 483.342 L115.533 479.407 Z" fill="#000000" fill-rule="nonzero" fill-opacity="1" /><path clip-path="url(#clip630)" d="M148.913 479.407 L165.232 479.407 L165.232 483.342 L143.288 483.342 L143.288 479.407 Q145.95 476.652 150.533 472.023 Q155.14 467.37 156.32 466.027 Q158.565 463.504 159.445 461.768 Q160.348 460.009 160.348 458.319 Q160.348 455.564 158.403 453.828 Q156.482 452.092 153.38 452.092 Q151.181 452.092 148.728 452.856 Q146.297 453.62 143.519 455.171 L143.519 450.449 Q146.343 449.314 148.797 448.736 Q151.251 448.157 153.288 448.157 Q158.658 448.157 161.852 450.842 Q165.047 453.527 165.047 458.018 Q165.047 460.148 164.237 462.069 Q163.45 463.967 161.343 466.56 Q160.765 467.231 157.663 470.449 Q154.561 473.643 148.913 479.407 Z" fill="#000000" fill-rule="nonzero" fill-opacity="1" /><path clip-path="url(#clip630)" d="M114.931 229.629 L122.57 229.629 L122.57 203.264 L114.26 204.93 L114.26 200.671 L122.524 199.004 L127.2 199.004 L127.2 229.629 L134.839 229.629 L134.839 233.564 L114.931 233.564 L114.931 229.629 Z" fill="#000000" fill-rule="nonzero" fill-opacity="1" /><path clip-path="url(#clip630)" d="M144.329 199.004 L162.686 199.004 L162.686 202.939 L148.612 202.939 L148.612 211.412 Q149.63 211.064 150.649 210.902 Q151.667 210.717 152.686 210.717 Q158.473 210.717 161.852 213.888 Q165.232 217.06 165.232 222.476 Q165.232 228.055 161.76 231.157 Q158.288 234.236 151.968 234.236 Q149.792 234.236 147.524 233.865 Q145.279 233.495 142.871 232.754 L142.871 228.055 Q144.954 229.189 147.177 229.745 Q149.399 230.3 151.876 230.3 Q155.88 230.3 158.218 228.194 Q160.556 226.087 160.556 222.476 Q160.556 218.865 158.218 216.759 Q155.88 214.652 151.876 214.652 Q150.001 214.652 148.126 215.069 Q146.274 215.486 144.329 216.365 L144.329 199.004 Z" fill="#000000" fill-rule="nonzero" fill-opacity="1" /><path clip-path="url(#clip630)" d="M16.4842 755.248 L16.4842 748.341 L36.0269 735.164 L16.4842 722.083 L16.4842 715.176 L41.3741 731.981 L64.0042 731.981 L64.0042 738.443 L41.3741 738.443 L16.4842 755.248 Z" fill="#000000" fill-rule="nonzero" fill-opacity="1" /><circle clip-path="url(#clip632)" cx="412.479" cy="1287.85" r="14.4" fill="#009af9" fill-rule="evenodd" fill-opacity="1" stroke="#000000" stroke-opacity="1" stroke-width="3.2"/>
<circle clip-path="url(#clip632)" cx="415.605" cy="1221.26" r="14.4" fill="#009af9" fill-rule="evenodd" fill-opacity="1" stroke="#000000" stroke-opacity="1" stroke-width="3.2"/>
<circle clip-path="url(#clip632)" cx="382.878" cy="1384.24" r="14.4" fill="#009af9" fill-rule="evenodd" fill-opacity="1" stroke="#000000" stroke-opacity="1" stroke-width="3.2"/>
<circle clip-path="url(#clip632)" cx="262.124" cy="1129.45" r="14.4" fill="#009af9" fill-rule="evenodd" fill-opacity="1" stroke="#000000" stroke-opacity="1" stroke-width="3.2"/>
<circle clip-path="url(#clip632)" cx="440.423" cy="1140.66" r="14.4" fill="#009af9" fill-rule="evenodd" fill-opacity="1" stroke="#000000" stroke-opacity="1" stroke-width="3.2"/>
<circle clip-path="url(#clip632)" cx="1809.73" cy="770.528" r="14.4" fill="#009af9" fill-rule="evenodd" fill-opacity="1" stroke="#000000" stroke-opacity="1" stroke-width="3.2"/>
<circle clip-path="url(#clip632)" cx="1932.96" cy="967.241" r="14.4" fill="#009af9" fill-rule="evenodd" fill-opacity="1" stroke="#000000" stroke-opacity="1" stroke-width="3.2"/>
<circle clip-path="url(#clip632)" cx="1954.67" cy="1266.95" r="14.4" fill="#009af9" fill-rule="evenodd" fill-opacity="1" stroke="#000000" stroke-opacity="1" stroke-width="3.2"/>
<circle clip-path="url(#clip632)" cx="1901.41" cy="184.589" r="14.4" fill="#e26f46" fill-rule="evenodd" fill-opacity="1" stroke="#000000" stroke-opacity="1" stroke-width="3.2"/>
<circle clip-path="url(#clip632)" cx="2291.86" cy="86.1857" r="14.4" fill="#e26f46" fill-rule="evenodd" fill-opacity="1" stroke="#000000" stroke-opacity="1" stroke-width="3.2"/>
<circle clip-path="url(#clip632)" cx="1954.67" cy="1266.95" r="14.4" fill="#3da44d" fill-rule="evenodd" fill-opacity="1" stroke="#000000" stroke-opacity="1" stroke-width="3.2"/>
<circle clip-path="url(#clip632)" cx="1901.41" cy="184.589" r="14.4" fill="#3da44d" fill-rule="evenodd" fill-opacity="1" stroke="#000000" stroke-opacity="1" stroke-width="3.2"/>
<path clip-path="url(#clip630)" d="M272.95 300.469 L709.443 300.469 L709.443 93.1086 L272.95 93.1086  Z" fill="#ffffff" fill-rule="evenodd" fill-opacity="1"/>
<polyline clip-path="url(#clip630)" style="stroke:#000000; stroke-linecap:round; stroke-linejoin:round; stroke-width:4; stroke-opacity:1; fill:none" points="272.95,300.469 709.443,300.469 709.443,93.1086 272.95,93.1086 272.95,300.469 "/>
<circle clip-path="url(#clip630)" cx="368.573" cy="144.949" r="20.48" fill="#009af9" fill-rule="evenodd" fill-opacity="1" stroke="#000000" stroke-opacity="1" stroke-width="4.55111"/>
<path clip-path="url(#clip630)" d="M492.066 130.331 L492.066 135.261 Q489.705 133.062 487.02 131.974 Q484.358 130.886 481.349 130.886 Q475.423 130.886 472.275 134.52 Q469.127 138.132 469.127 144.983 Q469.127 151.812 472.275 155.446 Q475.423 159.057 481.349 159.057 Q484.358 159.057 487.02 157.969 Q489.705 156.881 492.066 154.682 L492.066 159.567 Q489.613 161.233 486.858 162.067 Q484.127 162.9 481.071 162.9 Q473.224 162.9 468.71 158.108 Q464.196 153.293 464.196 144.983 Q464.196 136.65 468.71 131.858 Q473.224 127.044 481.071 127.044 Q484.173 127.044 486.904 127.877 Q489.659 128.687 492.066 130.331 Z" fill="#000000" fill-rule="nonzero" fill-opacity="1" /><path clip-path="url(#clip630)" d="M499.103 126.21 L503.363 126.21 L503.363 162.229 L499.103 162.229 L499.103 126.21 Z" fill="#000000" fill-rule="nonzero" fill-opacity="1" /><path clip-path="url(#clip630)" d="M511.835 151.997 L511.835 136.303 L516.094 136.303 L516.094 151.835 Q516.094 155.516 517.529 157.368 Q518.964 159.196 521.835 159.196 Q525.284 159.196 527.274 156.997 Q529.288 154.798 529.288 151.002 L529.288 136.303 L533.548 136.303 L533.548 162.229 L529.288 162.229 L529.288 158.247 Q527.737 160.608 525.677 161.766 Q523.64 162.9 520.932 162.9 Q516.464 162.9 514.15 160.122 Q511.835 157.344 511.835 151.997 M522.552 135.678 L522.552 135.678 Z" fill="#000000" fill-rule="nonzero" fill-opacity="1" /><path clip-path="url(#clip630)" d="M558.848 137.067 L558.848 141.094 Q557.043 140.169 555.098 139.706 Q553.154 139.243 551.071 139.243 Q547.899 139.243 546.302 140.215 Q544.728 141.187 544.728 143.131 Q544.728 144.613 545.862 145.469 Q546.997 146.303 550.423 147.067 L551.881 147.391 Q556.418 148.363 558.316 150.145 Q560.237 151.905 560.237 155.076 Q560.237 158.687 557.367 160.793 Q554.52 162.9 549.52 162.9 Q547.436 162.9 545.168 162.483 Q542.923 162.09 540.423 161.28 L540.423 156.881 Q542.784 158.108 545.075 158.733 Q547.367 159.335 549.612 159.335 Q552.622 159.335 554.242 158.317 Q555.862 157.275 555.862 155.4 Q555.862 153.664 554.682 152.738 Q553.524 151.812 549.566 150.956 L548.085 150.608 Q544.126 149.775 542.367 148.062 Q540.608 146.326 540.608 143.317 Q540.608 139.659 543.2 137.669 Q545.793 135.678 550.561 135.678 Q552.923 135.678 555.006 136.025 Q557.089 136.372 558.848 137.067 Z" fill="#000000" fill-rule="nonzero" fill-opacity="1" /><path clip-path="url(#clip630)" d="M571.233 128.942 L571.233 136.303 L580.006 136.303 L580.006 139.613 L571.233 139.613 L571.233 153.687 Q571.233 156.858 572.089 157.761 Q572.969 158.664 575.631 158.664 L580.006 158.664 L580.006 162.229 L575.631 162.229 Q570.7 162.229 568.825 160.4 Q566.95 158.548 566.95 153.687 L566.95 139.613 L563.825 139.613 L563.825 136.303 L566.95 136.303 L566.95 128.942 L571.233 128.942 Z" fill="#000000" fill-rule="nonzero" fill-opacity="1" /><path clip-path="url(#clip630)" d="M607.783 148.201 L607.783 150.284 L588.2 150.284 Q588.478 154.682 590.839 156.997 Q593.223 159.289 597.459 159.289 Q599.913 159.289 602.205 158.687 Q604.519 158.085 606.788 156.881 L606.788 160.909 Q604.496 161.881 602.089 162.391 Q599.682 162.9 597.205 162.9 Q591.001 162.9 587.367 159.289 Q583.756 155.678 583.756 149.52 Q583.756 143.155 587.182 139.428 Q590.631 135.678 596.464 135.678 Q601.695 135.678 604.728 139.057 Q607.783 142.414 607.783 148.201 M603.524 146.951 Q603.478 143.456 601.557 141.372 Q599.658 139.289 596.51 139.289 Q592.945 139.289 590.793 141.303 Q588.663 143.317 588.339 146.974 L603.524 146.951 Z" fill="#000000" fill-rule="nonzero" fill-opacity="1" /><path clip-path="url(#clip630)" d="M629.797 140.284 Q629.08 139.868 628.223 139.682 Q627.39 139.474 626.371 139.474 Q622.76 139.474 620.816 141.835 Q618.894 144.173 618.894 148.571 L618.894 162.229 L614.612 162.229 L614.612 136.303 L618.894 136.303 L618.894 140.331 Q620.237 137.969 622.39 136.835 Q624.542 135.678 627.621 135.678 Q628.061 135.678 628.593 135.747 Q629.126 135.794 629.774 135.909 L629.797 140.284 Z" fill="#000000" fill-rule="nonzero" fill-opacity="1" /><path clip-path="url(#clip630)" d="M650.746 158.293 L658.385 158.293 L658.385 131.928 L650.075 133.595 L650.075 129.335 L658.339 127.669 L663.015 127.669 L663.015 158.293 L670.653 158.293 L670.653 162.229 L650.746 162.229 L650.746 158.293 Z" fill="#000000" fill-rule="nonzero" fill-opacity="1" /><circle clip-path="url(#clip630)" cx="368.573" cy="196.789" r="20.48" fill="#e26f46" fill-rule="evenodd" fill-opacity="1" stroke="#000000" stroke-opacity="1" stroke-width="4.55111"/>
<path clip-path="url(#clip630)" d="M492.066 182.171 L492.066 187.101 Q489.705 184.902 487.02 183.814 Q484.358 182.726 481.349 182.726 Q475.423 182.726 472.275 186.36 Q469.127 189.972 469.127 196.823 Q469.127 203.652 472.275 207.286 Q475.423 210.897 481.349 210.897 Q484.358 210.897 487.02 209.809 Q489.705 208.721 492.066 206.522 L492.066 211.407 Q489.613 213.073 486.858 213.907 Q484.127 214.74 481.071 214.74 Q473.224 214.74 468.71 209.948 Q464.196 205.133 464.196 196.823 Q464.196 188.49 468.71 183.698 Q473.224 178.884 481.071 178.884 Q484.173 178.884 486.904 179.717 Q489.659 180.527 492.066 182.171 Z" fill="#000000" fill-rule="nonzero" fill-opacity="1" /><path clip-path="url(#clip630)" d="M499.103 178.05 L503.363 178.05 L503.363 214.069 L499.103 214.069 L499.103 178.05 Z" fill="#000000" fill-rule="nonzero" fill-opacity="1" /><path clip-path="url(#clip630)" d="M511.835 203.837 L511.835 188.143 L516.094 188.143 L516.094 203.675 Q516.094 207.356 517.529 209.208 Q518.964 211.036 521.835 211.036 Q525.284 211.036 527.274 208.837 Q529.288 206.638 529.288 202.842 L529.288 188.143 L533.548 188.143 L533.548 214.069 L529.288 214.069 L529.288 210.087 Q527.737 212.448 525.677 213.606 Q523.64 214.74 520.932 214.74 Q516.464 214.74 514.15 211.962 Q511.835 209.184 511.835 203.837 M522.552 187.518 L522.552 187.518 Z" fill="#000000" fill-rule="nonzero" fill-opacity="1" /><path clip-path="url(#clip630)" d="M558.848 188.907 L558.848 192.934 Q557.043 192.009 555.098 191.546 Q553.154 191.083 551.071 191.083 Q547.899 191.083 546.302 192.055 Q544.728 193.027 544.728 194.971 Q544.728 196.453 545.862 197.309 Q546.997 198.143 550.423 198.907 L551.881 199.231 Q556.418 200.203 558.316 201.985 Q560.237 203.745 560.237 206.916 Q560.237 210.527 557.367 212.633 Q554.52 214.74 549.52 214.74 Q547.436 214.74 545.168 214.323 Q542.923 213.93 540.423 213.12 L540.423 208.721 Q542.784 209.948 545.075 210.573 Q547.367 211.175 549.612 211.175 Q552.622 211.175 554.242 210.157 Q555.862 209.115 555.862 207.24 Q555.862 205.504 554.682 204.578 Q553.524 203.652 549.566 202.796 L548.085 202.448 Q544.126 201.615 542.367 199.902 Q540.608 198.166 540.608 195.157 Q540.608 191.499 543.2 189.509 Q545.793 187.518 550.561 187.518 Q552.923 187.518 555.006 187.865 Q557.089 188.212 558.848 188.907 Z" fill="#000000" fill-rule="nonzero" fill-opacity="1" /><path clip-path="url(#clip630)" d="M571.233 180.782 L571.233 188.143 L580.006 188.143 L580.006 191.453 L571.233 191.453 L571.233 205.527 Q571.233 208.698 572.089 209.601 Q572.969 210.504 575.631 210.504 L580.006 210.504 L580.006 214.069 L575.631 214.069 Q570.7 214.069 568.825 212.24 Q566.95 210.388 566.95 205.527 L566.95 191.453 L563.825 191.453 L563.825 188.143 L566.95 188.143 L566.95 180.782 L571.233 180.782 Z" fill="#000000" fill-rule="nonzero" fill-opacity="1" /><path clip-path="url(#clip630)" d="M607.783 200.041 L607.783 202.124 L588.2 202.124 Q588.478 206.522 590.839 208.837 Q593.223 211.129 597.459 211.129 Q599.913 211.129 602.205 210.527 Q604.519 209.925 606.788 208.721 L606.788 212.749 Q604.496 213.721 602.089 214.231 Q599.682 214.74 597.205 214.74 Q591.001 214.74 587.367 211.129 Q583.756 207.518 583.756 201.36 Q583.756 194.995 587.182 191.268 Q590.631 187.518 596.464 187.518 Q601.695 187.518 604.728 190.897 Q607.783 194.254 607.783 200.041 M603.524 198.791 Q603.478 195.296 601.557 193.212 Q599.658 191.129 596.51 191.129 Q592.945 191.129 590.793 193.143 Q588.663 195.157 588.339 198.814 L603.524 198.791 Z" fill="#000000" fill-rule="nonzero" fill-opacity="1" /><path clip-path="url(#clip630)" d="M629.797 192.124 Q629.08 191.708 628.223 191.522 Q627.39 191.314 626.371 191.314 Q622.76 191.314 620.816 193.675 Q618.894 196.013 618.894 200.411 L618.894 214.069 L614.612 214.069 L614.612 188.143 L618.894 188.143 L618.894 192.171 Q620.237 189.809 622.39 188.675 Q624.542 187.518 627.621 187.518 Q628.061 187.518 628.593 187.587 Q629.126 187.634 629.774 187.749 L629.797 192.124 Z" fill="#000000" fill-rule="nonzero" fill-opacity="1" /><path clip-path="url(#clip630)" d="M653.964 210.133 L670.283 210.133 L670.283 214.069 L648.339 214.069 L648.339 210.133 Q651.001 207.379 655.584 202.749 Q660.19 198.096 661.371 196.754 Q663.616 194.231 664.496 192.495 Q665.399 190.735 665.399 189.046 Q665.399 186.291 663.454 184.555 Q661.533 182.819 658.431 182.819 Q656.232 182.819 653.778 183.583 Q651.348 184.347 648.57 185.897 L648.57 181.175 Q651.394 180.041 653.848 179.462 Q656.302 178.884 658.339 178.884 Q663.709 178.884 666.903 181.569 Q670.098 184.254 670.098 188.745 Q670.098 190.874 669.288 192.796 Q668.501 194.694 666.394 197.286 Q665.815 197.958 662.714 201.175 Q659.612 204.37 653.964 210.133 Z" fill="#000000" fill-rule="nonzero" fill-opacity="1" /><circle clip-path="url(#clip630)" cx="368.573" cy="248.629" r="20.48" fill="#3da44d" fill-rule="evenodd" fill-opacity="1" stroke="#000000" stroke-opacity="1" stroke-width="4.55111"/>
<path clip-path="url(#clip630)" d="M492.066 234.011 L492.066 238.941 Q489.705 236.742 487.02 235.654 Q484.358 234.566 481.349 234.566 Q475.423 234.566 472.275 238.2 Q469.127 241.812 469.127 248.663 Q469.127 255.492 472.275 259.126 Q475.423 262.737 481.349 262.737 Q484.358 262.737 487.02 261.649 Q489.705 260.561 492.066 258.362 L492.066 263.247 Q489.613 264.913 486.858 265.747 Q484.127 266.58 481.071 266.58 Q473.224 266.58 468.71 261.788 Q464.196 256.973 464.196 248.663 Q464.196 240.33 468.71 235.538 Q473.224 230.724 481.071 230.724 Q484.173 230.724 486.904 231.557 Q489.659 232.367 492.066 234.011 Z" fill="#000000" fill-rule="nonzero" fill-opacity="1" /><path clip-path="url(#clip630)" d="M521.279 251.881 L521.279 253.964 L501.696 253.964 Q501.974 258.362 504.335 260.677 Q506.719 262.969 510.955 262.969 Q513.409 262.969 515.7 262.367 Q518.015 261.765 520.284 260.561 L520.284 264.589 Q517.992 265.561 515.585 266.071 Q513.177 266.58 510.701 266.58 Q504.497 266.58 500.863 262.969 Q497.252 259.358 497.252 253.2 Q497.252 246.835 500.677 243.108 Q504.126 239.358 509.96 239.358 Q515.191 239.358 518.224 242.737 Q521.279 246.094 521.279 251.881 M517.02 250.631 Q516.974 247.136 515.052 245.052 Q513.154 242.969 510.006 242.969 Q506.441 242.969 504.289 244.983 Q502.159 246.997 501.835 250.654 L517.02 250.631 Z" fill="#000000" fill-rule="nonzero" fill-opacity="1" /><path clip-path="url(#clip630)" d="M549.821 250.261 L549.821 265.909 L545.561 265.909 L545.561 250.399 Q545.561 246.719 544.126 244.89 Q542.691 243.062 539.821 243.062 Q536.372 243.062 534.381 245.261 Q532.39 247.46 532.39 251.256 L532.39 265.909 L528.108 265.909 L528.108 239.983 L532.39 239.983 L532.39 244.011 Q533.918 241.673 535.978 240.515 Q538.061 239.358 540.77 239.358 Q545.237 239.358 547.529 242.136 Q549.821 244.89 549.821 250.261 Z" fill="#000000" fill-rule="nonzero" fill-opacity="1" /><path clip-path="url(#clip630)" d="M562.529 232.622 L562.529 239.983 L571.302 239.983 L571.302 243.293 L562.529 243.293 L562.529 257.367 Q562.529 260.538 563.385 261.441 Q564.265 262.344 566.927 262.344 L571.302 262.344 L571.302 265.909 L566.927 265.909 Q561.997 265.909 560.122 264.08 Q558.247 262.228 558.247 257.367 L558.247 243.293 L555.122 243.293 L555.122 239.983 L558.247 239.983 L558.247 232.622 L562.529 232.622 Z" fill="#000000" fill-rule="nonzero" fill-opacity="1" /><path clip-path="url(#clip630)" d="M591.927 243.964 Q591.209 243.548 590.353 243.362 Q589.52 243.154 588.501 243.154 Q584.89 243.154 582.945 245.515 Q581.024 247.853 581.024 252.251 L581.024 265.909 L576.742 265.909 L576.742 239.983 L581.024 239.983 L581.024 244.011 Q582.367 241.649 584.52 240.515 Q586.672 239.358 589.751 239.358 Q590.191 239.358 590.723 239.427 Q591.256 239.474 591.904 239.589 L591.927 243.964 Z" fill="#000000" fill-rule="nonzero" fill-opacity="1" /><path clip-path="url(#clip630)" d="M605.399 242.969 Q601.973 242.969 599.982 245.654 Q597.992 248.316 597.992 252.969 Q597.992 257.622 599.959 260.307 Q601.95 262.969 605.399 262.969 Q608.802 262.969 610.793 260.284 Q612.783 257.598 612.783 252.969 Q612.783 248.362 610.793 245.677 Q608.802 242.969 605.399 242.969 M605.399 239.358 Q610.955 239.358 614.126 242.969 Q617.297 246.58 617.297 252.969 Q617.297 259.335 614.126 262.969 Q610.955 266.58 605.399 266.58 Q599.82 266.58 596.649 262.969 Q593.501 259.335 593.501 252.969 Q593.501 246.58 596.649 242.969 Q599.82 239.358 605.399 239.358 Z" fill="#000000" fill-rule="nonzero" fill-opacity="1" /><path clip-path="url(#clip630)" d="M624.357 239.983 L628.617 239.983 L628.617 265.909 L624.357 265.909 L624.357 239.983 M624.357 229.89 L628.617 229.89 L628.617 235.284 L624.357 235.284 L624.357 229.89 Z" fill="#000000" fill-rule="nonzero" fill-opacity="1" /><path clip-path="url(#clip630)" d="M654.589 243.918 L654.589 229.89 L658.848 229.89 L658.848 265.909 L654.589 265.909 L654.589 262.02 Q653.246 264.335 651.186 265.469 Q649.149 266.58 646.278 266.58 Q641.579 266.58 638.616 262.83 Q635.677 259.08 635.677 252.969 Q635.677 246.858 638.616 243.108 Q641.579 239.358 646.278 239.358 Q649.149 239.358 651.186 240.492 Q653.246 241.603 654.589 243.918 M640.075 252.969 Q640.075 257.668 641.996 260.353 Q643.941 263.015 647.32 263.015 Q650.7 263.015 652.644 260.353 Q654.589 257.668 654.589 252.969 Q654.589 248.27 652.644 245.608 Q650.7 242.923 647.32 242.923 Q643.941 242.923 641.996 245.608 Q640.075 248.27 640.075 252.969 Z" fill="#000000" fill-rule="nonzero" fill-opacity="1" /><path clip-path="url(#clip630)" d="M684.149 240.747 L684.149 244.774 Q682.343 243.849 680.399 243.386 Q678.454 242.923 676.371 242.923 Q673.2 242.923 671.602 243.895 Q670.028 244.867 670.028 246.811 Q670.028 248.293 671.163 249.149 Q672.297 249.983 675.723 250.747 L677.181 251.071 Q681.718 252.043 683.616 253.825 Q685.538 255.585 685.538 258.756 Q685.538 262.367 682.667 264.473 Q679.82 266.58 674.82 266.58 Q672.737 266.58 670.468 266.163 Q668.223 265.77 665.723 264.96 L665.723 260.561 Q668.084 261.788 670.376 262.413 Q672.667 263.015 674.913 263.015 Q677.922 263.015 679.542 261.997 Q681.163 260.955 681.163 259.08 Q681.163 257.344 679.982 256.418 Q678.825 255.492 674.866 254.636 L673.385 254.288 Q669.427 253.455 667.667 251.742 Q665.908 250.006 665.908 246.997 Q665.908 243.339 668.501 241.349 Q671.093 239.358 675.862 239.358 Q678.223 239.358 680.306 239.705 Q682.389 240.052 684.149 240.747 Z" fill="#000000" fill-rule="nonzero" fill-opacity="1" /></svg>
