<?xml version="1.0" encoding="utf-8"?>
<svg xmlns="http://www.w3.org/2000/svg" xmlns:xlink="http://www.w3.org/1999/xlink" width="600" height="400" viewBox="0 0 2400 1600">
<defs>
  <clipPath id="clip170">
    <rect x="0" y="0" width="2400" height="1600"/>
  </clipPath>
</defs>
<path clip-path="url(#clip170)" d="M0 1600 L2400 1600 L2400 0 L0 0  Z" fill="#ffffff" fill-rule="evenodd" fill-opacity="1"/>
<defs>
  <clipPath id="clip171">
    <rect x="480" y="0" width="1681" height="1600"/>
  </clipPath>
</defs>
<path clip-path="url(#clip170)" d="M247.459 1423.18 L2352.76 1423.18 L2352.76 47.2441 L247.459 47.2441  Z" fill="#ffffff" fill-rule="evenodd" fill-opacity="1"/>
<defs>
  <clipPath id="clip172">
    <rect x="247" y="47" width="2106" height="1377"/>
  </clipPath>
</defs>
<polyline clip-path="url(#clip172)" style="stroke:#000000; stroke-linecap:round; stroke-linejoin:round; stroke-width:2; stroke-opacity:0.1; fill:none" points="452.867,1423.18 452.867,47.2441 "/>
<polyline clip-path="url(#clip172)" style="stroke:#000000; stroke-linecap:round; stroke-linejoin:round; stroke-width:2; stroke-opacity:0.1; fill:none" points="954.267,1423.18 954.267,47.2441 "/>
<polyline clip-path="url(#clip172)" style="stroke:#000000; stroke-linecap:round; stroke-linejoin:round; stroke-width:2; stroke-opacity:0.1; fill:none" points="1455.67,1423.18 1455.67,47.2441 "/>
<polyline clip-path="url(#clip172)" style="stroke:#000000; stroke-linecap:round; stroke-linejoin:round; stroke-width:2; stroke-opacity:0.1; fill:none" points="1957.07,1423.18 1957.07,47.2441 "/>
<polyline clip-path="url(#clip172)" style="stroke:#000000; stroke-linecap:round; stroke-linejoin:round; stroke-width:2; stroke-opacity:0.1; fill:none" points="247.459,1279.72 2352.76,1279.72 "/>
<polyline clip-path="url(#clip172)" style="stroke:#000000; stroke-linecap:round; stroke-linejoin:round; stroke-width:2; stroke-opacity:0.1; fill:none" points="247.459,1097.93 2352.76,1097.93 "/>
<polyline clip-path="url(#clip172)" style="stroke:#000000; stroke-linecap:round; stroke-linejoin:round; stroke-width:2; stroke-opacity:0.1; fill:none" points="247.459,916.149 2352.76,916.149 "/>
<polyline clip-path="url(#clip172)" style="stroke:#000000; stroke-linecap:round; stroke-linejoin:round; stroke-width:2; stroke-opacity:0.1; fill:none" points="247.459,734.363 2352.76,734.363 "/>
<polyline clip-path="url(#clip172)" style="stroke:#000000; stroke-linecap:round; stroke-linejoin:round; stroke-width:2; stroke-opacity:0.1; fill:none" points="247.459,552.577 2352.76,552.577 "/>
<polyline clip-path="url(#clip172)" style="stroke:#000000; stroke-linecap:round; stroke-linejoin:round; stroke-width:2; stroke-opacity:0.1; fill:none" points="247.459,370.791 2352.76,370.791 "/>
<polyline clip-path="url(#clip172)" style="stroke:#000000; stroke-linecap:round; stroke-linejoin:round; stroke-width:2; stroke-opacity:0.1; fill:none" points="247.459,189.005 2352.76,189.005 "/>
<polyline clip-path="url(#clip170)" style="stroke:#000000; stroke-linecap:round; stroke-linejoin:round; stroke-width:4; stroke-opacity:1; fill:none" points="247.459,1423.18 2352.76,1423.18 "/>
<polyline clip-path="url(#clip170)" style="stroke:#000000; stroke-linecap:round; stroke-linejoin:round; stroke-width:4; stroke-opacity:1; fill:none" points="452.867,1423.18 452.867,1404.28 "/>
<polyline clip-path="url(#clip170)" style="stroke:#000000; stroke-linecap:round; stroke-linejoin:round; stroke-width:4; stroke-opacity:1; fill:none" points="954.267,1423.18 954.267,1404.28 "/>
<polyline clip-path="url(#clip170)" style="stroke:#000000; stroke-linecap:round; stroke-linejoin:round; stroke-width:4; stroke-opacity:1; fill:none" points="1455.67,1423.18 1455.67,1404.28 "/>
<polyline clip-path="url(#clip170)" style="stroke:#000000; stroke-linecap:round; stroke-linejoin:round; stroke-width:4; stroke-opacity:1; fill:none" points="1957.07,1423.18 1957.07,1404.28 "/>
<path clip-path="url(#clip170)" d="M447.52 1481.64 L463.839 1481.64 L463.839 1485.58 L441.895 1485.58 L441.895 1481.64 Q444.557 1478.89 449.141 1474.26 Q453.747 1469.61 454.928 1468.27 Q457.173 1465.74 458.052 1464.01 Q458.955 1462.25 458.955 1460.56 Q458.955 1457.8 457.011 1456.07 Q455.09 1454.33 451.988 1454.33 Q449.789 1454.33 447.335 1455.09 Q444.904 1455.86 442.127 1457.41 L442.127 1452.69 Q444.951 1451.55 447.404 1450.97 Q449.858 1450.39 451.895 1450.39 Q457.265 1450.39 460.46 1453.08 Q463.654 1455.77 463.654 1460.26 Q463.654 1462.39 462.844 1464.31 Q462.057 1466.2 459.951 1468.8 Q459.372 1469.47 456.27 1472.69 Q453.168 1475.88 447.52 1481.64 Z" fill="#000000" fill-rule="nonzero" fill-opacity="1" /><path clip-path="url(#clip170)" d="M957.276 1455.09 L945.471 1473.54 L957.276 1473.54 L957.276 1455.09 M956.049 1451.02 L961.929 1451.02 L961.929 1473.54 L966.86 1473.54 L966.86 1477.43 L961.929 1477.43 L961.929 1485.58 L957.276 1485.58 L957.276 1477.43 L941.674 1477.43 L941.674 1472.92 L956.049 1451.02 Z" fill="#000000" fill-rule="nonzero" fill-opacity="1" /><path clip-path="url(#clip170)" d="M1456.07 1466.44 Q1452.92 1466.44 1451.07 1468.59 Q1449.24 1470.74 1449.24 1474.49 Q1449.24 1478.22 1451.07 1480.39 Q1452.92 1482.55 1456.07 1482.55 Q1459.22 1482.55 1461.05 1480.39 Q1462.9 1478.22 1462.9 1474.49 Q1462.9 1470.74 1461.05 1468.59 Q1459.22 1466.44 1456.07 1466.44 M1465.35 1451.78 L1465.35 1456.04 Q1463.59 1455.21 1461.79 1454.77 Q1460.01 1454.33 1458.25 1454.33 Q1453.62 1454.33 1451.16 1457.45 Q1448.73 1460.58 1448.39 1466.9 Q1449.75 1464.89 1451.81 1463.82 Q1453.87 1462.73 1456.35 1462.73 Q1461.56 1462.73 1464.57 1465.9 Q1467.6 1469.05 1467.6 1474.49 Q1467.6 1479.82 1464.45 1483.03 Q1461.3 1486.25 1456.07 1486.25 Q1450.08 1486.25 1446.91 1481.67 Q1443.73 1477.06 1443.73 1468.33 Q1443.73 1460.14 1447.62 1455.28 Q1451.51 1450.39 1458.06 1450.39 Q1459.82 1450.39 1461.6 1450.74 Q1463.41 1451.09 1465.35 1451.78 Z" fill="#000000" fill-rule="nonzero" fill-opacity="1" /><path clip-path="url(#clip170)" d="M1957.07 1469.17 Q1953.73 1469.17 1951.81 1470.95 Q1949.91 1472.73 1949.91 1475.86 Q1949.91 1478.98 1951.81 1480.77 Q1953.73 1482.55 1957.07 1482.55 Q1960.4 1482.55 1962.32 1480.77 Q1964.24 1478.96 1964.24 1475.86 Q1964.24 1472.73 1962.32 1470.95 Q1960.42 1469.17 1957.07 1469.17 M1952.39 1467.18 Q1949.38 1466.44 1947.69 1464.38 Q1946.02 1462.32 1946.02 1459.35 Q1946.02 1455.21 1948.96 1452.8 Q1951.93 1450.39 1957.07 1450.39 Q1962.23 1450.39 1965.17 1452.8 Q1968.11 1455.21 1968.11 1459.35 Q1968.11 1462.32 1966.42 1464.38 Q1964.75 1466.44 1961.77 1467.18 Q1965.15 1467.96 1967.02 1470.26 Q1968.92 1472.55 1968.92 1475.86 Q1968.92 1480.88 1965.84 1483.57 Q1962.78 1486.25 1957.07 1486.25 Q1951.35 1486.25 1948.27 1483.57 Q1945.21 1480.88 1945.21 1475.86 Q1945.21 1472.55 1947.11 1470.26 Q1949.01 1467.96 1952.39 1467.18 M1950.68 1459.79 Q1950.68 1462.48 1952.34 1463.98 Q1954.03 1465.49 1957.07 1465.49 Q1960.08 1465.49 1961.77 1463.98 Q1963.48 1462.48 1963.48 1459.79 Q1963.48 1457.11 1961.77 1455.6 Q1960.08 1454.1 1957.07 1454.1 Q1954.03 1454.1 1952.34 1455.6 Q1950.68 1457.11 1950.68 1459.79 Z" fill="#000000" fill-rule="nonzero" fill-opacity="1" /><path clip-path="url(#clip170)" d="M1281.93 1520.52 L1288.84 1520.52 L1300.65 1538.19 L1312.52 1520.52 L1319.43 1520.52 L1304.15 1543.34 L1320.45 1568.04 L1313.54 1568.04 L1300.17 1547.83 L1286.71 1568.04 L1279.77 1568.04 L1296.73 1542.68 L1281.93 1520.52 Z" fill="#000000" fill-rule="nonzero" fill-opacity="1" /><polyline clip-path="url(#clip170)" style="stroke:#000000; stroke-linecap:round; stroke-linejoin:round; stroke-width:4; stroke-opacity:1; fill:none" points="247.459,1423.18 247.459,47.2441 "/>
<polyline clip-path="url(#clip170)" style="stroke:#000000; stroke-linecap:round; stroke-linejoin:round; stroke-width:4; stroke-opacity:1; fill:none" points="247.459,1279.72 266.356,1279.72 "/>
<polyline clip-path="url(#clip170)" style="stroke:#000000; stroke-linecap:round; stroke-linejoin:round; stroke-width:4; stroke-opacity:1; fill:none" points="247.459,1097.93 266.356,1097.93 "/>
<polyline clip-path="url(#clip170)" style="stroke:#000000; stroke-linecap:round; stroke-linejoin:round; stroke-width:4; stroke-opacity:1; fill:none" points="247.459,916.149 266.356,916.149 "/>
<polyline clip-path="url(#clip170)" style="stroke:#000000; stroke-linecap:round; stroke-linejoin:round; stroke-width:4; stroke-opacity:1; fill:none" points="247.459,734.363 266.356,734.363 "/>
<polyline clip-path="url(#clip170)" style="stroke:#000000; stroke-linecap:round; stroke-linejoin:round; stroke-width:4; stroke-opacity:1; fill:none" points="247.459,552.577 266.356,552.577 "/>
<polyline clip-path="url(#clip170)" style="stroke:#000000; stroke-linecap:round; stroke-linejoin:round; stroke-width:4; stroke-opacity:1; fill:none" points="247.459,370.791 266.356,370.791 "/>
<polyline clip-path="url(#clip170)" style="stroke:#000000; stroke-linecap:round; stroke-linejoin:round; stroke-width:4; stroke-opacity:1; fill:none" points="247.459,189.005 266.356,189.005 "/>
<path clip-path="url(#clip170)" d="M149.306 1293.07 L165.626 1293.07 L165.626 1297 L143.681 1297 L143.681 1293.07 Q146.343 1290.31 150.927 1285.68 Q155.533 1281.03 156.714 1279.69 Q158.959 1277.16 159.839 1275.43 Q160.741 1273.67 160.741 1271.98 Q160.741 1269.22 158.797 1267.49 Q156.876 1265.75 153.774 1265.75 Q151.575 1265.75 149.121 1266.52 Q146.691 1267.28 143.913 1268.83 L143.913 1264.11 Q146.737 1262.97 149.191 1262.39 Q151.644 1261.82 153.681 1261.82 Q159.052 1261.82 162.246 1264.5 Q165.44 1267.19 165.44 1271.68 Q165.44 1273.81 164.63 1275.73 Q163.843 1277.63 161.737 1280.22 Q161.158 1280.89 158.056 1284.11 Q154.954 1287.3 149.306 1293.07 Z" fill="#000000" fill-rule="nonzero" fill-opacity="1" /><path clip-path="url(#clip170)" d="M175.44 1291.12 L180.325 1291.12 L180.325 1297 L175.44 1297 L175.44 1291.12 Z" fill="#000000" fill-rule="nonzero" fill-opacity="1" /><path clip-path="url(#clip170)" d="M190.556 1262.44 L208.912 1262.44 L208.912 1266.38 L194.838 1266.38 L194.838 1274.85 Q195.857 1274.5 196.875 1274.34 Q197.894 1274.15 198.912 1274.15 Q204.699 1274.15 208.079 1277.33 Q211.459 1280.5 211.459 1285.91 Q211.459 1291.49 207.987 1294.59 Q204.514 1297.67 198.195 1297.67 Q196.019 1297.67 193.75 1297.3 Q191.505 1296.93 189.098 1296.19 L189.098 1291.49 Q191.181 1292.63 193.403 1293.18 Q195.625 1293.74 198.102 1293.74 Q202.107 1293.74 204.445 1291.63 Q206.783 1289.52 206.783 1285.91 Q206.783 1282.3 204.445 1280.2 Q202.107 1278.09 198.102 1278.09 Q196.227 1278.09 194.352 1278.51 Q192.5 1278.92 190.556 1279.8 L190.556 1262.44 Z" fill="#000000" fill-rule="nonzero" fill-opacity="1" /><path clip-path="url(#clip170)" d="M144.329 1080.65 L162.686 1080.65 L162.686 1084.59 L148.612 1084.59 L148.612 1093.06 Q149.63 1092.72 150.649 1092.55 Q151.667 1092.37 152.686 1092.37 Q158.473 1092.37 161.852 1095.54 Q165.232 1098.71 165.232 1104.13 Q165.232 1109.71 161.76 1112.81 Q158.288 1115.89 151.968 1115.89 Q149.792 1115.89 147.524 1115.52 Q145.279 1115.15 142.871 1114.4 L142.871 1109.71 Q144.954 1110.84 147.177 1111.4 Q149.399 1111.95 151.876 1111.95 Q155.88 1111.95 158.218 1109.84 Q160.556 1107.74 160.556 1104.13 Q160.556 1100.52 158.218 1098.41 Q155.88 1096.3 151.876 1096.3 Q150.001 1096.3 148.126 1096.72 Q146.274 1097.14 144.329 1098.02 L144.329 1080.65 Z" fill="#000000" fill-rule="nonzero" fill-opacity="1" /><path clip-path="url(#clip170)" d="M174.445 1109.34 L179.329 1109.34 L179.329 1115.21 L174.445 1115.21 L174.445 1109.34 Z" fill="#000000" fill-rule="nonzero" fill-opacity="1" /><path clip-path="url(#clip170)" d="M199.514 1083.73 Q195.903 1083.73 194.075 1087.3 Q192.269 1090.84 192.269 1097.97 Q192.269 1105.08 194.075 1108.64 Q195.903 1112.18 199.514 1112.18 Q203.149 1112.18 204.954 1108.64 Q206.783 1105.08 206.783 1097.97 Q206.783 1090.84 204.954 1087.3 Q203.149 1083.73 199.514 1083.73 M199.514 1080.03 Q205.324 1080.03 208.38 1084.64 Q211.459 1089.22 211.459 1097.97 Q211.459 1106.7 208.38 1111.3 Q205.324 1115.89 199.514 1115.89 Q193.704 1115.89 190.625 1111.3 Q187.57 1106.7 187.57 1097.97 Q187.57 1089.22 190.625 1084.64 Q193.704 1080.03 199.514 1080.03 Z" fill="#000000" fill-rule="nonzero" fill-opacity="1" /><path clip-path="url(#clip170)" d="M144.098 898.869 L166.32 898.869 L166.32 900.86 L153.774 933.429 L148.89 933.429 L160.695 902.804 L144.098 902.804 L144.098 898.869 Z" fill="#000000" fill-rule="nonzero" fill-opacity="1" /><path clip-path="url(#clip170)" d="M175.44 927.549 L180.325 927.549 L180.325 933.429 L175.44 933.429 L175.44 927.549 Z" fill="#000000" fill-rule="nonzero" fill-opacity="1" /><path clip-path="url(#clip170)" d="M190.556 898.869 L208.912 898.869 L208.912 902.804 L194.838 902.804 L194.838 911.276 Q195.857 910.929 196.875 910.767 Q197.894 910.582 198.912 910.582 Q204.699 910.582 208.079 913.753 Q211.459 916.924 211.459 922.341 Q211.459 927.92 207.987 931.022 Q204.514 934.1 198.195 934.1 Q196.019 934.1 193.75 933.73 Q191.505 933.359 189.098 932.619 L189.098 927.92 Q191.181 929.054 193.403 929.61 Q195.625 930.165 198.102 930.165 Q202.107 930.165 204.445 928.059 Q206.783 925.952 206.783 922.341 Q206.783 918.73 204.445 916.623 Q202.107 914.517 198.102 914.517 Q196.227 914.517 194.352 914.934 Q192.5 915.35 190.556 916.23 L190.556 898.869 Z" fill="#000000" fill-rule="nonzero" fill-opacity="1" /><path clip-path="url(#clip170)" d="M114.931 747.708 L122.57 747.708 L122.57 721.342 L114.26 723.009 L114.26 718.75 L122.524 717.083 L127.2 717.083 L127.2 747.708 L134.839 747.708 L134.839 751.643 L114.931 751.643 L114.931 747.708 Z" fill="#000000" fill-rule="nonzero" fill-opacity="1" /><path clip-path="url(#clip170)" d="M154.283 720.162 Q150.672 720.162 148.843 723.726 Q147.038 727.268 147.038 734.398 Q147.038 741.504 148.843 745.069 Q150.672 748.611 154.283 748.611 Q157.917 748.611 159.723 745.069 Q161.552 741.504 161.552 734.398 Q161.552 727.268 159.723 723.726 Q157.917 720.162 154.283 720.162 M154.283 716.458 Q160.093 716.458 163.149 721.064 Q166.227 725.648 166.227 734.398 Q166.227 743.124 163.149 747.731 Q160.093 752.314 154.283 752.314 Q148.473 752.314 145.394 747.731 Q142.339 743.124 142.339 734.398 Q142.339 725.648 145.394 721.064 Q148.473 716.458 154.283 716.458 Z" fill="#000000" fill-rule="nonzero" fill-opacity="1" /><path clip-path="url(#clip170)" d="M174.445 745.763 L179.329 745.763 L179.329 751.643 L174.445 751.643 L174.445 745.763 Z" fill="#000000" fill-rule="nonzero" fill-opacity="1" /><path clip-path="url(#clip170)" d="M199.514 720.162 Q195.903 720.162 194.075 723.726 Q192.269 727.268 192.269 734.398 Q192.269 741.504 194.075 745.069 Q195.903 748.611 199.514 748.611 Q203.149 748.611 204.954 745.069 Q206.783 741.504 206.783 734.398 Q206.783 727.268 204.954 723.726 Q203.149 720.162 199.514 720.162 M199.514 716.458 Q205.324 716.458 208.38 721.064 Q211.459 725.648 211.459 734.398 Q211.459 743.124 208.38 747.731 Q205.324 752.314 199.514 752.314 Q193.704 752.314 190.625 747.731 Q187.57 743.124 187.57 734.398 Q187.57 725.648 190.625 721.064 Q193.704 716.458 199.514 716.458 Z" fill="#000000" fill-rule="nonzero" fill-opacity="1" /><path clip-path="url(#clip170)" d="M115.927 565.922 L123.566 565.922 L123.566 539.556 L115.256 541.223 L115.256 536.964 L123.519 535.297 L128.195 535.297 L128.195 565.922 L135.834 565.922 L135.834 569.857 L115.927 569.857 L115.927 565.922 Z" fill="#000000" fill-rule="nonzero" fill-opacity="1" /><path clip-path="url(#clip170)" d="M149.306 565.922 L165.626 565.922 L165.626 569.857 L143.681 569.857 L143.681 565.922 Q146.343 563.167 150.927 558.537 Q155.533 553.885 156.714 552.542 Q158.959 550.019 159.839 548.283 Q160.741 546.524 160.741 544.834 Q160.741 542.079 158.797 540.343 Q156.876 538.607 153.774 538.607 Q151.575 538.607 149.121 539.371 Q146.691 540.135 143.913 541.686 L143.913 536.964 Q146.737 535.829 149.191 535.251 Q151.644 534.672 153.681 534.672 Q159.052 534.672 162.246 537.357 Q165.44 540.042 165.44 544.533 Q165.44 546.663 164.63 548.584 Q163.843 550.482 161.737 553.075 Q161.158 553.746 158.056 556.963 Q154.954 560.158 149.306 565.922 Z" fill="#000000" fill-rule="nonzero" fill-opacity="1" /><path clip-path="url(#clip170)" d="M175.44 563.977 L180.325 563.977 L180.325 569.857 L175.44 569.857 L175.44 563.977 Z" fill="#000000" fill-rule="nonzero" fill-opacity="1" /><path clip-path="url(#clip170)" d="M190.556 535.297 L208.912 535.297 L208.912 539.232 L194.838 539.232 L194.838 547.704 Q195.857 547.357 196.875 547.195 Q197.894 547.01 198.912 547.01 Q204.699 547.01 208.079 550.181 Q211.459 553.352 211.459 558.769 Q211.459 564.348 207.987 567.449 Q204.514 570.528 198.195 570.528 Q196.019 570.528 193.75 570.158 Q191.505 569.787 189.098 569.047 L189.098 564.348 Q191.181 565.482 193.403 566.037 Q195.625 566.593 198.102 566.593 Q202.107 566.593 204.445 564.487 Q206.783 562.38 206.783 558.769 Q206.783 555.158 204.445 553.051 Q202.107 550.945 198.102 550.945 Q196.227 550.945 194.352 551.362 Q192.5 551.778 190.556 552.658 L190.556 535.297 Z" fill="#000000" fill-rule="nonzero" fill-opacity="1" /><path clip-path="url(#clip170)" d="M114.931 384.136 L122.57 384.136 L122.57 357.77 L114.26 359.437 L114.26 355.177 L122.524 353.511 L127.2 353.511 L127.2 384.136 L134.839 384.136 L134.839 388.071 L114.931 388.071 L114.931 384.136 Z" fill="#000000" fill-rule="nonzero" fill-opacity="1" /><path clip-path="url(#clip170)" d="M144.329 353.511 L162.686 353.511 L162.686 357.446 L148.612 357.446 L148.612 365.918 Q149.63 365.571 150.649 365.409 Q151.667 365.224 152.686 365.224 Q158.473 365.224 161.852 368.395 Q165.232 371.566 165.232 376.983 Q165.232 382.562 161.76 385.663 Q158.288 388.742 151.968 388.742 Q149.792 388.742 147.524 388.372 Q145.279 388.001 142.871 387.261 L142.871 382.562 Q144.954 383.696 147.177 384.251 Q149.399 384.807 151.876 384.807 Q155.88 384.807 158.218 382.7 Q160.556 380.594 160.556 376.983 Q160.556 373.372 158.218 371.265 Q155.88 369.159 151.876 369.159 Q150.001 369.159 148.126 369.576 Q146.274 369.992 144.329 370.872 L144.329 353.511 Z" fill="#000000" fill-rule="nonzero" fill-opacity="1" /><path clip-path="url(#clip170)" d="M174.445 382.191 L179.329 382.191 L179.329 388.071 L174.445 388.071 L174.445 382.191 Z" fill="#000000" fill-rule="nonzero" fill-opacity="1" /><path clip-path="url(#clip170)" d="M199.514 356.589 Q195.903 356.589 194.075 360.154 Q192.269 363.696 192.269 370.826 Q192.269 377.932 194.075 381.497 Q195.903 385.038 199.514 385.038 Q203.149 385.038 204.954 381.497 Q206.783 377.932 206.783 370.826 Q206.783 363.696 204.954 360.154 Q203.149 356.589 199.514 356.589 M199.514 352.886 Q205.324 352.886 208.38 357.492 Q211.459 362.076 211.459 370.826 Q211.459 379.552 208.38 384.159 Q205.324 388.742 199.514 388.742 Q193.704 388.742 190.625 384.159 Q187.57 379.552 187.57 370.826 Q187.57 362.076 190.625 357.492 Q193.704 352.886 199.514 352.886 Z" fill="#000000" fill-rule="nonzero" fill-opacity="1" /><path clip-path="url(#clip170)" d="M115.927 202.35 L123.566 202.35 L123.566 175.984 L115.256 177.651 L115.256 173.391 L123.519 171.725 L128.195 171.725 L128.195 202.35 L135.834 202.35 L135.834 206.285 L115.927 206.285 L115.927 202.35 Z" fill="#000000" fill-rule="nonzero" fill-opacity="1" /><path clip-path="url(#clip170)" d="M144.098 171.725 L166.32 171.725 L166.32 173.715 L153.774 206.285 L148.89 206.285 L160.695 175.66 L144.098 175.66 L144.098 171.725 Z" fill="#000000" fill-rule="nonzero" fill-opacity="1" /><path clip-path="url(#clip170)" d="M175.44 200.405 L180.325 200.405 L180.325 206.285 L175.44 206.285 L175.44 200.405 Z" fill="#000000" fill-rule="nonzero" fill-opacity="1" /><path clip-path="url(#clip170)" d="M190.556 171.725 L208.912 171.725 L208.912 175.66 L194.838 175.66 L194.838 184.132 Q195.857 183.785 196.875 183.623 Q197.894 183.438 198.912 183.438 Q204.699 183.438 208.079 186.609 Q211.459 189.78 211.459 195.197 Q211.459 200.776 207.987 203.877 Q204.514 206.956 198.195 206.956 Q196.019 206.956 193.75 206.586 Q191.505 206.215 189.098 205.475 L189.098 200.776 Q191.181 201.91 193.403 202.465 Q195.625 203.021 198.102 203.021 Q202.107 203.021 204.445 200.914 Q206.783 198.808 206.783 195.197 Q206.783 191.586 204.445 189.479 Q202.107 187.373 198.102 187.373 Q196.227 187.373 194.352 187.789 Q192.5 188.206 190.556 189.086 L190.556 171.725 Z" fill="#000000" fill-rule="nonzero" fill-opacity="1" /><path clip-path="url(#clip170)" d="M16.4842 755.248 L16.4842 748.341 L36.0269 735.164 L16.4842 722.083 L16.4842 715.176 L41.3741 731.981 L64.0042 731.981 L64.0042 738.443 L41.3741 738.443 L16.4842 755.248 Z" fill="#000000" fill-rule="nonzero" fill-opacity="1" /><circle clip-path="url(#clip172)" cx="365.83" cy="1110.79" r="14.4" fill="#009af9" fill-rule="evenodd" fill-opacity="1" stroke="#000000" stroke-opacity="1" stroke-width="3.2"/>
<circle clip-path="url(#clip172)" cx="307.043" cy="1158.54" r="14.4" fill="#009af9" fill-rule="evenodd" fill-opacity="1" stroke="#000000" stroke-opacity="1" stroke-width="3.2"/>
<circle clip-path="url(#clip172)" cx="442.254" cy="1363.95" r="14.4" fill="#009af9" fill-rule="evenodd" fill-opacity="1" stroke="#000000" stroke-opacity="1" stroke-width="3.2"/>
<circle clip-path="url(#clip172)" cx="369.462" cy="1337.27" r="14.4" fill="#009af9" fill-rule="evenodd" fill-opacity="1" stroke="#000000" stroke-opacity="1" stroke-width="3.2"/>
<circle clip-path="url(#clip172)" cx="312.567" cy="1384.24" r="14.4" fill="#009af9" fill-rule="evenodd" fill-opacity="1" stroke="#000000" stroke-opacity="1" stroke-width="3.2"/>
<circle clip-path="url(#clip172)" cx="1570.54" cy="169.761" r="14.4" fill="#009af9" fill-rule="evenodd" fill-opacity="1" stroke="#000000" stroke-opacity="1" stroke-width="3.2"/>
<circle clip-path="url(#clip172)" cx="1896.41" cy="86.1857" r="14.4" fill="#009af9" fill-rule="evenodd" fill-opacity="1" stroke="#000000" stroke-opacity="1" stroke-width="3.2"/>
<circle clip-path="url(#clip172)" cx="1503.21" cy="960.737" r="14.4" fill="#009af9" fill-rule="evenodd" fill-opacity="1" stroke="#000000" stroke-opacity="1" stroke-width="3.2"/>
<circle clip-path="url(#clip172)" cx="2172.12" cy="464.15" r="14.4" fill="#009af9" fill-rule="evenodd" fill-opacity="1" stroke="#000000" stroke-opacity="1" stroke-width="3.2"/>
<circle clip-path="url(#clip172)" cx="2293.17" cy="1224.85" r="14.4" fill="#009af9" fill-rule="evenodd" fill-opacity="1" stroke="#000000" stroke-opacity="1" stroke-width="3.2"/>
</svg>
