<?xml version="1.0" encoding="utf-8"?>
<svg xmlns="http://www.w3.org/2000/svg" xmlns:xlink="http://www.w3.org/1999/xlink" width="600" height="400" viewBox="0 0 2400 1600">
<defs>
  <clipPath id="clip350">
    <rect x="0" y="0" width="2400" height="1600"/>
  </clipPath>
</defs>
<path clip-path="url(#clip350)" d="M0 1600 L2400 1600 L2400 0 L0 0  Z" fill="#ffffff" fill-rule="evenodd" fill-opacity="1"/>
<defs>
  <clipPath id="clip351">
    <rect x="480" y="0" width="1681" height="1600"/>
  </clipPath>
</defs>
<path clip-path="url(#clip350)" d="M247.459 1423.18 L2352.76 1423.18 L2352.76 47.2441 L247.459 47.2441  Z" fill="#ffffff" fill-rule="evenodd" fill-opacity="1"/>
<defs>
  <clipPath id="clip352">
    <rect x="247" y="47" width="2106" height="1377"/>
  </clipPath>
</defs>
<polyline clip-path="url(#clip352)" style="stroke:#000000; stroke-linecap:round; stroke-linejoin:round; stroke-width:2; stroke-opacity:0.1; fill:none" points="452.867,1423.18 452.867,47.2441 "/>
<polyline clip-path="url(#clip352)" style="stroke:#000000; stroke-linecap:round; stroke-linejoin:round; stroke-width:2; stroke-opacity:0.1; fill:none" points="954.267,1423.18 954.267,47.2441 "/>
<polyline clip-path="url(#clip352)" style="stroke:#000000; stroke-linecap:round; stroke-linejoin:round; stroke-width:2; stroke-opacity:0.1; fill:none" points="1455.67,1423.18 1455.67,47.2441 "/>
<polyline clip-path="url(#clip352)" style="stroke:#000000; stroke-linecap:round; stroke-linejoin:round; stroke-width:2; stroke-opacity:0.1; fill:none" points="1957.07,1423.18 1957.07,47.2441 "/>
<polyline clip-path="url(#clip352)" style="stroke:#000000; stroke-linecap:round; stroke-linejoin:round; stroke-width:2; stroke-opacity:0.1; fill:none" points="247.459,1279.72 2352.76,1279.72 "/>
<polyline clip-path="url(#clip352)" style="stroke:#000000; stroke-linecap:round; stroke-linejoin:round; stroke-width:2; stroke-opacity:0.1; fill:none" points="247.459,1097.93 2352.76,1097.93 "/>
<polyline clip-path="url(#clip352)" style="stroke:#000000; stroke-linecap:round; stroke-linejoin:round; stroke-width:2; stroke-opacity:0.1; fill:none" points="247.459,916.149 2352.76,916.149 "/>
<polyline clip-path="url(#clip352)" style="stroke:#000000; stroke-linecap:round; stroke-linejoin:round; stroke-width:2; stroke-opacity:0.1; fill:none" points="247.459,734.363 2352.76,734.363 "/>
<polyline clip-path="url(#clip352)" style="stroke:#000000; stroke-linecap:round; stroke-linejoin:round; stroke-width:2; stroke-opacity:0.1; fill:none" points="247.459,552.577 2352.76,552.577 "/>
<polyline clip-path="url(#clip352)" style="stroke:#000000; stroke-linecap:round; stroke-linejoin:round; stroke-width:2; stroke-opacity:0.1; fill:none" points="247.459,370.791 2352.76,370.791 "/>
<polyline clip-path="url(#clip352)" style="stroke:#000000; stroke-linecap:round; stroke-linejoin:round; stroke-width:2; stroke-opacity:0.1; fill:none" points="247.459,189.005 2352.76,189.005 "/>
<polyline clip-path="url(#clip350)" style="stroke:#000000; stroke-linecap:round; stroke-linejoin:round; stroke-width:4; stroke-opacity:1; fill:none" points="247.459,1423.18 2352.76,1423.18 "/>
<polyline clip-path="url(#clip350)" style="stroke:#000000; stroke-linecap:round; stroke-linejoin:round; stroke-width:4; stroke-opacity:1; fill:none" points="452.867,1423.18 452.867,1404.28 "/>
<polyline clip-path="url(#clip350)" style="stroke:#000000; stroke-linecap:round; stroke-linejoin:round; stroke-width:4; stroke-opacity:1; fill:none" points="954.267,1423.18 954.267,1404.28 "/>
<polyline clip-path="url(#clip350)" style="stroke:#000000; stroke-linecap:round; stroke-linejoin:round; stroke-width:4; stroke-opacity:1; fill:none" points="1455.67,1423.18 1455.67,1404.28 "/>
<polyline clip-path="url(#clip350)" style="stroke:#000000; stroke-linecap:round; stroke-linejoin:round; stroke-width:4; stroke-opacity:1; fill:none" points="1957.07,1423.18 1957.07,1404.28 "/>
<path clip-path="url(#clip350)" d="M447.52 1481.64 L463.839 1481.64 L463.839 1485.58 L441.895 1485.58 L441.895 1481.64 Q444.557 1478.89 449.141 1474.26 Q453.747 1469.61 454.928 1468.27 Q457.173 1465.74 458.052 1464.01 Q458.955 1462.25 458.955 1460.56 Q458.955 1457.8 457.011 1456.07 Q455.09 1454.33 451.988 1454.33 Q449.789 1454.33 447.335 1455.09 Q444.904 1455.86 442.127 1457.41 L442.127 1452.69 Q444.951 1451.55 447.404 1450.97 Q449.858 1450.39 451.895 1450.39 Q457.265 1450.39 460.46 1453.08 Q463.654 1455.77 463.654 1460.26 Q463.654 1462.39 462.844 1464.31 Q462.057 1466.2 459.951 1468.8 Q459.372 1469.47 456.27 1472.69 Q453.168 1475.88 447.52 1481.64 Z" fill="#000000" fill-rule="nonzero" fill-opacity="1" /><path clip-path="url(#clip350)" d="M957.276 1455.09 L945.471 1473.54 L957.276 1473.54 L957.276 1455.09 M956.049 1451.02 L961.929 1451.02 L961.929 1473.54 L966.86 1473.54 L966.86 1477.43 L961.929 1477.43 L961.929 1485.58 L957.276 1485.58 L957.276 1477.43 L941.674 1477.43 L941.674 1472.92 L956.049 1451.02 Z" fill="#000000" fill-rule="nonzero" fill-opacity="1" /><path clip-path="url(#clip350)" d="M1456.07 1466.44 Q1452.92 1466.44 1451.07 1468.59 Q1449.24 1470.74 1449.24 1474.49 Q1449.24 1478.22 1451.07 1480.39 Q1452.92 1482.55 1456.07 1482.55 Q1459.22 1482.55 1461.05 1480.39 Q1462.9 1478.22 1462.9 1474.49 Q1462.9 1470.74 1461.05 1468.59 Q1459.22 1466.44 1456.07 1466.44 M1465.35 1451.78 L1465.35 1456.04 Q1463.59 1455.21 1461.79 1454.77 Q1460.01 1454.33 1458.25 1454.33 Q1453.62 1454.33 1451.16 1457.45 Q1448.73 1460.58 1448.39 1466.9 Q1449.75 1464.89 1451.81 1463.82 Q1453.87 1462.73 1456.35 1462.73 Q1461.56 1462.73 1464.57 1465.9 Q1467.6 1469.05 1467.6 1474.49 Q1467.6 1479.82 1464.45 1483.03 Q1461.3 1486.25 1456.07 1486.25 Q1450.08 1486.25 1446.91 1481.67 Q1443.73 1477.06 1443.73 1468.33 Q1443.73 1460.14 1447.62 1455.28 Q1451.51 1450.39 1458.06 1450.39 Q1459.82 1450.39 1461.6 1450.74 Q1463.41 1451.09 1465.35 1451.78 Z" fill="#000000" fill-rule="nonzero" fill-opacity="1" /><path clip-path="url(#clip350)" d="M1957.07 1469.17 Q1953.73 1469.17 1951.81 1470.95 Q1949.91 1472.73 1949.91 1475.86 Q1949.91 1478.98 1951.81 1480.77 Q1953.73 1482.55 1957.07 1482.55 Q1960.4 1482.55 1962.32 1480.77 Q1964.24 1478.96 1964.24 1475.86 Q1964.24 1472.73 1962.32 1470.95 Q1960.42 1469.17 1957.07 1469.17 M1952.39 1467.18 Q1949.38 1466.44 1947.69 1464.38 Q1946.02 1462.32 1946.02 1459.35 Q1946.02 1455.21 1948.96 1452.8 Q1951.93 1450.39 1957.07 1450.39 Q1962.23 1450.39 1965.17 1452.8 Q1968.11 1455.21 1968.11 1459.35 Q1968.11 1462.32 1966.42 1464.38 Q1964.75 1466.44 1961.77 1467.18 Q1965.15 1467.96 1967.02 1470.26 Q1968.92 1472.55 1968.92 1475.86 Q1968.92 1480.88 1965.84 1483.57 Q1962.78 1486.25 1957.07 1486.25 Q1951.35 1486.25 1948.27 1483.57 Q1945.21 1480.88 1945.21 1475.86 Q1945.21 1472.55 1947.11 1470.26 Q1949.01 1467.96 1952.39 1467.18 M1950.68 1459.79 Q1950.68 1462.48 1952.34 1463.98 Q1954.03 1465.49 1957.07 1465.49 Q1960.08 1465.49 1961.77 1463.98 Q1963.48 1462.48 1963.48 1459.79 Q1963.48 1457.11 1961.77 1455.6 Q1960.08 1454.1 1957.07 1454.1 Q1954.03 1454.1 1952.34 1455.6 Q1950.68 1457.11 1950.68 1459.79 Z" fill="#000000" fill-rule="nonzero" fill-opacity="1" /><path clip-path="url(#clip350)" d="M1281.93 1520.52 L1288.84 1520.52 L1300.65 1538.19 L1312.52 1520.52 L1319.43 1520.52 L1304.15 1543.34 L1320.45 1568.04 L1313.54 1568.04 L1300.17 1547.83 L1286.71 1568.04 L1279.77 1568.04 L1296.73 1542.68 L1281.93 1520.52 Z" fill="#000000" fill-rule="nonzero" fill-opacity="1" /><polyline clip-path="url(#clip350)" style="stroke:#000000; stroke-linecap:round; stroke-linejoin:round; stroke-width:4; stroke-opacity:1; fill:none" points="247.459,1423.18 247.459,47.2441 "/>
<polyline clip-path="url(#clip350)" style="stroke:#000000; stroke-linecap:round; stroke-linejoin:round; stroke-width:4; stroke-opacity:1; fill:none" points="247.459,1279.72 266.356,1279.72 "/>
<polyline clip-path="url(#clip350)" style="stroke:#000000; stroke-linecap:round; stroke-linejoin:round; stroke-width:4; stroke-opacity:1; fill:none" points="247.459,1097.93 266.356,1097.93 "/>
<polyline clip-path="url(#clip350)" style="stroke:#000000; stroke-linecap:round; stroke-linejoin:round; stroke-width:4; stroke-opacity:1; fill:none" points="247.459,916.149 266.356,916.149 "/>
<polyline clip-path="url(#clip350)" style="stroke:#000000; stroke-linecap:round; stroke-linejoin:round; stroke-width:4; stroke-opacity:1; fill:none" points="247.459,734.363 266.356,734.363 "/>
<polyline clip-path="url(#clip350)" style="stroke:#000000; stroke-linecap:round; stroke-linejoin:round; stroke-width:4; stroke-opacity:1; fill:none" points="247.459,552.577 266.356,552.577 "/>
<polyline clip-path="url(#clip350)" style="stroke:#000000; stroke-linecap:round; stroke-linejoin:round; stroke-width:4; stroke-opacity:1; fill:none" points="247.459,370.791 266.356,370.791 "/>
<polyline clip-path="url(#clip350)" style="stroke:#000000; stroke-linecap:round; stroke-linejoin:round; stroke-width:4; stroke-opacity:1; fill:none" points="247.459,189.005 266.356,189.005 "/>
<path clip-path="url(#clip350)" d="M149.306 1293.07 L165.626 1293.07 L165.626 1297 L143.681 1297 L143.681 1293.07 Q146.343 1290.31 150.927 1285.68 Q155.533 1281.03 156.714 1279.69 Q158.959 1277.16 159.839 1275.43 Q160.741 1273.67 160.741 1271.98 Q160.741 1269.22 158.797 1267.49 Q156.876 1265.75 153.774 1265.75 Q151.575 1265.75 149.121 1266.52 Q146.691 1267.28 143.913 1268.83 L143.913 1264.11 Q146.737 1262.97 149.191 1262.39 Q151.644 1261.82 153.681 1261.82 Q159.052 1261.82 162.246 1264.5 Q165.44 1267.19 165.44 1271.68 Q165.44 1273.81 164.63 1275.73 Q163.843 1277.63 161.737 1280.22 Q161.158 1280.89 158.056 1284.11 Q154.954 1287.3 149.306 1293.07 Z" fill="#000000" fill-rule="nonzero" fill-opacity="1" /><path clip-path="url(#clip350)" d="M175.44 1291.12 L180.325 1291.12 L180.325 1297 L175.44 1297 L175.44 1291.12 Z" fill="#000000" fill-rule="nonzero" fill-opacity="1" /><path clip-path="url(#clip350)" d="M190.556 1262.44 L208.912 1262.44 L208.912 1266.38 L194.838 1266.38 L194.838 1274.85 Q195.857 1274.5 196.875 1274.34 Q197.894 1274.15 198.912 1274.15 Q204.699 1274.15 208.079 1277.33 Q211.459 1280.5 211.459 1285.91 Q211.459 1291.49 207.987 1294.59 Q204.514 1297.67 198.195 1297.67 Q196.019 1297.67 193.75 1297.3 Q191.505 1296.93 189.098 1296.19 L189.098 1291.49 Q191.181 1292.63 193.403 1293.18 Q195.625 1293.74 198.102 1293.74 Q202.107 1293.74 204.445 1291.63 Q206.783 1289.52 206.783 1285.91 Q206.783 1282.3 204.445 1280.2 Q202.107 1278.09 198.102 1278.09 Q196.227 1278.09 194.352 1278.51 Q192.5 1278.92 190.556 1279.8 L190.556 1262.44 Z" fill="#000000" fill-rule="nonzero" fill-opacity="1" /><path clip-path="url(#clip350)" d="M144.329 1080.65 L162.686 1080.65 L162.686 1084.59 L148.612 1084.59 L148.612 1093.06 Q149.63 1092.72 150.649 1092.55 Q151.667 1092.37 152.686 1092.37 Q158.473 1092.37 161.852 1095.54 Q165.232 1098.71 165.232 1104.13 Q165.232 1109.71 161.76 1112.81 Q158.288 1115.89 151.968 1115.89 Q149.792 1115.89 147.524 1115.52 Q145.279 1115.15 142.871 1114.4 L142.871 1109.71 Q144.954 1110.84 147.177 1111.4 Q149.399 1111.95 151.876 1111.95 Q155.88 1111.95 158.218 1109.84 Q160.556 1107.74 160.556 1104.13 Q160.556 1100.52 158.218 1098.41 Q155.88 1096.3 151.876 1096.3 Q150.001 1096.3 148.126 1096.72 Q146.274 1097.14 144.329 1098.02 L144.329 1080.65 Z" fill="#000000" fill-rule="nonzero" fill-opacity="1" /><path clip-path="url(#clip350)" d="M174.445 1109.34 L179.329 1109.34 L179.329 1115.21 L174.445 1115.21 L174.445 1109.34 Z" fill="#000000" fill-rule="nonzero" fill-opacity="1" /><path clip-path="url(#clip350)" d="M199.514 1083.73 Q195.903 1083.73 194.075 1087.3 Q192.269 1090.84 192.269 1097.97 Q192.269 1105.08 194.075 1108.64 Q195.903 1112.18 199.514 1112.18 Q203.149 1112.18 204.954 1108.64 Q206.783 1105.08 206.783 1097.97 Q206.783 1090.84 204.954 1087.3 Q203.149 1083.73 199.514 1083.73 M199.514 1080.03 Q205.324 1080.03 208.38 1084.64 Q211.459 1089.22 211.459 1097.97 Q211.459 1106.7 208.38 1111.3 Q205.324 1115.89 199.514 1115.89 Q193.704 1115.89 190.625 1111.3 Q187.57 1106.7 187.57 1097.97 Q187.57 1089.22 190.625 1084.64 Q193.704 1080.03 199.514 1080.03 Z" fill="#000000" fill-rule="nonzero" fill-opacity="1" /><path clip-path="url(#clip350)" d="M144.098 898.869 L166.32 898.869 L166.32 900.86 L153.774 933.429 L148.89 933.429 L160.695 902.804 L144.098 902.804 L144.098 898.869 Z" fill="#000000" fill-rule="nonzero" fill-opacity="1" /><path clip-path="url(#clip350)" d="M175.44 927.549 L180.325 927.549 L180.325 933.429 L175.44 933.429 L175.44 927.549 Z" fill="#000000" fill-rule="nonzero" fill-opacity="1" /><path clip-path="url(#clip350)" d="M190.556 898.869 L208.912 898.869 L208.912 902.804 L194.838 902.804 L194.838 911.276 Q195.857 910.929 196.875 910.767 Q197.894 910.582 198.912 910.582 Q204.699 910.582 208.079 913.753 Q211.459 916.924 211.459 922.341 Q211.459 927.92 207.987 931.022 Q204.514 934.1 198.195 934.1 Q196.019 934.1 193.75 933.73 Q191.505 933.359 189.098 932.619 L189.098 927.92 Q191.181 929.054 193.403 929.61 Q195.625 930.165 198.102 930.165 Q202.107 930.165 204.445 928.059 Q206.783 925.952 206.783 922.341 Q206.783 918.73 204.445 916.623 Q202.107 914.517 198.102 914.517 Q196.227 914.517 194.352 914.934 Q192.5 915.35 190.556 916.23 L190.556 898.869 Z" fill="#000000" fill-rule="nonzero" fill-opacity="1" /><path clip-path="url(#clip350)" d="M114.931 747.708 L122.57 747.708 L122.57 721.342 L114.26 723.009 L114.26 718.75 L122.524 717.083 L127.2 717.083 L127.2 747.708 L134.839 747.708 L134.839 751.643 L114.931 751.643 L114.931 747.708 Z" fill="#000000" fill-rule="nonzero" fill-opacity="1" /><path clip-path="url(#clip350)" d="M154.283 720.162 Q150.672 720.162 148.843 723.726 Q147.038 727.268 147.038 734.398 Q147.038 741.504 148.843 745.069 Q150.672 748.611 154.283 748.611 Q157.917 748.611 159.723 745.069 Q161.552 741.504 161.552 734.398 Q161.552 727.268 159.723 723.726 Q157.917 720.162 154.283 720.162 M154.283 716.458 Q160.093 716.458 163.149 721.064 Q166.227 725.648 166.227 734.398 Q166.227 743.124 163.149 747.731 Q160.093 752.314 154.283 752.314 Q148.473 752.314 145.394 747.731 Q142.339 743.124 142.339 734.398 Q142.339 725.648 145.394 721.064 Q148.473 716.458 154.283 716.458 Z" fill="#000000" fill-rule="nonzero" fill-opacity="1" /><path clip-path="url(#clip350)" d="M174.445 745.763 L179.329 745.763 L179.329 751.643 L174.445 751.643 L174.445 745.763 Z" fill="#000000" fill-rule="nonzero" fill-opacity="1" /><path clip-path="url(#clip350)" d="M199.514 720.162 Q195.903 720.162 194.075 723.726 Q192.269 727.268 192.269 734.398 Q192.269 741.504 194.075 745.069 Q195.903 748.611 199.514 748.611 Q203.149 748.611 204.954 745.069 Q206.783 741.504 206.783 734.398 Q206.783 727.268 204.954 723.726 Q203.149 720.162 199.514 720.162 M199.514 716.458 Q205.324 716.458 208.38 721.064 Q211.459 725.648 211.459 734.398 Q211.459 743.124 208.38 747.731 Q205.324 752.314 199.514 752.314 Q193.704 752.314 190.625 747.731 Q187.57 743.124 187.57 734.398 Q187.57 725.648 190.625 721.064 Q193.704 716.458 199.514 716.458 Z" fill="#000000" fill-rule="nonzero" fill-opacity="1" /><path clip-path="url(#clip350)" d="M115.927 565.922 L123.566 565.922 L123.566 539.556 L115.256 541.223 L115.256 536.964 L123.519 535.297 L128.195 535.297 L128.195 565.922 L135.834 565.922 L135.834 569.857 L115.927 569.857 L115.927 565.922 Z" fill="#000000" fill-rule="nonzero" fill-opacity="1" /><path clip-path="url(#clip350)" d="M149.306 565.922 L165.626 565.922 L165.626 569.857 L143.681 569.857 L143.681 565.922 Q146.343 563.167 150.927 558.537 Q155.533 553.885 156.714 552.542 Q158.959 550.019 159.839 548.283 Q160.741 546.524 160.741 544.834 Q160.741 542.079 158.797 540.343 Q156.876 538.607 153.774 538.607 Q151.575 538.607 149.121 539.371 Q146.691 540.135 143.913 541.686 L143.913 536.964 Q146.737 535.829 149.191 535.251 Q151.644 534.672 153.681 534.672 Q159.052 534.672 162.246 537.357 Q165.44 540.042 165.44 544.533 Q165.44 546.663 164.63 548.584 Q163.843 550.482 161.737 553.075 Q161.158 553.746 158.056 556.963 Q154.954 560.158 149.306 565.922 Z" fill="#000000" fill-rule="nonzero" fill-opacity="1" /><path clip-path="url(#clip350)" d="M175.44 563.977 L180.325 563.977 L180.325 569.857 L175.44 569.857 L175.44 563.977 Z" fill="#000000" fill-rule="nonzero" fill-opacity="1" /><path clip-path="url(#clip350)" d="M190.556 535.297 L208.912 535.297 L208.912 539.232 L194.838 539.232 L194.838 547.704 Q195.857 547.357 196.875 547.195 Q197.894 547.01 198.912 547.01 Q204.699 547.01 208.079 550.181 Q211.459 553.352 211.459 558.769 Q211.459 564.348 207.987 567.449 Q204.514 570.528 198.195 570.528 Q196.019 570.528 193.75 570.158 Q191.505 569.787 189.098 569.047 L189.098 564.348 Q191.181 565.482 193.403 566.037 Q195.625 566.593 198.102 566.593 Q202.107 566.593 204.445 564.487 Q206.783 562.38 206.783 558.769 Q206.783 555.158 204.445 553.051 Q202.107 550.945 198.102 550.945 Q196.227 550.945 194.352 551.362 Q192.5 551.778 190.556 552.658 L190.556 535.297 Z" fill="#000000" fill-rule="nonzero" fill-opacity="1" /><path clip-path="url(#clip350)" d="M114.931 384.136 L122.57 384.136 L122.57 357.77 L114.26 359.437 L114.26 355.177 L122.524 353.511 L127.2 353.511 L127.2 384.136 L134.839 384.136 L134.839 388.071 L114.931 388.071 L114.931 384.136 Z" fill="#000000" fill-rule="nonzero" fill-opacity="1" /><path clip-path="url(#clip350)" d="M144.329 353.511 L162.686 353.511 L162.686 357.446 L148.612 357.446 L148.612 365.918 Q149.63 365.571 150.649 365.409 Q151.667 365.224 152.686 365.224 Q158.473 365.224 161.852 368.395 Q165.232 371.566 165.232 376.983 Q165.232 382.562 161.76 385.663 Q158.288 388.742 151.968 388.742 Q149.792 388.742 147.524 388.372 Q145.279 388.001 142.871 387.261 L142.871 382.562 Q144.954 383.696 147.177 384.251 Q149.399 384.807 151.876 384.807 Q155.88 384.807 158.218 382.7 Q160.556 380.594 160.556 376.983 Q160.556 373.372 158.218 371.265 Q155.88 369.159 151.876 369.159 Q150.001 369.159 148.126 369.576 Q146.274 369.992 144.329 370.872 L144.329 353.511 Z" fill="#000000" fill-rule="nonzero" fill-opacity="1" /><path clip-path="url(#clip350)" d="M174.445 382.191 L179.329 382.191 L179.329 388.071 L174.445 388.071 L174.445 382.191 Z" fill="#000000" fill-rule="nonzero" fill-opacity="1" /><path clip-path="url(#clip350)" d="M199.514 356.589 Q195.903 356.589 194.075 360.154 Q192.269 363.696 192.269 370.826 Q192.269 377.932 194.075 381.497 Q195.903 385.038 199.514 385.038 Q203.149 385.038 204.954 381.497 Q206.783 377.932 206.783 370.826 Q206.783 363.696 204.954 360.154 Q203.149 356.589 199.514 356.589 M199.514 352.886 Q205.324 352.886 208.38 357.492 Q211.459 362.076 211.459 370.826 Q211.459 379.552 208.38 384.159 Q205.324 388.742 199.514 388.742 Q193.704 388.742 190.625 384.159 Q187.57 379.552 187.57 370.826 Q187.57 362.076 190.625 357.492 Q193.704 352.886 199.514 352.886 Z" fill="#000000" fill-rule="nonzero" fill-opacity="1" /><path clip-path="url(#clip350)" d="M115.927 202.35 L123.566 202.35 L123.566 175.984 L115.256 177.651 L115.256 173.391 L123.519 171.725 L128.195 171.725 L128.195 202.35 L135.834 202.35 L135.834 206.285 L115.927 206.285 L115.927 202.35 Z" fill="#000000" fill-rule="nonzero" fill-opacity="1" /><path clip-path="url(#clip350)" d="M144.098 171.725 L166.32 171.725 L166.32 173.715 L153.774 206.285 L148.89 206.285 L160.695 175.66 L144.098 175.66 L144.098 171.725 Z" fill="#000000" fill-rule="nonzero" fill-opacity="1" /><path clip-path="url(#clip350)" d="M175.44 200.405 L180.325 200.405 L180.325 206.285 L175.44 206.285 L175.44 200.405 Z" fill="#000000" fill-rule="nonzero" fill-opacity="1" /><path clip-path="url(#clip350)" d="M190.556 171.725 L208.912 171.725 L208.912 175.66 L194.838 175.66 L194.838 184.132 Q195.857 183.785 196.875 183.623 Q197.894 183.438 198.912 183.438 Q204.699 183.438 208.079 186.609 Q211.459 189.78 211.459 195.197 Q211.459 200.776 207.987 203.877 Q204.514 206.956 198.195 206.956 Q196.019 206.956 193.75 206.586 Q191.505 206.215 189.098 205.475 L189.098 200.776 Q191.181 201.91 193.403 202.465 Q195.625 203.021 198.102 203.021 Q202.107 203.021 204.445 200.914 Q206.783 198.808 206.783 195.197 Q206.783 191.586 204.445 189.479 Q202.107 187.373 198.102 187.373 Q196.227 187.373 194.352 187.789 Q192.5 188.206 190.556 189.086 L190.556 171.725 Z" fill="#000000" fill-rule="nonzero" fill-opacity="1" /><path clip-path="url(#clip350)" d="M16.4842 755.248 L16.4842 748.341 L36.0269 735.164 L16.4842 722.083 L16.4842 715.176 L41.3741 731.981 L64.0042 731.981 L64.0042 738.443 L41.3741 738.443 L16.4842 755.248 Z" fill="#000000" fill-rule="nonzero" fill-opacity="1" /><circle clip-path="url(#clip352)" cx="1570.54" cy="169.761" r="14.4" fill="#009af9" fill-rule="evenodd" fill-opacity="1" stroke="#000000" stroke-opacity="1" stroke-width="3.2"/>
<circle clip-path="url(#clip352)" cx="1896.41" cy="86.1857" r="14.4" fill="#009af9" fill-rule="evenodd" fill-opacity="1" stroke="#000000" stroke-opacity="1" stroke-width="3.2"/>
<circle clip-path="url(#clip352)" cx="2172.12" cy="464.15" r="14.4" fill="#009af9" fill-rule="evenodd" fill-opacity="1" stroke="#000000" stroke-opacity="1" stroke-width="3.2"/>
<circle clip-path="url(#clip352)" cx="365.83" cy="1110.79" r="14.4" fill="#e26f46" fill-rule="evenodd" fill-opacity="1" stroke="#000000" stroke-opacity="1" stroke-width="3.2"/>
<circle clip-path="url(#clip352)" cx="307.043" cy="1158.54" r="14.4" fill="#e26f46" fill-rule="evenodd" fill-opacity="1" stroke="#000000" stroke-opacity="1" stroke-width="3.2"/>
<circle clip-path="url(#clip352)" cx="442.254" cy="1363.95" r="14.4" fill="#e26f46" fill-rule="evenodd" fill-opacity="1" stroke="#000000" stroke-opacity="1" stroke-width="3.2"/>
<circle clip-path="url(#clip352)" cx="369.462" cy="1337.27" r="14.4" fill="#e26f46" fill-rule="evenodd" fill-opacity="1" stroke="#000000" stroke-opacity="1" stroke-width="3.2"/>
<circle clip-path="url(#clip352)" cx="312.567" cy="1384.24" r="14.4" fill="#e26f46" fill-rule="evenodd" fill-opacity="1" stroke="#000000" stroke-opacity="1" stroke-width="3.2"/>
<circle clip-path="url(#clip352)" cx="1503.21" cy="960.737" r="14.4" fill="#e26f46" fill-rule="evenodd" fill-opacity="1" stroke="#000000" stroke-opacity="1" stroke-width="3.2"/>
<circle clip-path="url(#clip352)" cx="2293.17" cy="1224.85" r="14.4" fill="#e26f46" fill-rule="evenodd" fill-opacity="1" stroke="#000000" stroke-opacity="1" stroke-width="3.2"/>
<circle clip-path="url(#clip352)" cx="1570.54" cy="169.761" r="14.4" fill="#3da44d" fill-rule="evenodd" fill-opacity="1" stroke="#000000" stroke-opacity="1" stroke-width="3.2"/>
<circle clip-path="url(#clip352)" cx="369.462" cy="1337.27" r="14.4" fill="#3da44d" fill-rule="evenodd" fill-opacity="1" stroke="#000000" stroke-opacity="1" stroke-width="3.2"/>
<path clip-path="url(#clip350)" d="M317.635 300.469 L749.506 300.469 L749.506 93.1086 L317.635 93.1086  Z" fill="#ffffff" fill-rule="evenodd" fill-opacity="1"/>
<polyline clip-path="url(#clip350)" style="stroke:#000000; stroke-linecap:round; stroke-linejoin:round; stroke-width:4; stroke-opacity:1; fill:none" points="317.635,300.469 749.506,300.469 749.506,93.1086 317.635,93.1086 317.635,300.469 "/>
<circle clip-path="url(#clip350)" cx="411.204" cy="144.949" r="20.48" fill="#009af9" fill-rule="evenodd" fill-opacity="1" stroke="#000000" stroke-opacity="1" stroke-width="4.55111"/>
<path clip-path="url(#clip350)" d="M532.643 130.331 L532.643 135.261 Q530.282 133.062 527.597 131.974 Q524.935 130.886 521.925 130.886 Q516 130.886 512.851 134.52 Q509.703 138.132 509.703 144.983 Q509.703 151.812 512.851 155.446 Q516 159.057 521.925 159.057 Q524.935 159.057 527.597 157.969 Q530.282 156.881 532.643 154.682 L532.643 159.567 Q530.189 161.233 527.435 162.067 Q524.703 162.9 521.648 162.9 Q513.801 162.9 509.287 158.108 Q504.773 153.293 504.773 144.983 Q504.773 136.65 509.287 131.858 Q513.801 127.044 521.648 127.044 Q524.75 127.044 527.481 127.877 Q530.236 128.687 532.643 130.331 Z" fill="#000000" fill-rule="nonzero" fill-opacity="1" /><path clip-path="url(#clip350)" d="M539.68 126.21 L543.939 126.21 L543.939 162.229 L539.68 162.229 L539.68 126.21 Z" fill="#000000" fill-rule="nonzero" fill-opacity="1" /><path clip-path="url(#clip350)" d="M552.411 151.997 L552.411 136.303 L556.671 136.303 L556.671 151.835 Q556.671 155.516 558.106 157.368 Q559.541 159.196 562.411 159.196 Q565.86 159.196 567.851 156.997 Q569.865 154.798 569.865 151.002 L569.865 136.303 L574.124 136.303 L574.124 162.229 L569.865 162.229 L569.865 158.247 Q568.314 160.608 566.254 161.766 Q564.217 162.9 561.509 162.9 Q557.041 162.9 554.726 160.122 Q552.411 157.344 552.411 151.997 M563.129 135.678 L563.129 135.678 Z" fill="#000000" fill-rule="nonzero" fill-opacity="1" /><path clip-path="url(#clip350)" d="M599.425 137.067 L599.425 141.094 Q597.62 140.169 595.675 139.706 Q593.731 139.243 591.647 139.243 Q588.476 139.243 586.879 140.215 Q585.305 141.187 585.305 143.131 Q585.305 144.613 586.439 145.469 Q587.573 146.303 590.999 147.067 L592.458 147.391 Q596.995 148.363 598.893 150.145 Q600.814 151.905 600.814 155.076 Q600.814 158.687 597.944 160.793 Q595.096 162.9 590.096 162.9 Q588.013 162.9 585.745 162.483 Q583.499 162.09 580.999 161.28 L580.999 156.881 Q583.36 158.108 585.652 158.733 Q587.944 159.335 590.189 159.335 Q593.198 159.335 594.819 158.317 Q596.439 157.275 596.439 155.4 Q596.439 153.664 595.258 152.738 Q594.101 151.812 590.143 150.956 L588.661 150.608 Q584.703 149.775 582.944 148.062 Q581.184 146.326 581.184 143.317 Q581.184 139.659 583.777 137.669 Q586.37 135.678 591.138 135.678 Q593.499 135.678 595.583 136.025 Q597.666 136.372 599.425 137.067 Z" fill="#000000" fill-rule="nonzero" fill-opacity="1" /><path clip-path="url(#clip350)" d="M611.809 128.942 L611.809 136.303 L620.582 136.303 L620.582 139.613 L611.809 139.613 L611.809 153.687 Q611.809 156.858 612.666 157.761 Q613.545 158.664 616.207 158.664 L620.582 158.664 L620.582 162.229 L616.207 162.229 Q611.277 162.229 609.402 160.4 Q607.527 158.548 607.527 153.687 L607.527 139.613 L604.402 139.613 L604.402 136.303 L607.527 136.303 L607.527 128.942 L611.809 128.942 Z" fill="#000000" fill-rule="nonzero" fill-opacity="1" /><path clip-path="url(#clip350)" d="M648.36 148.201 L648.36 150.284 L628.777 150.284 Q629.055 154.682 631.416 156.997 Q633.8 159.289 638.036 159.289 Q640.49 159.289 642.781 158.687 Q645.096 158.085 647.365 156.881 L647.365 160.909 Q645.073 161.881 642.666 162.391 Q640.258 162.9 637.781 162.9 Q631.578 162.9 627.943 159.289 Q624.332 155.678 624.332 149.52 Q624.332 143.155 627.758 139.428 Q631.207 135.678 637.041 135.678 Q642.272 135.678 645.304 139.057 Q648.36 142.414 648.36 148.201 M644.101 146.951 Q644.054 143.456 642.133 141.372 Q640.235 139.289 637.087 139.289 Q633.522 139.289 631.369 141.303 Q629.24 143.317 628.916 146.974 L644.101 146.951 Z" fill="#000000" fill-rule="nonzero" fill-opacity="1" /><path clip-path="url(#clip350)" d="M670.374 140.284 Q669.656 139.868 668.8 139.682 Q667.966 139.474 666.948 139.474 Q663.337 139.474 661.392 141.835 Q659.471 144.173 659.471 148.571 L659.471 162.229 L655.189 162.229 L655.189 136.303 L659.471 136.303 L659.471 140.331 Q660.814 137.969 662.966 136.835 Q665.119 135.678 668.198 135.678 Q668.638 135.678 669.17 135.747 Q669.702 135.794 670.351 135.909 L670.374 140.284 Z" fill="#000000" fill-rule="nonzero" fill-opacity="1" /><path clip-path="url(#clip350)" d="M691.323 158.293 L698.962 158.293 L698.962 131.928 L690.651 133.595 L690.651 129.335 L698.915 127.669 L703.591 127.669 L703.591 158.293 L711.23 158.293 L711.23 162.229 L691.323 162.229 L691.323 158.293 Z" fill="#000000" fill-rule="nonzero" fill-opacity="1" /><circle clip-path="url(#clip350)" cx="411.204" cy="196.789" r="20.48" fill="#e26f46" fill-rule="evenodd" fill-opacity="1" stroke="#000000" stroke-opacity="1" stroke-width="4.55111"/>
<path clip-path="url(#clip350)" d="M532.643 182.171 L532.643 187.101 Q530.282 184.902 527.597 183.814 Q524.935 182.726 521.925 182.726 Q516 182.726 512.851 186.36 Q509.703 189.972 509.703 196.823 Q509.703 203.652 512.851 207.286 Q516 210.897 521.925 210.897 Q524.935 210.897 527.597 209.809 Q530.282 208.721 532.643 206.522 L532.643 211.407 Q530.189 213.073 527.435 213.907 Q524.703 214.74 521.648 214.74 Q513.801 214.74 509.287 209.948 Q504.773 205.133 504.773 196.823 Q504.773 188.49 509.287 183.698 Q513.801 178.884 521.648 178.884 Q524.75 178.884 527.481 179.717 Q530.236 180.527 532.643 182.171 Z" fill="#000000" fill-rule="nonzero" fill-opacity="1" /><path clip-path="url(#clip350)" d="M539.68 178.05 L543.939 178.05 L543.939 214.069 L539.68 214.069 L539.68 178.05 Z" fill="#000000" fill-rule="nonzero" fill-opacity="1" /><path clip-path="url(#clip350)" d="M552.411 203.837 L552.411 188.143 L556.671 188.143 L556.671 203.675 Q556.671 207.356 558.106 209.208 Q559.541 211.036 562.411 211.036 Q565.86 211.036 567.851 208.837 Q569.865 206.638 569.865 202.842 L569.865 188.143 L574.124 188.143 L574.124 214.069 L569.865 214.069 L569.865 210.087 Q568.314 212.448 566.254 213.606 Q564.217 214.74 561.509 214.74 Q557.041 214.74 554.726 211.962 Q552.411 209.184 552.411 203.837 M563.129 187.518 L563.129 187.518 Z" fill="#000000" fill-rule="nonzero" fill-opacity="1" /><path clip-path="url(#clip350)" d="M599.425 188.907 L599.425 192.934 Q597.62 192.009 595.675 191.546 Q593.731 191.083 591.647 191.083 Q588.476 191.083 586.879 192.055 Q585.305 193.027 585.305 194.971 Q585.305 196.453 586.439 197.309 Q587.573 198.143 590.999 198.907 L592.458 199.231 Q596.995 200.203 598.893 201.985 Q600.814 203.745 600.814 206.916 Q600.814 210.527 597.944 212.633 Q595.096 214.74 590.096 214.74 Q588.013 214.74 585.745 214.323 Q583.499 213.93 580.999 213.12 L580.999 208.721 Q583.36 209.948 585.652 210.573 Q587.944 211.175 590.189 211.175 Q593.198 211.175 594.819 210.157 Q596.439 209.115 596.439 207.24 Q596.439 205.504 595.258 204.578 Q594.101 203.652 590.143 202.796 L588.661 202.448 Q584.703 201.615 582.944 199.902 Q581.184 198.166 581.184 195.157 Q581.184 191.499 583.777 189.509 Q586.37 187.518 591.138 187.518 Q593.499 187.518 595.583 187.865 Q597.666 188.212 599.425 188.907 Z" fill="#000000" fill-rule="nonzero" fill-opacity="1" /><path clip-path="url(#clip350)" d="M611.809 180.782 L611.809 188.143 L620.582 188.143 L620.582 191.453 L611.809 191.453 L611.809 205.527 Q611.809 208.698 612.666 209.601 Q613.545 210.504 616.207 210.504 L620.582 210.504 L620.582 214.069 L616.207 214.069 Q611.277 214.069 609.402 212.24 Q607.527 210.388 607.527 205.527 L607.527 191.453 L604.402 191.453 L604.402 188.143 L607.527 188.143 L607.527 180.782 L611.809 180.782 Z" fill="#000000" fill-rule="nonzero" fill-opacity="1" /><path clip-path="url(#clip350)" d="M648.36 200.041 L648.36 202.124 L628.777 202.124 Q629.055 206.522 631.416 208.837 Q633.8 211.129 638.036 211.129 Q640.49 211.129 642.781 210.527 Q645.096 209.925 647.365 208.721 L647.365 212.749 Q645.073 213.721 642.666 214.231 Q640.258 214.74 637.781 214.74 Q631.578 214.74 627.943 211.129 Q624.332 207.518 624.332 201.36 Q624.332 194.995 627.758 191.268 Q631.207 187.518 637.041 187.518 Q642.272 187.518 645.304 190.897 Q648.36 194.254 648.36 200.041 M644.101 198.791 Q644.054 195.296 642.133 193.212 Q640.235 191.129 637.087 191.129 Q633.522 191.129 631.369 193.143 Q629.24 195.157 628.916 198.814 L644.101 198.791 Z" fill="#000000" fill-rule="nonzero" fill-opacity="1" /><path clip-path="url(#clip350)" d="M670.374 192.124 Q669.656 191.708 668.8 191.522 Q667.966 191.314 666.948 191.314 Q663.337 191.314 661.392 193.675 Q659.471 196.013 659.471 200.411 L659.471 214.069 L655.189 214.069 L655.189 188.143 L659.471 188.143 L659.471 192.171 Q660.814 189.809 662.966 188.675 Q665.119 187.518 668.198 187.518 Q668.638 187.518 669.17 187.587 Q669.702 187.634 670.351 187.749 L670.374 192.124 Z" fill="#000000" fill-rule="nonzero" fill-opacity="1" /><path clip-path="url(#clip350)" d="M694.54 210.133 L710.86 210.133 L710.86 214.069 L688.915 214.069 L688.915 210.133 Q691.577 207.379 696.161 202.749 Q700.767 198.096 701.948 196.754 Q704.193 194.231 705.073 192.495 Q705.975 190.735 705.975 189.046 Q705.975 186.291 704.031 184.555 Q702.11 182.819 699.008 182.819 Q696.809 182.819 694.355 183.583 Q691.925 184.347 689.147 185.897 L689.147 181.175 Q691.971 180.041 694.425 179.462 Q696.878 178.884 698.915 178.884 Q704.286 178.884 707.48 181.569 Q710.674 184.254 710.674 188.745 Q710.674 190.874 709.864 192.796 Q709.077 194.694 706.971 197.286 Q706.392 197.958 703.29 201.175 Q700.188 204.37 694.54 210.133 Z" fill="#000000" fill-rule="nonzero" fill-opacity="1" /><circle clip-path="url(#clip350)" cx="411.204" cy="248.629" r="20.48" fill="#3da44d" fill-rule="evenodd" fill-opacity="1" stroke="#000000" stroke-opacity="1" stroke-width="4.55111"/>
<path clip-path="url(#clip350)" d="M532.643 234.011 L532.643 238.941 Q530.282 236.742 527.597 235.654 Q524.935 234.566 521.925 234.566 Q516 234.566 512.851 238.2 Q509.703 241.812 509.703 248.663 Q509.703 255.492 512.851 259.126 Q516 262.737 521.925 262.737 Q524.935 262.737 527.597 261.649 Q530.282 260.561 532.643 258.362 L532.643 263.247 Q530.189 264.913 527.435 265.747 Q524.703 266.58 521.648 266.58 Q513.801 266.58 509.287 261.788 Q504.773 256.973 504.773 248.663 Q504.773 240.33 509.287 235.538 Q513.801 230.724 521.648 230.724 Q524.75 230.724 527.481 231.557 Q530.236 232.367 532.643 234.011 Z" fill="#000000" fill-rule="nonzero" fill-opacity="1" /><path clip-path="url(#clip350)" d="M561.856 251.881 L561.856 253.964 L542.273 253.964 Q542.55 258.362 544.911 260.677 Q547.296 262.969 551.532 262.969 Q553.986 262.969 556.277 262.367 Q558.592 261.765 560.86 260.561 L560.86 264.589 Q558.569 265.561 556.161 266.071 Q553.754 266.58 551.277 266.58 Q545.074 266.58 541.439 262.969 Q537.828 259.358 537.828 253.2 Q537.828 246.835 541.254 243.108 Q544.703 239.358 550.536 239.358 Q555.768 239.358 558.8 242.737 Q561.856 246.094 561.856 251.881 M557.597 250.631 Q557.55 247.136 555.629 245.052 Q553.731 242.969 550.583 242.969 Q547.018 242.969 544.865 244.983 Q542.736 246.997 542.411 250.654 L557.597 250.631 Z" fill="#000000" fill-rule="nonzero" fill-opacity="1" /><path clip-path="url(#clip350)" d="M590.397 250.261 L590.397 265.909 L586.138 265.909 L586.138 250.399 Q586.138 246.719 584.703 244.89 Q583.268 243.062 580.397 243.062 Q576.948 243.062 574.958 245.261 Q572.967 247.46 572.967 251.256 L572.967 265.909 L568.685 265.909 L568.685 239.983 L572.967 239.983 L572.967 244.011 Q574.495 241.673 576.555 240.515 Q578.638 239.358 581.346 239.358 Q585.814 239.358 588.106 242.136 Q590.397 244.89 590.397 250.261 Z" fill="#000000" fill-rule="nonzero" fill-opacity="1" /><path clip-path="url(#clip350)" d="M603.106 232.622 L603.106 239.983 L611.879 239.983 L611.879 243.293 L603.106 243.293 L603.106 257.367 Q603.106 260.538 603.962 261.441 Q604.842 262.344 607.504 262.344 L611.879 262.344 L611.879 265.909 L607.504 265.909 Q602.573 265.909 600.698 264.08 Q598.823 262.228 598.823 257.367 L598.823 243.293 L595.698 243.293 L595.698 239.983 L598.823 239.983 L598.823 232.622 L603.106 232.622 Z" fill="#000000" fill-rule="nonzero" fill-opacity="1" /><path clip-path="url(#clip350)" d="M632.504 243.964 Q631.786 243.548 630.93 243.362 Q630.096 243.154 629.078 243.154 Q625.467 243.154 623.522 245.515 Q621.601 247.853 621.601 252.251 L621.601 265.909 L617.319 265.909 L617.319 239.983 L621.601 239.983 L621.601 244.011 Q622.943 241.649 625.096 240.515 Q627.249 239.358 630.328 239.358 Q630.768 239.358 631.3 239.427 Q631.832 239.474 632.48 239.589 L632.504 243.964 Z" fill="#000000" fill-rule="nonzero" fill-opacity="1" /><path clip-path="url(#clip350)" d="M645.976 242.969 Q642.55 242.969 640.559 245.654 Q638.568 248.316 638.568 252.969 Q638.568 257.622 640.536 260.307 Q642.527 262.969 645.976 262.969 Q649.379 262.969 651.369 260.284 Q653.36 257.598 653.36 252.969 Q653.36 248.362 651.369 245.677 Q649.379 242.969 645.976 242.969 M645.976 239.358 Q651.531 239.358 654.703 242.969 Q657.874 246.58 657.874 252.969 Q657.874 259.335 654.703 262.969 Q651.531 266.58 645.976 266.58 Q640.397 266.58 637.226 262.969 Q634.078 259.335 634.078 252.969 Q634.078 246.58 637.226 242.969 Q640.397 239.358 645.976 239.358 Z" fill="#000000" fill-rule="nonzero" fill-opacity="1" /><path clip-path="url(#clip350)" d="M664.934 239.983 L669.193 239.983 L669.193 265.909 L664.934 265.909 L664.934 239.983 M664.934 229.89 L669.193 229.89 L669.193 235.284 L664.934 235.284 L664.934 229.89 Z" fill="#000000" fill-rule="nonzero" fill-opacity="1" /><path clip-path="url(#clip350)" d="M695.165 243.918 L695.165 229.89 L699.425 229.89 L699.425 265.909 L695.165 265.909 L695.165 262.02 Q693.823 264.335 691.763 265.469 Q689.726 266.58 686.855 266.58 Q682.156 266.58 679.193 262.83 Q676.253 259.08 676.253 252.969 Q676.253 246.858 679.193 243.108 Q682.156 239.358 686.855 239.358 Q689.726 239.358 691.763 240.492 Q693.823 241.603 695.165 243.918 M680.651 252.969 Q680.651 257.668 682.573 260.353 Q684.517 263.015 687.897 263.015 Q691.276 263.015 693.221 260.353 Q695.165 257.668 695.165 252.969 Q695.165 248.27 693.221 245.608 Q691.276 242.923 687.897 242.923 Q684.517 242.923 682.573 245.608 Q680.651 248.27 680.651 252.969 Z" fill="#000000" fill-rule="nonzero" fill-opacity="1" /><path clip-path="url(#clip350)" d="M724.725 240.747 L724.725 244.774 Q722.92 243.849 720.975 243.386 Q719.031 242.923 716.948 242.923 Q713.776 242.923 712.179 243.895 Q710.605 244.867 710.605 246.811 Q710.605 248.293 711.739 249.149 Q712.874 249.983 716.299 250.747 L717.758 251.071 Q722.295 252.043 724.193 253.825 Q726.114 255.585 726.114 258.756 Q726.114 262.367 723.244 264.473 Q720.397 266.58 715.397 266.58 Q713.313 266.58 711.045 266.163 Q708.799 265.77 706.3 264.96 L706.3 260.561 Q708.661 261.788 710.952 262.413 Q713.244 263.015 715.489 263.015 Q718.499 263.015 720.119 261.997 Q721.739 260.955 721.739 259.08 Q721.739 257.344 720.559 256.418 Q719.401 255.492 715.443 254.636 L713.962 254.288 Q710.003 253.455 708.244 251.742 Q706.485 250.006 706.485 246.997 Q706.485 243.339 709.077 241.349 Q711.67 239.358 716.438 239.358 Q718.799 239.358 720.883 239.705 Q722.966 240.052 724.725 240.747 Z" fill="#000000" fill-rule="nonzero" fill-opacity="1" /></svg>
