<?xml version="1.0" encoding="utf-8"?>
<svg xmlns="http://www.w3.org/2000/svg" xmlns:xlink="http://www.w3.org/1999/xlink" width="600" height="400" viewBox="0 0 2400 1600">
<defs>
  <clipPath id="clip060">
    <rect x="0" y="0" width="2400" height="1600"/>
  </clipPath>
</defs>
<path clip-path="url(#clip060)" d="M0 1600 L2400 1600 L2400 0 L0 0  Z" fill="#ffffff" fill-rule="evenodd" fill-opacity="1"/>
<defs>
  <clipPath id="clip061">
    <rect x="480" y="0" width="1681" height="1600"/>
  </clipPath>
</defs>
<path clip-path="url(#clip060)" d="M247.459 1423.18 L2352.76 1423.18 L2352.76 47.2441 L247.459 47.2441  Z" fill="#ffffff" fill-rule="evenodd" fill-opacity="1"/>
<defs>
  <clipPath id="clip062">
    <rect x="247" y="47" width="2106" height="1377"/>
  </clipPath>
</defs>
<polyline clip-path="url(#clip062)" style="stroke:#000000; stroke-linecap:round; stroke-linejoin:round; stroke-width:2; stroke-opacity:0.1; fill:none" points="471.78,1423.18 471.78,47.2441 "/>
<polyline clip-path="url(#clip062)" style="stroke:#000000; stroke-linecap:round; stroke-linejoin:round; stroke-width:2; stroke-opacity:0.1; fill:none" points="960.272,1423.18 960.272,47.2441 "/>
<polyline clip-path="url(#clip062)" style="stroke:#000000; stroke-linecap:round; stroke-linejoin:round; stroke-width:2; stroke-opacity:0.1; fill:none" points="1448.76,1423.18 1448.76,47.2441 "/>
<polyline clip-path="url(#clip062)" style="stroke:#000000; stroke-linecap:round; stroke-linejoin:round; stroke-width:2; stroke-opacity:0.1; fill:none" points="1937.26,1423.18 1937.26,47.2441 "/>
<polyline clip-path="url(#clip062)" style="stroke:#000000; stroke-linecap:round; stroke-linejoin:round; stroke-width:2; stroke-opacity:0.1; fill:none" points="247.459,1176.06 2352.76,1176.06 "/>
<polyline clip-path="url(#clip062)" style="stroke:#000000; stroke-linecap:round; stroke-linejoin:round; stroke-width:2; stroke-opacity:0.1; fill:none" points="247.459,919.111 2352.76,919.111 "/>
<polyline clip-path="url(#clip062)" style="stroke:#000000; stroke-linecap:round; stroke-linejoin:round; stroke-width:2; stroke-opacity:0.1; fill:none" points="247.459,662.165 2352.76,662.165 "/>
<polyline clip-path="url(#clip062)" style="stroke:#000000; stroke-linecap:round; stroke-linejoin:round; stroke-width:2; stroke-opacity:0.1; fill:none" points="247.459,405.218 2352.76,405.218 "/>
<polyline clip-path="url(#clip062)" style="stroke:#000000; stroke-linecap:round; stroke-linejoin:round; stroke-width:2; stroke-opacity:0.1; fill:none" points="247.459,148.271 2352.76,148.271 "/>
<polyline clip-path="url(#clip060)" style="stroke:#000000; stroke-linecap:round; stroke-linejoin:round; stroke-width:4; stroke-opacity:1; fill:none" points="247.459,1423.18 2352.76,1423.18 "/>
<polyline clip-path="url(#clip060)" style="stroke:#000000; stroke-linecap:round; stroke-linejoin:round; stroke-width:4; stroke-opacity:1; fill:none" points="471.78,1423.18 471.78,1404.28 "/>
<polyline clip-path="url(#clip060)" style="stroke:#000000; stroke-linecap:round; stroke-linejoin:round; stroke-width:4; stroke-opacity:1; fill:none" points="960.272,1423.18 960.272,1404.28 "/>
<polyline clip-path="url(#clip060)" style="stroke:#000000; stroke-linecap:round; stroke-linejoin:round; stroke-width:4; stroke-opacity:1; fill:none" points="1448.76,1423.18 1448.76,1404.28 "/>
<polyline clip-path="url(#clip060)" style="stroke:#000000; stroke-linecap:round; stroke-linejoin:round; stroke-width:4; stroke-opacity:1; fill:none" points="1937.26,1423.18 1937.26,1404.28 "/>
<path clip-path="url(#clip060)" d="M466.433 1481.64 L482.752 1481.64 L482.752 1485.58 L460.808 1485.58 L460.808 1481.64 Q463.47 1478.89 468.053 1474.26 Q472.659 1469.61 473.84 1468.27 Q476.085 1465.74 476.965 1464.01 Q477.868 1462.25 477.868 1460.56 Q477.868 1457.8 475.923 1456.07 Q474.002 1454.33 470.9 1454.33 Q468.701 1454.33 466.247 1455.09 Q463.817 1455.86 461.039 1457.41 L461.039 1452.69 Q463.863 1451.55 466.317 1450.97 Q468.771 1450.39 470.808 1450.39 Q476.178 1450.39 479.372 1453.08 Q482.567 1455.77 482.567 1460.26 Q482.567 1462.39 481.757 1464.31 Q480.97 1466.2 478.863 1468.8 Q478.284 1469.47 475.183 1472.69 Q472.081 1475.88 466.433 1481.64 Z" fill="#000000" fill-rule="nonzero" fill-opacity="1" /><path clip-path="url(#clip060)" d="M963.281 1455.09 L951.476 1473.54 L963.281 1473.54 L963.281 1455.09 M962.054 1451.02 L967.934 1451.02 L967.934 1473.54 L972.865 1473.54 L972.865 1477.43 L967.934 1477.43 L967.934 1485.58 L963.281 1485.58 L963.281 1477.43 L947.679 1477.43 L947.679 1472.92 L962.054 1451.02 Z" fill="#000000" fill-rule="nonzero" fill-opacity="1" /><path clip-path="url(#clip060)" d="M1449.17 1466.44 Q1446.02 1466.44 1444.17 1468.59 Q1442.34 1470.74 1442.34 1474.49 Q1442.34 1478.22 1444.17 1480.39 Q1446.02 1482.55 1449.17 1482.55 Q1452.32 1482.55 1454.15 1480.39 Q1456 1478.22 1456 1474.49 Q1456 1470.74 1454.15 1468.59 Q1452.32 1466.44 1449.17 1466.44 M1458.45 1451.78 L1458.45 1456.04 Q1456.69 1455.21 1454.89 1454.77 Q1453.1 1454.33 1451.35 1454.33 Q1446.72 1454.33 1444.26 1457.45 Q1441.83 1460.58 1441.48 1466.9 Q1442.85 1464.89 1444.91 1463.82 Q1446.97 1462.73 1449.45 1462.73 Q1454.66 1462.73 1457.66 1465.9 Q1460.7 1469.05 1460.7 1474.49 Q1460.7 1479.82 1457.55 1483.03 Q1454.4 1486.25 1449.17 1486.25 Q1443.17 1486.25 1440 1481.67 Q1436.83 1477.06 1436.83 1468.33 Q1436.83 1460.14 1440.72 1455.28 Q1444.61 1450.39 1451.16 1450.39 Q1452.92 1450.39 1454.7 1450.74 Q1456.51 1451.09 1458.45 1451.78 Z" fill="#000000" fill-rule="nonzero" fill-opacity="1" /><path clip-path="url(#clip060)" d="M1937.26 1469.17 Q1933.92 1469.17 1932 1470.95 Q1930.1 1472.73 1930.1 1475.86 Q1930.1 1478.98 1932 1480.77 Q1933.92 1482.55 1937.26 1482.55 Q1940.59 1482.55 1942.51 1480.77 Q1944.43 1478.96 1944.43 1475.86 Q1944.43 1472.73 1942.51 1470.95 Q1940.61 1469.17 1937.26 1469.17 M1932.58 1467.18 Q1929.57 1466.44 1927.88 1464.38 Q1926.21 1462.32 1926.21 1459.35 Q1926.21 1455.21 1929.15 1452.8 Q1932.12 1450.39 1937.26 1450.39 Q1942.42 1450.39 1945.36 1452.8 Q1948.3 1455.21 1948.3 1459.35 Q1948.3 1462.32 1946.61 1464.38 Q1944.94 1466.44 1941.96 1467.18 Q1945.34 1467.96 1947.21 1470.26 Q1949.11 1472.55 1949.11 1475.86 Q1949.11 1480.88 1946.03 1483.57 Q1942.97 1486.25 1937.26 1486.25 Q1931.54 1486.25 1928.46 1483.57 Q1925.4 1480.88 1925.4 1475.86 Q1925.4 1472.55 1927.3 1470.26 Q1929.2 1467.96 1932.58 1467.18 M1930.87 1459.79 Q1930.87 1462.48 1932.53 1463.98 Q1934.22 1465.49 1937.26 1465.49 Q1940.27 1465.49 1941.96 1463.98 Q1943.67 1462.48 1943.67 1459.79 Q1943.67 1457.11 1941.96 1455.6 Q1940.27 1454.1 1937.26 1454.1 Q1934.22 1454.1 1932.53 1455.6 Q1930.87 1457.11 1930.87 1459.79 Z" fill="#000000" fill-rule="nonzero" fill-opacity="1" /><path clip-path="url(#clip060)" d="M1281.93 1520.52 L1288.84 1520.52 L1300.65 1538.19 L1312.52 1520.52 L1319.43 1520.52 L1304.15 1543.34 L1320.45 1568.04 L1313.54 1568.04 L1300.17 1547.83 L1286.71 1568.04 L1279.77 1568.04 L1296.73 1542.68 L1281.93 1520.52 Z" fill="#000000" fill-rule="nonzero" fill-opacity="1" /><polyline clip-path="url(#clip060)" style="stroke:#000000; stroke-linecap:round; stroke-linejoin:round; stroke-width:4; stroke-opacity:1; fill:none" points="247.459,1423.18 247.459,47.2441 "/>
<polyline clip-path="url(#clip060)" style="stroke:#000000; stroke-linecap:round; stroke-linejoin:round; stroke-width:4; stroke-opacity:1; fill:none" points="247.459,1176.06 266.356,1176.06 "/>
<polyline clip-path="url(#clip060)" style="stroke:#000000; stroke-linecap:round; stroke-linejoin:round; stroke-width:4; stroke-opacity:1; fill:none" points="247.459,919.111 266.356,919.111 "/>
<polyline clip-path="url(#clip060)" style="stroke:#000000; stroke-linecap:round; stroke-linejoin:round; stroke-width:4; stroke-opacity:1; fill:none" points="247.459,662.165 266.356,662.165 "/>
<polyline clip-path="url(#clip060)" style="stroke:#000000; stroke-linecap:round; stroke-linejoin:round; stroke-width:4; stroke-opacity:1; fill:none" points="247.459,405.218 266.356,405.218 "/>
<polyline clip-path="url(#clip060)" style="stroke:#000000; stroke-linecap:round; stroke-linejoin:round; stroke-width:4; stroke-opacity:1; fill:none" points="247.459,148.271 266.356,148.271 "/>
<path clip-path="url(#clip060)" d="M149.306 1189.4 L165.626 1189.4 L165.626 1193.34 L143.681 1193.34 L143.681 1189.4 Q146.343 1186.65 150.927 1182.02 Q155.533 1177.37 156.714 1176.02 Q158.959 1173.5 159.839 1171.76 Q160.741 1170 160.741 1168.32 Q160.741 1165.56 158.797 1163.82 Q156.876 1162.09 153.774 1162.09 Q151.575 1162.09 149.121 1162.85 Q146.691 1163.62 143.913 1165.17 L143.913 1160.44 Q146.737 1159.31 149.191 1158.73 Q151.644 1158.15 153.681 1158.15 Q159.052 1158.15 162.246 1160.84 Q165.44 1163.52 165.44 1168.01 Q165.44 1170.14 164.63 1172.07 Q163.843 1173.96 161.737 1176.56 Q161.158 1177.23 158.056 1180.44 Q154.954 1183.64 149.306 1189.4 Z" fill="#000000" fill-rule="nonzero" fill-opacity="1" /><path clip-path="url(#clip060)" d="M175.44 1187.46 L180.325 1187.46 L180.325 1193.34 L175.44 1193.34 L175.44 1187.46 Z" fill="#000000" fill-rule="nonzero" fill-opacity="1" /><path clip-path="url(#clip060)" d="M190.556 1158.78 L208.912 1158.78 L208.912 1162.71 L194.838 1162.71 L194.838 1171.19 Q195.857 1170.84 196.875 1170.68 Q197.894 1170.49 198.912 1170.49 Q204.699 1170.49 208.079 1173.66 Q211.459 1176.83 211.459 1182.25 Q211.459 1187.83 207.987 1190.93 Q204.514 1194.01 198.195 1194.01 Q196.019 1194.01 193.75 1193.64 Q191.505 1193.27 189.098 1192.53 L189.098 1187.83 Q191.181 1188.96 193.403 1189.52 Q195.625 1190.07 198.102 1190.07 Q202.107 1190.07 204.445 1187.97 Q206.783 1185.86 206.783 1182.25 Q206.783 1178.64 204.445 1176.53 Q202.107 1174.43 198.102 1174.43 Q196.227 1174.43 194.352 1174.84 Q192.5 1175.26 190.556 1176.14 L190.556 1158.78 Z" fill="#000000" fill-rule="nonzero" fill-opacity="1" /><path clip-path="url(#clip060)" d="M144.329 901.831 L162.686 901.831 L162.686 905.767 L148.612 905.767 L148.612 914.239 Q149.63 913.892 150.649 913.73 Q151.667 913.544 152.686 913.544 Q158.473 913.544 161.852 916.716 Q165.232 919.887 165.232 925.304 Q165.232 930.882 161.76 933.984 Q158.288 937.063 151.968 937.063 Q149.792 937.063 147.524 936.692 Q145.279 936.322 142.871 935.581 L142.871 930.882 Q144.954 932.017 147.177 932.572 Q149.399 933.128 151.876 933.128 Q155.88 933.128 158.218 931.021 Q160.556 928.915 160.556 925.304 Q160.556 921.692 158.218 919.586 Q155.88 917.48 151.876 917.48 Q150.001 917.48 148.126 917.896 Q146.274 918.313 144.329 919.193 L144.329 901.831 Z" fill="#000000" fill-rule="nonzero" fill-opacity="1" /><path clip-path="url(#clip060)" d="M174.445 930.512 L179.329 930.512 L179.329 936.391 L174.445 936.391 L174.445 930.512 Z" fill="#000000" fill-rule="nonzero" fill-opacity="1" /><path clip-path="url(#clip060)" d="M199.514 904.91 Q195.903 904.91 194.075 908.475 Q192.269 912.017 192.269 919.146 Q192.269 926.253 194.075 929.817 Q195.903 933.359 199.514 933.359 Q203.149 933.359 204.954 929.817 Q206.783 926.253 206.783 919.146 Q206.783 912.017 204.954 908.475 Q203.149 904.91 199.514 904.91 M199.514 901.206 Q205.324 901.206 208.38 905.813 Q211.459 910.396 211.459 919.146 Q211.459 927.873 208.38 932.479 Q205.324 937.063 199.514 937.063 Q193.704 937.063 190.625 932.479 Q187.57 927.873 187.57 919.146 Q187.57 910.396 190.625 905.813 Q193.704 901.206 199.514 901.206 Z" fill="#000000" fill-rule="nonzero" fill-opacity="1" /><path clip-path="url(#clip060)" d="M144.098 644.885 L166.32 644.885 L166.32 646.876 L153.774 679.445 L148.89 679.445 L160.695 648.82 L144.098 648.82 L144.098 644.885 Z" fill="#000000" fill-rule="nonzero" fill-opacity="1" /><path clip-path="url(#clip060)" d="M175.44 673.565 L180.325 673.565 L180.325 679.445 L175.44 679.445 L175.44 673.565 Z" fill="#000000" fill-rule="nonzero" fill-opacity="1" /><path clip-path="url(#clip060)" d="M190.556 644.885 L208.912 644.885 L208.912 648.82 L194.838 648.82 L194.838 657.292 Q195.857 656.945 196.875 656.783 Q197.894 656.598 198.912 656.598 Q204.699 656.598 208.079 659.769 Q211.459 662.94 211.459 668.357 Q211.459 673.936 207.987 677.037 Q204.514 680.116 198.195 680.116 Q196.019 680.116 193.75 679.746 Q191.505 679.375 189.098 678.635 L189.098 673.936 Q191.181 675.07 193.403 675.625 Q195.625 676.181 198.102 676.181 Q202.107 676.181 204.445 674.074 Q206.783 671.968 206.783 668.357 Q206.783 664.746 204.445 662.639 Q202.107 660.533 198.102 660.533 Q196.227 660.533 194.352 660.95 Q192.5 661.366 190.556 662.246 L190.556 644.885 Z" fill="#000000" fill-rule="nonzero" fill-opacity="1" /><path clip-path="url(#clip060)" d="M114.931 418.563 L122.57 418.563 L122.57 392.197 L114.26 393.864 L114.26 389.605 L122.524 387.938 L127.2 387.938 L127.2 418.563 L134.839 418.563 L134.839 422.498 L114.931 422.498 L114.931 418.563 Z" fill="#000000" fill-rule="nonzero" fill-opacity="1" /><path clip-path="url(#clip060)" d="M154.283 391.017 Q150.672 391.017 148.843 394.582 Q147.038 398.123 147.038 405.253 Q147.038 412.359 148.843 415.924 Q150.672 419.466 154.283 419.466 Q157.917 419.466 159.723 415.924 Q161.552 412.359 161.552 405.253 Q161.552 398.123 159.723 394.582 Q157.917 391.017 154.283 391.017 M154.283 387.313 Q160.093 387.313 163.149 391.92 Q166.227 396.503 166.227 405.253 Q166.227 413.98 163.149 418.586 Q160.093 423.169 154.283 423.169 Q148.473 423.169 145.394 418.586 Q142.339 413.98 142.339 405.253 Q142.339 396.503 145.394 391.92 Q148.473 387.313 154.283 387.313 Z" fill="#000000" fill-rule="nonzero" fill-opacity="1" /><path clip-path="url(#clip060)" d="M174.445 416.619 L179.329 416.619 L179.329 422.498 L174.445 422.498 L174.445 416.619 Z" fill="#000000" fill-rule="nonzero" fill-opacity="1" /><path clip-path="url(#clip060)" d="M199.514 391.017 Q195.903 391.017 194.075 394.582 Q192.269 398.123 192.269 405.253 Q192.269 412.359 194.075 415.924 Q195.903 419.466 199.514 419.466 Q203.149 419.466 204.954 415.924 Q206.783 412.359 206.783 405.253 Q206.783 398.123 204.954 394.582 Q203.149 391.017 199.514 391.017 M199.514 387.313 Q205.324 387.313 208.38 391.92 Q211.459 396.503 211.459 405.253 Q211.459 413.98 208.38 418.586 Q205.324 423.169 199.514 423.169 Q193.704 423.169 190.625 418.586 Q187.57 413.98 187.57 405.253 Q187.57 396.503 190.625 391.92 Q193.704 387.313 199.514 387.313 Z" fill="#000000" fill-rule="nonzero" fill-opacity="1" /><path clip-path="url(#clip060)" d="M115.927 161.616 L123.566 161.616 L123.566 135.251 L115.256 136.917 L115.256 132.658 L123.519 130.991 L128.195 130.991 L128.195 161.616 L135.834 161.616 L135.834 165.551 L115.927 165.551 L115.927 161.616 Z" fill="#000000" fill-rule="nonzero" fill-opacity="1" /><path clip-path="url(#clip060)" d="M149.306 161.616 L165.626 161.616 L165.626 165.551 L143.681 165.551 L143.681 161.616 Q146.343 158.862 150.927 154.232 Q155.533 149.579 156.714 148.237 Q158.959 145.714 159.839 143.977 Q160.741 142.218 160.741 140.528 Q160.741 137.774 158.797 136.038 Q156.876 134.302 153.774 134.302 Q151.575 134.302 149.121 135.066 Q146.691 135.829 143.913 137.38 L143.913 132.658 Q146.737 131.524 149.191 130.945 Q151.644 130.366 153.681 130.366 Q159.052 130.366 162.246 133.052 Q165.44 135.737 165.44 140.228 Q165.44 142.357 164.63 144.278 Q163.843 146.177 161.737 148.769 Q161.158 149.44 158.056 152.658 Q154.954 155.852 149.306 161.616 Z" fill="#000000" fill-rule="nonzero" fill-opacity="1" /><path clip-path="url(#clip060)" d="M175.44 159.672 L180.325 159.672 L180.325 165.551 L175.44 165.551 L175.44 159.672 Z" fill="#000000" fill-rule="nonzero" fill-opacity="1" /><path clip-path="url(#clip060)" d="M190.556 130.991 L208.912 130.991 L208.912 134.927 L194.838 134.927 L194.838 143.399 Q195.857 143.052 196.875 142.89 Q197.894 142.704 198.912 142.704 Q204.699 142.704 208.079 145.876 Q211.459 149.047 211.459 154.464 Q211.459 160.042 207.987 163.144 Q204.514 166.223 198.195 166.223 Q196.019 166.223 193.75 165.852 Q191.505 165.482 189.098 164.741 L189.098 160.042 Q191.181 161.176 193.403 161.732 Q195.625 162.288 198.102 162.288 Q202.107 162.288 204.445 160.181 Q206.783 158.075 206.783 154.464 Q206.783 150.852 204.445 148.746 Q202.107 146.64 198.102 146.64 Q196.227 146.64 194.352 147.056 Q192.5 147.473 190.556 148.352 L190.556 130.991 Z" fill="#000000" fill-rule="nonzero" fill-opacity="1" /><path clip-path="url(#clip060)" d="M16.4842 755.248 L16.4842 748.341 L36.0269 735.164 L16.4842 722.083 L16.4842 715.176 L41.3741 731.981 L64.0042 731.981 L64.0042 738.443 L41.3741 738.443 L16.4842 755.248 Z" fill="#000000" fill-rule="nonzero" fill-opacity="1" /><circle clip-path="url(#clip062)" cx="307.043" cy="1384.24" r="14.4" fill="#009af9" fill-rule="evenodd" fill-opacity="1" stroke="#000000" stroke-opacity="1" stroke-width="3.2"/>
<circle clip-path="url(#clip062)" cx="369.379" cy="1294.65" r="14.4" fill="#009af9" fill-rule="evenodd" fill-opacity="1" stroke="#000000" stroke-opacity="1" stroke-width="3.2"/>
<circle clip-path="url(#clip062)" cx="365.757" cy="973.203" r="14.4" fill="#009af9" fill-rule="evenodd" fill-opacity="1" stroke="#000000" stroke-opacity="1" stroke-width="3.2"/>
<circle clip-path="url(#clip062)" cx="326.911" cy="1232.29" r="14.4" fill="#009af9" fill-rule="evenodd" fill-opacity="1" stroke="#000000" stroke-opacity="1" stroke-width="3.2"/>
<circle clip-path="url(#clip062)" cx="420.441" cy="949.72" r="14.4" fill="#009af9" fill-rule="evenodd" fill-opacity="1" stroke="#000000" stroke-opacity="1" stroke-width="3.2"/>
<circle clip-path="url(#clip062)" cx="2293.17" cy="1169.83" r="14.4" fill="#009af9" fill-rule="evenodd" fill-opacity="1" stroke="#000000" stroke-opacity="1" stroke-width="3.2"/>
<circle clip-path="url(#clip062)" cx="2007.83" cy="86.1857" r="14.4" fill="#009af9" fill-rule="evenodd" fill-opacity="1" stroke="#000000" stroke-opacity="1" stroke-width="3.2"/>
<circle clip-path="url(#clip062)" cx="1976.95" cy="994.776" r="14.4" fill="#009af9" fill-rule="evenodd" fill-opacity="1" stroke="#000000" stroke-opacity="1" stroke-width="3.2"/>
<circle clip-path="url(#clip062)" cx="2215.19" cy="1196.95" r="14.4" fill="#009af9" fill-rule="evenodd" fill-opacity="1" stroke="#000000" stroke-opacity="1" stroke-width="3.2"/>
<circle clip-path="url(#clip062)" cx="1946.49" cy="979.399" r="14.4" fill="#009af9" fill-rule="evenodd" fill-opacity="1" stroke="#000000" stroke-opacity="1" stroke-width="3.2"/>
<circle clip-path="url(#clip062)" cx="326.911" cy="1232.29" r="14.4" fill="#e26f46" fill-rule="evenodd" fill-opacity="1" stroke="#000000" stroke-opacity="1" stroke-width="3.2"/>
<circle clip-path="url(#clip062)" cx="2007.83" cy="86.1857" r="14.4" fill="#e26f46" fill-rule="evenodd" fill-opacity="1" stroke="#000000" stroke-opacity="1" stroke-width="3.2"/>
<path clip-path="url(#clip060)" d="M317.635 248.629 L749.506 248.629 L749.506 93.1086 L317.635 93.1086  Z" fill="#ffffff" fill-rule="evenodd" fill-opacity="1"/>
<polyline clip-path="url(#clip060)" style="stroke:#000000; stroke-linecap:round; stroke-linejoin:round; stroke-width:4; stroke-opacity:1; fill:none" points="317.635,248.629 749.506,248.629 749.506,93.1086 317.635,93.1086 317.635,248.629 "/>
<circle clip-path="url(#clip060)" cx="411.204" cy="144.949" r="20.48" fill="#009af9" fill-rule="evenodd" fill-opacity="1" stroke="#000000" stroke-opacity="1" stroke-width="4.55111"/>
<path clip-path="url(#clip060)" d="M523.685 140.238 L523.685 126.21 L527.944 126.21 L527.944 162.229 L523.685 162.229 L523.685 158.34 Q522.342 160.655 520.282 161.789 Q518.245 162.9 515.375 162.9 Q510.676 162.9 507.713 159.15 Q504.773 155.4 504.773 149.289 Q504.773 143.178 507.713 139.428 Q510.676 135.678 515.375 135.678 Q518.245 135.678 520.282 136.812 Q522.342 137.923 523.685 140.238 M509.171 149.289 Q509.171 153.988 511.092 156.673 Q513.037 159.335 516.416 159.335 Q519.796 159.335 521.74 156.673 Q523.685 153.988 523.685 149.289 Q523.685 144.59 521.74 141.928 Q519.796 139.243 516.416 139.243 Q513.037 139.243 511.092 141.928 Q509.171 144.59 509.171 149.289 Z" fill="#000000" fill-rule="nonzero" fill-opacity="1" /><path clip-path="url(#clip060)" d="M548.499 149.196 Q543.337 149.196 541.347 150.377 Q539.356 151.557 539.356 154.405 Q539.356 156.673 540.837 158.016 Q542.342 159.335 544.911 159.335 Q548.453 159.335 550.583 156.835 Q552.736 154.312 552.736 150.145 L552.736 149.196 L548.499 149.196 M556.995 147.437 L556.995 162.229 L552.736 162.229 L552.736 158.293 Q551.277 160.655 549.101 161.789 Q546.925 162.9 543.777 162.9 Q539.796 162.9 537.435 160.678 Q535.097 158.432 535.097 154.682 Q535.097 150.307 538.013 148.085 Q540.953 145.863 546.763 145.863 L552.736 145.863 L552.736 145.446 Q552.736 142.507 550.791 140.909 Q548.87 139.289 545.374 139.289 Q543.152 139.289 541.046 139.821 Q538.939 140.354 536.995 141.419 L536.995 137.483 Q539.333 136.581 541.532 136.141 Q543.731 135.678 545.814 135.678 Q551.439 135.678 554.217 138.594 Q556.995 141.511 556.995 147.437 Z" fill="#000000" fill-rule="nonzero" fill-opacity="1" /><path clip-path="url(#clip060)" d="M569.981 128.942 L569.981 136.303 L578.754 136.303 L578.754 139.613 L569.981 139.613 L569.981 153.687 Q569.981 156.858 570.837 157.761 Q571.717 158.664 574.379 158.664 L578.754 158.664 L578.754 162.229 L574.379 162.229 Q569.448 162.229 567.573 160.4 Q565.698 158.548 565.698 153.687 L565.698 139.613 L562.573 139.613 L562.573 136.303 L565.698 136.303 L565.698 128.942 L569.981 128.942 Z" fill="#000000" fill-rule="nonzero" fill-opacity="1" /><path clip-path="url(#clip060)" d="M596.138 149.196 Q590.976 149.196 588.985 150.377 Q586.995 151.557 586.995 154.405 Q586.995 156.673 588.476 158.016 Q589.981 159.335 592.55 159.335 Q596.092 159.335 598.221 156.835 Q600.374 154.312 600.374 150.145 L600.374 149.196 L596.138 149.196 M604.633 147.437 L604.633 162.229 L600.374 162.229 L600.374 158.293 Q598.916 160.655 596.74 161.789 Q594.564 162.9 591.416 162.9 Q587.434 162.9 585.073 160.678 Q582.735 158.432 582.735 154.682 Q582.735 150.307 585.652 148.085 Q588.592 145.863 594.402 145.863 L600.374 145.863 L600.374 145.446 Q600.374 142.507 598.43 140.909 Q596.508 139.289 593.013 139.289 Q590.791 139.289 588.684 139.821 Q586.578 140.354 584.633 141.419 L584.633 137.483 Q586.971 136.581 589.171 136.141 Q591.37 135.678 593.453 135.678 Q599.078 135.678 601.856 138.594 Q604.633 141.511 604.633 147.437 Z" fill="#000000" fill-rule="nonzero" fill-opacity="1" /><path clip-path="url(#clip060)" d="M633.105 170.099 L633.105 173.409 L608.476 173.409 L608.476 170.099 L633.105 170.099 Z" fill="#000000" fill-rule="nonzero" fill-opacity="1" /><path clip-path="url(#clip060)" d="M653.638 137.067 L653.638 141.094 Q651.832 140.169 649.888 139.706 Q647.943 139.243 645.86 139.243 Q642.689 139.243 641.092 140.215 Q639.517 141.187 639.517 143.131 Q639.517 144.613 640.652 145.469 Q641.786 146.303 645.212 147.067 L646.67 147.391 Q651.207 148.363 653.105 150.145 Q655.027 151.905 655.027 155.076 Q655.027 158.687 652.156 160.793 Q649.309 162.9 644.309 162.9 Q642.226 162.9 639.957 162.483 Q637.712 162.09 635.212 161.28 L635.212 156.881 Q637.573 158.108 639.865 158.733 Q642.156 159.335 644.402 159.335 Q647.411 159.335 649.031 158.317 Q650.652 157.275 650.652 155.4 Q650.652 153.664 649.471 152.738 Q648.314 151.812 644.355 150.956 L642.874 150.608 Q638.916 149.775 637.156 148.062 Q635.397 146.326 635.397 143.317 Q635.397 139.659 637.99 137.669 Q640.582 135.678 645.351 135.678 Q647.712 135.678 649.795 136.025 Q651.879 136.372 653.638 137.067 Z" fill="#000000" fill-rule="nonzero" fill-opacity="1" /><circle clip-path="url(#clip060)" cx="411.204" cy="196.789" r="20.48" fill="#e26f46" fill-rule="evenodd" fill-opacity="1" stroke="#000000" stroke-opacity="1" stroke-width="4.55111"/>
<path clip-path="url(#clip060)" d="M532.643 182.171 L532.643 187.101 Q530.282 184.902 527.597 183.814 Q524.935 182.726 521.925 182.726 Q516 182.726 512.851 186.36 Q509.703 189.972 509.703 196.823 Q509.703 203.652 512.851 207.286 Q516 210.897 521.925 210.897 Q524.935 210.897 527.597 209.809 Q530.282 208.721 532.643 206.522 L532.643 211.407 Q530.189 213.073 527.435 213.907 Q524.703 214.74 521.648 214.74 Q513.801 214.74 509.287 209.948 Q504.773 205.133 504.773 196.823 Q504.773 188.49 509.287 183.698 Q513.801 178.884 521.648 178.884 Q524.75 178.884 527.481 179.717 Q530.236 180.527 532.643 182.171 Z" fill="#000000" fill-rule="nonzero" fill-opacity="1" /><path clip-path="url(#clip060)" d="M561.856 200.041 L561.856 202.124 L542.273 202.124 Q542.55 206.522 544.911 208.837 Q547.296 211.129 551.532 211.129 Q553.986 211.129 556.277 210.527 Q558.592 209.925 560.86 208.721 L560.86 212.749 Q558.569 213.721 556.161 214.231 Q553.754 214.74 551.277 214.74 Q545.074 214.74 541.439 211.129 Q537.828 207.518 537.828 201.36 Q537.828 194.995 541.254 191.268 Q544.703 187.518 550.536 187.518 Q555.768 187.518 558.8 190.897 Q561.856 194.254 561.856 200.041 M557.597 198.791 Q557.55 195.296 555.629 193.212 Q553.731 191.129 550.583 191.129 Q547.018 191.129 544.865 193.143 Q542.736 195.157 542.411 198.814 L557.597 198.791 Z" fill="#000000" fill-rule="nonzero" fill-opacity="1" /><path clip-path="url(#clip060)" d="M590.397 198.421 L590.397 214.069 L586.138 214.069 L586.138 198.559 Q586.138 194.879 584.703 193.05 Q583.268 191.222 580.397 191.222 Q576.948 191.222 574.958 193.421 Q572.967 195.62 572.967 199.416 L572.967 214.069 L568.685 214.069 L568.685 188.143 L572.967 188.143 L572.967 192.171 Q574.495 189.833 576.555 188.675 Q578.638 187.518 581.346 187.518 Q585.814 187.518 588.106 190.296 Q590.397 193.05 590.397 198.421 Z" fill="#000000" fill-rule="nonzero" fill-opacity="1" /><path clip-path="url(#clip060)" d="M603.106 180.782 L603.106 188.143 L611.879 188.143 L611.879 191.453 L603.106 191.453 L603.106 205.527 Q603.106 208.698 603.962 209.601 Q604.842 210.504 607.504 210.504 L611.879 210.504 L611.879 214.069 L607.504 214.069 Q602.573 214.069 600.698 212.24 Q598.823 210.388 598.823 205.527 L598.823 191.453 L595.698 191.453 L595.698 188.143 L598.823 188.143 L598.823 180.782 L603.106 180.782 Z" fill="#000000" fill-rule="nonzero" fill-opacity="1" /><path clip-path="url(#clip060)" d="M632.504 192.124 Q631.786 191.708 630.93 191.522 Q630.096 191.314 629.078 191.314 Q625.467 191.314 623.522 193.675 Q621.601 196.013 621.601 200.411 L621.601 214.069 L617.319 214.069 L617.319 188.143 L621.601 188.143 L621.601 192.171 Q622.943 189.809 625.096 188.675 Q627.249 187.518 630.328 187.518 Q630.768 187.518 631.3 187.587 Q631.832 187.634 632.48 187.749 L632.504 192.124 Z" fill="#000000" fill-rule="nonzero" fill-opacity="1" /><path clip-path="url(#clip060)" d="M645.976 191.129 Q642.55 191.129 640.559 193.814 Q638.568 196.476 638.568 201.129 Q638.568 205.782 640.536 208.467 Q642.527 211.129 645.976 211.129 Q649.379 211.129 651.369 208.444 Q653.36 205.758 653.36 201.129 Q653.36 196.522 651.369 193.837 Q649.379 191.129 645.976 191.129 M645.976 187.518 Q651.531 187.518 654.703 191.129 Q657.874 194.74 657.874 201.129 Q657.874 207.495 654.703 211.129 Q651.531 214.74 645.976 214.74 Q640.397 214.74 637.226 211.129 Q634.078 207.495 634.078 201.129 Q634.078 194.74 637.226 191.129 Q640.397 187.518 645.976 187.518 Z" fill="#000000" fill-rule="nonzero" fill-opacity="1" /><path clip-path="url(#clip060)" d="M664.934 188.143 L669.193 188.143 L669.193 214.069 L664.934 214.069 L664.934 188.143 M664.934 178.05 L669.193 178.05 L669.193 183.444 L664.934 183.444 L664.934 178.05 Z" fill="#000000" fill-rule="nonzero" fill-opacity="1" /><path clip-path="url(#clip060)" d="M695.165 192.078 L695.165 178.05 L699.425 178.05 L699.425 214.069 L695.165 214.069 L695.165 210.18 Q693.823 212.495 691.763 213.629 Q689.726 214.74 686.855 214.74 Q682.156 214.74 679.193 210.99 Q676.253 207.24 676.253 201.129 Q676.253 195.018 679.193 191.268 Q682.156 187.518 686.855 187.518 Q689.726 187.518 691.763 188.652 Q693.823 189.763 695.165 192.078 M680.651 201.129 Q680.651 205.828 682.573 208.513 Q684.517 211.175 687.897 211.175 Q691.276 211.175 693.221 208.513 Q695.165 205.828 695.165 201.129 Q695.165 196.43 693.221 193.768 Q691.276 191.083 687.897 191.083 Q684.517 191.083 682.573 193.768 Q680.651 196.43 680.651 201.129 Z" fill="#000000" fill-rule="nonzero" fill-opacity="1" /><path clip-path="url(#clip060)" d="M724.725 188.907 L724.725 192.934 Q722.92 192.009 720.975 191.546 Q719.031 191.083 716.948 191.083 Q713.776 191.083 712.179 192.055 Q710.605 193.027 710.605 194.971 Q710.605 196.453 711.739 197.309 Q712.874 198.143 716.299 198.907 L717.758 199.231 Q722.295 200.203 724.193 201.985 Q726.114 203.745 726.114 206.916 Q726.114 210.527 723.244 212.633 Q720.397 214.74 715.397 214.74 Q713.313 214.74 711.045 214.323 Q708.799 213.93 706.3 213.12 L706.3 208.721 Q708.661 209.948 710.952 210.573 Q713.244 211.175 715.489 211.175 Q718.499 211.175 720.119 210.157 Q721.739 209.115 721.739 207.24 Q721.739 205.504 720.559 204.578 Q719.401 203.652 715.443 202.796 L713.962 202.448 Q710.003 201.615 708.244 199.902 Q706.485 198.166 706.485 195.157 Q706.485 191.499 709.077 189.509 Q711.67 187.518 716.438 187.518 Q718.799 187.518 720.883 187.865 Q722.966 188.212 724.725 188.907 Z" fill="#000000" fill-rule="nonzero" fill-opacity="1" /></svg>
