<?xml version="1.0" encoding="utf-8"?>
<svg xmlns="http://www.w3.org/2000/svg" xmlns:xlink="http://www.w3.org/1999/xlink" width="600" height="400" viewBox="0 0 2400 1600">
<defs>
  <clipPath id="clip700">
    <rect x="0" y="0" width="2400" height="1600"/>
  </clipPath>
</defs>
<path clip-path="url(#clip700)" d="M0 1600 L2400 1600 L2400 0 L0 0  Z" fill="#ffffff" fill-rule="evenodd" fill-opacity="1"/>
<defs>
  <clipPath id="clip701">
    <rect x="480" y="0" width="1681" height="1600"/>
  </clipPath>
</defs>
<path clip-path="url(#clip700)" d="M219.38 1423.18 L2352.76 1423.18 L2352.76 47.2441 L219.38 47.2441  Z" fill="#ffffff" fill-rule="evenodd" fill-opacity="1"/>
<defs>
  <clipPath id="clip702">
    <rect x="219" y="47" width="2134" height="1377"/>
  </clipPath>
</defs>
<polyline clip-path="url(#clip702)" style="stroke:#000000; stroke-linecap:round; stroke-linejoin:round; stroke-width:2; stroke-opacity:0.1; fill:none" points="283.047,1423.18 283.047,47.2441 "/>
<polyline clip-path="url(#clip702)" style="stroke:#000000; stroke-linecap:round; stroke-linejoin:round; stroke-width:2; stroke-opacity:0.1; fill:none" points="638.274,1423.18 638.274,47.2441 "/>
<polyline clip-path="url(#clip702)" style="stroke:#000000; stroke-linecap:round; stroke-linejoin:round; stroke-width:2; stroke-opacity:0.1; fill:none" points="993.5,1423.18 993.5,47.2441 "/>
<polyline clip-path="url(#clip702)" style="stroke:#000000; stroke-linecap:round; stroke-linejoin:round; stroke-width:2; stroke-opacity:0.1; fill:none" points="1348.73,1423.18 1348.73,47.2441 "/>
<polyline clip-path="url(#clip702)" style="stroke:#000000; stroke-linecap:round; stroke-linejoin:round; stroke-width:2; stroke-opacity:0.1; fill:none" points="1703.95,1423.18 1703.95,47.2441 "/>
<polyline clip-path="url(#clip702)" style="stroke:#000000; stroke-linecap:round; stroke-linejoin:round; stroke-width:2; stroke-opacity:0.1; fill:none" points="2059.18,1423.18 2059.18,47.2441 "/>
<polyline clip-path="url(#clip702)" style="stroke:#000000; stroke-linecap:round; stroke-linejoin:round; stroke-width:2; stroke-opacity:0.1; fill:none" points="219.38,1423.18 2352.76,1423.18 "/>
<polyline clip-path="url(#clip702)" style="stroke:#000000; stroke-linecap:round; stroke-linejoin:round; stroke-width:2; stroke-opacity:0.1; fill:none" points="219.38,1030.06 2352.76,1030.06 "/>
<polyline clip-path="url(#clip702)" style="stroke:#000000; stroke-linecap:round; stroke-linejoin:round; stroke-width:2; stroke-opacity:0.1; fill:none" points="219.38,636.931 2352.76,636.931 "/>
<polyline clip-path="url(#clip702)" style="stroke:#000000; stroke-linecap:round; stroke-linejoin:round; stroke-width:2; stroke-opacity:0.1; fill:none" points="219.38,243.806 2352.76,243.806 "/>
<polyline clip-path="url(#clip700)" style="stroke:#000000; stroke-linecap:round; stroke-linejoin:round; stroke-width:4; stroke-opacity:1; fill:none" points="219.38,1423.18 2352.76,1423.18 "/>
<polyline clip-path="url(#clip700)" style="stroke:#000000; stroke-linecap:round; stroke-linejoin:round; stroke-width:4; stroke-opacity:1; fill:none" points="283.047,1423.18 283.047,1404.28 "/>
<polyline clip-path="url(#clip700)" style="stroke:#000000; stroke-linecap:round; stroke-linejoin:round; stroke-width:4; stroke-opacity:1; fill:none" points="638.274,1423.18 638.274,1404.28 "/>
<polyline clip-path="url(#clip700)" style="stroke:#000000; stroke-linecap:round; stroke-linejoin:round; stroke-width:4; stroke-opacity:1; fill:none" points="993.5,1423.18 993.5,1404.28 "/>
<polyline clip-path="url(#clip700)" style="stroke:#000000; stroke-linecap:round; stroke-linejoin:round; stroke-width:4; stroke-opacity:1; fill:none" points="1348.73,1423.18 1348.73,1404.28 "/>
<polyline clip-path="url(#clip700)" style="stroke:#000000; stroke-linecap:round; stroke-linejoin:round; stroke-width:4; stroke-opacity:1; fill:none" points="1703.95,1423.18 1703.95,1404.28 "/>
<polyline clip-path="url(#clip700)" style="stroke:#000000; stroke-linecap:round; stroke-linejoin:round; stroke-width:4; stroke-opacity:1; fill:none" points="2059.18,1423.18 2059.18,1404.28 "/>
<path clip-path="url(#clip700)" d="M237.11 1468.75 L266.786 1468.75 L266.786 1472.69 L237.11 1472.69 L237.11 1468.75 Z" fill="#000000" fill-rule="nonzero" fill-opacity="1" /><path clip-path="url(#clip700)" d="M277.689 1481.64 L285.327 1481.64 L285.327 1455.28 L277.017 1456.95 L277.017 1452.69 L285.281 1451.02 L289.957 1451.02 L289.957 1481.64 L297.596 1481.64 L297.596 1485.58 L277.689 1485.58 L277.689 1481.64 Z" fill="#000000" fill-rule="nonzero" fill-opacity="1" /><path clip-path="url(#clip700)" d="M317.04 1454.1 Q313.429 1454.1 311.6 1457.66 Q309.795 1461.2 309.795 1468.33 Q309.795 1475.44 311.6 1479.01 Q313.429 1482.55 317.04 1482.55 Q320.674 1482.55 322.48 1479.01 Q324.309 1475.44 324.309 1468.33 Q324.309 1461.2 322.48 1457.66 Q320.674 1454.1 317.04 1454.1 M317.04 1450.39 Q322.85 1450.39 325.906 1455 Q328.985 1459.58 328.985 1468.33 Q328.985 1477.06 325.906 1481.67 Q322.85 1486.25 317.04 1486.25 Q311.23 1486.25 308.151 1481.67 Q305.096 1477.06 305.096 1468.33 Q305.096 1459.58 308.151 1455 Q311.23 1450.39 317.04 1450.39 Z" fill="#000000" fill-rule="nonzero" fill-opacity="1" /><path clip-path="url(#clip700)" d="M607.915 1468.75 L637.591 1468.75 L637.591 1472.69 L607.915 1472.69 L607.915 1468.75 Z" fill="#000000" fill-rule="nonzero" fill-opacity="1" /><path clip-path="url(#clip700)" d="M647.729 1451.02 L666.086 1451.02 L666.086 1454.96 L652.012 1454.96 L652.012 1463.43 Q653.03 1463.08 654.049 1462.92 Q655.067 1462.73 656.086 1462.73 Q661.873 1462.73 665.253 1465.9 Q668.632 1469.08 668.632 1474.49 Q668.632 1480.07 665.16 1483.17 Q661.688 1486.25 655.368 1486.25 Q653.192 1486.25 650.924 1485.88 Q648.679 1485.51 646.271 1484.77 L646.271 1480.07 Q648.354 1481.2 650.577 1481.76 Q652.799 1482.32 655.276 1482.32 Q659.28 1482.32 661.618 1480.21 Q663.956 1478.1 663.956 1474.49 Q663.956 1470.88 661.618 1468.77 Q659.28 1466.67 655.276 1466.67 Q653.401 1466.67 651.526 1467.08 Q649.674 1467.5 647.729 1468.38 L647.729 1451.02 Z" fill="#000000" fill-rule="nonzero" fill-opacity="1" /><path clip-path="url(#clip700)" d="M993.5 1454.1 Q989.889 1454.1 988.06 1457.66 Q986.254 1461.2 986.254 1468.33 Q986.254 1475.44 988.06 1479.01 Q989.889 1482.55 993.5 1482.55 Q997.134 1482.55 998.939 1479.01 Q1000.77 1475.44 1000.77 1468.33 Q1000.77 1461.2 998.939 1457.66 Q997.134 1454.1 993.5 1454.1 M993.5 1450.39 Q999.31 1450.39 1002.37 1455 Q1005.44 1459.58 1005.44 1468.33 Q1005.44 1477.06 1002.37 1481.67 Q999.31 1486.25 993.5 1486.25 Q987.69 1486.25 984.611 1481.67 Q981.555 1477.06 981.555 1468.33 Q981.555 1459.58 984.611 1455 Q987.69 1450.39 993.5 1450.39 Z" fill="#000000" fill-rule="nonzero" fill-opacity="1" /><path clip-path="url(#clip700)" d="M1339 1451.02 L1357.36 1451.02 L1357.36 1454.96 L1343.29 1454.96 L1343.29 1463.43 Q1344.3 1463.08 1345.32 1462.92 Q1346.34 1462.73 1347.36 1462.73 Q1353.15 1462.73 1356.53 1465.9 Q1359.91 1469.08 1359.91 1474.49 Q1359.91 1480.07 1356.43 1483.17 Q1352.96 1486.25 1346.64 1486.25 Q1344.47 1486.25 1342.2 1485.88 Q1339.95 1485.51 1337.55 1484.77 L1337.55 1480.07 Q1339.63 1481.2 1341.85 1481.76 Q1344.07 1482.32 1346.55 1482.32 Q1350.55 1482.32 1352.89 1480.21 Q1355.23 1478.1 1355.23 1474.49 Q1355.23 1470.88 1352.89 1468.77 Q1350.55 1466.67 1346.55 1466.67 Q1344.68 1466.67 1342.8 1467.08 Q1340.95 1467.5 1339 1468.38 L1339 1451.02 Z" fill="#000000" fill-rule="nonzero" fill-opacity="1" /><path clip-path="url(#clip700)" d="M1678.64 1481.64 L1686.28 1481.64 L1686.28 1455.28 L1677.97 1456.95 L1677.97 1452.69 L1686.23 1451.02 L1690.91 1451.02 L1690.91 1481.64 L1698.55 1481.64 L1698.55 1485.58 L1678.64 1485.58 L1678.64 1481.64 Z" fill="#000000" fill-rule="nonzero" fill-opacity="1" /><path clip-path="url(#clip700)" d="M1717.99 1454.1 Q1714.38 1454.1 1712.55 1457.66 Q1710.75 1461.2 1710.75 1468.33 Q1710.75 1475.44 1712.55 1479.01 Q1714.38 1482.55 1717.99 1482.55 Q1721.63 1482.55 1723.43 1479.01 Q1725.26 1475.44 1725.26 1468.33 Q1725.26 1461.2 1723.43 1457.66 Q1721.63 1454.1 1717.99 1454.1 M1717.99 1450.39 Q1723.8 1450.39 1726.86 1455 Q1729.94 1459.58 1729.94 1468.33 Q1729.94 1477.06 1726.86 1481.67 Q1723.8 1486.25 1717.99 1486.25 Q1712.18 1486.25 1709.1 1481.67 Q1706.05 1477.06 1706.05 1468.33 Q1706.05 1459.58 1709.1 1455 Q1712.18 1450.39 1717.99 1450.39 Z" fill="#000000" fill-rule="nonzero" fill-opacity="1" /><path clip-path="url(#clip700)" d="M2034.36 1481.64 L2042 1481.64 L2042 1455.28 L2033.69 1456.95 L2033.69 1452.69 L2041.96 1451.02 L2046.63 1451.02 L2046.63 1481.64 L2054.27 1481.64 L2054.27 1485.58 L2034.36 1485.58 L2034.36 1481.64 Z" fill="#000000" fill-rule="nonzero" fill-opacity="1" /><path clip-path="url(#clip700)" d="M2063.76 1451.02 L2082.12 1451.02 L2082.12 1454.96 L2068.04 1454.96 L2068.04 1463.43 Q2069.06 1463.08 2070.08 1462.92 Q2071.1 1462.73 2072.12 1462.73 Q2077.91 1462.73 2081.28 1465.9 Q2084.66 1469.08 2084.66 1474.49 Q2084.66 1480.07 2081.19 1483.17 Q2077.72 1486.25 2071.4 1486.25 Q2069.22 1486.25 2066.96 1485.88 Q2064.71 1485.51 2062.3 1484.77 L2062.3 1480.07 Q2064.39 1481.2 2066.61 1481.76 Q2068.83 1482.32 2071.31 1482.32 Q2075.31 1482.32 2077.65 1480.21 Q2079.99 1478.1 2079.99 1474.49 Q2079.99 1470.88 2077.65 1468.77 Q2075.31 1466.67 2071.31 1466.67 Q2069.43 1466.67 2067.56 1467.08 Q2065.71 1467.5 2063.76 1468.38 L2063.76 1451.02 Z" fill="#000000" fill-rule="nonzero" fill-opacity="1" /><path clip-path="url(#clip700)" d="M1000.6 1524.18 L1000.6 1530.96 Q997.351 1527.94 993.659 1526.44 Q989.999 1524.95 985.861 1524.95 Q977.713 1524.95 973.385 1529.95 Q969.056 1534.91 969.056 1544.33 Q969.056 1553.72 973.385 1558.72 Q977.713 1563.68 985.861 1563.68 Q989.999 1563.68 993.659 1562.19 Q997.351 1560.69 1000.6 1557.67 L1000.6 1564.38 Q997.224 1566.68 993.436 1567.82 Q989.681 1568.97 985.479 1568.97 Q974.689 1568.97 968.483 1562.38 Q962.276 1555.76 962.276 1544.33 Q962.276 1532.87 968.483 1526.28 Q974.689 1519.66 985.479 1519.66 Q989.744 1519.66 993.5 1520.81 Q997.288 1521.92 1000.6 1524.18 Z" fill="#000000" fill-rule="nonzero" fill-opacity="1" /><path clip-path="url(#clip700)" d="M1024.09 1536.5 Q1019.38 1536.5 1016.64 1540.19 Q1013.9 1543.85 1013.9 1550.25 Q1013.9 1556.65 1016.61 1560.34 Q1019.34 1564 1024.09 1564 Q1028.77 1564 1031.5 1560.31 Q1034.24 1556.62 1034.24 1550.25 Q1034.24 1543.92 1031.5 1540.23 Q1028.77 1536.5 1024.09 1536.5 M1024.09 1531.54 Q1031.73 1531.54 1036.09 1536.5 Q1040.45 1541.47 1040.45 1550.25 Q1040.45 1559 1036.09 1564 Q1031.73 1568.97 1024.09 1568.97 Q1016.42 1568.97 1012.06 1564 Q1007.73 1559 1007.73 1550.25 Q1007.73 1541.47 1012.06 1536.5 Q1016.42 1531.54 1024.09 1531.54 Z" fill="#000000" fill-rule="nonzero" fill-opacity="1" /><path clip-path="url(#clip700)" d="M1079.79 1546.53 L1079.79 1568.04 L1073.93 1568.04 L1073.93 1546.72 Q1073.93 1541.66 1071.96 1539.14 Q1069.98 1536.63 1066.04 1536.63 Q1061.29 1536.63 1058.56 1539.65 Q1055.82 1542.68 1055.82 1547.9 L1055.82 1568.04 L1049.93 1568.04 L1049.93 1532.4 L1055.82 1532.4 L1055.82 1537.93 Q1057.92 1534.72 1060.75 1533.13 Q1063.62 1531.54 1067.34 1531.54 Q1073.49 1531.54 1076.64 1535.36 Q1079.79 1539.14 1079.79 1546.53 Z" fill="#000000" fill-rule="nonzero" fill-opacity="1" /><path clip-path="url(#clip700)" d="M1117.12 1533.76 L1117.12 1539.24 Q1114.64 1537.87 1112.13 1537.2 Q1109.64 1536.5 1107.1 1536.5 Q1101.4 1536.5 1098.25 1540.13 Q1095.1 1543.73 1095.1 1550.25 Q1095.1 1556.78 1098.25 1560.4 Q1101.4 1564 1107.1 1564 Q1109.64 1564 1112.13 1563.33 Q1114.64 1562.63 1117.12 1561.26 L1117.12 1566.68 Q1114.67 1567.82 1112.03 1568.39 Q1109.42 1568.97 1106.46 1568.97 Q1098.41 1568.97 1093.66 1563.91 Q1088.92 1558.85 1088.92 1550.25 Q1088.92 1541.53 1093.7 1536.53 Q1098.5 1531.54 1106.84 1531.54 Q1109.55 1531.54 1112.13 1532.11 Q1114.7 1532.65 1117.12 1533.76 Z" fill="#000000" fill-rule="nonzero" fill-opacity="1" /><path clip-path="url(#clip700)" d="M1157.8 1548.76 L1157.8 1551.62 L1130.87 1551.62 Q1131.25 1557.67 1134.5 1560.85 Q1137.78 1564 1143.6 1564 Q1146.98 1564 1150.13 1563.17 Q1153.31 1562.35 1156.43 1560.69 L1156.43 1566.23 Q1153.28 1567.57 1149.97 1568.27 Q1146.66 1568.97 1143.25 1568.97 Q1134.72 1568.97 1129.73 1564 Q1124.76 1559.04 1124.76 1550.57 Q1124.76 1541.82 1129.47 1536.69 Q1134.21 1531.54 1142.23 1531.54 Q1149.43 1531.54 1153.6 1536.18 Q1157.8 1540.8 1157.8 1548.76 M1151.94 1547.04 Q1151.88 1542.23 1149.24 1539.37 Q1146.63 1536.5 1142.3 1536.5 Q1137.4 1536.5 1134.44 1539.27 Q1131.51 1542.04 1131.06 1547.07 L1151.94 1547.04 Z" fill="#000000" fill-rule="nonzero" fill-opacity="1" /><path clip-path="url(#clip700)" d="M1197.04 1546.53 L1197.04 1568.04 L1191.19 1568.04 L1191.19 1546.72 Q1191.19 1541.66 1189.21 1539.14 Q1187.24 1536.63 1183.29 1536.63 Q1178.55 1536.63 1175.81 1539.65 Q1173.08 1542.68 1173.08 1547.9 L1173.08 1568.04 L1167.19 1568.04 L1167.19 1532.4 L1173.08 1532.4 L1173.08 1537.93 Q1175.18 1534.72 1178.01 1533.13 Q1180.87 1531.54 1184.6 1531.54 Q1190.74 1531.54 1193.89 1535.36 Q1197.04 1539.14 1197.04 1546.53 Z" fill="#000000" fill-rule="nonzero" fill-opacity="1" /><path clip-path="url(#clip700)" d="M1214.52 1522.27 L1214.52 1532.4 L1226.58 1532.4 L1226.58 1536.95 L1214.52 1536.95 L1214.52 1556.3 Q1214.52 1560.66 1215.7 1561.9 Q1216.9 1563.14 1220.56 1563.14 L1226.58 1563.14 L1226.58 1568.04 L1220.56 1568.04 Q1213.79 1568.04 1211.21 1565.53 Q1208.63 1562.98 1208.63 1556.3 L1208.63 1536.95 L1204.33 1536.95 L1204.33 1532.4 L1208.63 1532.4 L1208.63 1522.27 L1214.52 1522.27 Z" fill="#000000" fill-rule="nonzero" fill-opacity="1" /><path clip-path="url(#clip700)" d="M1254.94 1537.87 Q1253.95 1537.3 1252.78 1537.04 Q1251.63 1536.76 1250.23 1536.76 Q1245.26 1536.76 1242.59 1540 Q1239.95 1543.22 1239.95 1549.27 L1239.95 1568.04 L1234.06 1568.04 L1234.06 1532.4 L1239.95 1532.4 L1239.95 1537.93 Q1241.79 1534.69 1244.75 1533.13 Q1247.71 1531.54 1251.95 1531.54 Q1252.55 1531.54 1253.28 1531.63 Q1254.02 1531.7 1254.91 1531.85 L1254.94 1537.87 Z" fill="#000000" fill-rule="nonzero" fill-opacity="1" /><path clip-path="url(#clip700)" d="M1277.28 1550.12 Q1270.19 1550.12 1267.45 1551.75 Q1264.71 1553.37 1264.71 1557.29 Q1264.71 1560.4 1266.75 1562.25 Q1268.82 1564.07 1272.35 1564.07 Q1277.22 1564.07 1280.15 1560.63 Q1283.11 1557.16 1283.11 1551.43 L1283.11 1550.12 L1277.28 1550.12 M1288.96 1547.71 L1288.96 1568.04 L1283.11 1568.04 L1283.11 1562.63 Q1281.1 1565.88 1278.11 1567.44 Q1275.12 1568.97 1270.79 1568.97 Q1265.32 1568.97 1262.07 1565.91 Q1258.85 1562.82 1258.85 1557.67 Q1258.85 1551.65 1262.87 1548.6 Q1266.91 1545.54 1274.9 1545.54 L1283.11 1545.54 L1283.11 1544.97 Q1283.11 1540.93 1280.43 1538.73 Q1277.79 1536.5 1272.99 1536.5 Q1269.93 1536.5 1267.03 1537.23 Q1264.14 1537.97 1261.46 1539.43 L1261.46 1534.02 Q1264.68 1532.78 1267.7 1532.17 Q1270.73 1531.54 1273.59 1531.54 Q1281.33 1531.54 1285.15 1535.55 Q1288.96 1539.56 1288.96 1547.71 Z" fill="#000000" fill-rule="nonzero" fill-opacity="1" /><path clip-path="url(#clip700)" d="M1306.82 1522.27 L1306.82 1532.4 L1318.88 1532.4 L1318.88 1536.95 L1306.82 1536.95 L1306.82 1556.3 Q1306.82 1560.66 1308 1561.9 Q1309.21 1563.14 1312.87 1563.14 L1318.88 1563.14 L1318.88 1568.04 L1312.87 1568.04 Q1306.09 1568.04 1303.51 1565.53 Q1300.93 1562.98 1300.93 1556.3 L1300.93 1536.95 L1296.64 1536.95 L1296.64 1532.4 L1300.93 1532.4 L1300.93 1522.27 L1306.82 1522.27 Z" fill="#000000" fill-rule="nonzero" fill-opacity="1" /><path clip-path="url(#clip700)" d="M1326.59 1532.4 L1332.44 1532.4 L1332.44 1568.04 L1326.59 1568.04 L1326.59 1532.4 M1326.59 1518.52 L1332.44 1518.52 L1332.44 1525.93 L1326.59 1525.93 L1326.59 1518.52 Z" fill="#000000" fill-rule="nonzero" fill-opacity="1" /><path clip-path="url(#clip700)" d="M1358.51 1536.5 Q1353.8 1536.5 1351.06 1540.19 Q1348.32 1543.85 1348.32 1550.25 Q1348.32 1556.65 1351.03 1560.34 Q1353.77 1564 1358.51 1564 Q1363.19 1564 1365.93 1560.31 Q1368.66 1556.62 1368.66 1550.25 Q1368.66 1543.92 1365.93 1540.23 Q1363.19 1536.5 1358.51 1536.5 M1358.51 1531.54 Q1366.15 1531.54 1370.51 1536.5 Q1374.87 1541.47 1374.87 1550.25 Q1374.87 1559 1370.51 1564 Q1366.15 1568.97 1358.51 1568.97 Q1350.84 1568.97 1346.48 1564 Q1342.15 1559 1342.15 1550.25 Q1342.15 1541.47 1346.48 1536.5 Q1350.84 1531.54 1358.51 1531.54 Z" fill="#000000" fill-rule="nonzero" fill-opacity="1" /><path clip-path="url(#clip700)" d="M1414.21 1546.53 L1414.21 1568.04 L1408.35 1568.04 L1408.35 1546.72 Q1408.35 1541.66 1406.38 1539.14 Q1404.41 1536.63 1400.46 1536.63 Q1395.72 1536.63 1392.98 1539.65 Q1390.24 1542.68 1390.24 1547.9 L1390.24 1568.04 L1384.35 1568.04 L1384.35 1532.4 L1390.24 1532.4 L1390.24 1537.93 Q1392.34 1534.72 1395.18 1533.13 Q1398.04 1531.54 1401.76 1531.54 Q1407.91 1531.54 1411.06 1535.36 Q1414.21 1539.14 1414.21 1546.53 Z" fill="#000000" fill-rule="nonzero" fill-opacity="1" /><path clip-path="url(#clip700)" d="M1460.68 1518.58 Q1456.41 1525.9 1454.35 1533.06 Q1452.28 1540.23 1452.28 1547.58 Q1452.28 1554.93 1454.35 1562.16 Q1456.45 1569.35 1460.68 1576.64 L1455.59 1576.64 Q1450.81 1569.16 1448.43 1561.93 Q1446.07 1554.71 1446.07 1547.58 Q1446.07 1540.48 1448.43 1533.29 Q1450.78 1526.09 1455.59 1518.58 L1460.68 1518.58 Z" fill="#000000" fill-rule="nonzero" fill-opacity="1" /><path clip-path="url(#clip700)" d="M1477.71 1562.7 L1477.71 1581.6 L1471.82 1581.6 L1471.82 1532.4 L1477.71 1532.4 L1477.71 1537.81 Q1479.55 1534.62 1482.35 1533.1 Q1485.19 1531.54 1489.1 1531.54 Q1495.6 1531.54 1499.64 1536.69 Q1503.71 1541.85 1503.71 1550.25 Q1503.71 1558.65 1499.64 1563.81 Q1495.6 1568.97 1489.1 1568.97 Q1485.19 1568.97 1482.35 1567.44 Q1479.55 1565.88 1477.71 1562.7 M1497.63 1550.25 Q1497.63 1543.79 1494.96 1540.13 Q1492.32 1536.44 1487.67 1536.44 Q1483.02 1536.44 1480.35 1540.13 Q1477.71 1543.79 1477.71 1550.25 Q1477.71 1556.71 1480.35 1560.4 Q1483.02 1564.07 1487.67 1564.07 Q1492.32 1564.07 1494.96 1560.4 Q1497.63 1556.71 1497.63 1550.25 Z" fill="#000000" fill-rule="nonzero" fill-opacity="1" /><path clip-path="url(#clip700)" d="M1519.08 1562.7 L1519.08 1581.6 L1513.2 1581.6 L1513.2 1532.4 L1519.08 1532.4 L1519.08 1537.81 Q1520.93 1534.62 1523.73 1533.1 Q1526.56 1531.54 1530.48 1531.54 Q1536.97 1531.54 1541.01 1536.69 Q1545.09 1541.85 1545.09 1550.25 Q1545.09 1558.65 1541.01 1563.81 Q1536.97 1568.97 1530.48 1568.97 Q1526.56 1568.97 1523.73 1567.44 Q1520.93 1565.88 1519.08 1562.7 M1539.01 1550.25 Q1539.01 1543.79 1536.34 1540.13 Q1533.69 1536.44 1529.05 1536.44 Q1524.4 1536.44 1521.73 1540.13 Q1519.08 1543.79 1519.08 1550.25 Q1519.08 1556.71 1521.73 1560.4 Q1524.4 1564.07 1529.05 1564.07 Q1533.69 1564.07 1536.34 1560.4 Q1539.01 1556.71 1539.01 1550.25 Z" fill="#000000" fill-rule="nonzero" fill-opacity="1" /><path clip-path="url(#clip700)" d="M1580.39 1550.25 Q1580.39 1543.79 1577.71 1540.13 Q1575.07 1536.44 1570.42 1536.44 Q1565.78 1536.44 1563.1 1540.13 Q1560.46 1543.79 1560.46 1550.25 Q1560.46 1556.71 1563.1 1560.4 Q1565.78 1564.07 1570.42 1564.07 Q1575.07 1564.07 1577.71 1560.4 Q1580.39 1556.71 1580.39 1550.25 M1560.46 1537.81 Q1562.31 1534.62 1565.11 1533.1 Q1567.94 1531.54 1571.86 1531.54 Q1578.35 1531.54 1582.39 1536.69 Q1586.47 1541.85 1586.47 1550.25 Q1586.47 1558.65 1582.39 1563.81 Q1578.35 1568.97 1571.86 1568.97 Q1567.94 1568.97 1565.11 1567.44 Q1562.31 1565.88 1560.46 1562.7 L1560.46 1568.04 L1554.57 1568.04 L1554.57 1518.52 L1560.46 1518.52 L1560.46 1537.81 Z" fill="#000000" fill-rule="nonzero" fill-opacity="1" /><path clip-path="url(#clip700)" d="M1595.25 1518.58 L1600.34 1518.58 Q1605.12 1526.09 1607.47 1533.29 Q1609.86 1540.48 1609.86 1547.58 Q1609.86 1554.71 1607.47 1561.93 Q1605.12 1569.16 1600.34 1576.64 L1595.25 1576.64 Q1599.48 1569.35 1601.55 1562.16 Q1603.65 1554.93 1603.65 1547.58 Q1603.65 1540.23 1601.55 1533.06 Q1599.48 1525.9 1595.25 1518.58 Z" fill="#000000" fill-rule="nonzero" fill-opacity="1" /><polyline clip-path="url(#clip700)" style="stroke:#000000; stroke-linecap:round; stroke-linejoin:round; stroke-width:4; stroke-opacity:1; fill:none" points="219.38,1423.18 219.38,47.2441 "/>
<polyline clip-path="url(#clip700)" style="stroke:#000000; stroke-linecap:round; stroke-linejoin:round; stroke-width:4; stroke-opacity:1; fill:none" points="219.38,1423.18 238.278,1423.18 "/>
<polyline clip-path="url(#clip700)" style="stroke:#000000; stroke-linecap:round; stroke-linejoin:round; stroke-width:4; stroke-opacity:1; fill:none" points="219.38,1030.06 238.278,1030.06 "/>
<polyline clip-path="url(#clip700)" style="stroke:#000000; stroke-linecap:round; stroke-linejoin:round; stroke-width:4; stroke-opacity:1; fill:none" points="219.38,636.931 238.278,636.931 "/>
<polyline clip-path="url(#clip700)" style="stroke:#000000; stroke-linecap:round; stroke-linejoin:round; stroke-width:4; stroke-opacity:1; fill:none" points="219.38,243.806 238.278,243.806 "/>
<path clip-path="url(#clip700)" d="M126.205 1408.98 Q122.593 1408.98 120.765 1412.54 Q118.959 1416.08 118.959 1423.21 Q118.959 1430.32 120.765 1433.89 Q122.593 1437.43 126.205 1437.43 Q129.839 1437.43 131.644 1433.89 Q133.473 1430.32 133.473 1423.21 Q133.473 1416.08 131.644 1412.54 Q129.839 1408.98 126.205 1408.98 M126.205 1405.27 Q132.015 1405.27 135.07 1409.88 Q138.149 1414.46 138.149 1423.21 Q138.149 1431.94 135.07 1436.55 Q132.015 1441.13 126.205 1441.13 Q120.394 1441.13 117.316 1436.55 Q114.26 1431.94 114.26 1423.21 Q114.26 1414.46 117.316 1409.88 Q120.394 1405.27 126.205 1405.27 Z" fill="#000000" fill-rule="nonzero" fill-opacity="1" /><path clip-path="url(#clip700)" d="M146.366 1434.58 L151.251 1434.58 L151.251 1440.46 L146.366 1440.46 L146.366 1434.58 Z" fill="#000000" fill-rule="nonzero" fill-opacity="1" /><path clip-path="url(#clip700)" d="M171.436 1408.98 Q167.825 1408.98 165.996 1412.54 Q164.19 1416.08 164.19 1423.21 Q164.19 1430.32 165.996 1433.89 Q167.825 1437.43 171.436 1437.43 Q175.07 1437.43 176.876 1433.89 Q178.704 1430.32 178.704 1423.21 Q178.704 1416.08 176.876 1412.54 Q175.07 1408.98 171.436 1408.98 M171.436 1405.27 Q177.246 1405.27 180.301 1409.88 Q183.38 1414.46 183.38 1423.21 Q183.38 1431.94 180.301 1436.55 Q177.246 1441.13 171.436 1441.13 Q165.626 1441.13 162.547 1436.55 Q159.491 1431.94 159.491 1423.21 Q159.491 1414.46 162.547 1409.88 Q165.626 1405.27 171.436 1405.27 Z" fill="#000000" fill-rule="nonzero" fill-opacity="1" /><path clip-path="url(#clip700)" d="M127.431 1015.85 Q123.82 1015.85 121.992 1019.42 Q120.186 1022.96 120.186 1030.09 Q120.186 1037.2 121.992 1040.76 Q123.82 1044.3 127.431 1044.3 Q131.066 1044.3 132.871 1040.76 Q134.7 1037.2 134.7 1030.09 Q134.7 1022.96 132.871 1019.42 Q131.066 1015.85 127.431 1015.85 M127.431 1012.15 Q133.242 1012.15 136.297 1016.76 Q139.376 1021.34 139.376 1030.09 Q139.376 1038.82 136.297 1043.42 Q133.242 1048.01 127.431 1048.01 Q121.621 1048.01 118.543 1043.42 Q115.487 1038.82 115.487 1030.09 Q115.487 1021.34 118.543 1016.76 Q121.621 1012.15 127.431 1012.15 Z" fill="#000000" fill-rule="nonzero" fill-opacity="1" /><path clip-path="url(#clip700)" d="M147.593 1041.46 L152.478 1041.46 L152.478 1047.34 L147.593 1047.34 L147.593 1041.46 Z" fill="#000000" fill-rule="nonzero" fill-opacity="1" /><path clip-path="url(#clip700)" d="M163.473 1043.4 L171.112 1043.4 L171.112 1017.03 L162.802 1018.7 L162.802 1014.44 L171.065 1012.78 L175.741 1012.78 L175.741 1043.4 L183.38 1043.4 L183.38 1047.34 L163.473 1047.34 L163.473 1043.4 Z" fill="#000000" fill-rule="nonzero" fill-opacity="1" /><path clip-path="url(#clip700)" d="M127.802 622.73 Q124.191 622.73 122.362 626.294 Q120.556 629.836 120.556 636.966 Q120.556 644.072 122.362 647.637 Q124.191 651.178 127.802 651.178 Q131.436 651.178 133.242 647.637 Q135.07 644.072 135.07 636.966 Q135.07 629.836 133.242 626.294 Q131.436 622.73 127.802 622.73 M127.802 619.026 Q133.612 619.026 136.667 623.632 Q139.746 628.216 139.746 636.966 Q139.746 645.692 136.667 650.299 Q133.612 654.882 127.802 654.882 Q121.992 654.882 118.913 650.299 Q115.857 645.692 115.857 636.966 Q115.857 628.216 118.913 623.632 Q121.992 619.026 127.802 619.026 Z" fill="#000000" fill-rule="nonzero" fill-opacity="1" /><path clip-path="url(#clip700)" d="M147.964 648.331 L152.848 648.331 L152.848 654.211 L147.964 654.211 L147.964 648.331 Z" fill="#000000" fill-rule="nonzero" fill-opacity="1" /><path clip-path="url(#clip700)" d="M167.061 650.276 L183.38 650.276 L183.38 654.211 L161.436 654.211 L161.436 650.276 Q164.098 647.521 168.681 642.891 Q173.288 638.239 174.468 636.896 Q176.714 634.373 177.593 632.637 Q178.496 630.878 178.496 629.188 Q178.496 626.433 176.551 624.697 Q174.63 622.961 171.528 622.961 Q169.329 622.961 166.876 623.725 Q164.445 624.489 161.667 626.04 L161.667 621.318 Q164.491 620.183 166.945 619.605 Q169.399 619.026 171.436 619.026 Q176.806 619.026 180.001 621.711 Q183.195 624.396 183.195 628.887 Q183.195 631.017 182.385 632.938 Q181.598 634.836 179.491 637.429 Q178.913 638.1 175.811 641.317 Q172.709 644.512 167.061 650.276 Z" fill="#000000" fill-rule="nonzero" fill-opacity="1" /><path clip-path="url(#clip700)" d="M126.853 229.605 Q123.242 229.605 121.413 233.17 Q119.607 236.711 119.607 243.841 Q119.607 250.948 121.413 254.512 Q123.242 258.054 126.853 258.054 Q130.487 258.054 132.292 254.512 Q134.121 250.948 134.121 243.841 Q134.121 236.711 132.292 233.17 Q130.487 229.605 126.853 229.605 M126.853 225.901 Q132.663 225.901 135.718 230.508 Q138.797 235.091 138.797 243.841 Q138.797 252.568 135.718 257.174 Q132.663 261.758 126.853 261.758 Q121.043 261.758 117.964 257.174 Q114.908 252.568 114.908 243.841 Q114.908 235.091 117.964 230.508 Q121.043 225.901 126.853 225.901 Z" fill="#000000" fill-rule="nonzero" fill-opacity="1" /><path clip-path="url(#clip700)" d="M147.015 255.207 L151.899 255.207 L151.899 261.086 L147.015 261.086 L147.015 255.207 Z" fill="#000000" fill-rule="nonzero" fill-opacity="1" /><path clip-path="url(#clip700)" d="M176.251 242.452 Q179.607 243.17 181.482 245.438 Q183.38 247.707 183.38 251.04 Q183.38 256.156 179.862 258.957 Q176.343 261.758 169.862 261.758 Q167.686 261.758 165.371 261.318 Q163.079 260.901 160.626 260.045 L160.626 255.531 Q162.57 256.665 164.885 257.244 Q167.2 257.822 169.723 257.822 Q174.121 257.822 176.413 256.086 Q178.727 254.35 178.727 251.04 Q178.727 247.985 176.575 246.272 Q174.445 244.536 170.626 244.536 L166.598 244.536 L166.598 240.693 L170.811 240.693 Q174.26 240.693 176.089 239.327 Q177.917 237.938 177.917 235.346 Q177.917 232.684 176.019 231.272 Q174.144 229.837 170.626 229.837 Q168.704 229.837 166.505 230.253 Q164.306 230.67 161.667 231.549 L161.667 227.383 Q164.329 226.642 166.644 226.272 Q168.982 225.901 171.042 225.901 Q176.366 225.901 179.468 228.332 Q182.57 230.739 182.57 234.86 Q182.57 237.73 180.926 239.721 Q179.283 241.688 176.251 242.452 Z" fill="#000000" fill-rule="nonzero" fill-opacity="1" /><path clip-path="url(#clip700)" d="M21.7677 896.901 L39.6235 896.901 L39.6235 888.816 Q39.6235 884.329 37.3 881.878 Q34.9765 879.427 30.6797 879.427 Q26.4147 879.427 24.0912 881.878 Q21.7677 884.329 21.7677 888.816 L21.7677 896.901 M16.4842 903.33 L16.4842 888.816 Q16.4842 880.828 20.1126 876.753 Q23.7092 872.648 30.6797 872.648 Q37.7138 872.648 41.3104 876.753 Q44.907 880.828 44.907 888.816 L44.907 896.901 L64.0042 896.901 L64.0042 903.33 L16.4842 903.33 Z" fill="#000000" fill-rule="nonzero" fill-opacity="1" /><path clip-path="url(#clip700)" d="M33.8307 844.766 Q33.2578 845.752 33.0032 846.93 Q32.7167 848.076 32.7167 849.476 Q32.7167 854.442 35.9632 857.115 Q39.1779 859.757 45.2253 859.757 L64.0042 859.757 L64.0042 865.645 L28.3562 865.645 L28.3562 859.757 L33.8944 859.757 Q30.6479 857.911 29.0883 854.951 Q27.4968 851.991 27.4968 847.758 Q27.4968 847.153 27.5923 846.421 Q27.656 845.689 27.8151 844.798 L33.8307 844.766 Z" fill="#000000" fill-rule="nonzero" fill-opacity="1" /><path clip-path="url(#clip700)" d="M32.4621 826.242 Q32.4621 830.952 36.1542 833.689 Q39.8145 836.427 46.212 836.427 Q52.6095 836.427 56.3017 833.721 Q59.9619 830.984 59.9619 826.242 Q59.9619 821.563 56.2698 818.826 Q52.5777 816.088 46.212 816.088 Q39.8781 816.088 36.186 818.826 Q32.4621 821.563 32.4621 826.242 M27.4968 826.242 Q27.4968 818.603 32.4621 814.242 Q37.4273 809.882 46.212 809.882 Q54.9649 809.882 59.9619 814.242 Q64.9272 818.603 64.9272 826.242 Q64.9272 833.912 59.9619 838.273 Q54.9649 842.601 46.212 842.601 Q37.4273 842.601 32.4621 838.273 Q27.4968 833.912 27.4968 826.242 Z" fill="#000000" fill-rule="nonzero" fill-opacity="1" /><path clip-path="url(#clip700)" d="M46.212 774.584 Q39.7508 774.584 36.0905 777.257 Q32.3984 779.899 32.3984 784.546 Q32.3984 789.193 36.0905 791.867 Q39.7508 794.509 46.212 794.509 Q52.6732 794.509 56.3653 791.867 Q60.0256 789.193 60.0256 784.546 Q60.0256 779.899 56.3653 777.257 Q52.6732 774.584 46.212 774.584 M33.7671 794.509 Q30.5842 792.662 29.0564 789.862 Q27.4968 787.029 27.4968 783.114 Q27.4968 776.621 32.6531 772.579 Q37.8093 768.505 46.212 768.505 Q54.6147 768.505 59.771 772.579 Q64.9272 776.621 64.9272 783.114 Q64.9272 787.029 63.3994 789.862 Q61.8398 792.662 58.657 794.509 L64.0042 794.509 L64.0042 800.397 L14.479 800.397 L14.479 794.509 L33.7671 794.509 Z" fill="#000000" fill-rule="nonzero" fill-opacity="1" /><path clip-path="url(#clip700)" d="M46.0847 742.596 Q46.0847 749.694 47.7079 752.431 Q49.3312 755.168 53.2461 755.168 Q56.3653 755.168 58.2114 753.131 Q60.0256 751.063 60.0256 747.53 Q60.0256 742.66 56.5881 739.732 Q53.1188 736.772 47.3897 736.772 L46.0847 736.772 L46.0847 742.596 M43.6657 730.915 L64.0042 730.915 L64.0042 736.772 L58.5933 736.772 Q61.8398 738.777 63.3994 741.769 Q64.9272 744.761 64.9272 749.089 Q64.9272 754.564 61.8716 757.81 Q58.7843 761.025 53.6281 761.025 Q47.6125 761.025 44.5569 757.015 Q41.5014 752.972 41.5014 744.983 L41.5014 736.772 L40.9285 736.772 Q36.8862 736.772 34.6901 739.445 Q32.4621 742.087 32.4621 746.893 Q32.4621 749.949 33.1941 752.845 Q33.9262 755.741 35.3903 758.415 L29.9795 758.415 Q28.7381 755.2 28.1334 752.177 Q27.4968 749.153 27.4968 746.288 Q27.4968 738.554 31.5072 734.735 Q35.5176 730.915 43.6657 730.915 Z" fill="#000000" fill-rule="nonzero" fill-opacity="1" /><path clip-path="url(#clip700)" d="M46.212 693.262 Q39.7508 693.262 36.0905 695.936 Q32.3984 698.577 32.3984 703.224 Q32.3984 707.871 36.0905 710.545 Q39.7508 713.187 46.212 713.187 Q52.6732 713.187 56.3653 710.545 Q60.0256 707.871 60.0256 703.224 Q60.0256 698.577 56.3653 695.936 Q52.6732 693.262 46.212 693.262 M33.7671 713.187 Q30.5842 711.341 29.0564 708.54 Q27.4968 705.707 27.4968 701.792 Q27.4968 695.299 32.6531 691.257 Q37.8093 687.183 46.212 687.183 Q54.6147 687.183 59.771 691.257 Q64.9272 695.299 64.9272 701.792 Q64.9272 705.707 63.3994 708.54 Q61.8398 711.341 58.657 713.187 L64.0042 713.187 L64.0042 719.075 L14.479 719.075 L14.479 713.187 L33.7671 713.187 Z" fill="#000000" fill-rule="nonzero" fill-opacity="1" /><path clip-path="url(#clip700)" d="M28.3562 677.475 L28.3562 671.619 L64.0042 671.619 L64.0042 677.475 L28.3562 677.475 M14.479 677.475 L14.479 671.619 L21.895 671.619 L21.895 677.475 L14.479 677.475 Z" fill="#000000" fill-rule="nonzero" fill-opacity="1" /><path clip-path="url(#clip700)" d="M14.479 659.365 L14.479 653.508 L64.0042 653.508 L64.0042 659.365 L14.479 659.365 Z" fill="#000000" fill-rule="nonzero" fill-opacity="1" /><path clip-path="url(#clip700)" d="M28.3562 641.254 L28.3562 635.398 L64.0042 635.398 L64.0042 641.254 L28.3562 641.254 M14.479 641.254 L14.479 635.398 L21.895 635.398 L21.895 641.254 L14.479 641.254 Z" fill="#000000" fill-rule="nonzero" fill-opacity="1" /><path clip-path="url(#clip700)" d="M18.2347 617.351 L28.3562 617.351 L28.3562 605.288 L32.9077 605.288 L32.9077 617.351 L52.2594 617.351 Q56.6199 617.351 57.8613 616.173 Q59.1026 614.964 59.1026 611.303 L59.1026 605.288 L64.0042 605.288 L64.0042 611.303 Q64.0042 618.083 61.4897 620.661 Q58.9434 623.239 52.2594 623.239 L32.9077 623.239 L32.9077 627.536 L28.3562 627.536 L28.3562 623.239 L18.2347 623.239 L18.2347 617.351 Z" fill="#000000" fill-rule="nonzero" fill-opacity="1" /><path clip-path="url(#clip700)" d="M67.3143 582.753 Q73.68 585.236 75.6216 587.591 Q77.5631 589.947 77.5631 593.893 L77.5631 598.572 L72.6615 598.572 L72.6615 595.135 Q72.6615 592.716 71.5157 591.379 Q70.3699 590.042 66.1048 588.419 L63.4312 587.368 L28.3562 601.787 L28.3562 595.58 L56.238 584.44 L28.3562 573.3 L28.3562 567.094 L67.3143 582.753 Z" fill="#000000" fill-rule="nonzero" fill-opacity="1" /><path clip-path="url(#clip702)" d="M993.5 833.493 L993.5 1423.18 L1135.59 1423.18 L1135.59 833.493 L993.5 833.493 L993.5 833.493  Z" fill="#009af9" fill-rule="evenodd" fill-opacity="1"/>
<polyline clip-path="url(#clip702)" style="stroke:#000000; stroke-linecap:round; stroke-linejoin:round; stroke-width:4; stroke-opacity:1; fill:none" points="993.5,833.493 993.5,1423.18 1135.59,1423.18 1135.59,833.493 993.5,833.493 "/>
<path clip-path="url(#clip702)" d="M1135.59 47.2441 L1135.59 1423.18 L1277.68 1423.18 L1277.68 47.2441 L1135.59 47.2441 L1135.59 47.2441  Z" fill="#009af9" fill-rule="evenodd" fill-opacity="1"/>
<polyline clip-path="url(#clip702)" style="stroke:#000000; stroke-linecap:round; stroke-linejoin:round; stroke-width:4; stroke-opacity:1; fill:none" points="1135.59,47.2441 1135.59,1423.18 1277.68,1423.18 1277.68,47.2441 1135.59,47.2441 "/>
<path clip-path="url(#clip702)" d="M1277.68 1030.06 L1277.68 1423.18 L1419.77 1423.18 L1419.77 1030.06 L1277.68 1030.06 L1277.68 1030.06  Z" fill="#009af9" fill-rule="evenodd" fill-opacity="1"/>
<polyline clip-path="url(#clip702)" style="stroke:#000000; stroke-linecap:round; stroke-linejoin:round; stroke-width:4; stroke-opacity:1; fill:none" points="1277.68,1030.06 1277.68,1423.18 1419.77,1423.18 1419.77,1030.06 1277.68,1030.06 "/>
<path clip-path="url(#clip702)" d="M1419.77 1030.06 L1419.77 1423.18 L1561.86 1423.18 L1561.86 1030.06 L1419.77 1030.06 L1419.77 1030.06  Z" fill="#009af9" fill-rule="evenodd" fill-opacity="1"/>
<polyline clip-path="url(#clip702)" style="stroke:#000000; stroke-linecap:round; stroke-linejoin:round; stroke-width:4; stroke-opacity:1; fill:none" points="1419.77,1030.06 1419.77,1423.18 1561.86,1423.18 1561.86,1030.06 1419.77,1030.06 "/>
<path clip-path="url(#clip702)" d="M1561.86 440.369 L1561.86 1423.18 L1703.95 1423.18 L1703.95 440.369 L1561.86 440.369 L1561.86 440.369  Z" fill="#009af9" fill-rule="evenodd" fill-opacity="1"/>
<polyline clip-path="url(#clip702)" style="stroke:#000000; stroke-linecap:round; stroke-linejoin:round; stroke-width:4; stroke-opacity:1; fill:none" points="1561.86,440.369 1561.86,1423.18 1703.95,1423.18 1703.95,440.369 1561.86,440.369 "/>
<path clip-path="url(#clip702)" d="M1703.95 1226.62 L1703.95 1423.18 L1846.04 1423.18 L1846.04 1226.62 L1703.95 1226.62 L1703.95 1226.62  Z" fill="#009af9" fill-rule="evenodd" fill-opacity="1"/>
<polyline clip-path="url(#clip702)" style="stroke:#000000; stroke-linecap:round; stroke-linejoin:round; stroke-width:4; stroke-opacity:1; fill:none" points="1703.95,1226.62 1703.95,1423.18 1846.04,1423.18 1846.04,1226.62 1703.95,1226.62 "/>
<circle clip-path="url(#clip702)" style="fill:#009af9; stroke:none; fill-opacity:0" cx="1064.54" cy="833.493" r="2"/>
<circle clip-path="url(#clip702)" style="fill:#009af9; stroke:none; fill-opacity:0" cx="1206.64" cy="47.2441" r="2"/>
<circle clip-path="url(#clip702)" style="fill:#009af9; stroke:none; fill-opacity:0" cx="1348.73" cy="1030.06" r="2"/>
<circle clip-path="url(#clip702)" style="fill:#009af9; stroke:none; fill-opacity:0" cx="1490.82" cy="1030.06" r="2"/>
<circle clip-path="url(#clip702)" style="fill:#009af9; stroke:none; fill-opacity:0" cx="1632.91" cy="440.369" r="2"/>
<circle clip-path="url(#clip702)" style="fill:#009af9; stroke:none; fill-opacity:0" cx="1775" cy="1226.62" r="2"/>
<polyline clip-path="url(#clip702)" style="stroke:#e26f46; stroke-linecap:round; stroke-linejoin:round; stroke-width:4; stroke-opacity:1; fill:none" points="1044.48,1422.52 1050.92,1422.42 1057.36,1422.31 1095.09,1421.25 1132.82,1419.11 1150.37,1417.53 1167.92,1415.42 1191.44,1411.51 1214.97,1405.96 1224.69,1403.08 1234.41,1399.79 1244.13,1396.05 1253.85,1391.83 1262.88,1387.42 1271.92,1382.5 1280.96,1377.04 1290,1371.01 1301.34,1362.55 1312.69,1353.04 1324.03,1342.41 1335.38,1330.6 1345.56,1318.94 1355.73,1306.25 1365.91,1292.49 1376.09,1277.66 1387.74,1259.33 1399.39,1239.6 1411.03,1218.47 1422.68,1196 1431.39,1178.39 1440.1,1160.12 1448.81,1141.25 1457.51,1121.83 1479.79,1070.22 1502.06,1016.99 1522.39,968.474 1542.72,921.589 1548.51,908.768 1554.29,896.246 1560.08,884.061 1565.86,872.249 1571.65,860.848 1577.43,849.892 1583.22,839.417 1589,829.457 1598.17,814.801 1607.34,801.643 1616.51,790.095 1625.68,780.256 1631.38,775.044 1637.08,770.542 1642.78,766.766 1648.47,763.729 1654.17,761.442 1659.87,759.912 1665.56,759.144 1671.26,759.142 1679.99,760.621 1688.71,763.882 1697.44,768.9 1706.16,775.634 1712.31,781.383 1718.47,787.936 1724.62,795.266 1730.77,803.346 1736.92,812.143 1743.07,821.625 1749.22,831.755 1755.37,842.496 1764.57,859.6 1773.76,877.84 1782.95,897.072 1792.15,917.147 1813.05,965.151 1833.96,1014.99 1854.67,1064.54 1875.38,1112.83 1886.77,1138.42 1898.16,1163.1 1909.55,1186.74 1920.94,1209.21 1929.64,1225.55 1938.35,1241.12 1947.05,1255.92 1955.75,1269.93 1966.73,1286.47 1977.71,1301.75 1988.69,1315.78 1999.67,1328.59 2009.82,1339.4 2019.98,1349.25 2030.13,1358.17 2040.29,1366.23 2050.76,1373.68 2061.23,1380.33 2071.71,1386.23 2082.18,1391.44 2092.79,1396.08 2103.41,1400.13 2114.03,1403.66 2124.64,1406.71 2146.81,1411.78 2168.98,1415.43 2186.45,1417.53 2203.91,1419.1 2243.68,1421.32 2283.45,1422.38 2287.92,1422.45 2292.38,1422.52 "/>
<polyline clip-path="url(#clip702)" style="stroke:#000000; stroke-linecap:round; stroke-linejoin:round; stroke-width:4; stroke-opacity:1; fill:none" points="279.759,1422.72 288.961,1422.65 298.163,1422.57 352.059,1421.83 405.954,1420.33 431.027,1419.23 456.099,1417.75 489.705,1415.01 523.311,1411.13 537.196,1409.11 551.08,1406.81 564.965,1404.19 578.85,1401.23 591.761,1398.14 604.672,1394.7 617.583,1390.89 630.495,1386.66 646.703,1380.74 662.911,1374.08 679.119,1366.64 695.327,1358.37 709.865,1350.21 724.404,1341.33 738.943,1331.7 753.482,1321.31 770.123,1308.49 786.765,1294.67 803.406,1279.88 820.048,1264.16 832.487,1251.83 844.927,1239.04 857.366,1225.83 869.806,1212.24 901.627,1176.11 933.447,1138.84 962.49,1104.89 991.533,1072.07 999.797,1063.09 1008.06,1054.33 1016.32,1045.8 1024.59,1037.53 1032.85,1029.55 1041.12,1021.88 1049.38,1014.55 1057.64,1007.57 1070.74,997.315 1083.85,988.104 1096.95,980.02 1110.05,973.133 1118.19,969.485 1126.33,966.333 1134.46,963.69 1142.6,961.564 1150.74,959.963 1158.88,958.892 1167.02,958.355 1175.16,958.353 1187.62,959.388 1200.09,961.672 1212.55,965.184 1225.02,969.898 1233.81,973.922 1242.59,978.509 1251.38,983.64 1260.17,989.296 1268.95,995.454 1277.74,1002.09 1286.53,1009.18 1295.32,1016.7 1308.45,1028.67 1321.58,1041.44 1334.72,1054.9 1347.85,1068.96 1377.72,1102.56 1407.59,1137.45 1437.17,1172.13 1466.76,1205.94 1483.03,1223.85 1499.3,1241.13 1515.57,1257.67 1531.85,1273.4 1544.28,1284.84 1556.71,1295.74 1569.14,1306.1 1581.57,1315.9 1597.25,1327.48 1612.94,1338.18 1628.62,1348 1644.31,1356.97 1658.81,1364.53 1673.32,1371.43 1687.83,1377.67 1702.34,1383.31 1717.3,1388.53 1732.26,1393.19 1747.22,1397.31 1762.18,1400.96 1777.35,1404.21 1792.51,1407.05 1807.68,1409.52 1822.85,1411.65 1854.52,1415.2 1886.19,1417.75 1911.14,1419.22 1936.08,1420.33 1992.9,1421.88 2049.72,1422.62 2056.09,1422.67 2062.47,1422.72 "/>
<path clip-path="url(#clip700)" d="M1858.19 248.629 L2281.64 248.629 L2281.64 93.1086 L1858.19 93.1086  Z" fill="#ffffff" fill-rule="evenodd" fill-opacity="1"/>
<polyline clip-path="url(#clip700)" style="stroke:#000000; stroke-linecap:round; stroke-linejoin:round; stroke-width:4; stroke-opacity:1; fill:none" points="1858.19,248.629 2281.64,248.629 2281.64,93.1086 1858.19,93.1086 1858.19,248.629 "/>
<polyline clip-path="url(#clip700)" style="stroke:#e26f46; stroke-linecap:round; stroke-linejoin:round; stroke-width:4; stroke-opacity:1; fill:none" points="1881.9,144.949 2024.12,144.949 "/>
<path clip-path="url(#clip700)" d="M2047.82 127.669 L2077.06 127.669 L2077.06 131.604 L2064.79 131.604 L2064.79 162.229 L2060.09 162.229 L2060.09 131.604 L2047.82 131.604 L2047.82 127.669 Z" fill="#000000" fill-rule="nonzero" fill-opacity="1" /><path clip-path="url(#clip700)" d="M2083.38 139.289 Q2079.95 139.289 2077.96 141.974 Q2075.97 144.636 2075.97 149.289 Q2075.97 153.942 2077.94 156.627 Q2079.93 159.289 2083.38 159.289 Q2086.78 159.289 2088.77 156.604 Q2090.76 153.918 2090.76 149.289 Q2090.76 144.682 2088.77 141.997 Q2086.78 139.289 2083.38 139.289 M2083.38 135.678 Q2088.94 135.678 2092.11 139.289 Q2095.28 142.9 2095.28 149.289 Q2095.28 155.655 2092.11 159.289 Q2088.94 162.9 2083.38 162.9 Q2077.8 162.9 2074.63 159.289 Q2071.48 155.655 2071.48 149.289 Q2071.48 142.9 2074.63 139.289 Q2077.8 135.678 2083.38 135.678 Z" fill="#000000" fill-rule="nonzero" fill-opacity="1" /><path clip-path="url(#clip700)" d="M2122.43 136.303 L2113.06 148.919 L2122.92 162.229 L2117.89 162.229 L2110.35 152.043 L2102.8 162.229 L2097.78 162.229 L2107.85 148.664 L2098.63 136.303 L2103.66 136.303 L2110.53 145.539 L2117.41 136.303 L2122.43 136.303 Z" fill="#000000" fill-rule="nonzero" fill-opacity="1" /><path clip-path="url(#clip700)" d="M2128.94 136.303 L2133.19 136.303 L2133.19 162.229 L2128.94 162.229 L2128.94 136.303 M2128.94 126.21 L2133.19 126.21 L2133.19 131.604 L2128.94 131.604 L2128.94 126.21 Z" fill="#000000" fill-rule="nonzero" fill-opacity="1" /><path clip-path="url(#clip700)" d="M2160.76 137.298 L2160.76 141.28 Q2158.96 140.284 2157.13 139.798 Q2155.32 139.289 2153.47 139.289 Q2149.33 139.289 2147.04 141.928 Q2144.75 144.544 2144.75 149.289 Q2144.75 154.034 2147.04 156.673 Q2149.33 159.289 2153.47 159.289 Q2155.32 159.289 2157.13 158.803 Q2158.96 158.293 2160.76 157.298 L2160.76 161.233 Q2158.98 162.067 2157.06 162.483 Q2155.16 162.9 2153.01 162.9 Q2147.15 162.9 2143.7 159.219 Q2140.25 155.539 2140.25 149.289 Q2140.25 142.946 2143.73 139.312 Q2147.22 135.678 2153.29 135.678 Q2155.25 135.678 2157.13 136.095 Q2159 136.488 2160.76 137.298 Z" fill="#000000" fill-rule="nonzero" fill-opacity="1" /><polyline clip-path="url(#clip700)" style="stroke:#000000; stroke-linecap:round; stroke-linejoin:round; stroke-width:4; stroke-opacity:1; fill:none" points="1881.9,196.789 2024.12,196.789 "/>
<path clip-path="url(#clip700)" d="M2047.82 179.509 L2054.12 179.509 L2069.44 208.421 L2069.44 179.509 L2073.98 179.509 L2073.98 214.069 L2067.69 214.069 L2052.36 185.157 L2052.36 214.069 L2047.82 214.069 L2047.82 179.509 Z" fill="#000000" fill-rule="nonzero" fill-opacity="1" /><path clip-path="url(#clip700)" d="M2093.15 191.129 Q2089.72 191.129 2087.73 193.814 Q2085.74 196.476 2085.74 201.129 Q2085.74 205.782 2087.71 208.467 Q2089.7 211.129 2093.15 211.129 Q2096.55 211.129 2098.54 208.444 Q2100.53 205.758 2100.53 201.129 Q2100.53 196.522 2098.54 193.837 Q2096.55 191.129 2093.15 191.129 M2093.15 187.518 Q2098.7 187.518 2101.88 191.129 Q2105.05 194.74 2105.05 201.129 Q2105.05 207.495 2101.88 211.129 Q2098.7 214.74 2093.15 214.74 Q2087.57 214.74 2084.4 211.129 Q2081.25 207.495 2081.25 201.129 Q2081.25 194.74 2084.4 191.129 Q2087.57 187.518 2093.15 187.518 Z" fill="#000000" fill-rule="nonzero" fill-opacity="1" /><path clip-path="url(#clip700)" d="M2149.35 200.041 L2149.35 202.124 L2129.77 202.124 Q2130.05 206.522 2132.41 208.837 Q2134.79 211.129 2139.03 211.129 Q2141.48 211.129 2143.77 210.527 Q2146.09 209.925 2148.36 208.721 L2148.36 212.749 Q2146.06 213.721 2143.66 214.231 Q2141.25 214.74 2138.77 214.74 Q2132.57 214.74 2128.94 211.129 Q2125.32 207.518 2125.32 201.36 Q2125.32 194.995 2128.75 191.268 Q2132.2 187.518 2138.03 187.518 Q2143.26 187.518 2146.3 190.897 Q2149.35 194.254 2149.35 200.041 M2145.09 198.791 Q2145.05 195.296 2143.13 193.212 Q2141.23 191.129 2138.08 191.129 Q2134.51 191.129 2132.36 193.143 Q2130.23 195.157 2129.91 198.814 L2145.09 198.791 Z" fill="#000000" fill-rule="nonzero" fill-opacity="1" /><path clip-path="url(#clip700)" d="M2169.47 178.05 L2169.47 181.592 L2165.39 181.592 Q2163.1 181.592 2162.2 182.518 Q2161.32 183.444 2161.32 185.851 L2161.32 188.143 L2168.33 188.143 L2168.33 191.453 L2161.32 191.453 L2161.32 214.069 L2157.04 214.069 L2157.04 191.453 L2152.96 191.453 L2152.96 188.143 L2157.04 188.143 L2157.04 186.337 Q2157.04 182.009 2159.05 180.041 Q2161.06 178.05 2165.44 178.05 L2169.47 178.05 Z" fill="#000000" fill-rule="nonzero" fill-opacity="1" /><path clip-path="url(#clip700)" d="M2186.16 178.05 L2186.16 181.592 L2182.08 181.592 Q2179.79 181.592 2178.89 182.518 Q2178.01 183.444 2178.01 185.851 L2178.01 188.143 L2185.02 188.143 L2185.02 191.453 L2178.01 191.453 L2178.01 214.069 L2173.73 214.069 L2173.73 191.453 L2169.65 191.453 L2169.65 188.143 L2173.73 188.143 L2173.73 186.337 Q2173.73 182.009 2175.74 180.041 Q2177.75 178.05 2182.13 178.05 L2186.16 178.05 Z" fill="#000000" fill-rule="nonzero" fill-opacity="1" /><path clip-path="url(#clip700)" d="M2211.9 200.041 L2211.9 202.124 L2192.31 202.124 Q2192.59 206.522 2194.95 208.837 Q2197.34 211.129 2201.57 211.129 Q2204.03 211.129 2206.32 210.527 Q2208.63 209.925 2210.9 208.721 L2210.9 212.749 Q2208.61 213.721 2206.2 214.231 Q2203.8 214.74 2201.32 214.74 Q2195.12 214.74 2191.48 211.129 Q2187.87 207.518 2187.87 201.36 Q2187.87 194.995 2191.3 191.268 Q2194.75 187.518 2200.58 187.518 Q2205.81 187.518 2208.84 190.897 Q2211.9 194.254 2211.9 200.041 M2207.64 198.791 Q2207.59 195.296 2205.67 193.212 Q2203.77 191.129 2200.62 191.129 Q2197.06 191.129 2194.91 193.143 Q2192.78 195.157 2192.45 198.814 L2207.64 198.791 Z" fill="#000000" fill-rule="nonzero" fill-opacity="1" /><path clip-path="url(#clip700)" d="M2237.55 189.138 L2237.55 193.12 Q2235.74 192.124 2233.91 191.638 Q2232.11 191.129 2230.25 191.129 Q2226.11 191.129 2223.82 193.768 Q2221.53 196.384 2221.53 201.129 Q2221.53 205.874 2223.82 208.513 Q2226.11 211.129 2230.25 211.129 Q2232.11 211.129 2233.91 210.643 Q2235.74 210.133 2237.55 209.138 L2237.55 213.073 Q2235.76 213.907 2233.84 214.323 Q2231.94 214.74 2229.79 214.74 Q2223.93 214.74 2220.49 211.059 Q2217.04 207.379 2217.04 201.129 Q2217.04 194.786 2220.51 191.152 Q2224 187.518 2230.07 187.518 Q2232.04 187.518 2233.91 187.935 Q2235.79 188.328 2237.55 189.138 Z" fill="#000000" fill-rule="nonzero" fill-opacity="1" /><path clip-path="url(#clip700)" d="M2249.17 180.782 L2249.17 188.143 L2257.94 188.143 L2257.94 191.453 L2249.17 191.453 L2249.17 205.527 Q2249.17 208.698 2250.02 209.601 Q2250.9 210.504 2253.56 210.504 L2257.94 210.504 L2257.94 214.069 L2253.56 214.069 Q2248.63 214.069 2246.76 212.24 Q2244.88 210.388 2244.88 205.527 L2244.88 191.453 L2241.76 191.453 L2241.76 188.143 L2244.88 188.143 L2244.88 180.782 L2249.17 180.782 Z" fill="#000000" fill-rule="nonzero" fill-opacity="1" /></svg>
