<?xml version="1.0" encoding="utf-8"?>
<svg xmlns="http://www.w3.org/2000/svg" xmlns:xlink="http://www.w3.org/1999/xlink" width="600" height="400" viewBox="0 0 2400 1600">
<defs>
  <clipPath id="clip350">
    <rect x="0" y="0" width="2400" height="1600"/>
  </clipPath>
</defs>
<path clip-path="url(#clip350)" d="M0 1600 L2400 1600 L2400 0 L0 0  Z" fill="#ffffff" fill-rule="evenodd" fill-opacity="1"/>
<defs>
  <clipPath id="clip351">
    <rect x="480" y="0" width="1681" height="1600"/>
  </clipPath>
</defs>
<path clip-path="url(#clip350)" d="M219.38 1423.18 L2352.76 1423.18 L2352.76 47.2441 L219.38 47.2441  Z" fill="#ffffff" fill-rule="evenodd" fill-opacity="1"/>
<defs>
  <clipPath id="clip352">
    <rect x="219" y="47" width="2134" height="1377"/>
  </clipPath>
</defs>
<polyline clip-path="url(#clip352)" style="stroke:#000000; stroke-linecap:round; stroke-linejoin:round; stroke-width:2; stroke-opacity:0.1; fill:none" points="232.524,1423.18 232.524,47.2441 "/>
<polyline clip-path="url(#clip352)" style="stroke:#000000; stroke-linecap:round; stroke-linejoin:round; stroke-width:2; stroke-opacity:0.1; fill:none" points="727.798,1423.18 727.798,47.2441 "/>
<polyline clip-path="url(#clip352)" style="stroke:#000000; stroke-linecap:round; stroke-linejoin:round; stroke-width:2; stroke-opacity:0.1; fill:none" points="1223.07,1423.18 1223.07,47.2441 "/>
<polyline clip-path="url(#clip352)" style="stroke:#000000; stroke-linecap:round; stroke-linejoin:round; stroke-width:2; stroke-opacity:0.1; fill:none" points="1718.34,1423.18 1718.34,47.2441 "/>
<polyline clip-path="url(#clip352)" style="stroke:#000000; stroke-linecap:round; stroke-linejoin:round; stroke-width:2; stroke-opacity:0.1; fill:none" points="2213.62,1423.18 2213.62,47.2441 "/>
<polyline clip-path="url(#clip352)" style="stroke:#000000; stroke-linecap:round; stroke-linejoin:round; stroke-width:2; stroke-opacity:0.1; fill:none" points="219.38,1423.18 2352.76,1423.18 "/>
<polyline clip-path="url(#clip352)" style="stroke:#000000; stroke-linecap:round; stroke-linejoin:round; stroke-width:2; stroke-opacity:0.1; fill:none" points="219.38,1030.06 2352.76,1030.06 "/>
<polyline clip-path="url(#clip352)" style="stroke:#000000; stroke-linecap:round; stroke-linejoin:round; stroke-width:2; stroke-opacity:0.1; fill:none" points="219.38,636.931 2352.76,636.931 "/>
<polyline clip-path="url(#clip352)" style="stroke:#000000; stroke-linecap:round; stroke-linejoin:round; stroke-width:2; stroke-opacity:0.1; fill:none" points="219.38,243.806 2352.76,243.806 "/>
<polyline clip-path="url(#clip350)" style="stroke:#000000; stroke-linecap:round; stroke-linejoin:round; stroke-width:4; stroke-opacity:1; fill:none" points="219.38,1423.18 2352.76,1423.18 "/>
<polyline clip-path="url(#clip350)" style="stroke:#000000; stroke-linecap:round; stroke-linejoin:round; stroke-width:4; stroke-opacity:1; fill:none" points="232.524,1423.18 232.524,1404.28 "/>
<polyline clip-path="url(#clip350)" style="stroke:#000000; stroke-linecap:round; stroke-linejoin:round; stroke-width:4; stroke-opacity:1; fill:none" points="727.798,1423.18 727.798,1404.28 "/>
<polyline clip-path="url(#clip350)" style="stroke:#000000; stroke-linecap:round; stroke-linejoin:round; stroke-width:4; stroke-opacity:1; fill:none" points="1223.07,1423.18 1223.07,1404.28 "/>
<polyline clip-path="url(#clip350)" style="stroke:#000000; stroke-linecap:round; stroke-linejoin:round; stroke-width:4; stroke-opacity:1; fill:none" points="1718.34,1423.18 1718.34,1404.28 "/>
<polyline clip-path="url(#clip350)" style="stroke:#000000; stroke-linecap:round; stroke-linejoin:round; stroke-width:4; stroke-opacity:1; fill:none" points="2213.62,1423.18 2213.62,1404.28 "/>
<path clip-path="url(#clip350)" d="M186.587 1468.75 L216.262 1468.75 L216.262 1472.69 L186.587 1472.69 L186.587 1468.75 Z" fill="#000000" fill-rule="nonzero" fill-opacity="1" /><path clip-path="url(#clip350)" d="M227.165 1481.64 L234.804 1481.64 L234.804 1455.28 L226.494 1456.95 L226.494 1452.69 L234.758 1451.02 L239.434 1451.02 L239.434 1481.64 L247.072 1481.64 L247.072 1485.58 L227.165 1485.58 L227.165 1481.64 Z" fill="#000000" fill-rule="nonzero" fill-opacity="1" /><path clip-path="url(#clip350)" d="M266.517 1454.1 Q262.906 1454.1 261.077 1457.66 Q259.271 1461.2 259.271 1468.33 Q259.271 1475.44 261.077 1479.01 Q262.906 1482.55 266.517 1482.55 Q270.151 1482.55 271.957 1479.01 Q273.785 1475.44 273.785 1468.33 Q273.785 1461.2 271.957 1457.66 Q270.151 1454.1 266.517 1454.1 M266.517 1450.39 Q272.327 1450.39 275.382 1455 Q278.461 1459.58 278.461 1468.33 Q278.461 1477.06 275.382 1481.67 Q272.327 1486.25 266.517 1486.25 Q260.707 1486.25 257.628 1481.67 Q254.572 1477.06 254.572 1468.33 Q254.572 1459.58 257.628 1455 Q260.707 1450.39 266.517 1450.39 Z" fill="#000000" fill-rule="nonzero" fill-opacity="1" /><path clip-path="url(#clip350)" d="M727.798 1454.1 Q724.187 1454.1 722.358 1457.66 Q720.552 1461.2 720.552 1468.33 Q720.552 1475.44 722.358 1479.01 Q724.187 1482.55 727.798 1482.55 Q731.432 1482.55 733.237 1479.01 Q735.066 1475.44 735.066 1468.33 Q735.066 1461.2 733.237 1457.66 Q731.432 1454.1 727.798 1454.1 M727.798 1450.39 Q733.608 1450.39 736.663 1455 Q739.742 1459.58 739.742 1468.33 Q739.742 1477.06 736.663 1481.67 Q733.608 1486.25 727.798 1486.25 Q721.987 1486.25 718.909 1481.67 Q715.853 1477.06 715.853 1468.33 Q715.853 1459.58 718.909 1455 Q721.987 1450.39 727.798 1450.39 Z" fill="#000000" fill-rule="nonzero" fill-opacity="1" /><path clip-path="url(#clip350)" d="M1197.76 1481.64 L1205.4 1481.64 L1205.4 1455.28 L1197.09 1456.95 L1197.09 1452.69 L1205.35 1451.02 L1210.03 1451.02 L1210.03 1481.64 L1217.67 1481.64 L1217.67 1485.58 L1197.76 1485.58 L1197.76 1481.64 Z" fill="#000000" fill-rule="nonzero" fill-opacity="1" /><path clip-path="url(#clip350)" d="M1237.11 1454.1 Q1233.5 1454.1 1231.67 1457.66 Q1229.87 1461.2 1229.87 1468.33 Q1229.87 1475.44 1231.67 1479.01 Q1233.5 1482.55 1237.11 1482.55 Q1240.74 1482.55 1242.55 1479.01 Q1244.38 1475.44 1244.38 1468.33 Q1244.38 1461.2 1242.55 1457.66 Q1240.74 1454.1 1237.11 1454.1 M1237.11 1450.39 Q1242.92 1450.39 1245.98 1455 Q1249.05 1459.58 1249.05 1468.33 Q1249.05 1477.06 1245.98 1481.67 Q1242.92 1486.25 1237.11 1486.25 Q1231.3 1486.25 1228.22 1481.67 Q1225.17 1477.06 1225.17 1468.33 Q1225.17 1459.58 1228.22 1455 Q1231.3 1450.39 1237.11 1450.39 Z" fill="#000000" fill-rule="nonzero" fill-opacity="1" /><path clip-path="url(#clip350)" d="M1697.12 1481.64 L1713.44 1481.64 L1713.44 1485.58 L1691.49 1485.58 L1691.49 1481.64 Q1694.16 1478.89 1698.74 1474.26 Q1703.35 1469.61 1704.53 1468.27 Q1706.77 1465.74 1707.65 1464.01 Q1708.55 1462.25 1708.55 1460.56 Q1708.55 1457.8 1706.61 1456.07 Q1704.69 1454.33 1701.59 1454.33 Q1699.39 1454.33 1696.93 1455.09 Q1694.5 1455.86 1691.72 1457.41 L1691.72 1452.69 Q1694.55 1451.55 1697 1450.97 Q1699.46 1450.39 1701.49 1450.39 Q1706.86 1450.39 1710.06 1453.08 Q1713.25 1455.77 1713.25 1460.26 Q1713.25 1462.39 1712.44 1464.31 Q1711.66 1466.2 1709.55 1468.8 Q1708.97 1469.47 1705.87 1472.69 Q1702.77 1475.88 1697.12 1481.64 Z" fill="#000000" fill-rule="nonzero" fill-opacity="1" /><path clip-path="url(#clip350)" d="M1733.25 1454.1 Q1729.64 1454.1 1727.81 1457.66 Q1726.01 1461.2 1726.01 1468.33 Q1726.01 1475.44 1727.81 1479.01 Q1729.64 1482.55 1733.25 1482.55 Q1736.89 1482.55 1738.69 1479.01 Q1740.52 1475.44 1740.52 1468.33 Q1740.52 1461.2 1738.69 1457.66 Q1736.89 1454.1 1733.25 1454.1 M1733.25 1450.39 Q1739.06 1450.39 1742.12 1455 Q1745.2 1459.58 1745.2 1468.33 Q1745.2 1477.06 1742.12 1481.67 Q1739.06 1486.25 1733.25 1486.25 Q1727.44 1486.25 1724.36 1481.67 Q1721.31 1477.06 1721.31 1468.33 Q1721.31 1459.58 1724.36 1455 Q1727.44 1450.39 1733.25 1450.39 Z" fill="#000000" fill-rule="nonzero" fill-opacity="1" /><path clip-path="url(#clip350)" d="M2202.46 1466.95 Q2205.82 1467.66 2207.69 1469.93 Q2209.59 1472.2 2209.59 1475.53 Q2209.59 1480.65 2206.07 1483.45 Q2202.55 1486.25 2196.07 1486.25 Q2193.9 1486.25 2191.58 1485.81 Q2189.29 1485.39 2186.84 1484.54 L2186.84 1480.02 Q2188.78 1481.16 2191.1 1481.74 Q2193.41 1482.32 2195.93 1482.32 Q2200.33 1482.32 2202.62 1480.58 Q2204.94 1478.84 2204.94 1475.53 Q2204.94 1472.48 2202.79 1470.77 Q2200.66 1469.03 2196.84 1469.03 L2192.81 1469.03 L2192.81 1465.19 L2197.02 1465.19 Q2200.47 1465.19 2202.3 1463.82 Q2204.13 1462.43 2204.13 1459.84 Q2204.13 1457.18 2202.23 1455.77 Q2200.35 1454.33 2196.84 1454.33 Q2194.92 1454.33 2192.72 1454.75 Q2190.52 1455.16 2187.88 1456.04 L2187.88 1451.88 Q2190.54 1451.14 2192.85 1450.77 Q2195.19 1450.39 2197.25 1450.39 Q2202.58 1450.39 2205.68 1452.83 Q2208.78 1455.23 2208.78 1459.35 Q2208.78 1462.22 2207.14 1464.21 Q2205.49 1466.18 2202.46 1466.95 Z" fill="#000000" fill-rule="nonzero" fill-opacity="1" /><path clip-path="url(#clip350)" d="M2228.46 1454.1 Q2224.85 1454.1 2223.02 1457.66 Q2221.21 1461.2 2221.21 1468.33 Q2221.21 1475.44 2223.02 1479.01 Q2224.85 1482.55 2228.46 1482.55 Q2232.09 1482.55 2233.9 1479.01 Q2235.73 1475.44 2235.73 1468.33 Q2235.73 1461.2 2233.9 1457.66 Q2232.09 1454.1 2228.46 1454.1 M2228.46 1450.39 Q2234.27 1450.39 2237.32 1455 Q2240.4 1459.58 2240.4 1468.33 Q2240.4 1477.06 2237.32 1481.67 Q2234.27 1486.25 2228.46 1486.25 Q2222.65 1486.25 2219.57 1481.67 Q2216.51 1477.06 2216.51 1468.33 Q2216.51 1459.58 2219.57 1455 Q2222.65 1450.39 2228.46 1450.39 Z" fill="#000000" fill-rule="nonzero" fill-opacity="1" /><path clip-path="url(#clip350)" d="M1000.6 1524.18 L1000.6 1530.96 Q997.351 1527.94 993.659 1526.44 Q989.999 1524.95 985.861 1524.95 Q977.713 1524.95 973.385 1529.95 Q969.056 1534.91 969.056 1544.33 Q969.056 1553.72 973.385 1558.72 Q977.713 1563.68 985.861 1563.68 Q989.999 1563.68 993.659 1562.19 Q997.351 1560.69 1000.6 1557.67 L1000.6 1564.38 Q997.224 1566.68 993.436 1567.82 Q989.681 1568.97 985.479 1568.97 Q974.689 1568.97 968.483 1562.38 Q962.276 1555.76 962.276 1544.33 Q962.276 1532.87 968.483 1526.28 Q974.689 1519.66 985.479 1519.66 Q989.744 1519.66 993.5 1520.81 Q997.288 1521.92 1000.6 1524.18 Z" fill="#000000" fill-rule="nonzero" fill-opacity="1" /><path clip-path="url(#clip350)" d="M1024.09 1536.5 Q1019.38 1536.5 1016.64 1540.19 Q1013.9 1543.85 1013.9 1550.25 Q1013.9 1556.65 1016.61 1560.34 Q1019.34 1564 1024.09 1564 Q1028.77 1564 1031.5 1560.31 Q1034.24 1556.62 1034.24 1550.25 Q1034.24 1543.92 1031.5 1540.23 Q1028.77 1536.5 1024.09 1536.5 M1024.09 1531.54 Q1031.73 1531.54 1036.09 1536.5 Q1040.45 1541.47 1040.45 1550.25 Q1040.45 1559 1036.09 1564 Q1031.73 1568.97 1024.09 1568.97 Q1016.42 1568.97 1012.06 1564 Q1007.73 1559 1007.73 1550.25 Q1007.73 1541.47 1012.06 1536.5 Q1016.42 1531.54 1024.09 1531.54 Z" fill="#000000" fill-rule="nonzero" fill-opacity="1" /><path clip-path="url(#clip350)" d="M1079.79 1546.53 L1079.79 1568.04 L1073.93 1568.04 L1073.93 1546.72 Q1073.93 1541.66 1071.96 1539.14 Q1069.98 1536.63 1066.04 1536.63 Q1061.29 1536.63 1058.56 1539.65 Q1055.82 1542.68 1055.82 1547.9 L1055.82 1568.04 L1049.93 1568.04 L1049.93 1532.4 L1055.82 1532.4 L1055.82 1537.93 Q1057.92 1534.72 1060.75 1533.13 Q1063.62 1531.54 1067.34 1531.54 Q1073.49 1531.54 1076.64 1535.36 Q1079.79 1539.14 1079.79 1546.53 Z" fill="#000000" fill-rule="nonzero" fill-opacity="1" /><path clip-path="url(#clip350)" d="M1117.12 1533.76 L1117.12 1539.24 Q1114.64 1537.87 1112.13 1537.2 Q1109.64 1536.5 1107.1 1536.5 Q1101.4 1536.5 1098.25 1540.13 Q1095.1 1543.73 1095.1 1550.25 Q1095.1 1556.78 1098.25 1560.4 Q1101.4 1564 1107.1 1564 Q1109.64 1564 1112.13 1563.33 Q1114.64 1562.63 1117.12 1561.26 L1117.12 1566.68 Q1114.67 1567.82 1112.03 1568.39 Q1109.42 1568.97 1106.46 1568.97 Q1098.41 1568.97 1093.66 1563.91 Q1088.92 1558.85 1088.92 1550.25 Q1088.92 1541.53 1093.7 1536.53 Q1098.5 1531.54 1106.84 1531.54 Q1109.55 1531.54 1112.13 1532.11 Q1114.7 1532.65 1117.12 1533.76 Z" fill="#000000" fill-rule="nonzero" fill-opacity="1" /><path clip-path="url(#clip350)" d="M1157.8 1548.76 L1157.8 1551.62 L1130.87 1551.62 Q1131.25 1557.67 1134.5 1560.85 Q1137.78 1564 1143.6 1564 Q1146.98 1564 1150.13 1563.17 Q1153.31 1562.35 1156.43 1560.69 L1156.43 1566.23 Q1153.28 1567.57 1149.97 1568.27 Q1146.66 1568.97 1143.25 1568.97 Q1134.72 1568.97 1129.73 1564 Q1124.76 1559.04 1124.76 1550.57 Q1124.76 1541.82 1129.47 1536.69 Q1134.21 1531.54 1142.23 1531.54 Q1149.43 1531.54 1153.6 1536.18 Q1157.8 1540.8 1157.8 1548.76 M1151.94 1547.04 Q1151.88 1542.23 1149.24 1539.37 Q1146.63 1536.5 1142.3 1536.5 Q1137.4 1536.5 1134.44 1539.27 Q1131.51 1542.04 1131.06 1547.07 L1151.94 1547.04 Z" fill="#000000" fill-rule="nonzero" fill-opacity="1" /><path clip-path="url(#clip350)" d="M1197.04 1546.53 L1197.04 1568.04 L1191.19 1568.04 L1191.19 1546.72 Q1191.19 1541.66 1189.21 1539.14 Q1187.24 1536.63 1183.29 1536.63 Q1178.55 1536.63 1175.81 1539.65 Q1173.08 1542.68 1173.08 1547.9 L1173.08 1568.04 L1167.19 1568.04 L1167.19 1532.4 L1173.08 1532.4 L1173.08 1537.93 Q1175.18 1534.72 1178.01 1533.13 Q1180.87 1531.54 1184.6 1531.54 Q1190.74 1531.54 1193.89 1535.36 Q1197.04 1539.14 1197.04 1546.53 Z" fill="#000000" fill-rule="nonzero" fill-opacity="1" /><path clip-path="url(#clip350)" d="M1214.52 1522.27 L1214.52 1532.4 L1226.58 1532.4 L1226.58 1536.95 L1214.52 1536.95 L1214.52 1556.3 Q1214.52 1560.66 1215.7 1561.9 Q1216.9 1563.14 1220.56 1563.14 L1226.58 1563.14 L1226.58 1568.04 L1220.56 1568.04 Q1213.79 1568.04 1211.21 1565.53 Q1208.63 1562.98 1208.63 1556.3 L1208.63 1536.95 L1204.33 1536.95 L1204.33 1532.4 L1208.63 1532.4 L1208.63 1522.27 L1214.52 1522.27 Z" fill="#000000" fill-rule="nonzero" fill-opacity="1" /><path clip-path="url(#clip350)" d="M1254.94 1537.87 Q1253.95 1537.3 1252.78 1537.04 Q1251.63 1536.76 1250.23 1536.76 Q1245.26 1536.76 1242.59 1540 Q1239.95 1543.22 1239.95 1549.27 L1239.95 1568.04 L1234.06 1568.04 L1234.06 1532.4 L1239.95 1532.4 L1239.95 1537.93 Q1241.79 1534.69 1244.75 1533.13 Q1247.71 1531.54 1251.95 1531.54 Q1252.55 1531.54 1253.28 1531.63 Q1254.02 1531.7 1254.91 1531.85 L1254.94 1537.87 Z" fill="#000000" fill-rule="nonzero" fill-opacity="1" /><path clip-path="url(#clip350)" d="M1277.28 1550.12 Q1270.19 1550.12 1267.45 1551.75 Q1264.71 1553.37 1264.71 1557.29 Q1264.71 1560.4 1266.75 1562.25 Q1268.82 1564.07 1272.35 1564.07 Q1277.22 1564.07 1280.15 1560.63 Q1283.11 1557.16 1283.11 1551.43 L1283.11 1550.12 L1277.28 1550.12 M1288.96 1547.71 L1288.96 1568.04 L1283.11 1568.04 L1283.11 1562.63 Q1281.1 1565.88 1278.11 1567.44 Q1275.12 1568.97 1270.79 1568.97 Q1265.32 1568.97 1262.07 1565.91 Q1258.85 1562.82 1258.85 1557.67 Q1258.85 1551.65 1262.87 1548.6 Q1266.91 1545.54 1274.9 1545.54 L1283.11 1545.54 L1283.11 1544.97 Q1283.11 1540.93 1280.43 1538.73 Q1277.79 1536.5 1272.99 1536.5 Q1269.93 1536.5 1267.03 1537.23 Q1264.14 1537.97 1261.46 1539.43 L1261.46 1534.02 Q1264.68 1532.78 1267.7 1532.17 Q1270.73 1531.54 1273.59 1531.54 Q1281.33 1531.54 1285.15 1535.55 Q1288.96 1539.56 1288.96 1547.71 Z" fill="#000000" fill-rule="nonzero" fill-opacity="1" /><path clip-path="url(#clip350)" d="M1306.82 1522.27 L1306.82 1532.4 L1318.88 1532.4 L1318.88 1536.95 L1306.82 1536.95 L1306.82 1556.3 Q1306.82 1560.66 1308 1561.9 Q1309.21 1563.14 1312.87 1563.14 L1318.88 1563.14 L1318.88 1568.04 L1312.87 1568.04 Q1306.09 1568.04 1303.51 1565.53 Q1300.93 1562.98 1300.93 1556.3 L1300.93 1536.95 L1296.64 1536.95 L1296.64 1532.4 L1300.93 1532.4 L1300.93 1522.27 L1306.82 1522.27 Z" fill="#000000" fill-rule="nonzero" fill-opacity="1" /><path clip-path="url(#clip350)" d="M1326.59 1532.4 L1332.44 1532.4 L1332.44 1568.04 L1326.59 1568.04 L1326.59 1532.4 M1326.59 1518.52 L1332.44 1518.52 L1332.44 1525.93 L1326.59 1525.93 L1326.59 1518.52 Z" fill="#000000" fill-rule="nonzero" fill-opacity="1" /><path clip-path="url(#clip350)" d="M1358.51 1536.5 Q1353.8 1536.5 1351.06 1540.19 Q1348.32 1543.85 1348.32 1550.25 Q1348.32 1556.65 1351.03 1560.34 Q1353.77 1564 1358.51 1564 Q1363.19 1564 1365.93 1560.31 Q1368.66 1556.62 1368.66 1550.25 Q1368.66 1543.92 1365.93 1540.23 Q1363.19 1536.5 1358.51 1536.5 M1358.51 1531.54 Q1366.15 1531.54 1370.51 1536.5 Q1374.87 1541.47 1374.87 1550.25 Q1374.87 1559 1370.51 1564 Q1366.15 1568.97 1358.51 1568.97 Q1350.84 1568.97 1346.48 1564 Q1342.15 1559 1342.15 1550.25 Q1342.15 1541.47 1346.48 1536.5 Q1350.84 1531.54 1358.51 1531.54 Z" fill="#000000" fill-rule="nonzero" fill-opacity="1" /><path clip-path="url(#clip350)" d="M1414.21 1546.53 L1414.21 1568.04 L1408.35 1568.04 L1408.35 1546.72 Q1408.35 1541.66 1406.38 1539.14 Q1404.41 1536.63 1400.46 1536.63 Q1395.72 1536.63 1392.98 1539.65 Q1390.24 1542.68 1390.24 1547.9 L1390.24 1568.04 L1384.35 1568.04 L1384.35 1532.4 L1390.24 1532.4 L1390.24 1537.93 Q1392.34 1534.72 1395.18 1533.13 Q1398.04 1531.54 1401.76 1531.54 Q1407.91 1531.54 1411.06 1535.36 Q1414.21 1539.14 1414.21 1546.53 Z" fill="#000000" fill-rule="nonzero" fill-opacity="1" /><path clip-path="url(#clip350)" d="M1460.68 1518.58 Q1456.41 1525.9 1454.35 1533.06 Q1452.28 1540.23 1452.28 1547.58 Q1452.28 1554.93 1454.35 1562.16 Q1456.45 1569.35 1460.68 1576.64 L1455.59 1576.64 Q1450.81 1569.16 1448.43 1561.93 Q1446.07 1554.71 1446.07 1547.58 Q1446.07 1540.48 1448.43 1533.29 Q1450.78 1526.09 1455.59 1518.58 L1460.68 1518.58 Z" fill="#000000" fill-rule="nonzero" fill-opacity="1" /><path clip-path="url(#clip350)" d="M1477.71 1562.7 L1477.71 1581.6 L1471.82 1581.6 L1471.82 1532.4 L1477.71 1532.4 L1477.71 1537.81 Q1479.55 1534.62 1482.35 1533.1 Q1485.19 1531.54 1489.1 1531.54 Q1495.6 1531.54 1499.64 1536.69 Q1503.71 1541.85 1503.71 1550.25 Q1503.71 1558.65 1499.64 1563.81 Q1495.6 1568.97 1489.1 1568.97 Q1485.19 1568.97 1482.35 1567.44 Q1479.55 1565.88 1477.71 1562.7 M1497.63 1550.25 Q1497.63 1543.79 1494.96 1540.13 Q1492.32 1536.44 1487.67 1536.44 Q1483.02 1536.44 1480.35 1540.13 Q1477.71 1543.79 1477.71 1550.25 Q1477.71 1556.71 1480.35 1560.4 Q1483.02 1564.07 1487.67 1564.07 Q1492.32 1564.07 1494.96 1560.4 Q1497.63 1556.71 1497.63 1550.25 Z" fill="#000000" fill-rule="nonzero" fill-opacity="1" /><path clip-path="url(#clip350)" d="M1519.08 1562.7 L1519.08 1581.6 L1513.2 1581.6 L1513.2 1532.4 L1519.08 1532.4 L1519.08 1537.81 Q1520.93 1534.62 1523.73 1533.1 Q1526.56 1531.54 1530.48 1531.54 Q1536.97 1531.54 1541.01 1536.69 Q1545.09 1541.85 1545.09 1550.25 Q1545.09 1558.65 1541.01 1563.81 Q1536.97 1568.97 1530.48 1568.97 Q1526.56 1568.97 1523.73 1567.44 Q1520.93 1565.88 1519.08 1562.7 M1539.01 1550.25 Q1539.01 1543.79 1536.34 1540.13 Q1533.69 1536.44 1529.05 1536.44 Q1524.4 1536.44 1521.73 1540.13 Q1519.08 1543.79 1519.08 1550.25 Q1519.08 1556.71 1521.73 1560.4 Q1524.4 1564.07 1529.05 1564.07 Q1533.69 1564.07 1536.34 1560.4 Q1539.01 1556.71 1539.01 1550.25 Z" fill="#000000" fill-rule="nonzero" fill-opacity="1" /><path clip-path="url(#clip350)" d="M1580.39 1550.25 Q1580.39 1543.79 1577.71 1540.13 Q1575.07 1536.44 1570.42 1536.44 Q1565.78 1536.44 1563.1 1540.13 Q1560.46 1543.79 1560.46 1550.25 Q1560.46 1556.71 1563.1 1560.4 Q1565.78 1564.07 1570.42 1564.07 Q1575.07 1564.07 1577.71 1560.4 Q1580.39 1556.71 1580.39 1550.25 M1560.46 1537.81 Q1562.31 1534.62 1565.11 1533.1 Q1567.94 1531.54 1571.86 1531.54 Q1578.35 1531.54 1582.39 1536.69 Q1586.47 1541.85 1586.47 1550.25 Q1586.47 1558.65 1582.39 1563.81 Q1578.35 1568.97 1571.86 1568.97 Q1567.94 1568.97 1565.11 1567.44 Q1562.31 1565.88 1560.46 1562.7 L1560.46 1568.04 L1554.57 1568.04 L1554.57 1518.52 L1560.46 1518.52 L1560.46 1537.81 Z" fill="#000000" fill-rule="nonzero" fill-opacity="1" /><path clip-path="url(#clip350)" d="M1595.25 1518.58 L1600.34 1518.58 Q1605.12 1526.09 1607.47 1533.29 Q1609.86 1540.48 1609.86 1547.58 Q1609.86 1554.71 1607.47 1561.93 Q1605.12 1569.16 1600.34 1576.64 L1595.25 1576.64 Q1599.48 1569.35 1601.55 1562.16 Q1603.65 1554.93 1603.65 1547.58 Q1603.65 1540.23 1601.55 1533.06 Q1599.48 1525.9 1595.25 1518.58 Z" fill="#000000" fill-rule="nonzero" fill-opacity="1" /><polyline clip-path="url(#clip350)" style="stroke:#000000; stroke-linecap:round; stroke-linejoin:round; stroke-width:4; stroke-opacity:1; fill:none" points="219.38,1423.18 219.38,47.2441 "/>
<polyline clip-path="url(#clip350)" style="stroke:#000000; stroke-linecap:round; stroke-linejoin:round; stroke-width:4; stroke-opacity:1; fill:none" points="219.38,1423.18 238.278,1423.18 "/>
<polyline clip-path="url(#clip350)" style="stroke:#000000; stroke-linecap:round; stroke-linejoin:round; stroke-width:4; stroke-opacity:1; fill:none" points="219.38,1030.06 238.278,1030.06 "/>
<polyline clip-path="url(#clip350)" style="stroke:#000000; stroke-linecap:round; stroke-linejoin:round; stroke-width:4; stroke-opacity:1; fill:none" points="219.38,636.931 238.278,636.931 "/>
<polyline clip-path="url(#clip350)" style="stroke:#000000; stroke-linecap:round; stroke-linejoin:round; stroke-width:4; stroke-opacity:1; fill:none" points="219.38,243.806 238.278,243.806 "/>
<path clip-path="url(#clip350)" d="M126.205 1408.98 Q122.593 1408.98 120.765 1412.54 Q118.959 1416.08 118.959 1423.21 Q118.959 1430.32 120.765 1433.89 Q122.593 1437.43 126.205 1437.43 Q129.839 1437.43 131.644 1433.89 Q133.473 1430.32 133.473 1423.21 Q133.473 1416.08 131.644 1412.54 Q129.839 1408.98 126.205 1408.98 M126.205 1405.27 Q132.015 1405.27 135.07 1409.88 Q138.149 1414.46 138.149 1423.21 Q138.149 1431.94 135.07 1436.55 Q132.015 1441.13 126.205 1441.13 Q120.394 1441.13 117.316 1436.55 Q114.26 1431.94 114.26 1423.21 Q114.26 1414.46 117.316 1409.88 Q120.394 1405.27 126.205 1405.27 Z" fill="#000000" fill-rule="nonzero" fill-opacity="1" /><path clip-path="url(#clip350)" d="M146.366 1434.58 L151.251 1434.58 L151.251 1440.46 L146.366 1440.46 L146.366 1434.58 Z" fill="#000000" fill-rule="nonzero" fill-opacity="1" /><path clip-path="url(#clip350)" d="M171.436 1408.98 Q167.825 1408.98 165.996 1412.54 Q164.19 1416.08 164.19 1423.21 Q164.19 1430.32 165.996 1433.89 Q167.825 1437.43 171.436 1437.43 Q175.07 1437.43 176.876 1433.89 Q178.704 1430.32 178.704 1423.21 Q178.704 1416.08 176.876 1412.54 Q175.07 1408.98 171.436 1408.98 M171.436 1405.27 Q177.246 1405.27 180.301 1409.88 Q183.38 1414.46 183.38 1423.21 Q183.38 1431.94 180.301 1436.55 Q177.246 1441.13 171.436 1441.13 Q165.626 1441.13 162.547 1436.55 Q159.491 1431.94 159.491 1423.21 Q159.491 1414.46 162.547 1409.88 Q165.626 1405.27 171.436 1405.27 Z" fill="#000000" fill-rule="nonzero" fill-opacity="1" /><path clip-path="url(#clip350)" d="M127.431 1015.85 Q123.82 1015.85 121.992 1019.42 Q120.186 1022.96 120.186 1030.09 Q120.186 1037.2 121.992 1040.76 Q123.82 1044.3 127.431 1044.3 Q131.066 1044.3 132.871 1040.76 Q134.7 1037.2 134.7 1030.09 Q134.7 1022.96 132.871 1019.42 Q131.066 1015.85 127.431 1015.85 M127.431 1012.15 Q133.242 1012.15 136.297 1016.76 Q139.376 1021.34 139.376 1030.09 Q139.376 1038.82 136.297 1043.42 Q133.242 1048.01 127.431 1048.01 Q121.621 1048.01 118.543 1043.42 Q115.487 1038.82 115.487 1030.09 Q115.487 1021.34 118.543 1016.76 Q121.621 1012.15 127.431 1012.15 Z" fill="#000000" fill-rule="nonzero" fill-opacity="1" /><path clip-path="url(#clip350)" d="M147.593 1041.46 L152.478 1041.46 L152.478 1047.34 L147.593 1047.34 L147.593 1041.46 Z" fill="#000000" fill-rule="nonzero" fill-opacity="1" /><path clip-path="url(#clip350)" d="M163.473 1043.4 L171.112 1043.4 L171.112 1017.03 L162.802 1018.7 L162.802 1014.44 L171.065 1012.78 L175.741 1012.78 L175.741 1043.4 L183.38 1043.4 L183.38 1047.34 L163.473 1047.34 L163.473 1043.4 Z" fill="#000000" fill-rule="nonzero" fill-opacity="1" /><path clip-path="url(#clip350)" d="M127.802 622.73 Q124.191 622.73 122.362 626.294 Q120.556 629.836 120.556 636.966 Q120.556 644.072 122.362 647.637 Q124.191 651.178 127.802 651.178 Q131.436 651.178 133.242 647.637 Q135.07 644.072 135.07 636.966 Q135.07 629.836 133.242 626.294 Q131.436 622.73 127.802 622.73 M127.802 619.026 Q133.612 619.026 136.667 623.632 Q139.746 628.216 139.746 636.966 Q139.746 645.692 136.667 650.299 Q133.612 654.882 127.802 654.882 Q121.992 654.882 118.913 650.299 Q115.857 645.692 115.857 636.966 Q115.857 628.216 118.913 623.632 Q121.992 619.026 127.802 619.026 Z" fill="#000000" fill-rule="nonzero" fill-opacity="1" /><path clip-path="url(#clip350)" d="M147.964 648.331 L152.848 648.331 L152.848 654.211 L147.964 654.211 L147.964 648.331 Z" fill="#000000" fill-rule="nonzero" fill-opacity="1" /><path clip-path="url(#clip350)" d="M167.061 650.276 L183.38 650.276 L183.38 654.211 L161.436 654.211 L161.436 650.276 Q164.098 647.521 168.681 642.891 Q173.288 638.239 174.468 636.896 Q176.714 634.373 177.593 632.637 Q178.496 630.878 178.496 629.188 Q178.496 626.433 176.551 624.697 Q174.63 622.961 171.528 622.961 Q169.329 622.961 166.876 623.725 Q164.445 624.489 161.667 626.04 L161.667 621.318 Q164.491 620.183 166.945 619.605 Q169.399 619.026 171.436 619.026 Q176.806 619.026 180.001 621.711 Q183.195 624.396 183.195 628.887 Q183.195 631.017 182.385 632.938 Q181.598 634.836 179.491 637.429 Q178.913 638.1 175.811 641.317 Q172.709 644.512 167.061 650.276 Z" fill="#000000" fill-rule="nonzero" fill-opacity="1" /><path clip-path="url(#clip350)" d="M126.853 229.605 Q123.242 229.605 121.413 233.17 Q119.607 236.711 119.607 243.841 Q119.607 250.948 121.413 254.512 Q123.242 258.054 126.853 258.054 Q130.487 258.054 132.292 254.512 Q134.121 250.948 134.121 243.841 Q134.121 236.711 132.292 233.17 Q130.487 229.605 126.853 229.605 M126.853 225.901 Q132.663 225.901 135.718 230.508 Q138.797 235.091 138.797 243.841 Q138.797 252.568 135.718 257.174 Q132.663 261.758 126.853 261.758 Q121.043 261.758 117.964 257.174 Q114.908 252.568 114.908 243.841 Q114.908 235.091 117.964 230.508 Q121.043 225.901 126.853 225.901 Z" fill="#000000" fill-rule="nonzero" fill-opacity="1" /><path clip-path="url(#clip350)" d="M147.015 255.207 L151.899 255.207 L151.899 261.086 L147.015 261.086 L147.015 255.207 Z" fill="#000000" fill-rule="nonzero" fill-opacity="1" /><path clip-path="url(#clip350)" d="M176.251 242.452 Q179.607 243.17 181.482 245.438 Q183.38 247.707 183.38 251.04 Q183.38 256.156 179.862 258.957 Q176.343 261.758 169.862 261.758 Q167.686 261.758 165.371 261.318 Q163.079 260.901 160.626 260.045 L160.626 255.531 Q162.57 256.665 164.885 257.244 Q167.2 257.822 169.723 257.822 Q174.121 257.822 176.413 256.086 Q178.727 254.35 178.727 251.04 Q178.727 247.985 176.575 246.272 Q174.445 244.536 170.626 244.536 L166.598 244.536 L166.598 240.693 L170.811 240.693 Q174.26 240.693 176.089 239.327 Q177.917 237.938 177.917 235.346 Q177.917 232.684 176.019 231.272 Q174.144 229.837 170.626 229.837 Q168.704 229.837 166.505 230.253 Q164.306 230.67 161.667 231.549 L161.667 227.383 Q164.329 226.642 166.644 226.272 Q168.982 225.901 171.042 225.901 Q176.366 225.901 179.468 228.332 Q182.57 230.739 182.57 234.86 Q182.57 237.73 180.926 239.721 Q179.283 241.688 176.251 242.452 Z" fill="#000000" fill-rule="nonzero" fill-opacity="1" /><path clip-path="url(#clip350)" d="M21.7677 896.901 L39.6235 896.901 L39.6235 888.816 Q39.6235 884.329 37.3 881.878 Q34.9765 879.427 30.6797 879.427 Q26.4147 879.427 24.0912 881.878 Q21.7677 884.329 21.7677 888.816 L21.7677 896.901 M16.4842 903.33 L16.4842 888.816 Q16.4842 880.828 20.1126 876.753 Q23.7092 872.648 30.6797 872.648 Q37.7138 872.648 41.3104 876.753 Q44.907 880.828 44.907 888.816 L44.907 896.901 L64.0042 896.901 L64.0042 903.33 L16.4842 903.33 Z" fill="#000000" fill-rule="nonzero" fill-opacity="1" /><path clip-path="url(#clip350)" d="M33.8307 844.766 Q33.2578 845.752 33.0032 846.93 Q32.7167 848.076 32.7167 849.476 Q32.7167 854.442 35.9632 857.115 Q39.1779 859.757 45.2253 859.757 L64.0042 859.757 L64.0042 865.645 L28.3562 865.645 L28.3562 859.757 L33.8944 859.757 Q30.6479 857.911 29.0883 854.951 Q27.4968 851.991 27.4968 847.758 Q27.4968 847.153 27.5923 846.421 Q27.656 845.689 27.8151 844.798 L33.8307 844.766 Z" fill="#000000" fill-rule="nonzero" fill-opacity="1" /><path clip-path="url(#clip350)" d="M32.4621 826.242 Q32.4621 830.952 36.1542 833.689 Q39.8145 836.427 46.212 836.427 Q52.6095 836.427 56.3017 833.721 Q59.9619 830.984 59.9619 826.242 Q59.9619 821.563 56.2698 818.826 Q52.5777 816.088 46.212 816.088 Q39.8781 816.088 36.186 818.826 Q32.4621 821.563 32.4621 826.242 M27.4968 826.242 Q27.4968 818.603 32.4621 814.242 Q37.4273 809.882 46.212 809.882 Q54.9649 809.882 59.9619 814.242 Q64.9272 818.603 64.9272 826.242 Q64.9272 833.912 59.9619 838.273 Q54.9649 842.601 46.212 842.601 Q37.4273 842.601 32.4621 838.273 Q27.4968 833.912 27.4968 826.242 Z" fill="#000000" fill-rule="nonzero" fill-opacity="1" /><path clip-path="url(#clip350)" d="M46.212 774.584 Q39.7508 774.584 36.0905 777.257 Q32.3984 779.899 32.3984 784.546 Q32.3984 789.193 36.0905 791.867 Q39.7508 794.509 46.212 794.509 Q52.6732 794.509 56.3653 791.867 Q60.0256 789.193 60.0256 784.546 Q60.0256 779.899 56.3653 777.257 Q52.6732 774.584 46.212 774.584 M33.7671 794.509 Q30.5842 792.662 29.0564 789.862 Q27.4968 787.029 27.4968 783.114 Q27.4968 776.621 32.6531 772.579 Q37.8093 768.505 46.212 768.505 Q54.6147 768.505 59.771 772.579 Q64.9272 776.621 64.9272 783.114 Q64.9272 787.029 63.3994 789.862 Q61.8398 792.662 58.657 794.509 L64.0042 794.509 L64.0042 800.397 L14.479 800.397 L14.479 794.509 L33.7671 794.509 Z" fill="#000000" fill-rule="nonzero" fill-opacity="1" /><path clip-path="url(#clip350)" d="M46.0847 742.596 Q46.0847 749.694 47.7079 752.431 Q49.3312 755.168 53.2461 755.168 Q56.3653 755.168 58.2114 753.131 Q60.0256 751.063 60.0256 747.53 Q60.0256 742.66 56.5881 739.732 Q53.1188 736.772 47.3897 736.772 L46.0847 736.772 L46.0847 742.596 M43.6657 730.915 L64.0042 730.915 L64.0042 736.772 L58.5933 736.772 Q61.8398 738.777 63.3994 741.769 Q64.9272 744.761 64.9272 749.089 Q64.9272 754.564 61.8716 757.81 Q58.7843 761.025 53.6281 761.025 Q47.6125 761.025 44.5569 757.015 Q41.5014 752.972 41.5014 744.983 L41.5014 736.772 L40.9285 736.772 Q36.8862 736.772 34.6901 739.445 Q32.4621 742.087 32.4621 746.893 Q32.4621 749.949 33.1941 752.845 Q33.9262 755.741 35.3903 758.415 L29.9795 758.415 Q28.7381 755.2 28.1334 752.177 Q27.4968 749.153 27.4968 746.288 Q27.4968 738.554 31.5072 734.735 Q35.5176 730.915 43.6657 730.915 Z" fill="#000000" fill-rule="nonzero" fill-opacity="1" /><path clip-path="url(#clip350)" d="M46.212 693.262 Q39.7508 693.262 36.0905 695.936 Q32.3984 698.577 32.3984 703.224 Q32.3984 707.871 36.0905 710.545 Q39.7508 713.187 46.212 713.187 Q52.6732 713.187 56.3653 710.545 Q60.0256 707.871 60.0256 703.224 Q60.0256 698.577 56.3653 695.936 Q52.6732 693.262 46.212 693.262 M33.7671 713.187 Q30.5842 711.341 29.0564 708.54 Q27.4968 705.707 27.4968 701.792 Q27.4968 695.299 32.6531 691.257 Q37.8093 687.183 46.212 687.183 Q54.6147 687.183 59.771 691.257 Q64.9272 695.299 64.9272 701.792 Q64.9272 705.707 63.3994 708.54 Q61.8398 711.341 58.657 713.187 L64.0042 713.187 L64.0042 719.075 L14.479 719.075 L14.479 713.187 L33.7671 713.187 Z" fill="#000000" fill-rule="nonzero" fill-opacity="1" /><path clip-path="url(#clip350)" d="M28.3562 677.475 L28.3562 671.619 L64.0042 671.619 L64.0042 677.475 L28.3562 677.475 M14.479 677.475 L14.479 671.619 L21.895 671.619 L21.895 677.475 L14.479 677.475 Z" fill="#000000" fill-rule="nonzero" fill-opacity="1" /><path clip-path="url(#clip350)" d="M14.479 659.365 L14.479 653.508 L64.0042 653.508 L64.0042 659.365 L14.479 659.365 Z" fill="#000000" fill-rule="nonzero" fill-opacity="1" /><path clip-path="url(#clip350)" d="M28.3562 641.254 L28.3562 635.398 L64.0042 635.398 L64.0042 641.254 L28.3562 641.254 M14.479 641.254 L14.479 635.398 L21.895 635.398 L21.895 641.254 L14.479 641.254 Z" fill="#000000" fill-rule="nonzero" fill-opacity="1" /><path clip-path="url(#clip350)" d="M18.2347 617.351 L28.3562 617.351 L28.3562 605.288 L32.9077 605.288 L32.9077 617.351 L52.2594 617.351 Q56.6199 617.351 57.8613 616.173 Q59.1026 614.964 59.1026 611.303 L59.1026 605.288 L64.0042 605.288 L64.0042 611.303 Q64.0042 618.083 61.4897 620.661 Q58.9434 623.239 52.2594 623.239 L32.9077 623.239 L32.9077 627.536 L28.3562 627.536 L28.3562 623.239 L18.2347 623.239 L18.2347 617.351 Z" fill="#000000" fill-rule="nonzero" fill-opacity="1" /><path clip-path="url(#clip350)" d="M67.3143 582.753 Q73.68 585.236 75.6216 587.591 Q77.5631 589.947 77.5631 593.893 L77.5631 598.572 L72.6615 598.572 L72.6615 595.135 Q72.6615 592.716 71.5157 591.379 Q70.3699 590.042 66.1048 588.419 L63.4312 587.368 L28.3562 601.787 L28.3562 595.58 L56.238 584.44 L28.3562 573.3 L28.3562 567.094 L67.3143 582.753 Z" fill="#000000" fill-rule="nonzero" fill-opacity="1" /><path clip-path="url(#clip352)" d="M727.798 833.493 L727.798 1423.18 L826.852 1423.18 L826.852 833.493 L727.798 833.493 L727.798 833.493  Z" fill="#009af9" fill-rule="evenodd" fill-opacity="1"/>
<polyline clip-path="url(#clip352)" style="stroke:#000000; stroke-linecap:round; stroke-linejoin:round; stroke-width:4; stroke-opacity:1; fill:none" points="727.798,833.493 727.798,1423.18 826.852,1423.18 826.852,833.493 727.798,833.493 "/>
<path clip-path="url(#clip352)" d="M826.852 47.2441 L826.852 1423.18 L925.907 1423.18 L925.907 47.2441 L826.852 47.2441 L826.852 47.2441  Z" fill="#009af9" fill-rule="evenodd" fill-opacity="1"/>
<polyline clip-path="url(#clip352)" style="stroke:#000000; stroke-linecap:round; stroke-linejoin:round; stroke-width:4; stroke-opacity:1; fill:none" points="826.852,47.2441 826.852,1423.18 925.907,1423.18 925.907,47.2441 826.852,47.2441 "/>
<path clip-path="url(#clip352)" d="M925.907 1030.06 L925.907 1423.18 L1024.96 1423.18 L1024.96 1030.06 L925.907 1030.06 L925.907 1030.06  Z" fill="#009af9" fill-rule="evenodd" fill-opacity="1"/>
<polyline clip-path="url(#clip352)" style="stroke:#000000; stroke-linecap:round; stroke-linejoin:round; stroke-width:4; stroke-opacity:1; fill:none" points="925.907,1030.06 925.907,1423.18 1024.96,1423.18 1024.96,1030.06 925.907,1030.06 "/>
<path clip-path="url(#clip352)" d="M1024.96 1030.06 L1024.96 1423.18 L1124.02 1423.18 L1124.02 1030.06 L1024.96 1030.06 L1024.96 1030.06  Z" fill="#009af9" fill-rule="evenodd" fill-opacity="1"/>
<polyline clip-path="url(#clip352)" style="stroke:#000000; stroke-linecap:round; stroke-linejoin:round; stroke-width:4; stroke-opacity:1; fill:none" points="1024.96,1030.06 1024.96,1423.18 1124.02,1423.18 1124.02,1030.06 1024.96,1030.06 "/>
<path clip-path="url(#clip352)" d="M1124.02 440.369 L1124.02 1423.18 L1223.07 1423.18 L1223.07 440.369 L1124.02 440.369 L1124.02 440.369  Z" fill="#009af9" fill-rule="evenodd" fill-opacity="1"/>
<polyline clip-path="url(#clip352)" style="stroke:#000000; stroke-linecap:round; stroke-linejoin:round; stroke-width:4; stroke-opacity:1; fill:none" points="1124.02,440.369 1124.02,1423.18 1223.07,1423.18 1223.07,440.369 1124.02,440.369 "/>
<path clip-path="url(#clip352)" d="M1223.07 1226.62 L1223.07 1423.18 L1322.13 1423.18 L1322.13 1226.62 L1223.07 1226.62 L1223.07 1226.62  Z" fill="#009af9" fill-rule="evenodd" fill-opacity="1"/>
<polyline clip-path="url(#clip352)" style="stroke:#000000; stroke-linecap:round; stroke-linejoin:round; stroke-width:4; stroke-opacity:1; fill:none" points="1223.07,1226.62 1223.07,1423.18 1322.13,1423.18 1322.13,1226.62 1223.07,1226.62 "/>
<circle clip-path="url(#clip352)" style="fill:#009af9; stroke:none; fill-opacity:0" cx="777.325" cy="833.493" r="2"/>
<circle clip-path="url(#clip352)" style="fill:#009af9; stroke:none; fill-opacity:0" cx="876.38" cy="47.2441" r="2"/>
<circle clip-path="url(#clip352)" style="fill:#009af9; stroke:none; fill-opacity:0" cx="975.434" cy="1030.06" r="2"/>
<circle clip-path="url(#clip352)" style="fill:#009af9; stroke:none; fill-opacity:0" cx="1074.49" cy="1030.06" r="2"/>
<circle clip-path="url(#clip352)" style="fill:#009af9; stroke:none; fill-opacity:0" cx="1173.54" cy="440.369" r="2"/>
<circle clip-path="url(#clip352)" style="fill:#009af9; stroke:none; fill-opacity:0" cx="1272.6" cy="1226.62" r="2"/>
<polyline clip-path="url(#clip352)" style="stroke:#e26f46; stroke-linecap:round; stroke-linejoin:round; stroke-width:4; stroke-opacity:1; fill:none" points="727.798,1423.18 728.807,1402.47 729.817,1385.58 730.826,1370.06 731.836,1355.44 732.845,1341.51 733.855,1328.17 734.864,1315.32 735.874,1302.91 737.893,1279.26 739.912,1256.97 740.921,1246.29 741.931,1235.89 742.94,1225.75 743.95,1215.88 745.428,1201.86 746.906,1188.34 748.384,1175.3 749.863,1162.71 751.341,1150.54 752.819,1138.79 754.297,1127.43 755.775,1116.46 758.731,1095.59 761.688,1076.08 764.644,1057.86 767.6,1040.83 770.557,1024.93 773.513,1010.09 776.469,996.269 779.426,983.399 782.382,971.435 785.338,960.331 788.295,950.044 791.251,940.534 794.207,931.764 797.164,923.697 800.12,916.302 803.076,909.546 806.033,903.398 808.989,897.832 811.945,892.818 814.902,888.332 817.858,884.35 820.814,880.847 823.771,877.802 826.727,875.192 832.64,871.201 838.552,868.721 841.303,868.043 844.053,867.648 846.804,867.523 849.554,867.658 855.056,868.655 860.557,870.552 866.058,873.266 871.559,876.72 877.06,880.846 882.561,885.577 889.935,892.763 897.308,900.796 904.682,909.555 912.055,918.931 919.429,928.827 926.803,939.153 934.176,949.83 941.55,960.786 965.921,998.219 990.292,1036.19 1012.96,1070.84 1035.62,1104.16 1049.84,1124.18 1064.07,1143.42 1078.29,1161.83 1092.52,1179.38 1105.28,1194.38 1118.04,1208.66 1130.8,1222.24 1143.56,1235.13 1158.16,1249.04 1172.77,1262.09 1187.37,1274.3 1201.98,1285.7 1212.9,1293.72 1223.81,1301.33 1234.73,1308.54 1245.65,1315.36 1259.61,1323.56 1273.58,1331.19 1287.54,1338.28 1301.5,1344.87 1314.25,1350.47 1326.99,1355.69 1339.74,1360.57 1352.48,1365.11 1381.49,1374.33 1410.5,1382.16 1433.5,1387.5 1456.49,1392.18 1485.07,1397.17 1513.64,1401.39 1535.52,1404.17 1557.4,1406.6 1619.09,1411.95 1665.2,1414.8 1717.63,1417.2 1769.56,1418.9 1826.68,1420.23 1870.32,1420.96 1925.38,1421.64 1976.31,1422.08 2028.84,1422.4 2082.08,1422.63 2137.67,1422.8 2181.46,1422.9 2281.19,1423.04 2292.38,1423.05 "/>
<polyline clip-path="url(#clip352)" style="stroke:#3da44d; stroke-linecap:round; stroke-linejoin:round; stroke-width:4; stroke-opacity:1; fill:none" points="626.45,1422.72 632.865,1422.65 639.28,1422.57 676.852,1421.83 714.424,1420.33 731.903,1419.23 749.381,1417.75 772.809,1415.01 796.237,1411.13 805.916,1409.11 815.595,1406.81 825.275,1404.19 834.954,1401.23 843.955,1398.14 852.955,1394.7 861.956,1390.89 870.957,1386.66 882.256,1380.74 893.555,1374.08 904.854,1366.64 916.153,1358.37 926.288,1350.21 936.424,1341.33 946.559,1331.7 956.694,1321.31 968.295,1308.49 979.897,1294.67 991.498,1279.88 1003.1,1264.16 1011.77,1251.83 1020.44,1239.04 1029.11,1225.83 1037.79,1212.24 1059.97,1176.11 1082.15,1138.84 1102.4,1104.89 1122.65,1072.07 1128.41,1063.09 1134.17,1054.33 1139.93,1045.8 1145.69,1037.53 1151.45,1029.55 1157.21,1021.88 1162.97,1014.55 1168.73,1007.57 1177.87,997.315 1187,988.104 1196.13,980.02 1205.27,973.133 1210.94,969.485 1216.61,966.333 1222.29,963.69 1227.96,961.564 1233.63,959.963 1239.31,958.892 1244.98,958.355 1250.65,958.353 1259.34,959.388 1268.03,961.672 1276.72,965.184 1285.41,969.898 1291.54,973.922 1297.67,978.509 1303.79,983.64 1309.92,989.296 1316.04,995.454 1322.17,1002.09 1328.29,1009.18 1334.42,1016.7 1343.58,1028.67 1352.73,1041.44 1361.89,1054.9 1371.04,1068.96 1391.87,1102.56 1412.69,1137.45 1433.31,1172.13 1453.93,1205.94 1465.28,1223.85 1476.62,1241.13 1487.97,1257.67 1499.31,1273.4 1507.98,1284.84 1516.64,1295.74 1525.31,1306.1 1533.97,1315.9 1544.91,1327.48 1555.84,1338.18 1566.78,1348 1577.71,1356.97 1587.82,1364.53 1597.94,1371.43 1608.05,1377.67 1618.16,1383.31 1628.59,1388.53 1639.02,1393.19 1649.45,1397.31 1659.88,1400.96 1670.46,1404.21 1681.03,1407.05 1691.6,1409.52 1702.17,1411.65 1724.25,1415.2 1746.33,1417.75 1763.72,1419.22 1781.12,1420.33 1820.72,1421.88 1860.33,1422.62 1864.78,1422.67 1869.22,1422.72 "/>
<polyline clip-path="url(#clip352)" style="stroke:#c271d2; stroke-linecap:round; stroke-linejoin:round; stroke-width:4; stroke-opacity:1; fill:none" points="527.396,1422.72 533.811,1422.65 540.226,1422.57 577.798,1421.83 615.37,1420.33 632.848,1419.23 650.327,1417.75 673.754,1415.01 697.182,1411.13 706.861,1409.11 716.541,1406.81 726.22,1404.19 735.899,1401.23 744.9,1398.14 753.901,1394.7 762.901,1390.89 771.902,1386.66 783.201,1380.74 794.5,1374.08 805.799,1366.64 817.098,1358.37 827.233,1350.21 837.369,1341.33 847.504,1331.7 857.639,1321.31 869.241,1308.49 880.842,1294.67 892.443,1279.88 904.044,1264.16 912.716,1251.83 921.388,1239.04 930.06,1225.83 938.732,1212.24 960.915,1176.11 983.098,1138.84 1003.34,1104.89 1023.59,1072.07 1029.35,1063.09 1035.11,1054.33 1040.87,1045.8 1046.63,1037.53 1052.39,1029.55 1058.16,1021.88 1063.92,1014.55 1069.68,1007.57 1078.81,997.315 1087.94,988.104 1097.08,980.02 1106.21,973.133 1111.88,969.485 1117.56,966.333 1123.23,963.69 1128.9,961.564 1134.58,959.963 1140.25,958.892 1145.93,958.355 1151.6,958.353 1160.29,959.388 1168.98,961.672 1177.67,965.184 1186.36,969.898 1192.49,973.922 1198.61,978.509 1204.74,983.64 1210.86,989.296 1216.99,995.454 1223.11,1002.09 1229.24,1009.18 1235.37,1016.7 1244.52,1028.67 1253.68,1041.44 1262.83,1054.9 1271.99,1068.96 1292.81,1102.56 1313.64,1137.45 1334.26,1172.13 1354.88,1205.94 1366.22,1223.85 1377.57,1241.13 1388.91,1257.67 1400.26,1273.4 1408.92,1284.84 1417.59,1295.74 1426.25,1306.1 1434.92,1315.9 1445.85,1327.48 1456.79,1338.18 1467.72,1348 1478.66,1356.97 1488.77,1364.53 1498.88,1371.43 1509,1377.67 1519.11,1383.31 1529.54,1388.53 1539.97,1393.19 1550.4,1397.31 1560.83,1400.96 1571.4,1404.21 1581.97,1407.05 1592.55,1409.52 1603.12,1411.65 1625.2,1415.2 1647.28,1417.75 1664.67,1419.22 1682.06,1420.33 1721.67,1421.88 1761.28,1422.62 1765.72,1422.67 1770.16,1422.72 "/>
<polyline clip-path="url(#clip352)" style="stroke:#ac8d18; stroke-linecap:round; stroke-linejoin:round; stroke-width:4; stroke-opacity:1; fill:none" points="279.759,1422.72 286.174,1422.65 292.589,1422.57 330.161,1421.83 367.733,1420.33 385.211,1419.23 402.69,1417.75 426.117,1415.01 449.545,1411.13 459.224,1409.11 468.904,1406.81 478.583,1404.19 488.262,1401.23 497.263,1398.14 506.264,1394.7 515.264,1390.89 524.265,1386.66 535.564,1380.74 546.863,1374.08 558.162,1366.64 569.461,1358.37 579.597,1350.21 589.732,1341.33 599.867,1331.7 610.003,1321.31 621.604,1308.49 633.205,1294.67 644.806,1279.88 656.407,1264.16 665.079,1251.83 673.751,1239.04 682.423,1225.83 691.095,1212.24 713.278,1176.11 735.461,1138.84 755.708,1104.89 775.954,1072.07 781.715,1063.09 787.476,1054.33 793.237,1045.8 798.997,1037.53 804.758,1029.55 810.519,1021.88 816.28,1014.55 822.04,1007.57 831.174,997.315 840.307,988.104 849.441,980.02 858.574,973.133 864.248,969.485 869.921,966.333 875.595,963.69 881.268,961.564 886.942,959.963 892.615,958.892 898.289,958.355 903.962,958.353 912.652,959.388 921.342,961.672 930.032,965.184 938.722,969.898 944.848,973.922 950.974,978.509 957.1,983.64 963.226,989.296 969.352,995.454 975.477,1002.09 981.603,1009.18 987.729,1016.7 996.885,1028.67 1006.04,1041.44 1015.2,1054.9 1024.35,1068.96 1045.17,1102.56 1066,1137.45 1086.62,1172.13 1107.24,1205.94 1118.59,1223.85 1129.93,1241.13 1141.28,1257.67 1152.62,1273.4 1161.29,1284.84 1169.95,1295.74 1178.62,1306.1 1187.28,1315.9 1198.22,1327.48 1209.15,1338.18 1220.08,1348 1231.02,1356.97 1241.13,1364.53 1251.25,1371.43 1261.36,1377.67 1271.47,1383.31 1281.9,1388.53 1292.33,1393.19 1302.76,1397.31 1313.19,1400.96 1323.77,1404.21 1334.34,1407.05 1344.91,1409.52 1355.48,1411.65 1377.56,1415.2 1399.64,1417.75 1417.03,1419.22 1434.42,1420.33 1474.03,1421.88 1513.64,1422.62 1518.08,1422.67 1522.53,1422.72 "/>
<path clip-path="url(#clip350)" d="M1527.68 404.149 L2281.64 404.149 L2281.64 93.1086 L1527.68 93.1086  Z" fill="#ffffff" fill-rule="evenodd" fill-opacity="1"/>
<polyline clip-path="url(#clip350)" style="stroke:#000000; stroke-linecap:round; stroke-linejoin:round; stroke-width:4; stroke-opacity:1; fill:none" points="1527.68,404.149 2281.64,404.149 2281.64,93.1086 1527.68,93.1086 1527.68,404.149 "/>
<path clip-path="url(#clip350)" d="M1551.39 165.685 L1693.61 165.685 L1693.61 124.213 L1551.39 124.213 L1551.39 165.685  Z" fill="#009af9" fill-rule="evenodd" fill-opacity="1"/>
<polyline clip-path="url(#clip350)" style="stroke:#000000; stroke-linecap:round; stroke-linejoin:round; stroke-width:4; stroke-opacity:1; fill:none" points="1551.39,165.685 1693.61,165.685 1693.61,124.213 1551.39,124.213 1551.39,165.685 "/>
<path clip-path="url(#clip350)" d="M1721.99 131.511 L1721.99 158.386 L1727.64 158.386 Q1734.79 158.386 1738.1 155.145 Q1741.44 151.905 1741.44 144.914 Q1741.44 137.969 1738.1 134.752 Q1734.79 131.511 1727.64 131.511 L1721.99 131.511 M1717.32 127.669 L1726.92 127.669 Q1736.97 127.669 1741.67 131.858 Q1746.37 136.025 1746.37 144.914 Q1746.37 153.849 1741.65 158.039 Q1736.92 162.229 1726.92 162.229 L1717.32 162.229 L1717.32 127.669 Z" fill="#000000" fill-rule="nonzero" fill-opacity="1" /><path clip-path="url(#clip350)" d="M1765.42 149.196 Q1760.26 149.196 1758.27 150.377 Q1756.28 151.557 1756.28 154.405 Q1756.28 156.673 1757.76 158.016 Q1759.26 159.335 1761.83 159.335 Q1765.37 159.335 1767.5 156.835 Q1769.65 154.312 1769.65 150.145 L1769.65 149.196 L1765.42 149.196 M1773.91 147.437 L1773.91 162.229 L1769.65 162.229 L1769.65 158.293 Q1768.2 160.655 1766.02 161.789 Q1763.84 162.9 1760.7 162.9 Q1756.72 162.9 1754.35 160.678 Q1752.02 158.432 1752.02 154.682 Q1752.02 150.307 1754.93 148.085 Q1757.87 145.863 1763.68 145.863 L1769.65 145.863 L1769.65 145.446 Q1769.65 142.507 1767.71 140.909 Q1765.79 139.289 1762.29 139.289 Q1760.07 139.289 1757.97 139.821 Q1755.86 140.354 1753.91 141.419 L1753.91 137.483 Q1756.25 136.581 1758.45 136.141 Q1760.65 135.678 1762.73 135.678 Q1768.36 135.678 1771.14 138.594 Q1773.91 141.511 1773.91 147.437 Z" fill="#000000" fill-rule="nonzero" fill-opacity="1" /><path clip-path="url(#clip350)" d="M1786.9 128.942 L1786.9 136.303 L1795.67 136.303 L1795.67 139.613 L1786.9 139.613 L1786.9 153.687 Q1786.9 156.858 1787.76 157.761 Q1788.64 158.664 1791.3 158.664 L1795.67 158.664 L1795.67 162.229 L1791.3 162.229 Q1786.37 162.229 1784.49 160.4 Q1782.62 158.548 1782.62 153.687 L1782.62 139.613 L1779.49 139.613 L1779.49 136.303 L1782.62 136.303 L1782.62 128.942 L1786.9 128.942 Z" fill="#000000" fill-rule="nonzero" fill-opacity="1" /><path clip-path="url(#clip350)" d="M1813.06 149.196 Q1807.9 149.196 1805.9 150.377 Q1803.91 151.557 1803.91 154.405 Q1803.91 156.673 1805.4 158.016 Q1806.9 159.335 1809.47 159.335 Q1813.01 159.335 1815.14 156.835 Q1817.29 154.312 1817.29 150.145 L1817.29 149.196 L1813.06 149.196 M1821.55 147.437 L1821.55 162.229 L1817.29 162.229 L1817.29 158.293 Q1815.84 160.655 1813.66 161.789 Q1811.48 162.9 1808.34 162.9 Q1804.35 162.9 1801.99 160.678 Q1799.65 158.432 1799.65 154.682 Q1799.65 150.307 1802.57 148.085 Q1805.51 145.863 1811.32 145.863 L1817.29 145.863 L1817.29 145.446 Q1817.29 142.507 1815.35 140.909 Q1813.43 139.289 1809.93 139.289 Q1807.71 139.289 1805.6 139.821 Q1803.5 140.354 1801.55 141.419 L1801.55 137.483 Q1803.89 136.581 1806.09 136.141 Q1808.29 135.678 1810.37 135.678 Q1816 135.678 1818.77 138.594 Q1821.55 141.511 1821.55 147.437 Z" fill="#000000" fill-rule="nonzero" fill-opacity="1" /><polyline clip-path="url(#clip350)" style="stroke:#e26f46; stroke-linecap:round; stroke-linejoin:round; stroke-width:4; stroke-opacity:1; fill:none" points="1551.39,196.789 1693.61,196.789 "/>
<path clip-path="url(#clip350)" d="M1721.99 183.351 L1721.99 196.337 L1727.87 196.337 Q1731.14 196.337 1732.92 194.647 Q1734.7 192.958 1734.7 189.833 Q1734.7 186.731 1732.92 185.041 Q1731.14 183.351 1727.87 183.351 L1721.99 183.351 M1717.32 179.509 L1727.87 179.509 Q1733.68 179.509 1736.65 182.147 Q1739.63 184.763 1739.63 189.833 Q1739.63 194.948 1736.65 197.564 Q1733.68 200.18 1727.87 200.18 L1721.99 200.18 L1721.99 214.069 L1717.32 214.069 L1717.32 179.509 Z" fill="#000000" fill-rule="nonzero" fill-opacity="1" /><path clip-path="url(#clip350)" d="M1759.91 192.124 Q1759.19 191.708 1758.34 191.522 Q1757.5 191.314 1756.48 191.314 Q1752.87 191.314 1750.93 193.675 Q1749.01 196.013 1749.01 200.411 L1749.01 214.069 L1744.72 214.069 L1744.72 188.143 L1749.01 188.143 L1749.01 192.171 Q1750.35 189.809 1752.5 188.675 Q1754.65 187.518 1757.73 187.518 Q1758.17 187.518 1758.71 187.587 Q1759.24 187.634 1759.89 187.749 L1759.91 192.124 Z" fill="#000000" fill-rule="nonzero" fill-opacity="1" /><path clip-path="url(#clip350)" d="M1764.38 188.143 L1768.64 188.143 L1768.64 214.069 L1764.38 214.069 L1764.38 188.143 M1764.38 178.05 L1768.64 178.05 L1768.64 183.444 L1764.38 183.444 L1764.38 178.05 Z" fill="#000000" fill-rule="nonzero" fill-opacity="1" /><path clip-path="url(#clip350)" d="M1787.59 191.129 Q1784.17 191.129 1782.18 193.814 Q1780.19 196.476 1780.19 201.129 Q1780.19 205.782 1782.15 208.467 Q1784.15 211.129 1787.59 211.129 Q1791 211.129 1792.99 208.444 Q1794.98 205.758 1794.98 201.129 Q1794.98 196.522 1792.99 193.837 Q1791 191.129 1787.59 191.129 M1787.59 187.518 Q1793.15 187.518 1796.32 191.129 Q1799.49 194.74 1799.49 201.129 Q1799.49 207.495 1796.32 211.129 Q1793.15 214.74 1787.59 214.74 Q1782.02 214.74 1778.84 211.129 Q1775.7 207.495 1775.7 201.129 Q1775.7 194.74 1778.84 191.129 Q1782.02 187.518 1787.59 187.518 Z" fill="#000000" fill-rule="nonzero" fill-opacity="1" /><path clip-path="url(#clip350)" d="M1821.58 192.124 Q1820.86 191.708 1820 191.522 Q1819.17 191.314 1818.15 191.314 Q1814.54 191.314 1812.59 193.675 Q1810.67 196.013 1810.67 200.411 L1810.67 214.069 L1806.39 214.069 L1806.39 188.143 L1810.67 188.143 L1810.67 192.171 Q1812.02 189.809 1814.17 188.675 Q1816.32 187.518 1819.4 187.518 Q1819.84 187.518 1820.37 187.587 Q1820.9 187.634 1821.55 187.749 L1821.58 192.124 Z" fill="#000000" fill-rule="nonzero" fill-opacity="1" /><path clip-path="url(#clip350)" d="M1858.17 192.078 L1858.17 178.05 L1862.43 178.05 L1862.43 214.069 L1858.17 214.069 L1858.17 210.18 Q1856.83 212.495 1854.77 213.629 Q1852.73 214.74 1849.86 214.74 Q1845.16 214.74 1842.2 210.99 Q1839.26 207.24 1839.26 201.129 Q1839.26 195.018 1842.2 191.268 Q1845.16 187.518 1849.86 187.518 Q1852.73 187.518 1854.77 188.652 Q1856.83 189.763 1858.17 192.078 M1843.66 201.129 Q1843.66 205.828 1845.58 208.513 Q1847.52 211.175 1850.9 211.175 Q1854.28 211.175 1856.23 208.513 Q1858.17 205.828 1858.17 201.129 Q1858.17 196.43 1856.23 193.768 Q1854.28 191.083 1850.9 191.083 Q1847.52 191.083 1845.58 193.768 Q1843.66 196.43 1843.66 201.129 Z" fill="#000000" fill-rule="nonzero" fill-opacity="1" /><path clip-path="url(#clip350)" d="M1871.21 188.143 L1875.46 188.143 L1875.46 214.069 L1871.21 214.069 L1871.21 188.143 M1871.21 178.05 L1875.46 178.05 L1875.46 183.444 L1871.21 183.444 L1871.21 178.05 Z" fill="#000000" fill-rule="nonzero" fill-opacity="1" /><path clip-path="url(#clip350)" d="M1900.9 188.907 L1900.9 192.934 Q1899.1 192.009 1897.15 191.546 Q1895.21 191.083 1893.13 191.083 Q1889.96 191.083 1888.36 192.055 Q1886.78 193.027 1886.78 194.971 Q1886.78 196.453 1887.92 197.309 Q1889.05 198.143 1892.48 198.907 L1893.94 199.231 Q1898.47 200.203 1900.37 201.985 Q1902.29 203.745 1902.29 206.916 Q1902.29 210.527 1899.42 212.633 Q1896.58 214.74 1891.58 214.74 Q1889.49 214.74 1887.22 214.323 Q1884.98 213.93 1882.48 213.12 L1882.48 208.721 Q1884.84 209.948 1887.13 210.573 Q1889.42 211.175 1891.67 211.175 Q1894.68 211.175 1896.3 210.157 Q1897.92 209.115 1897.92 207.24 Q1897.92 205.504 1896.74 204.578 Q1895.58 203.652 1891.62 202.796 L1890.14 202.448 Q1886.18 201.615 1884.42 199.902 Q1882.66 198.166 1882.66 195.157 Q1882.66 191.499 1885.26 189.509 Q1887.85 187.518 1892.62 187.518 Q1894.98 187.518 1897.06 187.865 Q1899.14 188.212 1900.9 188.907 Z" fill="#000000" fill-rule="nonzero" fill-opacity="1" /><path clip-path="url(#clip350)" d="M1913.29 180.782 L1913.29 188.143 L1922.06 188.143 L1922.06 191.453 L1913.29 191.453 L1913.29 205.527 Q1913.29 208.698 1914.14 209.601 Q1915.02 210.504 1917.69 210.504 L1922.06 210.504 L1922.06 214.069 L1917.69 214.069 Q1912.76 214.069 1910.88 212.24 Q1909.01 210.388 1909.01 205.527 L1909.01 191.453 L1905.88 191.453 L1905.88 188.143 L1909.01 188.143 L1909.01 180.782 L1913.29 180.782 Z" fill="#000000" fill-rule="nonzero" fill-opacity="1" /><path clip-path="url(#clip350)" d="M1942.69 192.124 Q1941.97 191.708 1941.11 191.522 Q1940.28 191.314 1939.26 191.314 Q1935.65 191.314 1933.7 193.675 Q1931.78 196.013 1931.78 200.411 L1931.78 214.069 L1927.5 214.069 L1927.5 188.143 L1931.78 188.143 L1931.78 192.171 Q1933.13 189.809 1935.28 188.675 Q1937.43 187.518 1940.51 187.518 Q1940.95 187.518 1941.48 187.587 Q1942.01 187.634 1942.66 187.749 L1942.69 192.124 Z" fill="#000000" fill-rule="nonzero" fill-opacity="1" /><path clip-path="url(#clip350)" d="M1947.15 188.143 L1951.41 188.143 L1951.41 214.069 L1947.15 214.069 L1947.15 188.143 M1947.15 178.05 L1951.41 178.05 L1951.41 183.444 L1947.15 183.444 L1947.15 178.05 Z" fill="#000000" fill-rule="nonzero" fill-opacity="1" /><path clip-path="url(#clip350)" d="M1978.94 201.129 Q1978.94 196.43 1976.99 193.768 Q1975.07 191.083 1971.69 191.083 Q1968.31 191.083 1966.37 193.768 Q1964.45 196.43 1964.45 201.129 Q1964.45 205.828 1966.37 208.513 Q1968.31 211.175 1971.69 211.175 Q1975.07 211.175 1976.99 208.513 Q1978.94 205.828 1978.94 201.129 M1964.45 192.078 Q1965.79 189.763 1967.83 188.652 Q1969.89 187.518 1972.73 187.518 Q1977.45 187.518 1980.39 191.268 Q1983.36 195.018 1983.36 201.129 Q1983.36 207.24 1980.39 210.99 Q1977.45 214.74 1972.73 214.74 Q1969.89 214.74 1967.83 213.629 Q1965.79 212.495 1964.45 210.18 L1964.45 214.069 L1960.16 214.069 L1960.16 178.05 L1964.45 178.05 L1964.45 192.078 Z" fill="#000000" fill-rule="nonzero" fill-opacity="1" /><path clip-path="url(#clip350)" d="M1989.98 203.837 L1989.98 188.143 L1994.24 188.143 L1994.24 203.675 Q1994.24 207.356 1995.67 209.208 Q1997.11 211.036 1999.98 211.036 Q2003.43 211.036 2005.42 208.837 Q2007.43 206.638 2007.43 202.842 L2007.43 188.143 L2011.69 188.143 L2011.69 214.069 L2007.43 214.069 L2007.43 210.087 Q2005.88 212.448 2003.82 213.606 Q2001.78 214.74 1999.07 214.74 Q1994.61 214.74 1992.29 211.962 Q1989.98 209.184 1989.98 203.837 M2000.7 187.518 L2000.7 187.518 Z" fill="#000000" fill-rule="nonzero" fill-opacity="1" /><path clip-path="url(#clip350)" d="M2024.68 180.782 L2024.68 188.143 L2033.45 188.143 L2033.45 191.453 L2024.68 191.453 L2024.68 205.527 Q2024.68 208.698 2025.53 209.601 Q2026.41 210.504 2029.07 210.504 L2033.45 210.504 L2033.45 214.069 L2029.07 214.069 Q2024.14 214.069 2022.27 212.24 Q2020.39 210.388 2020.39 205.527 L2020.39 191.453 L2017.27 191.453 L2017.27 188.143 L2020.39 188.143 L2020.39 180.782 L2024.68 180.782 Z" fill="#000000" fill-rule="nonzero" fill-opacity="1" /><path clip-path="url(#clip350)" d="M2039.05 188.143 L2043.31 188.143 L2043.31 214.069 L2039.05 214.069 L2039.05 188.143 M2039.05 178.05 L2043.31 178.05 L2043.31 183.444 L2039.05 183.444 L2039.05 178.05 Z" fill="#000000" fill-rule="nonzero" fill-opacity="1" /><path clip-path="url(#clip350)" d="M2062.27 191.129 Q2058.84 191.129 2056.85 193.814 Q2054.86 196.476 2054.86 201.129 Q2054.86 205.782 2056.83 208.467 Q2058.82 211.129 2062.27 211.129 Q2065.67 211.129 2067.66 208.444 Q2069.65 205.758 2069.65 201.129 Q2069.65 196.522 2067.66 193.837 Q2065.67 191.129 2062.27 191.129 M2062.27 187.518 Q2067.82 187.518 2071 191.129 Q2074.17 194.74 2074.17 201.129 Q2074.17 207.495 2071 211.129 Q2067.82 214.74 2062.27 214.74 Q2056.69 214.74 2053.52 211.129 Q2050.37 207.495 2050.37 201.129 Q2050.37 194.74 2053.52 191.129 Q2056.69 187.518 2062.27 187.518 Z" fill="#000000" fill-rule="nonzero" fill-opacity="1" /><path clip-path="url(#clip350)" d="M2102.78 198.421 L2102.78 214.069 L2098.52 214.069 L2098.52 198.559 Q2098.52 194.879 2097.08 193.05 Q2095.65 191.222 2092.78 191.222 Q2089.33 191.222 2087.34 193.421 Q2085.35 195.62 2085.35 199.416 L2085.35 214.069 L2081.07 214.069 L2081.07 188.143 L2085.35 188.143 L2085.35 192.171 Q2086.88 189.833 2088.94 188.675 Q2091.02 187.518 2093.73 187.518 Q2098.19 187.518 2100.49 190.296 Q2102.78 193.05 2102.78 198.421 Z" fill="#000000" fill-rule="nonzero" fill-opacity="1" /><polyline clip-path="url(#clip350)" style="stroke:#3da44d; stroke-linecap:round; stroke-linejoin:round; stroke-width:4; stroke-opacity:1; fill:none" points="1551.39,248.629 1693.61,248.629 "/>
<path clip-path="url(#clip350)" d="M1721.99 235.191 L1721.99 248.177 L1727.87 248.177 Q1731.14 248.177 1732.92 246.487 Q1734.7 244.798 1734.7 241.673 Q1734.7 238.571 1732.92 236.881 Q1731.14 235.191 1727.87 235.191 L1721.99 235.191 M1717.32 231.349 L1727.87 231.349 Q1733.68 231.349 1736.65 233.987 Q1739.63 236.603 1739.63 241.673 Q1739.63 246.788 1736.65 249.404 Q1733.68 252.02 1727.87 252.02 L1721.99 252.02 L1721.99 265.909 L1717.32 265.909 L1717.32 231.349 Z" fill="#000000" fill-rule="nonzero" fill-opacity="1" /><path clip-path="url(#clip350)" d="M1754.08 242.969 Q1750.65 242.969 1748.66 245.654 Q1746.67 248.316 1746.67 252.969 Q1746.67 257.622 1748.64 260.307 Q1750.63 262.969 1754.08 262.969 Q1757.48 262.969 1759.47 260.284 Q1761.46 257.598 1761.46 252.969 Q1761.46 248.362 1759.47 245.677 Q1757.48 242.969 1754.08 242.969 M1754.08 239.358 Q1759.63 239.358 1762.8 242.969 Q1765.97 246.58 1765.97 252.969 Q1765.97 259.335 1762.8 262.969 Q1759.63 266.58 1754.08 266.58 Q1748.5 266.58 1745.33 262.969 Q1742.18 259.335 1742.18 252.969 Q1742.18 246.58 1745.33 242.969 Q1748.5 239.358 1754.08 239.358 Z" fill="#000000" fill-rule="nonzero" fill-opacity="1" /><path clip-path="url(#clip350)" d="M1777.25 232.622 L1777.25 239.983 L1786.02 239.983 L1786.02 243.293 L1777.25 243.293 L1777.25 257.367 Q1777.25 260.538 1778.1 261.441 Q1778.98 262.344 1781.65 262.344 L1786.02 262.344 L1786.02 265.909 L1781.65 265.909 Q1776.71 265.909 1774.84 264.08 Q1772.96 262.228 1772.96 257.367 L1772.96 243.293 L1769.84 243.293 L1769.84 239.983 L1772.96 239.983 L1772.96 232.622 L1777.25 232.622 Z" fill="#000000" fill-rule="nonzero" fill-opacity="1" /><path clip-path="url(#clip350)" d="M1813.8 251.881 L1813.8 253.964 L1794.21 253.964 Q1794.49 258.362 1796.85 260.677 Q1799.24 262.969 1803.47 262.969 Q1805.93 262.969 1808.22 262.367 Q1810.53 261.765 1812.8 260.561 L1812.8 264.589 Q1810.51 265.561 1808.1 266.071 Q1805.7 266.58 1803.22 266.58 Q1797.02 266.58 1793.38 262.969 Q1789.77 259.358 1789.77 253.2 Q1789.77 246.835 1793.2 243.108 Q1796.65 239.358 1802.48 239.358 Q1807.71 239.358 1810.74 242.737 Q1813.8 246.094 1813.8 251.881 M1809.54 250.631 Q1809.49 247.136 1807.57 245.052 Q1805.67 242.969 1802.52 242.969 Q1798.96 242.969 1796.81 244.983 Q1794.68 246.997 1794.35 250.654 L1809.54 250.631 Z" fill="#000000" fill-rule="nonzero" fill-opacity="1" /><path clip-path="url(#clip350)" d="M1842.34 250.261 L1842.34 265.909 L1838.08 265.909 L1838.08 250.399 Q1838.08 246.719 1836.65 244.89 Q1835.21 243.062 1832.34 243.062 Q1828.89 243.062 1826.9 245.261 Q1824.91 247.46 1824.91 251.256 L1824.91 265.909 L1820.63 265.909 L1820.63 239.983 L1824.91 239.983 L1824.91 244.011 Q1826.44 241.673 1828.5 240.515 Q1830.58 239.358 1833.29 239.358 Q1837.76 239.358 1840.05 242.136 Q1842.34 244.89 1842.34 250.261 Z" fill="#000000" fill-rule="nonzero" fill-opacity="1" /><path clip-path="url(#clip350)" d="M1855.05 232.622 L1855.05 239.983 L1863.82 239.983 L1863.82 243.293 L1855.05 243.293 L1855.05 257.367 Q1855.05 260.538 1855.9 261.441 Q1856.78 262.344 1859.45 262.344 L1863.82 262.344 L1863.82 265.909 L1859.45 265.909 Q1854.52 265.909 1852.64 264.08 Q1850.77 262.228 1850.77 257.367 L1850.77 243.293 L1847.64 243.293 L1847.64 239.983 L1850.77 239.983 L1850.77 232.622 L1855.05 232.622 Z" fill="#000000" fill-rule="nonzero" fill-opacity="1" /><path clip-path="url(#clip350)" d="M1869.42 239.983 L1873.68 239.983 L1873.68 265.909 L1869.42 265.909 L1869.42 239.983 M1869.42 229.89 L1873.68 229.89 L1873.68 235.284 L1869.42 235.284 L1869.42 229.89 Z" fill="#000000" fill-rule="nonzero" fill-opacity="1" /><path clip-path="url(#clip350)" d="M1894.38 252.876 Q1889.21 252.876 1887.22 254.057 Q1885.23 255.237 1885.23 258.085 Q1885.23 260.353 1886.71 261.696 Q1888.22 263.015 1890.79 263.015 Q1894.33 263.015 1896.46 260.515 Q1898.61 257.992 1898.61 253.825 L1898.61 252.876 L1894.38 252.876 M1902.87 251.117 L1902.87 265.909 L1898.61 265.909 L1898.61 261.973 Q1897.15 264.335 1894.98 265.469 Q1892.8 266.58 1889.65 266.58 Q1885.67 266.58 1883.31 264.358 Q1880.97 262.112 1880.97 258.362 Q1880.97 253.987 1883.89 251.765 Q1886.83 249.543 1892.64 249.543 L1898.61 249.543 L1898.61 249.126 Q1898.61 246.187 1896.67 244.589 Q1894.75 242.969 1891.25 242.969 Q1889.03 242.969 1886.92 243.501 Q1884.82 244.034 1882.87 245.099 L1882.87 241.163 Q1885.21 240.261 1887.41 239.821 Q1889.61 239.358 1891.69 239.358 Q1897.32 239.358 1900.09 242.274 Q1902.87 245.191 1902.87 251.117 Z" fill="#000000" fill-rule="nonzero" fill-opacity="1" /><path clip-path="url(#clip350)" d="M1911.64 229.89 L1915.9 229.89 L1915.9 265.909 L1911.64 265.909 L1911.64 229.89 Z" fill="#000000" fill-rule="nonzero" fill-opacity="1" /><path clip-path="url(#clip350)" d="M1956.95 243.918 L1956.95 229.89 L1961.2 229.89 L1961.2 265.909 L1956.95 265.909 L1956.95 262.02 Q1955.6 264.335 1953.54 265.469 Q1951.51 266.58 1948.64 266.58 Q1943.94 266.58 1940.97 262.83 Q1938.03 259.08 1938.03 252.969 Q1938.03 246.858 1940.97 243.108 Q1943.94 239.358 1948.64 239.358 Q1951.51 239.358 1953.54 240.492 Q1955.6 241.603 1956.95 243.918 M1942.43 252.969 Q1942.43 257.668 1944.35 260.353 Q1946.3 263.015 1949.68 263.015 Q1953.06 263.015 1955 260.353 Q1956.95 257.668 1956.95 252.969 Q1956.95 248.27 1955 245.608 Q1953.06 242.923 1949.68 242.923 Q1946.3 242.923 1944.35 245.608 Q1942.43 248.27 1942.43 252.969 Z" fill="#000000" fill-rule="nonzero" fill-opacity="1" /><path clip-path="url(#clip350)" d="M1969.98 239.983 L1974.24 239.983 L1974.24 265.909 L1969.98 265.909 L1969.98 239.983 M1969.98 229.89 L1974.24 229.89 L1974.24 235.284 L1969.98 235.284 L1969.98 229.89 Z" fill="#000000" fill-rule="nonzero" fill-opacity="1" /><path clip-path="url(#clip350)" d="M1999.68 240.747 L1999.68 244.774 Q1997.87 243.849 1995.93 243.386 Q1993.98 242.923 1991.9 242.923 Q1988.73 242.923 1987.13 243.895 Q1985.56 244.867 1985.56 246.811 Q1985.56 248.293 1986.69 249.149 Q1987.82 249.983 1991.25 250.747 L1992.71 251.071 Q1997.25 252.043 1999.14 253.825 Q2001.07 255.585 2001.07 258.756 Q2001.07 262.367 1998.2 264.473 Q1995.35 266.58 1990.35 266.58 Q1988.26 266.58 1986 266.163 Q1983.75 265.77 1981.25 264.96 L1981.25 260.561 Q1983.61 261.788 1985.9 262.413 Q1988.2 263.015 1990.44 263.015 Q1993.45 263.015 1995.07 261.997 Q1996.69 260.955 1996.69 259.08 Q1996.69 257.344 1995.51 256.418 Q1994.35 255.492 1990.39 254.636 L1988.91 254.288 Q1984.95 253.455 1983.2 251.742 Q1981.44 250.006 1981.44 246.997 Q1981.44 243.339 1984.03 241.349 Q1986.62 239.358 1991.39 239.358 Q1993.75 239.358 1995.83 239.705 Q1997.92 240.052 1999.68 240.747 Z" fill="#000000" fill-rule="nonzero" fill-opacity="1" /><path clip-path="url(#clip350)" d="M2012.06 232.622 L2012.06 239.983 L2020.83 239.983 L2020.83 243.293 L2012.06 243.293 L2012.06 257.367 Q2012.06 260.538 2012.92 261.441 Q2013.8 262.344 2016.46 262.344 L2020.83 262.344 L2020.83 265.909 L2016.46 265.909 Q2011.53 265.909 2009.65 264.08 Q2007.78 262.228 2007.78 257.367 L2007.78 243.293 L2004.65 243.293 L2004.65 239.983 L2007.78 239.983 L2007.78 232.622 L2012.06 232.622 Z" fill="#000000" fill-rule="nonzero" fill-opacity="1" /><path clip-path="url(#clip350)" d="M2041.46 243.964 Q2040.74 243.548 2039.88 243.362 Q2039.05 243.154 2038.03 243.154 Q2034.42 243.154 2032.48 245.515 Q2030.56 247.853 2030.56 252.251 L2030.56 265.909 L2026.27 265.909 L2026.27 239.983 L2030.56 239.983 L2030.56 244.011 Q2031.9 241.649 2034.05 240.515 Q2036.2 239.358 2039.28 239.358 Q2039.72 239.358 2040.26 239.427 Q2040.79 239.474 2041.44 239.589 L2041.46 243.964 Z" fill="#000000" fill-rule="nonzero" fill-opacity="1" /><path clip-path="url(#clip350)" d="M2045.93 239.983 L2050.19 239.983 L2050.19 265.909 L2045.93 265.909 L2045.93 239.983 M2045.93 229.89 L2050.19 229.89 L2050.19 235.284 L2045.93 235.284 L2045.93 229.89 Z" fill="#000000" fill-rule="nonzero" fill-opacity="1" /><path clip-path="url(#clip350)" d="M2077.71 252.969 Q2077.71 248.27 2075.76 245.608 Q2073.84 242.923 2070.46 242.923 Q2067.08 242.923 2065.14 245.608 Q2063.22 248.27 2063.22 252.969 Q2063.22 257.668 2065.14 260.353 Q2067.08 263.015 2070.46 263.015 Q2073.84 263.015 2075.76 260.353 Q2077.71 257.668 2077.71 252.969 M2063.22 243.918 Q2064.56 241.603 2066.6 240.492 Q2068.66 239.358 2071.51 239.358 Q2076.23 239.358 2079.17 243.108 Q2082.13 246.858 2082.13 252.969 Q2082.13 259.08 2079.17 262.83 Q2076.23 266.58 2071.51 266.58 Q2068.66 266.58 2066.6 265.469 Q2064.56 264.335 2063.22 262.02 L2063.22 265.909 L2058.94 265.909 L2058.94 229.89 L2063.22 229.89 L2063.22 243.918 Z" fill="#000000" fill-rule="nonzero" fill-opacity="1" /><path clip-path="url(#clip350)" d="M2088.75 255.677 L2088.75 239.983 L2093.01 239.983 L2093.01 255.515 Q2093.01 259.196 2094.44 261.048 Q2095.88 262.876 2098.75 262.876 Q2102.2 262.876 2104.19 260.677 Q2106.2 258.478 2106.2 254.682 L2106.2 239.983 L2110.46 239.983 L2110.46 265.909 L2106.2 265.909 L2106.2 261.927 Q2104.65 264.288 2102.59 265.446 Q2100.56 266.58 2097.85 266.58 Q2093.38 266.58 2091.07 263.802 Q2088.75 261.024 2088.75 255.677 M2099.47 239.358 L2099.47 239.358 Z" fill="#000000" fill-rule="nonzero" fill-opacity="1" /><path clip-path="url(#clip350)" d="M2123.45 232.622 L2123.45 239.983 L2132.22 239.983 L2132.22 243.293 L2123.45 243.293 L2123.45 257.367 Q2123.45 260.538 2124.31 261.441 Q2125.19 262.344 2127.85 262.344 L2132.22 262.344 L2132.22 265.909 L2127.85 265.909 Q2122.92 265.909 2121.04 264.08 Q2119.17 262.228 2119.17 257.367 L2119.17 243.293 L2116.04 243.293 L2116.04 239.983 L2119.17 239.983 L2119.17 232.622 L2123.45 232.622 Z" fill="#000000" fill-rule="nonzero" fill-opacity="1" /><path clip-path="url(#clip350)" d="M2137.82 239.983 L2142.08 239.983 L2142.08 265.909 L2137.82 265.909 L2137.82 239.983 M2137.82 229.89 L2142.08 229.89 L2142.08 235.284 L2137.82 235.284 L2137.82 229.89 Z" fill="#000000" fill-rule="nonzero" fill-opacity="1" /><path clip-path="url(#clip350)" d="M2161.04 242.969 Q2157.62 242.969 2155.62 245.654 Q2153.63 248.316 2153.63 252.969 Q2153.63 257.622 2155.6 260.307 Q2157.59 262.969 2161.04 262.969 Q2164.44 262.969 2166.44 260.284 Q2168.43 257.598 2168.43 252.969 Q2168.43 248.362 2166.44 245.677 Q2164.44 242.969 2161.04 242.969 M2161.04 239.358 Q2166.6 239.358 2169.77 242.969 Q2172.94 246.58 2172.94 252.969 Q2172.94 259.335 2169.77 262.969 Q2166.6 266.58 2161.04 266.58 Q2155.46 266.58 2152.29 262.969 Q2149.14 259.335 2149.14 252.969 Q2149.14 246.58 2152.29 242.969 Q2155.46 239.358 2161.04 239.358 Z" fill="#000000" fill-rule="nonzero" fill-opacity="1" /><path clip-path="url(#clip350)" d="M2201.55 250.261 L2201.55 265.909 L2197.29 265.909 L2197.29 250.399 Q2197.29 246.719 2195.86 244.89 Q2194.42 243.062 2191.55 243.062 Q2188.1 243.062 2186.11 245.261 Q2184.12 247.46 2184.12 251.256 L2184.12 265.909 L2179.84 265.909 L2179.84 239.983 L2184.12 239.983 L2184.12 244.011 Q2185.65 241.673 2187.71 240.515 Q2189.79 239.358 2192.5 239.358 Q2196.97 239.358 2199.26 242.136 Q2201.55 244.89 2201.55 250.261 Z" fill="#000000" fill-rule="nonzero" fill-opacity="1" /><path clip-path="url(#clip350)" d="M2225.3 231.349 L2229.98 231.349 L2229.98 265.909 L2225.3 265.909 L2225.3 231.349 Z" fill="#000000" fill-rule="nonzero" fill-opacity="1" /><polyline clip-path="url(#clip350)" style="stroke:#c271d2; stroke-linecap:round; stroke-linejoin:round; stroke-width:4; stroke-opacity:1; fill:none" points="1551.39,300.469 1693.61,300.469 "/>
<path clip-path="url(#clip350)" d="M1721.99 287.031 L1721.99 300.017 L1727.87 300.017 Q1731.14 300.017 1732.92 298.327 Q1734.7 296.638 1734.7 293.513 Q1734.7 290.411 1732.92 288.721 Q1731.14 287.031 1727.87 287.031 L1721.99 287.031 M1717.32 283.189 L1727.87 283.189 Q1733.68 283.189 1736.65 285.827 Q1739.63 288.443 1739.63 293.513 Q1739.63 298.628 1736.65 301.244 Q1733.68 303.86 1727.87 303.86 L1721.99 303.86 L1721.99 317.749 L1717.32 317.749 L1717.32 283.189 Z" fill="#000000" fill-rule="nonzero" fill-opacity="1" /><path clip-path="url(#clip350)" d="M1754.08 294.809 Q1750.65 294.809 1748.66 297.494 Q1746.67 300.156 1746.67 304.809 Q1746.67 309.462 1748.64 312.147 Q1750.63 314.809 1754.08 314.809 Q1757.48 314.809 1759.47 312.124 Q1761.46 309.438 1761.46 304.809 Q1761.46 300.202 1759.47 297.517 Q1757.48 294.809 1754.08 294.809 M1754.08 291.198 Q1759.63 291.198 1762.8 294.809 Q1765.97 298.42 1765.97 304.809 Q1765.97 311.175 1762.8 314.809 Q1759.63 318.42 1754.08 318.42 Q1748.5 318.42 1745.33 314.809 Q1742.18 311.175 1742.18 304.809 Q1742.18 298.42 1745.33 294.809 Q1748.5 291.198 1754.08 291.198 Z" fill="#000000" fill-rule="nonzero" fill-opacity="1" /><path clip-path="url(#clip350)" d="M1777.25 284.462 L1777.25 291.823 L1786.02 291.823 L1786.02 295.133 L1777.25 295.133 L1777.25 309.207 Q1777.25 312.378 1778.1 313.281 Q1778.98 314.184 1781.65 314.184 L1786.02 314.184 L1786.02 317.749 L1781.65 317.749 Q1776.71 317.749 1774.84 315.92 Q1772.96 314.068 1772.96 309.207 L1772.96 295.133 L1769.84 295.133 L1769.84 291.823 L1772.96 291.823 L1772.96 284.462 L1777.25 284.462 Z" fill="#000000" fill-rule="nonzero" fill-opacity="1" /><path clip-path="url(#clip350)" d="M1813.8 303.721 L1813.8 305.804 L1794.21 305.804 Q1794.49 310.202 1796.85 312.517 Q1799.24 314.809 1803.47 314.809 Q1805.93 314.809 1808.22 314.207 Q1810.53 313.605 1812.8 312.401 L1812.8 316.429 Q1810.51 317.401 1808.1 317.911 Q1805.7 318.42 1803.22 318.42 Q1797.02 318.42 1793.38 314.809 Q1789.77 311.198 1789.77 305.04 Q1789.77 298.675 1793.2 294.948 Q1796.65 291.198 1802.48 291.198 Q1807.71 291.198 1810.74 294.577 Q1813.8 297.934 1813.8 303.721 M1809.54 302.471 Q1809.49 298.976 1807.57 296.892 Q1805.67 294.809 1802.52 294.809 Q1798.96 294.809 1796.81 296.823 Q1794.68 298.837 1794.35 302.494 L1809.54 302.471 Z" fill="#000000" fill-rule="nonzero" fill-opacity="1" /><path clip-path="url(#clip350)" d="M1842.34 302.101 L1842.34 317.749 L1838.08 317.749 L1838.08 302.239 Q1838.08 298.559 1836.65 296.73 Q1835.21 294.902 1832.34 294.902 Q1828.89 294.902 1826.9 297.101 Q1824.91 299.3 1824.91 303.096 L1824.91 317.749 L1820.63 317.749 L1820.63 291.823 L1824.91 291.823 L1824.91 295.851 Q1826.44 293.513 1828.5 292.355 Q1830.58 291.198 1833.29 291.198 Q1837.76 291.198 1840.05 293.976 Q1842.34 296.73 1842.34 302.101 Z" fill="#000000" fill-rule="nonzero" fill-opacity="1" /><path clip-path="url(#clip350)" d="M1855.05 284.462 L1855.05 291.823 L1863.82 291.823 L1863.82 295.133 L1855.05 295.133 L1855.05 309.207 Q1855.05 312.378 1855.9 313.281 Q1856.78 314.184 1859.45 314.184 L1863.82 314.184 L1863.82 317.749 L1859.45 317.749 Q1854.52 317.749 1852.64 315.92 Q1850.77 314.068 1850.77 309.207 L1850.77 295.133 L1847.64 295.133 L1847.64 291.823 L1850.77 291.823 L1850.77 284.462 L1855.05 284.462 Z" fill="#000000" fill-rule="nonzero" fill-opacity="1" /><path clip-path="url(#clip350)" d="M1869.42 291.823 L1873.68 291.823 L1873.68 317.749 L1869.42 317.749 L1869.42 291.823 M1869.42 281.73 L1873.68 281.73 L1873.68 287.124 L1869.42 287.124 L1869.42 281.73 Z" fill="#000000" fill-rule="nonzero" fill-opacity="1" /><path clip-path="url(#clip350)" d="M1894.38 304.716 Q1889.21 304.716 1887.22 305.897 Q1885.23 307.077 1885.23 309.925 Q1885.23 312.193 1886.71 313.536 Q1888.22 314.855 1890.79 314.855 Q1894.33 314.855 1896.46 312.355 Q1898.61 309.832 1898.61 305.665 L1898.61 304.716 L1894.38 304.716 M1902.87 302.957 L1902.87 317.749 L1898.61 317.749 L1898.61 313.813 Q1897.15 316.175 1894.98 317.309 Q1892.8 318.42 1889.65 318.42 Q1885.67 318.42 1883.31 316.198 Q1880.97 313.952 1880.97 310.202 Q1880.97 305.827 1883.89 303.605 Q1886.83 301.383 1892.64 301.383 L1898.61 301.383 L1898.61 300.966 Q1898.61 298.027 1896.67 296.429 Q1894.75 294.809 1891.25 294.809 Q1889.03 294.809 1886.92 295.341 Q1884.82 295.874 1882.87 296.939 L1882.87 293.003 Q1885.21 292.101 1887.41 291.661 Q1889.61 291.198 1891.69 291.198 Q1897.32 291.198 1900.09 294.114 Q1902.87 297.031 1902.87 302.957 Z" fill="#000000" fill-rule="nonzero" fill-opacity="1" /><path clip-path="url(#clip350)" d="M1911.64 281.73 L1915.9 281.73 L1915.9 317.749 L1911.64 317.749 L1911.64 281.73 Z" fill="#000000" fill-rule="nonzero" fill-opacity="1" /><path clip-path="url(#clip350)" d="M1956.95 295.758 L1956.95 281.73 L1961.2 281.73 L1961.2 317.749 L1956.95 317.749 L1956.95 313.86 Q1955.6 316.175 1953.54 317.309 Q1951.51 318.42 1948.64 318.42 Q1943.94 318.42 1940.97 314.67 Q1938.03 310.92 1938.03 304.809 Q1938.03 298.698 1940.97 294.948 Q1943.94 291.198 1948.64 291.198 Q1951.51 291.198 1953.54 292.332 Q1955.6 293.443 1956.95 295.758 M1942.43 304.809 Q1942.43 309.508 1944.35 312.193 Q1946.3 314.855 1949.68 314.855 Q1953.06 314.855 1955 312.193 Q1956.95 309.508 1956.95 304.809 Q1956.95 300.11 1955 297.448 Q1953.06 294.763 1949.68 294.763 Q1946.3 294.763 1944.35 297.448 Q1942.43 300.11 1942.43 304.809 Z" fill="#000000" fill-rule="nonzero" fill-opacity="1" /><path clip-path="url(#clip350)" d="M1969.98 291.823 L1974.24 291.823 L1974.24 317.749 L1969.98 317.749 L1969.98 291.823 M1969.98 281.73 L1974.24 281.73 L1974.24 287.124 L1969.98 287.124 L1969.98 281.73 Z" fill="#000000" fill-rule="nonzero" fill-opacity="1" /><path clip-path="url(#clip350)" d="M1999.68 292.587 L1999.68 296.614 Q1997.87 295.689 1995.93 295.226 Q1993.98 294.763 1991.9 294.763 Q1988.73 294.763 1987.13 295.735 Q1985.56 296.707 1985.56 298.651 Q1985.56 300.133 1986.69 300.989 Q1987.82 301.823 1991.25 302.587 L1992.71 302.911 Q1997.25 303.883 1999.14 305.665 Q2001.07 307.425 2001.07 310.596 Q2001.07 314.207 1998.2 316.313 Q1995.35 318.42 1990.35 318.42 Q1988.26 318.42 1986 318.003 Q1983.75 317.61 1981.25 316.8 L1981.25 312.401 Q1983.61 313.628 1985.9 314.253 Q1988.2 314.855 1990.44 314.855 Q1993.45 314.855 1995.07 313.837 Q1996.69 312.795 1996.69 310.92 Q1996.69 309.184 1995.51 308.258 Q1994.35 307.332 1990.39 306.476 L1988.91 306.128 Q1984.95 305.295 1983.2 303.582 Q1981.44 301.846 1981.44 298.837 Q1981.44 295.179 1984.03 293.189 Q1986.62 291.198 1991.39 291.198 Q1993.75 291.198 1995.83 291.545 Q1997.92 291.892 1999.68 292.587 Z" fill="#000000" fill-rule="nonzero" fill-opacity="1" /><path clip-path="url(#clip350)" d="M2012.06 284.462 L2012.06 291.823 L2020.83 291.823 L2020.83 295.133 L2012.06 295.133 L2012.06 309.207 Q2012.06 312.378 2012.92 313.281 Q2013.8 314.184 2016.46 314.184 L2020.83 314.184 L2020.83 317.749 L2016.46 317.749 Q2011.53 317.749 2009.65 315.92 Q2007.78 314.068 2007.78 309.207 L2007.78 295.133 L2004.65 295.133 L2004.65 291.823 L2007.78 291.823 L2007.78 284.462 L2012.06 284.462 Z" fill="#000000" fill-rule="nonzero" fill-opacity="1" /><path clip-path="url(#clip350)" d="M2041.46 295.804 Q2040.74 295.388 2039.88 295.202 Q2039.05 294.994 2038.03 294.994 Q2034.42 294.994 2032.48 297.355 Q2030.56 299.693 2030.56 304.091 L2030.56 317.749 L2026.27 317.749 L2026.27 291.823 L2030.56 291.823 L2030.56 295.851 Q2031.9 293.489 2034.05 292.355 Q2036.2 291.198 2039.28 291.198 Q2039.72 291.198 2040.26 291.267 Q2040.79 291.314 2041.44 291.429 L2041.46 295.804 Z" fill="#000000" fill-rule="nonzero" fill-opacity="1" /><path clip-path="url(#clip350)" d="M2045.93 291.823 L2050.19 291.823 L2050.19 317.749 L2045.93 317.749 L2045.93 291.823 M2045.93 281.73 L2050.19 281.73 L2050.19 287.124 L2045.93 287.124 L2045.93 281.73 Z" fill="#000000" fill-rule="nonzero" fill-opacity="1" /><path clip-path="url(#clip350)" d="M2077.71 304.809 Q2077.71 300.11 2075.76 297.448 Q2073.84 294.763 2070.46 294.763 Q2067.08 294.763 2065.14 297.448 Q2063.22 300.11 2063.22 304.809 Q2063.22 309.508 2065.14 312.193 Q2067.08 314.855 2070.46 314.855 Q2073.84 314.855 2075.76 312.193 Q2077.71 309.508 2077.71 304.809 M2063.22 295.758 Q2064.56 293.443 2066.6 292.332 Q2068.66 291.198 2071.51 291.198 Q2076.23 291.198 2079.17 294.948 Q2082.13 298.698 2082.13 304.809 Q2082.13 310.92 2079.17 314.67 Q2076.23 318.42 2071.51 318.42 Q2068.66 318.42 2066.6 317.309 Q2064.56 316.175 2063.22 313.86 L2063.22 317.749 L2058.94 317.749 L2058.94 281.73 L2063.22 281.73 L2063.22 295.758 Z" fill="#000000" fill-rule="nonzero" fill-opacity="1" /><path clip-path="url(#clip350)" d="M2088.75 307.517 L2088.75 291.823 L2093.01 291.823 L2093.01 307.355 Q2093.01 311.036 2094.44 312.888 Q2095.88 314.716 2098.75 314.716 Q2102.2 314.716 2104.19 312.517 Q2106.2 310.318 2106.2 306.522 L2106.2 291.823 L2110.46 291.823 L2110.46 317.749 L2106.2 317.749 L2106.2 313.767 Q2104.65 316.128 2102.59 317.286 Q2100.56 318.42 2097.85 318.42 Q2093.38 318.42 2091.07 315.642 Q2088.75 312.864 2088.75 307.517 M2099.47 291.198 L2099.47 291.198 Z" fill="#000000" fill-rule="nonzero" fill-opacity="1" /><path clip-path="url(#clip350)" d="M2123.45 284.462 L2123.45 291.823 L2132.22 291.823 L2132.22 295.133 L2123.45 295.133 L2123.45 309.207 Q2123.45 312.378 2124.31 313.281 Q2125.19 314.184 2127.85 314.184 L2132.22 314.184 L2132.22 317.749 L2127.85 317.749 Q2122.92 317.749 2121.04 315.92 Q2119.17 314.068 2119.17 309.207 L2119.17 295.133 L2116.04 295.133 L2116.04 291.823 L2119.17 291.823 L2119.17 284.462 L2123.45 284.462 Z" fill="#000000" fill-rule="nonzero" fill-opacity="1" /><path clip-path="url(#clip350)" d="M2137.82 291.823 L2142.08 291.823 L2142.08 317.749 L2137.82 317.749 L2137.82 291.823 M2137.82 281.73 L2142.08 281.73 L2142.08 287.124 L2137.82 287.124 L2137.82 281.73 Z" fill="#000000" fill-rule="nonzero" fill-opacity="1" /><path clip-path="url(#clip350)" d="M2161.04 294.809 Q2157.62 294.809 2155.62 297.494 Q2153.63 300.156 2153.63 304.809 Q2153.63 309.462 2155.6 312.147 Q2157.59 314.809 2161.04 314.809 Q2164.44 314.809 2166.44 312.124 Q2168.43 309.438 2168.43 304.809 Q2168.43 300.202 2166.44 297.517 Q2164.44 294.809 2161.04 294.809 M2161.04 291.198 Q2166.6 291.198 2169.77 294.809 Q2172.94 298.42 2172.94 304.809 Q2172.94 311.175 2169.77 314.809 Q2166.6 318.42 2161.04 318.42 Q2155.46 318.42 2152.29 314.809 Q2149.14 311.175 2149.14 304.809 Q2149.14 298.42 2152.29 294.809 Q2155.46 291.198 2161.04 291.198 Z" fill="#000000" fill-rule="nonzero" fill-opacity="1" /><path clip-path="url(#clip350)" d="M2201.55 302.101 L2201.55 317.749 L2197.29 317.749 L2197.29 302.239 Q2197.29 298.559 2195.86 296.73 Q2194.42 294.902 2191.55 294.902 Q2188.1 294.902 2186.11 297.101 Q2184.12 299.3 2184.12 303.096 L2184.12 317.749 L2179.84 317.749 L2179.84 291.823 L2184.12 291.823 L2184.12 295.851 Q2185.65 293.513 2187.71 292.355 Q2189.79 291.198 2192.5 291.198 Q2196.97 291.198 2199.26 293.976 Q2201.55 296.73 2201.55 302.101 Z" fill="#000000" fill-rule="nonzero" fill-opacity="1" /><path clip-path="url(#clip350)" d="M2225.3 283.189 L2229.98 283.189 L2229.98 317.749 L2225.3 317.749 L2225.3 283.189 Z" fill="#000000" fill-rule="nonzero" fill-opacity="1" /><path clip-path="url(#clip350)" d="M2239.28 283.189 L2243.96 283.189 L2243.96 317.749 L2239.28 317.749 L2239.28 283.189 Z" fill="#000000" fill-rule="nonzero" fill-opacity="1" /><polyline clip-path="url(#clip350)" style="stroke:#ac8d18; stroke-linecap:round; stroke-linejoin:round; stroke-width:4; stroke-opacity:1; fill:none" points="1551.39,352.309 1693.61,352.309 "/>
<path clip-path="url(#clip350)" d="M1721.99 338.871 L1721.99 351.857 L1727.87 351.857 Q1731.14 351.857 1732.92 350.167 Q1734.7 348.478 1734.7 345.353 Q1734.7 342.251 1732.92 340.561 Q1731.14 338.871 1727.87 338.871 L1721.99 338.871 M1717.32 335.029 L1727.87 335.029 Q1733.68 335.029 1736.65 337.667 Q1739.63 340.283 1739.63 345.353 Q1739.63 350.468 1736.65 353.084 Q1733.68 355.7 1727.87 355.7 L1721.99 355.7 L1721.99 369.589 L1717.32 369.589 L1717.32 335.029 Z" fill="#000000" fill-rule="nonzero" fill-opacity="1" /><path clip-path="url(#clip350)" d="M1754.08 346.649 Q1750.65 346.649 1748.66 349.334 Q1746.67 351.996 1746.67 356.649 Q1746.67 361.302 1748.64 363.987 Q1750.63 366.649 1754.08 366.649 Q1757.48 366.649 1759.47 363.964 Q1761.46 361.278 1761.46 356.649 Q1761.46 352.042 1759.47 349.357 Q1757.48 346.649 1754.08 346.649 M1754.08 343.038 Q1759.63 343.038 1762.8 346.649 Q1765.97 350.26 1765.97 356.649 Q1765.97 363.015 1762.8 366.649 Q1759.63 370.26 1754.08 370.26 Q1748.5 370.26 1745.33 366.649 Q1742.18 363.015 1742.18 356.649 Q1742.18 350.26 1745.33 346.649 Q1748.5 343.038 1754.08 343.038 Z" fill="#000000" fill-rule="nonzero" fill-opacity="1" /><path clip-path="url(#clip350)" d="M1777.25 336.302 L1777.25 343.663 L1786.02 343.663 L1786.02 346.973 L1777.25 346.973 L1777.25 361.047 Q1777.25 364.218 1778.1 365.121 Q1778.98 366.024 1781.65 366.024 L1786.02 366.024 L1786.02 369.589 L1781.65 369.589 Q1776.71 369.589 1774.84 367.76 Q1772.96 365.908 1772.96 361.047 L1772.96 346.973 L1769.84 346.973 L1769.84 343.663 L1772.96 343.663 L1772.96 336.302 L1777.25 336.302 Z" fill="#000000" fill-rule="nonzero" fill-opacity="1" /><path clip-path="url(#clip350)" d="M1813.8 355.561 L1813.8 357.644 L1794.21 357.644 Q1794.49 362.042 1796.85 364.357 Q1799.24 366.649 1803.47 366.649 Q1805.93 366.649 1808.22 366.047 Q1810.53 365.445 1812.8 364.241 L1812.8 368.269 Q1810.51 369.241 1808.1 369.751 Q1805.7 370.26 1803.22 370.26 Q1797.02 370.26 1793.38 366.649 Q1789.77 363.038 1789.77 356.88 Q1789.77 350.515 1793.2 346.788 Q1796.65 343.038 1802.48 343.038 Q1807.71 343.038 1810.74 346.417 Q1813.8 349.774 1813.8 355.561 M1809.54 354.311 Q1809.49 350.816 1807.57 348.732 Q1805.67 346.649 1802.52 346.649 Q1798.96 346.649 1796.81 348.663 Q1794.68 350.677 1794.35 354.334 L1809.54 354.311 Z" fill="#000000" fill-rule="nonzero" fill-opacity="1" /><path clip-path="url(#clip350)" d="M1842.34 353.941 L1842.34 369.589 L1838.08 369.589 L1838.08 354.079 Q1838.08 350.399 1836.65 348.57 Q1835.21 346.742 1832.34 346.742 Q1828.89 346.742 1826.9 348.941 Q1824.91 351.14 1824.91 354.936 L1824.91 369.589 L1820.63 369.589 L1820.63 343.663 L1824.91 343.663 L1824.91 347.691 Q1826.44 345.353 1828.5 344.195 Q1830.58 343.038 1833.29 343.038 Q1837.76 343.038 1840.05 345.816 Q1842.34 348.57 1842.34 353.941 Z" fill="#000000" fill-rule="nonzero" fill-opacity="1" /><path clip-path="url(#clip350)" d="M1855.05 336.302 L1855.05 343.663 L1863.82 343.663 L1863.82 346.973 L1855.05 346.973 L1855.05 361.047 Q1855.05 364.218 1855.9 365.121 Q1856.78 366.024 1859.45 366.024 L1863.82 366.024 L1863.82 369.589 L1859.45 369.589 Q1854.52 369.589 1852.64 367.76 Q1850.77 365.908 1850.77 361.047 L1850.77 346.973 L1847.64 346.973 L1847.64 343.663 L1850.77 343.663 L1850.77 336.302 L1855.05 336.302 Z" fill="#000000" fill-rule="nonzero" fill-opacity="1" /><path clip-path="url(#clip350)" d="M1869.42 343.663 L1873.68 343.663 L1873.68 369.589 L1869.42 369.589 L1869.42 343.663 M1869.42 333.57 L1873.68 333.57 L1873.68 338.964 L1869.42 338.964 L1869.42 333.57 Z" fill="#000000" fill-rule="nonzero" fill-opacity="1" /><path clip-path="url(#clip350)" d="M1894.38 356.556 Q1889.21 356.556 1887.22 357.737 Q1885.23 358.917 1885.23 361.765 Q1885.23 364.033 1886.71 365.376 Q1888.22 366.695 1890.79 366.695 Q1894.33 366.695 1896.46 364.195 Q1898.61 361.672 1898.61 357.505 L1898.61 356.556 L1894.38 356.556 M1902.87 354.797 L1902.87 369.589 L1898.61 369.589 L1898.61 365.653 Q1897.15 368.015 1894.98 369.149 Q1892.8 370.26 1889.65 370.26 Q1885.67 370.26 1883.31 368.038 Q1880.97 365.792 1880.97 362.042 Q1880.97 357.667 1883.89 355.445 Q1886.83 353.223 1892.64 353.223 L1898.61 353.223 L1898.61 352.806 Q1898.61 349.867 1896.67 348.269 Q1894.75 346.649 1891.25 346.649 Q1889.03 346.649 1886.92 347.181 Q1884.82 347.714 1882.87 348.779 L1882.87 344.843 Q1885.21 343.941 1887.41 343.501 Q1889.61 343.038 1891.69 343.038 Q1897.32 343.038 1900.09 345.954 Q1902.87 348.871 1902.87 354.797 Z" fill="#000000" fill-rule="nonzero" fill-opacity="1" /><path clip-path="url(#clip350)" d="M1911.64 333.57 L1915.9 333.57 L1915.9 369.589 L1911.64 369.589 L1911.64 333.57 Z" fill="#000000" fill-rule="nonzero" fill-opacity="1" /><path clip-path="url(#clip350)" d="M1956.95 347.598 L1956.95 333.57 L1961.2 333.57 L1961.2 369.589 L1956.95 369.589 L1956.95 365.7 Q1955.6 368.015 1953.54 369.149 Q1951.51 370.26 1948.64 370.26 Q1943.94 370.26 1940.97 366.51 Q1938.03 362.76 1938.03 356.649 Q1938.03 350.538 1940.97 346.788 Q1943.94 343.038 1948.64 343.038 Q1951.51 343.038 1953.54 344.172 Q1955.6 345.283 1956.95 347.598 M1942.43 356.649 Q1942.43 361.348 1944.35 364.033 Q1946.3 366.695 1949.68 366.695 Q1953.06 366.695 1955 364.033 Q1956.95 361.348 1956.95 356.649 Q1956.95 351.95 1955 349.288 Q1953.06 346.603 1949.68 346.603 Q1946.3 346.603 1944.35 349.288 Q1942.43 351.95 1942.43 356.649 Z" fill="#000000" fill-rule="nonzero" fill-opacity="1" /><path clip-path="url(#clip350)" d="M1969.98 343.663 L1974.24 343.663 L1974.24 369.589 L1969.98 369.589 L1969.98 343.663 M1969.98 333.57 L1974.24 333.57 L1974.24 338.964 L1969.98 338.964 L1969.98 333.57 Z" fill="#000000" fill-rule="nonzero" fill-opacity="1" /><path clip-path="url(#clip350)" d="M1999.68 344.427 L1999.68 348.454 Q1997.87 347.529 1995.93 347.066 Q1993.98 346.603 1991.9 346.603 Q1988.73 346.603 1987.13 347.575 Q1985.56 348.547 1985.56 350.491 Q1985.56 351.973 1986.69 352.829 Q1987.82 353.663 1991.25 354.427 L1992.71 354.751 Q1997.25 355.723 1999.14 357.505 Q2001.07 359.265 2001.07 362.436 Q2001.07 366.047 1998.2 368.153 Q1995.35 370.26 1990.35 370.26 Q1988.26 370.26 1986 369.843 Q1983.75 369.45 1981.25 368.64 L1981.25 364.241 Q1983.61 365.468 1985.9 366.093 Q1988.2 366.695 1990.44 366.695 Q1993.45 366.695 1995.07 365.677 Q1996.69 364.635 1996.69 362.76 Q1996.69 361.024 1995.51 360.098 Q1994.35 359.172 1990.39 358.316 L1988.91 357.968 Q1984.95 357.135 1983.2 355.422 Q1981.44 353.686 1981.44 350.677 Q1981.44 347.019 1984.03 345.029 Q1986.62 343.038 1991.39 343.038 Q1993.75 343.038 1995.83 343.385 Q1997.92 343.732 1999.68 344.427 Z" fill="#000000" fill-rule="nonzero" fill-opacity="1" /><path clip-path="url(#clip350)" d="M2012.06 336.302 L2012.06 343.663 L2020.83 343.663 L2020.83 346.973 L2012.06 346.973 L2012.06 361.047 Q2012.06 364.218 2012.92 365.121 Q2013.8 366.024 2016.46 366.024 L2020.83 366.024 L2020.83 369.589 L2016.46 369.589 Q2011.53 369.589 2009.65 367.76 Q2007.78 365.908 2007.78 361.047 L2007.78 346.973 L2004.65 346.973 L2004.65 343.663 L2007.78 343.663 L2007.78 336.302 L2012.06 336.302 Z" fill="#000000" fill-rule="nonzero" fill-opacity="1" /><path clip-path="url(#clip350)" d="M2041.46 347.644 Q2040.74 347.228 2039.88 347.042 Q2039.05 346.834 2038.03 346.834 Q2034.42 346.834 2032.48 349.195 Q2030.56 351.533 2030.56 355.931 L2030.56 369.589 L2026.27 369.589 L2026.27 343.663 L2030.56 343.663 L2030.56 347.691 Q2031.9 345.329 2034.05 344.195 Q2036.2 343.038 2039.28 343.038 Q2039.72 343.038 2040.26 343.107 Q2040.79 343.154 2041.44 343.269 L2041.46 347.644 Z" fill="#000000" fill-rule="nonzero" fill-opacity="1" /><path clip-path="url(#clip350)" d="M2045.93 343.663 L2050.19 343.663 L2050.19 369.589 L2045.93 369.589 L2045.93 343.663 M2045.93 333.57 L2050.19 333.57 L2050.19 338.964 L2045.93 338.964 L2045.93 333.57 Z" fill="#000000" fill-rule="nonzero" fill-opacity="1" /><path clip-path="url(#clip350)" d="M2077.71 356.649 Q2077.71 351.95 2075.76 349.288 Q2073.84 346.603 2070.46 346.603 Q2067.08 346.603 2065.14 349.288 Q2063.22 351.95 2063.22 356.649 Q2063.22 361.348 2065.14 364.033 Q2067.08 366.695 2070.46 366.695 Q2073.84 366.695 2075.76 364.033 Q2077.71 361.348 2077.71 356.649 M2063.22 347.598 Q2064.56 345.283 2066.6 344.172 Q2068.66 343.038 2071.51 343.038 Q2076.23 343.038 2079.17 346.788 Q2082.13 350.538 2082.13 356.649 Q2082.13 362.76 2079.17 366.51 Q2076.23 370.26 2071.51 370.26 Q2068.66 370.26 2066.6 369.149 Q2064.56 368.015 2063.22 365.7 L2063.22 369.589 L2058.94 369.589 L2058.94 333.57 L2063.22 333.57 L2063.22 347.598 Z" fill="#000000" fill-rule="nonzero" fill-opacity="1" /><path clip-path="url(#clip350)" d="M2088.75 359.357 L2088.75 343.663 L2093.01 343.663 L2093.01 359.195 Q2093.01 362.876 2094.44 364.728 Q2095.88 366.556 2098.75 366.556 Q2102.2 366.556 2104.19 364.357 Q2106.2 362.158 2106.2 358.362 L2106.2 343.663 L2110.46 343.663 L2110.46 369.589 L2106.2 369.589 L2106.2 365.607 Q2104.65 367.968 2102.59 369.126 Q2100.56 370.26 2097.85 370.26 Q2093.38 370.26 2091.07 367.482 Q2088.75 364.704 2088.75 359.357 M2099.47 343.038 L2099.47 343.038 Z" fill="#000000" fill-rule="nonzero" fill-opacity="1" /><path clip-path="url(#clip350)" d="M2123.45 336.302 L2123.45 343.663 L2132.22 343.663 L2132.22 346.973 L2123.45 346.973 L2123.45 361.047 Q2123.45 364.218 2124.31 365.121 Q2125.19 366.024 2127.85 366.024 L2132.22 366.024 L2132.22 369.589 L2127.85 369.589 Q2122.92 369.589 2121.04 367.76 Q2119.17 365.908 2119.17 361.047 L2119.17 346.973 L2116.04 346.973 L2116.04 343.663 L2119.17 343.663 L2119.17 336.302 L2123.45 336.302 Z" fill="#000000" fill-rule="nonzero" fill-opacity="1" /><path clip-path="url(#clip350)" d="M2137.82 343.663 L2142.08 343.663 L2142.08 369.589 L2137.82 369.589 L2137.82 343.663 M2137.82 333.57 L2142.08 333.57 L2142.08 338.964 L2137.82 338.964 L2137.82 333.57 Z" fill="#000000" fill-rule="nonzero" fill-opacity="1" /><path clip-path="url(#clip350)" d="M2161.04 346.649 Q2157.62 346.649 2155.62 349.334 Q2153.63 351.996 2153.63 356.649 Q2153.63 361.302 2155.6 363.987 Q2157.59 366.649 2161.04 366.649 Q2164.44 366.649 2166.44 363.964 Q2168.43 361.278 2168.43 356.649 Q2168.43 352.042 2166.44 349.357 Q2164.44 346.649 2161.04 346.649 M2161.04 343.038 Q2166.6 343.038 2169.77 346.649 Q2172.94 350.26 2172.94 356.649 Q2172.94 363.015 2169.77 366.649 Q2166.6 370.26 2161.04 370.26 Q2155.46 370.26 2152.29 366.649 Q2149.14 363.015 2149.14 356.649 Q2149.14 350.26 2152.29 346.649 Q2155.46 343.038 2161.04 343.038 Z" fill="#000000" fill-rule="nonzero" fill-opacity="1" /><path clip-path="url(#clip350)" d="M2201.55 353.941 L2201.55 369.589 L2197.29 369.589 L2197.29 354.079 Q2197.29 350.399 2195.86 348.57 Q2194.42 346.742 2191.55 346.742 Q2188.1 346.742 2186.11 348.941 Q2184.12 351.14 2184.12 354.936 L2184.12 369.589 L2179.84 369.589 L2179.84 343.663 L2184.12 343.663 L2184.12 347.691 Q2185.65 345.353 2187.71 344.195 Q2189.79 343.038 2192.5 343.038 Q2196.97 343.038 2199.26 345.816 Q2201.55 348.57 2201.55 353.941 Z" fill="#000000" fill-rule="nonzero" fill-opacity="1" /><path clip-path="url(#clip350)" d="M2225.3 335.029 L2229.98 335.029 L2229.98 369.589 L2225.3 369.589 L2225.3 335.029 Z" fill="#000000" fill-rule="nonzero" fill-opacity="1" /><path clip-path="url(#clip350)" d="M2239.28 335.029 L2243.96 335.029 L2243.96 369.589 L2239.28 369.589 L2239.28 335.029 Z" fill="#000000" fill-rule="nonzero" fill-opacity="1" /><path clip-path="url(#clip350)" d="M2253.26 335.029 L2257.94 335.029 L2257.94 369.589 L2253.26 369.589 L2253.26 335.029 Z" fill="#000000" fill-rule="nonzero" fill-opacity="1" /></svg>
