<?xml version="1.0" encoding="utf-8"?>
<svg xmlns="http://www.w3.org/2000/svg" xmlns:xlink="http://www.w3.org/1999/xlink" width="600" height="400" viewBox="0 0 2400 1600">
<defs>
  <clipPath id="clip610">
    <rect x="0" y="0" width="2400" height="1600"/>
  </clipPath>
</defs>
<path clip-path="url(#clip610)" d="M0 1600 L2400 1600 L2400 0 L0 0  Z" fill="#ffffff" fill-rule="evenodd" fill-opacity="1"/>
<defs>
  <clipPath id="clip611">
    <rect x="480" y="0" width="1681" height="1600"/>
  </clipPath>
</defs>
<path clip-path="url(#clip610)" d="M219.38 1423.18 L2352.76 1423.18 L2352.76 47.2441 L219.38 47.2441  Z" fill="#ffffff" fill-rule="evenodd" fill-opacity="1"/>
<defs>
  <clipPath id="clip612">
    <rect x="219" y="47" width="2134" height="1377"/>
  </clipPath>
</defs>
<polyline clip-path="url(#clip612)" style="stroke:#000000; stroke-linecap:round; stroke-linejoin:round; stroke-width:2; stroke-opacity:0.1; fill:none" points="336.72,1423.18 336.72,47.2441 "/>
<polyline clip-path="url(#clip612)" style="stroke:#000000; stroke-linecap:round; stroke-linejoin:round; stroke-width:2; stroke-opacity:0.1; fill:none" points="653.169,1423.18 653.169,47.2441 "/>
<polyline clip-path="url(#clip612)" style="stroke:#000000; stroke-linecap:round; stroke-linejoin:round; stroke-width:2; stroke-opacity:0.1; fill:none" points="969.619,1423.18 969.619,47.2441 "/>
<polyline clip-path="url(#clip612)" style="stroke:#000000; stroke-linecap:round; stroke-linejoin:round; stroke-width:2; stroke-opacity:0.1; fill:none" points="1286.07,1423.18 1286.07,47.2441 "/>
<polyline clip-path="url(#clip612)" style="stroke:#000000; stroke-linecap:round; stroke-linejoin:round; stroke-width:2; stroke-opacity:0.1; fill:none" points="1602.52,1423.18 1602.52,47.2441 "/>
<polyline clip-path="url(#clip612)" style="stroke:#000000; stroke-linecap:round; stroke-linejoin:round; stroke-width:2; stroke-opacity:0.1; fill:none" points="1918.97,1423.18 1918.97,47.2441 "/>
<polyline clip-path="url(#clip612)" style="stroke:#000000; stroke-linecap:round; stroke-linejoin:round; stroke-width:2; stroke-opacity:0.1; fill:none" points="2235.42,1423.18 2235.42,47.2441 "/>
<polyline clip-path="url(#clip612)" style="stroke:#000000; stroke-linecap:round; stroke-linejoin:round; stroke-width:2; stroke-opacity:0.1; fill:none" points="219.38,1423.18 2352.76,1423.18 "/>
<polyline clip-path="url(#clip612)" style="stroke:#000000; stroke-linecap:round; stroke-linejoin:round; stroke-width:2; stroke-opacity:0.1; fill:none" points="219.38,1030.06 2352.76,1030.06 "/>
<polyline clip-path="url(#clip612)" style="stroke:#000000; stroke-linecap:round; stroke-linejoin:round; stroke-width:2; stroke-opacity:0.1; fill:none" points="219.38,636.931 2352.76,636.931 "/>
<polyline clip-path="url(#clip612)" style="stroke:#000000; stroke-linecap:round; stroke-linejoin:round; stroke-width:2; stroke-opacity:0.1; fill:none" points="219.38,243.806 2352.76,243.806 "/>
<polyline clip-path="url(#clip610)" style="stroke:#000000; stroke-linecap:round; stroke-linejoin:round; stroke-width:4; stroke-opacity:1; fill:none" points="219.38,1423.18 2352.76,1423.18 "/>
<polyline clip-path="url(#clip610)" style="stroke:#000000; stroke-linecap:round; stroke-linejoin:round; stroke-width:4; stroke-opacity:1; fill:none" points="336.72,1423.18 336.72,1404.28 "/>
<polyline clip-path="url(#clip610)" style="stroke:#000000; stroke-linecap:round; stroke-linejoin:round; stroke-width:4; stroke-opacity:1; fill:none" points="653.169,1423.18 653.169,1404.28 "/>
<polyline clip-path="url(#clip610)" style="stroke:#000000; stroke-linecap:round; stroke-linejoin:round; stroke-width:4; stroke-opacity:1; fill:none" points="969.619,1423.18 969.619,1404.28 "/>
<polyline clip-path="url(#clip610)" style="stroke:#000000; stroke-linecap:round; stroke-linejoin:round; stroke-width:4; stroke-opacity:1; fill:none" points="1286.07,1423.18 1286.07,1404.28 "/>
<polyline clip-path="url(#clip610)" style="stroke:#000000; stroke-linecap:round; stroke-linejoin:round; stroke-width:4; stroke-opacity:1; fill:none" points="1602.52,1423.18 1602.52,1404.28 "/>
<polyline clip-path="url(#clip610)" style="stroke:#000000; stroke-linecap:round; stroke-linejoin:round; stroke-width:4; stroke-opacity:1; fill:none" points="1918.97,1423.18 1918.97,1404.28 "/>
<polyline clip-path="url(#clip610)" style="stroke:#000000; stroke-linecap:round; stroke-linejoin:round; stroke-width:4; stroke-opacity:1; fill:none" points="2235.42,1423.18 2235.42,1404.28 "/>
<path clip-path="url(#clip610)" d="M336.72 1454.1 Q333.109 1454.1 331.28 1457.66 Q329.474 1461.2 329.474 1468.33 Q329.474 1475.44 331.28 1479.01 Q333.109 1482.55 336.72 1482.55 Q340.354 1482.55 342.159 1479.01 Q343.988 1475.44 343.988 1468.33 Q343.988 1461.2 342.159 1457.66 Q340.354 1454.1 336.72 1454.1 M336.72 1450.39 Q342.53 1450.39 345.585 1455 Q348.664 1459.58 348.664 1468.33 Q348.664 1477.06 345.585 1481.67 Q342.53 1486.25 336.72 1486.25 Q330.909 1486.25 327.831 1481.67 Q324.775 1477.06 324.775 1468.33 Q324.775 1459.58 327.831 1455 Q330.909 1450.39 336.72 1450.39 Z" fill="#000000" fill-rule="nonzero" fill-opacity="1" /><path clip-path="url(#clip610)" d="M647.822 1481.64 L664.141 1481.64 L664.141 1485.58 L642.197 1485.58 L642.197 1481.64 Q644.859 1478.89 649.442 1474.26 Q654.049 1469.61 655.229 1468.27 Q657.475 1465.74 658.354 1464.01 Q659.257 1462.25 659.257 1460.56 Q659.257 1457.8 657.313 1456.07 Q655.391 1454.33 652.289 1454.33 Q650.09 1454.33 647.637 1455.09 Q645.206 1455.86 642.428 1457.41 L642.428 1452.69 Q645.252 1451.55 647.706 1450.97 Q650.16 1450.39 652.197 1450.39 Q657.567 1450.39 660.762 1453.08 Q663.956 1455.77 663.956 1460.26 Q663.956 1462.39 663.146 1464.31 Q662.359 1466.2 660.252 1468.8 Q659.674 1469.47 656.572 1472.69 Q653.47 1475.88 647.822 1481.64 Z" fill="#000000" fill-rule="nonzero" fill-opacity="1" /><path clip-path="url(#clip610)" d="M972.628 1455.09 L960.822 1473.54 L972.628 1473.54 L972.628 1455.09 M971.401 1451.02 L977.281 1451.02 L977.281 1473.54 L982.211 1473.54 L982.211 1477.43 L977.281 1477.43 L977.281 1485.58 L972.628 1485.58 L972.628 1477.43 L957.026 1477.43 L957.026 1472.92 L971.401 1451.02 Z" fill="#000000" fill-rule="nonzero" fill-opacity="1" /><path clip-path="url(#clip610)" d="M1286.47 1466.44 Q1283.32 1466.44 1281.47 1468.59 Q1279.64 1470.74 1279.64 1474.49 Q1279.64 1478.22 1281.47 1480.39 Q1283.32 1482.55 1286.47 1482.55 Q1289.62 1482.55 1291.45 1480.39 Q1293.3 1478.22 1293.3 1474.49 Q1293.3 1470.74 1291.45 1468.59 Q1289.62 1466.44 1286.47 1466.44 M1295.76 1451.78 L1295.76 1456.04 Q1294 1455.21 1292.19 1454.77 Q1290.41 1454.33 1288.65 1454.33 Q1284.02 1454.33 1281.57 1457.45 Q1279.14 1460.58 1278.79 1466.9 Q1280.15 1464.89 1282.21 1463.82 Q1284.27 1462.73 1286.75 1462.73 Q1291.96 1462.73 1294.97 1465.9 Q1298 1469.05 1298 1474.49 Q1298 1479.82 1294.85 1483.03 Q1291.7 1486.25 1286.47 1486.25 Q1280.48 1486.25 1277.31 1481.67 Q1274.14 1477.06 1274.14 1468.33 Q1274.14 1460.14 1278.02 1455.28 Q1281.91 1450.39 1288.46 1450.39 Q1290.22 1450.39 1292.01 1450.74 Q1293.81 1451.09 1295.76 1451.78 Z" fill="#000000" fill-rule="nonzero" fill-opacity="1" /><path clip-path="url(#clip610)" d="M1602.52 1469.17 Q1599.18 1469.17 1597.26 1470.95 Q1595.36 1472.73 1595.36 1475.86 Q1595.36 1478.98 1597.26 1480.77 Q1599.18 1482.55 1602.52 1482.55 Q1605.85 1482.55 1607.77 1480.77 Q1609.69 1478.96 1609.69 1475.86 Q1609.69 1472.73 1607.77 1470.95 Q1605.87 1469.17 1602.52 1469.17 M1597.84 1467.18 Q1594.83 1466.44 1593.14 1464.38 Q1591.48 1462.32 1591.48 1459.35 Q1591.48 1455.21 1594.42 1452.8 Q1597.38 1450.39 1602.52 1450.39 Q1607.68 1450.39 1610.62 1452.8 Q1613.56 1455.21 1613.56 1459.35 Q1613.56 1462.32 1611.87 1464.38 Q1610.2 1466.44 1607.22 1467.18 Q1610.6 1467.96 1612.47 1470.26 Q1614.37 1472.55 1614.37 1475.86 Q1614.37 1480.88 1611.29 1483.57 Q1608.24 1486.25 1602.52 1486.25 Q1596.8 1486.25 1593.72 1483.57 Q1590.67 1480.88 1590.67 1475.86 Q1590.67 1472.55 1592.56 1470.26 Q1594.46 1467.96 1597.84 1467.18 M1596.13 1459.79 Q1596.13 1462.48 1597.8 1463.98 Q1599.49 1465.49 1602.52 1465.49 Q1605.53 1465.49 1607.22 1463.98 Q1608.93 1462.48 1608.93 1459.79 Q1608.93 1457.11 1607.22 1455.6 Q1605.53 1454.1 1602.52 1454.1 Q1599.49 1454.1 1597.8 1455.6 Q1596.13 1457.11 1596.13 1459.79 Z" fill="#000000" fill-rule="nonzero" fill-opacity="1" /><path clip-path="url(#clip610)" d="M1893.65 1481.64 L1901.29 1481.64 L1901.29 1455.28 L1892.98 1456.95 L1892.98 1452.69 L1901.25 1451.02 L1905.92 1451.02 L1905.92 1481.64 L1913.56 1481.64 L1913.56 1485.58 L1893.65 1485.58 L1893.65 1481.64 Z" fill="#000000" fill-rule="nonzero" fill-opacity="1" /><path clip-path="url(#clip610)" d="M1933.01 1454.1 Q1929.4 1454.1 1927.57 1457.66 Q1925.76 1461.2 1925.76 1468.33 Q1925.76 1475.44 1927.57 1479.01 Q1929.4 1482.55 1933.01 1482.55 Q1936.64 1482.55 1938.45 1479.01 Q1940.27 1475.44 1940.27 1468.33 Q1940.27 1461.2 1938.45 1457.66 Q1936.64 1454.1 1933.01 1454.1 M1933.01 1450.39 Q1938.82 1450.39 1941.87 1455 Q1944.95 1459.58 1944.95 1468.33 Q1944.95 1477.06 1941.87 1481.67 Q1938.82 1486.25 1933.01 1486.25 Q1927.2 1486.25 1924.12 1481.67 Q1921.06 1477.06 1921.06 1468.33 Q1921.06 1459.58 1924.12 1455 Q1927.2 1450.39 1933.01 1450.39 Z" fill="#000000" fill-rule="nonzero" fill-opacity="1" /><path clip-path="url(#clip610)" d="M2210.9 1481.64 L2218.54 1481.64 L2218.54 1455.28 L2210.23 1456.95 L2210.23 1452.69 L2218.5 1451.02 L2223.17 1451.02 L2223.17 1481.64 L2230.81 1481.64 L2230.81 1485.58 L2210.9 1485.58 L2210.9 1481.64 Z" fill="#000000" fill-rule="nonzero" fill-opacity="1" /><path clip-path="url(#clip610)" d="M2244.28 1481.64 L2260.6 1481.64 L2260.6 1485.58 L2238.66 1485.58 L2238.66 1481.64 Q2241.32 1478.89 2245.9 1474.26 Q2250.51 1469.61 2251.69 1468.27 Q2253.93 1465.74 2254.81 1464.01 Q2255.72 1462.25 2255.72 1460.56 Q2255.72 1457.8 2253.77 1456.07 Q2251.85 1454.33 2248.75 1454.33 Q2246.55 1454.33 2244.1 1455.09 Q2241.67 1455.86 2238.89 1457.41 L2238.89 1452.69 Q2241.71 1451.55 2244.17 1450.97 Q2246.62 1450.39 2248.66 1450.39 Q2254.03 1450.39 2257.22 1453.08 Q2260.42 1455.77 2260.42 1460.26 Q2260.42 1462.39 2259.61 1464.31 Q2258.82 1466.2 2256.71 1468.8 Q2256.13 1469.47 2253.03 1472.69 Q2249.93 1475.88 2244.28 1481.64 Z" fill="#000000" fill-rule="nonzero" fill-opacity="1" /><path clip-path="url(#clip610)" d="M1000.6 1524.18 L1000.6 1530.96 Q997.351 1527.94 993.659 1526.44 Q989.999 1524.95 985.861 1524.95 Q977.713 1524.95 973.385 1529.95 Q969.056 1534.91 969.056 1544.33 Q969.056 1553.72 973.385 1558.72 Q977.713 1563.68 985.861 1563.68 Q989.999 1563.68 993.659 1562.19 Q997.351 1560.69 1000.6 1557.67 L1000.6 1564.38 Q997.224 1566.68 993.436 1567.82 Q989.681 1568.97 985.479 1568.97 Q974.689 1568.97 968.483 1562.38 Q962.276 1555.76 962.276 1544.33 Q962.276 1532.87 968.483 1526.28 Q974.689 1519.66 985.479 1519.66 Q989.744 1519.66 993.5 1520.81 Q997.288 1521.92 1000.6 1524.18 Z" fill="#000000" fill-rule="nonzero" fill-opacity="1" /><path clip-path="url(#clip610)" d="M1024.09 1536.5 Q1019.38 1536.5 1016.64 1540.19 Q1013.9 1543.85 1013.9 1550.25 Q1013.9 1556.65 1016.61 1560.34 Q1019.34 1564 1024.09 1564 Q1028.77 1564 1031.5 1560.31 Q1034.24 1556.62 1034.24 1550.25 Q1034.24 1543.92 1031.5 1540.23 Q1028.77 1536.5 1024.09 1536.5 M1024.09 1531.54 Q1031.73 1531.54 1036.09 1536.5 Q1040.45 1541.47 1040.45 1550.25 Q1040.45 1559 1036.09 1564 Q1031.73 1568.97 1024.09 1568.97 Q1016.42 1568.97 1012.06 1564 Q1007.73 1559 1007.73 1550.25 Q1007.73 1541.47 1012.06 1536.5 Q1016.42 1531.54 1024.09 1531.54 Z" fill="#000000" fill-rule="nonzero" fill-opacity="1" /><path clip-path="url(#clip610)" d="M1079.79 1546.53 L1079.79 1568.04 L1073.93 1568.04 L1073.93 1546.72 Q1073.93 1541.66 1071.96 1539.14 Q1069.98 1536.63 1066.04 1536.63 Q1061.29 1536.63 1058.56 1539.65 Q1055.82 1542.68 1055.82 1547.9 L1055.82 1568.04 L1049.93 1568.04 L1049.93 1532.4 L1055.82 1532.4 L1055.82 1537.93 Q1057.92 1534.72 1060.75 1533.13 Q1063.62 1531.54 1067.34 1531.54 Q1073.49 1531.54 1076.64 1535.36 Q1079.79 1539.14 1079.79 1546.53 Z" fill="#000000" fill-rule="nonzero" fill-opacity="1" /><path clip-path="url(#clip610)" d="M1117.12 1533.76 L1117.12 1539.24 Q1114.64 1537.87 1112.13 1537.2 Q1109.64 1536.5 1107.1 1536.5 Q1101.4 1536.5 1098.25 1540.13 Q1095.1 1543.73 1095.1 1550.25 Q1095.1 1556.78 1098.25 1560.4 Q1101.4 1564 1107.1 1564 Q1109.64 1564 1112.13 1563.33 Q1114.64 1562.63 1117.12 1561.26 L1117.12 1566.68 Q1114.67 1567.82 1112.03 1568.39 Q1109.42 1568.97 1106.46 1568.97 Q1098.41 1568.97 1093.66 1563.91 Q1088.92 1558.85 1088.92 1550.25 Q1088.92 1541.53 1093.7 1536.53 Q1098.5 1531.54 1106.84 1531.54 Q1109.55 1531.54 1112.13 1532.11 Q1114.7 1532.65 1117.12 1533.76 Z" fill="#000000" fill-rule="nonzero" fill-opacity="1" /><path clip-path="url(#clip610)" d="M1157.8 1548.76 L1157.8 1551.62 L1130.87 1551.62 Q1131.25 1557.67 1134.5 1560.85 Q1137.78 1564 1143.6 1564 Q1146.98 1564 1150.13 1563.17 Q1153.31 1562.35 1156.43 1560.69 L1156.43 1566.23 Q1153.28 1567.57 1149.97 1568.27 Q1146.66 1568.97 1143.25 1568.97 Q1134.72 1568.97 1129.73 1564 Q1124.76 1559.04 1124.76 1550.57 Q1124.76 1541.82 1129.47 1536.69 Q1134.21 1531.54 1142.23 1531.54 Q1149.43 1531.54 1153.6 1536.18 Q1157.8 1540.8 1157.8 1548.76 M1151.94 1547.04 Q1151.88 1542.23 1149.24 1539.37 Q1146.63 1536.5 1142.3 1536.5 Q1137.4 1536.5 1134.44 1539.27 Q1131.51 1542.04 1131.06 1547.07 L1151.94 1547.04 Z" fill="#000000" fill-rule="nonzero" fill-opacity="1" /><path clip-path="url(#clip610)" d="M1197.04 1546.53 L1197.04 1568.04 L1191.19 1568.04 L1191.19 1546.72 Q1191.19 1541.66 1189.21 1539.14 Q1187.24 1536.63 1183.29 1536.63 Q1178.55 1536.63 1175.81 1539.65 Q1173.08 1542.68 1173.08 1547.9 L1173.08 1568.04 L1167.19 1568.04 L1167.19 1532.4 L1173.08 1532.4 L1173.08 1537.93 Q1175.18 1534.72 1178.01 1533.13 Q1180.87 1531.54 1184.6 1531.54 Q1190.74 1531.54 1193.89 1535.36 Q1197.04 1539.14 1197.04 1546.53 Z" fill="#000000" fill-rule="nonzero" fill-opacity="1" /><path clip-path="url(#clip610)" d="M1214.52 1522.27 L1214.52 1532.4 L1226.58 1532.4 L1226.58 1536.95 L1214.52 1536.95 L1214.52 1556.3 Q1214.52 1560.66 1215.7 1561.9 Q1216.9 1563.14 1220.56 1563.14 L1226.58 1563.14 L1226.58 1568.04 L1220.56 1568.04 Q1213.79 1568.04 1211.21 1565.53 Q1208.63 1562.98 1208.63 1556.3 L1208.63 1536.95 L1204.33 1536.95 L1204.33 1532.4 L1208.63 1532.4 L1208.63 1522.27 L1214.52 1522.27 Z" fill="#000000" fill-rule="nonzero" fill-opacity="1" /><path clip-path="url(#clip610)" d="M1254.94 1537.87 Q1253.95 1537.3 1252.78 1537.04 Q1251.63 1536.76 1250.23 1536.76 Q1245.26 1536.76 1242.59 1540 Q1239.95 1543.22 1239.95 1549.27 L1239.95 1568.04 L1234.06 1568.04 L1234.06 1532.4 L1239.95 1532.4 L1239.95 1537.93 Q1241.79 1534.69 1244.75 1533.13 Q1247.71 1531.54 1251.95 1531.54 Q1252.55 1531.54 1253.28 1531.63 Q1254.02 1531.7 1254.91 1531.85 L1254.94 1537.87 Z" fill="#000000" fill-rule="nonzero" fill-opacity="1" /><path clip-path="url(#clip610)" d="M1277.28 1550.12 Q1270.19 1550.12 1267.45 1551.75 Q1264.71 1553.37 1264.71 1557.29 Q1264.71 1560.4 1266.75 1562.25 Q1268.82 1564.07 1272.35 1564.07 Q1277.22 1564.07 1280.15 1560.63 Q1283.11 1557.16 1283.11 1551.43 L1283.11 1550.12 L1277.28 1550.12 M1288.96 1547.71 L1288.96 1568.04 L1283.11 1568.04 L1283.11 1562.63 Q1281.1 1565.88 1278.11 1567.44 Q1275.12 1568.97 1270.79 1568.97 Q1265.32 1568.97 1262.07 1565.91 Q1258.85 1562.82 1258.85 1557.67 Q1258.85 1551.65 1262.87 1548.6 Q1266.91 1545.54 1274.9 1545.54 L1283.11 1545.54 L1283.11 1544.97 Q1283.11 1540.93 1280.43 1538.73 Q1277.79 1536.5 1272.99 1536.5 Q1269.93 1536.5 1267.03 1537.23 Q1264.14 1537.97 1261.46 1539.43 L1261.46 1534.02 Q1264.68 1532.78 1267.7 1532.17 Q1270.73 1531.54 1273.59 1531.54 Q1281.33 1531.54 1285.15 1535.55 Q1288.96 1539.56 1288.96 1547.71 Z" fill="#000000" fill-rule="nonzero" fill-opacity="1" /><path clip-path="url(#clip610)" d="M1306.82 1522.27 L1306.82 1532.4 L1318.88 1532.4 L1318.88 1536.95 L1306.82 1536.95 L1306.82 1556.3 Q1306.82 1560.66 1308 1561.9 Q1309.21 1563.14 1312.87 1563.14 L1318.88 1563.14 L1318.88 1568.04 L1312.87 1568.04 Q1306.09 1568.04 1303.51 1565.53 Q1300.93 1562.98 1300.93 1556.3 L1300.93 1536.95 L1296.64 1536.95 L1296.64 1532.4 L1300.93 1532.4 L1300.93 1522.27 L1306.82 1522.27 Z" fill="#000000" fill-rule="nonzero" fill-opacity="1" /><path clip-path="url(#clip610)" d="M1326.59 1532.4 L1332.44 1532.4 L1332.44 1568.04 L1326.59 1568.04 L1326.59 1532.4 M1326.59 1518.52 L1332.44 1518.52 L1332.44 1525.93 L1326.59 1525.93 L1326.59 1518.52 Z" fill="#000000" fill-rule="nonzero" fill-opacity="1" /><path clip-path="url(#clip610)" d="M1358.51 1536.5 Q1353.8 1536.5 1351.06 1540.19 Q1348.32 1543.85 1348.32 1550.25 Q1348.32 1556.65 1351.03 1560.34 Q1353.77 1564 1358.51 1564 Q1363.19 1564 1365.93 1560.31 Q1368.66 1556.62 1368.66 1550.25 Q1368.66 1543.92 1365.93 1540.23 Q1363.19 1536.5 1358.51 1536.5 M1358.51 1531.54 Q1366.15 1531.54 1370.51 1536.5 Q1374.87 1541.47 1374.87 1550.25 Q1374.87 1559 1370.51 1564 Q1366.15 1568.97 1358.51 1568.97 Q1350.84 1568.97 1346.48 1564 Q1342.15 1559 1342.15 1550.25 Q1342.15 1541.47 1346.48 1536.5 Q1350.84 1531.54 1358.51 1531.54 Z" fill="#000000" fill-rule="nonzero" fill-opacity="1" /><path clip-path="url(#clip610)" d="M1414.21 1546.53 L1414.21 1568.04 L1408.35 1568.04 L1408.35 1546.72 Q1408.35 1541.66 1406.38 1539.14 Q1404.41 1536.63 1400.46 1536.63 Q1395.72 1536.63 1392.98 1539.65 Q1390.24 1542.68 1390.24 1547.9 L1390.24 1568.04 L1384.35 1568.04 L1384.35 1532.4 L1390.24 1532.4 L1390.24 1537.93 Q1392.34 1534.72 1395.18 1533.13 Q1398.04 1531.54 1401.76 1531.54 Q1407.91 1531.54 1411.06 1535.36 Q1414.21 1539.14 1414.21 1546.53 Z" fill="#000000" fill-rule="nonzero" fill-opacity="1" /><path clip-path="url(#clip610)" d="M1460.68 1518.58 Q1456.41 1525.9 1454.35 1533.06 Q1452.28 1540.23 1452.28 1547.58 Q1452.28 1554.93 1454.35 1562.16 Q1456.45 1569.35 1460.68 1576.64 L1455.59 1576.64 Q1450.81 1569.16 1448.43 1561.93 Q1446.07 1554.71 1446.07 1547.58 Q1446.07 1540.48 1448.43 1533.29 Q1450.78 1526.09 1455.59 1518.58 L1460.68 1518.58 Z" fill="#000000" fill-rule="nonzero" fill-opacity="1" /><path clip-path="url(#clip610)" d="M1477.71 1562.7 L1477.71 1581.6 L1471.82 1581.6 L1471.82 1532.4 L1477.71 1532.4 L1477.71 1537.81 Q1479.55 1534.62 1482.35 1533.1 Q1485.19 1531.54 1489.1 1531.54 Q1495.6 1531.54 1499.64 1536.69 Q1503.71 1541.85 1503.71 1550.25 Q1503.71 1558.65 1499.64 1563.81 Q1495.6 1568.97 1489.1 1568.97 Q1485.19 1568.97 1482.35 1567.44 Q1479.55 1565.88 1477.71 1562.7 M1497.63 1550.25 Q1497.63 1543.79 1494.96 1540.13 Q1492.32 1536.44 1487.67 1536.44 Q1483.02 1536.44 1480.35 1540.13 Q1477.71 1543.79 1477.71 1550.25 Q1477.71 1556.71 1480.35 1560.4 Q1483.02 1564.07 1487.67 1564.07 Q1492.32 1564.07 1494.96 1560.4 Q1497.63 1556.71 1497.63 1550.25 Z" fill="#000000" fill-rule="nonzero" fill-opacity="1" /><path clip-path="url(#clip610)" d="M1519.08 1562.7 L1519.08 1581.6 L1513.2 1581.6 L1513.2 1532.4 L1519.08 1532.4 L1519.08 1537.81 Q1520.93 1534.62 1523.73 1533.1 Q1526.56 1531.54 1530.48 1531.54 Q1536.97 1531.54 1541.01 1536.69 Q1545.09 1541.85 1545.09 1550.25 Q1545.09 1558.65 1541.01 1563.81 Q1536.97 1568.97 1530.48 1568.97 Q1526.56 1568.97 1523.73 1567.44 Q1520.93 1565.88 1519.08 1562.7 M1539.01 1550.25 Q1539.01 1543.79 1536.34 1540.13 Q1533.69 1536.44 1529.05 1536.44 Q1524.4 1536.44 1521.73 1540.13 Q1519.08 1543.79 1519.08 1550.25 Q1519.08 1556.71 1521.73 1560.4 Q1524.4 1564.07 1529.05 1564.07 Q1533.69 1564.07 1536.34 1560.4 Q1539.01 1556.71 1539.01 1550.25 Z" fill="#000000" fill-rule="nonzero" fill-opacity="1" /><path clip-path="url(#clip610)" d="M1580.39 1550.25 Q1580.39 1543.79 1577.71 1540.13 Q1575.07 1536.44 1570.42 1536.44 Q1565.78 1536.44 1563.1 1540.13 Q1560.46 1543.79 1560.46 1550.25 Q1560.46 1556.71 1563.1 1560.4 Q1565.78 1564.07 1570.42 1564.07 Q1575.07 1564.07 1577.71 1560.4 Q1580.39 1556.71 1580.39 1550.25 M1560.46 1537.81 Q1562.31 1534.62 1565.11 1533.1 Q1567.94 1531.54 1571.86 1531.54 Q1578.35 1531.54 1582.39 1536.69 Q1586.47 1541.85 1586.47 1550.25 Q1586.47 1558.65 1582.39 1563.81 Q1578.35 1568.97 1571.86 1568.97 Q1567.94 1568.97 1565.11 1567.44 Q1562.31 1565.88 1560.46 1562.7 L1560.46 1568.04 L1554.57 1568.04 L1554.57 1518.52 L1560.46 1518.52 L1560.46 1537.81 Z" fill="#000000" fill-rule="nonzero" fill-opacity="1" /><path clip-path="url(#clip610)" d="M1595.25 1518.58 L1600.34 1518.58 Q1605.12 1526.09 1607.47 1533.29 Q1609.86 1540.48 1609.86 1547.58 Q1609.86 1554.71 1607.47 1561.93 Q1605.12 1569.16 1600.34 1576.64 L1595.25 1576.64 Q1599.48 1569.35 1601.55 1562.16 Q1603.65 1554.93 1603.65 1547.58 Q1603.65 1540.23 1601.55 1533.06 Q1599.48 1525.9 1595.25 1518.58 Z" fill="#000000" fill-rule="nonzero" fill-opacity="1" /><polyline clip-path="url(#clip610)" style="stroke:#000000; stroke-linecap:round; stroke-linejoin:round; stroke-width:4; stroke-opacity:1; fill:none" points="219.38,1423.18 219.38,47.2441 "/>
<polyline clip-path="url(#clip610)" style="stroke:#000000; stroke-linecap:round; stroke-linejoin:round; stroke-width:4; stroke-opacity:1; fill:none" points="219.38,1423.18 238.278,1423.18 "/>
<polyline clip-path="url(#clip610)" style="stroke:#000000; stroke-linecap:round; stroke-linejoin:round; stroke-width:4; stroke-opacity:1; fill:none" points="219.38,1030.06 238.278,1030.06 "/>
<polyline clip-path="url(#clip610)" style="stroke:#000000; stroke-linecap:round; stroke-linejoin:round; stroke-width:4; stroke-opacity:1; fill:none" points="219.38,636.931 238.278,636.931 "/>
<polyline clip-path="url(#clip610)" style="stroke:#000000; stroke-linecap:round; stroke-linejoin:round; stroke-width:4; stroke-opacity:1; fill:none" points="219.38,243.806 238.278,243.806 "/>
<path clip-path="url(#clip610)" d="M126.205 1408.98 Q122.593 1408.98 120.765 1412.54 Q118.959 1416.08 118.959 1423.21 Q118.959 1430.32 120.765 1433.89 Q122.593 1437.43 126.205 1437.43 Q129.839 1437.43 131.644 1433.89 Q133.473 1430.32 133.473 1423.21 Q133.473 1416.08 131.644 1412.54 Q129.839 1408.98 126.205 1408.98 M126.205 1405.27 Q132.015 1405.27 135.07 1409.88 Q138.149 1414.46 138.149 1423.21 Q138.149 1431.94 135.07 1436.55 Q132.015 1441.13 126.205 1441.13 Q120.394 1441.13 117.316 1436.55 Q114.26 1431.94 114.26 1423.21 Q114.26 1414.46 117.316 1409.88 Q120.394 1405.27 126.205 1405.27 Z" fill="#000000" fill-rule="nonzero" fill-opacity="1" /><path clip-path="url(#clip610)" d="M146.366 1434.58 L151.251 1434.58 L151.251 1440.46 L146.366 1440.46 L146.366 1434.58 Z" fill="#000000" fill-rule="nonzero" fill-opacity="1" /><path clip-path="url(#clip610)" d="M171.436 1408.98 Q167.825 1408.98 165.996 1412.54 Q164.19 1416.08 164.19 1423.21 Q164.19 1430.32 165.996 1433.89 Q167.825 1437.43 171.436 1437.43 Q175.07 1437.43 176.876 1433.89 Q178.704 1430.32 178.704 1423.21 Q178.704 1416.08 176.876 1412.54 Q175.07 1408.98 171.436 1408.98 M171.436 1405.27 Q177.246 1405.27 180.301 1409.88 Q183.38 1414.46 183.38 1423.21 Q183.38 1431.94 180.301 1436.55 Q177.246 1441.13 171.436 1441.13 Q165.626 1441.13 162.547 1436.55 Q159.491 1431.94 159.491 1423.21 Q159.491 1414.46 162.547 1409.88 Q165.626 1405.27 171.436 1405.27 Z" fill="#000000" fill-rule="nonzero" fill-opacity="1" /><path clip-path="url(#clip610)" d="M127.431 1015.85 Q123.82 1015.85 121.992 1019.42 Q120.186 1022.96 120.186 1030.09 Q120.186 1037.2 121.992 1040.76 Q123.82 1044.3 127.431 1044.3 Q131.066 1044.3 132.871 1040.76 Q134.7 1037.2 134.7 1030.09 Q134.7 1022.96 132.871 1019.42 Q131.066 1015.85 127.431 1015.85 M127.431 1012.15 Q133.242 1012.15 136.297 1016.76 Q139.376 1021.34 139.376 1030.09 Q139.376 1038.82 136.297 1043.42 Q133.242 1048.01 127.431 1048.01 Q121.621 1048.01 118.543 1043.42 Q115.487 1038.82 115.487 1030.09 Q115.487 1021.34 118.543 1016.76 Q121.621 1012.15 127.431 1012.15 Z" fill="#000000" fill-rule="nonzero" fill-opacity="1" /><path clip-path="url(#clip610)" d="M147.593 1041.46 L152.478 1041.46 L152.478 1047.34 L147.593 1047.34 L147.593 1041.46 Z" fill="#000000" fill-rule="nonzero" fill-opacity="1" /><path clip-path="url(#clip610)" d="M163.473 1043.4 L171.112 1043.4 L171.112 1017.03 L162.802 1018.7 L162.802 1014.44 L171.065 1012.78 L175.741 1012.78 L175.741 1043.4 L183.38 1043.4 L183.38 1047.34 L163.473 1047.34 L163.473 1043.4 Z" fill="#000000" fill-rule="nonzero" fill-opacity="1" /><path clip-path="url(#clip610)" d="M127.802 622.73 Q124.191 622.73 122.362 626.294 Q120.556 629.836 120.556 636.966 Q120.556 644.072 122.362 647.637 Q124.191 651.178 127.802 651.178 Q131.436 651.178 133.242 647.637 Q135.07 644.072 135.07 636.966 Q135.07 629.836 133.242 626.294 Q131.436 622.73 127.802 622.73 M127.802 619.026 Q133.612 619.026 136.667 623.632 Q139.746 628.216 139.746 636.966 Q139.746 645.692 136.667 650.299 Q133.612 654.882 127.802 654.882 Q121.992 654.882 118.913 650.299 Q115.857 645.692 115.857 636.966 Q115.857 628.216 118.913 623.632 Q121.992 619.026 127.802 619.026 Z" fill="#000000" fill-rule="nonzero" fill-opacity="1" /><path clip-path="url(#clip610)" d="M147.964 648.331 L152.848 648.331 L152.848 654.211 L147.964 654.211 L147.964 648.331 Z" fill="#000000" fill-rule="nonzero" fill-opacity="1" /><path clip-path="url(#clip610)" d="M167.061 650.276 L183.38 650.276 L183.38 654.211 L161.436 654.211 L161.436 650.276 Q164.098 647.521 168.681 642.891 Q173.288 638.239 174.468 636.896 Q176.714 634.373 177.593 632.637 Q178.496 630.878 178.496 629.188 Q178.496 626.433 176.551 624.697 Q174.63 622.961 171.528 622.961 Q169.329 622.961 166.876 623.725 Q164.445 624.489 161.667 626.04 L161.667 621.318 Q164.491 620.183 166.945 619.605 Q169.399 619.026 171.436 619.026 Q176.806 619.026 180.001 621.711 Q183.195 624.396 183.195 628.887 Q183.195 631.017 182.385 632.938 Q181.598 634.836 179.491 637.429 Q178.913 638.1 175.811 641.317 Q172.709 644.512 167.061 650.276 Z" fill="#000000" fill-rule="nonzero" fill-opacity="1" /><path clip-path="url(#clip610)" d="M126.853 229.605 Q123.242 229.605 121.413 233.17 Q119.607 236.711 119.607 243.841 Q119.607 250.948 121.413 254.512 Q123.242 258.054 126.853 258.054 Q130.487 258.054 132.292 254.512 Q134.121 250.948 134.121 243.841 Q134.121 236.711 132.292 233.17 Q130.487 229.605 126.853 229.605 M126.853 225.901 Q132.663 225.901 135.718 230.508 Q138.797 235.091 138.797 243.841 Q138.797 252.568 135.718 257.174 Q132.663 261.758 126.853 261.758 Q121.043 261.758 117.964 257.174 Q114.908 252.568 114.908 243.841 Q114.908 235.091 117.964 230.508 Q121.043 225.901 126.853 225.901 Z" fill="#000000" fill-rule="nonzero" fill-opacity="1" /><path clip-path="url(#clip610)" d="M147.015 255.207 L151.899 255.207 L151.899 261.086 L147.015 261.086 L147.015 255.207 Z" fill="#000000" fill-rule="nonzero" fill-opacity="1" /><path clip-path="url(#clip610)" d="M176.251 242.452 Q179.607 243.17 181.482 245.438 Q183.38 247.707 183.38 251.04 Q183.38 256.156 179.862 258.957 Q176.343 261.758 169.862 261.758 Q167.686 261.758 165.371 261.318 Q163.079 260.901 160.626 260.045 L160.626 255.531 Q162.57 256.665 164.885 257.244 Q167.2 257.822 169.723 257.822 Q174.121 257.822 176.413 256.086 Q178.727 254.35 178.727 251.04 Q178.727 247.985 176.575 246.272 Q174.445 244.536 170.626 244.536 L166.598 244.536 L166.598 240.693 L170.811 240.693 Q174.26 240.693 176.089 239.327 Q177.917 237.938 177.917 235.346 Q177.917 232.684 176.019 231.272 Q174.144 229.837 170.626 229.837 Q168.704 229.837 166.505 230.253 Q164.306 230.67 161.667 231.549 L161.667 227.383 Q164.329 226.642 166.644 226.272 Q168.982 225.901 171.042 225.901 Q176.366 225.901 179.468 228.332 Q182.57 230.739 182.57 234.86 Q182.57 237.73 180.926 239.721 Q179.283 241.688 176.251 242.452 Z" fill="#000000" fill-rule="nonzero" fill-opacity="1" /><path clip-path="url(#clip610)" d="M21.7677 896.901 L39.6235 896.901 L39.6235 888.816 Q39.6235 884.329 37.3 881.878 Q34.9765 879.427 30.6797 879.427 Q26.4147 879.427 24.0912 881.878 Q21.7677 884.329 21.7677 888.816 L21.7677 896.901 M16.4842 903.33 L16.4842 888.816 Q16.4842 880.828 20.1126 876.753 Q23.7092 872.648 30.6797 872.648 Q37.7138 872.648 41.3104 876.753 Q44.907 880.828 44.907 888.816 L44.907 896.901 L64.0042 896.901 L64.0042 903.33 L16.4842 903.33 Z" fill="#000000" fill-rule="nonzero" fill-opacity="1" /><path clip-path="url(#clip610)" d="M33.8307 844.766 Q33.2578 845.752 33.0032 846.93 Q32.7167 848.076 32.7167 849.476 Q32.7167 854.442 35.9632 857.115 Q39.1779 859.757 45.2253 859.757 L64.0042 859.757 L64.0042 865.645 L28.3562 865.645 L28.3562 859.757 L33.8944 859.757 Q30.6479 857.911 29.0883 854.951 Q27.4968 851.991 27.4968 847.758 Q27.4968 847.153 27.5923 846.421 Q27.656 845.689 27.8151 844.798 L33.8307 844.766 Z" fill="#000000" fill-rule="nonzero" fill-opacity="1" /><path clip-path="url(#clip610)" d="M32.4621 826.242 Q32.4621 830.952 36.1542 833.689 Q39.8145 836.427 46.212 836.427 Q52.6095 836.427 56.3017 833.721 Q59.9619 830.984 59.9619 826.242 Q59.9619 821.563 56.2698 818.826 Q52.5777 816.088 46.212 816.088 Q39.8781 816.088 36.186 818.826 Q32.4621 821.563 32.4621 826.242 M27.4968 826.242 Q27.4968 818.603 32.4621 814.242 Q37.4273 809.882 46.212 809.882 Q54.9649 809.882 59.9619 814.242 Q64.9272 818.603 64.9272 826.242 Q64.9272 833.912 59.9619 838.273 Q54.9649 842.601 46.212 842.601 Q37.4273 842.601 32.4621 838.273 Q27.4968 833.912 27.4968 826.242 Z" fill="#000000" fill-rule="nonzero" fill-opacity="1" /><path clip-path="url(#clip610)" d="M46.212 774.584 Q39.7508 774.584 36.0905 777.257 Q32.3984 779.899 32.3984 784.546 Q32.3984 789.193 36.0905 791.867 Q39.7508 794.509 46.212 794.509 Q52.6732 794.509 56.3653 791.867 Q60.0256 789.193 60.0256 784.546 Q60.0256 779.899 56.3653 777.257 Q52.6732 774.584 46.212 774.584 M33.7671 794.509 Q30.5842 792.662 29.0564 789.862 Q27.4968 787.029 27.4968 783.114 Q27.4968 776.621 32.6531 772.579 Q37.8093 768.505 46.212 768.505 Q54.6147 768.505 59.771 772.579 Q64.9272 776.621 64.9272 783.114 Q64.9272 787.029 63.3994 789.862 Q61.8398 792.662 58.657 794.509 L64.0042 794.509 L64.0042 800.397 L14.479 800.397 L14.479 794.509 L33.7671 794.509 Z" fill="#000000" fill-rule="nonzero" fill-opacity="1" /><path clip-path="url(#clip610)" d="M46.0847 742.596 Q46.0847 749.694 47.7079 752.431 Q49.3312 755.168 53.2461 755.168 Q56.3653 755.168 58.2114 753.131 Q60.0256 751.063 60.0256 747.53 Q60.0256 742.66 56.5881 739.732 Q53.1188 736.772 47.3897 736.772 L46.0847 736.772 L46.0847 742.596 M43.6657 730.915 L64.0042 730.915 L64.0042 736.772 L58.5933 736.772 Q61.8398 738.777 63.3994 741.769 Q64.9272 744.761 64.9272 749.089 Q64.9272 754.564 61.8716 757.81 Q58.7843 761.025 53.6281 761.025 Q47.6125 761.025 44.5569 757.015 Q41.5014 752.972 41.5014 744.983 L41.5014 736.772 L40.9285 736.772 Q36.8862 736.772 34.6901 739.445 Q32.4621 742.087 32.4621 746.893 Q32.4621 749.949 33.1941 752.845 Q33.9262 755.741 35.3903 758.415 L29.9795 758.415 Q28.7381 755.2 28.1334 752.177 Q27.4968 749.153 27.4968 746.288 Q27.4968 738.554 31.5072 734.735 Q35.5176 730.915 43.6657 730.915 Z" fill="#000000" fill-rule="nonzero" fill-opacity="1" /><path clip-path="url(#clip610)" d="M46.212 693.262 Q39.7508 693.262 36.0905 695.936 Q32.3984 698.577 32.3984 703.224 Q32.3984 707.871 36.0905 710.545 Q39.7508 713.187 46.212 713.187 Q52.6732 713.187 56.3653 710.545 Q60.0256 707.871 60.0256 703.224 Q60.0256 698.577 56.3653 695.936 Q52.6732 693.262 46.212 693.262 M33.7671 713.187 Q30.5842 711.341 29.0564 708.54 Q27.4968 705.707 27.4968 701.792 Q27.4968 695.299 32.6531 691.257 Q37.8093 687.183 46.212 687.183 Q54.6147 687.183 59.771 691.257 Q64.9272 695.299 64.9272 701.792 Q64.9272 705.707 63.3994 708.54 Q61.8398 711.341 58.657 713.187 L64.0042 713.187 L64.0042 719.075 L14.479 719.075 L14.479 713.187 L33.7671 713.187 Z" fill="#000000" fill-rule="nonzero" fill-opacity="1" /><path clip-path="url(#clip610)" d="M28.3562 677.475 L28.3562 671.619 L64.0042 671.619 L64.0042 677.475 L28.3562 677.475 M14.479 677.475 L14.479 671.619 L21.895 671.619 L21.895 677.475 L14.479 677.475 Z" fill="#000000" fill-rule="nonzero" fill-opacity="1" /><path clip-path="url(#clip610)" d="M14.479 659.365 L14.479 653.508 L64.0042 653.508 L64.0042 659.365 L14.479 659.365 Z" fill="#000000" fill-rule="nonzero" fill-opacity="1" /><path clip-path="url(#clip610)" d="M28.3562 641.254 L28.3562 635.398 L64.0042 635.398 L64.0042 641.254 L28.3562 641.254 M14.479 641.254 L14.479 635.398 L21.895 635.398 L21.895 641.254 L14.479 641.254 Z" fill="#000000" fill-rule="nonzero" fill-opacity="1" /><path clip-path="url(#clip610)" d="M18.2347 617.351 L28.3562 617.351 L28.3562 605.288 L32.9077 605.288 L32.9077 617.351 L52.2594 617.351 Q56.6199 617.351 57.8613 616.173 Q59.1026 614.964 59.1026 611.303 L59.1026 605.288 L64.0042 605.288 L64.0042 611.303 Q64.0042 618.083 61.4897 620.661 Q58.9434 623.239 52.2594 623.239 L32.9077 623.239 L32.9077 627.536 L28.3562 627.536 L28.3562 623.239 L18.2347 623.239 L18.2347 617.351 Z" fill="#000000" fill-rule="nonzero" fill-opacity="1" /><path clip-path="url(#clip610)" d="M67.3143 582.753 Q73.68 585.236 75.6216 587.591 Q77.5631 589.947 77.5631 593.893 L77.5631 598.572 L72.6615 598.572 L72.6615 595.135 Q72.6615 592.716 71.5157 591.379 Q70.3699 590.042 66.1048 588.419 L63.4312 587.368 L28.3562 601.787 L28.3562 595.58 L56.238 584.44 L28.3562 573.3 L28.3562 567.094 L67.3143 582.753 Z" fill="#000000" fill-rule="nonzero" fill-opacity="1" /><path clip-path="url(#clip612)" d="M336.72 833.493 L336.72 1423.18 L653.169 1423.18 L653.169 833.493 L336.72 833.493 L336.72 833.493  Z" fill="#009af9" fill-rule="evenodd" fill-opacity="1"/>
<polyline clip-path="url(#clip612)" style="stroke:#000000; stroke-linecap:round; stroke-linejoin:round; stroke-width:4; stroke-opacity:1; fill:none" points="336.72,833.493 336.72,1423.18 653.169,1423.18 653.169,833.493 336.72,833.493 "/>
<path clip-path="url(#clip612)" d="M653.169 47.2441 L653.169 1423.18 L969.619 1423.18 L969.619 47.2441 L653.169 47.2441 L653.169 47.2441  Z" fill="#009af9" fill-rule="evenodd" fill-opacity="1"/>
<polyline clip-path="url(#clip612)" style="stroke:#000000; stroke-linecap:round; stroke-linejoin:round; stroke-width:4; stroke-opacity:1; fill:none" points="653.169,47.2441 653.169,1423.18 969.619,1423.18 969.619,47.2441 653.169,47.2441 "/>
<path clip-path="url(#clip612)" d="M969.619 1030.06 L969.619 1423.18 L1286.07 1423.18 L1286.07 1030.06 L969.619 1030.06 L969.619 1030.06  Z" fill="#009af9" fill-rule="evenodd" fill-opacity="1"/>
<polyline clip-path="url(#clip612)" style="stroke:#000000; stroke-linecap:round; stroke-linejoin:round; stroke-width:4; stroke-opacity:1; fill:none" points="969.619,1030.06 969.619,1423.18 1286.07,1423.18 1286.07,1030.06 969.619,1030.06 "/>
<path clip-path="url(#clip612)" d="M1286.07 1030.06 L1286.07 1423.18 L1602.52 1423.18 L1602.52 1030.06 L1286.07 1030.06 L1286.07 1030.06  Z" fill="#009af9" fill-rule="evenodd" fill-opacity="1"/>
<polyline clip-path="url(#clip612)" style="stroke:#000000; stroke-linecap:round; stroke-linejoin:round; stroke-width:4; stroke-opacity:1; fill:none" points="1286.07,1030.06 1286.07,1423.18 1602.52,1423.18 1602.52,1030.06 1286.07,1030.06 "/>
<path clip-path="url(#clip612)" d="M1602.52 440.369 L1602.52 1423.18 L1918.97 1423.18 L1918.97 440.369 L1602.52 440.369 L1602.52 440.369  Z" fill="#009af9" fill-rule="evenodd" fill-opacity="1"/>
<polyline clip-path="url(#clip612)" style="stroke:#000000; stroke-linecap:round; stroke-linejoin:round; stroke-width:4; stroke-opacity:1; fill:none" points="1602.52,440.369 1602.52,1423.18 1918.97,1423.18 1918.97,440.369 1602.52,440.369 "/>
<path clip-path="url(#clip612)" d="M1918.97 1226.62 L1918.97 1423.18 L2235.42 1423.18 L2235.42 1226.62 L1918.97 1226.62 L1918.97 1226.62  Z" fill="#009af9" fill-rule="evenodd" fill-opacity="1"/>
<polyline clip-path="url(#clip612)" style="stroke:#000000; stroke-linecap:round; stroke-linejoin:round; stroke-width:4; stroke-opacity:1; fill:none" points="1918.97,1226.62 1918.97,1423.18 2235.42,1423.18 2235.42,1226.62 1918.97,1226.62 "/>
<circle clip-path="url(#clip612)" style="fill:#009af9; stroke:none; fill-opacity:0" cx="494.944" cy="833.493" r="2"/>
<circle clip-path="url(#clip612)" style="fill:#009af9; stroke:none; fill-opacity:0" cx="811.394" cy="47.2441" r="2"/>
<circle clip-path="url(#clip612)" style="fill:#009af9; stroke:none; fill-opacity:0" cx="1127.84" cy="1030.06" r="2"/>
<circle clip-path="url(#clip612)" style="fill:#009af9; stroke:none; fill-opacity:0" cx="1444.29" cy="1030.06" r="2"/>
<circle clip-path="url(#clip612)" style="fill:#009af9; stroke:none; fill-opacity:0" cx="1760.74" cy="440.369" r="2"/>
<circle clip-path="url(#clip612)" style="fill:#009af9; stroke:none; fill-opacity:0" cx="2077.19" cy="1226.62" r="2"/>
</svg>
