<?xml version="1.0" encoding="utf-8"?>
<svg xmlns="http://www.w3.org/2000/svg" xmlns:xlink="http://www.w3.org/1999/xlink" width="600" height="400" viewBox="0 0 2400 1600">
<defs>
  <clipPath id="clip350">
    <rect x="0" y="0" width="2400" height="1600"/>
  </clipPath>
</defs>
<path clip-path="url(#clip350)" d="M0 1600 L2400 1600 L2400 0 L0 0  Z" fill="#ffffff" fill-rule="evenodd" fill-opacity="1"/>
<defs>
  <clipPath id="clip351">
    <rect x="480" y="0" width="1681" height="1600"/>
  </clipPath>
</defs>
<path clip-path="url(#clip350)" d="M257.69 1423.18 L2352.76 1423.18 L2352.76 47.2441 L257.69 47.2441  Z" fill="#ffffff" fill-rule="evenodd" fill-opacity="1"/>
<defs>
  <clipPath id="clip352">
    <rect x="257" y="47" width="2096" height="1377"/>
  </clipPath>
</defs>
<polyline clip-path="url(#clip352)" style="stroke:#000000; stroke-linecap:round; stroke-linejoin:round; stroke-width:2; stroke-opacity:0.1; fill:none" points="569.196,1423.18 569.196,47.2441 "/>
<polyline clip-path="url(#clip352)" style="stroke:#000000; stroke-linecap:round; stroke-linejoin:round; stroke-width:2; stroke-opacity:0.1; fill:none" points="1059.88,1423.18 1059.88,47.2441 "/>
<polyline clip-path="url(#clip352)" style="stroke:#000000; stroke-linecap:round; stroke-linejoin:round; stroke-width:2; stroke-opacity:0.1; fill:none" points="1550.57,1423.18 1550.57,47.2441 "/>
<polyline clip-path="url(#clip352)" style="stroke:#000000; stroke-linecap:round; stroke-linejoin:round; stroke-width:2; stroke-opacity:0.1; fill:none" points="2041.25,1423.18 2041.25,47.2441 "/>
<polyline clip-path="url(#clip352)" style="stroke:#000000; stroke-linecap:round; stroke-linejoin:round; stroke-width:2; stroke-opacity:0.1; fill:none" points="257.69,1262.98 2352.76,1262.98 "/>
<polyline clip-path="url(#clip352)" style="stroke:#000000; stroke-linecap:round; stroke-linejoin:round; stroke-width:2; stroke-opacity:0.1; fill:none" points="257.69,1050.95 2352.76,1050.95 "/>
<polyline clip-path="url(#clip352)" style="stroke:#000000; stroke-linecap:round; stroke-linejoin:round; stroke-width:2; stroke-opacity:0.1; fill:none" points="257.69,838.915 2352.76,838.915 "/>
<polyline clip-path="url(#clip352)" style="stroke:#000000; stroke-linecap:round; stroke-linejoin:round; stroke-width:2; stroke-opacity:0.1; fill:none" points="257.69,626.883 2352.76,626.883 "/>
<polyline clip-path="url(#clip352)" style="stroke:#000000; stroke-linecap:round; stroke-linejoin:round; stroke-width:2; stroke-opacity:0.1; fill:none" points="257.69,414.85 2352.76,414.85 "/>
<polyline clip-path="url(#clip352)" style="stroke:#000000; stroke-linecap:round; stroke-linejoin:round; stroke-width:2; stroke-opacity:0.1; fill:none" points="257.69,202.817 2352.76,202.817 "/>
<polyline clip-path="url(#clip350)" style="stroke:#000000; stroke-linecap:round; stroke-linejoin:round; stroke-width:4; stroke-opacity:1; fill:none" points="257.69,1423.18 2352.76,1423.18 "/>
<polyline clip-path="url(#clip350)" style="stroke:#000000; stroke-linecap:round; stroke-linejoin:round; stroke-width:4; stroke-opacity:1; fill:none" points="569.196,1423.18 569.196,1404.28 "/>
<polyline clip-path="url(#clip350)" style="stroke:#000000; stroke-linecap:round; stroke-linejoin:round; stroke-width:4; stroke-opacity:1; fill:none" points="1059.88,1423.18 1059.88,1404.28 "/>
<polyline clip-path="url(#clip350)" style="stroke:#000000; stroke-linecap:round; stroke-linejoin:round; stroke-width:4; stroke-opacity:1; fill:none" points="1550.57,1423.18 1550.57,1404.28 "/>
<polyline clip-path="url(#clip350)" style="stroke:#000000; stroke-linecap:round; stroke-linejoin:round; stroke-width:4; stroke-opacity:1; fill:none" points="2041.25,1423.18 2041.25,1404.28 "/>
<path clip-path="url(#clip350)" d="M559.578 1481.64 L567.217 1481.64 L567.217 1455.28 L558.907 1456.95 L558.907 1452.69 L567.171 1451.02 L571.847 1451.02 L571.847 1481.64 L579.486 1481.64 L579.486 1485.58 L559.578 1485.58 L559.578 1481.64 Z" fill="#000000" fill-rule="nonzero" fill-opacity="1" /><path clip-path="url(#clip350)" d="M1054.53 1481.64 L1070.85 1481.64 L1070.85 1485.58 L1048.91 1485.58 L1048.91 1481.64 Q1051.57 1478.89 1056.15 1474.26 Q1060.76 1469.61 1061.94 1468.27 Q1064.19 1465.74 1065.07 1464.01 Q1065.97 1462.25 1065.97 1460.56 Q1065.97 1457.8 1064.02 1456.07 Q1062.1 1454.33 1059 1454.33 Q1056.8 1454.33 1054.35 1455.09 Q1051.92 1455.86 1049.14 1457.41 L1049.14 1452.69 Q1051.96 1451.55 1054.42 1450.97 Q1056.87 1450.39 1058.91 1450.39 Q1064.28 1450.39 1067.47 1453.08 Q1070.67 1455.77 1070.67 1460.26 Q1070.67 1462.39 1069.86 1464.31 Q1069.07 1466.2 1066.96 1468.8 Q1066.39 1469.47 1063.28 1472.69 Q1060.18 1475.88 1054.53 1481.64 Z" fill="#000000" fill-rule="nonzero" fill-opacity="1" /><path clip-path="url(#clip350)" d="M1554.81 1466.95 Q1558.17 1467.66 1560.04 1469.93 Q1561.94 1472.2 1561.94 1475.53 Q1561.94 1480.65 1558.42 1483.45 Q1554.91 1486.25 1548.42 1486.25 Q1546.25 1486.25 1543.93 1485.81 Q1541.64 1485.39 1539.19 1484.54 L1539.19 1480.02 Q1541.13 1481.16 1543.45 1481.74 Q1545.76 1482.32 1548.29 1482.32 Q1552.68 1482.32 1554.97 1480.58 Q1557.29 1478.84 1557.29 1475.53 Q1557.29 1472.48 1555.14 1470.77 Q1553.01 1469.03 1549.19 1469.03 L1545.16 1469.03 L1545.16 1465.19 L1549.37 1465.19 Q1552.82 1465.19 1554.65 1463.82 Q1556.48 1462.43 1556.48 1459.84 Q1556.48 1457.18 1554.58 1455.77 Q1552.71 1454.33 1549.19 1454.33 Q1547.27 1454.33 1545.07 1454.75 Q1542.87 1455.16 1540.23 1456.04 L1540.23 1451.88 Q1542.89 1451.14 1545.21 1450.77 Q1547.54 1450.39 1549.6 1450.39 Q1554.93 1450.39 1558.03 1452.83 Q1561.13 1455.23 1561.13 1459.35 Q1561.13 1462.22 1559.49 1464.21 Q1557.85 1466.18 1554.81 1466.95 Z" fill="#000000" fill-rule="nonzero" fill-opacity="1" /><path clip-path="url(#clip350)" d="M2044.26 1455.09 L2032.45 1473.54 L2044.26 1473.54 L2044.26 1455.09 M2043.03 1451.02 L2048.91 1451.02 L2048.91 1473.54 L2053.84 1473.54 L2053.84 1477.43 L2048.91 1477.43 L2048.91 1485.58 L2044.26 1485.58 L2044.26 1477.43 L2028.66 1477.43 L2028.66 1472.92 L2043.03 1451.02 Z" fill="#000000" fill-rule="nonzero" fill-opacity="1" /><path clip-path="url(#clip350)" d="M1143.52 1568.04 L1125.38 1520.52 L1132.09 1520.52 L1147.15 1560.53 L1162.23 1520.52 L1168.92 1520.52 L1150.81 1568.04 L1143.52 1568.04 Z" fill="#000000" fill-rule="nonzero" fill-opacity="1" /><path clip-path="url(#clip350)" d="M1186.74 1550.12 Q1179.64 1550.12 1176.91 1551.75 Q1174.17 1553.37 1174.17 1557.29 Q1174.17 1560.4 1176.21 1562.25 Q1178.27 1564.07 1181.81 1564.07 Q1186.68 1564.07 1189.61 1560.63 Q1192.57 1557.16 1192.57 1551.43 L1192.57 1550.12 L1186.74 1550.12 M1198.42 1547.71 L1198.42 1568.04 L1192.57 1568.04 L1192.57 1562.63 Q1190.56 1565.88 1187.57 1567.44 Q1184.58 1568.97 1180.25 1568.97 Q1174.77 1568.97 1171.53 1565.91 Q1168.31 1562.82 1168.31 1557.67 Q1168.31 1551.65 1172.32 1548.6 Q1176.37 1545.54 1184.35 1545.54 L1192.57 1545.54 L1192.57 1544.97 Q1192.57 1540.93 1189.89 1538.73 Q1187.25 1536.5 1182.44 1536.5 Q1179.39 1536.5 1176.49 1537.23 Q1173.6 1537.97 1170.92 1539.43 L1170.92 1534.02 Q1174.14 1532.78 1177.16 1532.17 Q1180.18 1531.54 1183.05 1531.54 Q1190.78 1531.54 1194.6 1535.55 Q1198.42 1539.56 1198.42 1547.71 Z" fill="#000000" fill-rule="nonzero" fill-opacity="1" /><path clip-path="url(#clip350)" d="M1231.14 1537.87 Q1230.16 1537.3 1228.98 1537.04 Q1227.83 1536.76 1226.43 1536.76 Q1221.47 1536.76 1218.79 1540 Q1216.15 1543.22 1216.15 1549.27 L1216.15 1568.04 L1210.26 1568.04 L1210.26 1532.4 L1216.15 1532.4 L1216.15 1537.93 Q1218 1534.69 1220.96 1533.13 Q1223.92 1531.54 1228.15 1531.54 Q1228.75 1531.54 1229.49 1531.63 Q1230.22 1531.7 1231.11 1531.85 L1231.14 1537.87 Z" fill="#000000" fill-rule="nonzero" fill-opacity="1" /><path clip-path="url(#clip350)" d="M1237.29 1532.4 L1243.14 1532.4 L1243.14 1568.04 L1237.29 1568.04 L1237.29 1532.4 M1237.29 1518.52 L1243.14 1518.52 L1243.14 1525.93 L1237.29 1525.93 L1237.29 1518.52 Z" fill="#000000" fill-rule="nonzero" fill-opacity="1" /><path clip-path="url(#clip350)" d="M1271.6 1550.12 Q1264.5 1550.12 1261.76 1551.75 Q1259.02 1553.37 1259.02 1557.29 Q1259.02 1560.4 1261.06 1562.25 Q1263.13 1564.07 1266.66 1564.07 Q1271.53 1564.07 1274.46 1560.63 Q1277.42 1557.16 1277.42 1551.43 L1277.42 1550.12 L1271.6 1550.12 M1283.28 1547.71 L1283.28 1568.04 L1277.42 1568.04 L1277.42 1562.63 Q1275.42 1565.88 1272.42 1567.44 Q1269.43 1568.97 1265.1 1568.97 Q1259.63 1568.97 1256.38 1565.91 Q1253.17 1562.82 1253.17 1557.67 Q1253.17 1551.65 1257.18 1548.6 Q1261.22 1545.54 1269.21 1545.54 L1277.42 1545.54 L1277.42 1544.97 Q1277.42 1540.93 1274.75 1538.73 Q1272.11 1536.5 1267.3 1536.5 Q1264.24 1536.5 1261.35 1537.23 Q1258.45 1537.97 1255.78 1539.43 L1255.78 1534.02 Q1258.99 1532.78 1262.02 1532.17 Q1265.04 1531.54 1267.9 1531.54 Q1275.64 1531.54 1279.46 1535.55 Q1283.28 1539.56 1283.28 1547.71 Z" fill="#000000" fill-rule="nonzero" fill-opacity="1" /><path clip-path="url(#clip350)" d="M1320.93 1550.25 Q1320.93 1543.79 1318.26 1540.13 Q1315.62 1536.44 1310.97 1536.44 Q1306.32 1536.44 1303.65 1540.13 Q1301.01 1543.79 1301.01 1550.25 Q1301.01 1556.71 1303.65 1560.4 Q1306.32 1564.07 1310.97 1564.07 Q1315.62 1564.07 1318.26 1560.4 Q1320.93 1556.71 1320.93 1550.25 M1301.01 1537.81 Q1302.85 1534.62 1305.65 1533.1 Q1308.49 1531.54 1312.4 1531.54 Q1318.89 1531.54 1322.94 1536.69 Q1327.01 1541.85 1327.01 1550.25 Q1327.01 1558.65 1322.94 1563.81 Q1318.89 1568.97 1312.4 1568.97 Q1308.49 1568.97 1305.65 1567.44 Q1302.85 1565.88 1301.01 1562.7 L1301.01 1568.04 L1295.12 1568.04 L1295.12 1518.52 L1301.01 1518.52 L1301.01 1537.81 Z" fill="#000000" fill-rule="nonzero" fill-opacity="1" /><path clip-path="url(#clip350)" d="M1336.72 1518.52 L1342.57 1518.52 L1342.57 1568.04 L1336.72 1568.04 L1336.72 1518.52 Z" fill="#000000" fill-rule="nonzero" fill-opacity="1" /><path clip-path="url(#clip350)" d="M1385.32 1548.76 L1385.32 1551.62 L1358.39 1551.62 Q1358.77 1557.67 1362.02 1560.85 Q1365.3 1564 1371.12 1564 Q1374.5 1564 1377.65 1563.17 Q1380.83 1562.35 1383.95 1560.69 L1383.95 1566.23 Q1380.8 1567.57 1377.49 1568.27 Q1374.18 1568.97 1370.77 1568.97 Q1362.24 1568.97 1357.25 1564 Q1352.28 1559.04 1352.28 1550.57 Q1352.28 1541.82 1356.99 1536.69 Q1361.73 1531.54 1369.76 1531.54 Q1376.95 1531.54 1381.12 1536.18 Q1385.32 1540.8 1385.32 1548.76 M1379.46 1547.04 Q1379.4 1542.23 1376.76 1539.37 Q1374.15 1536.5 1369.82 1536.5 Q1364.92 1536.5 1361.96 1539.27 Q1359.03 1542.04 1358.58 1547.07 L1379.46 1547.04 Z" fill="#000000" fill-rule="nonzero" fill-opacity="1" /><path clip-path="url(#clip350)" d="M1415.91 1520.52 L1424.56 1520.52 L1445.63 1560.28 L1445.63 1520.52 L1451.87 1520.52 L1451.87 1568.04 L1443.22 1568.04 L1422.15 1528.29 L1422.15 1568.04 L1415.91 1568.04 L1415.91 1520.52 Z" fill="#000000" fill-rule="nonzero" fill-opacity="1" /><path clip-path="url(#clip350)" d="M1485.07 1537.87 Q1484.08 1537.3 1482.91 1537.04 Q1481.76 1536.76 1480.36 1536.76 Q1475.39 1536.76 1472.72 1540 Q1470.08 1543.22 1470.08 1549.27 L1470.08 1568.04 L1464.19 1568.04 L1464.19 1532.4 L1470.08 1532.4 L1470.08 1537.93 Q1471.92 1534.69 1474.89 1533.13 Q1477.85 1531.54 1482.08 1531.54 Q1482.68 1531.54 1483.42 1531.63 Q1484.15 1531.7 1485.04 1531.85 L1485.07 1537.87 Z" fill="#000000" fill-rule="nonzero" fill-opacity="1" /><polyline clip-path="url(#clip350)" style="stroke:#000000; stroke-linecap:round; stroke-linejoin:round; stroke-width:4; stroke-opacity:1; fill:none" points="257.69,1423.18 257.69,47.2441 "/>
<polyline clip-path="url(#clip350)" style="stroke:#000000; stroke-linecap:round; stroke-linejoin:round; stroke-width:4; stroke-opacity:1; fill:none" points="257.69,1262.98 276.588,1262.98 "/>
<polyline clip-path="url(#clip350)" style="stroke:#000000; stroke-linecap:round; stroke-linejoin:round; stroke-width:4; stroke-opacity:1; fill:none" points="257.69,1050.95 276.588,1050.95 "/>
<polyline clip-path="url(#clip350)" style="stroke:#000000; stroke-linecap:round; stroke-linejoin:round; stroke-width:4; stroke-opacity:1; fill:none" points="257.69,838.915 276.588,838.915 "/>
<polyline clip-path="url(#clip350)" style="stroke:#000000; stroke-linecap:round; stroke-linejoin:round; stroke-width:4; stroke-opacity:1; fill:none" points="257.69,626.883 276.588,626.883 "/>
<polyline clip-path="url(#clip350)" style="stroke:#000000; stroke-linecap:round; stroke-linejoin:round; stroke-width:4; stroke-opacity:1; fill:none" points="257.69,414.85 276.588,414.85 "/>
<polyline clip-path="url(#clip350)" style="stroke:#000000; stroke-linecap:round; stroke-linejoin:round; stroke-width:4; stroke-opacity:1; fill:none" points="257.69,202.817 276.588,202.817 "/>
<path clip-path="url(#clip350)" d="M114.584 1263.43 L144.26 1263.43 L144.26 1267.37 L114.584 1267.37 L114.584 1263.43 Z" fill="#000000" fill-rule="nonzero" fill-opacity="1" /><path clip-path="url(#clip350)" d="M164.352 1248.78 Q160.741 1248.78 158.913 1252.34 Q157.107 1255.89 157.107 1263.02 Q157.107 1270.12 158.913 1273.69 Q160.741 1277.23 164.352 1277.23 Q167.987 1277.23 169.792 1273.69 Q171.621 1270.12 171.621 1263.02 Q171.621 1255.89 169.792 1252.34 Q167.987 1248.78 164.352 1248.78 M164.352 1245.08 Q170.163 1245.08 173.218 1249.68 Q176.297 1254.27 176.297 1263.02 Q176.297 1271.74 173.218 1276.35 Q170.163 1280.93 164.352 1280.93 Q158.542 1280.93 155.464 1276.35 Q152.408 1271.74 152.408 1263.02 Q152.408 1254.27 155.464 1249.68 Q158.542 1245.08 164.352 1245.08 Z" fill="#000000" fill-rule="nonzero" fill-opacity="1" /><path clip-path="url(#clip350)" d="M184.514 1274.38 L189.399 1274.38 L189.399 1280.26 L184.514 1280.26 L184.514 1274.38 Z" fill="#000000" fill-rule="nonzero" fill-opacity="1" /><path clip-path="url(#clip350)" d="M210.162 1261.12 Q207.014 1261.12 205.162 1263.27 Q203.334 1265.42 203.334 1269.17 Q203.334 1272.9 205.162 1275.08 Q207.014 1277.23 210.162 1277.23 Q213.311 1277.23 215.139 1275.08 Q216.991 1272.9 216.991 1269.17 Q216.991 1265.42 215.139 1263.27 Q213.311 1261.12 210.162 1261.12 M219.445 1246.46 L219.445 1250.72 Q217.686 1249.89 215.88 1249.45 Q214.098 1249.01 212.338 1249.01 Q207.709 1249.01 205.255 1252.14 Q202.824 1255.26 202.477 1261.58 Q203.843 1259.57 205.903 1258.5 Q207.963 1257.41 210.44 1257.41 Q215.649 1257.41 218.658 1260.58 Q221.69 1263.73 221.69 1269.17 Q221.69 1274.5 218.542 1277.71 Q215.394 1280.93 210.162 1280.93 Q204.167 1280.93 200.996 1276.35 Q197.825 1271.74 197.825 1263.02 Q197.825 1254.82 201.713 1249.96 Q205.602 1245.08 212.153 1245.08 Q213.912 1245.08 215.695 1245.42 Q217.5 1245.77 219.445 1246.46 Z" fill="#000000" fill-rule="nonzero" fill-opacity="1" /><path clip-path="url(#clip350)" d="M114.26 1051.4 L143.936 1051.4 L143.936 1055.33 L114.26 1055.33 L114.26 1051.4 Z" fill="#000000" fill-rule="nonzero" fill-opacity="1" /><path clip-path="url(#clip350)" d="M164.028 1036.75 Q160.417 1036.75 158.589 1040.31 Q156.783 1043.85 156.783 1050.98 Q156.783 1058.09 158.589 1061.65 Q160.417 1065.2 164.028 1065.2 Q167.663 1065.2 169.468 1061.65 Q171.297 1058.09 171.297 1050.98 Q171.297 1043.85 169.468 1040.31 Q167.663 1036.75 164.028 1036.75 M164.028 1033.04 Q169.839 1033.04 172.894 1037.65 Q175.973 1042.23 175.973 1050.98 Q175.973 1059.71 172.894 1064.32 Q169.839 1068.9 164.028 1068.9 Q158.218 1068.9 155.14 1064.32 Q152.084 1059.71 152.084 1050.98 Q152.084 1042.23 155.14 1037.65 Q158.218 1033.04 164.028 1033.04 Z" fill="#000000" fill-rule="nonzero" fill-opacity="1" /><path clip-path="url(#clip350)" d="M184.19 1062.35 L189.075 1062.35 L189.075 1068.23 L184.19 1068.23 L184.19 1062.35 Z" fill="#000000" fill-rule="nonzero" fill-opacity="1" /><path clip-path="url(#clip350)" d="M212.107 1037.74 L200.301 1056.19 L212.107 1056.19 L212.107 1037.74 M210.88 1033.67 L216.76 1033.67 L216.76 1056.19 L221.69 1056.19 L221.69 1060.08 L216.76 1060.08 L216.76 1068.23 L212.107 1068.23 L212.107 1060.08 L196.505 1060.08 L196.505 1055.57 L210.88 1033.67 Z" fill="#000000" fill-rule="nonzero" fill-opacity="1" /><path clip-path="url(#clip350)" d="M116.343 839.367 L146.019 839.367 L146.019 843.302 L116.343 843.302 L116.343 839.367 Z" fill="#000000" fill-rule="nonzero" fill-opacity="1" /><path clip-path="url(#clip350)" d="M166.112 824.714 Q162.501 824.714 160.672 828.279 Q158.866 831.82 158.866 838.95 Q158.866 846.056 160.672 849.621 Q162.501 853.163 166.112 853.163 Q169.746 853.163 171.552 849.621 Q173.38 846.056 173.38 838.95 Q173.38 831.82 171.552 828.279 Q169.746 824.714 166.112 824.714 M166.112 821.01 Q171.922 821.01 174.977 825.617 Q178.056 830.2 178.056 838.95 Q178.056 847.677 174.977 852.283 Q171.922 856.866 166.112 856.866 Q160.302 856.866 157.223 852.283 Q154.167 847.677 154.167 838.95 Q154.167 830.2 157.223 825.617 Q160.302 821.01 166.112 821.01 Z" fill="#000000" fill-rule="nonzero" fill-opacity="1" /><path clip-path="url(#clip350)" d="M186.274 850.316 L191.158 850.316 L191.158 856.195 L186.274 856.195 L186.274 850.316 Z" fill="#000000" fill-rule="nonzero" fill-opacity="1" /><path clip-path="url(#clip350)" d="M205.371 852.26 L221.69 852.26 L221.69 856.195 L199.746 856.195 L199.746 852.26 Q202.408 849.505 206.991 844.876 Q211.598 840.223 212.778 838.88 Q215.024 836.357 215.903 834.621 Q216.806 832.862 216.806 831.172 Q216.806 828.418 214.861 826.681 Q212.94 824.945 209.838 824.945 Q207.639 824.945 205.186 825.709 Q202.755 826.473 199.977 828.024 L199.977 823.302 Q202.801 822.168 205.255 821.589 Q207.709 821.01 209.746 821.01 Q215.116 821.01 218.311 823.695 Q221.505 826.381 221.505 830.871 Q221.505 833.001 220.695 834.922 Q219.908 836.82 217.801 839.413 Q217.223 840.084 214.121 843.302 Q211.019 846.496 205.371 852.26 Z" fill="#000000" fill-rule="nonzero" fill-opacity="1" /><path clip-path="url(#clip350)" d="M164.515 612.681 Q160.903 612.681 159.075 616.246 Q157.269 619.788 157.269 626.917 Q157.269 634.024 159.075 637.589 Q160.903 641.13 164.515 641.13 Q168.149 641.13 169.954 637.589 Q171.783 634.024 171.783 626.917 Q171.783 619.788 169.954 616.246 Q168.149 612.681 164.515 612.681 M164.515 608.978 Q170.325 608.978 173.38 613.584 Q176.459 618.167 176.459 626.917 Q176.459 635.644 173.38 640.251 Q170.325 644.834 164.515 644.834 Q158.704 644.834 155.626 640.251 Q152.57 635.644 152.57 626.917 Q152.57 618.167 155.626 613.584 Q158.704 608.978 164.515 608.978 Z" fill="#000000" fill-rule="nonzero" fill-opacity="1" /><path clip-path="url(#clip350)" d="M184.676 638.283 L189.561 638.283 L189.561 644.163 L184.676 644.163 L184.676 638.283 Z" fill="#000000" fill-rule="nonzero" fill-opacity="1" /><path clip-path="url(#clip350)" d="M209.746 612.681 Q206.135 612.681 204.306 616.246 Q202.5 619.788 202.5 626.917 Q202.5 634.024 204.306 637.589 Q206.135 641.13 209.746 641.13 Q213.38 641.13 215.186 637.589 Q217.014 634.024 217.014 626.917 Q217.014 619.788 215.186 616.246 Q213.38 612.681 209.746 612.681 M209.746 608.978 Q215.556 608.978 218.611 613.584 Q221.69 618.167 221.69 626.917 Q221.69 635.644 218.611 640.251 Q215.556 644.834 209.746 644.834 Q203.936 644.834 200.857 640.251 Q197.801 635.644 197.801 626.917 Q197.801 618.167 200.857 613.584 Q203.936 608.978 209.746 608.978 Z" fill="#000000" fill-rule="nonzero" fill-opacity="1" /><path clip-path="url(#clip350)" d="M166.112 400.649 Q162.501 400.649 160.672 404.213 Q158.866 407.755 158.866 414.885 Q158.866 421.991 160.672 425.556 Q162.501 429.097 166.112 429.097 Q169.746 429.097 171.552 425.556 Q173.38 421.991 173.38 414.885 Q173.38 407.755 171.552 404.213 Q169.746 400.649 166.112 400.649 M166.112 396.945 Q171.922 396.945 174.977 401.551 Q178.056 406.135 178.056 414.885 Q178.056 423.611 174.977 428.218 Q171.922 432.801 166.112 432.801 Q160.302 432.801 157.223 428.218 Q154.167 423.611 154.167 414.885 Q154.167 406.135 157.223 401.551 Q160.302 396.945 166.112 396.945 Z" fill="#000000" fill-rule="nonzero" fill-opacity="1" /><path clip-path="url(#clip350)" d="M186.274 426.25 L191.158 426.25 L191.158 432.13 L186.274 432.13 L186.274 426.25 Z" fill="#000000" fill-rule="nonzero" fill-opacity="1" /><path clip-path="url(#clip350)" d="M205.371 428.195 L221.69 428.195 L221.69 432.13 L199.746 432.13 L199.746 428.195 Q202.408 425.44 206.991 420.811 Q211.598 416.158 212.778 414.815 Q215.024 412.292 215.903 410.556 Q216.806 408.797 216.806 407.107 Q216.806 404.352 214.861 402.616 Q212.94 400.88 209.838 400.88 Q207.639 400.88 205.186 401.644 Q202.755 402.408 199.977 403.959 L199.977 399.237 Q202.801 398.102 205.255 397.524 Q207.709 396.945 209.746 396.945 Q215.116 396.945 218.311 399.63 Q221.505 402.315 221.505 406.806 Q221.505 408.936 220.695 410.857 Q219.908 412.755 217.801 415.348 Q217.223 416.019 214.121 419.236 Q211.019 422.431 205.371 428.195 Z" fill="#000000" fill-rule="nonzero" fill-opacity="1" /><path clip-path="url(#clip350)" d="M164.028 188.616 Q160.417 188.616 158.589 192.181 Q156.783 195.722 156.783 202.852 Q156.783 209.958 158.589 213.523 Q160.417 217.065 164.028 217.065 Q167.663 217.065 169.468 213.523 Q171.297 209.958 171.297 202.852 Q171.297 195.722 169.468 192.181 Q167.663 188.616 164.028 188.616 M164.028 184.912 Q169.839 184.912 172.894 189.519 Q175.973 194.102 175.973 202.852 Q175.973 211.579 172.894 216.185 Q169.839 220.769 164.028 220.769 Q158.218 220.769 155.14 216.185 Q152.084 211.579 152.084 202.852 Q152.084 194.102 155.14 189.519 Q158.218 184.912 164.028 184.912 Z" fill="#000000" fill-rule="nonzero" fill-opacity="1" /><path clip-path="url(#clip350)" d="M184.19 214.218 L189.075 214.218 L189.075 220.097 L184.19 220.097 L184.19 214.218 Z" fill="#000000" fill-rule="nonzero" fill-opacity="1" /><path clip-path="url(#clip350)" d="M212.107 189.611 L200.301 208.06 L212.107 208.06 L212.107 189.611 M210.88 185.537 L216.76 185.537 L216.76 208.06 L221.69 208.06 L221.69 211.949 L216.76 211.949 L216.76 220.097 L212.107 220.097 L212.107 211.949 L196.505 211.949 L196.505 207.435 L210.88 185.537 Z" fill="#000000" fill-rule="nonzero" fill-opacity="1" /><path clip-path="url(#clip350)" d="M16.4842 917.048 L16.4842 910.619 L64.0042 910.619 L64.0042 917.048 L16.4842 917.048 Z" fill="#000000" fill-rule="nonzero" fill-opacity="1" /><path clip-path="url(#clip350)" d="M35.1993 870.324 Q31.2526 868.128 29.3747 865.072 Q27.4968 862.017 27.4968 857.879 Q27.4968 852.309 31.4117 849.285 Q35.2948 846.262 42.4881 846.262 L64.0042 846.262 L64.0042 852.15 L42.679 852.15 Q37.5546 852.15 35.072 853.964 Q32.5894 855.778 32.5894 859.502 Q32.5894 864.054 35.6131 866.696 Q38.6368 869.337 43.8567 869.337 L64.0042 869.337 L64.0042 875.226 L42.679 875.226 Q37.5228 875.226 35.072 877.04 Q32.5894 878.854 32.5894 882.642 Q32.5894 887.13 35.6449 889.771 Q38.6686 892.413 43.8567 892.413 L64.0042 892.413 L64.0042 898.301 L28.3562 898.301 L28.3562 892.413 L33.8944 892.413 Q30.616 890.408 29.0564 887.607 Q27.4968 884.806 27.4968 880.955 Q27.4968 877.072 29.4702 874.366 Q31.4436 871.629 35.1993 870.324 Z" fill="#000000" fill-rule="nonzero" fill-opacity="1" /><path clip-path="url(#clip350)" d="M58.657 828.915 L77.5631 828.915 L77.5631 834.803 L28.3562 834.803 L28.3562 828.915 L33.7671 828.915 Q30.5842 827.069 29.0564 824.268 Q27.4968 821.435 27.4968 817.521 Q27.4968 811.028 32.6531 806.985 Q37.8093 802.911 46.212 802.911 Q54.6147 802.911 59.771 806.985 Q64.9272 811.028 64.9272 817.521 Q64.9272 821.435 63.3994 824.268 Q61.8398 827.069 58.657 828.915 M46.212 808.991 Q39.7508 808.991 36.0905 811.664 Q32.3984 814.306 32.3984 818.953 Q32.3984 823.6 36.0905 826.273 Q39.7508 828.915 46.212 828.915 Q52.6732 828.915 56.3653 826.273 Q60.0256 823.6 60.0256 818.953 Q60.0256 814.306 56.3653 811.664 Q52.6732 808.991 46.212 808.991 Z" fill="#000000" fill-rule="nonzero" fill-opacity="1" /><path clip-path="url(#clip350)" d="M32.4621 779.39 Q32.4621 784.101 36.1542 786.838 Q39.8145 789.575 46.212 789.575 Q52.6095 789.575 56.3017 786.87 Q59.9619 784.132 59.9619 779.39 Q59.9619 774.711 56.2698 771.974 Q52.5777 769.237 46.212 769.237 Q39.8781 769.237 36.186 771.974 Q32.4621 774.711 32.4621 779.39 M27.4968 779.39 Q27.4968 771.751 32.4621 767.391 Q37.4273 763.03 46.212 763.03 Q54.9649 763.03 59.9619 767.391 Q64.9272 771.751 64.9272 779.39 Q64.9272 787.061 59.9619 791.421 Q54.9649 795.75 46.212 795.75 Q37.4273 795.75 32.4621 791.421 Q27.4968 787.061 27.4968 779.39 Z" fill="#000000" fill-rule="nonzero" fill-opacity="1" /><path clip-path="url(#clip350)" d="M33.8307 732.666 Q33.2578 733.652 33.0032 734.83 Q32.7167 735.976 32.7167 737.376 Q32.7167 742.342 35.9632 745.015 Q39.1779 747.657 45.2253 747.657 L64.0042 747.657 L64.0042 753.545 L28.3562 753.545 L28.3562 747.657 L33.8944 747.657 Q30.6479 745.811 29.0883 742.851 Q27.4968 739.891 27.4968 735.658 Q27.4968 735.053 27.5923 734.321 Q27.656 733.589 27.8151 732.698 L33.8307 732.666 Z" fill="#000000" fill-rule="nonzero" fill-opacity="1" /><path clip-path="url(#clip350)" d="M18.2347 720.73 L28.3562 720.73 L28.3562 708.667 L32.9077 708.667 L32.9077 720.73 L52.2594 720.73 Q56.6199 720.73 57.8613 719.552 Q59.1026 718.343 59.1026 714.683 L59.1026 708.667 L64.0042 708.667 L64.0042 714.683 Q64.0042 721.462 61.4897 724.04 Q58.9434 726.618 52.2594 726.618 L32.9077 726.618 L32.9077 730.915 L28.3562 730.915 L28.3562 726.618 L18.2347 726.618 L18.2347 720.73 Z" fill="#000000" fill-rule="nonzero" fill-opacity="1" /><path clip-path="url(#clip350)" d="M46.0847 684.764 Q46.0847 691.862 47.7079 694.599 Q49.3312 697.336 53.2461 697.336 Q56.3653 697.336 58.2114 695.299 Q60.0256 693.23 60.0256 689.697 Q60.0256 684.827 56.5881 681.899 Q53.1188 678.939 47.3897 678.939 L46.0847 678.939 L46.0847 684.764 M43.6657 673.083 L64.0042 673.083 L64.0042 678.939 L58.5933 678.939 Q61.8398 680.944 63.3994 683.936 Q64.9272 686.928 64.9272 691.257 Q64.9272 696.731 61.8716 699.978 Q58.7843 703.192 53.6281 703.192 Q47.6125 703.192 44.5569 699.182 Q41.5014 695.14 41.5014 687.151 L41.5014 678.939 L40.9285 678.939 Q36.8862 678.939 34.6901 681.613 Q32.4621 684.254 32.4621 689.061 Q32.4621 692.116 33.1941 695.013 Q33.9262 697.909 35.3903 700.583 L29.9795 700.583 Q28.7381 697.368 28.1334 694.344 Q27.4968 691.32 27.4968 688.456 Q27.4968 680.722 31.5072 676.902 Q35.5176 673.083 43.6657 673.083 Z" fill="#000000" fill-rule="nonzero" fill-opacity="1" /><path clip-path="url(#clip350)" d="M42.4881 631.387 L64.0042 631.387 L64.0042 637.244 L42.679 637.244 Q37.6183 637.244 35.1038 639.217 Q32.5894 641.19 32.5894 645.137 Q32.5894 649.88 35.6131 652.617 Q38.6368 655.354 43.8567 655.354 L64.0042 655.354 L64.0042 661.242 L28.3562 661.242 L28.3562 655.354 L33.8944 655.354 Q30.6797 653.253 29.0883 650.421 Q27.4968 647.556 27.4968 643.832 Q27.4968 637.689 31.3163 634.538 Q35.1038 631.387 42.4881 631.387 Z" fill="#000000" fill-rule="nonzero" fill-opacity="1" /><path clip-path="url(#clip350)" d="M29.7248 594.052 L35.1993 594.052 Q33.8307 596.535 33.1623 599.05 Q32.4621 601.532 32.4621 604.078 Q32.4621 609.776 36.0905 612.927 Q39.6872 616.078 46.212 616.078 Q52.7369 616.078 56.3653 612.927 Q59.9619 609.776 59.9619 604.078 Q59.9619 601.532 59.2935 599.05 Q58.5933 596.535 57.2247 594.052 L62.6355 594.052 Q63.7814 596.503 64.3543 599.145 Q64.9272 601.755 64.9272 604.715 Q64.9272 612.768 59.8664 617.51 Q54.8057 622.253 46.212 622.253 Q37.491 622.253 32.4939 617.478 Q27.4968 612.672 27.4968 604.333 Q27.4968 601.628 28.0697 599.05 Q28.6108 596.471 29.7248 594.052 Z" fill="#000000" fill-rule="nonzero" fill-opacity="1" /><path clip-path="url(#clip350)" d="M44.7161 553.376 L47.5806 553.376 L47.5806 580.302 Q53.6281 579.921 56.8109 576.674 Q59.9619 573.396 59.9619 567.571 Q59.9619 564.197 59.1344 561.046 Q58.3069 557.863 56.6518 554.744 L62.1899 554.744 Q63.5267 557.895 64.227 561.205 Q64.9272 564.516 64.9272 567.921 Q64.9272 576.451 59.9619 581.448 Q54.9967 586.414 46.5303 586.414 Q37.7774 586.414 32.6531 581.703 Q27.4968 576.961 27.4968 568.94 Q27.4968 561.746 32.1438 557.577 Q36.7589 553.376 44.7161 553.376 M42.9973 559.232 Q38.1912 559.296 35.3266 561.937 Q32.4621 564.547 32.4621 568.876 Q32.4621 573.778 35.2312 576.738 Q38.0002 579.666 43.0292 580.112 L42.9973 559.232 Z" fill="#000000" fill-rule="nonzero" fill-opacity="1" /><path clip-path="url(#clip352)" d="M372.922 1423.18 L372.922 626.883 L765.47 626.883 L765.47 1423.18 L372.922 1423.18 L372.922 1423.18  Z" fill="#009af9" fill-rule="evenodd" fill-opacity="1"/>
<polyline clip-path="url(#clip352)" style="stroke:#000000; stroke-linecap:round; stroke-linejoin:round; stroke-width:4; stroke-opacity:1; fill:none" points="372.922,1423.18 372.922,626.883 765.47,626.883 765.47,1423.18 372.922,1423.18 "/>
<path clip-path="url(#clip352)" d="M863.607 1029.84 L863.607 626.883 L1256.15 626.883 L1256.15 1029.84 L863.607 1029.84 L863.607 1029.84  Z" fill="#009af9" fill-rule="evenodd" fill-opacity="1"/>
<polyline clip-path="url(#clip352)" style="stroke:#000000; stroke-linecap:round; stroke-linejoin:round; stroke-width:4; stroke-opacity:1; fill:none" points="863.607,1029.84 863.607,626.883 1256.15,626.883 1256.15,1029.84 863.607,1029.84 "/>
<path clip-path="url(#clip352)" d="M1354.29 1170.76 L1354.29 626.883 L1746.84 626.883 L1746.84 1170.76 L1354.29 1170.76 L1354.29 1170.76  Z" fill="#009af9" fill-rule="evenodd" fill-opacity="1"/>
<polyline clip-path="url(#clip352)" style="stroke:#000000; stroke-linecap:round; stroke-linejoin:round; stroke-width:4; stroke-opacity:1; fill:none" points="1354.29,1170.76 1354.29,626.883 1746.84,626.883 1746.84,1170.76 1354.29,1170.76 "/>
<path clip-path="url(#clip352)" d="M1844.98 804.892 L1844.98 626.883 L2237.52 626.883 L2237.52 804.892 L1844.98 804.892 L1844.98 804.892  Z" fill="#009af9" fill-rule="evenodd" fill-opacity="1"/>
<polyline clip-path="url(#clip352)" style="stroke:#000000; stroke-linecap:round; stroke-linejoin:round; stroke-width:4; stroke-opacity:1; fill:none" points="1844.98,804.892 1844.98,626.883 2237.52,626.883 2237.52,804.892 1844.98,804.892 "/>
<circle clip-path="url(#clip352)" style="fill:#009af9; stroke:none; fill-opacity:0" cx="569.196" cy="1423.18" r="2"/>
<circle clip-path="url(#clip352)" style="fill:#009af9; stroke:none; fill-opacity:0" cx="1059.88" cy="1029.84" r="2"/>
<circle clip-path="url(#clip352)" style="fill:#009af9; stroke:none; fill-opacity:0" cx="1550.57" cy="1170.76" r="2"/>
<circle clip-path="url(#clip352)" style="fill:#009af9; stroke:none; fill-opacity:0" cx="2041.25" cy="804.892" r="2"/>
<path clip-path="url(#clip352)" d="M372.922 325.611 L372.922 626.883 L765.47 626.883 L765.47 325.611 L372.922 325.611 L372.922 325.611  Z" fill="#e26f46" fill-rule="evenodd" fill-opacity="1"/>
<polyline clip-path="url(#clip352)" style="stroke:#000000; stroke-linecap:round; stroke-linejoin:round; stroke-width:4; stroke-opacity:1; fill:none" points="372.922,325.611 372.922,626.883 765.47,626.883 765.47,325.611 372.922,325.611 "/>
<path clip-path="url(#clip352)" d="M863.607 47.2441 L863.607 626.883 L1256.15 626.883 L1256.15 47.2441 L863.607 47.2441 L863.607 47.2441  Z" fill="#e26f46" fill-rule="evenodd" fill-opacity="1"/>
<polyline clip-path="url(#clip352)" style="stroke:#000000; stroke-linecap:round; stroke-linejoin:round; stroke-width:4; stroke-opacity:1; fill:none" points="863.607,47.2441 863.607,626.883 1256.15,626.883 1256.15,47.2441 863.607,47.2441 "/>
<path clip-path="url(#clip352)" d="M1354.29 1378.18 L1354.29 626.883 L1746.84 626.883 L1746.84 1378.18 L1354.29 1378.18 L1354.29 1378.18  Z" fill="#e26f46" fill-rule="evenodd" fill-opacity="1"/>
<polyline clip-path="url(#clip352)" style="stroke:#000000; stroke-linecap:round; stroke-linejoin:round; stroke-width:4; stroke-opacity:1; fill:none" points="1354.29,1378.18 1354.29,626.883 1746.84,626.883 1746.84,1378.18 1354.29,1378.18 "/>
<path clip-path="url(#clip352)" d="M1844.98 991.23 L1844.98 626.883 L2237.52 626.883 L2237.52 991.23 L1844.98 991.23 L1844.98 991.23  Z" fill="#e26f46" fill-rule="evenodd" fill-opacity="1"/>
<polyline clip-path="url(#clip352)" style="stroke:#000000; stroke-linecap:round; stroke-linejoin:round; stroke-width:4; stroke-opacity:1; fill:none" points="1844.98,991.23 1844.98,626.883 2237.52,626.883 2237.52,991.23 1844.98,991.23 "/>
<circle clip-path="url(#clip352)" style="fill:#e26f46; stroke:none; fill-opacity:0" cx="569.196" cy="325.611" r="2"/>
<circle clip-path="url(#clip352)" style="fill:#e26f46; stroke:none; fill-opacity:0" cx="1059.88" cy="47.2441" r="2"/>
<circle clip-path="url(#clip352)" style="fill:#e26f46; stroke:none; fill-opacity:0" cx="1550.57" cy="1378.18" r="2"/>
<circle clip-path="url(#clip352)" style="fill:#e26f46; stroke:none; fill-opacity:0" cx="2041.25" cy="991.23" r="2"/>
<path clip-path="url(#clip350)" d="M1824.87 248.629 L2282.92 248.629 L2282.92 93.1086 L1824.87 93.1086  Z" fill="#ffffff" fill-rule="evenodd" fill-opacity="1"/>
<polyline clip-path="url(#clip350)" style="stroke:#000000; stroke-linecap:round; stroke-linejoin:round; stroke-width:4; stroke-opacity:1; fill:none" points="1824.87,248.629 2282.92,248.629 2282.92,93.1086 1824.87,93.1086 1824.87,248.629 "/>
<path clip-path="url(#clip350)" d="M1848.15 165.685 L1987.82 165.685 L1987.82 124.213 L1848.15 124.213 L1848.15 165.685  Z" fill="#009af9" fill-rule="evenodd" fill-opacity="1"/>
<polyline clip-path="url(#clip350)" style="stroke:#000000; stroke-linecap:round; stroke-linejoin:round; stroke-width:4; stroke-opacity:1; fill:none" points="1848.15,165.685 1987.82,165.685 1987.82,124.213 1848.15,124.213 1848.15,165.685 "/>
<path clip-path="url(#clip350)" d="M2011.1 127.669 L2030.96 127.669 L2030.96 131.604 L2015.78 131.604 L2015.78 141.789 L2029.48 141.789 L2029.48 145.724 L2015.78 145.724 L2015.78 162.229 L2011.1 162.229 L2011.1 127.669 Z" fill="#000000" fill-rule="nonzero" fill-opacity="1" /><path clip-path="url(#clip350)" d="M2034.74 136.303 L2038.99 136.303 L2038.99 162.229 L2034.74 162.229 L2034.74 136.303 M2034.74 126.21 L2038.99 126.21 L2038.99 131.604 L2034.74 131.604 L2034.74 126.21 Z" fill="#000000" fill-rule="nonzero" fill-opacity="1" /><path clip-path="url(#clip350)" d="M2062.93 140.284 Q2062.21 139.868 2061.36 139.682 Q2060.52 139.474 2059.5 139.474 Q2055.89 139.474 2053.95 141.835 Q2052.03 144.173 2052.03 148.571 L2052.03 162.229 L2047.74 162.229 L2047.74 136.303 L2052.03 136.303 L2052.03 140.331 Q2053.37 137.969 2055.52 136.835 Q2057.68 135.678 2060.75 135.678 Q2061.19 135.678 2061.73 135.747 Q2062.26 135.794 2062.91 135.909 L2062.93 140.284 Z" fill="#000000" fill-rule="nonzero" fill-opacity="1" /><path clip-path="url(#clip350)" d="M2083.93 137.067 L2083.93 141.094 Q2082.12 140.169 2080.18 139.706 Q2078.23 139.243 2076.15 139.243 Q2072.98 139.243 2071.38 140.215 Q2069.8 141.187 2069.8 143.131 Q2069.8 144.613 2070.94 145.469 Q2072.07 146.303 2075.5 147.067 L2076.96 147.391 Q2081.49 148.363 2083.39 150.145 Q2085.31 151.905 2085.31 155.076 Q2085.31 158.687 2082.44 160.793 Q2079.6 162.9 2074.6 162.9 Q2072.51 162.9 2070.24 162.483 Q2068 162.09 2065.5 161.28 L2065.5 156.881 Q2067.86 158.108 2070.15 158.733 Q2072.44 159.335 2074.69 159.335 Q2077.7 159.335 2079.32 158.317 Q2080.94 157.275 2080.94 155.4 Q2080.94 153.664 2079.76 152.738 Q2078.6 151.812 2074.64 150.956 L2073.16 150.608 Q2069.2 149.775 2067.44 148.062 Q2065.68 146.326 2065.68 143.317 Q2065.68 139.659 2068.28 137.669 Q2070.87 135.678 2075.64 135.678 Q2078 135.678 2080.08 136.025 Q2082.17 136.372 2083.93 137.067 Z" fill="#000000" fill-rule="nonzero" fill-opacity="1" /><path clip-path="url(#clip350)" d="M2096.31 128.942 L2096.31 136.303 L2105.08 136.303 L2105.08 139.613 L2096.31 139.613 L2096.31 153.687 Q2096.31 156.858 2097.17 157.761 Q2098.05 158.664 2100.71 158.664 L2105.08 158.664 L2105.08 162.229 L2100.71 162.229 Q2095.78 162.229 2093.9 160.4 Q2092.03 158.548 2092.03 153.687 L2092.03 139.613 L2088.9 139.613 L2088.9 136.303 L2092.03 136.303 L2092.03 128.942 L2096.31 128.942 Z" fill="#000000" fill-rule="nonzero" fill-opacity="1" /><path clip-path="url(#clip350)" d="M2146.66 128.803 L2146.66 133.363 Q2143.99 132.09 2141.63 131.465 Q2139.27 130.84 2137.07 130.84 Q2133.25 130.84 2131.17 132.321 Q2129.11 133.803 2129.11 136.534 Q2129.11 138.826 2130.48 140.007 Q2131.86 141.164 2135.71 141.882 L2138.53 142.46 Q2143.76 143.456 2146.24 145.979 Q2148.74 148.479 2148.74 152.692 Q2148.74 157.715 2145.36 160.307 Q2142 162.9 2135.5 162.9 Q2133.05 162.9 2130.27 162.344 Q2127.51 161.789 2124.55 160.701 L2124.55 155.886 Q2127.4 157.483 2130.13 158.293 Q2132.86 159.104 2135.5 159.104 Q2139.5 159.104 2141.68 157.53 Q2143.86 155.956 2143.86 153.039 Q2143.86 150.493 2142.28 149.057 Q2140.73 147.622 2137.17 146.905 L2134.32 146.349 Q2129.09 145.307 2126.75 143.085 Q2124.41 140.863 2124.41 136.905 Q2124.41 132.321 2127.63 129.682 Q2130.87 127.044 2136.54 127.044 Q2138.97 127.044 2141.49 127.483 Q2144.02 127.923 2146.66 128.803 Z" fill="#000000" fill-rule="nonzero" fill-opacity="1" /><path clip-path="url(#clip350)" d="M2164.94 162.229 L2151.75 127.669 L2156.63 127.669 L2167.58 156.766 L2178.55 127.669 L2183.42 127.669 L2170.24 162.229 L2164.94 162.229 Z" fill="#000000" fill-rule="nonzero" fill-opacity="1" /><path clip-path="url(#clip350)" d="M1848.15 217.525 L1987.82 217.525 L1987.82 176.053 L1848.15 176.053 L1848.15 217.525  Z" fill="#e26f46" fill-rule="evenodd" fill-opacity="1"/>
<polyline clip-path="url(#clip350)" style="stroke:#000000; stroke-linecap:round; stroke-linejoin:round; stroke-width:4; stroke-opacity:1; fill:none" points="1848.15,217.525 1987.82,217.525 1987.82,176.053 1848.15,176.053 1848.15,217.525 "/>
<path clip-path="url(#clip350)" d="M2033.35 180.643 L2033.35 185.203 Q2030.68 183.93 2028.32 183.305 Q2025.96 182.68 2023.76 182.68 Q2019.94 182.68 2017.86 184.161 Q2015.8 185.643 2015.8 188.374 Q2015.8 190.666 2017.17 191.847 Q2018.56 193.004 2022.4 193.722 L2025.22 194.3 Q2030.45 195.296 2032.93 197.819 Q2035.43 200.319 2035.43 204.532 Q2035.43 209.555 2032.05 212.147 Q2028.69 214.74 2022.19 214.74 Q2019.74 214.74 2016.96 214.184 Q2014.2 213.629 2011.24 212.541 L2011.24 207.726 Q2014.09 209.323 2016.82 210.133 Q2019.55 210.944 2022.19 210.944 Q2026.19 210.944 2028.37 209.37 Q2030.55 207.796 2030.55 204.879 Q2030.55 202.333 2028.97 200.897 Q2027.42 199.462 2023.86 198.745 L2021.01 198.189 Q2015.78 197.147 2013.44 194.925 Q2011.1 192.703 2011.1 188.745 Q2011.1 184.161 2014.32 181.522 Q2017.56 178.884 2023.23 178.884 Q2025.66 178.884 2028.18 179.323 Q2030.71 179.763 2033.35 180.643 Z" fill="#000000" fill-rule="nonzero" fill-opacity="1" /><path clip-path="url(#clip350)" d="M2064.71 200.041 L2064.71 202.124 L2045.13 202.124 Q2045.41 206.522 2047.77 208.837 Q2050.15 211.129 2054.39 211.129 Q2056.84 211.129 2059.13 210.527 Q2061.45 209.925 2063.72 208.721 L2063.72 212.749 Q2061.43 213.721 2059.02 214.231 Q2056.61 214.74 2054.13 214.74 Q2047.93 214.74 2044.3 211.129 Q2040.68 207.518 2040.68 201.36 Q2040.68 194.995 2044.11 191.268 Q2047.56 187.518 2053.39 187.518 Q2058.62 187.518 2061.66 190.897 Q2064.71 194.254 2064.71 200.041 M2060.45 198.791 Q2060.41 195.296 2058.49 193.212 Q2056.59 191.129 2053.44 191.129 Q2049.87 191.129 2047.72 193.143 Q2045.59 195.157 2045.27 198.814 L2060.45 198.791 Z" fill="#000000" fill-rule="nonzero" fill-opacity="1" /><path clip-path="url(#clip350)" d="M2090.36 189.138 L2090.36 193.12 Q2088.55 192.124 2086.73 191.638 Q2084.92 191.129 2083.07 191.129 Q2078.93 191.129 2076.63 193.768 Q2074.34 196.384 2074.34 201.129 Q2074.34 205.874 2076.63 208.513 Q2078.93 211.129 2083.07 211.129 Q2084.92 211.129 2086.73 210.643 Q2088.55 210.133 2090.36 209.138 L2090.36 213.073 Q2088.58 213.907 2086.66 214.323 Q2084.76 214.74 2082.61 214.74 Q2076.75 214.74 2073.3 211.059 Q2069.85 207.379 2069.85 201.129 Q2069.85 194.786 2073.32 191.152 Q2076.82 187.518 2082.88 187.518 Q2084.85 187.518 2086.73 187.935 Q2088.6 188.328 2090.36 189.138 Z" fill="#000000" fill-rule="nonzero" fill-opacity="1" /><path clip-path="url(#clip350)" d="M2107.81 191.129 Q2104.39 191.129 2102.4 193.814 Q2100.41 196.476 2100.41 201.129 Q2100.41 205.782 2102.37 208.467 Q2104.36 211.129 2107.81 211.129 Q2111.22 211.129 2113.21 208.444 Q2115.2 205.758 2115.2 201.129 Q2115.2 196.522 2113.21 193.837 Q2111.22 191.129 2107.81 191.129 M2107.81 187.518 Q2113.37 187.518 2116.54 191.129 Q2119.71 194.74 2119.71 201.129 Q2119.71 207.495 2116.54 211.129 Q2113.37 214.74 2107.81 214.74 Q2102.24 214.74 2099.06 211.129 Q2095.92 207.495 2095.92 201.129 Q2095.92 194.74 2099.06 191.129 Q2102.24 187.518 2107.81 187.518 Z" fill="#000000" fill-rule="nonzero" fill-opacity="1" /><path clip-path="url(#clip350)" d="M2148.32 198.421 L2148.32 214.069 L2144.06 214.069 L2144.06 198.559 Q2144.06 194.879 2142.63 193.05 Q2141.19 191.222 2138.32 191.222 Q2134.87 191.222 2132.88 193.421 Q2130.89 195.62 2130.89 199.416 L2130.89 214.069 L2126.61 214.069 L2126.61 188.143 L2130.89 188.143 L2130.89 192.171 Q2132.42 189.833 2134.48 188.675 Q2136.56 187.518 2139.27 187.518 Q2143.74 187.518 2146.03 190.296 Q2148.32 193.05 2148.32 198.421 Z" fill="#000000" fill-rule="nonzero" fill-opacity="1" /><path clip-path="url(#clip350)" d="M2173.88 192.078 L2173.88 178.05 L2178.14 178.05 L2178.14 214.069 L2173.88 214.069 L2173.88 210.18 Q2172.54 212.495 2170.48 213.629 Q2168.44 214.74 2165.57 214.74 Q2160.87 214.74 2157.91 210.99 Q2154.97 207.24 2154.97 201.129 Q2154.97 195.018 2157.91 191.268 Q2160.87 187.518 2165.57 187.518 Q2168.44 187.518 2170.48 188.652 Q2172.54 189.763 2173.88 192.078 M2159.36 201.129 Q2159.36 205.828 2161.29 208.513 Q2163.23 211.175 2166.61 211.175 Q2169.99 211.175 2171.93 208.513 Q2173.88 205.828 2173.88 201.129 Q2173.88 196.43 2171.93 193.768 Q2169.99 191.083 2166.61 191.083 Q2163.23 191.083 2161.29 193.768 Q2159.36 196.43 2159.36 201.129 Z" fill="#000000" fill-rule="nonzero" fill-opacity="1" /><path clip-path="url(#clip350)" d="M2222.88 180.643 L2222.88 185.203 Q2220.22 183.93 2217.86 183.305 Q2215.5 182.68 2213.3 182.68 Q2209.48 182.68 2207.4 184.161 Q2205.34 185.643 2205.34 188.374 Q2205.34 190.666 2206.7 191.847 Q2208.09 193.004 2211.93 193.722 L2214.76 194.3 Q2219.99 195.296 2222.47 197.819 Q2224.97 200.319 2224.97 204.532 Q2224.97 209.555 2221.59 212.147 Q2218.23 214.74 2211.73 214.74 Q2209.27 214.74 2206.49 214.184 Q2203.74 213.629 2200.78 212.541 L2200.78 207.726 Q2203.62 209.323 2206.36 210.133 Q2209.09 210.944 2211.73 210.944 Q2215.73 210.944 2217.91 209.37 Q2220.08 207.796 2220.08 204.879 Q2220.08 202.333 2218.51 200.897 Q2216.96 199.462 2213.39 198.745 L2210.54 198.189 Q2205.31 197.147 2202.98 194.925 Q2200.64 192.703 2200.64 188.745 Q2200.64 184.161 2203.86 181.522 Q2207.1 178.884 2212.77 178.884 Q2215.2 178.884 2217.72 179.323 Q2220.24 179.763 2222.88 180.643 Z" fill="#000000" fill-rule="nonzero" fill-opacity="1" /><path clip-path="url(#clip350)" d="M2241.17 214.069 L2227.98 179.509 L2232.86 179.509 L2243.81 208.606 L2254.78 179.509 L2259.64 179.509 L2246.47 214.069 L2241.17 214.069 Z" fill="#000000" fill-rule="nonzero" fill-opacity="1" /></svg>
