<?xml version="1.0" encoding="utf-8"?>
<svg xmlns="http://www.w3.org/2000/svg" xmlns:xlink="http://www.w3.org/1999/xlink" width="600" height="400" viewBox="0 0 2400 1600">
<defs>
  <clipPath id="clip560">
    <rect x="0" y="0" width="2400" height="1600"/>
  </clipPath>
</defs>
<path clip-path="url(#clip560)" d="M0 1600 L2400 1600 L2400 0 L0 0  Z" fill="#ffffff" fill-rule="evenodd" fill-opacity="1"/>
<defs>
  <clipPath id="clip561">
    <rect x="480" y="0" width="1681" height="1600"/>
  </clipPath>
</defs>
<path clip-path="url(#clip560)" d="M219.38 1423.18 L2352.76 1423.18 L2352.76 47.2441 L219.38 47.2441  Z" fill="#ffffff" fill-rule="evenodd" fill-opacity="1"/>
<defs>
  <clipPath id="clip562">
    <rect x="219" y="47" width="2134" height="1377"/>
  </clipPath>
</defs>
<polyline clip-path="url(#clip562)" style="stroke:#000000; stroke-linecap:round; stroke-linejoin:round; stroke-width:2; stroke-opacity:0.1; fill:none" points="471.236,1423.18 471.236,47.2441 "/>
<polyline clip-path="url(#clip562)" style="stroke:#000000; stroke-linecap:round; stroke-linejoin:round; stroke-width:2; stroke-opacity:0.1; fill:none" points="872.275,1423.18 872.275,47.2441 "/>
<polyline clip-path="url(#clip562)" style="stroke:#000000; stroke-linecap:round; stroke-linejoin:round; stroke-width:2; stroke-opacity:0.1; fill:none" points="1273.31,1423.18 1273.31,47.2441 "/>
<polyline clip-path="url(#clip562)" style="stroke:#000000; stroke-linecap:round; stroke-linejoin:round; stroke-width:2; stroke-opacity:0.1; fill:none" points="1674.35,1423.18 1674.35,47.2441 "/>
<polyline clip-path="url(#clip562)" style="stroke:#000000; stroke-linecap:round; stroke-linejoin:round; stroke-width:2; stroke-opacity:0.1; fill:none" points="2075.39,1423.18 2075.39,47.2441 "/>
<polyline clip-path="url(#clip562)" style="stroke:#000000; stroke-linecap:round; stroke-linejoin:round; stroke-width:2; stroke-opacity:0.1; fill:none" points="219.38,1423.18 2352.76,1423.18 "/>
<polyline clip-path="url(#clip562)" style="stroke:#000000; stroke-linecap:round; stroke-linejoin:round; stroke-width:2; stroke-opacity:0.1; fill:none" points="219.38,1030.06 2352.76,1030.06 "/>
<polyline clip-path="url(#clip562)" style="stroke:#000000; stroke-linecap:round; stroke-linejoin:round; stroke-width:2; stroke-opacity:0.1; fill:none" points="219.38,636.931 2352.76,636.931 "/>
<polyline clip-path="url(#clip562)" style="stroke:#000000; stroke-linecap:round; stroke-linejoin:round; stroke-width:2; stroke-opacity:0.1; fill:none" points="219.38,243.806 2352.76,243.806 "/>
<polyline clip-path="url(#clip560)" style="stroke:#000000; stroke-linecap:round; stroke-linejoin:round; stroke-width:4; stroke-opacity:1; fill:none" points="219.38,1423.18 2352.76,1423.18 "/>
<polyline clip-path="url(#clip560)" style="stroke:#000000; stroke-linecap:round; stroke-linejoin:round; stroke-width:4; stroke-opacity:1; fill:none" points="471.236,1423.18 471.236,1404.28 "/>
<polyline clip-path="url(#clip560)" style="stroke:#000000; stroke-linecap:round; stroke-linejoin:round; stroke-width:4; stroke-opacity:1; fill:none" points="872.275,1423.18 872.275,1404.28 "/>
<polyline clip-path="url(#clip560)" style="stroke:#000000; stroke-linecap:round; stroke-linejoin:round; stroke-width:4; stroke-opacity:1; fill:none" points="1273.31,1423.18 1273.31,1404.28 "/>
<polyline clip-path="url(#clip560)" style="stroke:#000000; stroke-linecap:round; stroke-linejoin:round; stroke-width:4; stroke-opacity:1; fill:none" points="1674.35,1423.18 1674.35,1404.28 "/>
<polyline clip-path="url(#clip560)" style="stroke:#000000; stroke-linecap:round; stroke-linejoin:round; stroke-width:4; stroke-opacity:1; fill:none" points="2075.39,1423.18 2075.39,1404.28 "/>
<path clip-path="url(#clip560)" d="M440.878 1468.75 L470.553 1468.75 L470.553 1472.69 L440.878 1472.69 L440.878 1468.75 Z" fill="#000000" fill-rule="nonzero" fill-opacity="1" /><path clip-path="url(#clip560)" d="M480.692 1451.02 L499.049 1451.02 L499.049 1454.96 L484.975 1454.96 L484.975 1463.43 Q485.993 1463.08 487.012 1462.92 Q488.03 1462.73 489.049 1462.73 Q494.836 1462.73 498.215 1465.9 Q501.595 1469.08 501.595 1474.49 Q501.595 1480.07 498.123 1483.17 Q494.65 1486.25 488.331 1486.25 Q486.155 1486.25 483.887 1485.88 Q481.641 1485.51 479.234 1484.77 L479.234 1480.07 Q481.317 1481.2 483.539 1481.76 Q485.762 1482.32 488.238 1482.32 Q492.243 1482.32 494.581 1480.21 Q496.919 1478.1 496.919 1474.49 Q496.919 1470.88 494.581 1468.77 Q492.243 1466.67 488.238 1466.67 Q486.363 1466.67 484.488 1467.08 Q482.637 1467.5 480.692 1468.38 L480.692 1451.02 Z" fill="#000000" fill-rule="nonzero" fill-opacity="1" /><path clip-path="url(#clip560)" d="M872.275 1454.1 Q868.664 1454.1 866.835 1457.66 Q865.029 1461.2 865.029 1468.33 Q865.029 1475.44 866.835 1479.01 Q868.664 1482.55 872.275 1482.55 Q875.909 1482.55 877.715 1479.01 Q879.543 1475.44 879.543 1468.33 Q879.543 1461.2 877.715 1457.66 Q875.909 1454.1 872.275 1454.1 M872.275 1450.39 Q878.085 1450.39 881.141 1455 Q884.219 1459.58 884.219 1468.33 Q884.219 1477.06 881.141 1481.67 Q878.085 1486.25 872.275 1486.25 Q866.465 1486.25 863.386 1481.67 Q860.33 1477.06 860.33 1468.33 Q860.33 1459.58 863.386 1455 Q866.465 1450.39 872.275 1450.39 Z" fill="#000000" fill-rule="nonzero" fill-opacity="1" /><path clip-path="url(#clip560)" d="M1263.59 1451.02 L1281.95 1451.02 L1281.95 1454.96 L1267.87 1454.96 L1267.87 1463.43 Q1268.89 1463.08 1269.91 1462.92 Q1270.93 1462.73 1271.95 1462.73 Q1277.73 1462.73 1281.11 1465.9 Q1284.49 1469.08 1284.49 1474.49 Q1284.49 1480.07 1281.02 1483.17 Q1277.55 1486.25 1271.23 1486.25 Q1269.05 1486.25 1266.79 1485.88 Q1264.54 1485.51 1262.13 1484.77 L1262.13 1480.07 Q1264.22 1481.2 1266.44 1481.76 Q1268.66 1482.32 1271.14 1482.32 Q1275.14 1482.32 1277.48 1480.21 Q1279.82 1478.1 1279.82 1474.49 Q1279.82 1470.88 1277.48 1468.77 Q1275.14 1466.67 1271.14 1466.67 Q1269.26 1466.67 1267.39 1467.08 Q1265.54 1467.5 1263.59 1468.38 L1263.59 1451.02 Z" fill="#000000" fill-rule="nonzero" fill-opacity="1" /><path clip-path="url(#clip560)" d="M1649.04 1481.64 L1656.68 1481.64 L1656.68 1455.28 L1648.37 1456.95 L1648.37 1452.69 L1656.63 1451.02 L1661.31 1451.02 L1661.31 1481.64 L1668.95 1481.64 L1668.95 1485.58 L1649.04 1485.58 L1649.04 1481.64 Z" fill="#000000" fill-rule="nonzero" fill-opacity="1" /><path clip-path="url(#clip560)" d="M1688.39 1454.1 Q1684.78 1454.1 1682.95 1457.66 Q1681.15 1461.2 1681.15 1468.33 Q1681.15 1475.44 1682.95 1479.01 Q1684.78 1482.55 1688.39 1482.55 Q1692.03 1482.55 1693.83 1479.01 Q1695.66 1475.44 1695.66 1468.33 Q1695.66 1461.2 1693.83 1457.66 Q1692.03 1454.1 1688.39 1454.1 M1688.39 1450.39 Q1694.2 1450.39 1697.26 1455 Q1700.34 1459.58 1700.34 1468.33 Q1700.34 1477.06 1697.26 1481.67 Q1694.2 1486.25 1688.39 1486.25 Q1682.58 1486.25 1679.5 1481.67 Q1676.45 1477.06 1676.45 1468.33 Q1676.45 1459.58 1679.5 1455 Q1682.58 1450.39 1688.39 1450.39 Z" fill="#000000" fill-rule="nonzero" fill-opacity="1" /><path clip-path="url(#clip560)" d="M2050.58 1481.64 L2058.21 1481.64 L2058.21 1455.28 L2049.9 1456.95 L2049.9 1452.69 L2058.17 1451.02 L2062.84 1451.02 L2062.84 1481.64 L2070.48 1481.64 L2070.48 1485.58 L2050.58 1485.58 L2050.58 1481.64 Z" fill="#000000" fill-rule="nonzero" fill-opacity="1" /><path clip-path="url(#clip560)" d="M2079.97 1451.02 L2098.33 1451.02 L2098.33 1454.96 L2084.26 1454.96 L2084.26 1463.43 Q2085.27 1463.08 2086.29 1462.92 Q2087.31 1462.73 2088.33 1462.73 Q2094.12 1462.73 2097.5 1465.9 Q2100.88 1469.08 2100.88 1474.49 Q2100.88 1480.07 2097.4 1483.17 Q2093.93 1486.25 2087.61 1486.25 Q2085.44 1486.25 2083.17 1485.88 Q2080.92 1485.51 2078.52 1484.77 L2078.52 1480.07 Q2080.6 1481.2 2082.82 1481.76 Q2085.04 1482.32 2087.52 1482.32 Q2091.52 1482.32 2093.86 1480.21 Q2096.2 1478.1 2096.2 1474.49 Q2096.2 1470.88 2093.86 1468.77 Q2091.52 1466.67 2087.52 1466.67 Q2085.65 1466.67 2083.77 1467.08 Q2081.92 1467.5 2079.97 1468.38 L2079.97 1451.02 Z" fill="#000000" fill-rule="nonzero" fill-opacity="1" /><path clip-path="url(#clip560)" d="M1000.6 1524.18 L1000.6 1530.96 Q997.351 1527.94 993.659 1526.44 Q989.999 1524.95 985.861 1524.95 Q977.713 1524.95 973.385 1529.95 Q969.056 1534.91 969.056 1544.33 Q969.056 1553.72 973.385 1558.72 Q977.713 1563.68 985.861 1563.68 Q989.999 1563.68 993.659 1562.19 Q997.351 1560.69 1000.6 1557.67 L1000.6 1564.38 Q997.224 1566.68 993.436 1567.82 Q989.681 1568.97 985.479 1568.97 Q974.689 1568.97 968.483 1562.38 Q962.276 1555.76 962.276 1544.33 Q962.276 1532.87 968.483 1526.28 Q974.689 1519.66 985.479 1519.66 Q989.744 1519.66 993.5 1520.81 Q997.288 1521.92 1000.6 1524.18 Z" fill="#000000" fill-rule="nonzero" fill-opacity="1" /><path clip-path="url(#clip560)" d="M1024.09 1536.5 Q1019.38 1536.5 1016.64 1540.19 Q1013.9 1543.85 1013.9 1550.25 Q1013.9 1556.65 1016.61 1560.34 Q1019.34 1564 1024.09 1564 Q1028.77 1564 1031.5 1560.31 Q1034.24 1556.62 1034.24 1550.25 Q1034.24 1543.92 1031.5 1540.23 Q1028.77 1536.5 1024.09 1536.5 M1024.09 1531.54 Q1031.73 1531.54 1036.09 1536.5 Q1040.45 1541.47 1040.45 1550.25 Q1040.45 1559 1036.09 1564 Q1031.73 1568.97 1024.09 1568.97 Q1016.42 1568.97 1012.06 1564 Q1007.73 1559 1007.73 1550.25 Q1007.73 1541.47 1012.06 1536.5 Q1016.42 1531.54 1024.09 1531.54 Z" fill="#000000" fill-rule="nonzero" fill-opacity="1" /><path clip-path="url(#clip560)" d="M1079.79 1546.53 L1079.79 1568.04 L1073.93 1568.04 L1073.93 1546.72 Q1073.93 1541.66 1071.96 1539.14 Q1069.98 1536.63 1066.04 1536.63 Q1061.29 1536.63 1058.56 1539.65 Q1055.82 1542.68 1055.82 1547.9 L1055.82 1568.04 L1049.93 1568.04 L1049.93 1532.4 L1055.82 1532.4 L1055.82 1537.93 Q1057.92 1534.72 1060.75 1533.13 Q1063.62 1531.54 1067.34 1531.54 Q1073.49 1531.54 1076.64 1535.36 Q1079.79 1539.14 1079.79 1546.53 Z" fill="#000000" fill-rule="nonzero" fill-opacity="1" /><path clip-path="url(#clip560)" d="M1117.12 1533.76 L1117.12 1539.24 Q1114.64 1537.87 1112.13 1537.2 Q1109.64 1536.5 1107.1 1536.5 Q1101.4 1536.5 1098.25 1540.13 Q1095.1 1543.73 1095.1 1550.25 Q1095.1 1556.78 1098.25 1560.4 Q1101.4 1564 1107.1 1564 Q1109.64 1564 1112.13 1563.33 Q1114.64 1562.63 1117.12 1561.26 L1117.12 1566.68 Q1114.67 1567.82 1112.03 1568.39 Q1109.42 1568.97 1106.46 1568.97 Q1098.41 1568.97 1093.66 1563.91 Q1088.92 1558.85 1088.92 1550.25 Q1088.92 1541.53 1093.7 1536.53 Q1098.5 1531.54 1106.84 1531.54 Q1109.55 1531.54 1112.13 1532.11 Q1114.7 1532.65 1117.12 1533.76 Z" fill="#000000" fill-rule="nonzero" fill-opacity="1" /><path clip-path="url(#clip560)" d="M1157.8 1548.76 L1157.8 1551.62 L1130.87 1551.62 Q1131.25 1557.67 1134.5 1560.85 Q1137.78 1564 1143.6 1564 Q1146.98 1564 1150.13 1563.17 Q1153.31 1562.35 1156.43 1560.69 L1156.43 1566.23 Q1153.28 1567.57 1149.97 1568.27 Q1146.66 1568.97 1143.25 1568.97 Q1134.72 1568.97 1129.73 1564 Q1124.76 1559.04 1124.76 1550.57 Q1124.76 1541.82 1129.47 1536.69 Q1134.21 1531.54 1142.23 1531.54 Q1149.43 1531.54 1153.6 1536.18 Q1157.8 1540.8 1157.8 1548.76 M1151.94 1547.04 Q1151.88 1542.23 1149.24 1539.37 Q1146.63 1536.5 1142.3 1536.5 Q1137.4 1536.5 1134.44 1539.27 Q1131.51 1542.04 1131.06 1547.07 L1151.94 1547.04 Z" fill="#000000" fill-rule="nonzero" fill-opacity="1" /><path clip-path="url(#clip560)" d="M1197.04 1546.53 L1197.04 1568.04 L1191.19 1568.04 L1191.19 1546.72 Q1191.19 1541.66 1189.21 1539.14 Q1187.24 1536.63 1183.29 1536.63 Q1178.55 1536.63 1175.81 1539.65 Q1173.08 1542.68 1173.08 1547.9 L1173.08 1568.04 L1167.19 1568.04 L1167.19 1532.4 L1173.08 1532.4 L1173.08 1537.93 Q1175.18 1534.72 1178.01 1533.13 Q1180.87 1531.54 1184.6 1531.54 Q1190.74 1531.54 1193.89 1535.36 Q1197.04 1539.14 1197.04 1546.53 Z" fill="#000000" fill-rule="nonzero" fill-opacity="1" /><path clip-path="url(#clip560)" d="M1214.52 1522.27 L1214.52 1532.4 L1226.58 1532.4 L1226.58 1536.95 L1214.52 1536.95 L1214.52 1556.3 Q1214.52 1560.66 1215.7 1561.9 Q1216.9 1563.14 1220.56 1563.14 L1226.58 1563.14 L1226.58 1568.04 L1220.56 1568.04 Q1213.79 1568.04 1211.21 1565.53 Q1208.63 1562.98 1208.63 1556.3 L1208.63 1536.95 L1204.33 1536.95 L1204.33 1532.4 L1208.63 1532.4 L1208.63 1522.27 L1214.52 1522.27 Z" fill="#000000" fill-rule="nonzero" fill-opacity="1" /><path clip-path="url(#clip560)" d="M1254.94 1537.87 Q1253.95 1537.3 1252.78 1537.04 Q1251.63 1536.76 1250.23 1536.76 Q1245.26 1536.76 1242.59 1540 Q1239.95 1543.22 1239.95 1549.27 L1239.95 1568.04 L1234.06 1568.04 L1234.06 1532.4 L1239.95 1532.4 L1239.95 1537.93 Q1241.79 1534.69 1244.75 1533.13 Q1247.71 1531.54 1251.95 1531.54 Q1252.55 1531.54 1253.28 1531.63 Q1254.02 1531.7 1254.91 1531.85 L1254.94 1537.87 Z" fill="#000000" fill-rule="nonzero" fill-opacity="1" /><path clip-path="url(#clip560)" d="M1277.28 1550.12 Q1270.19 1550.12 1267.45 1551.75 Q1264.71 1553.37 1264.71 1557.29 Q1264.71 1560.4 1266.75 1562.25 Q1268.82 1564.07 1272.35 1564.07 Q1277.22 1564.07 1280.15 1560.63 Q1283.11 1557.16 1283.11 1551.43 L1283.11 1550.12 L1277.28 1550.12 M1288.96 1547.71 L1288.96 1568.04 L1283.11 1568.04 L1283.11 1562.63 Q1281.1 1565.88 1278.11 1567.44 Q1275.12 1568.97 1270.79 1568.97 Q1265.32 1568.97 1262.07 1565.91 Q1258.85 1562.82 1258.85 1557.67 Q1258.85 1551.65 1262.87 1548.6 Q1266.91 1545.54 1274.9 1545.54 L1283.11 1545.54 L1283.11 1544.97 Q1283.11 1540.93 1280.43 1538.73 Q1277.79 1536.5 1272.99 1536.5 Q1269.93 1536.5 1267.03 1537.23 Q1264.14 1537.97 1261.46 1539.43 L1261.46 1534.02 Q1264.68 1532.78 1267.7 1532.17 Q1270.73 1531.54 1273.59 1531.54 Q1281.33 1531.54 1285.15 1535.55 Q1288.96 1539.56 1288.96 1547.71 Z" fill="#000000" fill-rule="nonzero" fill-opacity="1" /><path clip-path="url(#clip560)" d="M1306.82 1522.27 L1306.82 1532.4 L1318.88 1532.4 L1318.88 1536.95 L1306.82 1536.95 L1306.82 1556.3 Q1306.82 1560.66 1308 1561.9 Q1309.21 1563.14 1312.87 1563.14 L1318.88 1563.14 L1318.88 1568.04 L1312.87 1568.04 Q1306.09 1568.04 1303.51 1565.53 Q1300.93 1562.98 1300.93 1556.3 L1300.93 1536.95 L1296.64 1536.95 L1296.64 1532.4 L1300.93 1532.4 L1300.93 1522.27 L1306.82 1522.27 Z" fill="#000000" fill-rule="nonzero" fill-opacity="1" /><path clip-path="url(#clip560)" d="M1326.59 1532.4 L1332.44 1532.4 L1332.44 1568.04 L1326.59 1568.04 L1326.59 1532.4 M1326.59 1518.52 L1332.44 1518.52 L1332.44 1525.93 L1326.59 1525.93 L1326.59 1518.52 Z" fill="#000000" fill-rule="nonzero" fill-opacity="1" /><path clip-path="url(#clip560)" d="M1358.51 1536.5 Q1353.8 1536.5 1351.06 1540.19 Q1348.32 1543.85 1348.32 1550.25 Q1348.32 1556.65 1351.03 1560.34 Q1353.77 1564 1358.51 1564 Q1363.19 1564 1365.93 1560.31 Q1368.66 1556.62 1368.66 1550.25 Q1368.66 1543.92 1365.93 1540.23 Q1363.19 1536.5 1358.51 1536.5 M1358.51 1531.54 Q1366.15 1531.54 1370.51 1536.5 Q1374.87 1541.47 1374.87 1550.25 Q1374.87 1559 1370.51 1564 Q1366.15 1568.97 1358.51 1568.97 Q1350.84 1568.97 1346.48 1564 Q1342.15 1559 1342.15 1550.25 Q1342.15 1541.47 1346.48 1536.5 Q1350.84 1531.54 1358.51 1531.54 Z" fill="#000000" fill-rule="nonzero" fill-opacity="1" /><path clip-path="url(#clip560)" d="M1414.21 1546.53 L1414.21 1568.04 L1408.35 1568.04 L1408.35 1546.72 Q1408.35 1541.66 1406.38 1539.14 Q1404.41 1536.63 1400.46 1536.63 Q1395.72 1536.63 1392.98 1539.65 Q1390.24 1542.68 1390.24 1547.9 L1390.24 1568.04 L1384.35 1568.04 L1384.35 1532.4 L1390.24 1532.4 L1390.24 1537.93 Q1392.34 1534.72 1395.18 1533.13 Q1398.04 1531.54 1401.76 1531.54 Q1407.91 1531.54 1411.06 1535.36 Q1414.21 1539.14 1414.21 1546.53 Z" fill="#000000" fill-rule="nonzero" fill-opacity="1" /><path clip-path="url(#clip560)" d="M1460.68 1518.58 Q1456.41 1525.9 1454.35 1533.06 Q1452.28 1540.23 1452.28 1547.58 Q1452.28 1554.93 1454.35 1562.16 Q1456.45 1569.35 1460.68 1576.64 L1455.59 1576.64 Q1450.81 1569.16 1448.43 1561.93 Q1446.07 1554.71 1446.07 1547.58 Q1446.07 1540.48 1448.43 1533.29 Q1450.78 1526.09 1455.59 1518.58 L1460.68 1518.58 Z" fill="#000000" fill-rule="nonzero" fill-opacity="1" /><path clip-path="url(#clip560)" d="M1477.71 1562.7 L1477.71 1581.6 L1471.82 1581.6 L1471.82 1532.4 L1477.71 1532.4 L1477.71 1537.81 Q1479.55 1534.62 1482.35 1533.1 Q1485.19 1531.54 1489.1 1531.54 Q1495.6 1531.54 1499.64 1536.69 Q1503.71 1541.85 1503.71 1550.25 Q1503.71 1558.65 1499.64 1563.81 Q1495.6 1568.97 1489.1 1568.97 Q1485.19 1568.97 1482.35 1567.44 Q1479.55 1565.88 1477.71 1562.7 M1497.63 1550.25 Q1497.63 1543.79 1494.96 1540.13 Q1492.32 1536.44 1487.67 1536.44 Q1483.02 1536.44 1480.35 1540.13 Q1477.71 1543.79 1477.71 1550.25 Q1477.71 1556.71 1480.35 1560.4 Q1483.02 1564.07 1487.67 1564.07 Q1492.32 1564.07 1494.96 1560.4 Q1497.63 1556.71 1497.63 1550.25 Z" fill="#000000" fill-rule="nonzero" fill-opacity="1" /><path clip-path="url(#clip560)" d="M1519.08 1562.7 L1519.08 1581.6 L1513.2 1581.6 L1513.2 1532.4 L1519.08 1532.4 L1519.08 1537.81 Q1520.93 1534.62 1523.73 1533.1 Q1526.56 1531.54 1530.48 1531.54 Q1536.97 1531.54 1541.01 1536.69 Q1545.09 1541.85 1545.09 1550.25 Q1545.09 1558.65 1541.01 1563.81 Q1536.97 1568.97 1530.48 1568.97 Q1526.56 1568.97 1523.73 1567.44 Q1520.93 1565.88 1519.08 1562.7 M1539.01 1550.25 Q1539.01 1543.79 1536.34 1540.13 Q1533.69 1536.44 1529.05 1536.44 Q1524.4 1536.44 1521.73 1540.13 Q1519.08 1543.79 1519.08 1550.25 Q1519.08 1556.71 1521.73 1560.4 Q1524.4 1564.07 1529.05 1564.07 Q1533.69 1564.07 1536.34 1560.4 Q1539.01 1556.71 1539.01 1550.25 Z" fill="#000000" fill-rule="nonzero" fill-opacity="1" /><path clip-path="url(#clip560)" d="M1580.39 1550.25 Q1580.39 1543.79 1577.71 1540.13 Q1575.07 1536.44 1570.42 1536.44 Q1565.78 1536.44 1563.1 1540.13 Q1560.46 1543.79 1560.46 1550.25 Q1560.46 1556.71 1563.1 1560.4 Q1565.78 1564.07 1570.42 1564.07 Q1575.07 1564.07 1577.71 1560.4 Q1580.39 1556.71 1580.39 1550.25 M1560.46 1537.81 Q1562.31 1534.62 1565.11 1533.1 Q1567.94 1531.54 1571.86 1531.54 Q1578.35 1531.54 1582.39 1536.69 Q1586.47 1541.85 1586.47 1550.25 Q1586.47 1558.65 1582.39 1563.81 Q1578.35 1568.97 1571.86 1568.97 Q1567.94 1568.97 1565.11 1567.44 Q1562.31 1565.88 1560.46 1562.7 L1560.46 1568.04 L1554.57 1568.04 L1554.57 1518.52 L1560.46 1518.52 L1560.46 1537.81 Z" fill="#000000" fill-rule="nonzero" fill-opacity="1" /><path clip-path="url(#clip560)" d="M1595.25 1518.58 L1600.34 1518.58 Q1605.12 1526.09 1607.47 1533.29 Q1609.86 1540.48 1609.86 1547.58 Q1609.86 1554.71 1607.47 1561.93 Q1605.12 1569.16 1600.34 1576.64 L1595.25 1576.64 Q1599.48 1569.35 1601.55 1562.16 Q1603.65 1554.93 1603.65 1547.58 Q1603.65 1540.23 1601.55 1533.06 Q1599.48 1525.9 1595.25 1518.58 Z" fill="#000000" fill-rule="nonzero" fill-opacity="1" /><polyline clip-path="url(#clip560)" style="stroke:#000000; stroke-linecap:round; stroke-linejoin:round; stroke-width:4; stroke-opacity:1; fill:none" points="219.38,1423.18 219.38,47.2441 "/>
<polyline clip-path="url(#clip560)" style="stroke:#000000; stroke-linecap:round; stroke-linejoin:round; stroke-width:4; stroke-opacity:1; fill:none" points="219.38,1423.18 238.278,1423.18 "/>
<polyline clip-path="url(#clip560)" style="stroke:#000000; stroke-linecap:round; stroke-linejoin:round; stroke-width:4; stroke-opacity:1; fill:none" points="219.38,1030.06 238.278,1030.06 "/>
<polyline clip-path="url(#clip560)" style="stroke:#000000; stroke-linecap:round; stroke-linejoin:round; stroke-width:4; stroke-opacity:1; fill:none" points="219.38,636.931 238.278,636.931 "/>
<polyline clip-path="url(#clip560)" style="stroke:#000000; stroke-linecap:round; stroke-linejoin:round; stroke-width:4; stroke-opacity:1; fill:none" points="219.38,243.806 238.278,243.806 "/>
<path clip-path="url(#clip560)" d="M126.205 1408.98 Q122.593 1408.98 120.765 1412.54 Q118.959 1416.08 118.959 1423.21 Q118.959 1430.32 120.765 1433.89 Q122.593 1437.43 126.205 1437.43 Q129.839 1437.43 131.644 1433.89 Q133.473 1430.32 133.473 1423.21 Q133.473 1416.08 131.644 1412.54 Q129.839 1408.98 126.205 1408.98 M126.205 1405.27 Q132.015 1405.27 135.07 1409.88 Q138.149 1414.46 138.149 1423.21 Q138.149 1431.94 135.07 1436.55 Q132.015 1441.13 126.205 1441.13 Q120.394 1441.13 117.316 1436.55 Q114.26 1431.94 114.26 1423.21 Q114.26 1414.46 117.316 1409.88 Q120.394 1405.27 126.205 1405.27 Z" fill="#000000" fill-rule="nonzero" fill-opacity="1" /><path clip-path="url(#clip560)" d="M146.366 1434.58 L151.251 1434.58 L151.251 1440.46 L146.366 1440.46 L146.366 1434.58 Z" fill="#000000" fill-rule="nonzero" fill-opacity="1" /><path clip-path="url(#clip560)" d="M171.436 1408.98 Q167.825 1408.98 165.996 1412.54 Q164.19 1416.08 164.19 1423.21 Q164.19 1430.32 165.996 1433.89 Q167.825 1437.43 171.436 1437.43 Q175.07 1437.43 176.876 1433.89 Q178.704 1430.32 178.704 1423.21 Q178.704 1416.08 176.876 1412.54 Q175.07 1408.98 171.436 1408.98 M171.436 1405.27 Q177.246 1405.27 180.301 1409.88 Q183.38 1414.46 183.38 1423.21 Q183.38 1431.94 180.301 1436.55 Q177.246 1441.13 171.436 1441.13 Q165.626 1441.13 162.547 1436.55 Q159.491 1431.94 159.491 1423.21 Q159.491 1414.46 162.547 1409.88 Q165.626 1405.27 171.436 1405.27 Z" fill="#000000" fill-rule="nonzero" fill-opacity="1" /><path clip-path="url(#clip560)" d="M127.431 1015.85 Q123.82 1015.85 121.992 1019.42 Q120.186 1022.96 120.186 1030.09 Q120.186 1037.2 121.992 1040.76 Q123.82 1044.3 127.431 1044.3 Q131.066 1044.3 132.871 1040.76 Q134.7 1037.2 134.7 1030.09 Q134.7 1022.96 132.871 1019.42 Q131.066 1015.85 127.431 1015.85 M127.431 1012.15 Q133.242 1012.15 136.297 1016.76 Q139.376 1021.34 139.376 1030.09 Q139.376 1038.82 136.297 1043.42 Q133.242 1048.01 127.431 1048.01 Q121.621 1048.01 118.543 1043.42 Q115.487 1038.82 115.487 1030.09 Q115.487 1021.34 118.543 1016.76 Q121.621 1012.15 127.431 1012.15 Z" fill="#000000" fill-rule="nonzero" fill-opacity="1" /><path clip-path="url(#clip560)" d="M147.593 1041.46 L152.478 1041.46 L152.478 1047.34 L147.593 1047.34 L147.593 1041.46 Z" fill="#000000" fill-rule="nonzero" fill-opacity="1" /><path clip-path="url(#clip560)" d="M163.473 1043.4 L171.112 1043.4 L171.112 1017.03 L162.802 1018.7 L162.802 1014.44 L171.065 1012.78 L175.741 1012.78 L175.741 1043.4 L183.38 1043.4 L183.38 1047.34 L163.473 1047.34 L163.473 1043.4 Z" fill="#000000" fill-rule="nonzero" fill-opacity="1" /><path clip-path="url(#clip560)" d="M127.802 622.73 Q124.191 622.73 122.362 626.294 Q120.556 629.836 120.556 636.966 Q120.556 644.072 122.362 647.637 Q124.191 651.178 127.802 651.178 Q131.436 651.178 133.242 647.637 Q135.07 644.072 135.07 636.966 Q135.07 629.836 133.242 626.294 Q131.436 622.73 127.802 622.73 M127.802 619.026 Q133.612 619.026 136.667 623.632 Q139.746 628.216 139.746 636.966 Q139.746 645.692 136.667 650.299 Q133.612 654.882 127.802 654.882 Q121.992 654.882 118.913 650.299 Q115.857 645.692 115.857 636.966 Q115.857 628.216 118.913 623.632 Q121.992 619.026 127.802 619.026 Z" fill="#000000" fill-rule="nonzero" fill-opacity="1" /><path clip-path="url(#clip560)" d="M147.964 648.331 L152.848 648.331 L152.848 654.211 L147.964 654.211 L147.964 648.331 Z" fill="#000000" fill-rule="nonzero" fill-opacity="1" /><path clip-path="url(#clip560)" d="M167.061 650.276 L183.38 650.276 L183.38 654.211 L161.436 654.211 L161.436 650.276 Q164.098 647.521 168.681 642.891 Q173.288 638.239 174.468 636.896 Q176.714 634.373 177.593 632.637 Q178.496 630.878 178.496 629.188 Q178.496 626.433 176.551 624.697 Q174.63 622.961 171.528 622.961 Q169.329 622.961 166.876 623.725 Q164.445 624.489 161.667 626.04 L161.667 621.318 Q164.491 620.183 166.945 619.605 Q169.399 619.026 171.436 619.026 Q176.806 619.026 180.001 621.711 Q183.195 624.396 183.195 628.887 Q183.195 631.017 182.385 632.938 Q181.598 634.836 179.491 637.429 Q178.913 638.1 175.811 641.317 Q172.709 644.512 167.061 650.276 Z" fill="#000000" fill-rule="nonzero" fill-opacity="1" /><path clip-path="url(#clip560)" d="M126.853 229.605 Q123.242 229.605 121.413 233.17 Q119.607 236.711 119.607 243.841 Q119.607 250.948 121.413 254.512 Q123.242 258.054 126.853 258.054 Q130.487 258.054 132.292 254.512 Q134.121 250.948 134.121 243.841 Q134.121 236.711 132.292 233.17 Q130.487 229.605 126.853 229.605 M126.853 225.901 Q132.663 225.901 135.718 230.508 Q138.797 235.091 138.797 243.841 Q138.797 252.568 135.718 257.174 Q132.663 261.758 126.853 261.758 Q121.043 261.758 117.964 257.174 Q114.908 252.568 114.908 243.841 Q114.908 235.091 117.964 230.508 Q121.043 225.901 126.853 225.901 Z" fill="#000000" fill-rule="nonzero" fill-opacity="1" /><path clip-path="url(#clip560)" d="M147.015 255.207 L151.899 255.207 L151.899 261.086 L147.015 261.086 L147.015 255.207 Z" fill="#000000" fill-rule="nonzero" fill-opacity="1" /><path clip-path="url(#clip560)" d="M176.251 242.452 Q179.607 243.17 181.482 245.438 Q183.38 247.707 183.38 251.04 Q183.38 256.156 179.862 258.957 Q176.343 261.758 169.862 261.758 Q167.686 261.758 165.371 261.318 Q163.079 260.901 160.626 260.045 L160.626 255.531 Q162.57 256.665 164.885 257.244 Q167.2 257.822 169.723 257.822 Q174.121 257.822 176.413 256.086 Q178.727 254.35 178.727 251.04 Q178.727 247.985 176.575 246.272 Q174.445 244.536 170.626 244.536 L166.598 244.536 L166.598 240.693 L170.811 240.693 Q174.26 240.693 176.089 239.327 Q177.917 237.938 177.917 235.346 Q177.917 232.684 176.019 231.272 Q174.144 229.837 170.626 229.837 Q168.704 229.837 166.505 230.253 Q164.306 230.67 161.667 231.549 L161.667 227.383 Q164.329 226.642 166.644 226.272 Q168.982 225.901 171.042 225.901 Q176.366 225.901 179.468 228.332 Q182.57 230.739 182.57 234.86 Q182.57 237.73 180.926 239.721 Q179.283 241.688 176.251 242.452 Z" fill="#000000" fill-rule="nonzero" fill-opacity="1" /><path clip-path="url(#clip560)" d="M21.7677 896.901 L39.6235 896.901 L39.6235 888.816 Q39.6235 884.329 37.3 881.878 Q34.9765 879.427 30.6797 879.427 Q26.4147 879.427 24.0912 881.878 Q21.7677 884.329 21.7677 888.816 L21.7677 896.901 M16.4842 903.33 L16.4842 888.816 Q16.4842 880.828 20.1126 876.753 Q23.7092 872.648 30.6797 872.648 Q37.7138 872.648 41.3104 876.753 Q44.907 880.828 44.907 888.816 L44.907 896.901 L64.0042 896.901 L64.0042 903.33 L16.4842 903.33 Z" fill="#000000" fill-rule="nonzero" fill-opacity="1" /><path clip-path="url(#clip560)" d="M33.8307 844.766 Q33.2578 845.752 33.0032 846.93 Q32.7167 848.076 32.7167 849.476 Q32.7167 854.442 35.9632 857.115 Q39.1779 859.757 45.2253 859.757 L64.0042 859.757 L64.0042 865.645 L28.3562 865.645 L28.3562 859.757 L33.8944 859.757 Q30.6479 857.911 29.0883 854.951 Q27.4968 851.991 27.4968 847.758 Q27.4968 847.153 27.5923 846.421 Q27.656 845.689 27.8151 844.798 L33.8307 844.766 Z" fill="#000000" fill-rule="nonzero" fill-opacity="1" /><path clip-path="url(#clip560)" d="M32.4621 826.242 Q32.4621 830.952 36.1542 833.689 Q39.8145 836.427 46.212 836.427 Q52.6095 836.427 56.3017 833.721 Q59.9619 830.984 59.9619 826.242 Q59.9619 821.563 56.2698 818.826 Q52.5777 816.088 46.212 816.088 Q39.8781 816.088 36.186 818.826 Q32.4621 821.563 32.4621 826.242 M27.4968 826.242 Q27.4968 818.603 32.4621 814.242 Q37.4273 809.882 46.212 809.882 Q54.9649 809.882 59.9619 814.242 Q64.9272 818.603 64.9272 826.242 Q64.9272 833.912 59.9619 838.273 Q54.9649 842.601 46.212 842.601 Q37.4273 842.601 32.4621 838.273 Q27.4968 833.912 27.4968 826.242 Z" fill="#000000" fill-rule="nonzero" fill-opacity="1" /><path clip-path="url(#clip560)" d="M46.212 774.584 Q39.7508 774.584 36.0905 777.257 Q32.3984 779.899 32.3984 784.546 Q32.3984 789.193 36.0905 791.867 Q39.7508 794.509 46.212 794.509 Q52.6732 794.509 56.3653 791.867 Q60.0256 789.193 60.0256 784.546 Q60.0256 779.899 56.3653 777.257 Q52.6732 774.584 46.212 774.584 M33.7671 794.509 Q30.5842 792.662 29.0564 789.862 Q27.4968 787.029 27.4968 783.114 Q27.4968 776.621 32.6531 772.579 Q37.8093 768.505 46.212 768.505 Q54.6147 768.505 59.771 772.579 Q64.9272 776.621 64.9272 783.114 Q64.9272 787.029 63.3994 789.862 Q61.8398 792.662 58.657 794.509 L64.0042 794.509 L64.0042 800.397 L14.479 800.397 L14.479 794.509 L33.7671 794.509 Z" fill="#000000" fill-rule="nonzero" fill-opacity="1" /><path clip-path="url(#clip560)" d="M46.0847 742.596 Q46.0847 749.694 47.7079 752.431 Q49.3312 755.168 53.2461 755.168 Q56.3653 755.168 58.2114 753.131 Q60.0256 751.063 60.0256 747.53 Q60.0256 742.66 56.5881 739.732 Q53.1188 736.772 47.3897 736.772 L46.0847 736.772 L46.0847 742.596 M43.6657 730.915 L64.0042 730.915 L64.0042 736.772 L58.5933 736.772 Q61.8398 738.777 63.3994 741.769 Q64.9272 744.761 64.9272 749.089 Q64.9272 754.564 61.8716 757.81 Q58.7843 761.025 53.6281 761.025 Q47.6125 761.025 44.5569 757.015 Q41.5014 752.972 41.5014 744.983 L41.5014 736.772 L40.9285 736.772 Q36.8862 736.772 34.6901 739.445 Q32.4621 742.087 32.4621 746.893 Q32.4621 749.949 33.1941 752.845 Q33.9262 755.741 35.3903 758.415 L29.9795 758.415 Q28.7381 755.2 28.1334 752.177 Q27.4968 749.153 27.4968 746.288 Q27.4968 738.554 31.5072 734.735 Q35.5176 730.915 43.6657 730.915 Z" fill="#000000" fill-rule="nonzero" fill-opacity="1" /><path clip-path="url(#clip560)" d="M46.212 693.262 Q39.7508 693.262 36.0905 695.936 Q32.3984 698.577 32.3984 703.224 Q32.3984 707.871 36.0905 710.545 Q39.7508 713.187 46.212 713.187 Q52.6732 713.187 56.3653 710.545 Q60.0256 707.871 60.0256 703.224 Q60.0256 698.577 56.3653 695.936 Q52.6732 693.262 46.212 693.262 M33.7671 713.187 Q30.5842 711.341 29.0564 708.54 Q27.4968 705.707 27.4968 701.792 Q27.4968 695.299 32.6531 691.257 Q37.8093 687.183 46.212 687.183 Q54.6147 687.183 59.771 691.257 Q64.9272 695.299 64.9272 701.792 Q64.9272 705.707 63.3994 708.54 Q61.8398 711.341 58.657 713.187 L64.0042 713.187 L64.0042 719.075 L14.479 719.075 L14.479 713.187 L33.7671 713.187 Z" fill="#000000" fill-rule="nonzero" fill-opacity="1" /><path clip-path="url(#clip560)" d="M28.3562 677.475 L28.3562 671.619 L64.0042 671.619 L64.0042 677.475 L28.3562 677.475 M14.479 677.475 L14.479 671.619 L21.895 671.619 L21.895 677.475 L14.479 677.475 Z" fill="#000000" fill-rule="nonzero" fill-opacity="1" /><path clip-path="url(#clip560)" d="M14.479 659.365 L14.479 653.508 L64.0042 653.508 L64.0042 659.365 L14.479 659.365 Z" fill="#000000" fill-rule="nonzero" fill-opacity="1" /><path clip-path="url(#clip560)" d="M28.3562 641.254 L28.3562 635.398 L64.0042 635.398 L64.0042 641.254 L28.3562 641.254 M14.479 641.254 L14.479 635.398 L21.895 635.398 L21.895 641.254 L14.479 641.254 Z" fill="#000000" fill-rule="nonzero" fill-opacity="1" /><path clip-path="url(#clip560)" d="M18.2347 617.351 L28.3562 617.351 L28.3562 605.288 L32.9077 605.288 L32.9077 617.351 L52.2594 617.351 Q56.6199 617.351 57.8613 616.173 Q59.1026 614.964 59.1026 611.303 L59.1026 605.288 L64.0042 605.288 L64.0042 611.303 Q64.0042 618.083 61.4897 620.661 Q58.9434 623.239 52.2594 623.239 L32.9077 623.239 L32.9077 627.536 L28.3562 627.536 L28.3562 623.239 L18.2347 623.239 L18.2347 617.351 Z" fill="#000000" fill-rule="nonzero" fill-opacity="1" /><path clip-path="url(#clip560)" d="M67.3143 582.753 Q73.68 585.236 75.6216 587.591 Q77.5631 589.947 77.5631 593.893 L77.5631 598.572 L72.6615 598.572 L72.6615 595.135 Q72.6615 592.716 71.5157 591.379 Q70.3699 590.042 66.1048 588.419 L63.4312 587.368 L28.3562 601.787 L28.3562 595.58 L56.238 584.44 L28.3562 573.3 L28.3562 567.094 L67.3143 582.753 Z" fill="#000000" fill-rule="nonzero" fill-opacity="1" /><path clip-path="url(#clip562)" d="M872.275 833.493 L872.275 1423.18 L1032.69 1423.18 L1032.69 833.493 L872.275 833.493 L872.275 833.493  Z" fill="#009af9" fill-rule="evenodd" fill-opacity="1"/>
<polyline clip-path="url(#clip562)" style="stroke:#000000; stroke-linecap:round; stroke-linejoin:round; stroke-width:4; stroke-opacity:1; fill:none" points="872.275,833.493 872.275,1423.18 1032.69,1423.18 1032.69,833.493 872.275,833.493 "/>
<path clip-path="url(#clip562)" d="M1032.69 47.2441 L1032.69 1423.18 L1193.11 1423.18 L1193.11 47.2441 L1032.69 47.2441 L1032.69 47.2441  Z" fill="#009af9" fill-rule="evenodd" fill-opacity="1"/>
<polyline clip-path="url(#clip562)" style="stroke:#000000; stroke-linecap:round; stroke-linejoin:round; stroke-width:4; stroke-opacity:1; fill:none" points="1032.69,47.2441 1032.69,1423.18 1193.11,1423.18 1193.11,47.2441 1032.69,47.2441 "/>
<path clip-path="url(#clip562)" d="M1193.11 1030.06 L1193.11 1423.18 L1353.52 1423.18 L1353.52 1030.06 L1193.11 1030.06 L1193.11 1030.06  Z" fill="#009af9" fill-rule="evenodd" fill-opacity="1"/>
<polyline clip-path="url(#clip562)" style="stroke:#000000; stroke-linecap:round; stroke-linejoin:round; stroke-width:4; stroke-opacity:1; fill:none" points="1193.11,1030.06 1193.11,1423.18 1353.52,1423.18 1353.52,1030.06 1193.11,1030.06 "/>
<path clip-path="url(#clip562)" d="M1353.52 1030.06 L1353.52 1423.18 L1513.94 1423.18 L1513.94 1030.06 L1353.52 1030.06 L1353.52 1030.06  Z" fill="#009af9" fill-rule="evenodd" fill-opacity="1"/>
<polyline clip-path="url(#clip562)" style="stroke:#000000; stroke-linecap:round; stroke-linejoin:round; stroke-width:4; stroke-opacity:1; fill:none" points="1353.52,1030.06 1353.52,1423.18 1513.94,1423.18 1513.94,1030.06 1353.52,1030.06 "/>
<path clip-path="url(#clip562)" d="M1513.94 440.369 L1513.94 1423.18 L1674.35 1423.18 L1674.35 440.369 L1513.94 440.369 L1513.94 440.369  Z" fill="#009af9" fill-rule="evenodd" fill-opacity="1"/>
<polyline clip-path="url(#clip562)" style="stroke:#000000; stroke-linecap:round; stroke-linejoin:round; stroke-width:4; stroke-opacity:1; fill:none" points="1513.94,440.369 1513.94,1423.18 1674.35,1423.18 1674.35,440.369 1513.94,440.369 "/>
<path clip-path="url(#clip562)" d="M1674.35 1226.62 L1674.35 1423.18 L1834.77 1423.18 L1834.77 1226.62 L1674.35 1226.62 L1674.35 1226.62  Z" fill="#009af9" fill-rule="evenodd" fill-opacity="1"/>
<polyline clip-path="url(#clip562)" style="stroke:#000000; stroke-linecap:round; stroke-linejoin:round; stroke-width:4; stroke-opacity:1; fill:none" points="1674.35,1226.62 1674.35,1423.18 1834.77,1423.18 1834.77,1226.62 1674.35,1226.62 "/>
<circle clip-path="url(#clip562)" style="fill:#009af9; stroke:none; fill-opacity:0" cx="952.483" cy="833.493" r="2"/>
<circle clip-path="url(#clip562)" style="fill:#009af9; stroke:none; fill-opacity:0" cx="1112.9" cy="47.2441" r="2"/>
<circle clip-path="url(#clip562)" style="fill:#009af9; stroke:none; fill-opacity:0" cx="1273.31" cy="1030.06" r="2"/>
<circle clip-path="url(#clip562)" style="fill:#009af9; stroke:none; fill-opacity:0" cx="1433.73" cy="1030.06" r="2"/>
<circle clip-path="url(#clip562)" style="fill:#009af9; stroke:none; fill-opacity:0" cx="1594.14" cy="440.369" r="2"/>
<circle clip-path="url(#clip562)" style="fill:#009af9; stroke:none; fill-opacity:0" cx="1754.56" cy="1226.62" r="2"/>
<polyline clip-path="url(#clip562)" style="stroke:#e26f46; stroke-linecap:round; stroke-linejoin:round; stroke-width:4; stroke-opacity:1; fill:none" points="279.759,1422.72 290.148,1422.65 300.536,1422.57 361.383,1421.83 422.229,1420.33 450.535,1419.23 478.841,1417.75 516.781,1415.01 554.722,1411.13 570.397,1409.11 586.072,1406.81 601.747,1404.19 617.422,1401.23 631.999,1398.14 646.575,1394.7 661.151,1390.89 675.728,1386.66 694.026,1380.74 712.325,1374.08 730.623,1366.64 748.921,1358.37 765.335,1350.21 781.749,1341.33 798.163,1331.7 814.576,1321.31 833.364,1308.49 852.152,1294.67 870.939,1279.88 889.727,1264.16 903.771,1251.83 917.815,1239.04 931.859,1225.83 945.902,1212.24 981.827,1176.11 1017.75,1138.84 1050.54,1104.89 1083.33,1072.07 1092.66,1063.09 1101.99,1054.33 1111.32,1045.8 1120.65,1037.53 1129.98,1029.55 1139.31,1021.88 1148.63,1014.55 1157.96,1007.57 1172.75,997.315 1187.55,988.104 1202.34,980.02 1217.13,973.133 1226.32,969.485 1235.5,966.333 1244.69,963.69 1253.88,961.564 1263.07,959.963 1272.26,958.892 1281.45,958.355 1290.63,958.353 1304.71,959.388 1318.78,961.672 1332.85,965.184 1346.93,969.898 1356.85,973.922 1366.77,978.509 1376.69,983.64 1386.61,989.296 1396.53,995.454 1406.45,1002.09 1416.37,1009.18 1426.29,1016.7 1441.12,1028.67 1455.94,1041.44 1470.77,1054.9 1485.6,1068.96 1519.32,1102.56 1553.04,1137.45 1586.44,1172.13 1619.84,1205.94 1638.21,1223.85 1656.58,1241.13 1674.95,1257.67 1693.33,1273.4 1707.36,1284.84 1721.39,1295.74 1735.42,1306.1 1749.46,1315.9 1767.16,1327.48 1784.87,1338.18 1802.58,1348 1820.29,1356.97 1836.67,1364.53 1853.05,1371.43 1869.42,1377.67 1885.8,1383.31 1902.69,1388.53 1919.58,1393.19 1936.48,1397.31 1953.37,1400.96 1970.49,1404.21 1987.61,1407.05 2004.73,1409.52 2021.85,1411.65 2057.61,1415.2 2093.36,1417.75 2121.53,1419.22 2149.7,1420.33 2213.84,1421.88 2277.98,1422.62 2285.18,1422.67 2292.38,1422.72 "/>
<path clip-path="url(#clip560)" d="M1313.75 196.789 L2281.64 196.789 L2281.64 93.1086 L1313.75 93.1086  Z" fill="#ffffff" fill-rule="evenodd" fill-opacity="1"/>
<polyline clip-path="url(#clip560)" style="stroke:#000000; stroke-linecap:round; stroke-linejoin:round; stroke-width:4; stroke-opacity:1; fill:none" points="1313.75,196.789 2281.64,196.789 2281.64,93.1086 1313.75,93.1086 1313.75,196.789 "/>
<polyline clip-path="url(#clip560)" style="stroke:#e26f46; stroke-linecap:round; stroke-linejoin:round; stroke-width:4; stroke-opacity:1; fill:none" points="1337.45,144.949 1479.68,144.949 "/>
<path clip-path="url(#clip560)" d="M1508.06 131.511 L1508.06 158.386 L1513.71 158.386 Q1520.86 158.386 1524.17 155.145 Q1527.5 151.905 1527.5 144.914 Q1527.5 137.969 1524.17 134.752 Q1520.86 131.511 1513.71 131.511 L1508.06 131.511 M1503.38 127.669 L1512.99 127.669 Q1523.04 127.669 1527.73 131.858 Q1532.43 136.025 1532.43 144.914 Q1532.43 153.849 1527.71 158.039 Q1522.99 162.229 1512.99 162.229 L1503.38 162.229 L1503.38 127.669 Z" fill="#000000" fill-rule="nonzero" fill-opacity="1" /><path clip-path="url(#clip560)" d="M1539.7 136.303 L1543.96 136.303 L1543.96 162.229 L1539.7 162.229 L1539.7 136.303 M1539.7 126.21 L1543.96 126.21 L1543.96 131.604 L1539.7 131.604 L1539.7 126.21 Z" fill="#000000" fill-rule="nonzero" fill-opacity="1" /><path clip-path="url(#clip560)" d="M1569.4 137.067 L1569.4 141.094 Q1567.6 140.169 1565.65 139.706 Q1563.71 139.243 1561.62 139.243 Q1558.45 139.243 1556.85 140.215 Q1555.28 141.187 1555.28 143.131 Q1555.28 144.613 1556.42 145.469 Q1557.55 146.303 1560.98 147.067 L1562.43 147.391 Q1566.97 148.363 1568.87 150.145 Q1570.79 151.905 1570.79 155.076 Q1570.79 158.687 1567.92 160.793 Q1565.07 162.9 1560.07 162.9 Q1557.99 162.9 1555.72 162.483 Q1553.48 162.09 1550.98 161.28 L1550.98 156.881 Q1553.34 158.108 1555.63 158.733 Q1557.92 159.335 1560.17 159.335 Q1563.17 159.335 1564.79 158.317 Q1566.42 157.275 1566.42 155.4 Q1566.42 153.664 1565.23 152.738 Q1564.08 151.812 1560.12 150.956 L1558.64 150.608 Q1554.68 149.775 1552.92 148.062 Q1551.16 146.326 1551.16 143.317 Q1551.16 139.659 1553.75 137.669 Q1556.35 135.678 1561.11 135.678 Q1563.48 135.678 1565.56 136.025 Q1567.64 136.372 1569.4 137.067 Z" fill="#000000" fill-rule="nonzero" fill-opacity="1" /><path clip-path="url(#clip560)" d="M1581.79 128.942 L1581.79 136.303 L1590.56 136.303 L1590.56 139.613 L1581.79 139.613 L1581.79 153.687 Q1581.79 156.858 1582.64 157.761 Q1583.52 158.664 1586.18 158.664 L1590.56 158.664 L1590.56 162.229 L1586.18 162.229 Q1581.25 162.229 1579.38 160.4 Q1577.5 158.548 1577.5 153.687 L1577.5 139.613 L1574.38 139.613 L1574.38 136.303 L1577.5 136.303 L1577.5 128.942 L1581.79 128.942 Z" fill="#000000" fill-rule="nonzero" fill-opacity="1" /><path clip-path="url(#clip560)" d="M1611.18 140.284 Q1610.47 139.868 1609.61 139.682 Q1608.78 139.474 1607.76 139.474 Q1604.15 139.474 1602.2 141.835 Q1600.28 144.173 1600.28 148.571 L1600.28 162.229 L1596 162.229 L1596 136.303 L1600.28 136.303 L1600.28 140.331 Q1601.62 137.969 1603.78 136.835 Q1605.93 135.678 1609.01 135.678 Q1609.45 135.678 1609.98 135.747 Q1610.51 135.794 1611.16 135.909 L1611.18 140.284 Z" fill="#000000" fill-rule="nonzero" fill-opacity="1" /><path clip-path="url(#clip560)" d="M1615.65 136.303 L1619.91 136.303 L1619.91 162.229 L1615.65 162.229 L1615.65 136.303 M1615.65 126.21 L1619.91 126.21 L1619.91 131.604 L1615.65 131.604 L1615.65 126.21 Z" fill="#000000" fill-rule="nonzero" fill-opacity="1" /><path clip-path="url(#clip560)" d="M1647.43 149.289 Q1647.43 144.59 1645.49 141.928 Q1643.57 139.243 1640.19 139.243 Q1636.81 139.243 1634.86 141.928 Q1632.94 144.59 1632.94 149.289 Q1632.94 153.988 1634.86 156.673 Q1636.81 159.335 1640.19 159.335 Q1643.57 159.335 1645.49 156.673 Q1647.43 153.988 1647.43 149.289 M1632.94 140.238 Q1634.29 137.923 1636.32 136.812 Q1638.38 135.678 1641.23 135.678 Q1645.95 135.678 1648.89 139.428 Q1651.85 143.178 1651.85 149.289 Q1651.85 155.4 1648.89 159.15 Q1645.95 162.9 1641.23 162.9 Q1638.38 162.9 1636.32 161.789 Q1634.29 160.655 1632.94 158.34 L1632.94 162.229 L1628.66 162.229 L1628.66 126.21 L1632.94 126.21 L1632.94 140.238 Z" fill="#000000" fill-rule="nonzero" fill-opacity="1" /><path clip-path="url(#clip560)" d="M1658.47 151.997 L1658.47 136.303 L1662.73 136.303 L1662.73 151.835 Q1662.73 155.516 1664.17 157.368 Q1665.6 159.196 1668.47 159.196 Q1671.92 159.196 1673.91 156.997 Q1675.93 154.798 1675.93 151.002 L1675.93 136.303 L1680.19 136.303 L1680.19 162.229 L1675.93 162.229 L1675.93 158.247 Q1674.38 160.608 1672.32 161.766 Q1670.28 162.9 1667.57 162.9 Q1663.1 162.9 1660.79 160.122 Q1658.47 157.344 1658.47 151.997 M1669.19 135.678 L1669.19 135.678 Z" fill="#000000" fill-rule="nonzero" fill-opacity="1" /><path clip-path="url(#clip560)" d="M1693.17 128.942 L1693.17 136.303 L1701.95 136.303 L1701.95 139.613 L1693.17 139.613 L1693.17 153.687 Q1693.17 156.858 1694.03 157.761 Q1694.91 158.664 1697.57 158.664 L1701.95 158.664 L1701.95 162.229 L1697.57 162.229 Q1692.64 162.229 1690.77 160.4 Q1688.89 158.548 1688.89 153.687 L1688.89 139.613 L1685.77 139.613 L1685.77 136.303 L1688.89 136.303 L1688.89 128.942 L1693.17 128.942 Z" fill="#000000" fill-rule="nonzero" fill-opacity="1" /><path clip-path="url(#clip560)" d="M1707.55 136.303 L1711.81 136.303 L1711.81 162.229 L1707.55 162.229 L1707.55 136.303 M1707.55 126.21 L1711.81 126.21 L1711.81 131.604 L1707.55 131.604 L1707.55 126.21 Z" fill="#000000" fill-rule="nonzero" fill-opacity="1" /><path clip-path="url(#clip560)" d="M1730.77 139.289 Q1727.34 139.289 1725.35 141.974 Q1723.36 144.636 1723.36 149.289 Q1723.36 153.942 1725.33 156.627 Q1727.32 159.289 1730.77 159.289 Q1734.17 159.289 1736.16 156.604 Q1738.15 153.918 1738.15 149.289 Q1738.15 144.682 1736.16 141.997 Q1734.17 139.289 1730.77 139.289 M1730.77 135.678 Q1736.32 135.678 1739.49 139.289 Q1742.66 142.9 1742.66 149.289 Q1742.66 155.655 1739.49 159.289 Q1736.32 162.9 1730.77 162.9 Q1725.19 162.9 1722.02 159.289 Q1718.87 155.655 1718.87 149.289 Q1718.87 142.9 1722.02 139.289 Q1725.19 135.678 1730.77 135.678 Z" fill="#000000" fill-rule="nonzero" fill-opacity="1" /><path clip-path="url(#clip560)" d="M1771.28 146.581 L1771.28 162.229 L1767.02 162.229 L1767.02 146.719 Q1767.02 143.039 1765.58 141.21 Q1764.15 139.382 1761.28 139.382 Q1757.83 139.382 1755.84 141.581 Q1753.84 143.78 1753.84 147.576 L1753.84 162.229 L1749.56 162.229 L1749.56 136.303 L1753.84 136.303 L1753.84 140.331 Q1755.37 137.993 1757.43 136.835 Q1759.52 135.678 1762.22 135.678 Q1766.69 135.678 1768.98 138.456 Q1771.28 141.21 1771.28 146.581 Z" fill="#000000" fill-rule="nonzero" fill-opacity="1" /><path clip-path="url(#clip560)" d="M1806.62 149.196 Q1801.46 149.196 1799.47 150.377 Q1797.48 151.557 1797.48 154.405 Q1797.48 156.673 1798.96 158.016 Q1800.46 159.335 1803.03 159.335 Q1806.58 159.335 1808.71 156.835 Q1810.86 154.312 1810.86 150.145 L1810.86 149.196 L1806.62 149.196 M1815.12 147.437 L1815.12 162.229 L1810.86 162.229 L1810.86 158.293 Q1809.4 160.655 1807.22 161.789 Q1805.05 162.9 1801.9 162.9 Q1797.92 162.9 1795.56 160.678 Q1793.22 158.432 1793.22 154.682 Q1793.22 150.307 1796.14 148.085 Q1799.08 145.863 1804.89 145.863 L1810.86 145.863 L1810.86 145.446 Q1810.86 142.507 1808.91 140.909 Q1806.99 139.289 1803.5 139.289 Q1801.27 139.289 1799.17 139.821 Q1797.06 140.354 1795.12 141.419 L1795.12 137.483 Q1797.46 136.581 1799.65 136.141 Q1801.85 135.678 1803.94 135.678 Q1809.56 135.678 1812.34 138.594 Q1815.12 141.511 1815.12 147.437 Z" fill="#000000" fill-rule="nonzero" fill-opacity="1" /><path clip-path="url(#clip560)" d="M1840.42 137.067 L1840.42 141.094 Q1838.61 140.169 1836.67 139.706 Q1834.72 139.243 1832.64 139.243 Q1829.47 139.243 1827.87 140.215 Q1826.3 141.187 1826.3 143.131 Q1826.3 144.613 1827.43 145.469 Q1828.57 146.303 1831.99 147.067 L1833.45 147.391 Q1837.99 148.363 1839.89 150.145 Q1841.81 151.905 1841.81 155.076 Q1841.81 158.687 1838.94 160.793 Q1836.09 162.9 1831.09 162.9 Q1829.01 162.9 1826.74 162.483 Q1824.49 162.09 1821.99 161.28 L1821.99 156.881 Q1824.35 158.108 1826.65 158.733 Q1828.94 159.335 1831.18 159.335 Q1834.19 159.335 1835.81 158.317 Q1837.43 157.275 1837.43 155.4 Q1837.43 153.664 1836.25 152.738 Q1835.09 151.812 1831.14 150.956 L1829.65 150.608 Q1825.7 149.775 1823.94 148.062 Q1822.18 146.326 1822.18 143.317 Q1822.18 139.659 1824.77 137.669 Q1827.36 135.678 1832.13 135.678 Q1834.49 135.678 1836.58 136.025 Q1838.66 136.372 1840.42 137.067 Z" fill="#000000" fill-rule="nonzero" fill-opacity="1" /><path clip-path="url(#clip560)" d="M1865.12 137.067 L1865.12 141.094 Q1863.31 140.169 1861.37 139.706 Q1859.42 139.243 1857.34 139.243 Q1854.17 139.243 1852.57 140.215 Q1851 141.187 1851 143.131 Q1851 144.613 1852.13 145.469 Q1853.27 146.303 1856.69 147.067 L1858.15 147.391 Q1862.69 148.363 1864.58 150.145 Q1866.51 151.905 1866.51 155.076 Q1866.51 158.687 1863.64 160.793 Q1860.79 162.9 1855.79 162.9 Q1853.71 162.9 1851.44 162.483 Q1849.19 162.09 1846.69 161.28 L1846.69 156.881 Q1849.05 158.108 1851.34 158.733 Q1853.64 159.335 1855.88 159.335 Q1858.89 159.335 1860.51 158.317 Q1862.13 157.275 1862.13 155.4 Q1862.13 153.664 1860.95 152.738 Q1859.79 151.812 1855.83 150.956 L1854.35 150.608 Q1850.4 149.775 1848.64 148.062 Q1846.88 146.326 1846.88 143.317 Q1846.88 139.659 1849.47 137.669 Q1852.06 135.678 1856.83 135.678 Q1859.19 135.678 1861.27 136.025 Q1863.36 136.372 1865.12 137.067 Z" fill="#000000" fill-rule="nonzero" fill-opacity="1" /><path clip-path="url(#clip560)" d="M1872.85 151.997 L1872.85 136.303 L1877.11 136.303 L1877.11 151.835 Q1877.11 155.516 1878.54 157.368 Q1879.98 159.196 1882.85 159.196 Q1886.3 159.196 1888.29 156.997 Q1890.3 154.798 1890.3 151.002 L1890.3 136.303 L1894.56 136.303 L1894.56 162.229 L1890.3 162.229 L1890.3 158.247 Q1888.75 160.608 1886.69 161.766 Q1884.65 162.9 1881.95 162.9 Q1877.48 162.9 1875.16 160.122 Q1872.85 157.344 1872.85 151.997 M1883.57 135.678 L1883.57 135.678 Z" fill="#000000" fill-rule="nonzero" fill-opacity="1" /><path clip-path="url(#clip560)" d="M1923.52 141.28 Q1925.12 138.409 1927.34 137.044 Q1929.56 135.678 1932.57 135.678 Q1936.62 135.678 1938.82 138.525 Q1941.02 141.349 1941.02 146.581 L1941.02 162.229 L1936.74 162.229 L1936.74 146.719 Q1936.74 142.993 1935.42 141.187 Q1934.1 139.382 1931.39 139.382 Q1928.08 139.382 1926.16 141.581 Q1924.24 143.78 1924.24 147.576 L1924.24 162.229 L1919.95 162.229 L1919.95 146.719 Q1919.95 142.969 1918.64 141.187 Q1917.32 139.382 1914.56 139.382 Q1911.3 139.382 1909.38 141.604 Q1907.45 143.803 1907.45 147.576 L1907.45 162.229 L1903.17 162.229 L1903.17 136.303 L1907.45 136.303 L1907.45 140.331 Q1908.91 137.946 1910.95 136.812 Q1912.99 135.678 1915.79 135.678 Q1918.61 135.678 1920.58 137.113 Q1922.57 138.548 1923.52 141.28 Z" fill="#000000" fill-rule="nonzero" fill-opacity="1" /><path clip-path="url(#clip560)" d="M1949.51 136.303 L1953.77 136.303 L1953.77 162.229 L1949.51 162.229 L1949.51 136.303 M1949.51 126.21 L1953.77 126.21 L1953.77 131.604 L1949.51 131.604 L1949.51 126.21 Z" fill="#000000" fill-rule="nonzero" fill-opacity="1" /><path clip-path="url(#clip560)" d="M1984.24 146.581 L1984.24 162.229 L1979.98 162.229 L1979.98 146.719 Q1979.98 143.039 1978.54 141.21 Q1977.11 139.382 1974.24 139.382 Q1970.79 139.382 1968.8 141.581 Q1966.81 143.78 1966.81 147.576 L1966.81 162.229 L1962.52 162.229 L1962.52 136.303 L1966.81 136.303 L1966.81 140.331 Q1968.33 137.993 1970.39 136.835 Q1972.48 135.678 1975.19 135.678 Q1979.65 135.678 1981.95 138.456 Q1984.24 141.21 1984.24 146.581 Z" fill="#000000" fill-rule="nonzero" fill-opacity="1" /><path clip-path="url(#clip560)" d="M2009.79 148.965 Q2009.79 144.335 2007.87 141.789 Q2005.97 139.243 2002.52 139.243 Q1999.1 139.243 1997.18 141.789 Q1995.28 144.335 1995.28 148.965 Q1995.28 153.571 1997.18 156.118 Q1999.1 158.664 2002.52 158.664 Q2005.97 158.664 2007.87 156.118 Q2009.79 153.571 2009.79 148.965 M2014.05 159.011 Q2014.05 165.631 2011.11 168.849 Q2008.17 172.09 2002.11 172.09 Q1999.86 172.09 1997.87 171.742 Q1995.88 171.418 1994.01 170.724 L1994.01 166.58 Q1995.88 167.599 1997.71 168.085 Q1999.54 168.571 2001.44 168.571 Q2005.63 168.571 2007.71 166.372 Q2009.79 164.196 2009.79 159.775 L2009.79 157.668 Q2008.47 159.96 2006.41 161.094 Q2004.35 162.229 2001.48 162.229 Q1996.71 162.229 1993.8 158.594 Q1990.88 154.96 1990.88 148.965 Q1990.88 142.946 1993.8 139.312 Q1996.71 135.678 2001.48 135.678 Q2004.35 135.678 2006.41 136.812 Q2008.47 137.946 2009.79 140.238 L2009.79 136.303 L2014.05 136.303 L2014.05 159.011 Z" fill="#000000" fill-rule="nonzero" fill-opacity="1" /><path clip-path="url(#clip560)" d="M2059.44 146.581 L2059.44 162.229 L2055.19 162.229 L2055.19 146.719 Q2055.19 143.039 2053.75 141.21 Q2052.32 139.382 2049.44 139.382 Q2046 139.382 2044.01 141.581 Q2042.01 143.78 2042.01 147.576 L2042.01 162.229 L2037.73 162.229 L2037.73 136.303 L2042.01 136.303 L2042.01 140.331 Q2043.54 137.993 2045.6 136.835 Q2047.69 135.678 2050.39 135.678 Q2054.86 135.678 2057.15 138.456 Q2059.44 141.21 2059.44 146.581 Z" fill="#000000" fill-rule="nonzero" fill-opacity="1" /><path clip-path="url(#clip560)" d="M2077.99 139.289 Q2074.56 139.289 2072.57 141.974 Q2070.58 144.636 2070.58 149.289 Q2070.58 153.942 2072.55 156.627 Q2074.54 159.289 2077.99 159.289 Q2081.39 159.289 2083.38 156.604 Q2085.37 153.918 2085.37 149.289 Q2085.37 144.682 2083.38 141.997 Q2081.39 139.289 2077.99 139.289 M2077.99 135.678 Q2083.54 135.678 2086.71 139.289 Q2089.88 142.9 2089.88 149.289 Q2089.88 155.655 2086.71 159.289 Q2083.54 162.9 2077.99 162.9 Q2072.41 162.9 2069.24 159.289 Q2066.09 155.655 2066.09 149.289 Q2066.09 142.9 2069.24 139.289 Q2072.41 135.678 2077.99 135.678 Z" fill="#000000" fill-rule="nonzero" fill-opacity="1" /><path clip-path="url(#clip560)" d="M2111.97 140.284 Q2111.25 139.868 2110.39 139.682 Q2109.56 139.474 2108.54 139.474 Q2104.93 139.474 2102.99 141.835 Q2101.07 144.173 2101.07 148.571 L2101.07 162.229 L2096.78 162.229 L2096.78 136.303 L2101.07 136.303 L2101.07 140.331 Q2102.41 137.969 2104.56 136.835 Q2106.71 135.678 2109.79 135.678 Q2110.23 135.678 2110.76 135.747 Q2111.3 135.794 2111.94 135.909 L2111.97 140.284 Z" fill="#000000" fill-rule="nonzero" fill-opacity="1" /><path clip-path="url(#clip560)" d="M2135.79 141.28 Q2137.38 138.409 2139.61 137.044 Q2141.83 135.678 2144.84 135.678 Q2148.89 135.678 2151.09 138.525 Q2153.29 141.349 2153.29 146.581 L2153.29 162.229 L2149 162.229 L2149 146.719 Q2149 142.993 2147.69 141.187 Q2146.37 139.382 2143.66 139.382 Q2140.35 139.382 2138.43 141.581 Q2136.5 143.78 2136.5 147.576 L2136.5 162.229 L2132.22 162.229 L2132.22 146.719 Q2132.22 142.969 2130.9 141.187 Q2129.58 139.382 2126.83 139.382 Q2123.56 139.382 2121.64 141.604 Q2119.72 143.803 2119.72 147.576 L2119.72 162.229 L2115.44 162.229 L2115.44 136.303 L2119.72 136.303 L2119.72 140.331 Q2121.18 137.946 2123.22 136.812 Q2125.25 135.678 2128.06 135.678 Q2130.88 135.678 2132.85 137.113 Q2134.84 138.548 2135.79 141.28 Z" fill="#000000" fill-rule="nonzero" fill-opacity="1" /><path clip-path="url(#clip560)" d="M2173.56 149.196 Q2168.4 149.196 2166.41 150.377 Q2164.42 151.557 2164.42 154.405 Q2164.42 156.673 2165.9 158.016 Q2167.41 159.335 2169.98 159.335 Q2173.52 159.335 2175.65 156.835 Q2177.8 154.312 2177.8 150.145 L2177.8 149.196 L2173.56 149.196 M2182.06 147.437 L2182.06 162.229 L2177.8 162.229 L2177.8 158.293 Q2176.34 160.655 2174.17 161.789 Q2171.99 162.9 2168.84 162.9 Q2164.86 162.9 2162.5 160.678 Q2160.16 158.432 2160.16 154.682 Q2160.16 150.307 2163.08 148.085 Q2166.02 145.863 2171.83 145.863 L2177.8 145.863 L2177.8 145.446 Q2177.8 142.507 2175.86 140.909 Q2173.94 139.289 2170.44 139.289 Q2168.22 139.289 2166.11 139.821 Q2164 140.354 2162.06 141.419 L2162.06 137.483 Q2164.4 136.581 2166.6 136.141 Q2168.8 135.678 2170.88 135.678 Q2176.5 135.678 2179.28 138.594 Q2182.06 141.511 2182.06 147.437 Z" fill="#000000" fill-rule="nonzero" fill-opacity="1" /><path clip-path="url(#clip560)" d="M2190.83 126.21 L2195.09 126.21 L2195.09 162.229 L2190.83 162.229 L2190.83 126.21 Z" fill="#000000" fill-rule="nonzero" fill-opacity="1" /><path clip-path="url(#clip560)" d="M2204 136.303 L2208.26 136.303 L2208.26 162.229 L2204 162.229 L2204 136.303 M2204 126.21 L2208.26 126.21 L2208.26 131.604 L2204 131.604 L2204 126.21 Z" fill="#000000" fill-rule="nonzero" fill-opacity="1" /><path clip-path="url(#clip560)" d="M2221.39 128.942 L2221.39 136.303 L2230.16 136.303 L2230.16 139.613 L2221.39 139.613 L2221.39 153.687 Q2221.39 156.858 2222.24 157.761 Q2223.12 158.664 2225.79 158.664 L2230.16 158.664 L2230.16 162.229 L2225.79 162.229 Q2220.86 162.229 2218.98 160.4 Q2217.11 158.548 2217.11 153.687 L2217.11 139.613 L2213.98 139.613 L2213.98 136.303 L2217.11 136.303 L2217.11 128.942 L2221.39 128.942 Z" fill="#000000" fill-rule="nonzero" fill-opacity="1" /><path clip-path="url(#clip560)" d="M2246.55 164.636 Q2244.74 169.266 2243.03 170.678 Q2241.32 172.09 2238.45 172.09 L2235.05 172.09 L2235.05 168.525 L2237.55 168.525 Q2239.31 168.525 2240.28 167.692 Q2241.25 166.858 2242.43 163.756 L2243.19 161.812 L2232.71 136.303 L2237.22 136.303 L2245.32 156.581 L2253.43 136.303 L2257.94 136.303 L2246.55 164.636 Z" fill="#000000" fill-rule="nonzero" fill-opacity="1" /></svg>
